<svg width="56" height="56" viewBox="0 0 56 56" fill="none" xmlns="http://www.w3.org/2000/svg">
<path d="M48 25.5C49.6545 25.5 51 24.1545 51 22.5C51 20.8455 49.6545 19.5 48 19.5C46.3455 19.5 45 20.8455 45 22.5C45 22.845 45.0705 23.1712 45.1777 23.4802L40.986 26.2747C40.1618 25.7677 39.192 25.4783 38.1555 25.5007C37.8218 24.2078 36.6458 23.25 35.25 23.25C35.25 23.109 35.2372 22.971 35.229 22.8315L42.7357 15.3247C43.182 15.5887 43.695 15.75 44.25 15.75C45.9045 15.75 47.25 14.4045 47.25 12.75C47.25 11.0955 45.9045 9.75 44.25 9.75C42.5955 9.75 41.25 11.0955 41.25 12.75C41.25 13.305 41.4113 13.818 41.6753 14.2642L34.8787 21.0607C34.4123 19.7062 33.5295 18.546 32.379 17.7345L34.2975 11.979C34.3657 11.9843 34.431 12 34.5 12C36.1545 12 37.5 10.6545 37.5 9C37.5 7.3455 36.1545 6 34.5 6C32.8455 6 31.5 7.3455 31.5 9C31.5 10.0538 32.0482 10.9777 32.8717 11.5132L31.0425 17.001C30.2565 16.68 29.3993 16.5 28.5 16.5C27.6038 16.5 26.7472 16.6823 25.959 17.0048L24.1283 11.5132C24.9517 10.9777 25.5 10.0538 25.5 9C25.5 7.3455 24.1545 6 22.5 6C20.8455 6 19.5 7.3455 19.5 9C19.5 10.6545 20.8455 12 22.5 12C22.569 12 22.6343 11.9842 22.7025 11.9797L24.621 17.7352C23.4757 18.543 22.59 19.7003 22.1227 21.0623L15.3247 14.2642C15.5887 13.818 15.75 13.305 15.75 12.75C15.75 11.0955 14.4045 9.75 12.75 9.75C11.0955 9.75 9.75 11.0955 9.75 12.75C9.75 14.4045 11.0955 15.75 12.75 15.75C13.305 15.75 13.818 15.5887 14.2642 15.3247L20.9347 21.9952C19.2262 22.524 17.883 23.889 17.4233 25.674C16.9163 25.8045 16.449 26.0168 16.0185 26.2778L11.8215 23.4795C11.9295 23.1712 12 22.845 12 22.5C12 20.8455 10.6545 19.5 9 19.5C7.3455 19.5 6 20.8455 6 22.5C6 24.1545 7.3455 25.5 9 25.5C9.7665 25.5 10.4595 25.2023 10.9897 24.7283L14.8207 27.282C14.0002 28.2097 13.5 29.4188 13.5 30.75C13.5 31.0882 13.5353 31.4175 13.596 31.7385L11.4683 32.802C10.9275 32.0168 10.0237 31.5 9 31.5C7.3455 31.5 6 32.8455 6 34.5C6 36.1545 7.3455 37.5 9 37.5C10.6545 37.5 12 36.1545 12 34.5C12 34.407 11.9805 34.3185 11.9722 34.2278L14.094 33.1672C14.9707 34.8472 16.7265 36 18.75 36H19.9395L14.2642 41.6753C13.818 41.4113 13.305 41.25 12.75 41.25C11.0955 41.25 9.75 42.5955 9.75 44.25C9.75 45.9045 11.0955 47.25 12.75 47.25C14.4045 47.25 15.75 45.9045 15.75 44.25C15.75 43.695 15.5887 43.182 15.3247 42.7357L22.0605 36H25.2555L22.6793 45.018C22.6185 45.0142 22.5615 45 22.5 45C20.8455 45 19.5 46.3455 19.5 48C19.5 49.6545 20.8455 51 22.5 51C24.1545 51 25.5 49.6545 25.5 48C25.5 46.938 24.942 46.0095 24.108 45.4762L26.8155 36H30.1845L32.892 45.4762C32.058 46.0095 31.5 46.938 31.5 48C31.5 49.6545 32.8455 51 34.5 51C36.1545 51 37.5 49.6545 37.5 48C37.5 46.3455 36.1545 45 34.5 45C34.4385 45 34.3815 45.0142 34.3208 45.018L31.7445 36H34.9395L41.6753 42.7357C41.4113 43.182 41.25 43.695 41.25 44.25C41.25 45.9045 42.5955 47.25 44.25 47.25C45.9045 47.25 47.25 45.9045 47.25 44.25C47.25 42.5955 45.9045 41.25 44.25 41.25C43.695 41.25 43.182 41.4113 42.7357 41.6753L37.0605 36H38.25C40.2735 36 42.0293 34.8472 42.906 33.1665L45.0277 34.227C45.0195 34.3185 45 34.407 45 34.5C45 36.1545 46.3455 37.5 48 37.5C49.6545 37.5 51 36.1545 51 34.5C51 32.8455 49.6545 31.5 48 31.5C46.9762 31.5 46.0725 32.0168 45.531 32.802L43.4032 31.7385C43.4647 31.4175 43.5 31.0882 43.5 30.75C43.5 29.4217 42.999 28.2083 42.1808 27.2805L46.0095 24.7275C46.5405 25.2022 47.2335 25.5 48 25.5ZM44.25 11.25C45.0773 11.25 45.75 11.9227 45.75 12.75C45.75 13.5773 45.0773 14.25 44.25 14.25C43.4227 14.25 42.75 13.5773 42.75 12.75C42.75 11.9227 43.4227 11.25 44.25 11.25ZM34.5 7.5C35.3272 7.5 36 8.17275 36 9C36 9.82725 35.3272 10.5 34.5 10.5C33.6728 10.5 33 9.82725 33 9C33 8.17275 33.6728 7.5 34.5 7.5ZM21 9C21 8.17275 21.6727 7.5 22.5 7.5C23.3272 7.5 24 8.17275 24 9C24 9.82725 23.3272 10.5 22.5 10.5C21.6727 10.5 21 9.82725 21 9ZM9 36C8.17275 36 7.5 35.3272 7.5 34.5C7.5 33.6728 8.17275 33 9 33C9.82725 33 10.5 33.6728 10.5 34.5C10.5 35.3272 9.82725 36 9 36ZM12.75 45.75C11.9227 45.75 11.25 45.0773 11.25 44.25C11.25 43.4227 11.9227 42.75 12.75 42.75C13.5773 42.75 14.25 43.4227 14.25 44.25C14.25 45.0773 13.5773 45.75 12.75 45.75ZM22.5 49.5C21.6727 49.5 21 48.8273 21 48C21 47.1727 21.6727 46.5 22.5 46.5C23.3272 46.5 24 47.1727 24 48C24 48.8273 23.3272 49.5 22.5 49.5ZM36 48C36 48.8273 35.3272 49.5 34.5 49.5C33.6728 49.5 33 48.8273 33 48C33 47.1727 33.6728 46.5 34.5 46.5C35.3272 46.5 36 47.1727 36 48ZM45.75 44.25C45.75 45.0773 45.0773 45.75 44.25 45.75C43.4227 45.75 42.75 45.0773 42.75 44.25C42.75 43.4227 43.4227 42.75 44.25 42.75C45.0773 42.75 45.75 43.4227 45.75 44.25ZM48 33C48.8273 33 49.5 33.6728 49.5 34.5C49.5 35.3272 48.8273 36 48 36C47.1727 36 46.5 35.3272 46.5 34.5C46.5 33.6728 47.1727 33 48 33ZM48 21C48.8273 21 49.5 21.6727 49.5 22.5C49.5 23.3272 48.8273 24 48 24C47.1727 24 46.5 23.3272 46.5 22.5C46.5 21.6727 47.1727 21 48 21ZM11.25 12.75C11.25 11.9227 11.9227 11.25 12.75 11.25C13.5773 11.25 14.25 11.9227 14.25 12.75C14.25 13.5773 13.5773 14.25 12.75 14.25C11.9227 14.25 11.25 13.5773 11.25 12.75ZM9 24C8.17275 24 7.5 23.3272 7.5 22.5C7.5 21.6727 8.17275 21 9 21C9.82725 21 10.5 21.6727 10.5 22.5C10.5 23.3272 9.82725 24 9 24ZM38.25 34.5H18.75C16.6823 34.5 15 32.8177 15 30.75C15 28.8908 16.3343 27.3337 18.1733 27.0495C18.4965 27 18.75 26.7465 18.7995 26.4225C19.083 24.5858 20.637 23.2515 22.5142 23.2515C22.5157 23.2515 22.5173 23.2515 22.5187 23.2515C22.9245 23.28 23.2463 22.9823 23.295 22.5953C23.622 19.9755 25.8592 18 28.5 18C31.395 18 33.75 20.3558 33.75 23.25C33.75 23.4893 33.7275 23.751 33.6825 24.048C33.6413 24.3135 33.7463 24.5805 33.9563 24.7485C34.1663 24.9172 34.4505 24.957 34.7002 24.8587C35.7075 24.4598 36.7493 25.2555 36.7545 26.178C36.7507 26.2065 36.744 26.2665 36.7433 26.295C36.7365 26.52 36.831 26.7367 37.0005 26.8845C37.1707 27.0315 37.398 27.0953 37.62 27.057C37.8465 27.0187 38.0527 27 38.25 27C40.3177 27 42 28.6823 42 30.75C42 32.8177 40.3177 34.5 38.25 34.5Z" fill="url(#paint0_linear_734_2300)"/>
<defs>
<linearGradient id="paint0_linear_734_2300" x1="28.5" y1="6" x2="28.5" y2="51" gradientUnits="userSpaceOnUse">
<stop stop-color="#2A5EF1"/>
<stop offset="0.463542" stop-color="#7644FE"/>
<stop offset="1" stop-color="#BF25FE"/>
</linearGradient>
</defs>
</svg>
