<svg width="56" height="56" viewBox="0 0 56 56" fill="none" xmlns="http://www.w3.org/2000/svg">
<path d="M39.6667 45.0271C39.6667 41.1608 34.4423 38.0271 28 38.0271C21.5577 38.0271 16.3333 41.1608 16.3333 45.0271M49 38.0271C49 35.1571 46.1207 32.6908 42 31.6105M7 38.0271C7 35.1571 9.87933 32.6908 14 31.6105M42 22.2445C42.6913 21.6333 43.2549 20.8916 43.6585 20.0619C44.0621 19.2321 44.2977 18.3308 44.3517 17.4097C44.4057 16.4886 44.277 15.5659 43.9732 14.6947C43.6693 13.8235 43.1962 13.021 42.5811 12.3333C41.9659 11.6455 41.2209 11.0862 40.3889 10.6875C39.5568 10.2887 38.6541 10.0584 37.7327 10.0097C36.8113 9.96109 35.8894 10.0951 35.02 10.404C34.1506 10.7129 33.3508 11.1907 32.6667 11.8098M14 22.2445C12.6287 21.0035 11.8042 19.2702 11.7067 17.4233C11.6092 15.5764 12.2466 13.766 13.4796 12.3875C14.7126 11.009 16.441 10.1745 18.2873 10.0662C20.1336 9.958 21.9477 10.5848 23.3333 11.8098M28 31.0271C27.0807 31.0271 26.1705 30.8461 25.3212 30.4943C24.4719 30.1425 23.7003 29.6269 23.0503 28.9769C22.4002 28.3269 21.8846 27.5552 21.5328 26.7059C21.1811 25.8566 21 24.9464 21 24.0271C21 23.1079 21.1811 22.1976 21.5328 21.3483C21.8846 20.4991 22.4002 19.7274 23.0503 19.0774C23.7003 18.4274 24.4719 17.9117 25.3212 17.56C26.1705 17.2082 27.0807 17.0271 28 17.0271C29.8565 17.0271 31.637 17.7646 32.9497 19.0774C34.2625 20.3901 35 22.1706 35 24.0271C35 25.8836 34.2625 27.6641 32.9497 28.9769C31.637 30.2896 29.8565 31.0271 28 31.0271Z" stroke="url(#paint0_linear_734_2314)" stroke-width="4" stroke-linecap="round" stroke-linejoin="round"/>
<defs>
<linearGradient id="paint0_linear_734_2314" x1="28" y1="10" x2="28" y2="45.0271" gradientUnits="userSpaceOnUse">
<stop stop-color="#2560F1"/>
<stop offset="0.4875" stop-color="#7944FF"/>
<stop offset="1" stop-color="#C623FF"/>
</linearGradient>
</defs>
</svg>
