<svg width="56" height="56" viewBox="0 0 56 56" fill="none" xmlns="http://www.w3.org/2000/svg">
<path d="M27.9997 28.0003C29.283 28.0003 30.382 27.543 31.2967 26.6283C32.2098 25.7152 32.6663 24.617 32.6663 23.3337C32.6663 22.0503 32.2098 20.9513 31.2967 20.0367C30.382 19.1235 29.283 18.667 27.9997 18.667C26.7163 18.667 25.6181 19.1235 24.705 20.0367C23.7903 20.9513 23.333 22.0503 23.333 23.3337C23.333 24.617 23.7903 25.7152 24.705 26.6283C25.6181 27.543 26.7163 28.0003 27.9997 28.0003ZM27.9997 45.1503C32.7441 40.7948 36.2636 36.8374 38.558 33.2783C40.8524 29.7208 41.9997 26.5614 41.9997 23.8003C41.9997 19.5614 40.6479 16.0902 37.9443 13.3867C35.2423 10.6847 31.9275 9.33366 27.9997 9.33366C24.0719 9.33366 20.7562 10.6847 18.0527 13.3867C15.3507 16.0902 13.9997 19.5614 13.9997 23.8003C13.9997 26.5614 15.1469 29.7208 17.4413 33.2783C19.7358 36.8374 23.2552 40.7948 27.9997 45.1503ZM27.9997 51.3337C21.7386 46.0059 17.0626 41.0569 13.9717 36.4867C10.8792 31.918 9.33301 27.6892 9.33301 23.8003C9.33301 17.967 11.2098 13.3198 14.9633 9.85866C18.7153 6.39755 23.0608 4.66699 27.9997 4.66699C32.9386 4.66699 37.284 6.39755 41.036 9.85866C44.7896 13.3198 46.6663 17.967 46.6663 23.8003C46.6663 27.6892 45.1209 31.918 42.03 36.4867C38.9376 41.0569 34.2608 46.0059 27.9997 51.3337Z" fill="url(#paint0_linear_734_2307)"/>
<defs>
<linearGradient id="paint0_linear_734_2307" x1="27.9997" y1="4.66699" x2="27.9997" y2="51.3337" gradientUnits="userSpaceOnUse">
<stop stop-color="#2560F1"/>
<stop offset="0.4875" stop-color="#7944FF"/>
<stop offset="1" stop-color="#C623FF"/>
</linearGradient>
</defs>
</svg>
