<svg width="477" height="495" viewBox="0 0 477 495" fill="none" xmlns="http://www.w3.org/2000/svg">
<mask id="mask0_1187_19596" style="mask-type:luminance" maskUnits="userSpaceOnUse" x="47" y="82" width="382" height="331">
<path d="M238.009 84.9584L144.24 84.9499L97.3638 166.138L50.4851 247.33L97.3767 328.527L144.268 409.724L238.034 409.731L331.802 409.74L378.681 328.548L425.558 247.359L378.67 166.164L331.778 84.967L238.009 84.9584Z" fill="white" stroke="white" stroke-width="5"/>
</mask>
<g mask="url(#mask0_1187_19596)">
<path d="M475.469 160.915L194.152 -1.49452L0.727383 333.508L282.045 495.917L475.469 160.915Z" fill="url(#paint0_linear_1187_19596)" stroke="url(#paint1_linear_1187_19596)" stroke-width="5"/>
</g>
<mask id="mask1_1187_19596" style="mask-type:luminance" maskUnits="userSpaceOnUse" x="94" y="123" width="288" height="249">
<path d="M166.224 123.02L309.798 123.035L381.594 247.358L309.817 371.672L166.247 371.66L94.4473 247.335L166.224 123.02Z" fill="white"/>
</mask>
<g mask="url(#mask1_1187_19596)">
<path d="M202.112 60.8651L417.481 185.202L273.928 433.831L58.5578 309.494L202.112 60.8651Z" fill="url(#paint2_linear_1187_19596)" fill-opacity="0.8"/>
</g>
<path d="M190.745 318.004C190.745 316.372 191.121 314.908 191.873 313.612C192.641 312.316 193.673 311.308 194.969 310.588C196.281 309.852 197.713 309.484 199.265 309.484C201.041 309.484 202.617 309.924 203.993 310.804C205.385 311.668 206.393 312.9 207.017 314.5H203.729C203.297 313.62 202.697 312.964 201.929 312.532C201.161 312.1 200.273 311.884 199.265 311.884C198.161 311.884 197.177 312.132 196.313 312.628C195.449 313.124 194.769 313.836 194.273 314.764C193.793 315.692 193.553 316.772 193.553 318.004C193.553 319.236 193.793 320.316 194.273 321.244C194.769 322.172 195.449 322.892 196.313 323.404C197.177 323.9 198.161 324.148 199.265 324.148C200.273 324.148 201.161 323.932 201.929 323.5C202.697 323.068 203.297 322.412 203.729 321.532H207.017C206.393 323.132 205.385 324.364 203.993 325.228C202.617 326.092 201.041 326.524 199.265 326.524C197.697 326.524 196.265 326.164 194.969 325.444C193.673 324.708 192.641 323.692 191.873 322.396C191.121 321.1 190.745 319.636 190.745 318.004ZM217.06 312.94C218.068 312.94 218.964 313.156 219.748 313.588C220.548 314.02 221.172 314.66 221.62 315.508C222.084 316.356 222.316 317.38 222.316 318.58V326.38H219.604V318.988C219.604 317.804 219.308 316.9 218.716 316.276C218.124 315.636 217.316 315.316 216.292 315.316C215.268 315.316 214.452 315.636 213.844 316.276C213.252 316.9 212.956 317.804 212.956 318.988V326.38H210.22V308.62H212.956V314.692C213.42 314.132 214.004 313.7 214.708 313.396C215.428 313.092 216.212 312.94 217.06 312.94ZM224.894 319.708C224.894 318.38 225.166 317.204 225.71 316.18C226.27 315.156 227.022 314.364 227.966 313.804C228.926 313.228 229.982 312.94 231.134 312.94C232.174 312.94 233.078 313.148 233.846 313.564C234.63 313.964 235.254 314.468 235.718 315.076V313.156H238.478V326.38H235.718V324.412C235.254 325.036 234.622 325.556 233.822 325.972C233.022 326.388 232.11 326.596 231.086 326.596C229.95 326.596 228.91 326.308 227.966 325.732C227.022 325.14 226.27 324.324 225.71 323.284C225.166 322.228 224.894 321.036 224.894 319.708ZM235.718 319.756C235.718 318.844 235.526 318.052 235.142 317.38C234.774 316.708 234.286 316.196 233.678 315.844C233.07 315.492 232.414 315.316 231.71 315.316C231.006 315.316 230.35 315.492 229.742 315.844C229.134 316.18 228.638 316.684 228.254 317.356C227.886 318.012 227.702 318.796 227.702 319.708C227.702 320.62 227.886 321.42 228.254 322.108C228.638 322.796 229.134 323.324 229.742 323.692C230.366 324.044 231.022 324.22 231.71 324.22C232.414 324.22 233.07 324.044 233.678 323.692C234.286 323.34 234.774 322.828 235.142 322.156C235.526 321.468 235.718 320.668 235.718 319.756ZM245.263 315.388V322.708C245.263 323.204 245.375 323.564 245.599 323.788C245.839 323.996 246.239 324.1 246.799 324.1H248.479V326.38H246.319C245.087 326.38 244.143 326.092 243.487 325.516C242.831 324.94 242.503 324.004 242.503 322.708V315.388H240.943V313.156H242.503V309.868H245.263V313.156H248.479V315.388H245.263ZM253.737 315.124C254.201 314.484 254.833 313.964 255.633 313.564C256.449 313.148 257.353 312.94 258.345 312.94C259.513 312.94 260.569 313.22 261.513 313.78C262.457 314.34 263.201 315.14 263.745 316.18C264.289 317.204 264.561 318.38 264.561 319.708C264.561 321.036 264.289 322.228 263.745 323.284C263.201 324.324 262.449 325.14 261.489 325.732C260.545 326.308 259.497 326.596 258.345 326.596C257.321 326.596 256.409 326.396 255.609 325.996C254.825 325.596 254.201 325.084 253.737 324.46V326.38H251.001V308.62H253.737V315.124ZM261.777 319.708C261.777 318.796 261.585 318.012 261.201 317.356C260.833 316.684 260.337 316.18 259.713 315.844C259.105 315.492 258.449 315.316 257.745 315.316C257.057 315.316 256.401 315.492 255.777 315.844C255.169 316.196 254.673 316.708 254.289 317.38C253.921 318.052 253.737 318.844 253.737 319.756C253.737 320.668 253.921 321.468 254.289 322.156C254.673 322.828 255.169 323.34 255.777 323.692C256.401 324.044 257.057 324.22 257.745 324.22C258.449 324.22 259.105 324.044 259.713 323.692C260.337 323.324 260.833 322.796 261.201 322.108C261.585 321.42 261.777 320.62 261.777 319.708ZM273.003 326.596C271.755 326.596 270.627 326.316 269.619 325.756C268.611 325.18 267.819 324.38 267.243 323.356C266.667 322.316 266.379 321.116 266.379 319.756C266.379 318.412 266.675 317.22 267.267 316.18C267.859 315.14 268.667 314.34 269.691 313.78C270.715 313.22 271.859 312.94 273.123 312.94C274.387 312.94 275.531 313.22 276.555 313.78C277.579 314.34 278.387 315.14 278.979 316.18C279.571 317.22 279.867 318.412 279.867 319.756C279.867 321.1 279.563 322.292 278.955 323.332C278.347 324.372 277.515 325.18 276.459 325.756C275.419 326.316 274.267 326.596 273.003 326.596ZM273.003 324.22C273.707 324.22 274.363 324.052 274.971 323.716C275.595 323.38 276.099 322.876 276.483 322.204C276.867 321.532 277.059 320.716 277.059 319.756C277.059 318.796 276.875 317.988 276.507 317.332C276.139 316.66 275.651 316.156 275.043 315.82C274.435 315.484 273.779 315.316 273.075 315.316C272.371 315.316 271.715 315.484 271.107 315.82C270.515 316.156 270.043 316.66 269.691 317.332C269.339 317.988 269.163 318.796 269.163 319.756C269.163 321.18 269.523 322.284 270.243 323.068C270.979 323.836 271.899 324.22 273.003 324.22ZM285.763 315.388V322.708C285.763 323.204 285.875 323.564 286.099 323.788C286.339 323.996 286.739 324.1 287.299 324.1H288.979V326.38H286.819C285.587 326.38 284.643 326.092 283.987 325.516C283.331 324.94 283.003 324.004 283.003 322.708V315.388H281.443V313.156H283.003V309.868H285.763V313.156H288.979V315.388H285.763Z" fill="#001237"/>
<g clip-path="url(#clip0_1187_19596)">
<path d="M286.921 209.268C286.921 209.268 282.295 190.717 254.294 179.018C226.292 167.319 201.241 178.154 195.53 191.863C189.818 205.572 195.804 212.975 191.993 224.682C188.182 236.389 168.603 251.217 176.504 269.197C184.406 287.178 221.382 292.313 251.302 288.603C281.223 284.894 304.599 243.797 286.921 209.268Z" fill="white"/>
<path opacity="0.7" d="M286.921 209.268C286.921 209.268 282.295 190.717 254.294 179.018C226.292 167.319 201.241 178.154 195.53 191.863C189.818 205.572 195.804 212.975 191.993 224.682C188.182 236.389 168.603 251.217 176.504 269.197C184.406 287.178 221.382 292.313 251.302 288.603C281.223 284.894 304.599 243.797 286.921 209.268Z" fill="white"/>
<path d="M214.066 194.489H191.31C190.583 194.489 189.885 194.778 189.371 195.292C188.857 195.806 188.568 196.504 188.568 197.231V205.73C188.568 206.458 188.857 207.155 189.371 207.669C189.885 208.183 190.583 208.472 191.31 208.472H213.929L216.808 212.311V197.231C216.808 196.504 216.519 195.806 216.005 195.292C215.491 194.778 214.794 194.489 214.066 194.489Z" fill="#263238"/>
<path d="M193.522 203.847H192.7V198.638H193.522V200.867H194.449V198.638H195.272V203.847H194.449V201.618H193.522V203.847Z" fill="white"/>
<path d="M195.878 198.646H196.7V203.855H195.878V198.646Z" fill="white"/>
<path d="M198.203 198.646H200.728V199.389H199.872V203.847H199.05V199.389H198.197L198.203 198.646Z" fill="white"/>
<path d="M201.901 203.847H201.079V198.638H201.901V200.867H202.825V198.638H203.648V203.847H202.825V201.618H201.896L201.901 203.847Z" fill="white"/>
<path d="M205.073 200.837H206.195V201.58H205.073V203.104H206.485V203.847H204.256V198.638H206.485V199.381H205.073V200.837Z" fill="white"/>
<path d="M208.698 203.847C208.631 203.641 208.606 203.424 208.624 203.208V202.385C208.624 201.903 208.463 201.725 208.076 201.725H207.802V203.841H206.979V198.632H208.213C209.06 198.632 209.425 199.027 209.425 199.827V200.236C209.425 200.77 209.252 201.121 208.877 201.291C209.285 201.464 209.425 201.856 209.425 202.388V203.191C209.41 203.406 209.441 203.621 209.515 203.822L208.698 203.847ZM207.807 199.389V200.987H208.128C208.432 200.987 208.619 200.853 208.619 200.439V199.923C208.619 199.553 208.493 199.375 208.202 199.375L207.807 199.389Z" fill="white"/>
<path d="M210.795 200.837H211.917V201.58H210.795V203.104H212.204V203.847H209.975V198.638H212.204V199.381H210.795V200.837Z" fill="white"/>
<path d="M212.816 202.695L212.712 200.814V198.646H213.534V200.814L213.43 202.695H212.816ZM213.512 203.06V203.847H212.725V203.06H213.512Z" fill="white"/>
<path d="M252.452 194.764C252.452 194.764 251.437 194.405 251.207 195.313C250.977 196.22 252.32 196.558 252.485 196.558C252.649 196.558 252.91 196.33 252.745 195.806C252.581 195.283 252.452 194.764 252.452 194.764Z" fill="#263238" stroke="#263238" stroke-linecap="round" stroke-linejoin="round"/>
<path d="M258.209 192.538C258.209 192.538 258.11 193.849 258.11 194.372C258.11 194.896 258.659 195.093 258.933 195.093C259.207 195.093 259.328 195.716 259.163 196.371C258.999 197.026 258.442 197.418 257.099 197.418C255.755 197.418 254.938 196.829 254.905 196.404C254.872 195.979 255.199 194.142 255.758 193.662C256.317 193.182 258.209 192.538 258.209 192.538Z" fill="#263238" stroke="#263238" stroke-linecap="round" stroke-linejoin="round"/>
<path d="M253.304 196.566V197.073C253.305 197.153 253.328 197.231 253.371 197.298C253.414 197.365 253.476 197.419 253.548 197.452C253.784 197.551 254.034 197.612 254.289 197.63C254.802 197.63 255.309 197.518 255.775 197.301C255.839 197.273 255.894 197.228 255.933 197.169C255.971 197.111 255.992 197.042 255.991 196.972V196.443C255.991 196.411 255.982 196.379 255.967 196.351C255.951 196.322 255.929 196.299 255.902 196.281C255.875 196.263 255.844 196.253 255.811 196.25C255.779 196.247 255.747 196.252 255.717 196.265L255.61 196.319C255.61 196.319 253.993 196.525 253.304 196.566Z" fill="white" stroke="#263238" stroke-linecap="round" stroke-linejoin="round"/>
<path d="M252.586 192.274C252.406 192.994 252.285 193.728 252.224 194.467C252.125 195.679 252.224 196.792 252.714 196.825C253.051 196.826 253.381 196.731 253.666 196.551C253.666 196.551 254.812 196.683 255.204 196.488L255.599 196.291L255.892 194.371C255.892 194.371 255.925 191.391 255.368 191.194C254.812 190.996 252.586 192.274 252.586 192.274Z" fill="white" stroke="#263238" stroke-linecap="round" stroke-linejoin="round"/>
<path d="M253.469 193.618L253.208 194.306C253.208 194.306 252.682 194.438 252.748 194.698C252.813 194.959 253.162 194.92 253.162 194.92" stroke="#263238" stroke-linecap="round" stroke-linejoin="round"/>
<path d="M254.31 193.917C254.258 194.059 254.151 194.153 254.077 194.125C254.003 194.098 253.981 193.958 254.036 193.813C254.091 193.667 254.195 193.574 254.272 193.604C254.349 193.634 254.371 193.783 254.31 193.917Z" fill="#263238"/>
<path d="M253.076 193.586C253.022 193.731 252.917 193.824 252.841 193.797C252.764 193.769 252.747 193.627 252.799 193.484C252.852 193.342 252.958 193.246 253.035 193.273C253.112 193.301 253.128 193.443 253.076 193.586Z" fill="#263238"/>
<path d="M254.059 192.997C254.059 192.997 254.681 192.832 254.747 193.424" stroke="#263238" stroke-linecap="round" stroke-linejoin="round"/>
<path d="M253.241 192.832C253.241 192.832 252.693 192.637 252.52 193.106" stroke="#263238" stroke-linecap="round" stroke-linejoin="round"/>
<path d="M253.667 196.565L254.55 196.206" stroke="#263238" stroke-linecap="round" stroke-linejoin="round"/>
<path d="M253 190.765C253 190.765 251.953 189.521 251.166 190.436C250.379 191.352 250.618 192.731 252.019 192.797C253.42 192.863 254.999 191.487 254.999 191.487C254.999 191.487 254.834 193.288 255.226 193.91C255.618 194.533 255.915 194.958 255.915 194.958C255.915 194.958 256.463 195.317 257.39 194.598C258.316 193.88 258.536 192.131 257.88 190.96C257.225 189.789 256.079 189.126 254.703 189.589C253.326 190.053 253 190.765 253 190.765Z" fill="#263238" stroke="#263238" stroke-linecap="round" stroke-linejoin="round"/>
<path d="M255.27 194.929C255.27 194.929 256.449 193.849 256.449 194.472C256.449 195.094 255.901 195.651 255.468 195.519" fill="white"/>
<path d="M255.27 194.929C255.27 194.929 256.449 193.849 256.449 194.472C256.449 195.094 255.901 195.651 255.468 195.519" stroke="#263238" stroke-linecap="round" stroke-linejoin="round"/>
<path d="M252.748 195.429C252.903 195.54 253.089 195.6 253.28 195.6C253.471 195.6 253.657 195.54 253.812 195.429" stroke="#263238" stroke-linecap="round" stroke-linejoin="round"/>
<path d="M258.832 197.498C260.926 195.27 260.817 191.767 258.589 189.673C256.361 187.579 252.858 187.688 250.764 189.916C248.671 192.144 248.779 195.647 251.007 197.741C253.235 199.835 256.739 199.726 258.832 197.498Z" stroke="#263238" stroke-linecap="round" stroke-linejoin="round"/>
<path d="M292.469 238.739C295.615 238.004 297.569 234.856 296.834 231.71C296.098 228.563 292.951 226.609 289.804 227.345C286.658 228.08 284.704 231.228 285.439 234.374C286.175 237.521 289.322 239.475 292.469 238.739Z" stroke="#263238" stroke-linecap="round" stroke-linejoin="round"/>
<path d="M293.134 234.768C293.134 235.153 293.02 235.529 292.806 235.849C292.592 236.17 292.288 236.419 291.933 236.566C291.577 236.714 291.185 236.752 290.808 236.677C290.43 236.602 290.083 236.417 289.811 236.144C289.539 235.872 289.353 235.525 289.278 235.148C289.203 234.77 289.242 234.379 289.389 234.023C289.536 233.667 289.786 233.363 290.106 233.149C290.426 232.935 290.803 232.821 291.188 232.821C291.704 232.821 292.199 233.026 292.564 233.391C292.929 233.757 293.134 234.252 293.134 234.768Z" fill="white" stroke="#263238" stroke-linecap="round" stroke-linejoin="round"/>
<path d="M293.971 236.064C294.391 235.539 294.654 234.907 294.73 234.24C294.807 233.573 294.693 232.897 294.402 232.292C294.111 231.687 293.656 231.176 293.087 230.818C292.519 230.46 291.861 230.271 291.189 230.271C290.517 230.271 289.859 230.46 289.291 230.818C288.723 231.176 288.267 231.687 287.976 232.292C287.685 232.897 287.572 233.573 287.648 234.24C287.724 234.907 287.988 235.539 288.408 236.064H293.971Z" fill="white" stroke="#263238" stroke-linecap="round" stroke-linejoin="round"/>
<path d="M292.577 235.054H289.709C289.541 235.054 289.375 235.021 289.22 234.957C289.065 234.893 288.924 234.799 288.806 234.68C288.687 234.561 288.593 234.421 288.529 234.266C288.464 234.111 288.431 233.944 288.431 233.777C288.431 233.609 288.464 233.442 288.528 233.287C288.592 233.132 288.686 232.991 288.805 232.872C288.924 232.754 289.065 232.66 289.22 232.596C289.375 232.531 289.541 232.499 289.709 232.499H292.577C292.745 232.499 292.911 232.531 293.066 232.596C293.221 232.66 293.362 232.754 293.481 232.872C293.6 232.991 293.694 233.132 293.758 233.287C293.822 233.442 293.855 233.609 293.855 233.777C293.855 234.116 293.72 234.441 293.48 234.68C293.241 234.92 292.916 235.054 292.577 235.054Z" fill="white" stroke="#263238" stroke-linecap="round" stroke-linejoin="round"/>
<path d="M289.018 233.674C289.077 233.509 289.184 233.366 289.326 233.264C289.467 233.161 289.636 233.104 289.811 233.099C289.985 233.094 290.157 233.142 290.304 233.237C290.451 233.332 290.566 233.469 290.633 233.63" stroke="#263238" stroke-width="2" stroke-linecap="round" stroke-linejoin="round"/>
<path d="M291.7 233.674C291.759 233.509 291.866 233.366 292.007 233.264C292.149 233.161 292.318 233.104 292.493 233.099C292.667 233.094 292.839 233.142 292.986 233.237C293.133 233.332 293.248 233.469 293.315 233.63" stroke="#263238" stroke-width="2" stroke-linecap="round" stroke-linejoin="round"/>
<path d="M290.719 234.263C290.731 234.383 290.788 234.495 290.878 234.576C290.968 234.657 291.085 234.702 291.207 234.702C291.328 234.702 291.445 234.657 291.535 234.576C291.625 234.495 291.682 234.383 291.695 234.263H290.719Z" fill="white" stroke="#263238" stroke-linecap="round" stroke-linejoin="round"/>
<path d="M295.796 234.467C295.747 234.467 295.699 234.457 295.654 234.439C295.609 234.42 295.567 234.392 295.533 234.358C295.498 234.323 295.471 234.282 295.452 234.237C295.433 234.192 295.424 234.143 295.424 234.094V233.247C295.424 233.198 295.433 233.149 295.452 233.104C295.471 233.059 295.498 233.018 295.533 232.983C295.567 232.949 295.609 232.921 295.654 232.902C295.699 232.884 295.747 232.874 295.796 232.874C295.845 232.874 295.894 232.884 295.939 232.902C295.984 232.921 296.026 232.949 296.06 232.983C296.095 233.018 296.122 233.059 296.141 233.104C296.16 233.149 296.169 233.198 296.169 233.247V234.086C296.17 234.136 296.162 234.185 296.143 234.231C296.125 234.277 296.098 234.319 296.063 234.355C296.028 234.39 295.987 234.419 295.941 234.438C295.895 234.457 295.846 234.467 295.796 234.467Z" fill="#263238" stroke="#263238" stroke-linecap="round" stroke-linejoin="round"/>
<path d="M286.48 234.467C286.431 234.467 286.383 234.457 286.337 234.439C286.292 234.42 286.251 234.392 286.216 234.358C286.182 234.323 286.154 234.282 286.136 234.237C286.117 234.192 286.107 234.143 286.107 234.094V233.247C286.107 233.198 286.117 233.149 286.136 233.104C286.154 233.059 286.182 233.018 286.216 232.983C286.251 232.949 286.292 232.921 286.337 232.902C286.383 232.884 286.431 232.874 286.48 232.874C286.529 232.874 286.578 232.884 286.623 232.902C286.668 232.921 286.709 232.949 286.744 232.983C286.778 233.018 286.806 233.059 286.825 233.104C286.843 233.149 286.853 233.198 286.853 233.247V234.086C286.854 234.136 286.845 234.185 286.827 234.231C286.809 234.277 286.781 234.319 286.747 234.355C286.712 234.39 286.67 234.419 286.625 234.438C286.579 234.457 286.53 234.467 286.48 234.467Z" fill="#263238" stroke="#263238" stroke-linecap="round" stroke-linejoin="round"/>
<path d="M287.167 233.299C287.064 233.298 286.965 233.257 286.892 233.183C286.819 233.11 286.778 233.01 286.778 232.907V232.293C286.777 231.627 286.976 230.977 287.348 230.426C287.375 230.379 287.411 230.338 287.455 230.305C287.498 230.273 287.548 230.25 287.6 230.238C287.653 230.225 287.707 230.224 287.761 230.234C287.814 230.244 287.864 230.265 287.909 230.295C287.954 230.325 287.992 230.365 288.021 230.41C288.05 230.456 288.069 230.507 288.077 230.561C288.085 230.614 288.082 230.669 288.068 230.721C288.054 230.773 288.029 230.822 287.995 230.864C287.71 231.286 287.558 231.784 287.559 232.293V232.907C287.559 233.011 287.518 233.111 287.445 233.184C287.371 233.258 287.271 233.299 287.167 233.299Z" fill="#263238"/>
<path d="M294.74 230.843C294.708 230.843 294.677 230.835 294.648 230.819C294.62 230.804 294.596 230.782 294.579 230.755C294.327 230.38 293.987 230.073 293.589 229.861C293.191 229.649 292.746 229.539 292.295 229.54H290.118C289.667 229.539 289.222 229.649 288.824 229.861C288.425 230.073 288.085 230.38 287.834 230.755C287.804 230.798 287.759 230.828 287.708 230.838C287.656 230.847 287.603 230.836 287.56 230.807C287.538 230.793 287.519 230.774 287.505 230.752C287.491 230.731 287.481 230.706 287.476 230.681C287.471 230.655 287.471 230.629 287.477 230.604C287.482 230.578 287.493 230.554 287.508 230.533C287.795 230.105 288.183 229.755 288.638 229.513C289.093 229.271 289.6 229.145 290.115 229.146H292.292C292.808 229.145 293.316 229.272 293.771 229.514C294.226 229.757 294.615 230.107 294.902 230.536C294.917 230.557 294.927 230.581 294.933 230.607C294.938 230.632 294.938 230.659 294.933 230.684C294.928 230.71 294.918 230.734 294.903 230.756C294.888 230.777 294.869 230.796 294.847 230.81C294.816 230.831 294.779 230.842 294.74 230.843Z" fill="#263238"/>
<path d="M295.245 233.299C295.141 233.299 295.041 233.258 294.968 233.184C294.894 233.111 294.853 233.011 294.853 232.907V232.293C294.854 231.784 294.702 231.286 294.417 230.865C294.384 230.822 294.361 230.773 294.348 230.721C294.334 230.669 294.332 230.615 294.341 230.562C294.349 230.509 294.369 230.459 294.398 230.414C294.427 230.368 294.465 230.33 294.509 230.3C294.554 230.27 294.604 230.25 294.657 230.24C294.71 230.23 294.764 230.231 294.816 230.243C294.868 230.256 294.917 230.278 294.961 230.31C295.004 230.342 295.04 230.382 295.067 230.429C295.439 230.979 295.636 231.629 295.634 232.293V232.907C295.634 233.011 295.593 233.11 295.521 233.183C295.448 233.257 295.349 233.299 295.245 233.299Z" fill="#263238"/>
<path d="M287.217 235.022C287.012 235.022 286.816 234.94 286.671 234.795C286.526 234.65 286.444 234.454 286.444 234.249V233.02C286.444 232.815 286.526 232.619 286.671 232.474C286.816 232.329 287.012 232.247 287.217 232.247C287.422 232.247 287.619 232.329 287.764 232.474C287.909 232.619 287.99 232.815 287.99 233.02V234.249C287.99 234.454 287.909 234.65 287.764 234.795C287.619 234.94 287.422 235.022 287.217 235.022Z" fill="white" stroke="#263238" stroke-linecap="round" stroke-linejoin="round"/>
<path d="M287.296 232.247H287.137V235.022H287.296V232.247Z" fill="white" stroke="#263238" stroke-linecap="round" stroke-linejoin="round"/>
<path d="M295.876 233.02C295.876 232.593 295.53 232.247 295.103 232.247C294.676 232.247 294.33 232.593 294.33 233.02V234.249C294.33 234.676 294.676 235.022 295.103 235.022C295.53 235.022 295.876 234.676 295.876 234.249V233.02Z" fill="white" stroke="#263238" stroke-linecap="round" stroke-linejoin="round"/>
<path d="M295.182 232.247H295.023V235.022H295.182V232.247Z" fill="white" stroke="#263238" stroke-linecap="round" stroke-linejoin="round"/>
<path d="M291.201 231.994C291.473 231.993 291.741 231.924 291.981 231.794C292.22 231.664 292.423 231.476 292.572 231.248L292.909 230.724C292.375 230.429 291.773 230.276 291.162 230.28C290.551 230.285 289.951 230.448 289.422 230.752L289.926 231.382C290.08 231.573 290.274 231.726 290.495 231.832C290.715 231.938 290.956 231.993 291.201 231.994Z" fill="white" stroke="#263238" stroke-linecap="round" stroke-linejoin="round"/>
<path d="M291.228 235.368C291.26 235.368 291.286 235.342 291.286 235.31C291.286 235.279 291.26 235.253 291.228 235.253C291.196 235.253 291.171 235.279 291.171 235.31C291.171 235.342 291.196 235.368 291.228 235.368Z" fill="#263238"/>
<path d="M291.286 235.511C291.285 235.496 291.279 235.482 291.268 235.472C291.257 235.462 291.243 235.456 291.228 235.456C291.221 235.456 291.213 235.457 291.206 235.459C291.199 235.462 291.193 235.466 291.188 235.471C291.182 235.476 291.178 235.482 291.175 235.489C291.172 235.496 291.171 235.503 291.171 235.511C291.171 235.526 291.177 235.541 291.187 235.552C291.198 235.562 291.213 235.568 291.228 235.568C291.243 235.568 291.258 235.562 291.269 235.552C291.28 235.541 291.286 235.526 291.286 235.511Z" fill="#263238"/>
<path d="M291.058 235.482C291.073 235.477 291.085 235.467 291.092 235.454C291.099 235.44 291.101 235.425 291.097 235.41C291.091 235.396 291.081 235.384 291.067 235.377C291.053 235.37 291.038 235.368 291.023 235.372C291.008 235.376 290.996 235.386 290.989 235.4C290.982 235.413 290.98 235.429 290.985 235.443C290.99 235.457 291.001 235.469 291.014 235.476C291.028 235.483 291.044 235.485 291.058 235.482Z" fill="#263238"/>
<path d="M291.418 235.482C291.433 235.478 291.445 235.468 291.452 235.454C291.459 235.441 291.461 235.425 291.456 235.411C291.451 235.396 291.441 235.384 291.427 235.377C291.413 235.37 291.397 235.368 291.382 235.373C291.375 235.375 291.369 235.378 291.363 235.383C291.357 235.388 291.353 235.394 291.349 235.4C291.346 235.407 291.344 235.414 291.344 235.422C291.343 235.429 291.344 235.437 291.347 235.444C291.351 235.458 291.361 235.47 291.375 235.478C291.388 235.485 291.404 235.486 291.418 235.482Z" fill="#263238"/>
<path d="M283.949 203.145H262.133V193.426V190.849L264.713 193.426H283.949V203.145Z" fill="#D6D6D6" stroke="#263238" stroke-linecap="round" stroke-linejoin="round"/>
<path d="M283.949 217.225H262.133V207.508V204.931L264.713 207.508H283.949V217.225Z" fill="#D6D6D6" stroke="#263238" stroke-linecap="round" stroke-linejoin="round"/>
<path d="M276.7 196.771H281.835" stroke="#263238" stroke-linecap="round" stroke-linejoin="round"/>
<path d="M269.513 196.771H275.381" stroke="#263238" stroke-linecap="round" stroke-linejoin="round"/>
<path d="M265.113 196.771H268.486" stroke="#263238" stroke-linecap="round" stroke-linejoin="round"/>
<path d="M274.353 198.386H281.836" stroke="#263238" stroke-linecap="round" stroke-linejoin="round"/>
<path d="M265.113 198.386H273.034" stroke="#263238" stroke-linecap="round" stroke-linejoin="round"/>
<path d="M280.368 199.997H281.835" stroke="#263238" stroke-linecap="round" stroke-linejoin="round"/>
<path d="M272.154 199.997H279.195" stroke="#263238" stroke-linecap="round" stroke-linejoin="round"/>
<path d="M265.113 199.997H270.981" stroke="#263238" stroke-linecap="round" stroke-linejoin="round"/>
<path d="M276.7 210.413H281.835" stroke="#263238" stroke-linecap="round" stroke-linejoin="round"/>
<path d="M269.513 210.413H275.381" stroke="#263238" stroke-linecap="round" stroke-linejoin="round"/>
<path d="M265.113 210.413H268.486" stroke="#263238" stroke-linecap="round" stroke-linejoin="round"/>
<path d="M274.353 212.026H281.836" stroke="#263238" stroke-linecap="round" stroke-linejoin="round"/>
<path d="M265.113 212.026H273.034" stroke="#263238" stroke-linecap="round" stroke-linejoin="round"/>
<path d="M280.368 213.64H281.835" stroke="#263238" stroke-linecap="round" stroke-linejoin="round"/>
<path d="M272.154 213.64H279.195" stroke="#263238" stroke-linecap="round" stroke-linejoin="round"/>
<path d="M265.113 213.64H270.981" stroke="#263238" stroke-linecap="round" stroke-linejoin="round"/>
<path d="M262.133 256.818H283.949V233.313V230.735L281.369 233.313H262.133V256.818Z" fill="white" stroke="#263238" stroke-linecap="round" stroke-linejoin="round"/>
<path d="M276.7 236.522H281.835" stroke="#263238" stroke-linecap="round" stroke-linejoin="round"/>
<path d="M269.513 236.522H275.381" stroke="#263238" stroke-linecap="round" stroke-linejoin="round"/>
<path d="M265.113 236.522H268.486" stroke="#263238" stroke-linecap="round" stroke-linejoin="round"/>
<path d="M274.353 238.134H281.836" stroke="#263238" stroke-linecap="round" stroke-linejoin="round"/>
<path d="M265.113 238.134H273.034" stroke="#263238" stroke-linecap="round" stroke-linejoin="round"/>
<path d="M280.368 239.749H281.835" stroke="#263238" stroke-linecap="round" stroke-linejoin="round"/>
<path d="M272.154 239.749H279.195" stroke="#263238" stroke-linecap="round" stroke-linejoin="round"/>
<path d="M265.113 239.749H270.981" stroke="#263238" stroke-linecap="round" stroke-linejoin="round"/>
<path d="M276.7 241.067H281.835" stroke="#263238" stroke-linecap="round" stroke-linejoin="round"/>
<path d="M269.513 241.067H275.381" stroke="#263238" stroke-linecap="round" stroke-linejoin="round"/>
<path d="M265.113 241.067H268.486" stroke="#263238" stroke-linecap="round" stroke-linejoin="round"/>
<path d="M274.353 242.683H281.836" stroke="#263238" stroke-linecap="round" stroke-linejoin="round"/>
<path d="M265.113 242.683H273.034" stroke="#263238" stroke-linecap="round" stroke-linejoin="round"/>
<path d="M280.368 244.294H281.835" stroke="#263238" stroke-linecap="round" stroke-linejoin="round"/>
<path d="M272.154 244.294H279.195" stroke="#263238" stroke-linecap="round" stroke-linejoin="round"/>
<path d="M265.113 244.294H270.981" stroke="#263238" stroke-linecap="round" stroke-linejoin="round"/>
<path d="M276.7 245.616H281.835" stroke="#263238" stroke-linecap="round" stroke-linejoin="round"/>
<path d="M269.513 245.616H275.381" stroke="#263238" stroke-linecap="round" stroke-linejoin="round"/>
<path d="M265.113 245.616H268.486" stroke="#263238" stroke-linecap="round" stroke-linejoin="round"/>
<path d="M274.353 247.228H281.836" stroke="#263238" stroke-linecap="round" stroke-linejoin="round"/>
<path d="M265.113 247.228H273.034" stroke="#263238" stroke-linecap="round" stroke-linejoin="round"/>
<path d="M280.368 248.843H281.835" stroke="#263238" stroke-linecap="round" stroke-linejoin="round"/>
<path d="M272.154 248.843H279.195" stroke="#263238" stroke-linecap="round" stroke-linejoin="round"/>
<path d="M265.113 248.843H270.981" stroke="#263238" stroke-linecap="round" stroke-linejoin="round"/>
<path d="M276.7 250.161H281.835" stroke="#263238" stroke-linecap="round" stroke-linejoin="round"/>
<path d="M269.513 250.161H275.381" stroke="#263238" stroke-linecap="round" stroke-linejoin="round"/>
<path d="M265.113 250.161H268.486" stroke="#263238" stroke-linecap="round" stroke-linejoin="round"/>
<path d="M274.353 251.776H281.836" stroke="#263238" stroke-linecap="round" stroke-linejoin="round"/>
<path d="M265.113 251.776H273.034" stroke="#263238" stroke-linecap="round" stroke-linejoin="round"/>
<path d="M280.368 253.388H281.835" stroke="#263238" stroke-linecap="round" stroke-linejoin="round"/>
<path d="M272.154 253.388H279.195" stroke="#263238" stroke-linecap="round" stroke-linejoin="round"/>
<path d="M265.113 253.388H270.981" stroke="#263238" stroke-linecap="round" stroke-linejoin="round"/>
<path d="M291.138 269.888C294.369 269.888 296.989 267.269 296.989 264.037C296.989 260.806 294.369 258.187 291.138 258.187C287.906 258.187 285.287 260.806 285.287 264.037C285.287 267.269 287.906 269.888 291.138 269.888Z" stroke="#263238" stroke-linecap="round" stroke-linejoin="round"/>
<path d="M293.134 265.763C293.135 266.148 293.021 266.525 292.808 266.845C292.594 267.166 292.29 267.416 291.934 267.564C291.579 267.711 291.187 267.75 290.81 267.676C290.432 267.601 290.085 267.416 289.812 267.143C289.54 266.871 289.354 266.524 289.279 266.147C289.203 265.769 289.242 265.378 289.389 265.022C289.536 264.666 289.786 264.362 290.106 264.148C290.426 263.934 290.802 263.819 291.188 263.819C291.703 263.819 292.198 264.024 292.563 264.389C292.928 264.753 293.134 265.247 293.134 265.763Z" fill="white" stroke="#263238" stroke-linecap="round" stroke-linejoin="round"/>
<path d="M293.971 267.058C294.391 266.534 294.654 265.901 294.73 265.234C294.807 264.567 294.693 263.892 294.402 263.286C294.111 262.681 293.656 262.17 293.087 261.812C292.519 261.454 291.861 261.265 291.189 261.265C290.517 261.265 289.859 261.454 289.291 261.812C288.723 262.17 288.267 262.681 287.976 263.286C287.685 263.892 287.572 264.567 287.648 265.234C287.724 265.901 287.988 266.534 288.408 267.058H293.971Z" fill="white" stroke="#263238" stroke-linecap="round" stroke-linejoin="round"/>
<path d="M292.577 266.048H289.709C289.541 266.048 289.375 266.015 289.22 265.951C289.065 265.887 288.924 265.793 288.806 265.674C288.687 265.556 288.593 265.415 288.529 265.26C288.464 265.105 288.431 264.939 288.431 264.771C288.431 264.603 288.464 264.437 288.529 264.282C288.593 264.127 288.687 263.986 288.806 263.867C288.924 263.749 289.065 263.655 289.22 263.59C289.375 263.526 289.541 263.493 289.709 263.493H292.577C292.745 263.493 292.911 263.526 293.066 263.59C293.221 263.655 293.362 263.749 293.48 263.867C293.599 263.986 293.693 264.127 293.757 264.282C293.822 264.437 293.855 264.603 293.855 264.771C293.855 265.11 293.72 265.435 293.48 265.674C293.241 265.914 292.916 266.048 292.577 266.048Z" fill="white" stroke="#263238" stroke-linecap="round" stroke-linejoin="round"/>
<path d="M289.018 264.668C289.077 264.503 289.184 264.36 289.326 264.258C289.467 264.155 289.636 264.098 289.811 264.093C289.985 264.088 290.157 264.137 290.304 264.231C290.451 264.326 290.566 264.463 290.633 264.624" stroke="#263238" stroke-width="2" stroke-linecap="round" stroke-linejoin="round"/>
<path d="M291.7 264.668C291.759 264.503 291.866 264.36 292.007 264.258C292.149 264.155 292.318 264.098 292.493 264.093C292.667 264.088 292.839 264.137 292.986 264.231C293.133 264.326 293.248 264.463 293.315 264.624" stroke="#263238" stroke-width="2" stroke-linecap="round" stroke-linejoin="round"/>
<path d="M290.719 265.259C290.731 265.379 290.788 265.491 290.878 265.572C290.968 265.653 291.085 265.698 291.207 265.698C291.328 265.698 291.445 265.653 291.535 265.572C291.625 265.491 291.682 265.379 291.695 265.259H290.719Z" fill="white" stroke="#263238" stroke-linecap="round" stroke-linejoin="round"/>
<path d="M295.796 265.464C295.698 265.464 295.603 265.425 295.533 265.355C295.463 265.285 295.424 265.19 295.424 265.091V264.247C295.424 264.148 295.463 264.053 295.533 263.983C295.603 263.913 295.698 263.874 295.796 263.874C295.895 263.874 295.99 263.913 296.06 263.983C296.13 264.053 296.169 264.148 296.169 264.247V265.094C296.169 265.193 296.129 265.287 296.059 265.356C295.989 265.425 295.895 265.464 295.796 265.464Z" fill="#263238" stroke="#263238" stroke-linecap="round" stroke-linejoin="round"/>
<path d="M286.48 265.464C286.381 265.464 286.286 265.425 286.216 265.355C286.146 265.285 286.107 265.19 286.107 265.091V264.247C286.107 264.148 286.146 264.053 286.216 263.983C286.286 263.913 286.381 263.874 286.48 263.874C286.579 263.874 286.674 263.913 286.744 263.983C286.814 264.053 286.853 264.148 286.853 264.247V265.094C286.852 265.193 286.813 265.287 286.743 265.356C286.673 265.425 286.578 265.464 286.48 265.464Z" fill="#263238" stroke="#263238" stroke-linecap="round" stroke-linejoin="round"/>
<path d="M287.168 264.298C287.065 264.297 286.966 264.256 286.893 264.182C286.82 264.109 286.779 264.009 286.779 263.906V263.289C286.778 262.624 286.977 261.973 287.349 261.422C287.411 261.345 287.499 261.294 287.597 261.279C287.694 261.264 287.794 261.287 287.876 261.342C287.957 261.397 288.015 261.481 288.038 261.578C288.06 261.674 288.045 261.775 287.996 261.86C287.711 262.282 287.559 262.78 287.56 263.289V263.906C287.56 264.01 287.519 264.11 287.446 264.183C287.372 264.257 287.272 264.298 287.168 264.298Z" fill="#263238"/>
<path d="M294.741 261.84C294.709 261.84 294.678 261.832 294.65 261.817C294.622 261.802 294.597 261.781 294.579 261.755C294.328 261.38 293.988 261.072 293.59 260.86C293.192 260.647 292.747 260.537 292.295 260.538H290.118C289.667 260.538 289.223 260.649 288.825 260.861C288.427 261.072 288.087 261.378 287.834 261.752C287.82 261.773 287.802 261.792 287.78 261.806C287.759 261.82 287.735 261.83 287.71 261.834C287.684 261.839 287.658 261.839 287.633 261.834C287.608 261.829 287.584 261.819 287.563 261.804C287.542 261.79 287.524 261.771 287.509 261.75C287.495 261.729 287.486 261.705 287.481 261.679C287.476 261.654 287.476 261.628 287.481 261.603C287.486 261.578 287.497 261.554 287.511 261.533C287.798 261.105 288.187 260.755 288.641 260.513C289.096 260.271 289.603 260.145 290.118 260.146H292.295C292.811 260.146 293.319 260.273 293.774 260.515C294.229 260.757 294.618 261.108 294.905 261.536C294.92 261.557 294.931 261.581 294.936 261.607C294.941 261.632 294.941 261.659 294.936 261.684C294.931 261.71 294.921 261.734 294.906 261.756C294.891 261.777 294.873 261.796 294.851 261.81C294.818 261.83 294.78 261.841 294.741 261.84Z" fill="#263238"/>
<path d="M295.245 264.297C295.141 264.297 295.041 264.256 294.967 264.182C294.894 264.109 294.853 264.009 294.853 263.905V263.288C294.853 262.78 294.701 262.283 294.417 261.862C294.387 261.82 294.366 261.772 294.354 261.721C294.343 261.67 294.343 261.617 294.352 261.566C294.361 261.515 294.381 261.466 294.41 261.422C294.438 261.379 294.475 261.341 294.518 261.312C294.561 261.283 294.61 261.263 294.661 261.253C294.712 261.242 294.765 261.243 294.816 261.253C294.867 261.263 294.915 261.284 294.958 261.313C295.001 261.342 295.038 261.38 295.066 261.424C295.438 261.974 295.636 262.624 295.634 263.288V263.905C295.634 264.009 295.593 264.108 295.52 264.181C295.447 264.255 295.348 264.296 295.245 264.297Z" fill="#263238"/>
<path d="M287.217 266.019C287.012 266.019 286.816 265.937 286.671 265.792C286.526 265.647 286.444 265.45 286.444 265.245V264.014C286.444 263.809 286.526 263.613 286.671 263.468C286.816 263.323 287.012 263.241 287.217 263.241C287.422 263.241 287.619 263.323 287.764 263.468C287.909 263.613 287.99 263.809 287.99 264.014V265.245C287.99 265.45 287.908 265.647 287.763 265.791C287.618 265.936 287.422 266.018 287.217 266.019Z" fill="white" stroke="#263238" stroke-linecap="round" stroke-linejoin="round"/>
<path d="M287.296 263.241H287.137V266.016H287.296V263.241Z" fill="white" stroke="#263238" stroke-linecap="round" stroke-linejoin="round"/>
<path d="M295.876 264.014C295.876 263.587 295.53 263.241 295.103 263.241C294.676 263.241 294.33 263.587 294.33 264.014V265.243C294.33 265.67 294.676 266.016 295.103 266.016C295.53 266.016 295.876 265.67 295.876 265.243V264.014Z" fill="white" stroke="#263238" stroke-linecap="round" stroke-linejoin="round"/>
<path d="M295.182 263.241H295.023V266.016H295.182V263.241Z" fill="white" stroke="#263238" stroke-linecap="round" stroke-linejoin="round"/>
<path d="M291.201 262.99C291.473 262.989 291.741 262.921 291.981 262.79C292.22 262.66 292.423 262.473 292.572 262.245L292.909 261.724C292.374 261.429 291.773 261.276 291.162 261.28C290.551 261.285 289.952 261.446 289.422 261.748L289.926 262.379C290.08 262.569 290.274 262.723 290.495 262.829C290.715 262.934 290.956 262.99 291.201 262.99Z" fill="white" stroke="#263238" stroke-linecap="round" stroke-linejoin="round"/>
<path d="M291.228 266.364C291.26 266.364 291.286 266.338 291.286 266.307C291.286 266.275 291.26 266.249 291.228 266.249C291.196 266.249 291.171 266.275 291.171 266.307C291.171 266.338 291.196 266.364 291.228 266.364Z" fill="#263238"/>
<path d="M291.228 266.567C291.26 266.567 291.286 266.541 291.286 266.51C291.286 266.478 291.26 266.452 291.228 266.452C291.196 266.452 291.171 266.478 291.171 266.51C291.171 266.541 291.196 266.567 291.228 266.567Z" fill="#263238"/>
<path d="M291.058 266.478C291.072 266.473 291.084 266.463 291.092 266.45C291.099 266.437 291.1 266.421 291.096 266.406C291.091 266.392 291.08 266.38 291.066 266.373C291.053 266.366 291.037 266.364 291.022 266.368C291.008 266.373 290.996 266.383 290.989 266.396C290.982 266.409 290.98 266.425 290.984 266.439C290.986 266.447 290.99 266.454 290.995 266.46C291 266.466 291.006 266.471 291.013 266.474C291.02 266.478 291.027 266.48 291.035 266.481C291.043 266.481 291.051 266.48 291.058 266.478Z" fill="#263238"/>
<path d="M291.417 266.478C291.432 266.474 291.444 266.464 291.451 266.45C291.458 266.437 291.46 266.422 291.455 266.407C291.45 266.392 291.44 266.38 291.426 266.373C291.412 266.366 291.396 266.364 291.381 266.369C291.374 266.371 291.368 266.374 291.362 266.379C291.356 266.384 291.352 266.39 291.348 266.397C291.345 266.403 291.343 266.411 291.343 266.418C291.342 266.425 291.343 266.433 291.346 266.44C291.348 266.447 291.351 266.454 291.356 266.46C291.36 266.466 291.366 266.471 291.373 266.475C291.38 266.478 291.387 266.48 291.395 266.481C291.402 266.482 291.41 266.481 291.417 266.478Z" fill="#263238"/>
<path d="M262.133 278.182H283.949V264.309V261.731L281.369 264.309H262.133V278.182Z" fill="white" stroke="#263238" stroke-linecap="round" stroke-linejoin="round"/>
<path d="M276.7 267.517H281.835" stroke="#263238" stroke-linecap="round" stroke-linejoin="round"/>
<path d="M269.513 267.517H275.381" stroke="#263238" stroke-linecap="round" stroke-linejoin="round"/>
<path d="M265.113 267.517H268.486" stroke="#263238" stroke-linecap="round" stroke-linejoin="round"/>
<path d="M274.353 269.132H281.836" stroke="#263238" stroke-linecap="round" stroke-linejoin="round"/>
<path d="M265.113 269.132H273.034" stroke="#263238" stroke-linecap="round" stroke-linejoin="round"/>
<path d="M280.368 270.745H281.835" stroke="#263238" stroke-linecap="round" stroke-linejoin="round"/>
<path d="M272.154 270.745H279.195" stroke="#263238" stroke-linecap="round" stroke-linejoin="round"/>
<path d="M265.113 270.745H270.981" stroke="#263238" stroke-linecap="round" stroke-linejoin="round"/>
<path d="M276.7 272.065H281.835" stroke="#263238" stroke-linecap="round" stroke-linejoin="round"/>
<path d="M269.513 272.065H275.381" stroke="#263238" stroke-linecap="round" stroke-linejoin="round"/>
<path d="M265.113 272.065H268.486" stroke="#263238" stroke-linecap="round" stroke-linejoin="round"/>
<path d="M274.353 273.679H281.836" stroke="#263238" stroke-linecap="round" stroke-linejoin="round"/>
<path d="M265.113 273.679H273.034" stroke="#263238" stroke-linecap="round" stroke-linejoin="round"/>
<path d="M280.368 275.29H281.835" stroke="#263238" stroke-linecap="round" stroke-linejoin="round"/>
<path d="M272.154 275.29H279.195" stroke="#263238" stroke-linecap="round" stroke-linejoin="round"/>
<path d="M265.113 275.29H270.981" stroke="#263238" stroke-linecap="round" stroke-linejoin="round"/>
<path d="M294.949 180.507H283.631C283.512 181.134 283.179 181.699 282.688 182.107C282.197 182.514 281.579 182.738 280.941 182.739H264.738C264.1 182.738 263.482 182.514 262.991 182.107C262.5 181.699 262.167 181.134 262.048 180.507H250.744C249.798 180.507 248.892 180.882 248.223 181.551C247.555 182.219 247.179 183.126 247.179 184.071V279.759C247.179 280.704 247.555 281.61 248.223 282.279C248.892 282.947 249.798 283.323 250.744 283.323H294.949C295.894 283.323 296.801 282.947 297.469 282.279C298.138 281.61 298.513 280.704 298.513 279.759V184.071C298.513 183.126 298.138 182.219 297.469 181.551C296.801 180.882 295.894 180.507 294.949 180.507Z" stroke="#263238" stroke-width="2" stroke-linecap="round" stroke-linejoin="round"/>
<path d="M298.513 186.964V184.074C298.513 183.129 298.138 182.222 297.469 181.554C296.801 180.885 295.894 180.51 294.949 180.51H283.631C283.512 181.136 283.179 181.702 282.688 182.11C282.197 182.517 281.579 182.74 280.941 182.741H264.738C264.099 182.74 263.481 182.516 262.99 182.109C262.499 181.701 262.166 181.134 262.048 180.507H250.744C249.798 180.507 248.892 180.882 248.223 181.551C247.555 182.219 247.179 183.126 247.179 184.071V186.964H298.513Z" stroke="#263238" stroke-width="2" stroke-linecap="round" stroke-linejoin="round"/>
<path d="M251.881 183.089C251.881 183.791 251.091 184.043 251.089 184.578V184.614H251.854V184.852H250.834V184.652C250.834 183.912 251.629 183.753 251.629 183.089C251.629 182.848 251.549 182.722 251.355 182.722C251.16 182.722 251.08 182.859 251.08 183.065V183.27H250.839V183.089C250.839 182.733 251.001 182.497 251.36 182.497C251.719 182.497 251.881 182.733 251.881 183.089Z" fill="#263238"/>
<path d="M253.153 183.09V183.15C253.165 183.248 253.145 183.348 253.095 183.434C253.046 183.52 252.97 183.588 252.879 183.627C252.971 183.667 253.047 183.735 253.097 183.822C253.146 183.909 253.166 184.01 253.153 184.11V184.288C253.153 184.644 252.986 184.877 252.63 184.877C252.273 184.877 252.106 184.644 252.106 184.288V184.129H252.35V184.304C252.35 184.515 252.435 184.642 252.624 184.642C252.813 184.642 252.898 184.518 252.898 184.282V184.104C252.898 183.874 252.8 183.764 252.605 183.756H252.451V183.526H252.605C252.645 183.526 252.685 183.518 252.722 183.501C252.758 183.485 252.791 183.46 252.817 183.43C252.843 183.399 252.863 183.363 252.873 183.324C252.884 183.285 252.886 183.245 252.879 183.205V183.09C252.879 182.851 252.794 182.728 252.605 182.728C252.416 182.728 252.331 182.857 252.331 183.068V183.188H252.087V183.09C252.087 182.733 252.254 182.503 252.61 182.503C252.967 182.503 253.153 182.73 253.153 183.09Z" fill="#263238"/>
<path d="M253.655 183.263V183.586H253.406V183.263H253.655ZM253.655 184.529V184.853H253.406V184.529H253.655Z" fill="#263238"/>
<path d="M254.181 183.47C254.215 183.409 254.266 183.359 254.327 183.325C254.388 183.291 254.457 183.275 254.527 183.278C254.826 183.278 254.96 183.498 254.96 183.827V184.282C254.96 184.638 254.79 184.871 254.434 184.871C254.077 184.871 253.913 184.638 253.913 184.282V184.126H254.154V184.298C254.154 184.509 254.242 184.636 254.428 184.636C254.615 184.636 254.702 184.509 254.702 184.298V183.851C254.702 183.64 254.617 183.514 254.428 183.514C254.393 183.511 254.358 183.515 254.325 183.526C254.292 183.537 254.261 183.554 254.235 183.578C254.21 183.601 254.189 183.63 254.175 183.662C254.161 183.694 254.154 183.729 254.154 183.764V183.816H253.91L253.973 182.524H254.891V182.757H254.206L254.181 183.47Z" fill="#263238"/>
<path d="M256.251 183.09V183.131H256.016V183.071C256.016 182.862 255.928 182.739 255.741 182.739C255.555 182.739 255.467 182.865 255.467 183.114V183.638C255.494 183.561 255.545 183.495 255.613 183.45C255.681 183.405 255.762 183.383 255.843 183.389C256.142 183.389 256.276 183.602 256.276 183.937V184.288C256.276 184.644 256.101 184.877 255.744 184.877C255.388 184.877 255.193 184.642 255.193 184.285V183.09C255.193 182.72 255.358 182.489 255.728 182.489C256.098 182.489 256.251 182.728 256.251 183.09ZM255.451 183.959V184.307C255.451 184.518 255.539 184.644 255.725 184.644C255.911 184.644 255.999 184.518 255.999 184.307V183.953C255.999 183.745 255.909 183.619 255.725 183.619C255.541 183.619 255.451 183.745 255.451 183.953V183.959Z" fill="#263238"/>
<path d="M284.988 183.187H284.33V184.829H284.988V183.187Z" fill="#263238"/>
<path d="M285.866 182.856H285.208V184.828H285.866V182.856Z" fill="#263238"/>
<path d="M286.74 182.624H286.082V184.828H286.74V182.624Z" fill="#263238"/>
<path d="M287.618 182.216H286.959V184.829H287.618V182.216Z" fill="#263238"/>
<path d="M295.747 184.781H291.804V182.374H295.747V184.781ZM292.024 184.565H295.528V182.593H292.024V184.565Z" fill="#263238"/>
<path d="M294.433 182.831H292.352V184.325H294.433V182.831Z" fill="#263238"/>
<path d="M296.106 183.294H295.61V183.861H296.106V183.294Z" fill="#263238"/>
<path d="M290.359 184.257C290.333 184.258 290.308 184.251 290.285 184.238C289.482 183.761 288.953 184.202 288.931 184.221C288.916 184.236 288.899 184.247 288.88 184.255C288.862 184.263 288.841 184.266 288.821 184.266C288.801 184.265 288.781 184.26 288.762 184.251C288.744 184.243 288.727 184.23 288.714 184.215C288.701 184.2 288.69 184.182 288.684 184.163C288.678 184.143 288.676 184.123 288.678 184.102C288.68 184.082 288.686 184.063 288.696 184.045C288.706 184.027 288.72 184.012 288.736 183.999C288.764 183.975 289.443 183.393 290.436 183.983C290.469 184.004 290.492 184.037 290.501 184.074C290.511 184.112 290.505 184.152 290.485 184.186C290.472 184.208 290.454 184.226 290.432 184.238C290.41 184.251 290.385 184.257 290.359 184.257Z" fill="#263238"/>
<path d="M290.655 183.764C290.629 183.763 290.604 183.756 290.581 183.742C289.422 183.054 288.64 183.72 288.632 183.726C288.618 183.738 288.601 183.748 288.583 183.754C288.565 183.76 288.546 183.763 288.526 183.761C288.507 183.76 288.489 183.755 288.472 183.747C288.454 183.738 288.439 183.726 288.426 183.712C288.414 183.697 288.404 183.681 288.398 183.663C288.392 183.644 288.389 183.625 288.391 183.606C288.392 183.587 288.397 183.568 288.405 183.551C288.414 183.534 288.426 183.519 288.44 183.506C288.44 183.506 289.389 182.684 290.732 183.49C290.766 183.51 290.79 183.543 290.799 183.581C290.808 183.619 290.802 183.659 290.782 183.693C290.768 183.714 290.75 183.732 290.728 183.745C290.706 183.757 290.681 183.764 290.655 183.764Z" fill="#263238"/>
<path d="M290.927 183.19C290.899 183.19 290.873 183.182 290.85 183.168C289.38 182.296 288.404 183.119 288.363 183.154C288.333 183.177 288.296 183.187 288.259 183.184C288.221 183.18 288.187 183.162 288.162 183.134C288.138 183.106 288.125 183.069 288.126 183.032C288.127 182.995 288.142 182.959 288.168 182.932C288.182 182.932 289.342 181.929 291.001 182.916C291.017 182.926 291.032 182.939 291.044 182.954C291.055 182.97 291.064 182.988 291.069 183.007C291.074 183.025 291.075 183.045 291.072 183.064C291.069 183.084 291.063 183.102 291.053 183.119C291.039 183.14 291.021 183.158 290.999 183.171C290.977 183.183 290.952 183.19 290.927 183.19Z" fill="#263238"/>
<path d="M289.915 184.505C289.915 184.579 289.894 184.65 289.854 184.712C289.813 184.773 289.755 184.821 289.688 184.849C289.62 184.878 289.545 184.885 289.473 184.871C289.401 184.857 289.335 184.821 289.283 184.77C289.231 184.718 289.196 184.651 289.182 184.579C289.167 184.507 289.175 184.433 289.203 184.365C289.232 184.297 289.279 184.239 289.341 184.199C289.402 184.158 289.474 184.137 289.547 184.138C289.645 184.138 289.738 184.176 289.807 184.245C289.876 184.314 289.915 184.408 289.915 184.505Z" fill="#263238"/>
<path d="M294.4 287.69H300.158" stroke="#263238" stroke-linecap="round" stroke-linejoin="round"/>
<path d="M185.827 287.69H292.481" stroke="#263238" stroke-linecap="round" stroke-linejoin="round"/>
<path d="M178.328 287.69H182.262" stroke="#263238" stroke-linecap="round" stroke-linejoin="round"/>
<path d="M217.818 250.767H213.629V287.177H217.818V250.767Z" fill="#263238" stroke="#263238" stroke-linecap="round" stroke-linejoin="round"/>
<path d="M184.598 263.952V266.513H201.296V263.952H184.598Z" fill="#263238" stroke="#263238" stroke-linecap="round" stroke-linejoin="round"/>
<path d="M186.314 255.11H183.754V265.356H186.314V255.11Z" fill="#263238" stroke="#263238" stroke-linecap="round" stroke-linejoin="round"/>
<path d="M187.382 265.402C187.382 265.71 187.321 266.015 187.203 266.3C187.085 266.584 186.912 266.843 186.694 267.06C186.476 267.278 186.217 267.451 185.933 267.568C185.648 267.686 185.343 267.746 185.035 267.746C184.958 267.746 184.881 267.746 184.807 267.746C184.38 267.704 183.973 267.545 183.63 267.288C183.286 267.03 183.02 266.684 182.86 266.285C182.7 265.887 182.653 265.453 182.722 265.029C182.792 264.606 182.976 264.21 183.256 263.884C183.535 263.558 183.898 263.315 184.306 263.181C184.713 263.047 185.15 263.027 185.568 263.124C185.986 263.221 186.369 263.431 186.677 263.73C186.984 264.03 187.203 264.408 187.31 264.823C187.357 265.013 187.381 265.207 187.382 265.402Z" fill="white" stroke="#263238" stroke-linecap="round" stroke-linejoin="round"/>
<path d="M187.554 256.69C187.552 257.311 187.304 257.907 186.864 258.347C186.424 258.786 185.828 259.033 185.207 259.034C185.13 259.034 185.053 259.034 184.976 259.034C184.549 258.993 184.141 258.835 183.797 258.579C183.453 258.322 183.186 257.976 183.025 257.578C182.864 257.181 182.815 256.746 182.883 256.323C182.952 255.899 183.135 255.502 183.414 255.175C183.692 254.849 184.055 254.605 184.462 254.47C184.87 254.335 185.306 254.314 185.725 254.41C186.143 254.506 186.527 254.715 186.835 255.014C187.143 255.313 187.363 255.69 187.471 256.106C187.524 256.296 187.552 256.492 187.554 256.69Z" fill="white" stroke="#263238" stroke-linecap="round" stroke-linejoin="round"/>
<path d="M191.756 250.329L188.343 252.167L189.05 253.48L192.463 251.642L191.756 250.329Z" fill="#263238" stroke="#263238" stroke-linecap="round" stroke-linejoin="round"/>
<path d="M193.03 251.784L191.349 252.689L190.274 250.696L191.958 249.788C192.09 249.716 192.235 249.671 192.385 249.655C192.535 249.64 192.686 249.655 192.83 249.699C192.974 249.742 193.108 249.815 193.224 249.911C193.339 250.008 193.435 250.126 193.504 250.26C193.642 250.525 193.669 250.834 193.58 251.12C193.491 251.405 193.293 251.644 193.03 251.784Z" fill="white" stroke="#263238" stroke-linecap="round" stroke-linejoin="round"/>
<path d="M185.662 243.334L185.541 250.287L184.052 250.263L184.17 243.31L185.662 243.334Z" fill="#263238" stroke="#263238" stroke-linecap="round" stroke-linejoin="round"/>
<path d="M186.065 242.913L186.035 244.833L183.771 244.778L183.801 242.858C183.803 242.71 183.835 242.563 183.894 242.427C183.953 242.29 184.039 242.167 184.146 242.063C184.253 241.96 184.379 241.879 184.517 241.824C184.656 241.77 184.803 241.743 184.952 241.745C185.102 241.747 185.251 241.779 185.388 241.84C185.526 241.9 185.65 241.987 185.754 242.095C185.858 242.204 185.939 242.333 185.992 242.473C186.046 242.613 186.07 242.763 186.065 242.913Z" fill="white" stroke="#263238" stroke-linecap="round" stroke-linejoin="round"/>
<path d="M191.233 245.854L187.962 251.99L186.646 251.291L189.914 245.155L191.233 245.854Z" fill="#263238" stroke="#263238" stroke-linecap="round" stroke-linejoin="round"/>
<path d="M191.782 245.666L190.885 247.353L188.887 246.292L189.781 244.603C189.922 244.338 190.162 244.141 190.449 244.053C190.735 243.965 191.045 243.994 191.31 244.134C191.576 244.275 191.775 244.515 191.863 244.803C191.952 245.09 191.922 245.401 191.782 245.666Z" fill="white" stroke="#263238" stroke-linecap="round" stroke-linejoin="round"/>
<path d="M180.376 245.829L183.617 251.982L182.298 252.678L179.057 246.526L180.376 245.829Z" fill="#263238" stroke="#263238" stroke-linecap="round" stroke-linejoin="round"/>
<path d="M183.417 250.289C183.369 250.004 183.238 249.74 183.04 249.531C182.841 249.321 182.586 249.174 182.304 249.11C182.023 249.046 181.729 249.066 181.459 249.169C181.189 249.272 180.956 249.452 180.789 249.688C180.622 249.923 180.529 250.203 180.521 250.491C180.513 250.78 180.591 251.064 180.744 251.308C180.898 251.553 181.12 251.746 181.384 251.864C181.647 251.981 181.94 252.018 182.224 251.97C182.605 251.905 182.945 251.691 183.168 251.376C183.392 251.061 183.481 250.67 183.417 250.289Z" fill="white" stroke="#263238" stroke-linecap="round" stroke-linejoin="round"/>
<path d="M184.842 250.481C185.648 250.481 186.301 249.828 186.301 249.022C186.301 248.217 185.648 247.563 184.842 247.563C184.037 247.563 183.384 248.217 183.384 249.022C183.384 249.828 184.037 250.481 184.842 250.481Z" fill="white" stroke="#263238" stroke-linecap="round" stroke-linejoin="round"/>
<path d="M189.602 249.863C189.646 249.578 189.604 249.286 189.482 249.025C189.36 248.763 189.164 248.544 188.917 248.394C188.67 248.244 188.384 248.171 188.096 248.184C187.808 248.197 187.53 248.295 187.297 248.466C187.065 248.636 186.888 248.872 186.789 249.144C186.691 249.415 186.675 249.709 186.744 249.989C186.813 250.27 186.963 250.523 187.176 250.718C187.389 250.913 187.655 251.04 187.941 251.083C188.13 251.112 188.323 251.104 188.509 251.058C188.695 251.013 188.87 250.931 189.025 250.818C189.179 250.704 189.309 250.562 189.408 250.398C189.508 250.234 189.573 250.052 189.602 249.863Z" fill="white" stroke="#263238" stroke-linecap="round" stroke-linejoin="round"/>
<path d="M180.527 245.267L181.421 246.956L179.419 248.017L178.525 246.325C178.456 246.194 178.412 246.05 178.398 245.902C178.384 245.754 178.4 245.604 178.443 245.462C178.487 245.32 178.559 245.188 178.654 245.074C178.749 244.959 178.865 244.865 178.997 244.795C179.263 244.656 179.573 244.627 179.859 244.715C180.146 244.804 180.386 245.002 180.527 245.267Z" fill="white" stroke="#263238" stroke-linecap="round" stroke-linejoin="round"/>
<path d="M189.322 253.106C189.322 254.197 188.889 255.243 188.117 256.014C187.346 256.785 186.3 257.219 185.209 257.219C185.072 257.219 184.935 257.219 184.806 257.202C184.058 257.128 183.345 256.85 182.743 256.399C182.142 255.948 181.676 255.34 181.396 254.643C181.116 253.945 181.032 253.184 181.154 252.442C181.276 251.7 181.599 251.006 182.088 250.435C182.577 249.864 183.213 249.438 183.927 249.203C184.641 248.968 185.406 248.933 186.138 249.103C186.871 249.272 187.543 249.639 188.081 250.164C188.62 250.688 189.005 251.35 189.193 252.078C189.278 252.414 189.321 252.759 189.322 253.106Z" fill="white" stroke="#263238" stroke-linecap="round" stroke-linejoin="round"/>
<path d="M189.323 253.105C189.323 254.196 188.889 255.242 188.118 256.013C187.347 256.784 186.301 257.218 185.21 257.218C185.073 257.218 184.936 257.218 184.807 257.201C184.649 256.593 184.633 255.956 184.76 255.34C184.887 254.725 185.153 254.146 185.538 253.65C185.924 253.153 186.418 252.751 186.982 252.475C187.547 252.199 188.168 252.056 188.796 252.058C188.93 252.058 189.07 252.058 189.199 252.077C189.282 252.413 189.324 252.758 189.323 253.105Z" fill="white" stroke="#263238" stroke-linecap="round" stroke-linejoin="round"/>
<path d="M210.031 265.476C210.729 262.492 208.876 259.507 205.892 258.808C202.908 258.11 199.922 259.963 199.224 262.947C198.526 265.931 200.379 268.917 203.363 269.615C206.347 270.313 209.333 268.46 210.031 265.476Z" fill="white" stroke="#263238" stroke-linecap="round" stroke-linejoin="round"/>
<path d="M205.659 266.694C207.03 266.122 207.678 264.547 207.106 263.176C206.535 261.805 204.96 261.157 203.589 261.729C202.218 262.301 201.57 263.876 202.142 265.247C202.713 266.618 204.288 267.266 205.659 266.694Z" fill="#263238" stroke="#263238" stroke-linecap="round" stroke-linejoin="round"/>
<path d="M203.673 287.689H228.294L228.648 286.022C228.79 285.356 228.662 284.661 228.294 284.089C227.925 283.517 227.344 283.114 226.679 282.968C223.189 282.184 215.633 281.901 215.633 281.901C213.812 281.959 208.746 282.176 205.255 282.971C204.595 283.121 204.02 283.526 203.656 284.097C203.292 284.668 203.167 285.36 203.309 286.022L203.673 287.689Z" fill="white" stroke="#263238" stroke-linecap="round" stroke-linejoin="round"/>
<path d="M221.908 282.307C218.755 282.017 215.64 281.901 215.64 281.901C214.494 281.937 212.06 282.038 209.543 282.307C210.278 284.816 212.767 286.664 215.725 286.664C218.684 286.664 221.173 284.808 221.908 282.307Z" fill="white" stroke="#263238" stroke-linecap="round" stroke-linejoin="round"/>
<path d="M241.442 275.934L242.973 273.882L229.591 263.896L228.06 265.948L241.442 275.934Z" fill="#263238" stroke="#263238" stroke-linecap="round" stroke-linejoin="round"/>
<path d="M234.782 281.991L236.835 283.522L242.962 275.311L240.91 273.779L234.782 281.991Z" fill="#263238" stroke="#263238" stroke-linecap="round" stroke-linejoin="round"/>
<path d="M240.078 273.106C240.263 272.858 240.494 272.65 240.759 272.492C241.025 272.334 241.319 272.23 241.624 272.185C241.93 272.141 242.241 272.157 242.54 272.234C242.839 272.31 243.121 272.444 243.368 272.629L243.546 272.774C243.863 273.063 244.095 273.434 244.216 273.846C244.337 274.257 244.343 274.694 244.233 275.109C244.123 275.524 243.902 275.901 243.593 276.199C243.283 276.496 242.898 276.704 242.48 276.798C242.061 276.892 241.625 276.87 241.218 276.733C240.811 276.596 240.449 276.351 240.172 276.023C239.895 275.695 239.713 275.298 239.646 274.874C239.579 274.45 239.63 274.016 239.793 273.619C239.866 273.437 239.962 273.264 240.078 273.106Z" fill="white" stroke="#263238" stroke-linecap="round" stroke-linejoin="round"/>
<path d="M234.723 279.666C235.071 279.15 235.609 278.793 236.22 278.673C236.831 278.554 237.464 278.682 237.98 279.03C238.043 279.071 238.104 279.118 238.164 279.164C238.495 279.437 238.745 279.796 238.886 280.201C239.027 280.607 239.055 281.043 238.965 281.463C238.876 281.883 238.673 282.27 238.379 282.583C238.085 282.895 237.711 283.121 237.297 283.236C236.884 283.351 236.446 283.35 236.033 283.233C235.62 283.117 235.247 282.889 234.954 282.575C234.661 282.262 234.46 281.874 234.372 281.453C234.285 281.033 234.314 280.597 234.457 280.192C234.523 280.007 234.613 279.83 234.723 279.666Z" fill="white" stroke="#263238" stroke-linecap="round" stroke-linejoin="round"/>
<path d="M227.676 282.604L231.534 282.983L231.68 281.499L227.821 281.12L227.676 282.604Z" fill="#263238" stroke="#263238" stroke-linecap="round" stroke-linejoin="round"/>
<path d="M227.442 280.694L229.344 280.88L229.122 283.134L227.22 282.948C226.921 282.918 226.646 282.772 226.455 282.54C226.264 282.308 226.173 282.01 226.202 281.711C226.232 281.412 226.379 281.137 226.612 280.946C226.844 280.755 227.142 280.665 227.442 280.694Z" fill="white" stroke="#263238" stroke-linecap="round" stroke-linejoin="round"/>
<path d="M231.252 281.654C231.554 281.205 231.941 280.82 232.391 280.52C232.841 280.221 233.346 280.014 233.877 279.91C234.408 279.806 234.954 279.808 235.484 279.915C236.014 280.022 236.518 280.233 236.966 280.535C237.078 280.612 237.185 280.692 237.29 280.777C237.869 281.256 238.306 281.885 238.554 282.595C238.801 283.305 238.849 284.069 238.692 284.805C238.535 285.54 238.18 286.218 237.664 286.766C237.149 287.314 236.493 287.709 235.768 287.91C235.044 288.111 234.278 288.109 233.554 287.905C232.83 287.701 232.176 287.303 231.663 286.753C231.15 286.203 230.798 285.524 230.644 284.787C230.49 284.051 230.541 283.287 230.792 282.578C230.905 282.252 231.06 281.941 231.252 281.654Z" fill="white" stroke="#263238" stroke-linecap="round" stroke-linejoin="round"/>
<path d="M226.822 285.926L231.922 282.112L232.741 283.206L227.642 287.017L226.822 285.926Z" fill="#263238" stroke="#263238" stroke-linecap="round" stroke-linejoin="round"/>
<path d="M226.292 285.869L227.693 284.808L228.938 286.453L227.537 287.503C227.317 287.667 227.04 287.738 226.768 287.699C226.497 287.66 226.251 287.514 226.086 287.294C225.928 287.077 225.862 286.806 225.9 286.54C225.938 286.274 226.079 286.033 226.292 285.869Z" fill="white" stroke="#263238" stroke-linecap="round" stroke-linejoin="round"/>
<path d="M233.407 283.289C233.472 283.007 233.452 282.713 233.349 282.443C233.246 282.173 233.066 281.939 232.83 281.772C232.594 281.605 232.314 281.511 232.025 281.503C231.737 281.496 231.452 281.574 231.208 281.728C230.963 281.882 230.77 282.105 230.653 282.369C230.536 282.634 230.499 282.926 230.549 283.211C230.598 283.496 230.731 283.759 230.931 283.968C231.13 284.177 231.387 284.323 231.669 284.385C232.045 284.469 232.439 284.401 232.764 284.195C233.09 283.99 233.321 283.664 233.407 283.289Z" fill="white" stroke="#263238" stroke-linecap="round" stroke-linejoin="round"/>
<path d="M236.111 289.76L236.868 284.528L237.989 284.687L237.235 289.919L236.111 289.76Z" fill="#263238" stroke="#263238" stroke-linecap="round" stroke-linejoin="round"/>
<path d="M235.768 290.036L235.973 288.597L237.676 288.841L237.47 290.277C237.455 290.389 237.417 290.497 237.359 290.595C237.302 290.692 237.226 290.777 237.136 290.845C237.045 290.913 236.942 290.963 236.833 290.991C236.723 291.019 236.609 291.025 236.497 291.009C236.271 290.977 236.068 290.856 235.931 290.674C235.795 290.491 235.736 290.262 235.768 290.036Z" fill="white" stroke="#263238" stroke-linecap="round" stroke-linejoin="round"/>
<path d="M238.427 284.344C238.298 284.143 238.113 283.985 237.893 283.889C237.674 283.793 237.432 283.765 237.197 283.807C236.961 283.849 236.744 283.96 236.572 284.126C236.399 284.291 236.28 284.504 236.229 284.738C236.178 284.971 236.197 285.215 236.284 285.437C236.371 285.66 236.522 285.852 236.717 285.988C236.913 286.125 237.146 286.201 237.384 286.206C237.623 286.211 237.858 286.145 238.06 286.017C238.33 285.843 238.521 285.57 238.59 285.256C238.659 284.943 238.6 284.615 238.427 284.344Z" fill="white" stroke="#263238" stroke-linecap="round" stroke-linejoin="round"/>
<path d="M231.063 289.064L234.463 283.679L235.617 284.403L232.22 289.79L231.063 289.064Z" fill="#263238" stroke="#263238" stroke-linecap="round" stroke-linejoin="round"/>
<path d="M230.551 289.194L231.48 287.714L233.238 288.811L232.305 290.294C232.159 290.526 231.926 290.69 231.658 290.752C231.391 290.813 231.11 290.765 230.877 290.62C230.645 290.474 230.481 290.242 230.419 289.975C230.358 289.707 230.405 289.427 230.551 289.194Z" fill="white" stroke="#263238" stroke-linecap="round" stroke-linejoin="round"/>
<path d="M236.275 284.244C236.234 283.958 236.11 283.691 235.917 283.477C235.724 283.262 235.472 283.109 235.193 283.038C234.913 282.967 234.619 282.98 234.347 283.077C234.075 283.173 233.838 283.348 233.666 283.579C233.494 283.811 233.394 284.088 233.38 284.376C233.365 284.664 233.436 284.95 233.585 285.197C233.733 285.445 233.951 285.642 234.212 285.765C234.473 285.889 234.764 285.932 235.049 285.889C235.43 285.833 235.772 285.628 236.002 285.319C236.232 285.011 236.33 284.624 236.275 284.244Z" fill="white" stroke="#263238" stroke-linecap="round" stroke-linejoin="round"/>
<path d="M229.977 268.974C232.554 267.315 233.298 263.881 231.639 261.304C229.98 258.727 226.546 257.983 223.969 259.642C221.392 261.301 220.648 264.735 222.307 267.312C223.966 269.889 227.4 270.633 229.977 268.974Z" fill="white" stroke="#263238" stroke-linecap="round" stroke-linejoin="round"/>
<path d="M229.42 265.43C230.039 264.08 229.447 262.483 228.096 261.864C226.746 261.244 225.15 261.837 224.53 263.187C223.911 264.537 224.503 266.134 225.854 266.753C227.204 267.373 228.801 266.78 229.42 265.43Z" fill="#263238" stroke="#263238" stroke-linecap="round" stroke-linejoin="round"/>
<path d="M215.723 253.31C220.646 253.31 224.636 249.32 224.636 244.397C224.636 239.474 220.646 235.483 215.723 235.483C210.8 235.483 206.809 239.474 206.809 244.397C206.809 249.32 210.8 253.31 215.723 253.31Z" fill="white" stroke="#263238" stroke-linecap="round" stroke-linejoin="round"/>
<path d="M228.467 250.331C230.381 247.932 231.579 245.04 231.923 241.989C232.267 238.939 231.743 235.853 230.411 233.087C229.079 230.321 226.994 227.988 224.395 226.354C221.795 224.721 218.788 223.854 215.718 223.854C212.648 223.854 209.641 224.721 207.041 226.354C204.442 227.988 202.356 230.321 201.025 233.087C199.693 235.853 199.169 238.939 199.513 241.989C199.857 245.04 201.054 247.932 202.969 250.331H228.467Z" fill="white" stroke="#263238" stroke-linecap="round" stroke-linejoin="round"/>
<path d="M225.697 234.009H205.337C204.098 234.009 203.094 235.013 203.094 236.252V243.468C203.094 244.707 204.098 245.711 205.337 245.711H225.697C226.936 245.711 227.94 244.707 227.94 243.468V236.252C227.94 235.013 226.936 234.009 225.697 234.009Z" fill="white" stroke="#263238" stroke-linecap="round" stroke-linejoin="round"/>
<path d="M205.781 239.386C206.05 238.632 206.541 237.977 207.189 237.506C207.837 237.036 208.612 236.773 209.412 236.751C210.212 236.728 211.001 236.948 211.674 237.382C212.347 237.815 212.873 238.442 213.184 239.18" stroke="#263238" stroke-width="5" stroke-linecap="round" stroke-linejoin="round"/>
<path d="M218.061 239.386C218.331 238.632 218.821 237.977 219.469 237.506C220.117 237.036 220.892 236.773 221.692 236.751C222.493 236.728 223.281 236.948 223.954 237.382C224.627 237.815 225.153 238.442 225.464 239.18" stroke="#263238" stroke-width="5" stroke-linecap="round" stroke-linejoin="round"/>
<path d="M213.573 242.097C213.642 242.64 213.907 243.14 214.318 243.503C214.729 243.865 215.258 244.065 215.806 244.065C216.354 244.065 216.883 243.865 217.295 243.503C217.706 243.14 217.971 242.64 218.039 242.097H213.573Z" fill="white" stroke="#263238" stroke-linecap="round" stroke-linejoin="round"/>
<path d="M236.823 243.025C236.371 243.025 235.937 242.845 235.617 242.525C235.298 242.205 235.118 241.771 235.118 241.319V237.44C235.118 237.215 235.161 236.993 235.247 236.786C235.332 236.579 235.458 236.391 235.616 236.232C235.775 236.073 235.963 235.947 236.17 235.862C236.377 235.776 236.599 235.731 236.823 235.731C237.047 235.731 237.27 235.775 237.477 235.86C237.684 235.946 237.872 236.072 238.031 236.23C238.19 236.388 238.315 236.576 238.401 236.784C238.487 236.991 238.531 237.213 238.531 237.437V241.316C238.532 241.541 238.488 241.763 238.402 241.971C238.316 242.178 238.191 242.366 238.032 242.525C237.873 242.684 237.685 242.81 237.477 242.895C237.27 242.981 237.048 243.025 236.823 243.025Z" fill="#263238" stroke="#263238" stroke-linecap="round" stroke-linejoin="round"/>
<path d="M194.156 243.025C193.932 243.025 193.71 242.981 193.503 242.895C193.296 242.81 193.107 242.684 192.949 242.526C192.79 242.368 192.664 242.179 192.578 241.972C192.492 241.765 192.448 241.543 192.448 241.319V237.44C192.448 237.215 192.492 236.993 192.578 236.785C192.663 236.578 192.789 236.39 192.948 236.231C193.106 236.072 193.295 235.946 193.502 235.861C193.71 235.775 193.932 235.731 194.156 235.731C194.38 235.731 194.602 235.776 194.809 235.861C195.016 235.947 195.204 236.073 195.362 236.231C195.521 236.389 195.646 236.577 195.732 236.784C195.818 236.991 195.862 237.213 195.862 237.437V241.316C195.862 241.541 195.818 241.763 195.733 241.97C195.647 242.177 195.522 242.365 195.363 242.524C195.205 242.683 195.017 242.809 194.81 242.894C194.603 242.98 194.381 243.025 194.156 243.025Z" fill="#263238" stroke="#263238" stroke-linecap="round" stroke-linejoin="round"/>
<path d="M199.623 225.517C198.114 227.745 197.31 230.376 197.314 233.067V235.886" stroke="#263238" stroke-width="14" stroke-linecap="round" stroke-linejoin="round"/>
<path d="M231.998 225.528C230.764 223.689 229.096 222.182 227.141 221.14C225.186 220.098 223.005 219.553 220.79 219.554H210.824C208.612 219.552 206.433 220.095 204.48 221.133C202.527 222.171 200.859 223.674 199.624 225.509" stroke="#263238" stroke-width="7" stroke-linecap="round" stroke-linejoin="round"/>
<path d="M234.296 235.887V233.068C234.3 230.382 233.5 227.756 231.998 225.528" stroke="#263238" stroke-width="14" stroke-linecap="round" stroke-linejoin="round"/>
<path d="M198.675 232.851H196.388C195.065 232.851 193.992 233.923 193.992 235.247V243.168C193.992 244.491 195.065 245.564 196.388 245.564H198.675C199.998 245.564 201.071 244.491 201.071 243.168V235.247C201.071 233.923 199.998 232.851 198.675 232.851Z" fill="white" stroke="#263238" stroke-linecap="round" stroke-linejoin="round"/>
<path d="M197.893 232.851H197.172V245.564H197.893V232.851Z" fill="white" stroke="#263238" stroke-linecap="round" stroke-linejoin="round"/>
<path d="M234.789 232.851H232.503C231.179 232.851 230.106 233.923 230.106 235.247V243.168C230.106 244.491 231.179 245.564 232.503 245.564H234.789C236.113 245.564 237.185 244.491 237.185 243.168V235.247C237.185 233.923 236.113 232.851 234.789 232.851Z" fill="white" stroke="#263238" stroke-linecap="round" stroke-linejoin="round"/>
<path d="M234.008 232.851H233.287V245.564H234.008V232.851Z" fill="white" stroke="#263238" stroke-linecap="round" stroke-linejoin="round"/>
<path d="M215.781 231.698C217.03 231.698 218.259 231.386 219.356 230.789C220.453 230.192 221.384 229.33 222.062 228.282L223.608 225.888C221.158 224.535 218.401 223.835 215.601 223.857C212.802 223.879 210.056 224.621 207.627 226.011L209.954 228.901C210.655 229.773 211.542 230.477 212.55 230.961C213.558 231.445 214.662 231.697 215.781 231.698Z" fill="white" stroke="#263238" stroke-linecap="round" stroke-linejoin="round"/>
<path d="M216.167 246.894C216.167 246.84 216.151 246.787 216.121 246.742C216.091 246.697 216.048 246.662 215.998 246.641C215.948 246.62 215.893 246.615 215.839 246.625C215.786 246.636 215.737 246.662 215.699 246.7C215.661 246.739 215.635 246.788 215.624 246.841C215.613 246.894 215.619 246.949 215.64 246.999C215.66 247.049 215.695 247.092 215.741 247.122C215.786 247.152 215.839 247.168 215.893 247.168C215.966 247.168 216.035 247.14 216.087 247.088C216.138 247.037 216.167 246.967 216.167 246.894Z" fill="#263238"/>
<path d="M216.167 247.816C216.167 247.762 216.151 247.709 216.121 247.664C216.091 247.619 216.048 247.584 215.998 247.563C215.948 247.542 215.893 247.537 215.839 247.547C215.786 247.558 215.737 247.584 215.699 247.622C215.661 247.661 215.635 247.709 215.624 247.763C215.613 247.816 215.619 247.871 215.64 247.921C215.66 247.971 215.695 248.014 215.741 248.044C215.786 248.074 215.839 248.09 215.893 248.09C215.966 248.09 216.035 248.061 216.087 248.01C216.138 247.959 216.167 247.889 216.167 247.816Z" fill="#263238"/>
<path d="M215.123 247.673C215.173 247.641 215.211 247.593 215.231 247.537C215.252 247.481 215.253 247.42 215.236 247.363C215.219 247.306 215.183 247.256 215.135 247.221C215.087 247.186 215.029 247.168 214.969 247.169C214.919 247.201 214.881 247.249 214.86 247.305C214.84 247.361 214.838 247.422 214.855 247.479C214.873 247.536 214.908 247.586 214.956 247.621C215.005 247.656 215.063 247.675 215.123 247.673Z" fill="#263238"/>
<path d="M216.77 247.672C216.813 247.672 216.854 247.661 216.892 247.641C216.93 247.622 216.962 247.594 216.987 247.559C217.012 247.525 217.029 247.486 217.036 247.444C217.043 247.402 217.04 247.359 217.028 247.318C217.015 247.278 216.994 247.241 216.965 247.21C216.935 247.179 216.9 247.155 216.86 247.141C216.82 247.126 216.777 247.121 216.735 247.126C216.693 247.13 216.652 247.145 216.617 247.168C216.574 247.169 216.533 247.179 216.495 247.199C216.457 247.218 216.425 247.246 216.4 247.281C216.375 247.315 216.358 247.355 216.351 247.396C216.344 247.438 216.347 247.481 216.359 247.522C216.372 247.562 216.393 247.6 216.422 247.63C216.452 247.661 216.487 247.685 216.527 247.699C216.567 247.714 216.61 247.719 216.652 247.714C216.694 247.71 216.735 247.695 216.77 247.672Z" fill="#263238"/>
<path d="M226.679 257.182C223.189 256.395 215.632 256.112 215.632 256.112C213.812 256.17 208.745 256.386 205.255 257.184C204.594 257.334 204.019 257.739 203.655 258.31C203.29 258.882 203.166 259.573 203.308 260.236L206.541 275.359C206.7 276.093 207.104 276.75 207.688 277.222C208.271 277.693 208.998 277.951 209.749 277.953H222.21C222.96 277.951 223.687 277.693 224.271 277.222C224.854 276.75 225.259 276.093 225.418 275.359L228.648 260.236C228.789 259.57 228.662 258.875 228.293 258.303C227.924 257.731 227.344 257.327 226.679 257.182Z" fill="white" stroke="#263238" stroke-linecap="round" stroke-linejoin="round"/>
<path d="M225.089 256.891C221.302 256.326 215.641 256.112 215.641 256.112C212.868 256.192 210.103 256.421 207.355 256.798L211.018 277.953H220.973L225.089 256.891Z" fill="white" stroke="#263238" stroke-linecap="round" stroke-linejoin="round"/>
<path d="M218.909 260.71H212.844C211.605 260.71 210.601 261.714 210.601 262.953V265.914C210.601 267.152 211.605 268.157 212.844 268.157H218.909C220.147 268.157 221.152 267.152 221.152 265.914V262.953C221.152 261.714 220.147 260.71 218.909 260.71Z" fill="white" stroke="#263238" stroke-linecap="round" stroke-linejoin="round"/>
<path d="M214.105 263.778H212.397V265.486H214.105V263.778Z" fill="white" stroke="#263238" stroke-linecap="round" stroke-linejoin="round"/>
<path d="M216.729 263.778H215.021V265.486H216.729V263.778Z" fill="white" stroke="#263238" stroke-linecap="round" stroke-linejoin="round"/>
<path d="M219.355 263.778H217.647V265.486H219.355V263.778Z" fill="white" stroke="#263238" stroke-linecap="round" stroke-linejoin="round"/>
<path d="M191.875 273.173H222.264C222.628 273.173 222.976 273.317 223.234 273.574C223.491 273.831 223.635 274.18 223.635 274.544V291.617H190.504V274.544C190.504 274.18 190.648 273.831 190.905 273.574C191.162 273.317 191.511 273.173 191.875 273.173Z" fill="white" stroke="#263238" stroke-linecap="round" stroke-linejoin="round"/>
<path d="M223.635 279.31C219.473 280.365 215.201 283.052 207.242 286.836C199.565 290.488 193.281 290.425 190.504 290.142V291.617H223.635V279.31Z" fill="#263238" stroke="#263238" stroke-linecap="round" stroke-linejoin="round"/>
<path d="M223.635 290.595H190.504V291.62H223.635V290.595Z" fill="white" stroke="#263238" stroke-linecap="round" stroke-linejoin="round"/>
<path d="M208.778 282.397C208.778 282.734 208.677 283.065 208.49 283.346C208.302 283.626 208.035 283.845 207.723 283.975C207.411 284.104 207.068 284.138 206.736 284.072C206.405 284.006 206.101 283.843 205.862 283.604C205.623 283.366 205.46 283.061 205.394 282.73C205.328 282.398 205.362 282.055 205.491 281.743C205.621 281.431 205.84 281.164 206.12 280.976C206.401 280.789 206.732 280.688 207.069 280.688C207.522 280.688 207.957 280.868 208.277 281.189C208.598 281.509 208.778 281.944 208.778 282.397Z" fill="white" stroke="#263238" stroke-linecap="round" stroke-linejoin="round"/>
</g>
<defs>
<linearGradient id="paint0_linear_1187_19596" x1="201.989" y1="178.121" x2="332.965" y2="413.948" gradientUnits="userSpaceOnUse">
<stop stop-color="white"/>
<stop offset="1" stop-color="#BBC9D8"/>
</linearGradient>
<linearGradient id="paint1_linear_1187_19596" x1="336.06" y1="77.5452" x2="140.152" y2="416.887" gradientUnits="userSpaceOnUse">
<stop stop-color="#2560F1"/>
<stop offset="0.4875" stop-color="#7944FF"/>
<stop offset="1" stop-color="#C623FF"/>
</linearGradient>
<linearGradient id="paint2_linear_1187_19596" x1="210.356" y1="196.024" x2="306.074" y2="373.683" gradientUnits="userSpaceOnUse">
<stop stop-color="white"/>
<stop offset="1" stop-color="#BBC9D8"/>
</linearGradient>
<clipPath id="clip0_1187_19596">
<rect width="126" height="112.896" fill="white" transform="translate(174.779 179.38)"/>
</clipPath>
</defs>
</svg>
