<svg width="277" height="279" viewBox="0 0 277 279" fill="none" xmlns="http://www.w3.org/2000/svg">
<mask id="mask0_821_34268" style="mask-type:luminance" maskUnits="userSpaceOnUse" x="44" y="45" width="207" height="179">
<path d="M198.731 45.3857L224.491 89.9999L250.251 134.616L224.484 179.235L198.716 223.854L147.191 223.857L95.6641 223.862L69.9036 179.246L44.1442 134.632L69.9098 90.014L95.6774 45.3951L147.204 45.3905L198.731 45.3857Z" fill="white"/>
</mask>
<g mask="url(#mask0_821_34268)">
<path d="M172.972 0.771608L18.3848 90.0176L121.425 268.478L276.012 179.232L172.972 0.771608Z" fill="url(#paint0_linear_821_34268)"/>
</g>
<mask id="mask1_821_34268" style="mask-type:luminance" maskUnits="userSpaceOnUse" x="69" y="67" width="156" height="135">
<path d="M186.053 67.3426L108.353 67.3502L69.4987 134.631L108.343 201.908L186.041 201.902L224.897 134.619L186.053 67.3426Z" fill="white"/>
</mask>
<g mask="url(#mask1_821_34268)">
<path d="M166.631 33.7053L50.0771 100.994L127.766 235.547L244.32 168.258L166.631 33.7053Z" fill="url(#paint1_linear_821_34268)" fill-opacity="0.8"/>
</g>
<path d="M47.018 181.411L65.1227 170.959L69.5783 178.698L51.4716 189.152L47.018 181.411Z" fill="#00478F"/>
<path d="M143.099 181.355L140.683 177.595L138.491 181.355H135.963L139.483 175.723L135.915 170.187H138.491L140.907 173.931L143.083 170.187H145.611L142.107 175.803L145.675 181.355H143.099ZM153.14 181.355L150.676 177.003H149.62V181.355H147.38V170.187H151.572C152.436 170.187 153.172 170.342 153.78 170.651C154.388 170.95 154.841 171.361 155.14 171.883C155.449 172.395 155.604 172.971 155.604 173.611C155.604 174.347 155.391 175.014 154.964 175.611C154.537 176.198 153.903 176.603 153.06 176.827L155.732 181.355H153.14ZM149.62 175.323H151.492C152.1 175.323 152.553 175.179 152.852 174.891C153.151 174.593 153.3 174.182 153.3 173.659C153.3 173.147 153.151 172.753 152.852 172.475C152.553 172.187 152.1 172.043 151.492 172.043H149.62V175.323Z" fill="#001237"/>
<path fill-rule="evenodd" clip-rule="evenodd" d="M141.912 93.13C142.146 93.1141 142.379 93.1612 142.589 93.2663C142.728 93.3788 142.736 93.5291 142.767 93.8196C143.001 96.0016 143.445 111.973 143.373 112.156C143.276 112.318 143.187 112.313 142.999 112.342C138.93 112.979 133.752 114.433 129.77 115.785C119.278 119.365 116.309 122.212 115.926 122.371C115.888 122.383 115.849 122.387 115.81 122.382C115.771 122.377 115.734 122.364 115.701 122.344C115.667 122.324 115.638 122.297 115.616 122.264C115.594 122.232 115.579 122.196 115.572 122.157C115.206 120.933 114.231 103.451 114.161 101.933C114.155 101.874 114.162 101.814 114.184 101.759C114.205 101.704 114.239 101.654 114.283 101.614C115.932 99.8254 137.736 93.1356 141.912 93.13ZM115.993 121.713C122.14 117.195 135.238 112.967 142.804 111.772C142.272 91.5734 142.224 94.7053 142.183 93.7171C141.805 93.6882 141.426 93.702 141.052 93.7582C137.116 94.2323 127.783 96.9206 123.737 98.1887C122.777 98.4898 114.914 100.956 114.409 101.844C114.372 101.91 115.601 119.117 115.993 121.713Z" fill="url(#paint2_linear_821_34268)"/>
<path fill-rule="evenodd" clip-rule="evenodd" d="M117.402 103.418C117.416 103.747 118.363 116.183 118.425 116.146C119.833 115.309 125.738 113.18 126.55 112.733C126.685 112.658 125.94 101.331 125.793 100.822C125.603 100.167 117.401 103.383 117.402 103.418Z" fill="url(#paint3_linear_821_34268)"/>
<path fill-rule="evenodd" clip-rule="evenodd" d="M125.574 100.485C125.656 100.476 125.739 100.489 125.814 100.523C125.889 100.556 125.954 100.609 126.003 100.676C126.253 101.122 126.791 110.442 126.84 111.638C126.888 112.829 126.908 112.885 126.618 113.033C126.09 113.295 124.527 113.896 123.147 114.437C118.523 116.248 118.758 116.315 118.528 116.405C118.491 116.42 118.45 116.427 118.41 116.425C118.37 116.422 118.331 116.412 118.295 116.393C118.26 116.375 118.229 116.349 118.204 116.317C118.179 116.285 118.162 116.249 118.152 116.209C117.998 115.558 117.268 103.426 117.284 103.424C117.283 103.401 117.289 103.378 117.301 103.357C117.314 103.337 117.331 103.321 117.353 103.311C117.657 103.148 124.167 100.477 125.574 100.485ZM117.529 103.492C117.538 103.599 118.614 115.341 118.651 115.705C120.458 114.789 125.158 113.062 126.269 112.541C126.284 111.272 125.681 101.921 125.565 100.985C124.565 100.912 118.546 103.079 117.529 103.492Z" fill="url(#paint4_linear_821_34268)"/>
<path fill-rule="evenodd" clip-rule="evenodd" d="M128.572 100.037C128.56 99.9143 128.683 99.827 128.79 99.7641C130.099 98.9913 138.236 96.8922 139.346 96.9167C139.43 96.9114 139.513 96.9367 139.579 96.9879C139.646 97.0392 139.691 97.1129 139.707 97.1952C139.859 97.7334 140.216 101.303 140.112 101.796C140.103 101.849 140.081 101.898 140.048 101.94C140.015 101.982 139.972 102.016 139.924 102.038C139.836 102.063 139.746 102.079 139.655 102.087C138.158 102.364 130.063 104.502 129.018 104.32C128.96 104.315 128.905 104.293 128.861 104.255C128.817 104.217 128.787 104.166 128.774 104.11C128.695 103.702 128.649 101.953 128.592 100.492C128.577 100.078 128.571 100.042 128.572 100.037ZM139.174 97.5102C138.038 97.635 129.431 99.4895 128.813 100.042C128.866 100.486 129.061 103.269 129.161 103.907C130.26 103.874 137.801 101.833 139.538 101.505C139.552 100.757 139.222 97.5054 139.174 97.5102Z" fill="url(#paint5_linear_821_34268)"/>
<path fill-rule="evenodd" clip-rule="evenodd" d="M140.453 104.198L140.495 104.276V104.278L140.466 104.362C140.301 104.45 140.557 104.356 139.555 104.518C137.303 104.884 133.376 105.932 131.277 106.609C129.396 107.22 130.031 107.154 129.548 107.18L129.378 107.029V107.028L129.366 106.8C129.546 106.597 129.499 106.638 129.57 106.605C131.5 105.764 137.908 104.271 140.368 104.168L140.453 104.198Z" fill="url(#paint6_linear_821_34268)"/>
<path fill-rule="evenodd" clip-rule="evenodd" d="M140.645 107.211L140.686 107.29V107.291L140.658 107.376C140.492 107.463 140.749 107.369 139.747 107.531C137.495 107.898 133.568 108.946 131.469 109.622C129.525 110.254 130.246 110.166 129.74 110.194L129.57 110.043V110.041L129.558 109.814C129.737 109.611 129.691 109.652 129.762 109.619C131.692 108.778 138.099 107.284 140.56 107.182L140.645 107.211Z" fill="url(#paint7_linear_821_34268)"/>
<path fill-rule="evenodd" clip-rule="evenodd" d="M179.992 100.102C180.053 100.205 180.043 100.097 180.053 101.588C180.06 102.694 180.158 119.526 179.863 120.597C179.856 120.638 179.839 120.678 179.814 120.711C179.789 120.745 179.756 120.772 179.718 120.791C179.681 120.81 179.639 120.82 179.597 120.819C179.555 120.819 179.514 120.809 179.476 120.789C178.69 120.276 177.876 119.808 177.037 119.386C170.38 115.98 158.747 113.08 151.74 112.443C151.676 112.437 151.616 112.411 151.568 112.368C151.521 112.325 151.488 112.268 151.475 112.205C151.45 111.99 150.838 95.1579 151.01 93.6805C151.009 93.5896 151.04 93.5012 151.098 93.4308C151.156 93.3605 151.236 93.3125 151.325 93.2954C153.743 92.424 178.901 98.3878 179.992 100.102ZM179.801 100.251C179.801 100.257 179.802 100.262 179.803 100.268H179.805C179.804 100.254 179.799 100.241 179.791 100.229L179.792 100.231C179.101 99.1567 167.677 96.5264 166.432 96.2439C164.509 95.8089 153.492 93.3909 151.57 93.8148C151.589 94.7904 151.363 92.0562 152.054 111.874C158.302 112.472 168.421 114.904 175.155 117.899C178.523 119.405 179.416 120.24 179.425 120.131C179.695 117.039 179.778 100.251 179.801 100.251ZM179.98 100.347H179.979H179.981C179.963 100.318 179.855 100.131 179.98 100.347Z" fill="url(#paint8_linear_821_34268)"/>
<path fill-rule="evenodd" clip-rule="evenodd" d="M176.898 101.983C176.904 102.312 176.719 114.782 176.655 114.749C175.198 114 169.174 112.236 168.336 111.839C168.197 111.774 168.247 100.421 168.363 99.9064C168.514 99.2397 176.897 101.946 176.898 101.983Z" fill="url(#paint9_linear_821_34268)"/>
<path fill-rule="evenodd" clip-rule="evenodd" d="M168.687 99.5509C170.18 99.5736 176.382 101.625 176.935 101.869C176.959 101.878 176.979 101.893 176.993 101.913C177.008 101.934 177.016 101.958 177.016 101.983C176.993 101.983 176.919 101.984 177.018 101.983C177.035 102.653 177.045 114.143 176.932 114.797C176.925 114.837 176.91 114.874 176.887 114.907C176.864 114.94 176.835 114.968 176.8 114.989C176.76 115.012 176.716 115.026 176.67 115.029C176.517 115.032 176.628 115.002 175.635 114.622C173.562 113.837 169.854 112.735 168.519 112.235C168.372 112.198 168.235 112.131 168.114 112.039C168.012 111.909 167.979 111.928 167.962 109.266C167.954 107.807 167.97 100.823 168.11 99.8927C168.155 99.6114 168.405 99.5477 168.687 99.5509ZM168.603 100.053C168.541 101.038 168.514 110.151 168.604 111.608C168.613 111.741 174.324 113.423 176.404 114.322C176.425 113.771 176.772 102.255 176.776 102.063C175.674 101.692 169.625 99.9273 168.602 100.053H168.603Z" fill="url(#paint10_linear_821_34268)"/>
<path fill-rule="evenodd" clip-rule="evenodd" d="M154.726 96.8321C156.325 96.8635 164.564 98.4614 165.436 99.1103C165.468 99.1293 165.495 99.1563 165.514 99.1888C165.533 99.2213 165.543 99.2581 165.543 99.2955C165.534 99.5667 165.628 102.233 165.606 103.1C165.598 103.346 165.609 103.498 165.416 103.577C164.591 103.888 156.769 102.323 154.762 102.038C154.238 101.966 154.111 102.08 154.083 101.278C154.051 100.304 154.127 98.2334 154.213 97.421C154.258 97.0053 154.293 96.828 154.726 96.8321ZM154.686 101.428C156.393 101.643 164.107 103.228 165.19 103.191C165.246 102.607 165.278 99.8565 165.299 99.3494C165.324 98.8919 155.853 97.4581 154.804 97.4174C154.696 98.7513 154.657 100.09 154.686 101.428Z" fill="url(#paint11_linear_821_34268)"/>
<path fill-rule="evenodd" clip-rule="evenodd" d="M154.477 104.332C156.076 104.363 164.315 105.961 165.187 106.61C165.219 106.629 165.246 106.656 165.265 106.689C165.284 106.721 165.294 106.758 165.294 106.796C165.285 107.067 165.379 109.732 165.357 110.6C165.349 110.846 165.36 110.998 165.167 111.076C164.342 111.386 156.52 109.822 154.513 109.537C153.99 109.465 153.862 109.579 153.834 108.777C153.802 107.803 153.878 105.732 153.964 104.92C154.009 104.505 154.044 104.328 154.477 104.332ZM154.436 108.929C156.143 109.144 163.857 110.729 164.941 110.692C164.996 110.108 165.028 107.358 165.049 106.851C165.074 106.393 155.603 104.959 154.554 104.919C154.447 106.252 154.407 107.591 154.436 108.929Z" fill="url(#paint12_linear_821_34268)"/>
<path fill-rule="evenodd" clip-rule="evenodd" d="M140.018 121.441C142.304 121.451 142.404 124.357 142.404 124.357C142.404 124.357 140.689 131.287 140.113 131.23C138.764 131.097 137.081 130.749 135.592 127.378C134.457 124.81 134.276 116.837 134.122 116.463C133.938 116.015 133.442 115.634 133.194 115.194C132.779 114.463 132.761 113.356 133.368 112.832C133.605 112.689 133.868 112.595 134.142 112.557C133.908 112.047 133.712 111.52 133.556 110.981C133.453 110.692 133.318 110.42 133.452 110.139C133.482 110.075 133.526 110.02 133.582 109.977C133.638 109.934 133.703 109.904 133.772 109.891C133.841 109.878 133.912 109.881 133.98 109.9C134.048 109.92 134.11 109.955 134.161 110.002C134.431 110.253 135.153 111.636 135.228 111.951C135.25 112.041 136.214 112.94 136.379 113.591C136.417 113.741 137.156 114.876 137.291 115.088C138.141 116.412 138.597 117.992 139.193 119.441C139.394 119.925 139.764 121.149 140.017 121.441C140.397 121.891 140.747 122.366 141.064 122.862" fill="white"/>
<path fill-rule="evenodd" clip-rule="evenodd" d="M134.252 109.776C134.552 109.986 135.085 111.056 135.239 111.384C135.533 112.015 135.345 111.764 135.558 112.007C136.628 113.218 136.451 113.317 136.657 113.686C137.278 114.794 137.689 115.162 138.341 116.769C138.534 117.244 139.445 119.709 139.453 119.732C139.601 120.166 139.899 121.079 140.091 121.342C141.263 121.368 141.939 122.111 142.327 123.217C142.445 123.582 142.52 123.959 142.55 124.341C142.557 124.515 141.565 128.361 140.973 130.061C140.853 130.421 140.705 130.77 140.529 131.106C140.309 131.475 140.194 131.449 139.931 131.424C139.523 131.387 139.12 131.304 138.731 131.176C138.032 130.928 137.408 130.507 136.917 129.953C136.09 128.995 135.47 127.878 135.094 126.67C134.387 124.202 134.15 119.906 133.974 117.406C133.909 116.506 133.91 116.547 133.797 116.369C133.617 116.088 133.293 115.784 133.068 115.452C132.542 114.668 132.464 113.395 133.136 112.718C133.32 112.548 133.549 112.433 133.795 112.386C133.655 112.046 133.533 111.7 133.428 111.348C133.303 110.951 133.276 110.912 133.223 110.744C132.953 109.855 133.714 109.412 134.252 109.776ZM140.065 131.032L140.063 131.034L140.065 131.033L140.065 131.032ZM133.84 110.116C133.756 110.118 133.686 110.16 133.647 110.282C133.626 110.476 133.665 110.673 133.759 110.845C133.921 111.39 134.119 111.923 134.353 112.441C134.379 112.489 134.388 112.543 134.379 112.596C134.37 112.65 134.344 112.698 134.304 112.734C134.209 112.807 134.213 112.78 133.982 112.835C133.822 112.865 133.67 112.925 133.531 113.01C133.099 113.356 132.974 114.317 133.411 115.082C133.516 115.248 133.635 115.404 133.767 115.549C134.42 116.302 134.386 116.342 134.449 117.184C134.598 119.2 134.747 122.106 135.143 124.603C135.413 126.296 135.654 127.219 136.5 128.626C137.022 129.459 137.558 130.104 138.422 130.566C138.942 130.819 139.506 130.971 140.083 131.015C140.296 130.673 140.467 130.308 140.593 129.926C141.199 128.229 141.72 126.352 142.184 124.618C142.271 124.286 142.262 124.386 142.243 124.163C142.111 123.081 141.704 122.002 140.668 121.645C140.536 121.602 140.4 121.572 140.262 121.556C140.578 121.957 140.872 122.375 141.144 122.808L141.116 122.944L140.98 122.915C139.481 120.704 140.135 122.291 139.12 119.644C139.042 119.447 138.929 119.192 138.807 118.876C138.505 118.117 138.269 117.461 137.948 116.733C137.283 115.295 137.232 115.395 136.457 114.15C136.344 113.987 136.25 113.812 136.174 113.628C136.024 113.11 135.315 112.413 135.094 112.146C134.972 111.996 135.083 112.06 134.707 111.325C134.538 110.989 134.349 110.664 134.142 110.35C134.059 110.225 133.992 110.114 133.84 110.116Z" fill="url(#paint13_linear_821_34268)"/>
<path fill-rule="evenodd" clip-rule="evenodd" d="M133.065 113.17C132.961 113.125 132.846 113.112 132.735 113.133C132.624 113.153 132.522 113.207 132.441 113.286C132.221 113.493 132.274 113.85 132.367 114.113C132.564 114.566 132.853 114.972 133.214 115.308C133.393 115.442 133.846 115.365 133.906 115.099C133.974 114.795 133.847 114.549 133.714 114.272C133.552 113.931 133.352 113.417 133.065 113.17Z" fill="white"/>
<path fill-rule="evenodd" clip-rule="evenodd" d="M132.805 113C132.924 112.998 133.04 113.034 133.138 113.102C133.312 113.246 133.461 113.418 133.578 113.612C133.7 113.806 133.97 114.291 134.028 114.411C134.124 114.594 134.17 114.799 134.161 115.005C134.162 115.119 134.129 115.23 134.067 115.325C134.004 115.42 133.915 115.494 133.811 115.539C133.708 115.588 133.595 115.615 133.481 115.617C133.367 115.62 133.253 115.598 133.148 115.553C132.884 115.359 132.661 115.114 132.493 114.833C132.251 114.462 132.04 114.063 132.095 113.624C132.112 113.449 132.194 113.287 132.326 113.171C132.458 113.056 132.629 112.994 132.805 113ZM132.656 113.313C132.611 113.339 132.573 113.374 132.543 113.417C132.514 113.459 132.495 113.508 132.487 113.559C132.477 113.724 132.509 113.889 132.578 114.039C132.771 114.437 133.034 114.798 133.353 115.104C133.405 115.125 133.462 115.131 133.517 115.122C133.573 115.114 133.625 115.09 133.667 115.054C133.706 114.897 133.688 114.732 133.616 114.589C133.607 114.566 133.306 113.783 133.297 113.76C133.229 113.574 133.13 113.401 133.004 113.247L133.001 113.246L133.006 113.25L133.004 113.248L133.008 113.251L133.004 113.249L133.008 113.251L133.004 113.25C132.945 113.236 132.883 113.234 132.823 113.245C132.763 113.256 132.706 113.279 132.656 113.313Z" fill="url(#paint14_linear_821_34268)"/>
<path fill-rule="evenodd" clip-rule="evenodd" d="M134.032 112.594C133.928 112.549 133.813 112.536 133.702 112.556C133.591 112.577 133.489 112.631 133.409 112.71C133.188 112.917 133.242 113.274 133.334 113.537C133.531 113.989 133.82 114.396 134.181 114.732C134.36 114.866 134.814 114.789 134.873 114.522C134.941 114.219 134.814 113.973 134.682 113.695C134.519 113.355 134.32 112.841 134.032 112.594Z" fill="white"/>
<path fill-rule="evenodd" clip-rule="evenodd" d="M133.772 112.426C133.891 112.424 134.008 112.459 134.105 112.528C134.279 112.672 134.428 112.844 134.545 113.037C134.667 113.232 134.937 113.717 134.995 113.837C135.091 114.02 135.137 114.225 135.129 114.431C135.13 114.545 135.097 114.656 135.034 114.751C134.972 114.846 134.883 114.92 134.778 114.964C134.675 115.014 134.563 115.041 134.449 115.043C134.334 115.046 134.221 115.024 134.116 114.979C133.851 114.785 133.629 114.54 133.461 114.258C133.219 113.888 133.008 113.489 133.063 113.05C133.08 112.875 133.162 112.713 133.294 112.597C133.425 112.482 133.596 112.42 133.772 112.426ZM133.623 112.738C133.578 112.764 133.54 112.8 133.511 112.842C133.481 112.885 133.462 112.933 133.454 112.984C133.445 113.15 133.476 113.315 133.545 113.465C133.738 113.863 134.001 114.223 134.32 114.53C134.372 114.551 134.429 114.557 134.484 114.548C134.54 114.539 134.592 114.515 134.635 114.479C134.674 114.323 134.655 114.158 134.582 114.014C134.574 113.992 134.273 113.209 134.264 113.186C134.197 112.999 134.098 112.826 133.972 112.673L133.97 112.671L133.975 112.675L133.972 112.673L133.976 112.676L133.973 112.674L133.977 112.676L133.973 112.675C133.913 112.66 133.851 112.659 133.791 112.67C133.731 112.681 133.674 112.704 133.623 112.738Z" fill="url(#paint15_linear_821_34268)"/>
<path fill-rule="evenodd" clip-rule="evenodd" d="M136.285 113.656C136.322 113.549 136.327 113.434 136.298 113.325C136.268 113.216 136.207 113.118 136.122 113.044C135.898 112.839 135.547 112.92 135.291 113.033C134.854 113.263 134.47 113.582 134.162 113.968C134.042 114.156 134.153 114.602 134.424 114.641C134.732 114.686 134.968 114.54 135.235 114.387C135.563 114.199 136.06 113.961 136.285 113.656Z" fill="white"/>
<path fill-rule="evenodd" clip-rule="evenodd" d="M135.725 112.725C135.837 112.721 135.948 112.745 136.049 112.795C136.15 112.845 136.237 112.919 136.302 113.01C136.378 113.112 136.424 113.233 136.434 113.359C136.444 113.486 136.418 113.612 136.358 113.725C136.21 113.933 136.025 114.113 135.812 114.254C135.538 114.451 135.253 114.632 134.957 114.793C134.811 114.859 134.652 114.891 134.491 114.888C134.379 114.889 134.268 114.858 134.174 114.797C134.079 114.736 134.005 114.648 133.959 114.545C133.906 114.443 133.876 114.332 133.871 114.217C133.866 114.103 133.886 113.988 133.93 113.883C134.07 113.604 134.555 113.219 134.833 113.034C135.091 112.842 135.403 112.734 135.725 112.725ZM135.815 113.11C135.548 113.142 135.296 113.251 135.09 113.424C134.819 113.614 134.576 113.842 134.369 114.1C134.342 114.147 134.373 114.365 134.456 114.403C134.622 114.42 134.788 114.384 134.932 114.301C135.595 113.983 135.972 113.843 136.203 113.602L136.204 113.599C136.212 113.542 136.207 113.484 136.191 113.428C136.174 113.341 136.127 113.261 136.059 113.203C135.991 113.145 135.906 113.112 135.816 113.109L135.815 113.11Z" fill="url(#paint16_linear_821_34268)"/>
<path fill-rule="evenodd" clip-rule="evenodd" d="M142.139 124.886C142.139 124.886 142.421 122.708 140.093 121.415C139.544 121.11 145.373 117.993 151.956 117.762C160.855 117.451 163.235 125.86 163.184 128.006C163.161 129.756 162.731 131.477 161.928 133.032C161.125 134.587 159.97 135.934 158.556 136.965L157.46 136.247L141.471 138.529C141.471 138.529 140.138 134.519 139.023 133.826C138.721 133.638 140.23 131.354 140.23 131.354C141.205 125.939 142.139 124.886 142.139 124.886Z" fill="white"/>
<path fill-rule="evenodd" clip-rule="evenodd" d="M141.928 125.019C142.067 124.797 142.04 124.88 142.047 124.782C142.056 124.299 141.964 123.818 141.776 123.373C141.588 122.927 141.309 122.526 140.956 122.195C140.354 121.627 140.007 121.576 139.943 121.436C139.608 120.698 145.307 118.157 150.637 117.64C152.47 117.466 154.066 117.481 155.852 118.018C159.86 119.238 162.48 122.879 163.269 126.635C163.404 127.216 163.452 127.814 163.411 128.408C163.317 130.355 162.732 132.246 161.711 133.906C160.767 135.429 159.506 136.645 158.703 137.16C158.663 137.19 158.614 137.207 158.564 137.208C158.514 137.21 158.464 137.196 158.422 137.168L157.403 136.501C157.427 136.501 141.541 138.764 141.395 138.718C141.275 138.658 141.301 138.644 141.13 138.162C140.806 137.224 139.777 134.534 138.954 133.983C138.902 133.955 138.861 133.91 138.838 133.855C138.759 133.649 138.925 133.287 139.033 133.073C139.349 132.461 139.701 131.868 140.088 131.297C140.114 131.296 140.844 126.847 141.928 125.019ZM149.78 118.14C147.389 118.439 145.046 119.044 142.809 119.939C142.235 120.175 140.63 120.865 140.212 121.331C141.369 122.016 141.994 122.95 142.19 124.006C142.248 124.298 142.263 124.598 142.236 124.895C142.029 125.215 141.859 125.558 141.73 125.917C140.867 128.112 140.424 131.316 140.354 131.433C140.056 131.88 139.288 133.128 139.152 133.688C139.148 133.737 139.148 133.659 139.438 133.953C140.281 134.857 141.204 137.141 141.606 138.301C141.8 138.273 157.107 136.011 157.529 136.011C157.552 136.017 157.573 136.027 157.593 136.04C158.625 136.715 158.539 136.676 158.562 136.66C159.045 136.303 159.494 135.902 159.903 135.462C161.428 133.85 162.434 131.817 162.789 129.627C163.017 128.086 163.023 127.281 162.504 125.628C162.309 125.015 162.069 124.419 161.785 123.843C159.213 118.819 155.203 117.485 149.78 118.14Z" fill="url(#paint17_linear_821_34268)"/>
<path fill-rule="evenodd" clip-rule="evenodd" d="M157.515 136.199C157.515 136.199 149.347 131.083 149.284 131.096C139.725 133.01 136.545 135.089 136.073 135.16C135.299 135.277 134.459 135.277 133.645 135.401C133.251 135.46 131.15 135.55 131.167 136.025C131.216 137.349 133.594 136.196 133.839 137.306C133.911 137.532 134.05 137.731 134.237 137.878C134.423 138.025 134.65 138.112 134.887 138.128C135.966 138.178 136.537 137.672 136.824 137.525C136.935 137.469 138.924 138.059 141.084 138.498C154.345 141.198 157.436 136.174 157.515 136.199Z" fill="white"/>
<path fill-rule="evenodd" clip-rule="evenodd" d="M157.566 136.281C157.549 136.307 157.334 136.552 157.212 136.673C156.712 137.162 156.145 137.579 155.529 137.909C148.282 141.66 137.198 137.568 136.847 137.792C136.318 138.169 135.686 138.373 135.037 138.375C134.805 138.386 134.575 138.339 134.366 138.239C134.195 138.164 134.041 138.055 133.914 137.919C133.786 137.782 133.688 137.622 133.625 137.446C133.612 137.358 133.579 137.274 133.527 137.202C133.114 136.755 131.636 137.297 131.088 136.558C130.982 136.404 130.925 136.221 130.923 136.033C130.916 135.649 131.368 135.5 131.736 135.408C132.335 135.288 132.941 135.208 133.551 135.167C134.492 135.035 134.827 135.054 135.644 134.971C136.048 134.929 135.985 134.923 136.04 134.921C137.247 134.448 139.904 132.865 148.152 131.125C149.418 130.87 149.284 130.89 149.382 130.93C151.474 132.203 156.019 135.127 157.568 136.115C157.531 136.175 157.472 136.269 157.568 136.116L157.582 136.126C157.593 136.136 157.601 136.149 157.606 136.163C157.612 136.177 157.613 136.193 157.612 136.207C157.61 136.222 157.605 136.237 157.598 136.25C157.59 136.262 157.579 136.273 157.566 136.281ZM136.882 137.279C137.735 137.339 149.488 141.215 155.794 137.477C156.378 137.143 156.907 136.718 157.359 136.218C157.238 136.144 150.037 131.736 149.258 131.294C146.318 131.919 143.016 132.726 140.172 133.741C138.906 134.186 137.665 134.698 136.455 135.275C136.165 135.405 136.142 135.406 135.466 135.474C134.476 135.554 134.386 135.551 133.868 135.614C133.223 135.705 132.134 135.751 131.565 135.969C131.512 135.989 131.462 136.015 131.416 136.047C131.416 136.105 131.43 136.161 131.455 136.213C131.481 136.264 131.518 136.309 131.563 136.344C131.925 136.613 132.982 136.38 133.614 136.667C134.051 136.889 134.05 137.198 134.119 137.366C134.191 137.501 134.294 137.618 134.418 137.706C134.543 137.795 134.687 137.853 134.838 137.877C135.389 137.926 135.942 137.79 136.407 137.491C136.687 137.324 136.734 137.269 136.882 137.279H136.882ZM157.518 136.296H157.519H157.521H157.518Z" fill="url(#paint18_linear_821_34268)"/>
<path fill-rule="evenodd" clip-rule="evenodd" d="M154.114 124.153L154.101 124.291C153.101 125.305 151.818 127.079 151.086 128.157C150.906 128.421 149.452 130.591 149.431 130.951V130.949L149.43 130.956V130.958V130.961V130.964V130.966V130.975L149.35 131.088C149.204 130.986 149.243 131.018 149.23 130.985C149.191 130.04 151.668 125.773 153.977 124.141L154.114 124.153Z" fill="url(#paint19_linear_821_34268)"/>
<path fill-rule="evenodd" clip-rule="evenodd" d="M166.477 128.898C155.495 129.993 132.546 129.627 121.649 126.611L120.447 151.856C125.2 155.942 157.137 157.782 165.429 155.375C165.522 155.347 166.73 128.874 166.477 128.898Z" fill="white" fill-opacity="0.38"/>
<path fill-rule="evenodd" clip-rule="evenodd" d="M166.514 128.786C166.618 128.832 166.617 128.91 166.628 129.19C166.698 132.405 165.908 151.729 165.696 155.092C165.67 155.401 165.695 155.501 165.52 155.6C160.618 157.008 149.731 156.816 144.645 156.525C139.328 156.306 125.891 155.179 121.193 152.702C120.842 152.528 120.516 152.309 120.222 152.051C120.172 151.993 120.146 151.919 120.15 151.843C121.445 124.8 121.342 126.559 121.432 126.431C121.472 126.384 121.527 126.351 121.587 126.337C121.992 126.28 126.692 128.171 142.256 128.99C158.854 129.795 166.194 128.72 166.514 128.786ZM120.804 151.762C124.043 154.262 137.31 155.453 141.405 155.745C147.079 156.148 159.696 156.666 165.209 155.187C165.209 155.164 166.506 132.008 166.382 129.03C166.25 129.04 164.92 129.184 162.948 129.315C152.195 130.024 132.213 129.74 121.914 126.976C120.763 152.052 120.702 151.687 120.804 151.762Z" fill="url(#paint20_linear_821_34268)"/>
<path fill-rule="evenodd" clip-rule="evenodd" d="M140.228 134.586C137.705 134.558 133.24 134.344 129.437 133.48L128.448 146.661C130.455 147.674 135.978 148.389 139.411 147.827C139.411 147.827 140.287 134.586 140.228 134.586Z" fill="white" fill-opacity="0.38"/>
<path fill-rule="evenodd" clip-rule="evenodd" d="M131.943 133.717C134.007 134.045 136.087 134.266 138.175 134.381C140.281 134.498 140.214 134.437 140.297 134.49C140.334 134.52 140.305 134.497 140.327 134.521C140.439 134.71 139.721 147.304 139.698 147.697C139.687 147.885 139.694 148.007 139.501 148.091C137.956 148.477 133.366 148.419 129.983 147.521C129.393 147.376 128.819 147.168 128.273 146.901C128.22 146.863 128.182 146.808 128.164 146.745C128.136 146.668 128.793 138.198 129.156 133.727C129.183 133.405 129.174 133.422 129.222 133.337C129.42 133.093 129.373 133.288 131.943 133.717ZM129.547 135.668C128.82 145.877 128.743 146.474 128.768 146.484C130.803 147.401 135.953 148.046 139.15 147.585C139.491 142.883 140.073 135.573 140.109 134.707C139.842 134.718 138.368 134.686 138.084 134.677C135.413 134.601 132.293 134.34 129.697 133.798C129.667 133.792 129.69 133.587 129.547 135.668Z" fill="url(#paint21_linear_821_34268)"/>
<path fill-rule="evenodd" clip-rule="evenodd" d="M158.389 135.369C154.874 135.842 150.622 135.621 146.794 134.871L146.2 148.075C148.236 149.028 154.552 149.292 157.968 148.629C157.968 148.629 158.446 135.362 158.389 135.369Z" fill="white" fill-opacity="0.38"/>
<path fill-rule="evenodd" clip-rule="evenodd" d="M150.402 135.181C152.384 135.414 154.382 135.492 156.377 135.413C158.335 135.325 158.397 135.17 158.49 135.309C158.561 135.444 158.398 142.469 158.395 142.624C158.249 149.099 158.262 148.688 158.176 148.808C158.136 148.855 158.08 148.887 158.019 148.899C158.042 148.899 157.358 149.028 156.785 149.093C154.08 149.422 149.979 149.349 147.336 148.751C146.885 148.661 146.447 148.516 146.031 148.319C145.998 148.296 145.969 148.266 145.948 148.231C145.926 148.197 145.912 148.158 145.906 148.118C145.893 148.053 146.507 135.037 146.538 134.813C146.551 134.754 146.584 134.701 146.632 134.664C146.897 134.494 146.831 134.754 150.402 135.181ZM146.513 147.887C148.884 148.825 154.862 148.889 157.702 148.397C157.862 144.533 158.24 136.939 158.273 135.508C154.644 136.018 150.678 135.819 147.045 135.182C146.737 143.11 146.489 147.876 146.513 147.887Z" fill="url(#paint22_linear_821_34268)"/>
<path fill-rule="evenodd" clip-rule="evenodd" d="M128.145 149.13C130.378 150.23 135.284 150.73 138.035 150.539C139.13 150.464 138.838 150.415 139.046 150.467L139.093 150.542V150.544C139.061 150.672 139.122 150.672 138.452 150.768C134.774 151.291 129.888 150.613 127.929 149.687C127.89 149.689 127.833 149.611 127.729 149.49L127.745 149.263V149.261L127.917 149.113L128.145 149.13Z" fill="url(#paint23_linear_821_34268)"/>
<path fill-rule="evenodd" clip-rule="evenodd" d="M146.327 150.76C148.701 151.741 154.892 151.887 157.801 151.285L157.89 151.302L157.943 151.373V151.375C157.918 151.509 157.962 151.499 157.441 151.613C153.703 152.433 148.14 152.115 146.176 151.342C146.076 151.303 146.125 151.341 145.936 151.148V150.921V150.919L146.098 150.76L146.327 150.76Z" fill="url(#paint24_linear_821_34268)"/>
<path fill-rule="evenodd" clip-rule="evenodd" d="M125.392 138.152L125.452 138.215V138.216L125.444 138.302L125.379 138.368C125.347 138.37 124.737 138.691 124.714 138.703C124.041 139.042 123.416 139.469 122.855 139.972C123.086 140.266 124.93 142.131 124.953 142.15L124.95 142.148H124.951L124.954 142.15L124.95 142.148L124.951 142.15L124.948 142.148H124.949L124.944 142.145H124.945L124.936 142.141L124.922 142.138L124.992 142.183L125.016 142.271V142.272C125.014 142.285 125.01 142.297 125.004 142.308C125 142.316 124.994 142.324 124.987 142.331L124.977 142.341C124.966 142.349 124.955 142.356 124.943 142.361L124.924 142.367C124.912 142.369 124.9 142.37 124.888 142.369C124.852 142.364 124.819 142.35 124.79 142.327C124.252 141.989 123.738 141.615 123.252 141.205C122.914 140.919 122.604 140.6 122.328 140.253C122.018 139.803 122.319 139.654 122.584 139.418C123.312 138.83 123.908 138.45 125.299 138.137L125.392 138.152ZM124.856 142.146C124.816 142.17 124.83 142.158 124.796 142.2C124.777 142.254 124.773 142.25 124.836 142.16C124.926 142.137 124.927 142.141 124.896 142.137L124.856 142.146Z" fill="url(#paint25_linear_821_34268)"/>
<path fill-rule="evenodd" clip-rule="evenodd" d="M162.13 140.095C163.363 140.597 164.037 141.083 164.833 142.092C164.866 142.136 164.888 142.188 164.897 142.242C164.907 142.297 164.903 142.353 164.887 142.405C164.668 143.087 162.005 144.337 161.841 144.337C161.809 144.334 161.779 144.319 161.758 144.295C161.748 144.284 161.741 144.271 161.737 144.257C161.733 144.245 161.731 144.232 161.73 144.22V144.218L161.769 144.136L161.845 144.101L161.83 144.103L161.822 144.105H161.823L161.817 144.107H161.819L161.815 144.108H161.816L161.812 144.11L161.815 144.108H161.816L161.813 144.11C161.926 144.046 162.948 143.261 163.491 142.88C163.7 142.727 164.018 142.506 164.241 142.304C164.087 142.11 163.905 141.901 163.829 141.823C163.273 141.261 162.666 140.755 162.014 140.309L161.96 140.232L161.968 140.147V140.146L162.036 140.094L162.13 140.095ZM161.927 144.134C161.979 144.244 161.968 144.227 161.96 144.179C161.935 144.134 161.947 144.148 161.909 144.116C161.865 144.099 161.878 144.102 161.852 144.1L161.927 144.134Z" fill="url(#paint26_linear_821_34268)"/>
<path fill-rule="evenodd" clip-rule="evenodd" d="M155.815 108.259C153.967 106.438 149.754 104.762 147.319 107.618C147.319 107.618 146.077 109.75 146.981 114.488C147.082 115.022 147.282 115.532 147.568 115.993C148.095 116.715 149.371 116.905 150.223 116.87C150.551 116.856 150.873 116.788 151.19 116.775C151.24 116.773 151.439 116.705 151.481 116.744C151.7 116.944 151.85 118.277 151.913 118.335C152.156 118.56 152.453 118.718 152.774 118.796C153.096 118.874 153.432 118.869 153.75 118.78C154.195 118.687 155.021 118.411 155.191 118.033C155.266 117.865 154.994 116.215 155.062 116.137C156.245 114.792 155.905 113.562 156.1 113.35C156.124 113.323 156.622 113.253 156.752 113.195C157.254 112.969 157.601 112.119 157.473 111.592C157.441 111.435 157.367 111.29 157.259 111.172C157.151 111.054 157.013 110.968 156.859 110.922C156.645 110.861 155.978 111.288 155.978 111.288L155.815 108.259Z" fill="white"/>
<path fill-rule="evenodd" clip-rule="evenodd" d="M156.837 110.761C157.085 110.805 157.306 110.944 157.451 111.15C157.808 111.637 157.688 112.297 157.401 112.807C157.019 113.426 156.719 113.406 156.246 113.514C156.22 113.92 156.165 114.324 156.081 114.723C155.931 115.28 155.657 115.796 155.28 116.232C155.271 116.354 155.422 117.435 155.438 117.806C155.456 117.914 155.445 118.026 155.405 118.129C155.366 118.232 155.299 118.323 155.213 118.391C155.029 118.547 154.822 118.672 154.599 118.763C153.568 119.187 152.655 119.25 151.815 118.573C151.674 118.451 151.667 118.442 151.589 118.025C151.357 116.794 151.35 117.082 151.347 116.992C151.196 117.02 151.043 117.038 150.89 117.046C150.548 117.101 150.202 117.124 149.856 117.116C149.265 117.107 148.682 116.981 148.14 116.743C147.901 116.638 147.686 116.487 147.506 116.298C147.327 116.108 147.187 115.885 147.095 115.641C146.768 114.903 146.686 114.27 146.569 113.457C146.392 112.231 146.372 110.988 146.508 109.758C146.587 109.022 146.776 108.303 147.071 107.624C147.11 107.529 147.169 107.444 147.244 107.374C147.478 107.118 147.74 106.889 148.024 106.691C150.338 105.064 154.001 106.236 155.883 108.188C155.919 108.23 155.913 108.255 155.918 108.331C156.115 111.27 156.072 111.06 156.146 111.018C156.354 110.88 156.59 110.792 156.837 110.761ZM149.347 106.478C148.684 106.696 148.089 107.084 147.621 107.601C147.484 107.754 147.501 107.732 147.469 107.8C147.097 108.562 146.909 109.911 146.891 110.838C146.844 112.015 147.053 114.743 147.706 115.761C147.811 115.93 147.954 116.072 148.124 116.176C148.65 116.517 149.466 116.637 150.097 116.627C150.374 116.616 150.651 116.589 150.925 116.549C151.023 116.544 151.12 116.534 151.216 116.519C151.461 116.463 151.586 116.458 151.729 116.663C151.93 117.013 152.012 117.688 152.121 118.193C152.367 118.414 152.676 118.552 153.005 118.588C153.739 118.673 154.771 118.234 154.95 117.98C154.973 117.948 154.968 117.955 154.97 117.916C154.945 117.309 154.847 116.77 154.825 116.249C154.83 116.002 154.857 116.048 155.029 115.824C155.246 115.557 155.423 115.26 155.554 114.941C155.721 114.479 155.817 113.994 155.838 113.503C155.894 113.178 156.003 113.159 156.173 113.124C156.662 113.031 156.675 113.05 156.859 112.899C157.012 112.749 157.132 112.57 157.212 112.372C157.292 112.174 157.331 111.962 157.327 111.748C157.314 111.553 157.231 111.37 157.092 111.232C157.068 111.209 157.042 111.188 157.015 111.169C156.953 111.127 156.886 111.094 156.815 111.072C156.574 111.128 156.344 111.226 156.135 111.359C156.027 111.423 156.036 111.423 155.984 111.429C155.951 111.43 155.919 111.42 155.893 111.4C155.867 111.38 155.849 111.351 155.842 111.319C155.838 111.282 155.853 111.621 155.72 108.342C155.718 108.296 155.724 108.309 155.702 108.288C154.1 106.816 151.434 105.794 149.347 106.478Z" fill="url(#paint27_linear_821_34268)"/>
<path fill-rule="evenodd" clip-rule="evenodd" d="M147.063 108.636C147.124 108.501 146.751 108.665 146.62 108.595C146.356 108.451 146.078 108.251 145.919 107.551C145.786 106.962 146.338 106.379 146.318 106.361C145.581 105.684 145.54 104.697 146.293 103.88C146.71 103.427 147.247 103.605 147.719 103.584C147.79 103.581 147.918 103.11 147.983 103.025C148.261 102.652 148.672 102.4 149.131 102.323C149.316 102.298 149.505 102.314 149.684 102.369C149.862 102.425 150.026 102.52 150.165 102.646C150.318 102.763 150.648 102.965 150.648 102.965C150.829 102.76 151.031 102.577 151.253 102.418C151.687 102.203 152.169 102.102 152.653 102.124C153.449 102.13 154.068 103.058 154.235 103.051C154.28 103.049 155.538 102.297 156.661 102.897C157.285 103.231 157.864 103.643 158.074 104.375C158.203 104.907 158.22 105.459 158.125 105.998C158.125 105.998 159.881 106.083 159.861 108.12C159.852 109.098 158.929 109.614 158.929 109.622C158.942 109.945 159.431 110.205 159.159 110.736C158.807 111.423 158.227 111.166 158.113 111.354C158.066 111.432 158.447 112.155 157.513 112.4C157.46 112.414 157.809 111.052 156.825 110.742C156.016 110.488 155.044 109.978 154.804 109.167C154.709 108.844 154.814 108.122 154.44 107.955C154.297 107.89 154.087 108.257 153.958 108.288C152.797 108.571 152.389 108.397 151.375 107.821C151.167 107.704 151.006 107.371 150.779 107.324C150.365 107.239 149.871 108.108 149.429 108.19C149.054 108.26 148.243 107.831 148.109 107.905C147.897 108.023 147.88 108.406 147.664 108.525C147.472 108.632 146.92 108.448 146.929 108.451" fill="url(#paint28_linear_821_34268)"/>
<path fill-rule="evenodd" clip-rule="evenodd" d="M155.725 102.521C156.167 102.525 156.599 102.657 156.967 102.902C157.269 103.07 157.543 103.286 157.777 103.542C158.327 104.147 158.403 105.065 158.294 105.871C158.589 105.916 158.87 106.027 159.117 106.195C159.363 106.364 159.569 106.585 159.719 106.844C159.921 107.23 160.021 107.662 160.009 108.098C159.997 108.418 159.908 108.73 159.748 109.008C159.589 109.286 159.363 109.52 159.092 109.691C159.182 109.97 159.671 110.308 159.151 111.021C159.013 111.197 158.818 111.321 158.599 111.37C158.395 111.417 158.301 111.409 158.261 111.427C158.321 111.638 158.307 111.864 158.221 112.066C158.155 112.185 158.064 112.289 157.954 112.369C157.843 112.449 157.717 112.504 157.583 112.53C157.554 112.544 157.522 112.549 157.49 112.544C157.459 112.538 157.429 112.524 157.407 112.501C157.332 112.413 157.37 112.362 157.382 112.104C157.409 111.705 157.343 111.199 157.004 110.983C156.811 110.846 155.442 110.548 154.854 109.595C154.773 109.465 154.712 109.324 154.672 109.176C154.602 108.922 154.653 108.316 154.463 108.121C154.445 108.101 154.423 108.085 154.4 108.072C154.347 108.074 154.18 108.301 154.041 108.382C153.89 108.428 153.737 108.462 153.581 108.484C152.784 108.608 152.437 108.502 151.726 108.135C151.216 107.853 151.264 107.892 151.044 107.651C150.953 107.549 150.836 107.41 150.711 107.413C150.358 107.419 149.872 108.229 149.398 108.277C149.014 108.308 148.325 107.965 148.148 107.969C148.132 107.969 148.112 107.988 148.1 107.998C147.934 108.174 147.915 108.428 147.73 108.56C147.564 108.674 147.313 108.608 147.116 108.567C147.123 108.578 147.127 108.591 147.128 108.604C147.129 108.617 147.127 108.63 147.123 108.642C147.117 108.665 147.123 108.658 147.037 108.691C147.007 108.616 147.056 108.642 146.787 108.672C146.744 108.682 146.7 108.682 146.657 108.674C146.614 108.665 146.573 108.648 146.537 108.623C146.384 108.537 146.25 108.421 146.142 108.282C146.035 108.143 145.958 107.983 145.914 107.813C145.803 107.553 145.791 107.262 145.88 106.994C145.958 106.772 146.069 106.564 146.209 106.376C146.021 106.197 145.872 105.981 145.77 105.741C145.624 105.376 145.613 104.971 145.738 104.598C145.808 104.392 145.909 104.198 146.039 104.023C146.193 103.771 146.435 103.585 146.718 103.5C147.033 103.452 147.352 103.443 147.669 103.472C147.741 103.339 147.798 103.108 147.876 102.97C148.03 102.757 148.226 102.577 148.453 102.443C148.679 102.308 148.93 102.221 149.192 102.188C149.795 102.124 150.11 102.473 150.624 102.795C150.771 102.632 150.933 102.483 151.108 102.349C151.704 102.011 152.406 101.909 153.075 102.061C153.64 102.262 154.079 102.795 154.231 102.896C154.694 102.658 155.205 102.529 155.725 102.521ZM154.423 107.826C154.505 107.848 154.58 107.89 154.641 107.949C154.702 108.008 154.747 108.081 154.772 108.161C154.899 108.446 154.853 108.953 154.954 109.207C155.212 109.854 155.899 110.245 156.545 110.497C156.893 110.629 157.057 110.64 157.275 110.837C157.642 111.171 157.699 111.698 157.665 112.195C157.74 112.164 157.809 112.119 157.869 112.064C157.928 112.004 157.971 111.93 157.993 111.849C158.015 111.768 158.016 111.683 157.996 111.602C157.969 111.41 157.922 111.334 158.03 111.225C158.229 111.054 158.55 111.184 158.834 110.931C158.967 110.809 159.058 110.647 159.091 110.469C159.109 110.135 158.773 109.921 158.782 109.609C158.784 109.588 158.79 109.568 158.8 109.55C158.798 109.487 159.162 109.366 159.477 108.882C159.609 108.681 159.688 108.45 159.708 108.21C159.738 107.296 159.415 106.551 158.554 106.244C158.142 106.097 158.079 106.201 157.993 106.068C157.938 105.939 158.064 105.797 158.033 105.063C158.024 104.79 157.972 104.52 157.88 104.262C157.852 104.191 157.819 104.121 157.782 104.053C157.705 103.989 157.656 103.605 156.592 103.026C156.349 102.898 156.081 102.825 155.806 102.813C155.274 102.813 154.75 102.942 154.278 103.188C154.034 103.251 153.788 102.766 153.222 102.437C152.999 102.3 152.737 102.24 152.476 102.265C152.103 102.266 151.734 102.346 151.393 102.498C151.171 102.626 150.973 102.792 150.808 102.988C150.727 103.075 150.734 103.072 150.689 103.092C150.619 103.108 150.609 103.099 150.464 103.007C150.013 102.716 149.714 102.386 149.211 102.439C148.987 102.467 148.771 102.539 148.576 102.652C148.381 102.765 148.211 102.916 148.076 103.096C148.009 103.198 147.92 103.593 147.786 103.678C147.641 103.759 147.006 103.57 146.598 103.773C146.285 103.989 146.049 104.3 145.927 104.659C145.832 104.919 145.815 105.201 145.877 105.471C145.948 105.761 146.098 106.025 146.311 106.235C146.388 106.313 146.397 106.311 146.402 106.354C146.405 106.416 146.365 106.432 146.234 106.632C146.045 106.883 145.957 107.195 145.987 107.508C146.029 107.739 146.112 107.961 146.231 108.164C146.337 108.322 146.481 108.45 146.65 108.536C146.754 108.55 146.859 108.545 146.961 108.522L146.912 108.506L146.921 108.508L146.926 108.494L146.899 108.501C146.891 108.497 146.885 108.491 146.88 108.484C146.875 108.478 146.872 108.47 146.87 108.461C146.868 108.453 146.868 108.444 146.871 108.436C146.873 108.428 146.876 108.42 146.882 108.413C146.919 108.375 146.926 108.391 147.072 108.429C147.251 108.488 147.441 108.502 147.626 108.47C147.835 108.36 147.87 107.833 148.152 107.824C148.369 107.824 148.857 108.066 149.246 108.11C149.332 108.122 149.419 108.112 149.501 108.083C149.582 108.053 149.656 108.004 149.714 107.94C150.267 107.484 150.603 106.899 151.119 107.44C151.271 107.643 151.477 107.799 151.713 107.893C152.554 108.337 152.919 108.419 153.927 108.174C154.122 108.005 154.24 107.815 154.423 107.826ZM147.011 108.62L147.013 108.626V108.628L147.01 108.619L147.011 108.62Z" fill="url(#paint29_linear_821_34268)"/>
<path fill-rule="evenodd" clip-rule="evenodd" d="M149.513 115.25V115.252V115.247V115.249L149.511 115.244L149.513 115.246L149.511 115.241L149.512 115.243L149.51 115.238L149.511 115.24L149.509 115.235L149.51 115.237L149.508 115.233L149.509 115.235L149.506 115.23L149.509 115.232L149.506 115.228L149.508 115.23L149.505 115.226L149.506 115.228L149.503 115.224L149.505 115.226L149.502 115.222L149.505 115.224L149.501 115.221L149.504 115.222L149.501 115.22L149.503 115.221L149.5 115.218L149.503 115.22L149.499 115.217L149.502 115.219L149.499 115.217H149.502L149.499 115.215H149.502L149.499 115.213H149.502L149.499 115.212H149.502L149.5 115.21H149.503L149.501 115.209H149.506H149.503H149.508H149.506H149.511H149.508H149.515H149.513C149.607 115.197 149.698 115.167 149.781 115.121L149.786 115.119L149.781 115.121L149.787 115.116L149.782 115.118L149.785 115.115L149.777 115.119L149.781 115.116L149.773 115.121L149.776 115.118L149.77 115.122C149.803 115.085 149.831 115.043 149.852 114.999V114.994C149.9 114.898 149.928 114.794 149.937 114.688V114.685C149.956 114.573 149.94 114.459 149.894 114.357C149.847 114.254 149.772 114.168 149.676 114.108C149.562 114.04 149.452 114.051 149.49 114.045H149.486L149.492 114.043C149.387 114.06 149.286 114.098 149.195 114.155V114.153L149.191 114.157V114.155L149.187 114.16L149.188 114.157L149.184 114.161L149.185 114.159L149.184 114.161L149.182 114.163L149.183 114.16L149.18 114.163L149.181 114.161L149.179 114.164V114.161L149.177 114.164V114.16L149.176 114.164L149.177 114.16L149.175 114.163L149.177 114.16L149.175 114.163V114.159L149.174 114.162V114.158V114.161V114.157L149.173 114.16V114.156V114.159V114.155V114.158V114.153V114.157V114.152V114.155V114.15V114.153V114.149V114.152V114.147V114.15V114.146V114.149L149.171 114.144V114.148L149.169 114.143V114.146L149.168 114.142V114.145L149.165 114.141V114.144L149.163 114.14V114.142L149.161 114.138L149.163 114.142L149.131 114.278L148.995 114.246C148.98 114.227 148.969 114.204 148.964 114.18C148.958 114.156 148.958 114.131 148.963 114.107C149 113.987 149.073 113.881 149.173 113.805C149.267 113.718 149.385 113.662 149.512 113.643C149.639 113.625 149.768 113.645 149.883 113.701C150.581 114.004 150.582 115.07 150.034 115.406C149.937 115.456 149.83 115.482 149.72 115.484C149.611 115.486 149.503 115.463 149.404 115.417C149.375 115.402 149.35 115.379 149.334 115.351C149.318 115.322 149.311 115.29 149.313 115.257L149.412 115.161L149.508 115.261V115.264V115.259V115.261V115.254V115.256V115.251V115.254L149.513 115.25Z" fill="url(#paint30_linear_821_34268)"/>
<path fill-rule="evenodd" clip-rule="evenodd" d="M145.205 109.005C145.246 109.026 146.163 108.108 146.163 108.108C146.784 108.028 153.602 107.568 155.055 108.499C155.568 108.828 155.472 111.549 155.326 112.359C155.236 112.857 154.181 113.359 154.181 113.359C154.181 113.359 150.575 114.095 145.074 113.074C144.916 113.044 145.205 109.005 145.205 109.005Z" fill="white"/>
<path fill-rule="evenodd" clip-rule="evenodd" d="M154.994 108.197C155.102 108.235 155.199 108.298 155.279 108.38C155.359 108.462 155.419 108.561 155.455 108.67C155.794 109.525 155.692 111.812 155.565 112.412C155.542 112.528 155.493 112.637 155.422 112.732C155.144 113.063 154.799 113.33 154.41 113.518C154.303 113.585 154.182 113.624 154.056 113.631C152.041 113.962 148.855 113.981 145.427 113.324C144.972 113.237 144.878 113.277 144.862 112.902C144.84 112.386 144.924 111.245 144.963 110.738C145.114 108.793 145.097 108.967 145.173 108.914C145.443 108.682 145.698 108.432 145.934 108.166C146.132 107.964 146.052 107.993 146.371 107.958C148.101 107.774 153.42 107.432 154.994 108.197ZM149.663 108.119C149.326 108.119 146.281 108.167 146.213 108.236C146.075 108.367 145.465 108.952 145.302 109.067C145.249 110.216 145.169 111.849 145.213 112.918C147.772 113.36 151.581 113.577 154.105 113.125C154.436 112.97 154.736 112.757 154.99 112.494C155.031 112.449 155.063 112.395 155.082 112.337C155.212 111.784 155.311 109.134 154.937 108.706L154.931 108.701C154.828 108.635 154.717 108.583 154.6 108.547C153.412 108.146 150.953 108.119 149.663 108.119ZM145.225 112.995L145.224 112.99V112.992V112.993V112.989L145.225 112.995ZM145.223 112.989L145.224 112.993V112.989L145.223 112.989Z" fill="url(#paint31_linear_821_34268)"/>
<path fill-rule="evenodd" clip-rule="evenodd" d="M145.206 109.004C145.206 109.004 144.548 112.787 145.074 113.073C146.776 113.994 154.117 113.885 154.224 113.26C154.408 112.174 154.487 109.362 154.085 109.418C152.909 109.578 146.306 109.509 145.206 109.004Z" fill="white"/>
<path fill-rule="evenodd" clip-rule="evenodd" d="M145.109 108.989C145.112 108.974 145.118 108.961 145.126 108.949C145.135 108.937 145.147 108.927 145.16 108.92C145.173 108.913 145.187 108.909 145.202 108.908C145.217 108.908 145.232 108.911 145.246 108.916C146.265 109.327 151.094 109.285 152.203 109.267C152.841 109.275 153.48 109.246 154.116 109.179C154.402 109.2 154.481 109.514 154.536 109.775C154.657 110.911 154.639 112.058 154.483 113.19C154.484 113.265 154.466 113.339 154.43 113.404C154.394 113.469 154.342 113.524 154.278 113.563C153.432 114.128 147.685 114.168 145.484 113.446C145.27 113.387 145.068 113.288 144.889 113.155C144.416 112.612 144.982 109.758 145.108 108.989C145.132 108.993 145.167 108.999 145.109 108.989ZM151.004 113.503C151.566 113.49 153.492 113.422 153.991 113.164C154.066 112.614 154.111 112.06 154.124 111.505C154.152 110.934 154.127 110.362 154.049 109.795C154.04 109.752 154.029 109.709 154.015 109.667C152.733 109.795 149.879 109.681 148.442 109.582C147.767 109.535 145.921 109.388 145.286 109.144C145.172 109.948 144.98 111.599 145.048 112.399C145.046 112.574 145.083 112.748 145.158 112.906V112.908H145.16L145.161 112.91C146.27 113.48 149.671 113.53 151.004 113.503ZM145.167 112.916L145.164 112.914H145.166L145.164 112.911H145.165L145.162 112.909H145.164L145.161 112.906H145.162L145.159 112.905L145.161 112.907L145.16 112.905L145.163 112.908L145.161 112.906L145.164 112.908L145.161 112.906L145.167 112.916ZM145.162 112.912H145.164L145.162 112.911V112.912Z" fill="url(#paint32_linear_821_34268)"/>
<path fill-rule="evenodd" clip-rule="evenodd" d="M154.411 110.273C154.693 110.413 159.488 107.521 159.742 107.329C160.066 107.085 160.091 108.594 159.786 108.976C159.325 109.554 154.554 112.178 154.418 111.846C154.402 111.805 154.411 110.273 154.411 110.273Z" fill="white"/>
<path fill-rule="evenodd" clip-rule="evenodd" d="M154.449 110.181H154.452L154.446 110.18H154.449L154.444 110.178H154.446H154.442H154.444L154.44 110.177H154.443H154.439H154.441H154.438C154.508 110.16 154.576 110.135 154.641 110.104C155.321 109.809 159.219 107.383 159.432 107.247C159.632 107.119 159.582 107.147 159.624 107.119C159.669 107.09 159.719 107.072 159.772 107.067C159.824 107.061 159.878 107.067 159.927 107.085C159.977 107.103 160.022 107.132 160.059 107.171C160.095 107.209 160.122 107.255 160.138 107.305C160.313 107.656 160.273 108.681 160.021 109.068C159.589 109.719 155.402 111.953 154.539 112.032C154.474 112.041 154.408 112.029 154.351 111.996C154.229 111.914 154.257 111.837 154.277 111.189C154.278 111.154 154.308 110.358 154.314 110.272C154.314 110.255 154.318 110.239 154.326 110.225C154.334 110.21 154.345 110.198 154.359 110.189C154.373 110.18 154.389 110.175 154.405 110.174C154.422 110.173 154.438 110.177 154.453 110.184H154.455L154.449 110.181ZM154.573 111.823V111.818V111.821V111.816V111.818V111.812V111.823ZM156.011 109.716C155.529 109.974 155.027 110.192 154.511 110.37C154.519 110.623 154.542 111.315 154.562 111.701C154.702 111.659 154.839 111.606 154.972 111.544C155.587 111.269 159.386 109.23 159.626 108.768C159.711 108.542 159.754 108.304 159.755 108.063C159.761 107.916 159.752 107.77 159.73 107.625C158.656 108.3 157.047 109.196 156.011 109.716Z" fill="url(#paint33_linear_821_34268)"/>
<path fill-rule="evenodd" clip-rule="evenodd" d="M153.022 110.444V110.446L152.996 110.53L152.917 110.575C151.861 110.722 150.796 110.797 149.73 110.799C149.029 110.806 146.921 110.771 146.271 110.541L146.106 110.385L146.098 110.157V110.156L146.253 109.99C146.594 109.978 146.375 109.97 146.701 110.043C147.553 110.219 149.307 110.312 150.173 110.348C152.782 110.452 152.71 110.285 152.977 110.367L153.022 110.444Z" fill="url(#paint34_linear_821_34268)"/>
<path fill-rule="evenodd" clip-rule="evenodd" d="M144.653 121.266C142.682 123.913 141.292 126.945 140.575 130.166C140.334 131.238 140.458 131.024 140.285 131.161L140.2 131.051C140.454 127.351 141.973 123.852 144.501 121.139L144.64 121.127L144.653 121.266Z" fill="url(#paint35_linear_821_34268)"/>
<defs>
<linearGradient id="paint0_linear_821_34268" x1="167.059" y1="97.7869" x2="98.3371" y2="225.312" gradientUnits="userSpaceOnUse">
<stop stop-color="white"/>
<stop offset="1" stop-color="#BBC9D8"/>
</linearGradient>
<linearGradient id="paint1_linear_821_34268" x1="162.17" y1="106.851" x2="110.369" y2="202.997" gradientUnits="userSpaceOnUse">
<stop stop-color="white"/>
<stop offset="1" stop-color="#BBC9D8"/>
</linearGradient>
<linearGradient id="paint2_linear_821_34268" x1="144.461" y1="99.8452" x2="113.818" y2="102.059" gradientUnits="userSpaceOnUse">
<stop stop-color="#001237"/>
<stop offset="0.190429" stop-color="#03045E"/>
<stop offset="0.780728" stop-color="#03045E"/>
<stop offset="1" stop-color="#001237"/>
</linearGradient>
<linearGradient id="paint3_linear_821_34268" x1="126.905" y1="104.273" x2="117.263" y2="104.688" gradientUnits="userSpaceOnUse">
<stop stop-color="#001237"/>
<stop offset="0.190429" stop-color="#03045E"/>
<stop offset="0.780728" stop-color="#03045E"/>
<stop offset="1" stop-color="#001237"/>
</linearGradient>
<linearGradient id="paint4_linear_821_34268" x1="127.223" y1="104.143" x2="117.139" y2="104.582" gradientUnits="userSpaceOnUse">
<stop stop-color="#001237"/>
<stop offset="0.190429" stop-color="#03045E"/>
<stop offset="0.780728" stop-color="#03045E"/>
<stop offset="1" stop-color="#001237"/>
</linearGradient>
<linearGradient id="paint5_linear_821_34268" x1="140.558" y1="98.6187" x2="128.526" y2="99.9754" gradientUnits="userSpaceOnUse">
<stop stop-color="#001237"/>
<stop offset="0.190429" stop-color="#03045E"/>
<stop offset="0.780728" stop-color="#03045E"/>
<stop offset="1" stop-color="#001237"/>
</linearGradient>
<linearGradient id="paint6_linear_821_34268" x1="140.906" y1="104.86" x2="129.957" y2="107.786" gradientUnits="userSpaceOnUse">
<stop stop-color="#001237"/>
<stop offset="0.190429" stop-color="#03045E"/>
<stop offset="0.780728" stop-color="#03045E"/>
<stop offset="1" stop-color="#001237"/>
</linearGradient>
<linearGradient id="paint7_linear_821_34268" x1="141.098" y1="107.873" x2="130.149" y2="110.799" gradientUnits="userSpaceOnUse">
<stop stop-color="#001237"/>
<stop offset="0.190429" stop-color="#03045E"/>
<stop offset="0.780728" stop-color="#03045E"/>
<stop offset="1" stop-color="#001237"/>
</linearGradient>
<linearGradient id="paint8_linear_821_34268" x1="181.15" y1="99.5491" x2="150.658" y2="101.873" gradientUnits="userSpaceOnUse">
<stop stop-color="#001237"/>
<stop offset="0.190429" stop-color="#03045E"/>
<stop offset="0.780728" stop-color="#03045E"/>
<stop offset="1" stop-color="#001237"/>
</linearGradient>
<linearGradient id="paint9_linear_821_34268" x1="177.218" y1="103.233" x2="168.119" y2="103.614" gradientUnits="userSpaceOnUse">
<stop stop-color="#001237"/>
<stop offset="0.190429" stop-color="#03045E"/>
<stop offset="0.780728" stop-color="#03045E"/>
<stop offset="1" stop-color="#001237"/>
</linearGradient>
<linearGradient id="paint10_linear_821_34268" x1="177.364" y1="103.105" x2="167.822" y2="103.509" gradientUnits="userSpaceOnUse">
<stop stop-color="#001237"/>
<stop offset="0.190429" stop-color="#03045E"/>
<stop offset="0.780728" stop-color="#03045E"/>
<stop offset="1" stop-color="#001237"/>
</linearGradient>
<linearGradient id="paint11_linear_821_34268" x1="166.036" y1="98.3903" x2="154.059" y2="99.8626" gradientUnits="userSpaceOnUse">
<stop stop-color="#001237"/>
<stop offset="0.190429" stop-color="#03045E"/>
<stop offset="0.780728" stop-color="#03045E"/>
<stop offset="1" stop-color="#001237"/>
</linearGradient>
<linearGradient id="paint12_linear_821_34268" x1="165.787" y1="105.89" x2="153.81" y2="107.363" gradientUnits="userSpaceOnUse">
<stop stop-color="#001237"/>
<stop offset="0.190429" stop-color="#03045E"/>
<stop offset="0.780728" stop-color="#03045E"/>
<stop offset="1" stop-color="#001237"/>
</linearGradient>
<linearGradient id="paint13_linear_821_34268" x1="142.916" y1="114.652" x2="132.494" y2="114.994" gradientUnits="userSpaceOnUse">
<stop stop-color="#001237"/>
<stop offset="0.190429" stop-color="#03045E"/>
<stop offset="0.780728" stop-color="#03045E"/>
<stop offset="1" stop-color="#001237"/>
</linearGradient>
<linearGradient id="paint14_linear_821_34268" x1="134.239" y1="113.601" x2="132.058" y2="113.726" gradientUnits="userSpaceOnUse">
<stop stop-color="#001237"/>
<stop offset="0.190429" stop-color="#03045E"/>
<stop offset="0.780728" stop-color="#03045E"/>
<stop offset="1" stop-color="#001237"/>
</linearGradient>
<linearGradient id="paint15_linear_821_34268" x1="135.207" y1="113.027" x2="133.026" y2="113.152" gradientUnits="userSpaceOnUse">
<stop stop-color="#001237"/>
<stop offset="0.190429" stop-color="#03045E"/>
<stop offset="0.780728" stop-color="#03045E"/>
<stop offset="1" stop-color="#001237"/>
</linearGradient>
<linearGradient id="paint16_linear_821_34268" x1="136.531" y1="113.221" x2="133.846" y2="113.452" gradientUnits="userSpaceOnUse">
<stop stop-color="#001237"/>
<stop offset="0.190429" stop-color="#03045E"/>
<stop offset="0.780728" stop-color="#03045E"/>
<stop offset="1" stop-color="#001237"/>
</linearGradient>
<linearGradient id="paint17_linear_821_34268" x1="164.335" y1="122.404" x2="138.577" y2="124.569" gradientUnits="userSpaceOnUse">
<stop stop-color="#001237"/>
<stop offset="0.190429" stop-color="#03045E"/>
<stop offset="0.780728" stop-color="#03045E"/>
<stop offset="1" stop-color="#001237"/>
</linearGradient>
<linearGradient id="paint18_linear_821_34268" x1="158.599" y1="132.879" x2="131.817" y2="138.896" gradientUnits="userSpaceOnUse">
<stop stop-color="#001237"/>
<stop offset="0.190429" stop-color="#03045E"/>
<stop offset="0.780728" stop-color="#03045E"/>
<stop offset="1" stop-color="#001237"/>
</linearGradient>
<linearGradient id="paint19_linear_821_34268" x1="154.295" y1="125.736" x2="149.16" y2="125.997" gradientUnits="userSpaceOnUse">
<stop stop-color="#001237"/>
<stop offset="0.190429" stop-color="#03045E"/>
<stop offset="0.780728" stop-color="#03045E"/>
<stop offset="1" stop-color="#001237"/>
</linearGradient>
<linearGradient id="paint20_linear_821_34268" x1="168.351" y1="133.316" x2="119.945" y2="138.67" gradientUnits="userSpaceOnUse">
<stop stop-color="#001237"/>
<stop offset="0.190429" stop-color="#03045E"/>
<stop offset="0.780728" stop-color="#03045E"/>
<stop offset="1" stop-color="#001237"/>
</linearGradient>
<linearGradient id="paint21_linear_821_34268" x1="140.789" y1="136.695" x2="127.998" y2="137.441" gradientUnits="userSpaceOnUse">
<stop stop-color="#001237"/>
<stop offset="0.190429" stop-color="#03045E"/>
<stop offset="0.780728" stop-color="#03045E"/>
<stop offset="1" stop-color="#001237"/>
</linearGradient>
<linearGradient id="paint22_linear_821_34268" x1="158.974" y1="137.981" x2="145.741" y2="138.803" gradientUnits="userSpaceOnUse">
<stop stop-color="#001237"/>
<stop offset="0.190429" stop-color="#03045E"/>
<stop offset="0.780728" stop-color="#03045E"/>
<stop offset="1" stop-color="#001237"/>
</linearGradient>
<linearGradient id="paint23_linear_821_34268" x1="139.514" y1="149.535" x2="129.533" y2="154.001" gradientUnits="userSpaceOnUse">
<stop stop-color="#001237"/>
<stop offset="0.190429" stop-color="#03045E"/>
<stop offset="0.780728" stop-color="#03045E"/>
<stop offset="1" stop-color="#001237"/>
</linearGradient>
<linearGradient id="paint24_linear_821_34268" x1="158.386" y1="151.066" x2="149.492" y2="156.851" gradientUnits="userSpaceOnUse">
<stop stop-color="#001237"/>
<stop offset="0.190429" stop-color="#03045E"/>
<stop offset="0.780728" stop-color="#03045E"/>
<stop offset="1" stop-color="#001237"/>
</linearGradient>
<linearGradient id="paint25_linear_821_34268" x1="125.572" y1="139.109" x2="122.151" y2="139.299" gradientUnits="userSpaceOnUse">
<stop stop-color="#001237"/>
<stop offset="0.190429" stop-color="#03045E"/>
<stop offset="0.780728" stop-color="#03045E"/>
<stop offset="1" stop-color="#001237"/>
</linearGradient>
<linearGradient id="paint26_linear_821_34268" x1="165.02" y1="141.068" x2="161.686" y2="141.248" gradientUnits="userSpaceOnUse">
<stop stop-color="#001237"/>
<stop offset="0.190429" stop-color="#03045E"/>
<stop offset="0.780728" stop-color="#03045E"/>
<stop offset="1" stop-color="#001237"/>
</linearGradient>
<linearGradient id="paint27_linear_821_34268" x1="158.088" y1="108.944" x2="146.271" y2="109.675" gradientUnits="userSpaceOnUse">
<stop stop-color="#001237"/>
<stop offset="0.190429" stop-color="#03045E"/>
<stop offset="0.780728" stop-color="#03045E"/>
<stop offset="1" stop-color="#001237"/>
</linearGradient>
<linearGradient id="paint28_linear_821_34268" x1="160.383" y1="104.481" x2="145.65" y2="105.945" gradientUnits="userSpaceOnUse">
<stop stop-color="#001237"/>
<stop offset="0.190429" stop-color="#03045E"/>
<stop offset="0.780728" stop-color="#03045E"/>
<stop offset="1" stop-color="#001237"/>
</linearGradient>
<linearGradient id="paint29_linear_821_34268" x1="160.541" y1="104.416" x2="145.551" y2="105.891" gradientUnits="userSpaceOnUse">
<stop stop-color="#001237"/>
<stop offset="0.190429" stop-color="#03045E"/>
<stop offset="0.780728" stop-color="#03045E"/>
<stop offset="1" stop-color="#001237"/>
</linearGradient>
<linearGradient id="paint30_linear_821_34268" x1="150.482" y1="114.061" x2="148.939" y2="114.15" gradientUnits="userSpaceOnUse">
<stop stop-color="#001237"/>
<stop offset="0.190429" stop-color="#03045E"/>
<stop offset="0.780728" stop-color="#03045E"/>
<stop offset="1" stop-color="#001237"/>
</linearGradient>
<linearGradient id="paint31_linear_821_34268" x1="156.085" y1="109.13" x2="144.856" y2="110.563" gradientUnits="userSpaceOnUse">
<stop stop-color="#001237"/>
<stop offset="0.190429" stop-color="#03045E"/>
<stop offset="0.780728" stop-color="#03045E"/>
<stop offset="1" stop-color="#001237"/>
</linearGradient>
<linearGradient id="paint32_linear_821_34268" x1="154.982" y1="110.075" x2="144.738" y2="111.52" gradientUnits="userSpaceOnUse">
<stop stop-color="#001237"/>
<stop offset="0.190429" stop-color="#03045E"/>
<stop offset="0.780728" stop-color="#03045E"/>
<stop offset="1" stop-color="#001237"/>
</linearGradient>
<linearGradient id="paint33_linear_821_34268" x1="160.467" y1="108.206" x2="154.204" y2="108.751" gradientUnits="userSpaceOnUse">
<stop stop-color="#001237"/>
<stop offset="0.190429" stop-color="#03045E"/>
<stop offset="0.780728" stop-color="#03045E"/>
<stop offset="1" stop-color="#001237"/>
</linearGradient>
<linearGradient id="paint34_linear_821_34268" x1="153.278" y1="110.17" x2="147.972" y2="113.422" gradientUnits="userSpaceOnUse">
<stop stop-color="#001237"/>
<stop offset="0.190429" stop-color="#03045E"/>
<stop offset="0.780728" stop-color="#03045E"/>
<stop offset="1" stop-color="#001237"/>
</linearGradient>
<linearGradient id="paint35_linear_821_34268" x1="144.818" y1="123.431" x2="140.128" y2="123.582" gradientUnits="userSpaceOnUse">
<stop stop-color="#001237"/>
<stop offset="0.190429" stop-color="#03045E"/>
<stop offset="0.780728" stop-color="#03045E"/>
<stop offset="1" stop-color="#001237"/>
</linearGradient>
</defs>
</svg>
