<svg width="33" height="32" viewBox="0 0 33 32" fill="none" xmlns="http://www.w3.org/2000/svg">
<g clip-path="url(#clip0_237_3266)">
<path d="M19.675 2.68598C18.621 -0.894023 13.545 -0.894023 12.491 2.68598L12.303 3.32398C12.2294 3.57388 12.1008 3.80415 11.9266 3.99789C11.7525 4.19164 11.5371 4.34396 11.2965 4.44368C11.0558 4.5434 10.7958 4.588 10.5357 4.57421C10.2755 4.56042 10.0218 4.48859 9.79298 4.36398L9.20898 4.04398C5.92898 2.25998 2.34298 5.84798 4.12898 9.12598L4.44698 9.70998C4.57159 9.93876 4.64343 10.1925 4.65722 10.4527C4.67101 10.7128 4.62641 10.9728 4.52669 11.2135C4.42697 11.4541 4.27465 11.6694 4.0809 11.8436C3.88715 12.0178 3.65689 12.1464 3.40698 12.22L2.76898 12.408C-0.811015 13.462 -0.811015 18.538 2.76898 19.592L3.40698 19.78C3.65689 19.8536 3.88715 19.9822 4.0809 20.1563C4.27465 20.3305 4.42697 20.5458 4.52669 20.7865C4.62641 21.0272 4.67101 21.2871 4.65722 21.5473C4.64343 21.8074 4.57159 22.0612 4.44698 22.29L4.12698 22.874C2.34298 26.154 5.92898 29.742 9.20898 27.954L9.79298 27.636C10.0218 27.5114 10.2755 27.4395 10.5357 27.4257C10.7958 27.4119 11.0558 27.4565 11.2965 27.5563C11.5371 27.656 11.7525 27.8083 11.9266 28.0021C12.1008 28.1958 12.2294 28.4261 12.303 28.676L12.491 29.314C13.545 32.894 18.621 32.894 19.675 29.314L19.863 28.676C19.9366 28.4261 20.0652 28.1958 20.2393 28.0021C20.4135 27.8083 20.6288 27.656 20.8695 27.5563C21.1102 27.4565 21.3701 27.4119 21.6303 27.4257C21.8904 27.4395 22.1442 27.5114 22.373 27.636L22.957 27.956C26.237 29.742 29.825 26.152 28.037 22.874L27.719 22.29C27.5944 22.0612 27.5225 21.8074 27.5087 21.5473C27.495 21.2871 27.5396 21.0272 27.6393 20.7865C27.739 20.5458 27.8913 20.3305 28.0851 20.1563C28.2788 19.9822 28.5091 19.8536 28.759 19.78L29.397 19.592C32.977 18.538 32.977 13.462 29.397 12.408L28.759 12.22C28.5091 12.1464 28.2788 12.0178 28.0851 11.8436C27.8913 11.6694 27.739 11.4541 27.6393 11.2135C27.5396 10.9728 27.495 10.7128 27.5087 10.4527C27.5225 10.1925 27.5944 9.93876 27.719 9.70998L28.039 9.12598C29.825 5.84598 26.235 2.25998 22.957 4.04598L22.373 4.36398C22.1442 4.48859 21.8904 4.56042 21.6303 4.57421C21.3701 4.588 21.1102 4.5434 20.8695 4.44368C20.6288 4.34396 20.4135 4.19164 20.2393 3.99789C20.0652 3.80415 19.9366 3.57388 19.863 3.32398L19.675 2.68598ZM14.409 3.25198C14.901 1.58198 17.265 1.58198 17.757 3.25198L17.945 3.88998C18.103 4.42615 18.3791 4.92015 18.7528 5.33577C19.1266 5.7514 19.5887 6.0781 20.1051 6.29194C20.6216 6.50577 21.1794 6.60131 21.7375 6.57156C22.2957 6.5418 22.8402 6.3875 23.331 6.11998L23.913 5.79998C25.441 4.96998 27.113 6.63998 26.281 8.16998L25.963 8.75397C25.6959 9.24483 25.5419 9.78923 25.5125 10.3473C25.4831 10.9053 25.5789 11.4629 25.7929 11.9791C26.0069 12.4954 26.3337 12.9572 26.7493 13.3307C27.165 13.7043 27.6589 13.9801 28.195 14.138L28.831 14.326C30.501 14.818 30.501 17.182 28.831 17.674L28.193 17.862C27.6568 18.02 27.1628 18.296 26.7472 18.6698C26.3316 19.0436 26.0049 19.5057 25.791 20.0221C25.5772 20.5386 25.4816 21.0964 25.5114 21.6545C25.5412 22.2127 25.6955 22.7572 25.963 23.248L26.283 23.83C27.113 25.358 25.443 27.03 23.913 26.198L23.331 25.88C22.84 25.6125 22.2955 25.4583 21.7372 25.4286C21.1789 25.399 20.621 25.4947 20.1045 25.7087C19.5881 25.9228 19.126 26.2497 18.7523 26.6656C18.3787 27.0814 18.1028 27.5756 17.945 28.112L17.757 28.748C17.265 30.418 14.901 30.418 14.409 28.748L14.221 28.11C14.0629 27.5741 13.7869 27.0803 13.4132 26.6649C13.0396 26.2495 12.5778 25.9229 12.0616 25.7091C11.5454 25.4953 10.9879 25.3997 10.4299 25.4293C9.87197 25.4588 9.32771 25.6128 8.83698 25.88L8.25298 26.2C6.72498 27.03 5.05298 25.36 5.88498 23.83L6.20298 23.248C6.47089 22.7571 6.62549 22.2125 6.65544 21.654C6.68539 21.0956 6.58993 20.5376 6.37607 20.0209C6.16221 19.5041 5.83537 19.0419 5.41954 18.6679C5.00371 18.294 4.50943 18.0179 3.97298 17.86L3.33498 17.672C1.66498 17.18 1.66498 14.816 3.33498 14.324L3.97298 14.136C4.5086 13.9778 5.00206 13.7019 5.41727 13.3284C5.83247 12.9548 6.15891 12.4932 6.37269 11.9773C6.58647 11.4613 6.68218 10.9041 6.65282 10.3464C6.62345 9.78871 6.46976 9.24462 6.20298 8.75397L5.88298 8.16998C5.05298 6.64198 6.72298 4.96998 8.25298 5.80198L8.83698 6.11998C9.32771 6.38713 9.87197 6.54112 10.4299 6.57068C10.9879 6.60024 11.5454 6.50462 12.0616 6.29081C12.5778 6.077 13.0396 5.75043 13.4132 5.33502C13.7869 4.9196 14.0629 4.42587 14.221 3.88998L14.409 3.25198Z" fill="url(#paint0_linear_237_3266)"/>
</g>
<path d="M15.8442 24.5395L15.8436 24.5395C13.8349 24.5372 11.8987 23.7889 10.4106 22.4397C8.9224 21.0905 7.9884 19.2367 7.78974 17.2379C7.59109 15.239 8.14195 13.2377 9.33545 11.622C10.529 10.0063 12.28 8.89152 14.249 8.49388C16.2179 8.09624 18.2644 8.44409 19.9913 9.46996C21.7183 10.4958 23.0027 12.1266 23.5953 14.0459C24.188 15.9651 24.0466 18.0361 23.1987 19.8571C22.3507 21.678 20.8567 23.1191 19.0063 23.9008L19.0058 23.901C18.0056 24.3242 16.9303 24.5414 15.8442 24.5395Z" stroke="url(#paint1_linear_237_3266)" stroke-width="2"/>
<path d="M12.7376 20.4134C12.6033 20.4128 12.4721 20.3726 12.3606 20.2977C12.249 20.2228 12.1621 20.1166 12.1108 19.9924C12.0594 19.8683 12.046 19.7317 12.072 19.5999C12.0981 19.4681 12.1625 19.347 12.2573 19.2517L18.7575 12.7515C18.8207 12.6884 18.8956 12.6384 18.9782 12.6043C19.0607 12.5702 19.1491 12.5527 19.2384 12.5527C19.3277 12.5528 19.4161 12.5705 19.4985 12.6047C19.581 12.6389 19.6559 12.6891 19.719 12.7522C19.7821 12.8154 19.8321 12.8904 19.8662 12.9729C19.9003 13.0555 19.9178 13.1439 19.9177 13.2332C19.9177 13.3224 19.9 13.4108 19.8658 13.4933C19.8316 13.5758 19.7814 13.6507 19.7182 13.7138L13.218 20.214C13.1551 20.2772 13.0802 20.3274 12.9978 20.3617C12.9153 20.3959 12.8269 20.4135 12.7376 20.4134Z" fill="#7148FF"/>
<path d="M13.3309 16.1383C13.1845 16.1385 13.042 16.0913 12.9246 16.0039L11.1587 14.6881C11.0739 14.6247 11.0052 14.5424 10.9578 14.4477C10.9104 14.3531 10.8857 14.2487 10.8857 14.1428C10.8857 14.037 10.9104 13.9326 10.9578 13.8379C11.0052 13.7432 11.0739 13.6609 11.1587 13.5975L12.9246 12.2817C12.9962 12.2284 13.0776 12.1896 13.1642 12.1677C13.2508 12.1458 13.3408 12.1412 13.4292 12.1541C13.5176 12.167 13.6025 12.1972 13.6793 12.2429C13.756 12.2887 13.8229 12.3491 13.8763 12.4207C13.9296 12.4923 13.9684 12.5737 13.9903 12.6603C14.0122 12.7469 14.0168 12.837 14.0039 12.9253C13.991 13.0137 13.9608 13.0987 13.9151 13.1754C13.8693 13.2521 13.8089 13.319 13.7373 13.3724L12.7025 14.1428L13.7373 14.9132C13.852 14.9986 13.9368 15.1179 13.9798 15.2542C14.0227 15.3905 14.0217 15.5369 13.9767 15.6726C13.9317 15.8082 13.845 15.9263 13.7291 16.0099C13.6132 16.0935 13.4739 16.1384 13.3309 16.1383Z" fill="#7148FF"/>
<path d="M18.3554 20.8847C18.2125 20.8848 18.0731 20.8399 17.9572 20.7563C17.8413 20.6726 17.7547 20.5546 17.7097 20.4189C17.6647 20.2833 17.6636 20.1369 17.7066 20.0006C17.7495 19.8642 17.8344 19.7449 17.949 19.6596L18.9823 18.8892L17.949 18.1188C17.8754 18.0663 17.8129 17.9996 17.7653 17.9227C17.7177 17.8458 17.6859 17.7602 17.6719 17.6708C17.6578 17.5815 17.6617 17.4902 17.6833 17.4024C17.705 17.3145 17.7439 17.2319 17.7979 17.1593C17.8519 17.0868 17.9198 17.0257 17.9977 16.9797C18.0756 16.9337 18.1619 16.9037 18.2515 16.8915C18.3411 16.8793 18.4323 16.8851 18.5196 16.9085C18.607 16.932 18.6888 16.9726 18.7602 17.0281L20.5277 18.3438C20.6124 18.4073 20.6812 18.4896 20.7286 18.5843C20.7759 18.6789 20.8006 18.7833 20.8006 18.8892C20.8006 18.995 20.7759 19.0994 20.7286 19.1941C20.6812 19.2887 20.6124 19.3711 20.5277 19.4345L18.7602 20.7503C18.6433 20.8375 18.5013 20.8846 18.3554 20.8847Z" fill="#7148FF"/>
<defs>
<linearGradient id="paint0_linear_237_3266" x1="16.083" y1="0.000976563" x2="16.083" y2="31.999" gradientUnits="userSpaceOnUse">
<stop stop-color="#2560F1"/>
<stop offset="0.4875" stop-color="#7944FF"/>
<stop offset="1" stop-color="#C623FF"/>
</linearGradient>
<linearGradient id="paint1_linear_237_3266" x1="15.853" y1="7.3335" x2="15.853" y2="25.5395" gradientUnits="userSpaceOnUse">
<stop stop-color="#6DC2FB"/>
<stop offset="0.471875" stop-color="#AEB8FF"/>
<stop offset="1" stop-color="#E0ACFF"/>
</linearGradient>
<clipPath id="clip0_237_3266">
<rect width="32" height="32" fill="white" transform="translate(0.0830078)"/>
</clipPath>
</defs>
</svg>
