<svg width="201" height="133" viewBox="0 0 201 133" fill="none" xmlns="http://www.w3.org/2000/svg">
<path d="M189.58 122.839C189.58 122.879 149.694 122.908 100.505 122.908C51.3166 122.908 11.4194 122.892 11.4194 122.839C11.4194 122.785 51.2951 122.77 100.505 122.77C149.715 122.77 189.58 122.801 189.58 122.839Z" fill="#263238"/>
<path d="M32.0773 18.8699L29.509 37.7979L53.3628 40.9863L55.931 22.0584L32.0773 18.8699Z" fill="#EBEBEB"/>
<path d="M55.9315 22.059L55.8136 22.0457L55.4759 22.0058L54.1788 21.8383L49.2931 21.2025L32.0661 18.9309L32.1358 18.8777C31.3747 24.5116 30.4983 30.9727 29.5737 37.8062L29.5147 37.7264L53.3667 40.9184L53.3024 40.969L55.1945 27.2434C55.425 25.5915 55.6072 24.2961 55.7305 23.4103C55.7912 22.9688 55.8395 22.6309 55.8752 22.3969C55.9074 22.1681 55.9288 22.0484 55.9288 22.0484C55.9288 22.0484 55.9288 22.1628 55.8886 22.3889L55.7627 23.4077C55.6447 24.2934 55.4759 25.5862 55.2588 27.2354C54.8166 30.5471 54.1868 35.2872 53.4203 41.0036V41.0594H53.3641L29.5121 37.8834H29.4424V37.8142L32.0179 18.8883V18.8271H32.0795L49.3387 21.1653L54.2136 21.8117L55.4947 21.9899L55.8216 22.0378L55.9315 22.059Z" fill="#263238"/>
<path d="M32.7393 20.1739L30.4944 36.7188L52.6722 39.6832L54.917 23.1384L32.7393 20.1739Z" fill="#263238"/>
<path d="M30.4929 36.7156L39.6344 27.4668L43.5606 34.5451L47.2804 31.5393L52.6699 39.6815L30.4929 36.7156Z" fill="#263238"/>
<path d="M46.6319 27.1325C46.5854 27.475 46.4376 27.7961 46.2073 28.0552C45.9769 28.3143 45.6744 28.4999 45.3378 28.5884C45.0012 28.6768 44.6458 28.6643 44.3164 28.5523C43.9871 28.4403 43.6985 28.234 43.4873 27.9593C43.2761 27.6846 43.1516 27.3539 43.1297 27.009C43.1078 26.6641 43.1894 26.3205 43.3642 26.0216C43.539 25.7228 43.7991 25.482 44.1117 25.3299C44.4243 25.1777 44.7753 25.121 45.1204 25.1668C45.3499 25.1969 45.5711 25.2717 45.7714 25.3869C45.9717 25.5021 46.1471 25.6554 46.2876 25.8381C46.428 26.0207 46.5307 26.2291 46.5898 26.4512C46.6489 26.6733 46.6632 26.9049 46.6319 27.1325Z" fill="#263238"/>
<g opacity="0.2">
<path d="M30.4929 36.7156L39.6344 27.4668L43.5606 34.5451L47.2804 31.5393L52.6699 39.6815L30.4929 36.7156Z" fill="black"/>
</g>
<g opacity="0.2">
<path d="M46.6319 27.1325C46.5854 27.475 46.4376 27.7961 46.2073 28.0552C45.9769 28.3143 45.6744 28.4999 45.3378 28.5884C45.0012 28.6768 44.6458 28.6643 44.3164 28.5523C43.9871 28.4403 43.6985 28.234 43.4873 27.9593C43.2761 27.6846 43.1516 27.3539 43.1297 27.009C43.1078 26.6641 43.1894 26.3205 43.3642 26.0216C43.539 25.7228 43.7991 25.482 44.1117 25.3299C44.4243 25.1777 44.7753 25.121 45.1204 25.1668C45.3499 25.1969 45.5711 25.2717 45.7714 25.3869C45.9717 25.5021 46.1471 25.6554 46.2876 25.8381C46.428 26.0207 46.5307 26.2291 46.5898 26.4512C46.6489 26.6733 46.6632 26.9049 46.6319 27.1325Z" fill="black"/>
</g>
<path d="M151.095 18.748H52.6296V82.737H151.095V18.748Z" fill="#FAFAFA"/>
<path d="M151.401 23.2488C151.401 23.2861 129.355 23.318 102.167 23.318C74.9783 23.318 52.9326 23.2861 52.9326 23.2488C52.9326 23.2116 74.9729 23.1797 102.167 23.1797C129.361 23.1797 151.401 23.2116 151.401 23.2488Z" fill="#263238"/>
<path d="M56.119 21.1609C56.119 21.2719 56.0858 21.3804 56.0237 21.4727C55.9616 21.565 55.8732 21.6369 55.7699 21.6794C55.6666 21.7219 55.5529 21.733 55.4432 21.7113C55.3335 21.6897 55.2327 21.6362 55.1537 21.5577C55.0746 21.4793 55.0207 21.3792 54.9989 21.2704C54.9771 21.1615 54.9883 21.0486 55.0311 20.9461C55.0739 20.8435 55.1464 20.7559 55.2394 20.6942C55.3323 20.6325 55.4417 20.5996 55.5535 20.5996C55.6279 20.5993 55.7016 20.6135 55.7703 20.6416C55.8391 20.6697 55.9016 20.711 55.9542 20.7632C56.0067 20.8154 56.0484 20.8774 56.0767 20.9457C56.105 21.0139 56.1193 21.0871 56.119 21.1609Z" fill="#263238"/>
<path d="M58.1559 21.1609C58.1559 21.2719 58.1227 21.3804 58.0606 21.4727C57.9984 21.565 57.9101 21.6369 57.8068 21.6794C57.7035 21.7219 57.5898 21.733 57.4801 21.7113C57.3704 21.6897 57.2696 21.6362 57.1905 21.5577C57.1114 21.4793 57.0576 21.3792 57.0358 21.2704C57.0139 21.1615 57.0251 21.0486 57.0679 20.9461C57.1107 20.8435 57.1832 20.7559 57.2762 20.6942C57.3692 20.6325 57.4785 20.5996 57.5904 20.5996C57.6647 20.5993 57.7384 20.6135 57.8072 20.6416C57.876 20.6697 57.9384 20.711 57.991 20.7632C58.0436 20.8154 58.0853 20.8774 58.1135 20.9457C58.1418 21.0139 58.1562 21.0871 58.1559 21.1609Z" fill="#263238"/>
<path d="M60.1981 21.1609C60.1981 21.272 60.1649 21.3806 60.1026 21.473C60.0404 21.5653 59.9519 21.6373 59.8484 21.6797C59.7449 21.7221 59.6311 21.733 59.5213 21.7111C59.4115 21.6893 59.3108 21.6356 59.2318 21.5568C59.1528 21.478 59.0992 21.3778 59.0777 21.2687C59.0562 21.1597 59.0677 21.0468 59.111 20.9442C59.1542 20.8417 59.2271 20.7543 59.3204 20.6929C59.4138 20.6316 59.5233 20.5991 59.6353 20.5996C59.7094 20.5996 59.7828 20.6142 59.8513 20.6424C59.9198 20.6706 59.9819 20.712 60.0342 20.7642C60.0865 20.8163 60.1279 20.8782 60.156 20.9463C60.1842 21.0144 60.1985 21.0873 60.1981 21.1609Z" fill="#263238"/>
<path d="M119.107 26.6396H85.5027V28.4804H119.107V26.6396Z" fill="#EBEBEB"/>
<path d="M145.886 78.1564C145.886 77.7388 145.867 60.3025 145.835 31.7288L145.886 31.7793L57.6012 31.7979L57.6736 31.7288C57.6736 48.1224 57.6736 63.827 57.6736 78.1564L57.6066 78.0899L145.899 78.1564L57.6066 78.2203H57.5422V78.1564C57.5422 63.827 57.5422 48.1224 57.5422 31.7288V31.6543H57.62L145.905 31.6703H145.958V31.7235C145.907 60.3025 145.888 77.7388 145.886 78.1564Z" fill="#263238"/>
<path d="M68.4633 78.0607C68.4231 78.0607 68.4231 67.6681 68.4633 54.8496C68.5035 42.031 68.5624 31.6357 68.5999 31.6357C68.6375 31.6357 68.6401 42.0284 68.5999 54.8496C68.5597 67.6708 68.5008 78.0607 68.4633 78.0607Z" fill="#263238"/>
<path d="M81.5604 78.0978C81.5228 78.0978 81.5228 67.7052 81.5604 54.8867C81.5979 42.0681 81.6595 31.6729 81.697 31.6729C81.7346 31.6729 81.7372 42.0655 81.697 54.8867C81.6568 67.7079 81.6006 78.0978 81.5604 78.0978Z" fill="#263238"/>
<path d="M94.6603 78.1376C94.6201 78.1376 94.6201 67.7423 94.6603 54.9238C94.7005 42.1052 94.7594 31.71 94.797 31.71C94.8345 31.71 94.8372 42.1026 94.797 54.9238C94.7568 67.745 94.6978 78.1376 94.6603 78.1376Z" fill="#263238"/>
<path d="M107.757 78.1747C107.72 78.1747 107.72 67.7794 107.757 54.9609C107.795 42.1423 107.857 31.7471 107.894 31.7471C107.932 31.7471 107.934 42.1397 107.894 54.9636C107.854 67.7874 107.798 78.1747 107.757 78.1747Z" fill="#263238"/>
<path d="M120.868 78.2043C120.828 78.2043 120.828 67.8117 120.868 54.9931C120.908 42.1746 120.967 31.7793 121.004 31.7793C121.042 31.7793 121.045 42.1693 121.004 54.9931C120.964 67.817 120.895 78.2043 120.868 78.2043Z" fill="#263238"/>
<path d="M133.954 78.2492C133.917 78.2492 133.917 67.8566 133.954 55.038C133.992 42.2195 134.054 31.8242 134.091 31.8242C134.129 31.8242 134.131 42.2142 134.091 55.038C134.051 67.8619 134 78.2492 133.954 78.2492Z" fill="#263238"/>
<path d="M145.886 42.9539C145.886 42.9912 126.145 43.0231 101.794 43.0231C77.4437 43.0231 57.6975 42.9912 57.6975 42.9539C57.6975 42.9167 77.4384 42.8848 101.794 42.8848C126.15 42.8848 145.886 42.914 145.886 42.9539Z" fill="#263238"/>
<path d="M145.886 54.8494C145.886 54.8867 126.145 54.9186 101.794 54.9186C77.4437 54.9186 57.6975 54.8867 57.6975 54.8494C57.6975 54.8122 77.4384 54.7803 101.794 54.7803C126.15 54.7803 145.886 54.8095 145.886 54.8494Z" fill="#263238"/>
<path d="M145.886 66.742C145.886 66.7819 126.145 66.8112 101.794 66.8112C77.4437 66.8112 57.6975 66.7819 57.6975 66.742C57.6975 66.7021 77.4384 66.6729 101.794 66.6729C126.15 66.6729 145.886 66.7048 145.886 66.742Z" fill="#263238"/>
<path d="M58.4802 67.8008C58.4802 67.8008 57.435 74.5359 58.523 78.7334L68.975 78.3557C68.975 78.3557 66.831 71.6551 68.1898 68.3062L58.4802 67.8008Z" fill="#EBEBEB"/>
<path d="M58.5229 67.5645C58.5229 67.5645 58.5926 75.8397 59.0161 78.3641L69.4681 77.872C69.4681 77.872 68.5488 69.7377 68.9026 67.5645H58.5229Z" fill="#263238"/>
<path d="M67.3322 71.0225C67.3322 71.0624 65.7644 71.1875 63.8267 71.3018C61.8891 71.4162 60.3186 71.4801 60.3159 71.4428C60.3132 71.4056 61.881 71.2806 63.8187 71.1635C65.7563 71.0465 67.3295 70.9933 67.3322 71.0225Z" fill="white"/>
<path d="M67.3348 72.7833C67.3348 72.8232 65.767 72.9483 63.8294 73.0626C61.8918 73.177 60.3213 73.2409 60.3186 73.2036C60.3159 73.1664 61.8837 73.0414 63.8214 72.9243C65.759 72.8073 67.3322 72.7461 67.3348 72.7833Z" fill="white"/>
<path d="M65.5581 74.5042C65.3674 74.5552 65.1713 74.5838 64.9739 74.5893C64.6148 74.6239 64.1136 74.6611 63.5615 74.6931C63.0095 74.725 62.511 74.7489 62.1492 74.7569C61.9528 74.7764 61.7548 74.772 61.5596 74.7436C61.7494 74.6927 61.9446 74.6642 62.1411 74.6585C62.5029 74.6266 63.0014 74.5893 63.5535 74.5547C64.1056 74.5202 64.6067 74.4989 64.9685 74.4909C65.1649 74.4734 65.3627 74.4779 65.5581 74.5042Z" fill="white"/>
<path d="M82.4046 32.8936C82.4046 32.8936 81.547 39.9027 82.635 44.1001L92.9075 43.5681C92.9075 43.5681 90.7635 36.7346 92.1035 33.3857L82.4046 32.8936Z" fill="#EBEBEB"/>
<path d="M82.4475 32.6465C82.4475 32.6465 82.5172 40.9217 82.9406 43.4461L93.3926 42.954C93.3926 42.954 92.4734 34.8197 92.8271 32.6465H82.4475Z" fill="#263238"/>
<path d="M91.2565 36.1232C91.2565 36.1605 89.6887 36.2855 87.7537 36.3892C85.8188 36.493 84.2429 36.5675 84.2402 36.5276C84.2376 36.4877 85.8054 36.3653 87.743 36.2616C89.6806 36.1578 91.2538 36.0833 91.2565 36.1232Z" fill="white"/>
<path d="M91.2592 37.8758C91.2592 37.913 89.694 38.038 87.7564 38.1418C85.8188 38.2455 84.2456 38.3227 84.2429 38.2828C84.2402 38.2429 85.808 38.1205 87.7484 38.0035C89.6887 37.8864 91.2565 37.8359 91.2592 37.8758Z" fill="white"/>
<path d="M89.4825 39.5967C89.2923 39.6457 89.0972 39.6734 88.9009 39.6792C88.5391 39.7137 88.0406 39.751 87.4885 39.7829C86.9364 39.8148 86.4353 39.8388 86.0735 39.8494C85.8771 39.8686 85.679 39.8633 85.4839 39.8334C85.6749 39.7843 85.8709 39.7566 86.0681 39.751C86.4272 39.7164 86.9284 39.6792 87.4805 39.6472C88.0326 39.6153 88.531 39.5914 88.8928 39.5807C89.0893 39.5613 89.2874 39.5667 89.4825 39.5967Z" fill="white"/>
<path d="M96.169 67.3379C96.169 67.3379 95.3248 75.0013 96.4102 79.1988L106.728 78.7493C106.728 78.7493 104.517 71.1896 105.876 67.8433L96.169 67.3379Z" fill="#EBEBEB"/>
<path d="M96.2119 67.0908C96.2119 67.0908 96.2816 75.3661 96.705 77.8904L107.157 77.3983C107.157 77.3983 106.238 69.264 106.592 67.0908H96.2119Z" fill="#263238"/>
<path d="M105.021 70.5672C105.021 70.6044 103.453 70.7294 101.518 70.8332C99.5834 70.9369 98.0076 71.0141 98.0049 70.9742C98.0022 70.9343 99.57 70.8119 101.508 70.6949C103.445 70.5778 105.018 70.5273 105.021 70.5672Z" fill="white"/>
<path d="M105.024 72.3201C105.024 72.3574 103.456 72.4824 101.521 72.5861C99.5861 72.6899 98.0103 72.7643 98.0076 72.7271C98.0049 72.6899 99.5727 72.5648 101.51 72.4478C103.448 72.3307 105.021 72.2802 105.024 72.3201Z" fill="white"/>
<path d="M103.247 74.041C103.056 74.0902 102.86 74.1179 102.663 74.1235C102.303 74.1581 101.805 74.1953 101.253 74.2272C100.701 74.2591 100.2 74.2831 99.8379 74.2937C99.6414 74.3114 99.4435 74.3061 99.2483 74.2778C99.4384 74.2287 99.6335 74.2011 99.8299 74.1953C100.192 74.1607 100.69 74.1235 101.242 74.0889C101.794 74.0543 102.295 74.0357 102.657 74.0251C102.854 74.0057 103.052 74.011 103.247 74.041Z" fill="white"/>
<path d="M135.576 44.0176C135.576 44.0176 134.504 50.5984 135.589 54.7932L146.065 54.5698C146.065 54.5698 143.921 47.8693 145.28 44.5203L135.576 44.0176Z" fill="#EBEBEB"/>
<path d="M135.608 43.7734C135.608 43.7734 135.678 52.046 136.101 54.5704L146.553 54.0809C146.553 54.0809 145.634 45.9467 145.988 43.7734H135.608Z" fill="#263238"/>
<path d="M144.425 47.2468C144.425 47.2867 142.86 47.4091 140.922 47.5128C138.985 47.6166 137.412 47.6911 137.409 47.6538C137.406 47.6166 138.974 47.4889 140.914 47.3878C142.855 47.2867 144.423 47.2096 144.425 47.2468Z" fill="white"/>
<path d="M144.428 48.9998C144.428 49.037 142.863 49.162 140.925 49.2658C138.987 49.3695 137.414 49.444 137.412 49.4067C137.409 49.3695 138.979 49.2418 140.917 49.1407C142.855 49.0397 144.425 48.9625 144.428 48.9998Z" fill="white"/>
<path d="M142.651 50.7209C142.461 50.7721 142.266 50.8007 142.069 50.806C141.708 50.838 141.209 50.8752 140.657 50.9098C140.105 50.9444 139.604 50.9656 139.242 50.9736C139.046 50.9955 138.848 50.9955 138.652 50.9736C138.843 50.9226 139.039 50.894 139.237 50.8885C139.596 50.8539 140.097 50.8167 140.649 50.7848C141.201 50.7528 141.7 50.7289 142.064 50.7209C142.259 50.6972 142.456 50.6972 142.651 50.7209Z" fill="white"/>
<path d="M109.033 56.0752C109.033 56.0752 107.961 62.656 109.046 66.8535L119.523 66.6301C119.523 66.6301 117.379 59.9295 118.737 56.5779L109.033 56.0752Z" fill="#EBEBEB"/>
<path d="M109.076 55.8311C109.076 55.8311 109.146 64.1063 109.569 66.6307L120.021 66.1386C120.021 66.1386 119.102 58.0043 119.456 55.8311H109.076Z" fill="#263238"/>
<path d="M117.882 59.3178C117.882 59.3577 116.317 59.4828 114.38 59.5971C112.442 59.7115 110.869 59.7754 110.866 59.7381C110.864 59.7009 112.431 59.5759 114.372 59.4588C116.312 59.3418 117.88 59.2673 117.882 59.3178Z" fill="white"/>
<path d="M117.885 61.0578C117.885 61.0977 116.32 61.2227 114.382 61.3371C112.445 61.4514 110.872 61.5153 110.869 61.478C110.866 61.4408 112.437 61.3158 114.374 61.1987C116.312 61.0817 117.882 61.0205 117.885 61.0578Z" fill="white"/>
<path d="M116.108 62.7759C115.918 62.8267 115.723 62.8553 115.527 62.861C115.165 62.8956 114.666 62.9328 114.114 62.9647C113.562 62.9967 113.061 63.0206 112.699 63.0286C112.503 63.0477 112.305 63.0432 112.11 63.0153C112.3 62.9643 112.496 62.9357 112.694 62.9301C113.053 62.8982 113.554 62.8583 114.106 62.8264C114.658 62.7945 115.157 62.7705 115.519 62.7626C115.715 62.7449 115.913 62.7493 116.108 62.7759Z" fill="white"/>
<path d="M133.196 46.4836L127.646 49.3191L124.96 48.9414L126.397 46.4144L132.252 44.3662L133.196 46.4836Z" fill="#EBEBEB"/>
<path d="M124.73 48.4202L126.091 46.247L132.105 44.0791L133.314 46.4385L127.482 48.7501L124.73 48.4202Z" fill="#455A64"/>
<path d="M131.43 45.4863C131.244 45.5931 131.048 45.6822 130.846 45.7523C130.481 45.9012 129.975 46.0981 129.412 46.3109L127.967 46.8429C127.6 46.9759 127.356 47.0557 127.372 47.0477C127.327 46.9918 128.241 46.6035 129.361 46.1779C130.481 45.7523 131.414 45.4384 131.43 45.4863Z" fill="white"/>
<path d="M130.489 46.5498C129.66 47.0302 128.753 47.365 127.809 47.5393C128.245 47.3428 128.693 47.1722 129.149 47.0286C129.586 46.8432 130.033 46.6833 130.489 46.5498Z" fill="white"/>
<path d="M58.5151 43.6396C58.5151 43.6396 57.5503 52.9071 58.8341 54.8489L68.5303 54.2637L68.0157 43.9695L58.5151 43.6396Z" fill="#E0E0E0"/>
<path d="M58.5151 43.6396C58.5151 43.6396 58.5821 51.7021 58.9975 54.1599L69.1815 53.6811C69.1815 53.6811 68.2864 45.757 68.6321 43.6396H58.5151Z" fill="#455A64"/>
<path d="M63.5319 44.781H63.5694H63.6793C63.8208 44.7754 63.9625 44.7825 64.1027 44.8023C64.3271 44.8334 64.5456 44.897 64.7513 44.9911C65.0225 45.1248 65.2626 45.3133 65.4561 45.5444C65.6898 45.8288 65.8564 46.1614 65.9439 46.518C66.0221 46.9367 65.9851 47.3686 65.8367 47.7682C65.7606 47.9848 65.6646 48.194 65.5499 48.3933C65.4293 48.5972 65.3201 48.8077 65.223 49.0237C65.0211 49.4808 64.8831 49.9632 64.8129 50.4574V50.492H64.7808L63.7758 50.508L62.7199 50.5239H62.6823V50.4867C62.638 49.9934 62.4704 49.5189 62.1946 49.1061C62.0713 48.8987 61.9266 48.7045 61.814 48.5076C61.6823 48.3219 61.5624 48.1283 61.4549 47.9278C61.2674 47.5456 61.2119 47.1128 61.2968 46.6962C61.3559 46.3378 61.4891 45.9955 61.6881 45.6907C61.8602 45.4444 62.0877 45.2413 62.3527 45.0975C62.5489 44.9898 62.759 44.9092 62.9771 44.8581C63.1137 44.8248 63.2525 44.8016 63.3925 44.789H63.5399H63.5024H63.3952C63.2566 44.8046 63.1195 44.8313 62.9852 44.8688C62.7704 44.9236 62.564 45.0068 62.3715 45.1161C62.116 45.2605 61.897 45.4606 61.7309 45.7013C61.5385 46.002 61.4107 46.3389 61.3557 46.6909C61.2771 47.0949 61.3336 47.5133 61.5165 47.8825C61.6236 48.0801 61.7426 48.2711 61.873 48.4544C61.9963 48.6486 62.141 48.8428 62.2562 49.0529C62.5417 49.4759 62.715 49.9636 62.7601 50.4707L62.7225 50.4335L63.7758 50.4149L64.7808 50.4016L64.7459 50.4335C64.8152 49.9313 64.956 49.4414 65.164 48.9785C65.2635 48.7609 65.3744 48.5487 65.4963 48.3427C65.6095 48.1478 65.7046 47.943 65.7804 47.7309C65.9274 47.3431 65.9663 46.9232 65.893 46.5153C65.8095 46.1666 65.6493 45.8405 65.424 45.5604C65.2367 45.3328 65.0041 45.1463 64.7406 45.0124C64.5395 44.9162 64.3256 44.849 64.1054 44.8129C63.9673 44.79 63.8274 44.7784 63.6873 44.7783H63.5399L63.5319 44.781Z" fill="white"/>
<path d="M64.0518 50.3963V50.3644V50.2713L63.9955 49.9095C63.95 49.5956 63.883 49.1408 63.8374 48.5795C63.8374 48.4359 63.816 48.2896 63.8106 48.1353C63.8052 47.981 63.7972 47.8187 63.8106 47.6512C63.814 47.477 63.8523 47.3052 63.9232 47.1458C64.0008 46.9744 64.1391 46.8372 64.3118 46.7601C64.4045 46.7225 64.5061 46.7123 64.6046 46.7307C64.703 46.7491 64.7939 46.7953 64.8665 46.8638C64.94 46.9336 64.9833 47.029 64.9871 47.1298C64.9839 47.235 64.9473 47.3364 64.8826 47.4197C64.817 47.5035 64.7326 47.5709 64.636 47.6166C64.54 47.6628 64.4382 47.696 64.3332 47.715C64.1226 47.7601 63.9081 47.785 63.6927 47.7895C63.476 47.7985 63.259 47.7887 63.0441 47.7602C62.9387 47.7435 62.836 47.7131 62.7386 47.6698C62.6378 47.6282 62.5466 47.5666 62.4706 47.4889C62.3976 47.4155 62.3465 47.3234 62.3232 47.2229C62.3008 47.1217 62.313 47.0159 62.358 46.9223C62.4022 46.8306 62.4784 46.7578 62.5724 46.7175C62.6179 46.6971 62.6673 46.6865 62.7172 46.6865C62.7671 46.6865 62.8164 46.6971 62.8619 46.7175C62.9488 46.7581 63.0236 46.8205 63.079 46.8984C63.1315 46.9794 63.1679 47.0697 63.1862 47.1644C63.2185 47.3346 63.2355 47.5073 63.2371 47.6804C63.2558 48.0129 63.2719 48.3241 63.288 48.6061C63.3148 49.1727 63.3389 49.6302 63.355 49.9361C63.355 50.093 63.355 50.2154 63.3711 50.3005V50.3963V50.4282C63.3705 50.4176 63.3705 50.4069 63.3711 50.3963V50.3005C63.3711 50.2154 63.3577 50.093 63.347 49.9361C63.3282 49.6196 63.3014 49.162 63.2692 48.6061C63.2532 48.3215 63.2371 48.0129 63.2183 47.6804C63.2136 47.5091 63.1957 47.3383 63.1647 47.1697C63.145 47.0834 63.1096 47.0013 63.0602 46.9276C63.0097 46.8525 62.9392 46.7926 62.8565 46.7547C62.8152 46.7343 62.77 46.7226 62.7239 46.7203C62.6778 46.718 62.6317 46.7252 62.5885 46.7414C62.5015 46.7789 62.4318 46.8472 62.3929 46.933C62.3495 47.0194 62.3372 47.118 62.358 47.2123C62.3786 47.3127 62.4279 47.405 62.5001 47.4783C62.6429 47.6251 62.8321 47.7189 63.0361 47.7443C63.2483 47.7728 63.4626 47.7826 63.6766 47.7735C63.891 47.7686 64.1044 47.7446 64.3144 47.7017C64.4162 47.6802 64.5151 47.6472 64.6092 47.6033C64.7015 47.5605 64.7823 47.4967 64.8451 47.4171C64.9041 47.3404 64.9378 47.2475 64.9416 47.1511C64.9435 47.1015 64.9348 47.0521 64.9158 47.0062C64.8968 46.9603 64.8681 46.919 64.8317 46.8851C64.7637 46.8199 64.678 46.7759 64.5852 46.7584C64.4923 46.741 64.3964 46.7508 64.3091 46.7867C64.1435 46.8606 64.011 46.9921 63.9366 47.1564C63.8665 47.3125 63.8274 47.4804 63.8213 47.6512C63.8213 47.8187 63.8213 47.9783 63.8213 48.1326C63.8213 48.2869 63.8213 48.4359 63.8454 48.5768C63.8883 49.1408 63.9526 49.5956 63.9928 49.9068C64.0143 50.0638 64.033 50.1728 64.0438 50.2686L64.0572 50.3644C64.056 50.3751 64.0542 50.3858 64.0518 50.3963Z" fill="white"/>
<path d="M62.7119 50.4499C62.7119 50.4499 62.7253 50.5749 62.7387 50.785C62.7521 50.9952 62.7682 51.317 62.7843 51.6602V51.6389L63.4704 52.4369L63.4355 52.4236L64.2395 52.3784L64.2047 52.3943L64.5986 51.9155L64.797 51.6788V51.708C64.797 51.2479 64.7782 50.8116 64.7675 50.4126L64.8104 50.4525L63.331 50.4685H62.9022C62.8487 50.4721 62.7949 50.4721 62.7414 50.4685C62.7886 50.464 62.8362 50.464 62.8834 50.4685L63.3015 50.4472L64.8077 50.3887H64.8506V50.4312C64.8506 50.8302 64.8747 51.2665 64.8881 51.7267V51.7453H64.8747C64.8104 51.8224 64.7434 51.9022 64.679 51.9847C64.5424 52.1469 64.411 52.3065 64.2824 52.4608L64.269 52.4768H64.2476L63.4436 52.514H63.4221V52.4981L62.7494 51.7001V51.6868C62.7494 51.3383 62.7494 51.0404 62.7494 50.7903C62.7119 50.5563 62.7119 50.4445 62.7119 50.4499Z" fill="white"/>
<path d="M64.7593 51.5883C64.7333 51.5801 64.7082 51.5694 64.6843 51.5564C64.6361 51.5351 64.5664 51.5058 64.4779 51.4766C64.2478 51.3983 64.0055 51.3614 63.7624 51.3675C63.5192 51.3752 63.2795 51.4266 63.0549 51.5191C62.9861 51.5463 62.919 51.5773 62.8539 51.6122L62.7815 51.6468C62.8019 51.629 62.8244 51.6138 62.8485 51.6016C62.911 51.5622 62.9764 51.5276 63.0441 51.4978C63.2707 51.398 63.5146 51.3428 63.7624 51.3356C64.0091 51.3294 64.2547 51.37 64.486 51.4553C64.5559 51.4807 64.624 51.5109 64.6897 51.5457C64.7146 51.5568 64.7381 51.5712 64.7593 51.5883Z" fill="white"/>
<path d="M64.7593 51.2741L64.6843 51.2422C64.6361 51.2209 64.5664 51.1917 64.4779 51.1598C64.2476 51.0825 64.0054 51.0465 63.7624 51.0534C63.5192 51.061 63.2795 51.1124 63.0549 51.205C62.9856 51.231 62.9184 51.2621 62.8539 51.2981C62.8311 51.3122 62.8068 51.3238 62.7815 51.3327C62.7815 51.3327 62.8029 51.314 62.8485 51.2874C62.9104 51.2471 62.9759 51.2124 63.0441 51.1837C63.5004 50.982 64.0184 50.9667 64.486 51.1411C64.5562 51.1659 64.6243 51.1962 64.6897 51.2316C64.7146 51.2427 64.7381 51.257 64.7593 51.2741Z" fill="white"/>
<path d="M64.7408 50.9734C64.7148 50.9652 64.6896 50.9545 64.6657 50.9414C64.6175 50.9202 64.5478 50.8909 64.4594 50.8616C64.2293 50.7834 63.987 50.7465 63.7438 50.7526C63.5007 50.7603 63.261 50.8116 63.0363 50.9042C62.9675 50.9313 62.9004 50.9624 62.8353 50.9973L62.7629 51.0345C62.7629 51.0345 62.7844 51.0133 62.8299 50.9867C62.8931 50.9484 62.9584 50.9137 63.0256 50.8829C63.4819 50.6812 63.9999 50.6659 64.4674 50.8404C64.5371 50.8663 64.6052 50.8965 64.6711 50.9308C64.6961 50.9419 64.7195 50.9562 64.7408 50.9734Z" fill="white"/>
<path d="M84.1305 65.7661C84.1439 65.7661 84.1305 65.8911 83.9992 66.0321C83.8353 66.2067 83.635 66.3437 83.4123 66.4338C83.1115 66.586 82.7725 66.648 82.4368 66.612C82.4368 66.5694 82.8682 66.5162 83.356 66.3061C83.564 66.2236 83.7569 66.1077 83.9268 65.9629C84.0555 65.8512 84.1091 65.7581 84.1305 65.7661Z" fill="#263238"/>
<path d="M151.401 82.7261C151.401 82.2766 151.38 57.7806 151.345 18.7371L151.401 18.793H52.9432L53.0129 18.7238C53.0129 41.4775 53.0129 63.1299 53.0129 82.7128L52.9486 82.6489L151.414 82.7128L52.9486 82.7766H52.8843V82.7261C52.8843 63.1432 52.8843 41.4961 52.8843 18.7371V18.668H52.962H151.42H151.473V18.7238C151.42 57.7833 151.401 82.2792 151.401 82.7261Z" fill="#263238"/>
<path d="M142.855 73.1287L140.92 69.8516L139.084 73.1287H113.031V86.6468H153.599V73.1287H142.855Z" fill="#263238"/>
<path d="M120.332 80.0048C120.691 79.8515 120.997 79.5968 121.211 79.2723C121.426 78.9479 121.539 78.568 121.538 78.18C121.544 77.6862 121.353 77.2101 121.006 76.8564C120.658 76.5027 120.184 76.3004 119.686 76.2941C119.189 76.2878 118.709 76.4778 118.352 76.8225C117.996 77.1672 117.792 77.6383 117.786 78.1322C117.775 78.5231 117.881 78.9085 118.09 79.2399C118.3 79.5712 118.603 79.8337 118.962 79.9942C116.076 80.4011 116.181 83.524 116.181 83.524L122.999 83.6118C122.999 83.6118 123.181 80.4597 120.332 80.0048Z" fill="#FAFAFA"/>
<path d="M148.97 77.1405C148.97 77.1804 143.793 77.2096 137.406 77.2096C131.02 77.2096 125.842 77.1804 125.842 77.1405C125.842 77.1006 131.02 77.0713 137.406 77.0713C143.793 77.0713 148.97 77.0979 148.97 77.1405Z" fill="#FAFAFA"/>
<path d="M148.97 79.1961C148.97 79.2334 143.793 79.2653 137.406 79.2653C131.02 79.2653 125.842 79.2334 125.842 79.1961C125.842 79.1589 131.02 79.127 137.406 79.127C143.793 79.127 148.97 79.1589 148.97 79.1961Z" fill="#FAFAFA"/>
<path d="M148.97 81.2576C148.97 81.2949 143.793 81.3268 137.406 81.3268C131.02 81.3268 125.842 81.2949 125.842 81.2576C125.842 81.2204 131.02 81.1885 137.406 81.1885C143.793 81.1885 148.97 81.2204 148.97 81.2576Z" fill="#FAFAFA"/>
<path d="M137.406 83.2977C137.406 83.3349 134.817 83.3668 131.625 83.3668C128.434 83.3668 125.842 83.3349 125.842 83.2977C125.842 83.2604 128.431 83.2285 131.625 83.2285C134.82 83.2285 137.406 83.2578 137.406 83.2977Z" fill="#FAFAFA"/>
<path d="M149.954 47.7977C149.71 47.5131 149.523 46.9997 149.67 46.6619C149.381 46.5103 149.356 46.2576 149.356 45.9357C149.372 45.6114 149.469 45.296 149.638 45.018C149.866 44.5463 150.228 44.1514 150.68 43.8822C150.909 43.7527 151.169 43.69 151.432 43.7013C151.695 43.7126 151.949 43.7975 152.165 43.9461C152.321 43.7633 152.511 43.6133 152.726 43.5051C152.941 43.3968 153.176 43.3325 153.416 43.3158C153.657 43.2992 153.898 43.3307 154.126 43.4083C154.354 43.4859 154.564 43.6082 154.743 43.7678C154.859 43.9021 154.991 44.021 155.137 44.1216C155.405 44.2626 155.711 44.2094 156.003 44.236C156.241 44.2579 156.472 44.3355 156.674 44.4624C156.877 44.5893 157.046 44.7621 157.169 44.9665C157.291 45.1709 157.364 45.4011 157.379 45.6385C157.395 45.8758 157.354 46.1135 157.26 46.3321C157.465 46.4737 157.634 46.66 157.755 46.8767C157.877 47.0934 157.946 47.3348 157.959 47.5823C157.979 48.0766 157.922 48.5709 157.79 49.0479C157.656 49.6411 157.506 50.2662 157.083 50.7051C156.79 51.0111 156.394 51.2003 155.971 51.2371C155.67 51.2576 155.37 51.2017 155.097 51.0746C154.825 50.9475 154.589 50.7535 154.414 50.5109" fill="#263238"/>
<path d="M156.282 57.9217L151.479 57.7036C151.452 57.1982 151.712 54.0674 151.712 54.0674C151.712 54.0674 149.895 53.8014 149.874 51.9846C149.852 50.1678 150.166 46.0448 150.166 46.0448C151.198 45.6053 152.331 45.4475 153.446 45.5878C154.56 45.7281 155.617 46.1614 156.507 46.8428L156.775 47.0477L156.282 57.9217Z" fill="#B78876"/>
<path d="M151.709 54.0407C152.548 54.0566 153.372 53.8242 154.076 53.373C154.076 53.373 153.516 54.6711 151.704 54.5089L151.709 54.0407Z" fill="#AA6550"/>
<path d="M156.549 48.9096C156.582 48.8963 157.798 48.5425 157.758 49.7741C157.718 51.0057 156.48 50.7131 156.48 50.6758C156.48 50.6386 156.549 48.9096 156.549 48.9096Z" fill="#B78876"/>
<path d="M156.874 50.2237C156.874 50.2237 156.895 50.237 156.93 50.2556C156.956 50.2667 156.984 50.2724 157.012 50.2724C157.04 50.2724 157.068 50.2667 157.094 50.2556C157.176 50.2083 157.245 50.14 157.292 50.0577C157.339 49.9754 157.363 49.8821 157.362 49.7875C157.37 49.6817 157.354 49.5755 157.316 49.4763C157.306 49.4372 157.286 49.4013 157.258 49.3717C157.231 49.342 157.196 49.3195 157.158 49.306C157.133 49.299 157.107 49.3007 157.083 49.3109C157.06 49.3211 157.041 49.3391 157.029 49.3619C157.011 49.3938 157.029 49.4204 157.011 49.4204C156.992 49.4204 156.986 49.3991 156.997 49.3486C157.005 49.3186 157.023 49.2921 157.048 49.2741C157.083 49.2493 157.126 49.2388 157.169 49.2449C157.219 49.2567 157.266 49.2813 157.305 49.3162C157.343 49.3511 157.372 49.3953 157.388 49.4444C157.438 49.5527 157.46 49.6714 157.453 49.7901C157.458 49.9017 157.428 50.0121 157.369 50.107C157.31 50.2019 157.223 50.2768 157.12 50.3221C157.087 50.3313 157.052 50.3326 157.018 50.3262C156.984 50.3197 156.952 50.3056 156.925 50.2849C156.877 50.253 156.871 50.2237 156.874 50.2237Z" fill="#AA6550"/>
<path d="M150.565 48.8696C150.565 48.937 150.591 49.002 150.637 49.0514C150.683 49.1008 150.747 49.1309 150.814 49.1356C150.848 49.1377 150.881 49.1334 150.912 49.1228C150.944 49.1122 150.973 49.0955 150.997 49.0738C151.022 49.052 151.043 49.0256 151.057 48.9961C151.072 48.9665 151.08 48.9344 151.082 48.9015C151.083 48.8341 151.057 48.7691 151.011 48.7197C150.964 48.6703 150.901 48.6402 150.833 48.6355C150.8 48.633 150.767 48.6371 150.735 48.6475C150.704 48.658 150.674 48.6746 150.649 48.6964C150.624 48.7183 150.604 48.7448 150.59 48.7745C150.575 48.8043 150.567 48.8366 150.565 48.8696Z" fill="#263238"/>
<path d="M150.509 48.5799C150.541 48.6145 150.737 48.4709 151.015 48.4709C151.294 48.4709 151.5 48.6092 151.53 48.5746C151.559 48.54 151.511 48.5001 151.423 48.4363C151.302 48.353 151.159 48.3084 151.013 48.3086C150.867 48.3095 150.726 48.355 150.608 48.4389C150.522 48.5054 150.493 48.564 150.509 48.5799Z" fill="#263238"/>
<path d="M153.296 48.9443C153.296 49.0117 153.321 49.0767 153.368 49.1261C153.414 49.1755 153.477 49.2056 153.545 49.2103C153.578 49.2128 153.611 49.2088 153.643 49.1985C153.674 49.1882 153.703 49.1718 153.728 49.1503C153.753 49.1287 153.773 49.1025 153.788 49.0731C153.803 49.0436 153.811 49.0116 153.813 48.9789C153.813 48.911 153.787 48.8457 153.74 48.7962C153.694 48.7468 153.629 48.7169 153.561 48.7129C153.528 48.71 153.495 48.7137 153.464 48.7239C153.432 48.7341 153.403 48.7505 153.379 48.7721C153.354 48.7938 153.334 48.8202 153.319 48.8498C153.305 48.8794 153.297 48.9115 153.296 48.9443Z" fill="#263238"/>
<path d="M153.251 48.6327C153.283 48.6646 153.481 48.521 153.76 48.521C154.038 48.521 154.242 48.6619 154.272 48.6274C154.301 48.5928 154.256 48.5502 154.164 48.4864C154.044 48.4038 153.901 48.3601 153.754 48.3614C153.609 48.3602 153.467 48.4059 153.35 48.4917C153.264 48.5555 153.234 48.6167 153.251 48.6327Z" fill="#263238"/>
<path d="M152.237 50.6864C152.09 50.6403 151.938 50.6126 151.784 50.6039C151.715 50.6039 151.648 50.5826 151.634 50.5348C151.629 50.4615 151.646 50.3883 151.683 50.3246C151.75 50.1544 151.819 49.9735 151.894 49.7926C152.091 49.3364 152.248 48.8649 152.366 48.3828C152.135 48.8226 151.938 49.2798 151.779 49.7501L151.578 50.2821C151.536 50.3641 151.523 50.4577 151.541 50.5481C151.551 50.5733 151.567 50.5959 151.587 50.6139C151.607 50.6319 151.632 50.6449 151.658 50.6518C151.698 50.663 151.738 50.6683 151.779 50.6678C151.93 50.6933 152.084 50.6995 152.237 50.6864Z" fill="#263238"/>
<path d="M153.06 50.878C153.015 50.878 153.015 51.1759 152.755 51.3887C152.495 51.6015 152.173 51.5696 152.17 51.6095C152.168 51.6494 152.243 51.668 152.38 51.6733C152.557 51.6739 152.729 51.6138 152.867 51.5031C152.999 51.3964 153.084 51.2427 153.103 51.0748C153.114 50.9498 153.082 50.8753 153.06 50.878Z" fill="#263238"/>
<path d="M153.178 47.5476C153.207 47.622 153.486 47.5848 153.813 47.6247C154.14 47.6646 154.405 47.7524 154.448 47.6859C154.491 47.6194 154.421 47.5821 154.314 47.5103C154.17 47.4168 154.004 47.3609 153.832 47.3481C153.664 47.3286 153.494 47.3486 153.336 47.4066C153.229 47.4518 153.167 47.5103 153.178 47.5476Z" fill="#263238"/>
<path d="M150.616 47.7786C150.667 47.8398 150.857 47.7786 151.09 47.7786C151.323 47.7786 151.516 47.8212 151.562 47.7547C151.607 47.6882 151.562 47.6589 151.465 47.6004C151.351 47.5272 151.216 47.491 151.08 47.4967C150.944 47.4986 150.813 47.5433 150.704 47.6244C150.616 47.6829 150.589 47.7467 150.616 47.7786Z" fill="#263238"/>
<path d="M156.871 46.9593C156.847 47.4913 156.965 48.0685 156.871 48.5845C156.855 48.6617 156.651 48.8718 156.635 48.949C156.528 49.4038 156.338 49.6007 156.065 49.1298C155.959 48.8428 155.887 48.5447 155.85 48.2414L155.52 46.5762C155.094 46.7958 154.62 46.9073 154.14 46.9008C153.901 46.8945 153.667 46.8277 153.46 46.7067C153.254 46.5857 153.082 46.4144 152.961 46.2092C152.847 46.3961 152.692 46.5552 152.508 46.6747C152.324 46.7942 152.115 46.8711 151.897 46.8997C151.679 46.9283 151.457 46.9079 151.248 46.8399C151.038 46.772 150.847 46.6582 150.688 46.5071C150.599 46.6291 150.468 46.7141 150.319 46.7456C150.171 46.777 150.016 46.7527 149.884 46.6773C149.756 46.5925 149.659 46.4695 149.606 46.326C149.553 46.1826 149.547 46.0262 149.59 45.8793C149.716 45.4404 150.19 45.201 150.632 45.0813C152.358 44.5759 154.266 44.9723 155.818 45.8793C156.05 46.0019 156.262 46.1599 156.445 46.3475C156.622 46.539 156.868 46.7651 156.877 47.0258" fill="#263238"/>
<path d="M160.02 64.2526L161.872 59.2438C161.486 57.9564 160.1 56.5626 158.173 56.1981C157.56 56.0811 156.965 55.8603 156.247 55.8311C155.59 56.346 154.78 56.6307 153.943 56.6408C153.107 56.6509 152.29 56.3858 151.621 55.8869L151.554 55.839C151.369 55.8603 151.122 55.8843 150.814 55.9215H150.753C149.983 56.017 149.252 56.3064 148.627 56.7621L138.961 62.489L133.284 58.2064L130.409 60.4435C130.409 60.4435 137.846 67.825 138.567 68.0006C139.068 68.1229 144.028 65.4337 147.035 63.7685C146.912 65.556 146.231 75.4911 146.272 76.8477H160.084V70.5834V68.8784L160.02 64.2526Z" fill="#455A64"/>
<path d="M154.636 70.1204C154.636 70.1204 161.363 73.065 162.006 73.2034C164.15 73.6689 166.104 71.892 165.79 70.2188C165.629 69.349 161.843 59.0176 161.843 59.0176L159.12 63.0422L160.476 68.2983L156.381 67.7796L154.636 70.1204Z" fill="#455A64"/>
<path d="M160.532 72.6868C160.499 72.6628 160.463 72.6431 160.425 72.6283L160.103 72.4713L158.895 71.9127L154.778 70.0507L154.805 70.1332L155.593 68.734C155.762 68.4361 155.928 68.1409 156.083 67.8616L156.024 67.8935L160.947 68.3723L162.411 68.5026L162.807 68.5319C162.853 68.5377 162.899 68.5377 162.944 68.5319C162.901 68.5186 162.856 68.5105 162.81 68.5079L162.416 68.4574L160.955 68.2898L156.035 67.7578H155.997L155.976 67.7924C155.821 68.0717 155.654 68.3643 155.486 68.6649C155.218 69.1437 154.95 69.6118 154.7 70.064L154.668 70.1226L154.727 70.1492L158.862 71.9766L160.084 72.5086L160.414 72.6442C160.451 72.6634 160.491 72.6777 160.532 72.6868Z" fill="#263238"/>
<path d="M156.097 67.5959L156.673 64.8109C156.673 64.8109 149.579 64.7205 149.657 64.8455C149.734 64.9705 150.407 71.2295 150.407 71.2295C150.407 71.2295 155.397 71.0433 155.212 71.0593L156.097 67.5959Z" fill="#263238"/>
<path d="M156.651 66.3272C156.518 66.3264 156.388 66.366 156.278 66.4406C156.167 66.5152 156.083 66.6213 156.035 66.7448C155.96 67.0019 155.814 67.2331 155.614 67.4124C155.306 67.58 154.773 67.713 154.491 67.5774C154.21 67.4417 153.09 66.4389 152.883 66.5506C152.677 66.6623 152.519 66.9124 152.714 67.1331C152.91 67.3539 153.947 68.0242 153.752 68.2477C153.556 68.4711 151.366 67.4896 151.031 67.5774C150.696 67.6651 150.495 67.8673 150.694 68.003C150.892 68.1386 152.377 68.6919 152.463 68.8887C152.463 68.8887 150.217 68.3035 150.134 68.4419C150.051 68.5802 149.909 68.8036 150.134 68.8887C150.359 68.9739 152.294 69.4713 152.463 69.5564C152.74 69.6708 153.03 69.7546 153.326 69.8064C153.632 69.8861 153.934 69.9811 154.231 70.0911C154.685 70.2479 155.181 70.2347 155.625 70.0538L155.853 69.9607C156.025 69.8917 156.171 69.7706 156.27 69.6144C156.37 69.4583 156.417 69.2751 156.405 69.0909L156.359 68.3301L156.606 67.705L156.651 66.3272Z" fill="#B78876"/>
<path d="M160.052 68.2639C160.012 68.2639 159.983 66.6679 159.983 64.6915C159.983 62.7151 160.012 61.1191 160.052 61.1191C160.093 61.1191 160.122 62.7151 160.122 64.6915C160.122 66.6679 160.09 68.2639 160.052 68.2639Z" fill="#263238"/>
<path d="M147.223 59.5254C147.233 59.6351 147.233 59.7455 147.223 59.8552C147.223 60.0946 147.207 60.3872 147.199 60.749C147.169 61.5018 147.121 62.5445 147.06 63.6936C146.998 64.8427 146.931 65.8855 146.88 66.6382C146.851 66.992 146.826 67.2899 146.808 67.5293C146.806 67.6398 146.791 67.7497 146.762 67.8565C146.752 67.7468 146.752 67.6364 146.762 67.5267C146.762 67.2873 146.778 66.9947 146.789 66.6329C146.816 65.8801 146.864 64.8374 146.928 63.6856C146.993 62.5339 147.054 61.4938 147.108 60.741C147.135 60.3872 147.159 60.0893 147.177 59.8499C147.179 59.7403 147.194 59.6313 147.223 59.5254Z" fill="#263238"/>
<path d="M159.918 61.119C159.918 61.1589 157.107 61.1881 153.636 61.1881C150.166 61.1881 147.352 61.1589 147.352 61.119C147.352 61.0791 150.166 61.0498 153.636 61.0498C157.107 61.0498 159.918 61.0817 159.918 61.119Z" fill="white"/>
<path d="M159.942 61.8153C159.942 61.8525 157.085 61.8844 153.564 61.8844C150.042 61.8844 147.183 61.8525 147.183 61.8153C147.183 61.778 150.04 61.7461 153.564 61.7461C157.088 61.7461 159.942 61.7754 159.942 61.8153Z" fill="white"/>
<path d="M160.05 62.7069C160.05 62.7468 157.236 62.776 153.765 62.776C150.294 62.776 147.48 62.7468 147.48 62.7069C147.48 62.667 150.294 62.6377 153.765 62.6377C157.236 62.6377 160.05 62.6696 160.05 62.7069Z" fill="white"/>
<path d="M159.139 68.2686C158.91 68.7872 158.651 69.2917 158.361 69.7794C158.114 70.2887 157.838 70.7834 157.533 71.2611C157.713 70.7219 157.949 70.203 158.238 69.7129C158.487 69.2021 158.789 68.7181 159.139 68.2686Z" fill="#263238"/>
<path d="M159.916 68.46C159.478 69.5195 158.899 70.5161 158.195 71.4232C158.447 70.9107 158.727 70.4125 159.034 69.9309C159.299 69.4243 159.594 68.9331 159.916 68.46Z" fill="#263238"/>
<path d="M134.804 59.4268C134.836 59.4587 134.212 60.0465 133.416 60.7381C132.948 61.1716 132.45 61.5716 131.926 61.9351C132.359 61.4674 132.825 61.0318 133.322 60.6317C133.721 60.2859 134.086 59.98 134.354 59.7619C134.492 59.6351 134.643 59.5227 134.804 59.4268Z" fill="#263238"/>
<path d="M135.463 59.9141C135.028 60.3911 134.558 60.8357 134.056 61.2441C133.657 61.5952 133.29 61.9091 133.019 62.1298C132.882 62.261 132.728 62.3737 132.561 62.465C132.674 62.3133 132.806 62.1758 132.952 62.0554C133.22 61.816 133.563 61.4914 133.965 61.1403C134.367 60.7892 134.734 60.478 135.005 60.2572C135.144 60.1257 135.298 60.0106 135.463 59.9141Z" fill="#263238"/>
<path d="M149.276 121.729V119.335L153.816 119.279L153.875 122.798L153.607 122.82C152.355 122.905 147.237 123.16 146.395 122.918C145.433 122.639 149.276 121.729 149.276 121.729Z" fill="#263238"/>
<g opacity="0.4">
<path d="M152.224 122.773C152.288 122.393 152.49 122.049 152.792 121.807C153.089 121.565 153.467 121.443 153.851 121.467L153.867 122.725L152.224 122.773Z" fill="black"/>
</g>
<g opacity="0.4">
<path d="M147.4 122.24C147.4 122.24 146.06 122.645 146.226 122.863C146.392 123.081 151.586 123.017 153.864 122.788V122.687L147.818 122.815C147.818 122.815 147.668 122.248 147.4 122.24Z" fill="black"/>
</g>
<path d="M153.926 122.685H153.848L153.623 122.701L152.8 122.746C152.103 122.78 151.141 122.812 150.077 122.828C149.013 122.844 148.048 122.828 147.352 122.828L146.526 122.804H147.352C148.048 122.804 149.011 122.804 150.075 122.804C151.139 122.804 152.101 122.762 152.797 122.738L153.623 122.711H153.848C153.873 122.699 153.899 122.69 153.926 122.685Z" fill="#263238"/>
<path d="M147.813 122.892C147.774 122.756 147.72 122.625 147.652 122.501C147.569 122.388 147.474 122.285 147.368 122.192C147.505 122.251 147.62 122.349 147.7 122.474C147.779 122.599 147.818 122.744 147.813 122.892Z" fill="#263238"/>
<path d="M149.142 122.195C149.142 122.195 149.064 122.126 148.997 122.022C148.93 121.919 148.885 121.831 148.898 121.823C148.911 121.815 148.976 121.892 149.043 121.993C149.11 122.094 149.155 122.187 149.142 122.195Z" fill="#263238"/>
<path d="M149.509 121.999C149.509 121.999 149.426 121.961 149.346 121.892C149.265 121.823 149.212 121.759 149.222 121.749C149.233 121.738 149.303 121.783 149.383 121.852C149.464 121.922 149.517 121.985 149.509 121.999Z" fill="#263238"/>
<path d="M149.734 121.562C149.659 121.589 149.579 121.6 149.499 121.594C149.418 121.603 149.337 121.596 149.26 121.572C149.335 121.544 149.416 121.532 149.496 121.538C149.576 121.527 149.658 121.535 149.734 121.562Z" fill="#263238"/>
<path d="M149.812 121.267C149.733 121.32 149.639 121.348 149.544 121.346C149.453 121.363 149.36 121.352 149.276 121.314C149.364 121.299 149.454 121.292 149.544 121.293C149.632 121.277 149.722 121.268 149.812 121.267Z" fill="#263238"/>
<path d="M148.984 121.804C148.887 121.821 148.788 121.821 148.692 121.804C148.586 121.793 148.482 121.771 148.381 121.74C148.318 121.724 148.258 121.701 148.201 121.671C148.184 121.661 148.168 121.648 148.156 121.633C148.144 121.617 148.134 121.6 148.129 121.58C148.124 121.559 148.126 121.537 148.133 121.517C148.141 121.497 148.154 121.479 148.172 121.466C148.243 121.43 148.322 121.41 148.401 121.408C148.481 121.406 148.561 121.422 148.634 121.455C148.707 121.487 148.771 121.535 148.823 121.596C148.875 121.656 148.912 121.727 148.933 121.804C148.938 121.829 148.938 121.856 148.933 121.881C148.901 121.793 148.855 121.71 148.796 121.636C148.729 121.561 148.642 121.507 148.544 121.479C148.488 121.461 148.428 121.454 148.369 121.459C148.309 121.464 148.251 121.481 148.199 121.509C148.153 121.543 148.172 121.596 148.223 121.626C148.276 121.654 148.331 121.676 148.389 121.692C148.487 121.726 148.587 121.751 148.689 121.767C148.871 121.796 148.984 121.793 148.984 121.804Z" fill="#263238"/>
<path d="M148.909 121.828C148.872 121.767 148.858 121.695 148.871 121.625C148.88 121.549 148.907 121.477 148.949 121.413C148.973 121.369 149.008 121.333 149.05 121.307C149.092 121.281 149.141 121.266 149.19 121.264C149.205 121.266 149.219 121.272 149.231 121.28C149.244 121.288 149.255 121.298 149.263 121.31C149.272 121.322 149.278 121.336 149.281 121.35C149.284 121.365 149.284 121.38 149.281 121.394C149.275 121.44 149.259 121.485 149.233 121.524C149.196 121.589 149.151 121.649 149.099 121.703C149.054 121.755 148.997 121.796 148.933 121.822C148.933 121.822 148.989 121.769 149.07 121.676C149.116 121.622 149.157 121.563 149.19 121.5C149.228 121.439 149.255 121.328 149.19 121.317C149.126 121.306 149.043 121.383 149 121.442C148.96 121.498 148.932 121.563 148.92 121.631C148.909 121.696 148.905 121.762 148.909 121.828Z" fill="#263238"/>
<path d="M153.832 121.453C153.832 121.453 153.701 121.453 153.497 121.469C153.23 121.504 152.978 121.61 152.768 121.778C152.562 121.949 152.406 122.172 152.318 122.424C152.254 122.618 152.248 122.749 152.237 122.749C152.233 122.719 152.233 122.688 152.237 122.658C152.246 122.575 152.262 122.493 152.286 122.414C152.364 122.148 152.521 121.911 152.736 121.735C152.953 121.562 153.217 121.457 153.494 121.432C153.577 121.422 153.661 121.422 153.744 121.432C153.774 121.435 153.804 121.442 153.832 121.453Z" fill="#263238"/>
<path d="M153.323 119.583C153.358 119.89 153.375 120.199 153.374 120.509C153.391 120.817 153.391 121.126 153.374 121.434C153.338 121.128 153.321 120.82 153.323 120.511C153.304 120.202 153.304 119.892 153.323 119.583Z" fill="#263238"/>
<path d="M151.64 122.341C151.423 122.394 151.201 122.419 150.978 122.416C150.755 122.428 150.532 122.413 150.313 122.371C150.313 122.355 150.611 122.371 150.978 122.371C151.345 122.371 151.637 122.325 151.64 122.341Z" fill="#263238"/>
<path d="M152.53 122.328C152.53 122.328 152.505 122.392 152.476 122.458C152.446 122.525 152.43 122.586 152.417 122.586C152.404 122.586 152.393 122.517 152.417 122.437C152.441 122.357 152.519 122.317 152.53 122.328Z" fill="#263238"/>
<path d="M152.859 121.91C152.859 121.91 152.843 121.969 152.795 122.017C152.747 122.065 152.704 122.094 152.693 122.083C152.682 122.073 152.709 122.025 152.757 121.977C152.806 121.929 152.848 121.9 152.859 121.91Z" fill="#263238"/>
<path d="M153.336 121.716C153.336 121.729 153.275 121.729 153.208 121.756C153.141 121.782 153.092 121.814 153.082 121.804C153.071 121.793 153.106 121.732 153.189 121.703C153.272 121.673 153.342 121.7 153.336 121.716Z" fill="#263238"/>
<path d="M153.677 121.62C153.677 121.637 153.659 121.658 153.621 121.674C153.583 121.69 153.548 121.69 153.542 121.674C153.537 121.658 153.561 121.637 153.599 121.62C153.637 121.604 153.672 121.607 153.677 121.62Z" fill="#263238"/>
<path d="M163.07 120.2L163.504 122.004C163.504 122.004 166.476 125.837 167.393 125.648C167.993 125.526 167.254 124.525 166.125 121.615L165.887 120.413L163.07 120.2Z" fill="#263238"/>
<path d="M167.513 125.084C167.475 125.147 167.421 125.199 167.355 125.233C167.262 125.274 167.16 125.288 167.059 125.274C166.958 125.261 166.863 125.22 166.784 125.156C166.263 124.722 165.769 124.258 165.305 123.765C164.769 123.19 164.295 122.64 163.965 122.233L163.587 121.749L163.483 121.616L163.445 121.57C163.445 121.57 163.445 121.589 163.475 121.621L163.568 121.759C163.654 121.879 163.777 122.049 163.936 122.257C164.355 122.794 164.802 123.31 165.276 123.802C165.742 124.298 166.242 124.761 166.774 125.188C166.873 125.256 166.988 125.298 167.109 125.31C167.202 125.317 167.295 125.297 167.377 125.252C167.428 125.225 167.471 125.186 167.503 125.137C167.509 125.12 167.513 125.102 167.513 125.084Z" fill="#263238"/>
<path d="M167.093 123.852C167.015 123.821 166.931 123.811 166.849 123.823C166.649 123.843 166.457 123.91 166.289 124.017C166.113 124.116 165.971 124.265 165.881 124.446C165.841 124.517 165.819 124.598 165.817 124.68C165.817 124.68 165.844 124.592 165.913 124.461C166.01 124.296 166.148 124.158 166.315 124.062C166.479 123.961 166.661 123.893 166.851 123.863C166.932 123.855 167.012 123.852 167.093 123.852Z" fill="#263238"/>
<path d="M164.284 122.954C164.299 122.926 164.311 122.896 164.319 122.866C164.346 122.785 164.365 122.702 164.378 122.618C164.421 122.338 164.372 122.05 164.239 121.799C164.11 121.544 163.899 121.34 163.638 121.219C163.561 121.183 163.479 121.158 163.394 121.145C163.363 121.139 163.332 121.139 163.301 121.145C163.411 121.175 163.518 121.214 163.622 121.262C163.868 121.387 164.067 121.586 164.19 121.831C164.32 122.076 164.372 122.354 164.34 122.629C164.311 122.823 164.268 122.951 164.284 122.954Z" fill="#263238"/>
<path d="M163.26 120.498C163.26 120.498 163.314 120.764 163.37 121.075C163.393 121.271 163.444 121.461 163.523 121.642C163.536 121.642 163.477 121.376 163.421 121.065C163.397 120.869 163.343 120.678 163.26 120.498Z" fill="#263238"/>
<path d="M166.176 121.87C166.052 121.834 165.92 121.834 165.795 121.87C165.668 121.889 165.548 121.944 165.452 122.03C165.452 122.046 165.608 121.966 165.809 121.921C166.01 121.876 166.176 121.886 166.176 121.87Z" fill="#263238"/>
<path d="M166.238 122.18C166.134 122.142 166.02 122.142 165.916 122.18C165.806 122.194 165.706 122.249 165.635 122.334C165.635 122.334 165.763 122.267 165.93 122.23C166.096 122.193 166.235 122.196 166.238 122.18Z" fill="#263238"/>
<path d="M166.476 122.567C166.374 122.514 166.255 122.499 166.143 122.525C166.03 122.55 165.93 122.614 165.86 122.706C165.952 122.65 166.051 122.606 166.155 122.575C166.261 122.561 166.369 122.558 166.476 122.567Z" fill="#263238"/>
<path d="M165.972 121.74C165.972 121.74 165.836 121.703 165.624 121.623C165.5 121.574 165.38 121.517 165.265 121.45C165.196 121.413 165.13 121.371 165.067 121.325C165.008 121.283 164.941 121.216 164.943 121.147C164.946 121.078 165.032 121.038 165.101 121.057C165.172 121.08 165.234 121.121 165.284 121.176C165.393 121.28 165.487 121.378 165.552 121.461C165.704 121.631 165.787 121.743 165.795 121.727C165.782 121.697 165.765 121.668 165.745 121.642C165.694 121.567 165.639 121.495 165.581 121.426C165.497 121.323 165.408 121.225 165.313 121.131C165.258 121.068 165.187 121.021 165.107 120.995C165.083 120.987 165.058 120.985 165.033 120.987C165.008 120.99 164.984 120.999 164.962 121.012C164.941 121.025 164.923 121.043 164.909 121.064C164.896 121.085 164.887 121.109 164.884 121.134C164.889 121.18 164.905 121.225 164.93 121.263C164.956 121.302 164.991 121.335 165.032 121.357C165.096 121.404 165.165 121.445 165.235 121.482C165.353 121.548 165.477 121.603 165.605 121.647C165.693 121.677 165.782 121.701 165.873 121.719C165.905 121.73 165.939 121.737 165.972 121.74Z" fill="#263238"/>
<path d="M165.817 121.703C165.817 121.703 165.836 121.575 165.871 121.373C165.89 121.256 165.925 121.142 165.972 121.033C166 120.97 166.037 120.912 166.082 120.86C166.128 120.809 166.198 120.764 166.251 120.796C166.305 120.828 166.315 120.91 166.307 120.977C166.297 121.045 166.277 121.111 166.248 121.174C166.201 121.283 166.135 121.383 166.055 121.472C165.919 121.623 165.809 121.695 165.817 121.703C165.845 121.692 165.872 121.677 165.895 121.658C165.962 121.61 166.025 121.557 166.082 121.498C166.169 121.409 166.24 121.307 166.294 121.195C166.326 121.128 166.348 121.056 166.358 120.982C166.369 120.94 166.368 120.896 166.353 120.854C166.339 120.813 166.313 120.777 166.278 120.751C166.236 120.734 166.19 120.733 166.148 120.747C166.105 120.76 166.069 120.788 166.045 120.825C165.996 120.882 165.956 120.945 165.927 121.014C165.879 121.127 165.847 121.246 165.833 121.368C165.833 121.472 165.817 121.557 165.814 121.613C165.812 121.668 165.812 121.703 165.817 121.703Z" fill="#263238"/>
<g opacity="0.4">
<path d="M163.504 122.004L163.295 121.137C163.295 121.137 164.021 121.272 164.212 121.812C164.322 122.108 164.371 122.423 164.354 122.738L165.935 124.43C165.935 124.43 166.334 123.661 167.053 123.845C167.053 123.845 167.618 125.082 167.589 125.39C167.559 125.699 167.208 125.656 167.079 125.606C166.556 125.304 166.079 124.929 165.662 124.494C164.901 123.7 164.18 122.869 163.504 122.004Z" fill="black"/>
</g>
<path d="M146.218 75.6611L148.381 121.078L154.323 121.219L153.854 81.8403L162.74 121.293L167.514 121.078L159.868 75.7542L146.218 75.6611Z" fill="#263238"/>
<path d="M152.398 76.2754C152.393 76.5257 152.411 76.7759 152.452 77.0228C152.5 77.4804 152.575 78.1135 152.669 78.813C152.7 79.1454 152.755 79.4751 152.832 79.7999C152.903 80.0734 153.055 80.3192 153.269 80.5048C153.412 80.6295 153.586 80.7148 153.773 80.7522C153.841 80.77 153.912 80.77 153.979 80.7522C153.727 80.7112 153.493 80.5952 153.308 80.4195C153.123 80.2438 152.997 80.0166 152.945 79.768C152.875 79.4467 152.824 79.1216 152.792 78.7944C152.698 78.0948 152.61 77.4644 152.524 77.0069C152.502 76.76 152.46 76.5154 152.398 76.2754Z" fill="#455A64"/>
<path d="M153.859 76.5437C153.843 76.5437 153.899 76.6289 153.859 76.7486C153.849 76.7802 153.833 76.8095 153.811 76.8347C153.789 76.8598 153.763 76.8803 153.733 76.8949C153.697 76.9076 153.658 76.9097 153.621 76.9007C153.584 76.8917 153.55 76.8721 153.524 76.8443C153.495 76.8202 153.474 76.7882 153.463 76.7522C153.453 76.7162 153.453 76.6779 153.465 76.6422C153.477 76.6115 153.496 76.5838 153.52 76.5608C153.544 76.5379 153.573 76.5203 153.604 76.5092C153.722 76.4666 153.8 76.5092 153.808 76.5092C153.816 76.5092 153.746 76.4028 153.58 76.4347C153.532 76.4441 153.487 76.4644 153.449 76.4939C153.41 76.5235 153.379 76.5615 153.358 76.6049C153.336 76.663 153.333 76.7261 153.347 76.7863C153.361 76.8465 153.393 76.9012 153.438 76.9436C153.484 76.986 153.541 77.0144 153.602 77.0251C153.663 77.0358 153.727 77.0285 153.784 77.0039C153.827 76.981 153.864 76.9483 153.892 76.9086C153.92 76.8689 153.938 76.8231 153.945 76.7752C153.969 76.6076 153.864 76.5304 153.859 76.5437Z" fill="#455A64"/>
<path d="M157.63 77.3285C157.721 77.1279 157.761 76.9079 157.745 76.6883C157.73 76.4687 157.66 76.2564 157.541 76.0703C157.506 76.0703 157.6 76.3523 157.622 76.6954C157.643 77.0385 157.584 77.3178 157.63 77.3285Z" fill="#455A64"/>
<path d="M156.78 77.244C156.889 77.042 156.933 76.8118 156.906 76.5843C156.918 76.3547 156.858 76.127 156.734 75.9326C156.737 76.1514 156.752 76.3699 156.78 76.587C156.766 76.8058 156.766 77.0252 156.78 77.244Z" fill="#455A64"/>
<path d="M149.474 77.1584C149.488 76.9322 149.482 76.7053 149.458 76.4801C149.477 76.2544 149.477 76.0275 149.458 75.8018C149.356 76.0135 149.315 76.2493 149.34 76.4827C149.32 76.716 149.366 76.9502 149.474 77.1584Z" fill="#455A64"/>
<path d="M148.553 77.076C148.587 77.0627 148.488 76.7621 148.477 76.3844C148.467 76.0067 148.542 75.6981 148.507 75.6875C148.379 75.8972 148.325 76.1435 148.354 76.3871C148.342 76.6321 148.412 76.8743 148.553 77.076Z" fill="#455A64"/>
<path d="M132.928 58.5204C132.928 58.5204 131.832 56.6797 131.574 56.4882C131.317 56.2967 129.012 55.5013 128.817 55.5652C128.621 55.629 125.869 56.145 126.182 56.4669C126.496 56.7888 128.434 56.4004 128.434 56.4004L128.702 56.5254C128.702 56.5254 127.035 56.818 126.686 57.0255C126.338 57.233 126.482 57.608 126.788 57.5575C127.094 57.507 128.541 57.2197 128.629 57.2755C128.718 57.3314 127.056 57.6905 126.879 57.8075C126.641 57.9512 126.611 58.3794 126.927 58.3528C127.107 58.3369 128.669 57.9086 128.669 57.9086C128.212 58.0866 127.765 58.289 127.329 58.5151C127.144 58.696 127.297 58.962 127.568 58.8981C127.753 58.8556 128.624 58.4247 128.87 58.3661C128.87 58.3661 129.104 58.4247 129.323 58.8981C129.543 59.3716 130.698 60.2734 130.698 60.2734L132.928 58.5204Z" fill="#B78876"/>
<path d="M126.182 56.4665C126.34 56.5453 126.513 56.5897 126.689 56.5969C126.879 56.6203 127.071 56.6256 127.262 56.6128C127.474 56.5862 127.705 56.549 127.949 56.5117L128.463 56.4266H128.431C128.822 56.576 129.224 56.6934 129.634 56.7777C129.261 56.589 128.872 56.4323 128.471 56.3096H128.458H128.442L127.93 56.3867L127.252 56.4958C127.067 56.5143 126.882 56.5188 126.697 56.5091C126.381 56.4905 126.188 56.4479 126.182 56.4665Z" fill="#AA6550"/>
<path d="M124.17 55.1582C124.17 55.1582 122.17 61.1778 121.49 62.3934L128.297 64.4576L129.535 63.6729C129.535 63.6729 131.189 58.8263 131.398 57.1984L124.17 55.1582Z" fill="#455A64"/>
<path d="M128.667 63.4492L128.308 64.4574L129.546 63.6727L128.667 63.4492Z" fill="#263238"/>
<path d="M129.559 59.2994C129.299 59.2417 129.045 59.1625 128.798 59.0627L126.978 58.4402L125.156 57.8471C124.899 57.7786 124.648 57.6897 124.406 57.5811C124.67 57.6166 124.931 57.6744 125.185 57.754C125.662 57.8816 126.316 58.0758 127.029 58.3126C127.742 58.5493 128.383 58.7887 128.841 58.9722C129.091 59.0576 129.331 59.1672 129.559 59.2994Z" fill="white"/>
<path d="M128.98 60.6483C128.727 60.6151 128.476 60.559 128.233 60.4807C127.777 60.3583 127.161 60.1748 126.464 59.9487C125.767 59.7226 125.164 59.5045 124.725 59.3342C124.481 59.2549 124.246 59.1524 124.022 59.0283C124.273 59.0776 124.519 59.1488 124.757 59.2411L126.507 59.8183L128.26 60.3849C128.507 60.4517 128.748 60.5398 128.98 60.6483Z" fill="white"/>
<path d="M128.292 61.8792C127.515 61.69 126.751 61.4582 126 61.185C125.237 60.9538 124.488 60.6785 123.757 60.3604C125.297 60.7796 126.811 61.2867 128.292 61.8792Z" fill="white"/>
<path d="M132.223 58.7171C132.129 58.7842 132.017 58.8203 131.901 58.8203C131.786 58.8203 131.673 58.7842 131.58 58.7171C131.379 58.6027 131.226 58.4245 131.044 58.2942C130.476 57.9111 129.664 58.0282 129.112 57.6052C129.037 57.5494 128.959 57.4536 128.999 57.3658C129.039 57.278 129.144 57.2754 129.235 57.2754L131.518 57.294" fill="#B78876"/>
<path d="M131.508 57.3043C131.427 57.2826 131.344 57.2728 131.261 57.275L130.588 57.2511L129.589 57.2298H129.299C129.183 57.2104 129.064 57.2372 128.967 57.3043C128.94 57.332 128.922 57.3672 128.916 57.4052C128.91 57.4433 128.915 57.4823 128.932 57.5171C128.958 57.5746 128.998 57.6243 129.05 57.6607C129.139 57.73 129.236 57.7872 129.34 57.8309C129.727 57.9644 130.124 58.0701 130.527 58.1475C130.694 58.1924 130.854 58.2614 131.001 58.3523C131.135 58.4401 131.248 58.5465 131.36 58.6343C131.445 58.7149 131.547 58.776 131.659 58.8133C131.771 58.8505 131.889 58.8629 132.006 58.8497C132.175 58.8151 132.229 58.722 132.223 58.722C132.154 58.7609 132.079 58.787 132.001 58.7992C131.893 58.8028 131.785 58.7838 131.685 58.7434C131.585 58.7031 131.494 58.6424 131.419 58.5651C131.303 58.4549 131.18 58.351 131.052 58.2539C130.9 58.1503 130.732 58.073 130.554 58.0251C130.158 57.9402 129.768 57.8328 129.385 57.7033C129.29 57.6632 129.2 57.6124 129.117 57.5516C129.042 57.4931 129.005 57.4133 129.045 57.3814C129.085 57.3495 129.187 57.3415 129.286 57.3442H129.575H130.575C130.859 57.3442 131.09 57.3442 131.248 57.3282C131.335 57.3319 131.423 57.3238 131.508 57.3043Z" fill="#AA6550"/>
<path d="M79.7782 47.8055C79.851 47.4157 79.8094 47.0134 79.6583 46.6465C79.5072 46.2795 79.253 45.9635 78.9259 45.736C78.5926 45.5183 78.2068 45.3927 77.8083 45.3721C77.4098 45.3516 77.013 45.4368 76.6587 45.6189C76.3093 45.8103 76.0126 46.0837 75.7944 46.4153C75.5762 46.7469 75.4433 47.1264 75.4071 47.5208C75.3321 48.4119 75.7367 49.2605 76.0825 50.0851C76.4282 50.9097 76.7283 51.8327 76.4416 52.6786C76.2057 53.3781 75.6135 53.8862 75.1016 54.4235C74.6098 54.8881 74.262 55.4824 74.0993 56.1366C73.976 56.7936 74.2225 57.557 74.8229 57.8682C74.967 57.9181 75.0967 58.0021 75.2007 58.113C75.3669 58.347 75.2007 58.6583 75.0801 58.911C74.9142 59.3071 74.8924 59.7482 75.0185 60.1585C75.2865 61.0523 76.2808 61.6242 77.2215 61.5709C77.6917 61.5252 78.145 61.3728 78.5464 61.1256C78.9479 60.8784 79.2868 60.543 79.537 60.1452C80.0298 59.3429 80.2981 58.4247 80.3142 57.4852C80.3271 56.5508 80.2742 55.6166 80.1561 54.6895C79.9363 52.3541 81.0351 49.9361 81.153 47.5927" fill="#263238"/>
<path d="M81.8899 61.7302C82.206 61.7541 82.5237 61.7144 82.824 61.6137C83.1243 61.5129 83.401 61.3531 83.6377 61.1438C83.8743 60.9345 84.066 60.6799 84.2013 60.3954C84.3367 60.1109 84.4128 59.8022 84.4252 59.4879C84.4735 58.2137 84.5163 56.9289 84.5163 56.9289C84.5163 56.9289 86.4593 56.7481 86.6014 54.8382C86.7434 52.9283 86.6764 48.5233 86.6764 48.5233C85.6121 47.9887 84.4232 47.7457 83.2327 47.8196C82.0421 47.8935 80.893 48.2815 79.9041 48.9436L80.0247 55.6628V59.2777C80.0381 60.4987 80.6679 61.6371 81.8899 61.7302Z" fill="#FFBE9D"/>
<path d="M84.688 52.5086C84.5463 52.3039 84.3313 52.1605 84.0868 52.1077C83.8423 52.0548 83.5868 52.0964 83.3721 52.224C83.1547 52.3738 82.998 52.5953 82.9298 52.8491C82.8616 53.1029 82.8863 53.3724 82.9996 53.6098C83.0993 53.7861 83.2345 53.9401 83.3968 54.0623C83.5591 54.1845 83.745 54.2722 83.9429 54.32C84.1224 54.3573 84.2813 54.4599 84.3884 54.6075C84.4955 54.7552 84.5431 54.9373 84.5218 55.118C84.4407 55.62 84.2047 56.0847 83.8465 56.448C83.2545 57.0493 82.4657 57.421 81.6221 57.4961C80.802 57.5918 79.864 57.4216 79.3869 56.7539C79.0385 56.2672 79.0144 55.6314 79.0037 55.0356L78.9126 50.8062C78.8801 50.2988 78.9125 49.7893 79.0091 49.29C79.1094 48.7871 79.3964 48.34 79.8131 48.0371C80.2821 47.7312 80.8851 47.7073 81.4077 47.5344C82.0723 47.3216 82.6378 46.8827 83.2622 46.5661C83.8867 46.2496 84.6505 46.0607 85.2749 46.372C85.7251 46.5954 86.0253 47.0423 86.4621 47.287C87.0839 47.6381 87.9308 47.553 88.2309 48.4654C88.3354 48.7807 88.3354 49.121 88.2309 49.4363C87.8075 50.6732 86.2665 51.1706 85.157 50.6359C85.1355 50.8461 85.3419 51.3116 85.1221 51.9659C85.0498 52.1787 85.0257 52.4979 84.6933 52.4979" fill="#263238"/>
<path d="M79.3495 56.5464C78.2623 55.5176 77.6217 54.1088 77.5636 52.619C77.5056 51.1291 78.0347 49.6755 79.0386 48.5664" fill="#263238"/>
<path d="M80.8126 57.1609C80.8126 57.1609 80.7804 57.1769 80.7134 57.1902C80.6165 57.2028 80.5182 57.2028 80.4213 57.1902C80.0617 57.137 79.7304 56.9656 79.4806 56.7034C79.1258 56.3093 78.8388 55.86 78.631 55.3734C78.3522 54.7961 78.1401 54.1893 77.9986 53.5646C77.8543 52.9387 77.7992 52.2958 77.8351 51.6547C77.8646 51.1318 77.9628 50.6149 78.1272 50.1173C78.2381 49.7823 78.3836 49.4596 78.5614 49.1543C78.6257 49.0453 78.6793 48.9655 78.7168 48.9123C78.7543 48.8591 78.7784 48.8325 78.7811 48.8351C78.5586 49.256 78.3722 49.6947 78.2237 50.1465C78.0731 50.6384 77.9831 51.1467 77.9557 51.6601C77.929 52.2855 77.9867 52.9118 78.1272 53.5221C78.2658 54.1374 78.4716 54.7359 78.7409 55.3069C78.9381 55.7815 79.2094 56.2223 79.5449 56.613C79.7769 56.8687 80.0847 57.0447 80.424 57.1157C80.552 57.1413 80.682 57.1565 80.8126 57.1609Z" fill="#455A64"/>
<path d="M78.8188 48.7578C78.8403 48.7578 78.9904 49.0238 79.2798 49.4654C79.6557 50.0287 80.0925 50.5496 80.5823 51.0188C81.0723 51.4845 81.6114 51.8965 82.1903 52.2477C82.6378 52.5137 82.9326 52.6547 82.9219 52.676C82.8457 52.6623 82.7717 52.6381 82.7022 52.6042C82.5102 52.5249 82.3224 52.4361 82.1394 52.3382C81.5338 52.0063 80.9744 51.5977 80.4751 51.1226C79.9759 50.6497 79.5424 50.113 79.186 49.5266C79.0767 49.3495 78.9773 49.1666 78.8885 48.9786C78.8546 48.9087 78.8311 48.8344 78.8188 48.7578Z" fill="#455A64"/>
<path d="M82.544 51.7369C82.3226 51.6661 82.113 51.563 81.9222 51.431C80.9626 50.8439 80.1563 50.04 79.5692 49.0849C79.438 48.8948 79.3351 48.687 79.2637 48.4678C79.4051 48.6474 79.5348 48.8358 79.6523 49.0317C80.273 49.9422 81.0614 50.7282 81.9758 51.3485C82.1724 51.4673 82.3621 51.597 82.544 51.7369Z" fill="#455A64"/>
<path d="M85.039 51.737C84.9492 51.742 84.859 51.7349 84.771 51.7157C84.5304 51.6841 84.2922 51.6361 84.0582 51.5721C82.4988 51.1453 81.121 50.2277 80.132 48.9573C79.983 48.7676 79.8477 48.5676 79.7273 48.3588C79.676 48.286 79.6354 48.2063 79.6067 48.1221C79.6281 48.1221 79.8238 48.4333 80.2097 48.8961C80.7161 49.4998 81.3062 50.0291 81.9624 50.4682C82.6196 50.9033 83.3362 51.2428 84.0903 51.4763C84.6692 51.6546 85.0444 51.7131 85.039 51.737Z" fill="#455A64"/>
<path d="M77.2323 59.6902C77.2323 59.6902 77.2698 59.6343 77.3154 59.5226C77.378 59.3574 77.3864 59.1768 77.3395 59.0065C77.2659 58.7367 77.1037 58.4989 76.8785 58.3309C76.6239 58.1208 76.2836 57.9558 75.9272 57.7218C75.7382 57.5989 75.5699 57.4472 75.4287 57.2722C75.2754 57.0735 75.1866 56.8332 75.1741 56.5833C75.1806 56.0412 75.3788 55.5187 75.7342 55.107C76.0692 54.6601 76.5007 54.2558 76.7526 53.7211C76.994 53.1594 77.0639 52.5397 76.9536 51.9389C76.8493 51.3312 76.6767 50.7369 76.439 50.1674C76.2173 49.6302 76.0311 49.0793 75.8816 48.5182C75.7583 47.9862 75.6726 47.4249 75.8628 46.9222C75.9542 46.6883 76.1197 46.4904 76.3345 46.3582C76.4357 46.299 76.548 46.2606 76.6645 46.2455C76.781 46.2305 76.8994 46.2389 77.0125 46.2705C77.3774 46.4058 77.6968 46.6398 77.9345 46.9461L78.4973 47.5872L78.851 47.9968C78.8929 48.0438 78.9314 48.0935 78.9663 48.1458C78.9663 48.1458 78.9154 48.1059 78.8296 48.0154L78.4571 47.6244L77.8782 46.9966C77.644 46.7104 77.3367 46.4918 76.9884 46.3636C76.8881 46.3375 76.7836 46.3315 76.6809 46.3462C76.5783 46.3608 76.4797 46.3956 76.3908 46.4487C76.1987 46.5717 76.0512 46.7526 75.97 46.9647C75.7985 47.4116 75.8816 47.9489 76.0075 48.4756C76.1589 49.0305 76.346 49.5751 76.5677 50.1062C76.8146 50.6834 76.9945 51.2867 77.1037 51.9043C77.2158 52.5327 77.1404 53.18 76.8866 53.7663C76.6186 54.3303 76.1764 54.7372 75.8468 55.1708C75.5113 55.5601 75.3219 56.0526 75.3108 56.5647C75.32 56.7925 75.3985 57.0123 75.5359 57.1951C75.6685 57.363 75.8267 57.5093 76.0049 57.6287C76.3306 57.8216 76.6455 58.0321 76.9482 58.2591C77.1814 58.4407 77.345 58.696 77.4119 58.9826C77.4545 59.1604 77.4376 59.3472 77.3636 59.5146C77.3339 59.5823 77.289 59.6423 77.2323 59.6902Z" fill="#455A64"/>
<path d="M72.703 121.219L74.0082 119.641L71.0602 117.191L69.1226 119.482L69.2968 119.644C70.0766 120.365 73.3168 123.256 73.9975 123.543C74.7479 123.863 72.703 121.219 72.703 121.219Z" fill="#263238"/>
<g opacity="0.5">
<path d="M70.216 120.346C70.3809 120.062 70.4344 119.728 70.3661 119.407C70.3013 119.087 70.1177 118.802 69.8516 118.609L69.144 119.434L70.216 120.346Z" fill="white"/>
</g>
<g opacity="0.4">
<path d="M73.6651 122.554C73.6651 122.554 74.3351 123.536 74.1047 123.589C73.8742 123.642 70.484 120.844 69.1091 119.482L69.1708 119.421L73.0836 122.717C73.0836 122.717 73.4856 122.419 73.6651 122.554Z" fill="white"/>
</g>
<path d="M69.1252 119.378C69.1252 119.378 69.1386 119.397 69.1708 119.426L69.3102 119.556L69.8301 120.024C70.2696 120.418 70.886 120.95 71.5801 121.527C72.2742 122.104 72.9201 122.607 73.3811 122.969L73.9385 123.392L74.0913 123.504L74.1449 123.541L74.0966 123.498L73.9492 123.379L73.3998 122.942C72.9389 122.575 72.3037 122.065 71.6096 121.49C70.9155 120.915 70.2964 120.386 69.8515 120L69.3155 119.543L69.1708 119.42L69.1252 119.378Z" fill="#263238"/>
<path d="M73.0461 122.761C73.1445 122.693 73.2496 122.635 73.3597 122.588C73.4761 122.558 73.5957 122.541 73.7161 122.538C73.5948 122.503 73.4657 122.506 73.346 122.546C73.2264 122.586 73.1218 122.661 73.0461 122.761Z" fill="#263238"/>
<path d="M72.5422 121.599C72.6067 121.6 72.6707 121.587 72.7298 121.561C72.829 121.529 72.9067 121.495 72.904 121.482C72.8395 121.48 72.7755 121.493 72.7164 121.519C72.628 121.561 72.5369 121.585 72.5422 121.599Z" fill="#263238"/>
<path d="M72.4082 121.275C72.4082 121.288 72.4806 121.296 72.569 121.291C72.6574 121.286 72.7325 121.275 72.7298 121.262C72.6783 121.243 72.6231 121.238 72.569 121.246C72.4779 121.248 72.4082 121.262 72.4082 121.275Z" fill="#263238"/>
<path d="M72.4885 120.87C72.4885 120.87 72.5421 120.947 72.6279 121.019C72.7136 121.091 72.786 121.141 72.7967 121.131C72.8074 121.12 72.7431 121.056 72.6574 120.984C72.609 120.936 72.5517 120.897 72.4885 120.87Z" fill="#263238"/>
<path d="M72.6011 120.633C72.6314 120.706 72.6763 120.771 72.733 120.825C72.7896 120.88 72.8569 120.922 72.9307 120.95C72.9307 120.937 72.853 120.878 72.7646 120.793C72.6761 120.708 72.6118 120.625 72.6011 120.633Z" fill="#263238"/>
<path d="M72.8584 121.427C72.9122 121.489 72.9766 121.541 73.0487 121.581C73.1249 121.63 73.2056 121.672 73.2898 121.706C73.3396 121.728 73.3918 121.744 73.4453 121.754C73.4787 121.759 73.5129 121.752 73.5418 121.735C73.556 121.723 73.5668 121.707 73.5729 121.689C73.579 121.671 73.5803 121.652 73.5766 121.634C73.5482 121.573 73.5066 121.519 73.4547 121.475C73.4028 121.432 73.3419 121.401 73.2764 121.383C73.2109 121.366 73.1423 121.364 73.0756 121.376C73.0089 121.388 72.9457 121.414 72.8905 121.453C72.8712 121.466 72.8548 121.482 72.8423 121.501C72.9108 121.459 72.986 121.428 73.0647 121.411C73.1498 121.397 73.2369 121.407 73.3167 121.44C73.4117 121.478 73.4877 121.551 73.5284 121.645C73.5418 121.69 73.4989 121.716 73.4507 121.708C73.4002 121.699 73.3508 121.685 73.3032 121.666C73.2211 121.634 73.1414 121.597 73.0647 121.554C72.9361 121.48 72.861 121.419 72.8584 121.427Z" fill="#263238"/>
<path d="M72.8961 121.474C72.8961 121.474 72.9657 121.456 73.0274 121.362C73.0651 121.309 73.0873 121.247 73.0917 121.182C73.0998 121.14 73.0969 121.098 73.0833 121.058C73.0696 121.019 73.0457 120.983 73.014 120.955C73.0029 120.949 72.9907 120.945 72.9781 120.944C72.9655 120.943 72.9527 120.944 72.9405 120.947C72.9283 120.951 72.917 120.956 72.907 120.964C72.8971 120.972 72.8888 120.982 72.8827 120.993C72.8619 121.027 72.8491 121.065 72.8451 121.104C72.8374 121.167 72.8374 121.231 72.8451 121.293C72.8469 121.351 72.8626 121.408 72.8907 121.458C72.8907 121.458 72.8907 121.394 72.8907 121.291C72.8887 121.231 72.8941 121.171 72.9068 121.112C72.9068 121.049 72.955 120.963 73.0113 120.995C73.0676 121.027 73.0703 121.118 73.0676 121.179C73.0641 121.238 73.0477 121.295 73.0193 121.346C72.9829 121.393 72.9416 121.436 72.8961 121.474Z" fill="#263238"/>
<path d="M69.8596 118.636C69.9345 118.695 70.0061 118.758 70.074 118.825C70.2342 118.987 70.3444 119.191 70.3919 119.414C70.4393 119.636 70.422 119.867 70.342 120.08C70.2804 120.242 70.2134 120.33 70.2214 120.346C70.2295 120.362 70.2429 120.327 70.2723 120.288C70.3112 120.229 70.3443 120.166 70.3715 120.101C70.4647 119.885 70.489 119.645 70.4411 119.415C70.3932 119.184 70.2754 118.974 70.1035 118.811C70.0527 118.762 69.997 118.719 69.9373 118.681C69.8864 118.636 69.8623 118.636 69.8596 118.636Z" fill="#263238"/>
<path d="M71.1941 117.657C71.005 117.842 70.8261 118.036 70.6581 118.24C70.4793 118.433 70.3128 118.637 70.1597 118.852C70.5266 118.474 70.8702 118.075 71.1888 117.657H71.1941Z" fill="#263238"/>
<path d="M70.8164 120.367C71.0555 120.658 71.3461 120.904 71.674 121.091C71.674 121.091 71.4784 120.931 71.2425 120.732C71.0067 120.532 70.8271 120.359 70.8164 120.367Z" fill="#263238"/>
<path d="M70.2374 119.886C70.224 119.886 70.2186 119.939 70.2026 120C70.1865 120.061 70.1623 120.109 70.1731 120.117C70.1838 120.125 70.2267 120.083 70.2454 120.013C70.2642 119.944 70.2508 119.886 70.2374 119.886Z" fill="#263238"/>
<path d="M70.2455 119.434C70.2321 119.434 70.2267 119.479 70.2294 119.537C70.2321 119.596 70.2509 119.636 70.2616 119.636C70.2723 119.636 70.283 119.588 70.2777 119.532C70.2723 119.476 70.2589 119.434 70.2455 119.434Z" fill="#263238"/>
<path d="M70.0364 119.053C70.0364 119.053 70.0685 119.096 70.1007 119.149C70.1329 119.202 70.1436 119.248 70.157 119.248C70.1704 119.248 70.1784 119.186 70.1409 119.125C70.1034 119.064 70.0417 119.04 70.0364 119.053Z" fill="#263238"/>
<path d="M69.8623 118.811C69.8623 118.811 69.8623 118.846 69.8623 118.876C69.8623 118.905 69.9001 118.927 69.9136 118.919C69.927 118.911 69.9136 118.884 69.9136 118.854C69.9136 118.825 69.8731 118.803 69.8623 118.811Z" fill="#263238"/>
<path d="M86.2959 121.873L86.2503 119.83L82.3965 119.891L82.4313 122.881H82.6698C83.7418 122.924 88.0861 123.019 88.7936 122.793C89.5923 122.554 86.2959 121.873 86.2959 121.873Z" fill="#263238"/>
<g opacity="0.5">
<path d="M83.8357 122.828C83.7714 122.51 83.5923 122.226 83.3319 122.03C83.0742 121.832 82.7509 121.737 82.426 121.764L82.4421 122.828H83.8357Z" fill="white"/>
</g>
<g opacity="0.4">
<path d="M87.904 122.262C87.904 122.262 89.0564 122.573 88.917 122.762C88.7776 122.951 84.3744 123.028 82.4314 122.881V122.794L87.5663 122.759C87.5663 122.759 87.6869 122.275 87.904 122.262Z" fill="white"/>
</g>
<path d="M82.3831 122.793H82.4501H82.6403L83.3425 122.814C83.9348 122.814 84.7522 122.83 85.6553 122.814C86.5585 122.798 87.3759 122.769 87.9682 122.74L88.6677 122.7L88.8579 122.687C88.8801 122.69 88.9027 122.69 88.9249 122.687H88.8579H88.6677L87.9682 122.71C87.3759 122.732 86.5585 122.756 85.6553 122.769C84.7522 122.782 83.9348 122.769 83.3425 122.769H82.3831V122.793Z" fill="#263238"/>
<path d="M87.5797 122.82C87.6073 122.703 87.6497 122.591 87.7056 122.485C87.7725 122.387 87.8508 122.298 87.9388 122.219C87.8243 122.271 87.7286 122.357 87.6645 122.465C87.6003 122.573 87.5707 122.698 87.5797 122.823V122.82Z" fill="#263238"/>
<path d="M86.4327 122.264C86.4327 122.264 86.4971 122.203 86.5507 122.115C86.6043 122.027 86.6418 121.95 86.6311 121.942C86.6203 121.934 86.5667 122.001 86.5131 122.091C86.4595 122.181 86.422 122.256 86.4327 122.264Z" fill="#263238"/>
<path d="M86.1192 122.094C86.1192 122.094 86.1862 122.062 86.2532 122.001C86.3202 121.939 86.3631 121.886 86.355 121.876C86.347 121.865 86.2853 121.908 86.221 121.969C86.1567 122.03 86.1085 122.094 86.1192 122.094Z" fill="#263238"/>
<path d="M85.9155 121.746C85.9797 121.769 86.0486 121.777 86.1165 121.77C86.1224 121.794 86.137 121.815 86.1575 121.829C86.1779 121.843 86.2029 121.849 86.2276 121.846C86.2523 121.843 86.2751 121.831 86.2917 121.813C86.3082 121.794 86.3173 121.77 86.3173 121.746C86.3173 121.721 86.3082 121.697 86.2917 121.679C86.2751 121.66 86.2523 121.648 86.2276 121.645C86.2029 121.642 86.1779 121.648 86.1575 121.663C86.137 121.677 86.1224 121.698 86.1165 121.722C86.0486 121.717 85.9804 121.725 85.9155 121.746Z" fill="#263238"/>
<path d="M85.843 121.492C85.9102 121.535 85.9886 121.556 86.0681 121.553C86.1467 121.566 86.2274 121.554 86.2986 121.519C86.2228 121.512 86.1466 121.512 86.0708 121.519C85.996 121.502 85.9197 121.493 85.843 121.492Z" fill="#263238"/>
<path d="M86.564 121.929C86.6456 121.942 86.7289 121.942 86.8105 121.929C86.9019 121.917 86.9918 121.896 87.0785 121.865C87.1315 121.851 87.182 121.83 87.2286 121.801C87.2578 121.784 87.2797 121.756 87.2902 121.724C87.2939 121.706 87.292 121.687 87.2848 121.67C87.2777 121.653 87.2656 121.638 87.25 121.628C87.155 121.583 87.0471 121.572 86.9449 121.597C86.8427 121.623 86.7525 121.682 86.6899 121.766C86.6538 121.817 86.6274 121.874 86.6122 121.934C86.6076 121.956 86.6076 121.979 86.6122 122.001C86.636 121.924 86.6732 121.852 86.7221 121.788C86.7763 121.722 86.8491 121.674 86.9311 121.649C86.9786 121.632 87.0292 121.624 87.0799 121.626C87.1306 121.628 87.1802 121.641 87.2259 121.663C87.2661 121.692 87.2527 121.737 87.2098 121.764C87.166 121.79 87.1192 121.81 87.0705 121.825C86.9875 121.855 86.9024 121.879 86.8159 121.897C86.6524 121.918 86.564 121.921 86.564 121.929Z" fill="#263238"/>
<path d="M86.623 121.939C86.6498 121.887 86.6582 121.827 86.6471 121.769C86.6397 121.704 86.6157 121.642 86.5774 121.588C86.5562 121.552 86.5261 121.522 86.4901 121.501C86.454 121.479 86.413 121.467 86.371 121.466C86.3455 121.472 86.3233 121.487 86.3092 121.509C86.2951 121.531 86.2904 121.557 86.296 121.583C86.3019 121.622 86.3166 121.659 86.3389 121.692C86.3721 121.746 86.4127 121.795 86.4595 121.838C86.5372 121.913 86.5988 121.939 86.6015 121.934C86.6042 121.929 86.5506 121.891 86.4809 121.814C86.4396 121.77 86.4044 121.721 86.3764 121.668C86.3415 121.617 86.3174 121.524 86.3764 121.514C86.4353 121.503 86.5024 121.567 86.5399 121.615C86.5755 121.662 86.6002 121.717 86.6122 121.774C86.6212 121.829 86.6248 121.884 86.623 121.939Z" fill="#263238"/>
<path d="M82.4474 121.745C82.4474 121.745 82.5573 121.732 82.7315 121.745C82.9607 121.768 83.1787 121.855 83.3596 121.996C83.5406 122.138 83.6769 122.328 83.7526 122.543C83.8142 122.706 83.8223 122.809 83.8303 122.809C83.8354 122.784 83.8354 122.758 83.8303 122.732C83.8219 122.662 83.8067 122.592 83.7848 122.525C83.7101 122.302 83.5713 122.106 83.3854 121.961C83.197 121.819 82.9704 121.736 82.7342 121.722C82.6638 121.714 82.5929 121.714 82.5225 121.722C82.4716 121.735 82.4448 121.743 82.4474 121.745Z" fill="#263238"/>
<path d="M82.812 120.146C82.791 120.412 82.7847 120.678 82.7932 120.944C82.7852 121.206 82.7932 121.468 82.8173 121.729C82.8397 121.468 82.8469 121.206 82.8388 120.944C82.8474 120.678 82.8384 120.412 82.812 120.146Z" fill="#263238"/>
<path d="M84.3154 122.447C84.5014 122.485 84.6912 122.502 84.8809 122.495C85.0702 122.502 85.2594 122.483 85.4437 122.44C85.4437 122.426 85.1891 122.44 84.8782 122.44C84.5674 122.44 84.3181 122.434 84.3154 122.447Z" fill="#263238"/>
<path d="M83.5596 122.458C83.5596 122.458 83.581 122.511 83.6078 122.567C83.6346 122.623 83.6507 122.673 83.6641 122.673C83.6775 122.673 83.6828 122.612 83.6507 122.548C83.6185 122.484 83.5676 122.447 83.5596 122.458Z" fill="#263238"/>
<path d="M83.2703 122.11C83.2703 122.11 83.2863 122.16 83.3265 122.197C83.3667 122.235 83.4069 122.264 83.4177 122.253C83.4284 122.243 83.4016 122.205 83.3614 122.166C83.3212 122.126 83.2783 122.094 83.2703 122.11Z" fill="#263238"/>
<path d="M82.8602 121.956C82.8602 121.956 82.9138 121.956 82.9728 121.988C83.0317 122.019 83.0692 122.035 83.08 122.027C83.0907 122.019 83.0558 121.966 82.9862 121.942C82.9165 121.918 82.8575 121.945 82.8602 121.956Z" fill="#263238"/>
<path d="M82.5681 121.884C82.5681 121.897 82.587 121.916 82.6194 121.929C82.6517 121.943 82.6814 121.929 82.6868 121.929C82.6922 121.929 82.6679 121.9 82.6356 121.886C82.6032 121.873 82.5735 121.873 82.5681 121.884Z" fill="#263238"/>
<path d="M80.7242 78.4701C80.7242 78.4701 79.4405 83.8593 79.805 84.926C80.1694 85.9926 82.5171 86.6097 82.5171 86.6097L82.4394 101.37L69.4333 117.33L74.2359 121.232C74.2359 121.232 88.314 105.246 89.5548 102.346C90.7956 99.4469 88.7508 78.2334 88.7508 78.2334L80.7242 78.4701Z" fill="#263238"/>
<path d="M87.3679 76.2807L88.0057 121.11L81.3888 121.142L77.1008 85.3539C76.4469 83.2259 75.7018 81.0048 75.8358 78.4672L76.7229 75.8896L87.3679 76.2807Z" fill="#263238"/>
<path d="M79.6951 83.127C79.7502 83.1673 79.8022 83.2117 79.8505 83.26C79.9443 83.3531 80.0863 83.4914 80.2579 83.6776C80.6063 84.05 81.094 84.6059 81.6756 85.3241V85.3401C81.7962 87.3484 82.0347 90.277 82.3215 93.5302C82.5493 96.1902 82.7851 98.6002 82.9298 100.486V100.505L82.9164 100.521L81.0753 102.968L80.5661 103.633L80.4294 103.806L80.3785 103.862C80.3785 103.862 80.3785 103.838 80.416 103.795L80.5393 103.614L81.027 102.931L82.8307 100.457V100.489C82.6565 98.6055 82.434 96.1822 82.1901 93.5409C81.9034 90.2877 81.6836 87.3564 81.5898 85.3454V85.372C81.019 84.6485 80.5419 84.0819 80.2069 83.7015C80.0408 83.51 79.9068 83.3664 79.8183 83.2679C79.7727 83.225 79.7314 83.1778 79.6951 83.127Z" fill="#455A64"/>
<path d="M86.9525 100.66C86.3817 100.422 85.7799 100.266 85.1649 100.197C84.5478 100.172 83.9301 100.231 83.3291 100.373C83.4866 100.275 83.6611 100.207 83.8437 100.173C84.7197 99.9493 85.646 100.022 86.4754 100.381C86.6513 100.442 86.8134 100.537 86.9525 100.66Z" fill="#455A64"/>
<path d="M89.2869 102.735C89.3163 102.758 87.4564 105.238 85.1302 108.273C82.8039 111.308 80.8931 113.75 80.8636 113.726C80.8341 113.702 82.6914 111.223 85.0203 108.188C87.3492 105.152 89.244 102.713 89.2869 102.735Z" fill="#455A64"/>
<path d="M88.976 79.6112C88.8992 79.8043 88.7703 79.9727 88.6035 80.0979C88.4121 80.2652 88.1878 80.3913 87.9448 80.4682C87.7018 80.5451 87.4454 80.5711 87.1918 80.5446C86.9381 80.5181 86.6928 80.4397 86.4713 80.3143C86.2497 80.1888 86.0568 80.0192 85.9047 79.816C85.7636 79.661 85.6705 79.4689 85.6367 79.2627C85.7406 79.4324 85.8533 79.5967 85.9744 79.7548C86.281 80.1219 86.7203 80.3553 87.1981 80.4051C87.676 80.4548 88.1544 80.3168 88.5311 80.0208C88.8206 79.8 88.9412 79.5952 88.976 79.6112Z" fill="#455A64"/>
<path d="M74.7077 66.6542C74.7077 66.6542 73.7027 73.9479 74.7077 74.8709C75.7127 75.794 76.6748 75.4907 76.6748 75.4907L78.5856 73.8947L78.9608 66.6436L74.7077 66.6542Z" fill="#FFBE9D"/>
<path d="M75.6348 60.7275C75.6348 60.7275 74.1984 62.3395 73.9009 68.5027C73.9009 68.5027 77.9932 69.2741 78.0683 69.0507C78.1433 68.8272 75.6348 60.7275 75.6348 60.7275Z" fill="#263238"/>
<path d="M75.8252 78.4697L88.8634 78.6799L88.6624 76.7327C88.6624 76.7327 87.2259 69.3193 87.2366 69.2236L87.4618 68.7501C87.7631 68.1743 87.9296 67.5385 87.9486 66.8899C87.9676 66.2414 87.8388 65.597 87.5716 65.0048H93.9018L93.6338 59.9082L86.9901 58.9373L84.5191 58.7432C84.5191 58.7432 80.1641 58.9693 80.0703 58.9799C78.2479 59.198 76.128 59.3363 75.3535 61.2728C74.9381 62.3076 75.3321 63.861 76.0074 65.465L77.6154 70.3833C78.2586 73.0885 77.2322 72.9609 76.6694 75.682C76.589 76.0917 75.8172 78.0893 75.8252 78.4697Z" fill="#263238"/>
<path d="M92.8833 60.1373C92.8833 60.1745 89.1662 60.2064 84.5753 60.2064C79.9845 60.2064 76.2673 60.1745 76.2673 60.1373C76.2673 60.1 79.9818 60.0654 84.5753 60.0654C89.1689 60.0654 92.8833 60.0974 92.8833 60.1373Z" fill="#FAFAFA"/>
<path d="M93.264 62.5838C93.264 62.6237 89.1315 62.653 84.0314 62.653C78.9314 62.653 74.7988 62.6237 74.7988 62.5838C74.7988 62.5439 78.9314 62.5146 84.0314 62.5146C89.1315 62.5146 93.264 62.5466 93.264 62.5838Z" fill="#FAFAFA"/>
<path d="M75.8252 65.3718C75.3166 65.4638 74.7954 65.4638 74.2869 65.3718C74.7954 65.2797 75.3166 65.2797 75.8252 65.3718Z" fill="#FAFAFA"/>
<path d="M87.904 65.4569C87.904 65.4941 85.1998 65.526 81.8659 65.526C78.532 65.526 75.8252 65.4941 75.8252 65.4569C75.8252 65.4196 78.5293 65.3877 81.8659 65.3877C85.2025 65.3877 87.904 65.4196 87.904 65.4569Z" fill="#FAFAFA"/>
<path d="M87.636 68.3299C87.636 68.3671 85.2079 68.3991 82.2144 68.3991C79.2208 68.3991 76.7954 68.3671 76.7954 68.3299C76.7954 68.2927 79.2208 68.2607 82.2144 68.2607C85.2079 68.2607 87.636 68.29 87.636 68.3299Z" fill="#FAFAFA"/>
<path d="M87.5583 70.9901C87.5583 71.0273 85.358 71.0592 82.6458 71.0592C79.9337 71.0592 77.7334 71.0273 77.7334 70.9901C77.7334 70.9528 79.9337 70.9209 82.6458 70.9209C85.358 70.9209 87.5583 70.9528 87.5583 70.9901Z" fill="#FAFAFA"/>
<path d="M87.9897 73.1502C87.9897 73.1875 85.6367 73.2194 82.7342 73.2194C79.8318 73.2194 77.4788 73.1875 77.4788 73.1502C77.4788 73.113 79.8318 73.0811 82.7342 73.0811C85.6367 73.0811 87.9897 73.105 87.9897 73.1502Z" fill="#FAFAFA"/>
<path d="M88.6706 75.8895C88.6706 75.9267 85.9906 75.9586 82.6915 75.9586C79.3924 75.9586 76.7124 75.9267 76.7124 75.8895C76.7124 75.8522 79.3924 75.8203 82.6915 75.8203C85.9906 75.8203 88.6706 75.8496 88.6706 75.8895Z" fill="#FAFAFA"/>
<path d="M77.5457 70.1515C77.4988 70.0749 77.4619 69.9926 77.4358 69.9068C77.3608 69.7153 77.275 69.4892 77.1678 69.2258C76.9481 68.6486 76.6318 67.8559 76.3129 66.9728C75.994 66.0897 75.7206 65.2784 75.5518 64.6825C75.466 64.3873 75.4044 64.1505 75.3669 63.975C75.3424 63.8882 75.328 63.799 75.324 63.709C75.4476 64.0189 75.555 64.335 75.6456 64.6559C75.8385 65.2385 76.1199 66.0418 76.4496 66.9249C76.7792 67.808 77.0687 68.606 77.267 69.1912C77.3661 69.4838 77.4412 69.7232 77.4894 69.8882C77.5217 69.9725 77.5407 70.0614 77.5457 70.1515Z" fill="#263238"/>
<g opacity="0.2">
<path d="M78.4944 75.0116C79.7148 74.5525 80.8579 73.9122 81.8846 73.1124C82.9152 72.3043 83.6589 71.1906 84.0072 69.9337C84.0634 69.6969 84.0715 69.3857 83.8544 69.2713C83.7719 69.2384 83.6811 69.2323 83.5949 69.2538C83.5088 69.2753 83.4317 69.3233 83.3747 69.391C83.2616 69.5285 83.1711 69.6829 83.1067 69.8485C82.8528 70.3956 82.4534 70.8637 81.9516 71.2025C81.3781 71.5882 80.7 71.7824 80.0568 72.0351C79.4136 72.2878 78.7651 72.6256 78.3792 73.1948C77.9932 73.7641 77.9584 74.6206 78.4676 75.0834" fill="black"/>
</g>
<path d="M84.42 67.6543C84.42 67.6543 84.42 67.6915 84.42 67.758C84.42 67.8245 84.42 67.9283 84.42 68.0586C84.3948 68.4248 84.341 68.7886 84.2592 69.1466C83.9901 70.3366 83.4418 71.4468 82.659 72.3869C81.8762 73.327 80.8809 74.0705 79.7541 74.557C79.4157 74.7044 79.0663 74.8254 78.7089 74.9188C78.5829 74.9533 78.4838 74.972 78.4168 74.9853C78.3827 74.9943 78.3475 74.9988 78.3123 74.9986C78.4351 74.9443 78.5624 74.9006 78.6928 74.8682C79.0413 74.7556 79.3823 74.6214 79.7139 74.4666C80.8126 73.9652 81.7832 73.2243 82.5535 72.2991C83.3237 71.3739 83.8738 70.2881 84.1627 69.1226C84.2519 68.7723 84.32 68.417 84.3664 68.0586C84.3747 67.9228 84.3927 67.7877 84.42 67.6543Z" fill="#263238"/>
<path d="M94.5101 47.4595C94.5101 47.4595 94.4806 47.2945 94.4538 46.97C94.4238 46.4875 94.4617 46.0031 94.5664 45.531C94.7705 44.6199 95.1872 43.7691 95.783 43.0469C96.3788 42.3248 97.1371 41.7516 97.9968 41.3734C98.5875 41.1148 99.2132 40.9437 99.854 40.8653C100.56 40.7759 101.275 40.7911 101.977 40.9105C103.576 41.1942 105.046 41.9681 106.179 43.1237C106.816 43.752 107.357 44.4688 107.787 45.2517C108.238 46.0904 108.543 46.9987 108.69 47.9383C108.851 48.9332 108.821 49.9495 108.602 50.9334C108.487 51.4448 108.312 51.9411 108.082 52.4124C107.839 52.8943 107.533 53.3417 107.17 53.7424C106.4 54.5604 105.418 55.1529 104.332 55.4554C103.203 55.7651 102.03 55.8847 100.862 55.8092C99.6461 55.7561 98.4431 55.5432 97.2839 55.1761C96.0614 54.7994 94.9866 54.056 94.2072 53.0481C93.44 51.9793 93.0261 50.7003 93.0227 49.388C93.0173 48.7208 93.1076 48.0562 93.2907 47.4142C93.4906 46.7671 93.7706 46.147 94.1242 45.5682C94.4965 44.9886 94.9344 44.4531 95.4293 43.9722C95.9421 43.4969 96.5097 43.0835 97.1204 42.7406C97.7484 42.4073 98.4192 42.1603 99.1143 42.0065C99.8194 41.8633 100.542 41.8256 101.258 41.8947C102.74 42.0588 104.151 42.6065 105.352 43.4827C106.553 44.359 107.501 45.5332 108.1 46.8876C108.705 48.3001 108.844 49.8658 108.5 51.3617C108.323 52.1191 107.995 52.8337 107.535 53.4631C107.061 54.0928 106.449 54.6068 105.745 54.966C105.036 55.3237 104.266 55.5483 103.475 55.6283C102.678 55.7126 101.874 55.6795 101.087 55.5299C99.4878 55.2276 98.0141 54.4643 96.8497 53.3354C96.2625 52.7663 95.7848 52.0956 95.44 51.3564C95.0948 50.6066 94.9349 49.7858 94.9737 48.9624C95.0648 47.3052 95.9519 45.7704 97.1847 44.6505C98.4244 43.5286 99.9941 42.8312 101.663 42.6608C102.487 42.5817 103.318 42.6548 104.115 42.8763C104.904 43.0947 105.645 43.4554 106.302 43.9403C106.954 44.4247 107.501 45.0344 107.91 45.7331C108.116 46.0802 108.28 46.4497 108.401 46.8344C108.47 47.0232 108.508 47.2201 108.559 47.4142C108.61 47.6084 108.634 47.8079 108.647 48.0074C108.808 49.6004 108.365 51.1958 107.404 52.4816C106.442 53.7255 105.085 54.6103 103.552 54.9926C102.057 55.3803 100.478 55.3032 99.0286 54.7718C96.177 53.7451 93.9714 51.2207 93.497 48.3639C93.2471 46.9481 93.5021 45.4902 94.218 44.2409C94.9118 43.0312 95.9442 42.0472 97.1901 41.408C98.3987 40.7961 99.7329 40.4685 101.089 40.4504C102.401 40.4237 103.705 40.6486 104.93 41.1127C107.342 42.0171 109.312 43.8286 110.177 46.0523C110.588 47.1181 110.75 48.2622 110.652 49.3991C110.554 50.5359 110.199 51.6361 109.612 52.6172C109.053 53.5284 108.265 54.28 107.326 54.7984C106.436 55.2853 105.456 55.5884 104.445 55.6895C102.591 55.8408 100.732 55.4653 99.0848 54.6069C97.6333 53.9036 96.3413 52.9144 95.2873 51.6995C94.3967 50.6892 93.7911 49.4632 93.5319 48.1457C93.3562 47.0797 93.4805 45.9861 93.891 44.9857C94.1863 44.2512 94.6443 43.5921 95.231 43.0572C95.5923 42.7323 96.0052 42.4689 96.4531 42.2778C96.7613 42.1687 96.9221 42.1209 96.9221 42.1209L96.8042 42.1634C96.7264 42.1927 96.6085 42.2326 96.4584 42.2911C96.0149 42.4909 95.6068 42.7603 95.2498 43.0891C94.6735 43.6253 94.2249 44.2823 93.9366 45.0123C93.5329 46.0052 93.4115 47.089 93.5855 48.1457C93.8439 49.4624 94.4507 50.6871 95.3436 51.6942C96.3949 52.8983 97.6813 53.8783 99.125 54.575C100.763 55.4245 102.611 55.7936 104.453 55.639C105.451 55.5368 106.418 55.2364 107.296 54.7559C108.221 54.2436 108.995 53.501 109.542 52.6012C110.12 51.633 110.469 50.5478 110.565 49.4267C110.66 48.3056 110.499 47.1776 110.094 46.1268C109.237 43.9376 107.278 42.1368 104.906 41.2564C103.694 40.7993 102.404 40.5789 101.108 40.6073C99.7702 40.6244 98.4542 40.9475 97.2624 41.5516C96.0381 42.1786 95.0219 43.1428 94.3359 44.3286C93.6348 45.5532 93.3855 46.982 93.631 48.3692C94.0974 51.1755 96.2735 53.6652 99.0822 54.6734C100.507 55.1965 102.059 55.2717 103.528 54.8889C105.03 54.5142 106.36 53.6461 107.302 52.4257C108.25 51.1703 108.691 49.6089 108.54 48.0473C108.526 47.8532 108.481 47.6616 108.451 47.4674C108.327 46.8926 108.114 46.3401 107.822 45.8289C107.416 45.1458 106.878 44.5499 106.238 44.0759C104.932 43.1052 103.305 42.6588 101.682 42.8257C100.044 42.9897 98.503 43.6703 97.2839 44.7675C96.0752 45.8582 95.2069 47.3717 95.1184 48.9836C95.0805 49.7859 95.2358 50.5856 95.5714 51.3165C95.9102 52.0392 96.3778 52.6952 96.9516 53.2529C98.0969 54.3629 99.5464 55.1132 101.119 55.4102C101.892 55.5571 102.682 55.5902 103.464 55.5086C104.239 55.4325 104.993 55.2124 105.686 54.8596C106.373 54.5115 106.97 54.0108 107.43 53.3966C107.88 52.7836 108.201 52.0871 108.374 51.3484C108.711 49.8791 108.574 48.3418 107.982 46.9541C107.393 45.6197 106.461 44.4623 105.28 43.5977C104.098 42.7332 102.709 42.1918 101.25 42.0277C100.545 41.9613 99.8332 41.998 99.1384 42.1368C98.4564 42.2892 97.7983 42.5326 97.182 42.8603C96.5796 43.1951 96.0199 43.6005 95.5151 44.068C95.0261 44.5395 94.5944 45.0662 94.2287 45.6374C93.8798 46.2059 93.6035 46.8153 93.4059 47.4515C93.2252 48.0822 93.135 48.735 93.1379 49.3906C93.1411 50.678 93.5466 51.9326 94.2984 52.9816C95.0623 53.9679 96.1157 54.6947 97.3134 55.0617C98.4618 55.4289 99.6539 55.6444 100.859 55.7028C102.016 55.78 103.177 55.6631 104.295 55.357C105.09 55.15 105.831 54.7763 106.468 54.261C107.105 53.7457 107.623 53.1008 107.988 52.3698C108.216 51.9054 108.388 51.4162 108.502 50.9121C108.72 49.9398 108.752 48.9355 108.596 47.9516C108.305 46.1358 107.44 44.459 106.125 43.1636C105.004 42.0178 103.549 41.2487 101.966 40.9637C101.271 40.8435 100.562 40.8274 99.862 40.9159C99.2262 40.991 98.6049 41.1586 98.0182 41.4133C97.0284 41.8401 96.1755 42.5283 95.5526 43.403C95.0942 44.0424 94.7681 44.7656 94.5932 45.531C94.4869 46.0012 94.4445 46.4834 94.4672 46.9647C94.4672 47.127 94.494 47.2493 94.4994 47.3318C94.5047 47.4142 94.5101 47.4595 94.5101 47.4595Z" fill="#263238"/>
<path d="M105.056 46.082C105.056 46.1165 103.311 46.6964 101.135 47.3747C98.959 48.053 97.1822 48.5744 97.1714 48.5371C97.1607 48.4999 98.9161 47.9227 101.092 47.2444C103.268 46.5661 105.032 46.0447 105.056 46.082Z" fill="#263238"/>
<path d="M105.541 47.3478C105.554 47.3824 103.917 47.9756 101.885 48.6778C99.8541 49.3801 98.2005 49.9041 98.1871 49.8668C98.1737 49.8296 99.8112 49.2391 101.843 48.5368C103.874 47.8346 105.528 47.3079 105.541 47.3478Z" fill="#263238"/>
<path d="M102.542 49.9437C102.585 50.0022 101.738 50.3347 100.714 50.6964C100.2 50.8773 99.7281 51.0316 99.3743 51.138C99.1926 51.2091 99.0026 51.2573 98.8088 51.2816C98.9775 51.1821 99.1574 51.1026 99.3448 51.0449C99.6798 50.9172 100.149 50.747 100.661 50.5661C101.173 50.3852 101.647 50.2256 101.987 50.1139C102.328 50.0022 102.555 49.9383 102.542 49.9437Z" fill="#263238"/>
<path d="M104.054 51.1966C104.054 51.1966 102.826 50.6327 102.767 50.9306C102.708 51.2285 102.791 51.3482 103.035 51.4227C103.279 51.4972 103.944 51.7206 103.944 51.7206L104.054 51.1966Z" fill="#FFBE9D"/>
<path d="M103.984 51.7523C103.984 51.7523 102.757 51.1884 102.698 51.4863C102.639 51.7842 102.719 51.9012 102.966 51.9784C103.212 52.0555 103.874 52.2763 103.874 52.2763L103.984 51.7523Z" fill="#EB996E"/>
<path d="M101.162 52.9974L96.5042 59.0515C95.8395 60.0277 94.8077 60.5145 94.1109 60.5332L93.6741 60.5704L93.8912 64.696L95.7296 64.4886C96.3024 64.4238 96.8521 64.2269 97.3346 63.9138C97.8171 63.6007 98.2192 63.1799 98.5088 62.6851L103.244 54.5614C103.557 54.0391 103.834 53.4971 104.075 52.9388C104.343 52.2366 104.054 51.1859 104.054 51.1859L102.178 52.3616V51.0928C102.178 51.0928 101.977 51.0236 101.585 51.404C101.248 51.7418 101.162 52.9974 101.162 52.9974Z" fill="#FFBE9D"/>
<path d="M102.148 50.5558L102.172 55.0219C102.173 55.0713 102.183 55.1201 102.203 55.1653C102.223 55.2105 102.252 55.2512 102.288 55.2848C102.325 55.3185 102.368 55.3444 102.415 55.3609C102.462 55.3774 102.511 55.3843 102.561 55.381C102.653 55.3743 102.739 55.3332 102.801 55.2661C102.864 55.199 102.899 55.1108 102.899 55.0193V50.4973L102.47 49.8057L102.148 50.5558Z" fill="#455A64"/>
<path d="M102.464 49.8193L102.346 50.088L102.622 50.0747L102.464 49.8193Z" fill="#263238"/>
<path d="M102.893 50.5082C102.786 50.5874 102.655 50.6286 102.521 50.6253C102.388 50.6408 102.254 50.6177 102.135 50.5588C102.135 50.5402 102.309 50.5827 102.518 50.5721C102.727 50.5614 102.885 50.4923 102.893 50.5082Z" fill="#263238"/>
<path d="M102.51 55.3805C102.5 55.318 102.496 55.2549 102.497 55.1916C102.497 55.0374 102.497 54.8671 102.497 54.6783C102.497 54.1968 102.497 53.6143 102.483 52.9838C102.47 52.3534 102.483 51.7735 102.483 51.2921C102.483 51.1032 102.483 50.933 102.483 50.7787C102.477 50.7159 102.477 50.6526 102.483 50.5898C102.488 50.6527 102.488 50.7158 102.483 50.7787C102.483 50.933 102.483 51.1032 102.483 51.2921C102.483 51.7735 102.483 52.3561 102.483 52.9838C102.483 53.6116 102.483 54.1968 102.483 54.6783C102.483 54.8671 102.483 55.0374 102.483 55.1916C102.495 55.2541 102.504 55.3171 102.51 55.3805Z" fill="#263238"/>
</svg>
