<svg width="130" height="113" viewBox="0 0 130 113" fill="none" xmlns="http://www.w3.org/2000/svg">
<g clip-path="url(#clip0_1106_39087)">
<path d="M70.6077 113.185C103.602 113.185 130.35 97.9721 130.35 79.2055C130.35 60.4389 103.602 45.2256 70.6077 45.2256C37.613 45.2256 10.8655 60.4389 10.8655 79.2055C10.8655 97.9721 37.613 113.185 70.6077 113.185Z" fill="#F5F5F5"/>
<path d="M108.505 95.0188C116.395 95.0188 122.791 91.0086 122.791 86.0617C122.791 81.1147 116.395 77.1045 108.505 77.1045C100.615 77.1045 94.2183 81.1147 94.2183 86.0617C94.2183 91.0086 100.615 95.0188 108.505 95.0188Z" fill="#E6E6E6"/>
<path d="M14.1821 60.0597C14.0109 57.9984 13.535 55.9738 12.7699 54.0521C11.5106 50.9469 9.1003 47.8277 6.32308 47.2439C3.54586 46.6601 2.3727 48.5227 2.9565 50.3575C3.46246 51.9365 5.52522 53.2487 7.09314 54.6276C8.66106 56.0065 11.5856 59.3536 12.3974 62.5589L13.9653 62.7313L14.1821 60.0597Z" fill="#212121"/>
<g opacity="0.15">
<path d="M14.1821 60.0597C14.0109 57.9984 13.535 55.9738 12.7699 54.0521C11.5106 50.9469 9.1003 47.8277 6.32308 47.2439C3.54586 46.6601 2.3727 48.5227 2.9565 50.3575C3.46246 51.9365 5.52522 53.2487 7.09314 54.6276C8.66106 56.0065 11.5856 59.3536 12.3974 62.5589L13.9653 62.7313L14.1821 60.0597Z" fill="black"/>
</g>
<path d="M13.1062 61.4999C13.0614 61.5 13.0184 61.4826 12.9862 61.4514C12.954 61.4203 12.9352 61.3779 12.9338 61.3331C12.6419 53.2378 4.73002 48.7119 4.64384 48.6619C4.60612 48.638 4.57896 48.6006 4.56793 48.5573C4.55689 48.514 4.56281 48.4681 4.58448 48.4291C4.60614 48.39 4.6419 48.3607 4.68446 48.3471C4.72702 48.3336 4.77315 48.3368 4.81342 48.3561C4.89682 48.4034 12.9838 53.0265 13.2813 61.3137C13.2828 61.3597 13.2662 61.4044 13.2349 61.4382C13.2037 61.4721 13.1605 61.4922 13.1145 61.4944L13.1062 61.4999Z" fill="white"/>
<path d="M15.4303 74.31C15.4303 74.31 13.8124 75.3331 11.2826 74.8966C10.4645 74.7878 9.70224 74.4217 9.10583 73.8513C8.45253 73.1786 8.34967 72.5003 8.16619 71.5995C8.11566 71.223 7.98687 70.8613 7.78811 70.5376C7.23211 69.7925 6.16459 69.8064 5.26387 69.6118C3.98507 69.3338 2.80913 68.4164 2.43939 67.1627C2.06965 65.9089 2.67013 64.3827 3.88221 63.8878L2.39491 62.9343C1.93255 62.6629 1.50499 62.3361 1.12167 61.9613C0.739051 61.5791 0.510463 61.0695 0.479492 60.5296C0.479492 59.7401 1.06607 59.0339 1.78887 58.7115C2.52927 58.4256 3.33267 58.3431 4.11573 58.4724C4.90892 58.5694 5.68858 58.7559 6.43981 59.0284C6.64452 59.1208 6.86579 59.1709 7.09033 59.1757C7.38257 59.124 7.65646 58.9976 7.88541 58.8088C9.58677 57.6968 12.3584 57.7718 13.2703 59.8902C13.4037 60.2015 13.4843 60.5351 13.6289 60.8409C14.1571 61.9835 15.6444 61.6388 16.6063 62.1726C16.9082 62.3637 17.1643 62.619 17.3564 62.9202C17.5486 63.2215 17.6721 63.5613 17.7183 63.9156C17.9101 65.0443 17.596 66.3314 17.3875 67.4462C17.179 68.561 16.9149 69.5979 16.6118 70.6543C16.3644 71.5273 16.092 72.3918 15.8029 73.2509C15.7417 73.4288 15.6083 74.1988 15.4303 74.31Z" fill="#212121"/>
<path d="M16.4477 71.702C15.5998 69.3692 14.2074 67.2724 12.3861 65.586C12.3672 65.5453 12.3334 65.5135 12.2916 65.497C11.7669 65.0051 11.2166 64.5411 10.6431 64.107C10.4264 62.6059 10.6184 61.0741 11.1991 59.6729C11.2186 59.6313 11.2208 59.5836 11.2052 59.5403C11.1895 59.497 11.1573 59.4617 11.1157 59.4422C11.074 59.4227 11.0263 59.4205 10.983 59.4361C10.9398 59.4518 10.9045 59.4839 10.8849 59.5256C10.3091 60.8765 10.0881 62.3521 10.2428 63.8124C7.9126 62.1319 5.32763 60.8366 2.58663 59.976C2.54206 59.9648 2.49488 59.9712 2.45498 59.994C2.41508 60.0168 2.38555 60.0542 2.37257 60.0983C2.36628 60.1204 2.36446 60.1435 2.36722 60.1663C2.36999 60.1891 2.37728 60.2111 2.38868 60.2311C2.40007 60.251 2.41534 60.2685 2.43358 60.2824C2.45182 60.2964 2.47267 60.3066 2.49489 60.3123C2.56717 60.3318 7.49889 61.7329 11.5799 65.3163C9.07793 64.8799 6.09499 66.0864 5.95877 66.1503C5.92049 66.1647 5.88857 66.1922 5.86872 66.228C5.84886 66.2637 5.84236 66.3054 5.85038 66.3455C5.8584 66.3856 5.88042 66.4215 5.9125 66.4469C5.94457 66.4723 5.98463 66.4854 6.02549 66.4839C6.04755 66.488 6.07015 66.488 6.09221 66.4839C6.12557 66.4673 9.63115 65.0495 12.1081 65.8195C13.9071 67.4692 15.2854 69.5252 16.128 71.816C16.1397 71.8502 16.1618 71.8798 16.1912 71.9008C16.2206 71.9217 16.2559 71.9329 16.292 71.9327H16.3504C16.3724 71.9245 16.3924 71.9119 16.4093 71.8957C16.4262 71.8794 16.4396 71.8599 16.4487 71.8383C16.4578 71.8167 16.4625 71.7935 16.4623 71.7701C16.4621 71.7466 16.4571 71.7235 16.4477 71.702Z" fill="white"/>
<path d="M15.4858 74.0686C15.5154 74.4754 15.6406 74.8694 15.8512 75.2187C16.0618 75.5679 16.3519 75.8625 16.6979 76.0785L50.6 95.6442C50.9747 95.8346 51.389 95.9339 51.8093 95.9339C52.2296 95.9339 52.644 95.8346 53.0186 95.6442L99.3974 68.8672C99.762 68.6736 100.067 68.3843 100.28 68.0305C100.493 67.6766 100.605 67.2715 100.605 66.8586C100.605 66.4458 100.493 66.0407 100.28 65.6868C100.067 65.3329 99.762 65.0437 99.3974 64.8501L65.5008 45.2789C65.1258 45.0897 64.7116 44.9912 64.2915 44.9912C63.8715 44.9912 63.4573 45.0897 63.0822 45.2789L16.6979 72.0614C16.3522 72.277 16.0622 72.5711 15.8515 72.9199C15.6409 73.2686 15.5156 73.6622 15.4858 74.0686Z" fill="#37474F"/>
<path d="M51.8036 93.3205V95.9364C51.3834 95.9482 50.9672 95.8526 50.5943 95.6584L16.6839 76.0789C16.3295 75.8921 16.031 75.6147 15.8187 75.275C15.6065 74.9352 15.4881 74.5453 15.4757 74.1449C15.4633 73.7445 15.5572 73.348 15.748 72.9957C15.9387 72.6434 16.2195 72.3481 16.5616 72.1396C16.0195 72.5288 16.0612 73.0987 16.6839 73.4574L50.5999 93.0286C50.9698 93.2265 51.3841 93.3269 51.8036 93.3205Z" fill="#263238"/>
<path d="M14.3515 72.1034C14.0148 71.8743 13.7367 71.5693 13.5397 71.2129C13.3427 70.8565 13.2322 70.4587 13.2173 70.0517V29.6C13.2401 29.1805 13.3615 28.7724 13.5716 28.4087C13.7817 28.045 14.0746 27.7359 14.4266 27.5066L60.8053 0.729662C61.1655 0.538561 61.5655 0.434952 61.9732 0.427224C62.3808 0.419497 62.7845 0.507867 63.1516 0.685181C63.4883 0.914252 63.7665 1.21931 63.9635 1.57571C64.1605 1.93211 64.271 2.32986 64.2859 2.73682V43.1886C64.2631 43.608 64.1417 44.0162 63.9316 44.3799C63.7214 44.7436 63.4285 45.0527 63.0766 45.2819L16.6978 72.0617C16.3373 72.2517 15.9372 72.3545 15.5296 72.3617C15.1221 72.369 14.7186 72.2805 14.3515 72.1034Z" fill="#455A64"/>
<path d="M16.5533 72.134C16.2062 72.2896 15.8293 72.3675 15.449 72.3622C15.0687 72.3569 14.6941 72.2686 14.3515 72.1034C14.0148 71.8743 13.7367 71.5693 13.5397 71.2129C13.3427 70.8565 13.2322 70.4587 13.2173 70.0518V29.6C13.2306 29.1792 13.3532 28.7691 13.5731 28.4102L15.8416 29.7168C15.6237 30.0766 15.5012 30.4862 15.4858 30.9066V71.3612C15.4858 72.0784 15.9528 72.3981 16.5533 72.134Z" fill="#263238"/>
<path d="M15.4858 30.9125V71.3615C15.4858 72.1343 16.0418 72.4457 16.6979 72.0621L63.0767 45.2823C63.4286 45.053 63.7215 44.744 63.9316 44.3803C64.1418 44.0165 64.2631 43.6084 64.286 43.189V2.7372C64.286 1.96714 63.7439 1.653 63.0767 2.03942L16.6979 28.8164C16.3451 29.0456 16.0514 29.355 15.8408 29.7192C15.6301 30.0835 15.5085 30.4923 15.4858 30.9125Z" fill="#37474F"/>
<path d="M16.6978 73.4576L50.5999 93.0288C50.975 93.2179 51.3891 93.3165 51.8092 93.3165C52.2293 93.3165 52.6434 93.2179 53.0185 93.0288L99.3972 66.2518C100.067 65.8654 100.067 65.2399 99.3972 64.8618L65.5007 45.2906C65.1256 45.1015 64.7115 45.0029 64.2914 45.0029C63.8713 45.0029 63.4571 45.1015 63.0821 45.2906L16.6978 72.062C16.0278 72.4457 16.0278 73.0712 16.6978 73.4576Z" fill="#455A64"/>
<path d="M17.3485 31.0621L62.0648 5.24979C62.4651 5.01905 62.7904 5.20809 62.7904 5.66957V40.6976C62.7765 40.9493 62.7035 41.1941 62.5775 41.4124C62.4514 41.6307 62.2758 41.8163 62.0648 41.9541L17.3485 67.7525C16.9454 67.9833 16.6201 67.797 16.6201 67.3327V32.3048C16.6356 32.055 16.7096 31.8124 16.8361 31.5966C16.9626 31.3807 17.1381 31.1976 17.3485 31.0621Z" fill="#FAFAFA"/>
<path d="M20.6316 72.4089L63.6827 47.5502C63.8698 47.4543 64.0771 47.4043 64.2873 47.4043C64.4976 47.4043 64.7049 47.4543 64.892 47.5502L67.0938 48.8206C67.166 48.846 67.2287 48.8932 67.273 48.9557C67.3173 49.0182 67.3411 49.0929 67.3411 49.1695C67.3411 49.2461 67.3173 49.3209 67.273 49.3834C67.2287 49.4459 67.166 49.4931 67.0938 49.5184L24.0371 74.3744C23.85 74.4703 23.6427 74.5203 23.4325 74.5203C23.2222 74.5203 23.0149 74.4703 22.8278 74.3744L20.6316 73.1067C20.5593 73.0813 20.4967 73.0342 20.4524 72.9717C20.4081 72.9092 20.3843 72.8344 20.3843 72.7578C20.3843 72.6812 20.4081 72.6065 20.4524 72.544C20.4967 72.4815 20.5593 72.4343 20.6316 72.4089Z" fill="#37474F"/>
<path d="M26.3056 75.6863L69.3566 50.8304C69.5442 50.7358 69.7513 50.6865 69.9613 50.6865C70.1713 50.6865 70.3784 50.7358 70.5659 50.8304L84.1101 58.6505C84.1824 58.6759 84.245 58.7231 84.2893 58.7856C84.3336 58.8481 84.3574 58.9228 84.3574 58.9994C84.3574 59.076 84.3336 59.1507 84.2893 59.2132C84.245 59.2757 84.1824 59.3229 84.1101 59.3483L41.1091 84.1681C40.9212 84.2634 40.7136 84.313 40.503 84.313C40.2924 84.313 40.0848 84.2634 39.897 84.1681L26.3083 76.3841C26.2346 76.3604 26.1703 76.314 26.1246 76.2515C26.0788 76.189 26.054 76.1137 26.0537 76.0362C26.0534 75.9588 26.0776 75.8833 26.1228 75.8204C26.1681 75.7576 26.232 75.7106 26.3056 75.6863Z" fill="#263238"/>
<path d="M64.8976 62.0067L66.2431 61.231C66.3015 61.1977 66.2987 61.1421 66.2431 61.106L64.6835 60.2052C64.6504 60.1882 64.6137 60.1793 64.5765 60.1793C64.5393 60.1793 64.5026 60.1882 64.4695 60.2052L63.1212 60.9836C63.0628 61.0142 63.0656 61.0698 63.1212 61.106L64.678 62.0067C64.7119 62.0242 64.7496 62.0334 64.7878 62.0334C64.826 62.0334 64.8637 62.0242 64.8976 62.0067ZM62.2371 58.9153L60.8861 59.6993C60.8277 59.7326 60.8332 59.7882 60.8861 59.8244L62.4429 60.7223C62.4764 60.7394 62.5136 60.7483 62.5513 60.7483C62.589 60.7483 62.6261 60.7394 62.6597 60.7223L64.008 59.9439C64.0636 59.9105 64.0608 59.855 64.008 59.8188L62.4484 58.9209C62.4157 58.9043 62.3795 58.8956 62.3428 58.8956C62.3061 58.8956 62.2699 58.9043 62.2371 58.9209V58.9153ZM57.8809 61.4507L55.6013 62.7656C55.5429 62.799 55.5457 62.8546 55.6013 62.8907L57.1581 63.7914C57.1919 63.8079 57.2289 63.8165 57.2665 63.8165C57.3041 63.8165 57.3412 63.8079 57.3749 63.7914L59.6545 62.4765C59.7129 62.4431 59.7073 62.3875 59.6545 62.3514L58.1061 61.4507C58.0714 61.4322 58.0327 61.4225 57.9935 61.4225C57.9542 61.4225 57.9155 61.4322 57.8809 61.4507ZM60.2661 60.0607L58.9178 60.8391C58.8622 60.8724 58.865 60.928 58.9178 60.9642L60.4774 61.8649C60.5107 61.8813 60.5473 61.8899 60.5844 61.8899C60.6216 61.8899 60.6582 61.8813 60.6915 61.8649L62.0398 61.0865C62.0954 61.0531 62.0926 60.9975 62.0398 60.9642L60.4802 60.0607C60.4471 60.0436 60.4104 60.0347 60.3732 60.0347C60.3359 60.0347 60.2992 60.0436 60.2661 60.0607ZM54.9841 63.1187L53.6358 63.8943C53.5802 63.9277 53.583 63.9832 53.6358 64.0194L55.1954 64.9201C55.2285 64.9372 55.2652 64.9461 55.3024 64.9461C55.3397 64.9461 55.3764 64.9372 55.4095 64.9201L56.7578 64.1417C56.8134 64.1111 56.8106 64.0555 56.7578 64.0194L55.1926 63.1187C55.1595 63.1016 55.1228 63.0927 55.0856 63.0927C55.0484 63.0927 55.0117 63.1016 54.9786 63.1187H54.9841ZM53.0131 64.2557L51.6676 65.0341C51.6092 65.0647 51.612 65.1203 51.6676 65.1564L53.2272 66.0571C53.2605 66.0736 53.2971 66.0821 53.3342 66.0821C53.3713 66.0821 53.4079 66.0736 53.4412 66.0571L54.7895 65.2787C54.8479 65.2454 54.8423 65.1898 54.7895 65.1536L53.2327 64.2529C53.1983 64.234 53.1598 64.2238 53.1205 64.2233C53.0812 64.2229 53.0424 64.2321 53.0075 64.2501L53.0131 64.2557ZM59.1458 67.9142L60.4941 67.1358C60.5497 67.1024 60.5469 67.0468 60.4941 67.0107L58.9345 66.1127C58.9014 66.0957 58.8647 66.0868 58.8275 66.0868C58.7902 66.0868 58.7535 66.0957 58.7204 66.1127L57.3721 66.8911C57.3138 66.9245 57.3193 66.9801 57.3721 67.0162L58.9289 67.9142C58.9622 67.9295 58.9986 67.937 59.0352 67.936C59.0719 67.935 59.1078 67.9257 59.1402 67.9086L59.1458 67.9142ZM57.1748 69.0512L58.5231 68.2728C58.5814 68.2394 58.5759 68.1838 58.5231 68.1477L56.9663 67.2497C56.9327 67.2327 56.8955 67.2238 56.8578 67.2238C56.8202 67.2238 56.783 67.2327 56.7494 67.2497L55.4011 68.0282C55.3455 68.0615 55.3483 68.1171 55.4011 68.1532L56.9607 69.054C56.9939 69.0682 57.0298 69.0749 57.0659 69.0734C57.102 69.072 57.1373 69.0625 57.1692 69.0456L57.1748 69.0512ZM55.2037 70.1882L56.552 69.4098C56.6104 69.3765 56.6076 69.3209 56.552 69.2875L54.9952 68.3868C54.9621 68.3697 54.9255 68.3608 54.8882 68.3608C54.851 68.3608 54.8143 68.3697 54.7812 68.3868L53.4329 69.1652C53.3745 69.1985 53.3773 69.2541 53.4329 69.2903L54.9925 70.191C55.0253 70.2048 55.0607 70.2112 55.0963 70.2098C55.1318 70.2084 55.1666 70.1991 55.1982 70.1827L55.2037 70.1882ZM53.2355 71.3252L54.5838 70.5468C54.6394 70.5163 54.6366 70.4606 54.5838 70.4245L53.0103 69.5127C52.9772 69.4956 52.9405 69.4867 52.9033 69.4867C52.8661 69.4867 52.8294 69.4956 52.7963 69.5127L51.448 70.2883C51.3896 70.3217 51.3951 70.3772 51.448 70.4134L53.0048 71.3141C53.0389 71.3335 53.0774 71.3441 53.1167 71.3451C53.1559 71.346 53.1948 71.3373 53.2299 71.3197L53.2355 71.3252ZM62.9321 63.1576L64.2804 62.3792C64.336 62.3458 64.3333 62.2902 64.2804 62.2541L62.7209 61.3534C62.6876 61.3369 62.651 61.3284 62.6138 61.3284C62.5767 61.3284 62.5401 61.3369 62.5068 61.3534L61.1585 62.1318C61.1029 62.1651 61.1057 62.2207 61.1585 62.2541L62.7181 63.1548C62.7508 63.1699 62.7866 63.1775 62.8226 63.177C62.8587 63.1766 62.8942 63.168 62.9266 63.152L62.9321 63.1576ZM61.114 66.7716L64.122 65.0341C64.1804 65.0007 64.1748 64.9451 64.122 64.9118L60.3301 62.7267C60.2965 62.7096 60.2593 62.7007 60.2216 62.7007C60.184 62.7007 60.1468 62.7096 60.1132 62.7267L58.5592 63.6246C58.5008 63.658 58.5036 63.7136 58.5592 63.7497L60.5608 64.9062C60.6247 64.9423 60.6275 64.9979 60.5608 65.0285L59.3181 65.7485C59.2598 65.7819 59.2625 65.8375 59.3181 65.8737L60.8777 66.7716C60.9129 66.7916 60.9526 66.8021 60.9931 66.8021C61.0335 66.8021 61.0733 66.7916 61.1085 66.7716H61.114ZM51.0449 65.3816L49.6966 66.16C49.6382 66.1934 49.6437 66.249 49.6966 66.2823L51.2534 67.183C51.287 67.2001 51.3241 67.209 51.3618 67.209C51.3995 67.209 51.4366 67.2001 51.4702 67.183L52.8157 66.4046C52.8741 66.3713 52.8713 66.3157 52.8157 66.2795L51.2561 65.3788C51.2218 65.3632 51.1844 65.3558 51.1467 65.3573C51.1091 65.3587 51.0723 65.369 51.0393 65.3872L51.0449 65.3816ZM49.0738 66.5186L47.7255 67.297C47.6699 67.3304 47.6727 67.386 47.7255 67.4221L49.2851 68.32C49.3182 68.3371 49.3549 68.346 49.3922 68.346C49.4294 68.346 49.4661 68.3371 49.4992 68.32L50.8475 67.5417C50.9031 67.5083 50.9003 67.4527 50.8475 67.4165L49.2879 66.5186C49.2536 66.5015 49.2157 66.493 49.1774 66.494C49.1391 66.4949 49.1016 66.5053 49.0683 66.5242L49.0738 66.5186ZM39.2299 79.2732C39.2632 79.2897 39.2998 79.2982 39.3369 79.2982C39.374 79.2982 39.4106 79.2897 39.4439 79.2732L40.7922 78.4948C40.8506 78.4615 40.8478 78.4059 40.7922 78.3725L39.2354 77.4718C39.2017 77.4553 39.1646 77.4468 39.127 77.4468C39.0894 77.4468 39.0524 77.4553 39.0186 77.4718L37.6731 78.2502C37.6147 78.2836 37.6175 78.3392 37.6731 78.3753L39.2299 79.2732ZM33.3085 75.6287L31.9602 76.4071C31.9046 76.4404 31.9073 76.496 31.9602 76.5322L33.5197 77.4301C33.5528 77.4472 33.5895 77.4561 33.6268 77.4561C33.664 77.4561 33.7007 77.4472 33.7338 77.4301L35.0821 76.6517C35.1377 76.6183 35.1349 76.5628 35.0821 76.5266L33.5225 75.6287C33.4894 75.6116 33.4527 75.6027 33.4155 75.6027C33.3783 75.6027 33.3416 75.6116 33.3085 75.6287ZM36.4804 78.2975C36.5137 78.3139 36.5504 78.3224 36.5875 78.3224C36.6246 78.3224 36.6612 78.3139 36.6945 78.2975L38.0428 77.5191C38.0984 77.4857 38.0956 77.4301 38.0428 77.394L36.4832 76.4932C36.4501 76.4762 36.4134 76.4673 36.3762 76.4673C36.339 76.4673 36.3023 76.4762 36.2692 76.4932L34.9209 77.2717C34.8653 77.305 34.868 77.3578 34.9209 77.394L36.4804 78.2975ZM42.7021 79.9655L44.0504 79.1871C44.1088 79.1565 44.1032 79.1009 44.0504 79.0647L42.4936 78.164C42.46 78.1469 42.4228 78.138 42.3852 78.138C42.3475 78.138 42.3103 78.1469 42.2767 78.164L40.9284 78.9396C40.8728 78.973 40.8756 79.0286 40.9284 79.0647L42.488 79.9655C42.5209 79.983 42.5575 79.9923 42.5947 79.9928C42.632 79.9933 42.6688 79.9849 42.7021 79.9682V79.9655ZM40.517 81.0997C40.5508 81.1162 40.5879 81.1247 40.6254 81.1247C40.663 81.1247 40.7001 81.1162 40.7338 81.0997L42.0794 80.3213C42.1377 80.288 42.135 80.2323 42.0794 80.1962L40.5198 79.2955C40.4867 79.2784 40.45 79.2695 40.4128 79.2695C40.3755 79.2695 40.3388 79.2784 40.3057 79.2955L38.9519 80.0767C38.8935 80.1072 38.8963 80.1628 38.9519 80.199L40.517 81.0997ZM35.2795 74.4833L33.9312 75.2617C33.8728 75.2951 33.8756 75.3507 33.9312 75.384L35.488 76.2847C35.5211 76.3018 35.5578 76.3107 35.595 76.3107C35.6323 76.3107 35.669 76.3018 35.702 76.2847L37.0503 75.5063C37.1087 75.473 37.1059 75.4174 37.0503 75.3812L35.4908 74.4805C35.4574 74.4654 35.4211 74.458 35.3845 74.459C35.3479 74.46 35.312 74.4692 35.2795 74.4861V74.4833ZM45.129 68.7954L43.7807 69.5738C43.7223 69.6072 43.7279 69.6628 43.7807 69.6989L45.3375 70.5969C45.3711 70.614 45.4083 70.6229 45.4459 70.6229C45.4836 70.6229 45.5208 70.614 45.5544 70.5969L46.9027 69.8185C46.9583 69.7851 46.9555 69.7295 46.9027 69.6934L45.3431 68.7954C45.3098 68.7788 45.273 68.7704 45.2357 68.7708C45.1985 68.7713 45.1619 68.7807 45.129 68.7982V68.7954ZM37.2561 73.3491L35.9078 74.1275C35.8522 74.1608 35.8549 74.2164 35.9078 74.2498L37.4673 75.1505C37.5004 75.1676 37.5371 75.1765 37.5744 75.1765C37.6116 75.1765 37.6483 75.1676 37.6814 75.1505L39.0297 74.3721C39.0881 74.3388 39.0825 74.2831 39.0297 74.247L37.4729 73.3463C37.4389 73.3303 37.4017 73.3222 37.3642 73.3227C37.3266 73.3231 37.2896 73.3322 37.2561 73.3491ZM47.1056 67.6612L45.7601 68.4396C45.7017 68.473 45.7045 68.5285 45.7601 68.5647L47.3197 69.4626C47.3528 69.4797 47.3895 69.4886 47.4267 69.4886C47.4639 69.4886 47.5006 69.4797 47.5337 69.4626L48.882 68.6842C48.9404 68.6509 48.9376 68.5953 48.882 68.5591L47.3252 67.6612C47.2902 67.6422 47.2511 67.6323 47.2112 67.6323C47.1714 67.6323 47.1323 67.6422 47.0973 67.6612H47.1056ZM43.1663 69.9352L41.818 70.7136C41.7624 70.747 41.7652 70.8026 41.818 70.8387L43.3721 71.7367C43.4054 71.7531 43.442 71.7616 43.4791 71.7616C43.5162 71.7616 43.5528 71.7531 43.5861 71.7367L44.9344 70.9583C44.9928 70.9249 44.9872 70.8693 44.9344 70.836L43.3721 69.9408C43.3394 69.9229 43.3029 69.913 43.2657 69.912C43.2285 69.9111 43.1915 69.919 43.158 69.9352H43.1663ZM41.1981 71.0722L39.8498 71.8507C39.7914 71.884 39.7942 71.9396 39.8498 71.9757L41.4094 72.8765C41.4425 72.8935 41.4792 72.9024 41.5164 72.9024C41.5537 72.9024 41.5904 72.8935 41.6234 72.8765L42.9717 72.0981C43.0301 72.0647 43.0273 72.0091 42.9717 71.9757L41.4122 71.075C41.378 71.0568 41.34 71.047 41.3013 71.0466C41.2626 71.0461 41.2244 71.0549 41.1898 71.0722H41.1981ZM39.2271 72.212L37.8788 72.9905C37.8204 73.021 37.826 73.0766 37.8788 73.1128L39.4356 74.0135C39.4692 74.0306 39.5063 74.0395 39.544 74.0395C39.5817 74.0395 39.6188 74.0306 39.6524 74.0135L41.0007 73.2379C41.0563 73.2045 41.0535 73.1489 41.0007 73.1128L39.4411 72.212C39.407 72.1936 39.3688 72.1839 39.3299 72.1839C39.2911 72.1839 39.2529 72.1936 39.2187 72.212H39.2271ZM49.2962 73.602L50.6445 72.8237C50.7029 72.7903 50.7001 72.7347 50.6445 72.6985L49.085 71.7978C49.0517 71.7814 49.0151 71.7729 48.9779 71.7729C48.9408 71.7729 48.9042 71.7814 48.8709 71.7978L47.5226 72.5762C47.4642 72.6096 47.467 72.6652 47.5226 72.6985L49.0822 73.5993C49.1144 73.6145 49.1497 73.6222 49.1854 73.6218C49.221 73.6213 49.2561 73.6126 49.2879 73.5965L49.2962 73.602ZM66.599 56.4133L65.2507 57.1917C65.1951 57.2251 65.1978 57.2807 65.2507 57.314L66.8102 58.2147C66.8433 58.2318 66.88 58.2407 66.9173 58.2407C66.9545 58.2407 66.9912 58.2318 67.0243 58.2147L68.3726 57.4364C68.431 57.403 68.4254 57.3474 68.3726 57.3112L66.8158 56.4105C66.7812 56.3923 66.7427 56.3825 66.7035 56.382C66.6644 56.3816 66.6257 56.3904 66.5906 56.4077L66.599 56.4133ZM64.2137 57.7894L62.8682 58.5678C62.8098 58.6012 62.8126 58.6568 62.8682 58.6929L64.4278 59.5909C64.4609 59.6079 64.4976 59.6168 64.5348 59.6168C64.572 59.6168 64.6087 59.6079 64.6418 59.5909L65.9901 58.8125C66.0485 58.7791 66.0457 58.7235 65.9901 58.6874L64.4333 57.7894C64.3988 57.7696 64.3599 57.7587 64.3201 57.7577C64.2803 57.7567 64.2408 57.7657 64.2054 57.7839L64.2137 57.7894ZM68.57 55.2874L67.2217 56.0658C67.1633 56.0964 67.1689 56.152 67.2217 56.1881L68.7785 57.0889C68.8123 57.1053 68.8493 57.1139 68.8869 57.1139C68.9245 57.1139 68.9616 57.1053 68.9953 57.0889L70.3436 56.3105C70.3992 56.2771 70.3964 56.2215 70.3436 56.1854L68.784 55.2846C68.7511 55.264 68.7134 55.2519 68.6746 55.2494C68.6358 55.247 68.5969 55.2543 68.5616 55.2707L68.57 55.2874ZM58.3729 65.8014L59.7212 65.023C59.7768 64.9896 59.7741 64.934 59.7212 64.8979L58.1617 63.9999C58.1286 63.9829 58.0919 63.974 58.0546 63.974C58.0174 63.974 57.9807 63.9829 57.9476 63.9999L56.5993 64.7783C56.5437 64.8117 56.5465 64.8673 56.5993 64.9034L58.1589 65.8014C58.1922 65.8145 58.228 65.8199 58.2637 65.817C58.2994 65.8141 58.3339 65.803 58.3646 65.7847L58.3729 65.8014ZM70.7551 54.1532C70.7215 54.1361 70.6843 54.1272 70.6466 54.1272C70.609 54.1272 70.5718 54.1361 70.5382 54.1532L69.1927 54.9288C69.1343 54.9622 69.1371 55.0178 69.1927 55.0539L70.7523 55.9546C70.7854 55.9717 70.8221 55.9806 70.8593 55.9806C70.8965 55.9806 70.9332 55.9717 70.9663 55.9546L72.3146 55.1762C72.373 55.1456 72.3702 55.09 72.3146 55.0539L70.7551 54.1532ZM51.2673 72.4734L52.6156 71.6977C52.6739 71.6644 52.6684 71.6088 52.6156 71.5727L51.0588 70.6719C51.0252 70.6548 50.988 70.6459 50.9503 70.6459C50.9127 70.6459 50.8755 70.6548 50.8419 70.6719L49.4881 71.4309C49.4325 71.4614 49.4352 71.517 49.4881 71.5532L51.0476 72.4539C51.0802 72.4709 51.1162 72.4801 51.153 72.4806C51.1897 72.481 51.226 72.4729 51.2589 72.4567L51.2673 72.4734ZM75.4255 58.5261L76.7738 57.7477C76.8321 57.7143 76.8266 57.6587 76.7738 57.6254L75.217 56.7247C75.1834 56.7076 75.1462 56.6987 75.1085 56.6987C75.0709 56.6987 75.0337 56.7076 75.0001 56.7247L73.6546 57.5031C73.5962 57.5364 73.599 57.592 73.6546 57.6282L75.2142 58.5289C75.2474 58.5406 75.2828 58.545 75.3178 58.5416C75.3529 58.5382 75.3867 58.5273 75.4171 58.5094L75.4255 58.5261ZM71.2304 58.3788L72.5787 57.6004C72.6343 57.567 72.6316 57.5114 72.5787 57.4753L71.0192 56.5773C70.9861 56.5603 70.9494 56.5514 70.9121 56.5514C70.8749 56.5514 70.8382 56.5603 70.8051 56.5773L69.4568 57.3557C69.3984 57.3891 69.404 57.4447 69.4568 57.4808L71.0136 58.3788C71.0473 58.392 71.0837 58.3973 71.1198 58.3944C71.1559 58.3916 71.1909 58.3805 71.2221 58.3621L71.2304 58.3788ZM72.9818 55.4403C72.9483 55.4232 72.9111 55.4143 72.8734 55.4143C72.8357 55.4143 72.7986 55.4232 72.765 55.4403L71.4195 56.2187C71.3611 56.2521 71.3639 56.3077 71.4195 56.3438L72.9791 57.2417C73.0122 57.2588 73.0489 57.2677 73.0861 57.2677C73.1233 57.2677 73.16 57.2588 73.1931 57.2417L74.5414 56.4634C74.5998 56.43 74.597 56.3744 74.5414 56.3382L72.9818 55.4403ZM73.3961 55.1985L77.1824 57.3863C77.2157 57.4027 77.2523 57.4113 77.2895 57.4113C77.3266 57.4113 77.3632 57.4027 77.3965 57.3863L78.7448 56.6079C78.8004 56.5745 78.7976 56.519 78.7448 56.4856L74.9584 54.2977C74.9251 54.2813 74.8885 54.2728 74.8514 54.2728C74.8143 54.2728 74.7776 54.2813 74.7444 54.2977L73.3961 55.0761C73.3238 55.0928 73.3266 55.1484 73.3961 55.1818V55.1985ZM68.8257 57.7005L67.4774 58.4789C67.4218 58.5122 67.4246 58.5678 67.4774 58.604L69.037 59.5019C69.0701 59.519 69.1068 59.5279 69.144 59.5279C69.1813 59.5279 69.218 59.519 69.2511 59.5019L70.5994 58.7235C70.6578 58.6901 70.6522 58.6345 70.5994 58.5984L69.0426 57.7005C69.0086 57.6807 68.9703 57.6695 68.931 57.6681C68.8918 57.6666 68.8527 57.6749 68.8174 57.6921L68.8257 57.7005ZM53.9917 66.2517L52.6434 67.0301C52.585 67.0635 52.5905 67.1191 52.6434 67.1552L54.2002 68.056C54.2337 68.073 54.2709 68.0819 54.3086 68.0819C54.3463 68.0819 54.3834 68.073 54.417 68.056L55.7625 67.2775C55.8209 67.2442 55.8181 67.1914 55.7625 67.1552L54.2141 66.2573C54.1801 66.2386 54.1422 66.2284 54.1035 66.2274C54.0648 66.2265 54.0265 66.2348 53.9917 66.2517ZM73.232 59.6437C73.2656 59.6608 73.3028 59.6697 73.3405 59.6697C73.3781 59.6697 73.4153 59.6608 73.4489 59.6437L74.7972 58.8653C74.8528 58.8347 74.85 58.7791 74.7972 58.743L73.2293 57.8367C73.196 57.8202 73.1594 57.8117 73.1222 57.8117C73.0851 57.8117 73.0485 57.8202 73.0152 57.8367L71.6669 58.6151C71.6085 58.6484 71.6141 58.704 71.6669 58.7402L73.232 59.6437ZM55.9599 65.1147L54.6144 65.8931C54.556 65.9265 54.5588 65.9821 54.6144 66.0182L56.174 66.9189C56.2073 66.9354 56.2439 66.9439 56.281 66.9439C56.3181 66.9439 56.3547 66.9354 56.388 66.9189L57.7363 66.1405C57.7947 66.1072 57.7919 66.0516 57.7363 66.0182L56.1795 65.1175C56.1458 65.0995 56.1083 65.0899 56.0701 65.0894C56.0318 65.0889 55.9941 65.0976 55.9599 65.1147ZM41.1953 78.1307C41.2286 78.1471 41.2652 78.1556 41.3024 78.1556C41.3395 78.1556 41.3761 78.1471 41.4094 78.1307L42.7577 77.3523C42.8133 77.3189 42.8105 77.2633 42.7577 77.23L41.1981 76.3292C41.165 76.3122 41.1283 76.3033 41.0911 76.3033C41.0538 76.3033 41.0171 76.3122 40.984 76.3292L39.6357 77.1076C39.5801 77.141 39.5829 77.1966 39.6357 77.2327L41.1953 78.1307ZM38.2318 75.3507L36.8835 76.1263C36.8252 76.1597 36.8279 76.2152 36.8835 76.2514L38.4403 77.1521C38.4739 77.1692 38.5111 77.1781 38.5488 77.1781C38.5864 77.1781 38.6236 77.1692 38.6572 77.1521L40.0027 76.3737C40.0611 76.3431 40.0583 76.2875 40.0027 76.2514L38.4459 75.3507C38.4128 75.3336 38.3761 75.3247 38.3389 75.3247C38.3016 75.3247 38.2649 75.3336 38.2318 75.3507ZM43.3721 77.0187L44.7176 76.2403C44.776 76.2069 44.7732 76.1513 44.7176 76.1152L43.158 75.2172C43.1249 75.2002 43.0882 75.1913 43.051 75.1913C43.0137 75.1913 42.977 75.2002 42.9439 75.2172L41.5956 75.9956C41.5373 76.029 41.54 76.0846 41.5956 76.1207L43.1524 77.0187C43.1864 77.0362 43.224 77.0454 43.2623 77.0454C43.3005 77.0454 43.3381 77.0362 43.3721 77.0187ZM45.3403 75.8817L46.6886 75.1032C46.747 75.0699 46.7414 75.0143 46.6886 74.9782L45.1318 74.0802C45.0982 74.0631 45.0611 74.0542 45.0234 74.0542C44.9857 74.0542 44.9486 74.0631 44.915 74.0802L43.5667 74.8586C43.5111 74.892 43.5138 74.9476 43.5667 74.9837L45.1262 75.8817C45.1613 75.8985 45.2 75.9062 45.2389 75.9043C45.2777 75.9024 45.3154 75.8908 45.3486 75.8705L45.3403 75.8817ZM47.3113 74.7446L48.6596 73.9662C48.7152 73.9329 48.7124 73.8773 48.6596 73.8411L47.1 72.9404C47.0668 72.924 47.0301 72.9154 46.993 72.9154C46.9559 72.9154 46.9193 72.924 46.886 72.9404L45.5377 73.7188C45.4793 73.7522 45.4849 73.8078 45.5377 73.8411L47.0945 74.7418C47.1298 74.7591 47.1688 74.7673 47.2081 74.7659C47.2474 74.7644 47.2857 74.7533 47.3197 74.7335L47.3113 74.7446ZM40.1917 74.2248L38.8434 75.0032C38.7878 75.0365 38.7906 75.0921 38.8434 75.1283L40.403 76.029C40.4363 76.0454 40.4729 76.054 40.5101 76.054C40.5472 76.054 40.5838 76.0454 40.6171 76.029L41.9654 75.2506C42.0238 75.2172 42.0182 75.1616 41.9654 75.1283L40.4086 74.2275C40.3769 74.2102 40.3419 74.1999 40.3059 74.1975C40.2699 74.1951 40.2337 74.2006 40.2001 74.2137L40.1917 74.2248ZM42.1628 73.0877L40.8145 73.8662C40.7561 73.8995 40.7616 73.9551 40.8145 73.9912L42.3713 74.892C42.405 74.9084 42.4421 74.917 42.4797 74.917C42.5173 74.917 42.5543 74.9084 42.5881 74.892L43.9364 74.1136C43.992 74.0802 43.9892 74.0246 43.9364 73.9912L42.3768 73.0905C42.3459 73.0726 42.3112 73.0621 42.2756 73.0596C42.2399 73.0572 42.2042 73.063 42.1711 73.0766L42.1628 73.0877ZM50.0441 68.5285L48.6985 69.307C48.6402 69.3403 48.6429 69.3959 48.6985 69.4293L50.2581 70.33C50.2912 70.3471 50.3279 70.356 50.3652 70.356C50.4024 70.356 50.4391 70.3471 50.4722 70.33L51.8205 69.5516C51.8789 69.5182 51.8761 69.4626 51.8205 69.4265L50.2637 68.5258C50.2293 68.5093 50.1916 68.501 50.1535 68.5015C50.1155 68.5019 50.078 68.5112 50.0441 68.5285ZM48.0758 69.6656L46.7275 70.444C46.6691 70.4773 46.6747 70.5329 46.7275 70.5663L48.2843 71.467C48.3179 71.4841 48.3551 71.493 48.3927 71.493C48.4304 71.493 48.4676 71.4841 48.5012 71.467L49.8495 70.6886C49.9051 70.6553 49.9023 70.5996 49.8495 70.5635L48.2899 69.6628C48.2571 69.6477 48.2214 69.6401 48.1853 69.6406C48.1492 69.641 48.1137 69.6496 48.0814 69.6656H48.0758ZM52.0151 67.3915L50.6668 68.1699C50.6112 68.2005 50.614 68.2561 50.6668 68.2922L52.2264 69.193C52.2595 69.21 52.2962 69.2189 52.3334 69.2189C52.3706 69.2189 52.4073 69.21 52.4404 69.193L53.7887 68.4174C53.8443 68.384 53.8415 68.3284 53.7887 68.2922L52.2291 67.3915C52.1968 67.3754 52.1611 67.367 52.1249 67.367C52.0887 67.367 52.053 67.3754 52.0206 67.3915H52.0151ZM44.1366 71.9396L42.7883 72.718C42.7299 72.7514 42.7327 72.807 42.7883 72.8431L44.3478 73.741C44.3809 73.7581 44.4176 73.767 44.4549 73.767C44.4921 73.767 44.5288 73.7581 44.5619 73.741L45.9102 72.9627C45.9686 72.9293 45.9658 72.8737 45.9102 72.8375L44.3506 71.9396C44.3182 71.9235 44.2826 71.9151 44.2464 71.9151C44.2102 71.9151 44.1745 71.9235 44.1421 71.9396H44.1366ZM46.1048 70.8026L44.7565 71.581C44.7009 71.6144 44.7037 71.67 44.7565 71.7061L46.3161 72.604C46.3492 72.6211 46.3859 72.63 46.4231 72.63C46.4604 72.63 46.497 72.6211 46.5301 72.604L47.8784 71.8256C47.9368 71.7923 47.9313 71.7367 47.8784 71.7005L46.3189 70.8026C46.2865 70.7864 46.2508 70.778 46.2146 70.778C46.1784 70.778 46.1427 70.7864 46.1104 70.8026H46.1048ZM44.6675 78.8312L46.0158 78.0528C46.0714 78.0195 46.0687 77.9639 46.0158 77.9305L44.4535 77.0187C44.4204 77.0016 44.3837 76.9927 44.3465 76.9927C44.3092 76.9927 44.2725 77.0016 44.2394 77.0187L42.8911 77.7971C42.8327 77.8304 42.8383 77.886 42.8911 77.9222L44.4479 78.8229C44.4821 78.842 44.5204 78.8527 44.5595 78.8542C44.5987 78.8556 44.6376 78.8478 44.6731 78.8312H44.6675ZM33.1055 77.6636L31.5487 76.7657C31.5151 76.7486 31.478 76.7397 31.4403 76.7397C31.4026 76.7397 31.3655 76.7486 31.3319 76.7657L29.9836 77.5441C29.928 77.5775 29.9308 77.633 29.9836 77.6692L31.5432 78.5671C31.5763 78.5842 31.613 78.5931 31.6502 78.5931C31.6874 78.5931 31.7241 78.5842 31.7572 78.5671L33.1055 77.7887C33.1778 77.7554 33.1722 77.6998 33.1111 77.6636H33.1055ZM36.0579 78.531L34.5011 77.6303C34.4673 77.6138 34.4302 77.6052 34.3927 77.6052C34.3551 77.6052 34.318 77.6138 34.2842 77.6303L32.2104 78.8257C32.1548 78.859 32.1575 78.9146 32.2104 78.9508L33.7699 79.8515C33.803 79.8686 33.8397 79.8775 33.877 79.8775C33.9142 79.8775 33.9509 79.8686 33.984 79.8515L36.0579 78.6561C36.1441 78.6227 36.1246 78.5671 36.0634 78.531H36.0579ZM30.7147 75.9261L29.1579 75.0254C29.1243 75.0083 29.0872 74.9994 29.0495 74.9994C29.0118 74.9994 28.9747 75.0083 28.9411 75.0254L27.2731 75.9845C27.2175 76.0179 27.2203 76.0735 27.2731 76.1068L28.8327 77.0075C28.8658 77.0246 28.9025 77.0335 28.9397 77.0335C28.9769 77.0335 29.0136 77.0246 29.0467 77.0075L30.7147 76.0485C30.787 76.0151 30.7814 75.9595 30.7203 75.9261H30.7147ZM31.988 75.1894C32.0211 75.2065 32.0578 75.2154 32.095 75.2154C32.1322 75.2154 32.1689 75.2065 32.202 75.1894L33.5503 74.411C33.6059 74.3777 33.6031 74.3221 33.5503 74.2859L31.988 73.4047C31.9549 73.3876 31.9182 73.3787 31.8809 73.3787C31.8437 73.3787 31.807 73.3876 31.7739 73.4047L30.4256 74.1831C30.37 74.2164 30.3728 74.272 30.4256 74.3082L31.988 75.1894ZM38.8101 79.5207L37.2561 78.6172C37.223 78.6001 37.1863 78.5912 37.149 78.5912C37.1118 78.5912 37.0751 78.6001 37.042 78.6172L34.4483 80.1128C34.3927 80.1462 34.3954 80.2018 34.4483 80.2379L36.0078 81.1358C36.0409 81.1529 36.0776 81.1618 36.1149 81.1618C36.1521 81.1618 36.1888 81.1529 36.2219 81.1358L38.8129 79.6402C38.874 79.6096 38.8712 79.554 38.8101 79.5207ZM40.1028 81.3443L38.5432 80.4436C38.5099 80.4272 38.4733 80.4187 38.4362 80.4187C38.3991 80.4187 38.3624 80.4272 38.3291 80.4436L36.6611 81.4C36.6055 81.4333 36.6083 81.4889 36.6611 81.525L38.2207 82.4258C38.254 82.4422 38.2906 82.4507 38.3278 82.4507C38.3649 82.4507 38.4015 82.4422 38.4348 82.4258L40.1028 81.4695C40.1667 81.4333 40.1639 81.3777 40.1028 81.3416V81.3443ZM46.6386 66.7327C46.6723 66.7491 46.7094 66.7577 46.747 66.7577C46.7846 66.7577 46.8216 66.7491 46.8554 66.7327L48.2037 65.9543C48.2593 65.9209 48.2565 65.8653 48.2037 65.832L46.6441 64.9312C46.611 64.9142 46.5743 64.9053 46.5371 64.9053C46.4999 64.9053 46.4632 64.9142 46.4301 64.9312L45.0818 65.7096C45.0234 65.743 45.0289 65.7986 45.0818 65.8347L46.6386 66.7327ZM42.6993 69.0067C42.7329 69.0238 42.77 69.0327 42.8077 69.0327C42.8454 69.0327 42.8826 69.0238 42.9161 69.0067L44.2617 68.2283C44.32 68.1977 44.3173 68.1421 44.2617 68.106L42.7021 67.2053C42.6688 67.1888 42.6322 67.1803 42.5951 67.1803C42.5579 67.1803 42.5213 67.1888 42.488 67.2053L41.1481 67.9837C41.0897 68.017 41.0925 68.0726 41.1481 68.1088L42.6993 69.0067ZM33.9618 74.0496C33.9954 74.0667 34.0325 74.0756 34.0702 74.0756C34.1079 74.0756 34.145 74.0667 34.1786 74.0496L35.5241 73.2712C35.5825 73.2379 35.5797 73.1823 35.5241 73.1461L33.9645 72.2482C33.9315 72.2311 33.8948 72.2222 33.8575 72.2222C33.8203 72.2222 33.7836 72.2311 33.7505 72.2482L32.4022 73.0266C32.3438 73.06 32.3494 73.1155 32.4022 73.1517L33.9618 74.0496ZM44.6703 67.8697C44.7036 67.8861 44.7402 67.8947 44.7774 67.8947C44.8145 67.8947 44.8511 67.8861 44.8844 67.8697L46.2327 67.0913C46.2911 67.0579 46.2855 67.0023 46.2327 66.969L44.6759 66.0682C44.6423 66.0512 44.6052 66.0423 44.5675 66.0423C44.5298 66.0423 44.4926 66.0512 44.459 66.0682L43.1107 66.8467C43.0551 66.88 43.0579 66.9356 43.1107 66.9717L44.6703 67.8697ZM40.7311 70.1437C40.7642 70.1608 40.8009 70.1697 40.8381 70.1697C40.8753 70.1697 40.912 70.1608 40.9451 70.1437L42.2934 69.3681C42.349 69.3348 42.3462 69.2792 42.2934 69.243L40.7338 68.3423C40.7007 68.3252 40.6641 68.3163 40.6268 68.3163C40.5896 68.3163 40.5529 68.3252 40.5198 68.3423L39.1715 69.1207C39.1159 69.1513 39.1187 69.2069 39.1715 69.243L40.7311 70.1437ZM41.187 81.4861C41.1534 81.469 41.1162 81.4601 41.0786 81.4601C41.0409 81.4601 41.0037 81.469 40.9701 81.4861L38.8963 82.6843C38.8407 82.7177 38.8434 82.7733 38.8963 82.8066L40.4558 83.7073C40.4889 83.7244 40.5256 83.7333 40.5629 83.7333C40.6001 83.7333 40.6368 83.7244 40.6699 83.7073L42.7438 82.5092C42.7994 82.4758 42.7966 82.4202 42.7438 82.3841L41.187 81.4861ZM37.9038 71.7756C37.9371 71.792 37.9737 71.8006 38.0108 71.8006C38.048 71.8006 38.0846 71.792 38.1179 71.7756L39.4662 70.9972C39.5218 70.9638 39.519 70.9082 39.4662 70.8721L37.9066 69.9714C37.8733 69.9549 37.8367 69.9464 37.7996 69.9464C37.7624 69.9464 37.7258 69.9549 37.6925 69.9714L36.3442 70.7498C36.2886 70.7831 36.2914 70.8387 36.3442 70.8721L37.9038 71.7756ZM35.9328 72.9126C35.9659 72.9297 36.0026 72.9386 36.0398 72.9386C36.0771 72.9386 36.1137 72.9297 36.1468 72.9126L37.4951 72.1342C37.5535 72.1008 37.5507 72.0453 37.4951 72.0091L35.9383 71.1084C35.9046 71.0919 35.8675 71.0834 35.8299 71.0834C35.7924 71.0834 35.7553 71.0919 35.7215 71.1084L34.376 71.8868C34.3176 71.9202 34.3204 71.9758 34.376 72.0091L35.9328 72.9126ZM77.6828 60.4026C77.6497 60.3855 77.613 60.3766 77.5758 60.3766C77.5386 60.3766 77.5019 60.3855 77.4688 60.4026L74.1494 62.318C74.0938 62.3514 74.0966 62.407 74.1494 62.4431L75.709 63.3439C75.7423 63.3603 75.7789 63.3688 75.816 63.3688C75.8532 63.3688 75.8898 63.3603 75.9231 63.3439L79.248 61.4507C79.3063 61.4173 79.3036 61.3617 79.248 61.3284L77.6828 60.4026ZM73.3266 62.9046C73.2933 62.8882 73.2566 62.8796 73.2195 62.8796C73.1824 62.8796 73.1458 62.8882 73.1125 62.9046L71.7642 63.683C71.7086 63.7164 71.7114 63.772 71.7642 63.8053L73.3238 64.706C73.3571 64.7225 73.3937 64.731 73.4308 64.731C73.4679 64.731 73.5046 64.7225 73.5378 64.706L74.8861 63.9277C74.9417 63.8943 74.939 63.8387 74.8861 63.8025L73.3266 62.9046ZM46.6386 77.6692L47.9869 76.8908C48.0452 76.8574 48.0425 76.8018 47.9869 76.7685L46.4301 75.9067C46.397 75.8896 46.3603 75.8807 46.323 75.8807C46.2858 75.8807 46.2491 75.8896 46.216 75.9067L44.8677 76.6851C44.8093 76.7184 44.8121 76.774 44.8677 76.8102L46.4273 77.7109C46.4618 77.7248 46.4991 77.7305 46.5363 77.7276C46.5734 77.7247 46.6094 77.7133 46.6413 77.6942L46.6386 77.6692ZM69.3845 65.1814C69.3514 65.1644 69.3147 65.1555 69.2775 65.1555C69.2403 65.1555 69.2036 65.1644 69.1705 65.1814L67.8222 65.9598C67.7638 65.9932 67.7693 66.0488 67.8222 66.0849L69.379 66.9829C69.4125 67 69.4497 67.0089 69.4874 67.0089C69.5251 67.0089 69.5622 67 69.5958 66.9829L70.9441 66.2045C70.9997 66.1711 70.9969 66.1155 70.9441 66.0794L69.3845 65.1814ZM79.6511 59.2545C79.6175 59.2374 79.5803 59.2285 79.5426 59.2285C79.505 59.2285 79.4678 59.2374 79.4342 59.2545L78.0859 60.0329C78.0303 60.0662 78.0331 60.1218 78.0859 60.158L79.6455 61.0559C79.6786 61.073 79.7153 61.0819 79.7525 61.0819C79.7898 61.0819 79.8265 61.073 79.8596 61.0559L81.2079 60.2775C81.2662 60.2442 81.2607 60.1885 81.2079 60.1524L79.6511 59.2545ZM83.1789 59.0154L79.3925 56.8303C79.3594 56.8132 79.3227 56.8043 79.2855 56.8043C79.2483 56.8043 79.2116 56.8132 79.1785 56.8303L77.8302 57.6087C77.7718 57.6393 77.7773 57.6949 77.8302 57.731L81.6137 59.9161C81.6473 59.9332 81.6845 59.9421 81.7222 59.9421C81.7598 59.9421 81.797 59.9332 81.8306 59.9161L83.1789 59.1377C83.2456 59.1321 83.2428 59.0765 83.1817 59.0404L83.1789 59.0154ZM62.0231 69.4293C61.9898 69.4128 61.9532 69.4043 61.9161 69.4043C61.8789 69.4043 61.8423 69.4128 61.809 69.4293L60.141 70.3856C60.0826 70.419 60.0882 70.4745 60.141 70.5107L61.6978 71.4114C61.7316 71.4279 61.7687 71.4364 61.8062 71.4364C61.8438 71.4364 61.8809 71.4279 61.9147 71.4114L63.5827 70.4551C63.6383 70.4217 63.6355 70.3661 63.5827 70.33L62.0231 69.4293ZM67.0021 66.5825C66.969 66.5655 66.9323 66.5566 66.895 66.5566C66.8578 66.5566 66.8211 66.5655 66.788 66.5825L64.7141 67.7807C64.6585 67.8141 64.6613 67.8697 64.7141 67.9058L66.2737 68.8038C66.3068 68.8208 66.3435 68.8297 66.3807 68.8297C66.418 68.8297 66.4547 68.8208 66.4878 68.8038L68.5616 67.6056C68.6172 67.5722 68.6145 67.5166 68.5616 67.4833L67.0021 66.5825ZM57.4639 72.0897C57.4308 72.0727 57.3941 72.0638 57.3568 72.0638C57.3196 72.0638 57.2829 72.0727 57.2498 72.0897L46.1548 78.4837C46.0965 78.5171 46.102 78.5727 46.1548 78.6088L47.7116 79.5095C47.7454 79.526 47.7825 79.5346 47.8201 79.5346C47.8576 79.5346 47.8947 79.526 47.9285 79.5095L59.0207 73.1155C59.0791 73.0822 59.0763 73.0266 59.0207 72.9932L57.4639 72.0897ZM45.749 78.8535C45.7154 78.8364 45.6782 78.8275 45.6405 78.8275C45.6029 78.8275 45.5657 78.8364 45.5321 78.8535L43.8641 79.8098C43.8085 79.8432 43.8113 79.8987 43.8641 79.9349L45.4237 80.8328C45.4568 80.8499 45.4935 80.8588 45.5307 80.8588C45.568 80.8588 45.6047 80.8499 45.6378 80.8328L47.3058 79.8737C47.3641 79.8431 47.3586 79.7875 47.3058 79.7514L45.749 78.8535ZM59.7463 70.772C59.7127 70.7549 59.6755 70.746 59.6378 70.746C59.6002 70.746 59.563 70.7549 59.5294 70.772L57.8614 71.7283C57.803 71.7617 57.8058 71.8173 57.8614 71.8534L59.421 72.7514C59.4541 72.7684 59.4908 72.7773 59.528 72.7773C59.5653 72.7773 59.602 72.7684 59.6351 72.7514L61.3031 71.7923C61.3614 71.7617 61.3559 71.7061 61.3031 71.67L59.7463 70.772ZM43.4666 80.1712C43.4335 80.1541 43.3968 80.1452 43.3596 80.1452C43.3223 80.1452 43.2856 80.1541 43.2525 80.1712L41.5845 81.1303C41.5261 81.1637 41.5317 81.2192 41.5845 81.2554L43.1413 82.1533C43.1749 82.1704 43.2121 82.1793 43.2497 82.1793C43.2874 82.1793 43.3246 82.1704 43.3582 82.1533L45.0262 81.1942C45.0845 81.1609 45.0818 81.1053 45.0262 81.0719L43.4666 80.1712ZM64.3166 68.1393C64.283 68.1223 64.2458 68.1134 64.2082 68.1134C64.1705 68.1134 64.1333 68.1223 64.0997 68.1393L62.4317 69.0985C62.3734 69.1318 62.3761 69.1874 62.4317 69.2208L63.9913 70.1215C64.0246 70.1379 64.0612 70.1465 64.0984 70.1465C64.1355 70.1465 64.1721 70.1379 64.2054 70.1215L65.8734 69.1624C65.9318 69.129 65.9262 69.0734 65.8734 69.0373L64.3166 68.1393ZM71.3667 64.0667C71.3329 64.0502 71.2958 64.0416 71.2582 64.0416C71.2207 64.0416 71.1836 64.0502 71.1498 64.0667L69.8043 64.845C69.7459 64.8784 69.7487 64.934 69.8043 64.9674L71.3639 65.8681C71.397 65.8852 71.4337 65.8941 71.4709 65.8941C71.5082 65.8941 71.5448 65.8852 71.5779 65.8681L72.9262 65.0897C72.9846 65.0563 72.9818 65.0007 72.9262 64.9646L71.3667 64.0667ZM75.684 60.9336L77.0295 60.1552C77.0879 60.1218 77.0851 60.0662 77.0295 60.0301L75.4699 59.1322C75.4368 59.1151 75.4002 59.1062 75.3629 59.1062C75.3257 59.1062 75.289 59.1151 75.2559 59.1322L73.9076 59.9105C73.8492 59.9439 73.852 59.9995 73.9076 60.0357L75.4644 60.9336C75.4972 60.9498 75.5334 60.9582 75.57 60.9582C75.6067 60.9582 75.6428 60.9498 75.6757 60.9336H75.684ZM66.8742 60.8752L68.2225 60.0968C68.2809 60.0662 68.2753 60.0106 68.2225 59.9745L66.6657 59.0738C66.6319 59.0573 66.5948 59.0487 66.5573 59.0487C66.5197 59.0487 66.4826 59.0573 66.4488 59.0738L65.1005 59.8522C65.0449 59.8855 65.0477 59.9411 65.1005 59.9773L66.6601 60.878C66.6923 60.8933 66.7276 60.901 66.7633 60.9005C66.799 60.9 66.834 60.8914 66.8658 60.8752H66.8742ZM62.4262 68.5953L66.3654 66.3212C66.421 66.2879 66.4183 66.2323 66.3654 66.1961L64.7781 65.2954C64.7448 65.279 64.7082 65.2704 64.671 65.2704C64.6339 65.2704 64.5973 65.279 64.564 65.2954L60.622 67.5667C60.5636 67.6 60.5664 67.6556 60.622 67.6918L62.1788 68.5897C62.2129 68.6091 62.2514 68.6197 62.2907 68.6207C62.3299 68.6216 62.3688 68.6129 62.4039 68.5953H62.4262ZM73.5128 62.065C73.5459 62.0821 73.5826 62.091 73.6199 62.091C73.6571 62.091 73.6938 62.0821 73.7269 62.065L75.0752 61.2867C75.1308 61.2533 75.128 61.1977 75.0752 61.1615L73.5156 60.2636C73.4825 60.2465 73.4458 60.2376 73.4086 60.2376C73.3713 60.2376 73.3346 60.2465 73.3015 60.2636L71.9532 61.042C71.8976 61.0754 71.9004 61.131 71.9532 61.1671L73.5128 62.065ZM71.5001 60.7862L72.8484 60.0079C72.904 59.9745 72.9012 59.9189 72.8484 59.8827L71.2888 58.982C71.2557 58.965 71.219 58.9561 71.1818 58.9561C71.1446 58.9561 71.1079 58.965 71.0748 58.982L69.7265 59.7604C69.6709 59.791 69.6736 59.8466 69.7265 59.8827L71.286 60.7835C71.3161 60.797 71.3487 60.8042 71.3817 60.8047C71.4146 60.8052 71.4474 60.7989 71.4779 60.7862H71.5001ZM60.4552 69.7323L61.8035 68.9539C61.8591 68.9205 61.8563 68.8649 61.8035 68.8316L60.2439 67.9308C60.2108 67.9138 60.1741 67.9049 60.1368 67.9049C60.0996 67.9049 60.0629 67.9138 60.0298 67.9308L58.6815 68.7092C58.6259 68.7426 58.6287 68.7982 58.6815 68.8344L60.2411 69.7351C60.2716 69.7477 60.3043 69.754 60.3373 69.7535C60.3703 69.753 60.4028 69.7458 60.4329 69.7323H60.4552ZM69.1566 64.581C69.1897 64.598 69.2264 64.6069 69.2636 64.6069C69.3008 64.6069 69.3375 64.598 69.3706 64.581L70.7189 63.8025C70.7773 63.7692 70.7745 63.7136 70.7189 63.6802L69.1593 62.7795C69.1261 62.7631 69.0894 62.7545 69.0523 62.7545C69.0152 62.7545 68.9786 62.7631 68.9453 62.7795L67.597 63.5579C67.5386 63.5913 67.5414 63.6469 67.597 63.683L69.1566 64.581ZM50.6056 75.423L51.9539 74.6445C52.0095 74.6112 52.0067 74.5556 51.9539 74.5195L50.3943 73.6215C50.3612 73.6044 50.3246 73.5955 50.2873 73.5955C50.2501 73.5955 50.2134 73.6044 50.1803 73.6215L48.832 74.3999C48.7736 74.4333 48.7792 74.4889 48.832 74.525L50.3888 75.423C50.4196 75.4362 50.4529 75.4427 50.4864 75.4423C50.5199 75.4418 50.553 75.4343 50.5834 75.4202L50.6056 75.423ZM52.5739 74.2859L53.9222 73.5075C53.9805 73.4742 53.9778 73.4186 53.9222 73.3824L52.3654 72.4817C52.3321 72.4653 52.2955 72.4567 52.2583 72.4567C52.2212 72.4567 52.1846 72.4653 52.1513 72.4817L50.803 73.2601C50.7446 73.2935 50.7474 73.3491 50.803 73.3824L52.3626 74.2832C52.3916 74.2955 52.4228 74.3019 52.4543 74.3019C52.4859 74.3019 52.5171 74.2955 52.5461 74.2832L52.5739 74.2859ZM48.6346 76.56L49.9829 75.7816C50.0413 75.7482 50.0357 75.6926 49.9829 75.6565L48.4261 74.7585C48.3925 74.7414 48.3554 74.7325 48.3177 74.7325C48.28 74.7325 48.2428 74.7414 48.2093 74.7585L46.861 75.5369C46.8054 75.5703 46.8081 75.6259 46.861 75.662L48.4205 76.56C48.4509 76.5731 48.4837 76.5797 48.5168 76.5792C48.5498 76.5787 48.5824 76.5712 48.6124 76.5572L48.6346 76.56ZM56.4937 72.0147L57.8392 71.239C57.8976 71.2057 57.8948 71.1501 57.8392 71.114L56.2796 70.2132C56.2465 70.1962 56.2098 70.1873 56.1726 70.1873C56.1353 70.1873 56.0986 70.1962 56.0655 70.2132L54.7172 70.9916C54.6589 71.0222 54.6644 71.0778 54.7172 71.114L56.274 72.0147C56.308 72.0322 56.3456 72.0414 56.3839 72.0414C56.4221 72.0414 56.4597 72.0322 56.4937 72.0147ZM54.5226 73.1545L55.8709 72.3761C55.9265 72.3427 55.9238 72.2871 55.8709 72.251L54.3114 71.3502C54.2781 71.3338 54.2415 71.3253 54.2043 71.3253C54.1672 71.3253 54.1306 71.3338 54.0973 71.3502L52.749 72.1287C52.6934 72.162 52.6962 72.2176 52.749 72.251L54.3086 73.1517C54.3423 73.1673 54.3791 73.1749 54.4163 73.1739C54.4534 73.1729 54.4898 73.1634 54.5226 73.1461V73.1545ZM58.4619 70.8777L59.8102 70.0992C59.8686 70.0659 59.863 70.0103 59.8102 69.9769L58.2534 69.0762C58.2196 69.0597 58.1826 69.0512 58.145 69.0512C58.1074 69.0512 58.0703 69.0597 58.0366 69.0762L56.691 69.8546C56.6327 69.888 56.6354 69.9436 56.691 69.9797L58.2506 70.8804C58.2844 70.8947 58.3209 70.9011 58.3575 70.8992C58.3941 70.8973 58.4298 70.8871 58.4619 70.8693V70.8777ZM67.4747 54.0531C67.5083 54.0702 67.5454 54.0791 67.5831 54.0791C67.6208 54.0791 67.6579 54.0702 67.6915 54.0531L69.0398 53.2747C69.0954 53.2441 69.0926 53.1885 69.0398 53.1524L68.6256 52.9133C68.592 52.8962 68.5548 52.8873 68.5172 52.8873C68.4795 52.8873 68.4423 52.8962 68.4087 52.9133L67.0604 53.6917C67.0048 53.7251 67.0076 53.7807 67.0604 53.8168L67.4747 54.0531ZM57.7836 60.3081C57.8167 60.3252 57.8534 60.3341 57.8906 60.3341C57.9279 60.3341 57.9645 60.3252 57.9976 60.3081L59.3459 59.5297C59.4015 59.4963 59.3988 59.4407 59.3459 59.4046L57.7864 58.5067C57.7533 58.4896 57.7166 58.4807 57.6793 58.4807C57.6421 58.4807 57.6054 58.4896 57.5723 58.5067L56.224 59.285C56.1684 59.3184 56.1712 59.374 56.224 59.4102L57.7836 60.3081ZM61.7201 58.0257C61.7532 58.0428 61.7899 58.0517 61.8271 58.0517C61.8643 58.0517 61.901 58.0428 61.9341 58.0257L63.2824 57.2473C63.3408 57.214 63.3352 57.1583 63.2824 57.1222L61.7256 56.2215C61.6919 56.205 61.6548 56.1965 61.6172 56.1965C61.5796 56.1965 61.5426 56.205 61.5088 56.2215L60.1605 56.9999C60.1049 57.0332 60.1077 57.0889 60.1605 57.1222L61.7201 58.0257ZM55.3733 61.6897C55.4071 61.7062 55.4442 61.7148 55.4817 61.7148C55.5193 61.7148 55.5564 61.7062 55.5902 61.6897L56.9385 60.9114C56.9941 60.878 56.9913 60.8224 56.9385 60.7862L55.3789 59.8855C55.3456 59.8691 55.309 59.8606 55.2719 59.8606C55.2347 59.8606 55.1981 59.8691 55.1648 59.8855L53.8165 60.6639C53.7581 60.6945 53.7637 60.7501 53.8165 60.7862L55.3733 61.6897ZM59.749 59.1627C59.7826 59.1798 59.8198 59.1887 59.8575 59.1887C59.8951 59.1887 59.9323 59.1798 59.9659 59.1627L61.3114 58.3843C61.3698 58.351 61.367 58.2954 61.3114 58.2592L59.7518 57.3613C59.7187 57.3442 59.682 57.3353 59.6448 57.3353C59.6076 57.3353 59.5709 57.3442 59.5378 57.3613L58.1895 58.1397C58.1311 58.1731 58.1339 58.2287 58.1895 58.2648L59.749 59.1627ZM51.4341 63.9527C51.4672 63.9697 51.5039 63.9786 51.5411 63.9786C51.5783 63.9786 51.615 63.9697 51.6481 63.9527L52.9964 63.1743C53.0548 63.1409 53.052 63.0853 52.9964 63.0492L51.4341 62.1679C51.401 62.1508 51.3643 62.1419 51.327 62.1419C51.2898 62.1419 51.2531 62.1508 51.22 62.1679L49.8717 62.9463C49.8133 62.9797 49.8161 63.0353 49.8717 63.0714L51.4341 63.9527ZM53.4079 62.8407C53.441 62.8577 53.4777 62.8666 53.5149 62.8666C53.5521 62.8666 53.5888 62.8577 53.6219 62.8407L54.9702 62.0623C55.0286 62.0289 55.023 61.9733 54.9702 61.9372L53.4106 61.0365C53.3774 61.02 53.3407 61.0115 53.3036 61.0115C53.2665 61.0115 53.2299 61.02 53.1966 61.0365L51.8483 61.8149C51.7927 61.8482 51.7955 61.9038 51.8483 61.9372L53.4079 62.8407ZM63.5354 56.3327C63.5685 56.3498 63.6052 56.3587 63.6424 56.3587C63.6797 56.3587 63.7164 56.3498 63.7495 56.3327L65.0978 55.5543C65.1561 55.5209 65.1534 55.4653 65.0978 55.4292L64.6835 55.1901C64.6504 55.173 64.6137 55.1641 64.5765 55.1641C64.5393 55.1641 64.5026 55.173 64.4695 55.1901L63.1212 55.9685C63.0628 56.0019 63.0684 56.0575 63.1212 56.0936L63.5354 56.3327ZM69.4457 52.9216C69.479 52.9381 69.5156 52.9466 69.5527 52.9466C69.5898 52.9466 69.6265 52.9381 69.6597 52.9216L71.008 52.1432C71.0664 52.1099 71.0636 52.0543 71.008 52.0209L70.5938 51.7818C70.5607 51.7648 70.524 51.7559 70.4868 51.7559C70.4496 51.7559 70.4129 51.7648 70.3798 51.7818L69.0315 52.5602C68.9731 52.5936 68.9786 52.6492 69.0315 52.6853L69.4457 52.9216ZM72.7205 54.812C72.7538 54.8285 72.7904 54.837 72.8275 54.837C72.8647 54.837 72.9013 54.8285 72.9346 54.812L74.2829 54.0336C74.3413 54.0003 74.3357 53.9447 74.2829 53.9113L72.7233 53.0106C72.6902 52.9935 72.6535 52.9846 72.6163 52.9846C72.579 52.9846 72.5423 52.9935 72.5092 53.0106L71.1609 53.789C71.1053 53.8224 71.1081 53.878 71.1609 53.9141L72.7205 54.812ZM77.6439 59.816L78.9922 59.0376C79.0506 59.0043 79.045 58.9487 78.9922 58.9125L77.4354 58.0118C77.4016 57.9953 77.3646 57.9868 77.327 57.9868C77.2894 57.9868 77.2523 57.9953 77.2186 58.0118L75.8703 58.7902C75.8147 58.8236 75.8174 58.8792 75.8703 58.9125L77.4298 59.8132C77.4643 59.8278 77.5017 59.8339 77.5389 59.831C77.5762 59.8281 77.6122 59.8163 77.6439 59.7966V59.816ZM65.5064 55.2012C65.5397 55.2177 65.5763 55.2262 65.6135 55.2262C65.6506 55.2262 65.6872 55.2177 65.7205 55.2012L67.0688 54.4228C67.1244 54.3895 67.1216 54.3339 67.0688 54.2977L66.6546 54.0587C66.6215 54.0416 66.5848 54.0327 66.5475 54.0327C66.5103 54.0327 66.4736 54.0416 66.4405 54.0587L65.0922 54.8371C65.0338 54.8704 65.0366 54.926 65.0922 54.9622L65.5064 55.2012ZM49.4658 65.1203C49.4994 65.1374 49.5366 65.1463 49.5742 65.1463C49.6119 65.1463 49.6491 65.1374 49.6827 65.1203L51.031 64.3419C51.0866 64.3085 51.0838 64.2529 51.031 64.2168L49.4714 63.3188C49.4383 63.3018 49.4016 63.2929 49.3644 63.2929C49.3271 63.2929 49.2904 63.3018 49.2573 63.3188L47.909 64.0972C47.8506 64.1306 47.8562 64.1862 47.909 64.2223L49.4658 65.1203Z" fill="#455A64"/>
<path d="M58.2032 76.9269L71.5055 69.2347C71.7304 69.1208 71.979 69.0615 72.2311 69.0615C72.4831 69.0615 72.7317 69.1208 72.9566 69.2347L80.585 73.6382C80.9853 73.8717 80.9853 74.247 80.585 74.4722L67.2799 82.1672C67.0553 82.2824 66.8066 82.3424 66.5543 82.3424C66.302 82.3424 66.0533 82.2824 65.8287 82.1672L58.2004 77.7637C57.8029 77.533 57.8029 77.1577 58.2032 76.9269Z" fill="#263238"/>
<path d="M61.1112 9.24724V11.2794L30.8342 28.7601C30.6257 28.8796 30.4561 28.7823 30.4561 28.5404L30.4784 27.8121C30.2979 27.7401 30.112 27.6824 29.9224 27.6397L20.854 32.8745C20.7436 32.947 20.6516 33.0444 20.5855 33.1588C20.5194 33.2732 20.4809 33.4014 20.4732 33.5333V34.3006C20.4668 34.4325 20.4292 34.561 20.3635 34.6756C20.2978 34.7901 20.2058 34.8874 20.0951 34.9595L19.0498 35.5627V33.5333C19.0562 33.4014 19.0937 33.2729 19.1595 33.1583C19.2252 33.0438 19.3172 32.9465 19.4279 32.8745L60.7331 9.02762C60.9416 8.90808 61.1112 9.00538 61.1112 9.24724Z" fill="#212121"/>
<path d="M61.114 39.677C61.1069 39.8087 61.0687 39.9368 61.0025 40.0508C60.9363 40.1649 60.844 40.2616 60.7331 40.3331L19.4279 64.1799C19.2194 64.3022 19.0498 64.2022 19.0498 63.9603V35.5626L20.0951 34.9593C20.3036 34.8398 20.6511 32.9967 20.854 32.8743L29.9224 27.6396C30.1309 27.5201 30.6257 28.8795 30.8342 28.7516L61.1112 11.2793V39.677H61.114Z" fill="#EBEBEB"/>
<path d="M20.8539 43.3472L38.9962 32.8638C39.2047 32.7415 39.3743 32.8416 39.3743 33.0834V50.9143C39.3679 51.0463 39.3303 51.1748 39.2646 51.2893C39.1989 51.4039 39.1069 51.5012 38.9962 51.5732L20.8539 62.0566C20.6454 62.1761 20.4758 62.0788 20.4758 61.837V44.006C20.4822 43.8741 20.5198 43.7456 20.5855 43.6311C20.6512 43.5165 20.7432 43.4192 20.8539 43.3472Z" fill="#FAFAFA"/>
<path d="M20.8539 38.6371L59.3097 16.4361C59.5182 16.3137 59.6877 16.4138 59.6877 16.6557V19.3273C59.6809 19.4587 59.6432 19.5867 59.5774 19.7007C59.5117 19.8147 59.42 19.9116 59.3097 19.9833L20.8539 42.1872C20.6454 42.3067 20.4758 42.2094 20.4758 41.9676V39.296C20.4822 39.1641 20.5198 39.0356 20.5855 38.921C20.6512 38.8065 20.7432 38.7092 20.8539 38.6371Z" fill="#455A64"/>
<path d="M45.4292 26.5667V27.2728C45.4292 27.4202 45.5321 27.4786 45.6572 27.4063L56.8355 20.9511V19.7168L45.6572 26.172C45.5909 26.2153 45.5358 26.2736 45.4962 26.3422C45.4566 26.4108 45.4337 26.4877 45.4292 26.5667Z" fill="#FAFAFA"/>
<path d="M58.0336 19.0247C58.1615 18.9524 58.2616 19.0247 58.2616 19.1554V19.8643C58.2576 19.9434 58.2348 20.0205 58.1952 20.0891C58.1555 20.1578 58.1002 20.216 58.0336 20.259L56.8354 20.9513V19.7169L58.0336 19.0247Z" fill="#212121"/>
<path d="M57.9476 19.9946L57.8114 19.9529C57.8258 19.8966 57.8332 19.8387 57.8336 19.7805C57.8387 19.7276 57.8301 19.6743 57.8087 19.6256C57.7872 19.577 57.7537 19.5346 57.7113 19.5025C57.6819 19.4849 57.6483 19.4756 57.614 19.4756C57.5797 19.4756 57.5461 19.4849 57.5167 19.5025C57.4296 19.5665 57.3589 19.6503 57.3106 19.747C57.2622 19.8437 57.2376 19.9505 57.2387 20.0585C57.2342 20.1114 57.243 20.1646 57.2644 20.2132C57.2858 20.2617 57.319 20.3042 57.361 20.3365C57.3874 20.351 57.4171 20.3587 57.4472 20.3588C57.4857 20.3576 57.5231 20.3461 57.5556 20.3254C57.6555 20.258 57.7314 20.1607 57.7725 20.0474L57.9059 20.0891H57.9198C57.9303 20.0896 57.9406 20.0866 57.9491 20.0805C57.9577 20.0745 57.964 20.0658 57.9671 20.0558C57.9715 20.0449 57.972 20.0328 57.9684 20.0217C57.9649 20.0105 57.9575 20.0009 57.9476 19.9946ZM57.5167 20.2504C57.5024 20.2589 57.4861 20.2635 57.4694 20.2635C57.4528 20.2635 57.4364 20.2589 57.4222 20.2504C57.3951 20.2251 57.3745 20.1938 57.3619 20.159C57.3493 20.1242 57.3452 20.0869 57.3499 20.0502C57.3487 19.9607 57.3676 19.872 57.4051 19.7907C57.4426 19.7095 57.4979 19.6376 57.5667 19.5804C57.5854 19.5693 57.6063 19.5627 57.6279 19.5609C57.6386 19.5569 57.6505 19.5569 57.6613 19.5609C57.7085 19.5859 57.7335 19.661 57.7335 19.7583C57.7395 19.8517 57.7229 19.9452 57.6851 20.0308C57.6474 20.1164 57.5896 20.1917 57.5167 20.2504Z" fill="#FAFAFA"/>
<path d="M61.1112 11.2793V13.7507L19.0498 38.034V35.5626L19.831 35.1122C20.0395 34.9899 20.109 34.8064 20.2091 34.4534L20.4732 33.5332C20.4885 33.4032 20.5302 33.2778 20.5957 33.1645C20.6612 33.0512 20.7491 32.9525 20.854 32.8743L29.9224 27.6396C29.9628 27.6036 30.0113 27.578 30.0637 27.565C30.1162 27.5519 30.1711 27.5518 30.2236 27.5647C30.2761 27.5775 30.3247 27.603 30.3652 27.6388C30.4057 27.6746 30.4369 27.7197 30.4561 27.7703L30.7814 28.3596C30.9009 28.5653 30.9593 28.6877 31.1678 28.5653L61.1112 11.2793Z" fill="#E6E6E6"/>
<path d="M59.332 10.5228C59.61 10.3699 59.8102 10.4922 59.8102 10.8008C59.8021 10.9677 59.7546 11.1303 59.6715 11.2753C59.5883 11.4203 59.472 11.5435 59.332 11.6348C59.054 11.7877 58.8511 11.6626 58.8511 11.3568C58.8588 11.1895 58.9064 11.0264 58.9901 10.8813C59.0738 10.7362 59.191 10.6133 59.332 10.5228Z" fill="#455A64"/>
<path d="M57.6085 11.516C57.8726 11.3631 58.0867 11.4854 58.0867 11.794C58.0786 11.9609 58.0311 12.1235 57.948 12.2685C57.8649 12.4135 57.7485 12.5367 57.6085 12.628C57.3305 12.7809 57.1304 12.6558 57.1304 12.35C57.1382 12.183 57.1856 12.0203 57.2688 11.8752C57.3519 11.7302 57.4684 11.6071 57.6085 11.516Z" fill="#455A64"/>
<path d="M55.882 12.5218C56.1461 12.3689 56.3601 12.4912 56.3601 12.7998C56.3521 12.9667 56.3045 13.1294 56.2214 13.2744C56.1383 13.4193 56.022 13.5425 55.882 13.6338C55.604 13.7867 55.4038 13.6616 55.4038 13.3558C55.4116 13.1888 55.4591 13.0261 55.5422 12.8811C55.6254 12.7361 55.7418 12.6129 55.882 12.5218Z" fill="#455A64"/>
<path opacity="0.5" d="M20.7929 35.7434L20.1952 36.0853L20.4231 35.6488C20.4319 35.6326 20.4365 35.6145 20.4365 35.596C20.4365 35.5776 20.4319 35.5594 20.4231 35.5432C20.4037 35.521 20.3731 35.5432 20.3536 35.5738L20.0312 36.1965V36.2187C20.0298 36.2298 20.0298 36.241 20.0312 36.2521C20.0297 36.2604 20.0297 36.2688 20.0312 36.2771V36.291L20.3536 36.5412C20.3588 36.5439 20.3645 36.5453 20.3703 36.5453C20.3761 36.5453 20.3819 36.5439 20.387 36.5412C20.4023 36.5283 20.4146 36.5121 20.4231 36.494C20.4325 36.4784 20.4374 36.4606 20.4374 36.4425C20.4374 36.4244 20.4325 36.4066 20.4231 36.3911L20.1952 36.2187L20.7929 35.874C20.8078 35.8614 20.8198 35.8456 20.828 35.8278C20.8361 35.8101 20.8403 35.7907 20.8401 35.7712C20.854 35.7461 20.8179 35.7267 20.7929 35.7434Z" fill="#455A64"/>
<path opacity="0.5" d="M21.2904 35.4546L21.8881 35.1098L21.6602 34.9347C21.6407 34.9208 21.6379 34.8735 21.6602 34.8346C21.6824 34.7957 21.7074 34.7735 21.7269 34.7874L22.0521 35.0376C22.0537 35.0468 22.0537 35.0562 22.0521 35.0654C22.0535 35.0764 22.0535 35.0876 22.0521 35.0987C22.0529 35.1061 22.0529 35.1136 22.0521 35.121L21.7269 35.7437C21.7197 35.758 21.7092 35.7704 21.6963 35.7798C21.6911 35.7837 21.6847 35.7857 21.6782 35.7857C21.6717 35.7857 21.6654 35.7837 21.6602 35.7798C21.6514 35.7636 21.6468 35.7454 21.6468 35.727C21.6468 35.7086 21.6514 35.6904 21.6602 35.6742L21.8881 35.2349L21.2904 35.5963C21.2626 35.613 21.2432 35.5963 21.2432 35.5519C21.2433 35.5331 21.2476 35.5147 21.2557 35.4978C21.2639 35.481 21.2758 35.4662 21.2904 35.4546Z" fill="#455A64"/>
<path opacity="0.5" d="M23.2476 33.736C23.2476 33.6999 23.2114 33.7054 23.1975 33.736L23.1141 33.9362C22.9751 33.9195 22.8055 34.0557 22.6916 34.2976C22.5442 34.6117 22.5442 34.9814 22.6916 35.1316C22.7286 35.1665 22.7767 35.1874 22.8275 35.1904C22.8784 35.1935 22.9286 35.1785 22.9696 35.1482C23.0924 35.0697 23.1891 34.9565 23.2476 34.823C23.267 34.7813 23.267 34.734 23.2476 34.7173C23.2281 34.7007 23.1975 34.7173 23.1808 34.7563C23.0696 34.9898 22.9028 35.0926 22.7805 34.987C22.7246 34.8943 22.6951 34.7881 22.6951 34.6798C22.6951 34.5715 22.7246 34.4653 22.7805 34.3726C22.8584 34.2058 22.9723 34.0946 23.0585 34.0946L22.9974 34.2447C22.9807 34.2837 22.9974 34.3226 23.0196 34.3059L23.2642 34.1474C23.2736 34.1391 23.2809 34.1288 23.2857 34.1172C23.2906 34.1057 23.2927 34.0932 23.292 34.0807L23.2476 33.736Z" fill="#455A64"/>
<path opacity="0.5" d="M29.6583 28.7683L29.8779 28.3068C29.8904 28.2853 29.8969 28.2608 29.8969 28.2359C29.8969 28.211 29.8904 28.1866 29.8779 28.165C29.8501 28.14 29.8084 28.165 29.7834 28.2179L29.5666 28.6793L29.3497 28.4681C29.3219 28.4458 29.283 28.4681 29.2552 28.5237C29.2428 28.5452 29.2362 28.5697 29.2362 28.5945C29.2362 28.6194 29.2428 28.6439 29.2552 28.6654L29.472 28.8767L29.2552 29.3354C29.2425 29.3574 29.2358 29.3823 29.2358 29.4077C29.2358 29.4331 29.2425 29.458 29.2552 29.48C29.2622 29.4848 29.2704 29.4873 29.2788 29.4873C29.2873 29.4873 29.2955 29.4848 29.3025 29.48C29.3229 29.4648 29.3392 29.4447 29.3497 29.4216L29.5666 28.9629L29.7834 29.1714C29.7865 29.1745 29.7902 29.177 29.7942 29.1787C29.7983 29.1803 29.8026 29.1812 29.807 29.1812C29.8114 29.1812 29.8158 29.1803 29.8198 29.1787C29.8239 29.177 29.8276 29.1745 29.8307 29.1714C29.8517 29.1581 29.8682 29.1387 29.8779 29.1158C29.8906 29.0938 29.8973 29.0689 29.8973 29.0435C29.8973 29.0181 29.8906 28.9932 29.8779 28.9712L29.6583 28.7683Z" fill="#455A64"/>
<path d="M24.0398 34.3038V33.5338C24.0461 33.4019 24.0837 33.2733 24.1495 33.1588C24.2152 33.0443 24.3072 32.947 24.4179 32.8749L58.5952 13.1536C58.8037 13.0341 58.9733 13.1314 58.9733 13.3732V14.1433C58.9669 14.2752 58.9293 14.4037 58.8636 14.5182C58.7979 14.6328 58.7059 14.7301 58.5952 14.8021L24.4179 34.5235C24.2094 34.643 24.0398 34.5457 24.0398 34.3038Z" fill="#FAFAFA"/>
<path d="M58.3841 13.5614L58.4842 13.7726C58.4885 13.776 58.4939 13.7779 58.4994 13.7779C58.505 13.7779 58.5104 13.776 58.5147 13.7726L58.7399 13.6865C58.7733 13.6865 58.79 13.7226 58.7622 13.7699L58.6009 14.0729C58.5959 14.092 58.5959 14.1121 58.6009 14.1313L58.6398 14.4093C58.6398 14.451 58.6065 14.5093 58.5759 14.5066L58.3757 14.4815C58.3678 14.4812 58.3599 14.483 58.353 14.487C58.3461 14.4909 58.3405 14.4967 58.3368 14.5038L58.1367 14.7595C58.1033 14.7985 58.0672 14.7846 58.0727 14.7345L58.1116 14.4176C58.1153 14.4108 58.1172 14.4031 58.1172 14.3954C58.1172 14.3876 58.1153 14.38 58.1116 14.3731L57.9476 14.2564C57.9226 14.2369 57.9476 14.1702 57.9726 14.1424L58.195 13.9728C58.2114 13.9591 58.223 13.9406 58.2284 13.92L58.3285 13.5947C58.3118 13.553 58.3563 13.528 58.3841 13.5614Z" stroke="#E0E0E0" stroke-width="0.75" stroke-miterlimit="10"/>
<g opacity="0.5">
<path d="M59.4209 13.0609C59.3978 13.0604 59.3752 13.054 59.3553 13.0423C59.3354 13.0306 59.3187 13.0141 59.3069 12.9942C59.2898 12.9636 59.2855 12.9274 59.2949 12.8936C59.3042 12.8598 59.3266 12.831 59.357 12.8135L60.4245 12.1964C60.4542 12.1843 60.4873 12.1833 60.5177 12.1936C60.5481 12.2039 60.5737 12.2249 60.5899 12.2526C60.6061 12.2802 60.6118 12.3129 60.606 12.3444C60.6001 12.3759 60.583 12.4043 60.5579 12.4243L59.496 13.0415C59.4739 13.0563 59.4474 13.0632 59.4209 13.0609Z" fill="#455A64"/>
<path d="M59.421 13.6781C59.3979 13.6776 59.3753 13.6712 59.3554 13.6595C59.3354 13.6478 59.3188 13.6313 59.307 13.6114C59.2986 13.5964 59.2932 13.58 59.2912 13.5629C59.2892 13.5459 59.2905 13.5286 59.2952 13.5121C59.2998 13.4956 59.3077 13.4801 59.3183 13.4666C59.3289 13.4531 59.3421 13.4419 59.357 13.4335L60.4246 12.8135C60.4543 12.8015 60.4874 12.8005 60.5178 12.8108C60.5481 12.8211 60.5738 12.842 60.59 12.8697C60.6062 12.8974 60.6119 12.93 60.606 12.9616C60.6001 12.9931 60.5831 13.0215 60.558 13.0415L59.496 13.6614C59.4731 13.6739 59.4471 13.6797 59.421 13.6781Z" fill="#455A64"/>
<path d="M59.421 14.2956C59.3921 14.2956 59.364 14.286 59.3411 14.2684C59.3182 14.2507 59.3018 14.2259 59.2945 14.198C59.2872 14.17 59.2894 14.1404 59.3007 14.1138C59.312 14.0872 59.3318 14.0651 59.3571 14.051L60.4246 13.4338C60.4394 13.4244 60.456 13.4182 60.4733 13.4156C60.4906 13.4129 60.5082 13.4138 60.5252 13.4182C60.5421 13.4227 60.558 13.4305 60.5718 13.4413C60.5855 13.4521 60.5969 13.4657 60.6053 13.4811C60.6226 13.5114 60.6274 13.5473 60.6185 13.5811C60.6097 13.6148 60.588 13.6438 60.558 13.6618L59.4961 14.2789C59.4731 14.2914 59.4471 14.2972 59.421 14.2956Z" fill="#455A64"/>
</g>
<path d="M29.1634 47.5505C30.6896 45.9965 31.0816 45.2904 31.0816 44.6677C31.0816 44.0449 30.8203 43.653 30.0085 44.1117C29.4353 44.432 29.0058 44.959 28.8076 45.5851C28.7568 45.7166 28.6769 45.835 28.5739 45.9313C28.4708 46.0276 28.3473 46.0993 28.2126 46.1411L27.1535 46.3746C26.9005 46.433 26.7309 46.2717 26.7921 46.0187C27.2563 44.1256 28.4267 42.3769 30.0697 41.429C32.0435 40.2892 33.1944 41.151 33.1944 43.0747C33.1944 44.9234 32.2214 46.4663 31.2484 47.5755C31.0671 47.8079 30.9614 48.0902 30.9454 48.3845V49.0128C30.9375 49.1536 30.8967 49.2906 30.8262 49.4128C30.7557 49.535 30.6575 49.6389 30.5395 49.7161L29.2385 50.4667C29.0133 50.5974 28.8326 50.4918 28.8326 50.2332V48.3373C28.8523 48.0455 28.9687 47.7687 29.1634 47.5505Z" fill="#455A64"/>
<path d="M28.8077 53.0741C28.8049 52.6881 28.9026 52.308 29.0912 51.9712C29.2798 51.6343 29.5529 51.3524 29.8835 51.1532C30.5813 50.7473 30.9455 51.1059 30.9455 51.8398C30.9512 52.2259 30.8563 52.6069 30.6701 52.9451C30.4839 53.2834 30.2128 53.5674 29.8835 53.7691C29.1691 54.1806 28.8077 53.808 28.8077 53.0741Z" fill="#455A64"/>
<path d="M71.9144 2.75905L70.8941 2.16413C70.7953 2.11656 70.6853 2.09686 70.5761 2.10715C70.4668 2.11744 70.3625 2.15732 70.2742 2.22251L44.8733 16.8842C44.6195 17.0496 44.4083 17.2725 44.2566 17.5348C44.105 17.797 44.0172 18.0913 44.0004 18.3938V54.9257C43.9907 55.0318 44.0083 55.1387 44.0516 55.236C44.0949 55.3334 44.1625 55.418 44.2478 55.4817L45.2765 56.0767L70.2631 40.7589C70.5165 40.5933 70.7274 40.3704 70.8786 40.1081C71.0297 39.8458 71.117 39.5516 71.1332 39.2493L71.9144 2.75905Z" fill="#212121"/>
<path opacity="0.15" d="M45.2598 56.0766L44.2451 55.4901C44.1594 55.4267 44.0918 55.3421 44.0489 55.2446C44.006 55.1471 43.9893 55.04 44.0004 54.9341V18.3937C44.012 18.0733 44.1079 17.7617 44.2784 17.4902L45.3182 18.0824C45.1466 18.3544 45.0507 18.6672 45.0402 18.9887V55.5234C45.0279 55.6266 45.0416 55.7312 45.08 55.8278C45.1183 55.9244 45.1801 56.0099 45.2598 56.0766Z" fill="black"/>
<path d="M45.8934 17.4819L71.2943 2.81735C71.7752 2.53935 72.1644 2.76454 72.1644 3.32054V39.8525C72.1482 40.1548 72.0609 40.449 71.9098 40.7113C71.7586 40.9735 71.5477 41.1965 71.2943 41.3621L45.8934 56.0266C45.4125 56.3046 45.0205 56.0794 45.0205 55.5234V18.9886C45.0377 18.6866 45.1257 18.3929 45.2773 18.1311C45.4289 17.8694 45.64 17.647 45.8934 17.4819Z" fill="#212121"/>
<path opacity="0.4" d="M70.894 2.16366L71.8892 2.73912C71.7928 2.70435 71.6895 2.69327 71.5878 2.70681C71.4862 2.72036 71.3894 2.75814 71.3054 2.81695L45.9046 17.4815C45.6629 17.6307 45.4615 17.8368 45.318 18.0819L44.2866 17.4898C44.43 17.2431 44.6313 17.0351 44.8732 16.8838L70.2602 2.23593C70.3486 2.17091 70.4531 2.13134 70.5624 2.12154C70.6717 2.11174 70.7816 2.13207 70.8801 2.18033L70.894 2.16366Z" fill="white"/>
<path d="M48.7764 18.9159L69.1176 7.17042C69.4818 6.95914 69.7765 7.1315 69.7765 7.55128V38.8013C69.7641 39.0301 69.698 39.2527 69.5835 39.4512C69.469 39.6497 69.3094 39.8185 69.1176 39.9438L48.7764 51.6671C48.4122 51.8756 48.1147 51.706 48.1147 51.2862V20.0641C48.1257 19.8338 48.1915 19.6096 48.3066 19.4099C48.4216 19.2102 48.5827 19.0409 48.7764 18.9159Z" fill="white"/>
<path d="M64.8948 25.7965L65.1005 25.6269C64.7609 25.2586 64.3198 24.9993 63.8328 24.8818L63.7661 25.1376C64.1978 25.2443 64.5896 25.473 64.8948 25.7965Z" fill="#37474F"/>
<path d="M65.3479 26.8335L64.9281 26.422C64.8287 26.3185 64.7732 26.1805 64.7732 26.037C64.7732 25.8935 64.8287 25.7555 64.9281 25.652C65.0316 25.5526 65.1696 25.4971 65.3131 25.4971C65.4566 25.4971 65.5946 25.5526 65.6981 25.652L66.1151 26.0634C66.2145 26.1669 66.27 26.3049 66.27 26.4484C66.27 26.592 66.2145 26.7299 66.1151 26.8335C66.0117 26.932 65.8744 26.987 65.7315 26.987C65.5886 26.987 65.4513 26.932 65.3479 26.8335Z" fill="#212121"/>
<mask id="mask0_1106_39087" style="mask-type:luminance" maskUnits="userSpaceOnUse" x="48" y="7" width="22" height="45">
<path d="M48.7764 18.9159L69.1176 7.17042C69.4818 6.95914 69.7765 7.1315 69.7765 7.55128V38.8013C69.7641 39.0301 69.698 39.2527 69.5835 39.4512C69.469 39.6497 69.3094 39.8185 69.1176 39.9438L48.7764 51.6671C48.4122 51.8756 48.1147 51.706 48.1147 51.2862V20.0641C48.1257 19.8338 48.1915 19.6096 48.3066 19.4099C48.4216 19.2102 48.5827 19.0409 48.7764 18.9159Z" fill="white"/>
</mask>
<g mask="url(#mask0_1106_39087)">
<path d="M69.0483 36.3348L69.9879 37.9416C69.9879 37.9416 76.1428 34.6779 76.4903 34.2498C76.8378 33.8216 76.8156 32.9571 76.8684 32.49C76.9546 31.7116 76.6683 31.0416 76.6266 30.7609C76.5571 30.2716 77.2604 30.2438 77.6079 30.9249C77.8637 31.4197 77.8859 31.9868 78.1027 31.9924C78.4133 31.7743 78.7027 31.5277 78.9673 31.2557C79.3482 30.8387 80.0376 30.1437 80.5603 30.2382C80.6491 30.2589 80.7297 30.3057 80.7916 30.3726C80.8535 30.4395 80.894 30.5234 80.9078 30.6135C80.9227 30.9009 80.9886 31.1832 81.1024 31.4475C81.1872 31.5478 81.2566 31.6603 81.3081 31.7811C81.3247 31.9605 81.3247 32.1411 81.3081 32.3204C81.3303 32.579 81.5861 32.6874 81.6139 32.9404C81.6059 33.1353 81.5845 33.3294 81.5499 33.5214C81.5499 33.6465 81.5889 33.7549 81.5889 33.88C81.5621 34.1369 81.4506 34.3775 81.2719 34.5639C80.7513 35.1705 80.1342 35.6871 79.4455 36.0929C78.8895 36.4599 78.1444 36.7851 77.4995 37.1298C76.8545 37.4746 69.6098 43.0401 68.6452 42.384C68.2504 42.106 67.2107 40.78 66.1182 39.2955" fill="#FFA8A7"/>
<path d="M65.8903 39.4876C64.7796 37.9415 63.7586 36.3329 62.8323 34.6698C61.7203 31.5562 62.9796 29.4824 62.9796 29.4824C62.9796 29.4824 64.5781 28.9875 65.9097 31.0892C66.4963 32.0149 68.0309 34.617 69.0372 36.3351" fill="#FFA8A7"/>
<path d="M60.1829 29.5297C60.1829 29.5297 61.9454 28.8152 63.088 28.8903C64.2305 28.9654 65.0757 29.2878 65.9152 30.6361C67.0272 32.4348 68.887 35.5428 68.887 35.5428C68.1011 37.1588 66.8465 38.5005 65.2869 39.3931L61.8731 34.2446L60.1829 29.5297Z" fill="#455A64"/>
<path d="M54.5894 32.6434C54.0016 33.1169 53.568 33.7546 53.344 34.4755C53.0833 35.3464 52.9558 36.2518 52.9659 37.1609V43.0128L52.8909 54.0883C56.6049 55.3532 61.3254 54.2385 65.2869 49.8349C65.2869 49.8349 65.0673 35.6569 65.0673 33.3412C65.0673 33.2356 65.0673 33.1299 65.0673 33.0215C64.9227 29.7383 62.0899 28.2149 59.2988 29.7939L56.9524 31.1172L54.5978 32.6434H54.5894Z" fill="#F0F0F0"/>
<path d="M55.882 19.1719C55.882 19.1719 54.0611 19.0301 53.658 20.7203C53.2883 22.2271 56.0349 28.1763 55.9738 28.0762C55.9126 27.9761 55.882 19.1719 55.882 19.1719Z" fill="#263238"/>
<path d="M62.3122 15.7688C62.3122 15.7688 61.6366 13.9507 58.3562 15.2434C56.6882 15.9022 56.0627 17.9678 56.0627 17.9678L62.3122 15.7688Z" fill="#212121"/>
<path opacity="0.4" d="M62.3122 15.7688C62.3122 15.7688 61.6366 13.9507 58.3562 15.2434C56.6882 15.9022 56.0627 17.9678 56.0627 17.9678L62.3122 15.7688Z" fill="black"/>
<path d="M57.1331 20.5978C57.1331 23.0998 58.8845 24.651 61.0473 24.07C63.2101 23.489 64.9615 21.012 64.9615 18.51C64.9615 16.008 63.0962 16.008 60.9333 16.5918C58.7705 17.1756 57.1331 18.1013 57.1331 20.5978Z" fill="#263238"/>
<path d="M55.0898 24.5508C55.0898 24.5508 55.6653 27.5254 55.896 27.9785C55.9656 28.1098 56.0669 28.2216 56.1907 28.3036C56.3145 28.3857 56.457 28.4354 56.6049 28.4483L56.566 26.2577L55.0898 24.5508Z" fill="#263238"/>
<path d="M55.8126 19.875C55.5846 19.912 55.3672 19.9976 55.1753 20.1262C54.9834 20.2548 54.8215 20.4232 54.7006 20.62C54.228 21.3067 54.4921 22.9914 55.0842 24.551L56.1684 24.4036L55.8126 19.875Z" fill="#263238"/>
<path d="M56.5021 24.3171C56.2825 24.5256 55.9739 24.1253 55.7042 23.8723C55.4346 23.6193 54.5589 23.4108 54.1196 24.5923C53.6804 25.7738 54.506 27.0081 55.1983 27.0748C56.3881 27.186 56.566 26.2575 56.566 26.2575L56.6049 31.3366C58.6038 33.4549 62.101 30.9585 60.5275 30.0216V28.5121C61.0736 28.4651 61.612 28.3531 62.1316 28.1785C63.0073 27.7865 63.5577 26.8441 63.8246 25.6765C64.2499 23.8056 64.4112 22.3405 64.0498 18.985C63.655 15.3043 59.8381 16.2884 57.7781 18.3373C55.7181 20.3862 56.5021 24.3171 56.5021 24.3171Z" fill="#FFA8A7"/>
<path d="M56.5021 24.7539C56.3909 24.7872 55.9739 24.1006 55.7042 23.8865C55.3289 23.5918 55.8126 19.8889 55.8126 19.8889C55.379 18.9325 56.1796 17.4897 57.0164 16.9031C57.6176 16.5172 58.296 16.2676 59.0041 16.172C59.6045 16.0645 60.2032 15.982 60.8 15.9246C61.5297 15.8864 62.2559 15.7991 62.9739 15.6633C63.536 15.5299 64.0807 15.3322 64.5974 15.0739C65.0534 14.8654 65.4314 15.3352 65.0283 16.1164C64.6675 16.8269 64.1662 17.4567 63.5549 17.9679C61.7813 19.2995 59.7213 19.6192 57.9282 19.8166C57.5251 19.8611 57.4361 20.3364 57.2193 21.6291C57.0275 22.7523 56.869 24.6343 56.5021 24.7539Z" fill="#263238"/>
<path d="M54.4476 19.9059L53.1299 19.4417C53.3161 18.9552 53.7637 18.666 54.1251 18.7939C54.4865 18.9218 54.6339 19.4194 54.4476 19.9059Z" fill="#263238"/>
<path d="M60.5247 28.5125C60.5247 28.5125 58.5787 28.582 57.8893 28.3457C57.4773 28.2021 57.1379 27.9027 56.9441 27.5117C57.0382 27.9227 57.2213 28.308 57.4806 28.6404C57.981 29.2437 60.5247 29.1047 60.5247 29.1047V28.5125Z" fill="#F28F8F"/>
<path d="M60.0521 22.8082C60.0505 22.9292 60.0126 23.0469 59.9431 23.1461C59.8737 23.2452 59.7761 23.3212 59.6629 23.3642C59.4489 23.4198 59.2737 23.2557 59.2737 22.9972C59.272 22.8733 59.3084 22.7519 59.378 22.6495C59.4476 22.547 59.5471 22.4685 59.6629 22.4245C59.8798 22.3773 60.0521 22.5302 60.0521 22.8082Z" fill="#263238"/>
<path d="M59.4267 21.0983L58.5927 21.8573C58.5342 21.7153 58.5215 21.5586 58.5564 21.4091C58.5913 21.2596 58.672 21.1247 58.7873 21.0233C58.8285 20.9747 58.8811 20.937 58.9404 20.9136C58.9997 20.8903 59.0639 20.8819 59.1271 20.8894C59.1904 20.8968 59.2509 20.9198 59.3032 20.9562C59.3555 20.9927 59.3979 21.0415 59.4267 21.0983Z" fill="#263238"/>
<path d="M60.3496 25.8467L61.2419 25.994C61.2164 26.1359 61.1416 26.2641 61.0307 26.3562C60.9198 26.4482 60.78 26.4982 60.6359 26.4972C60.3885 26.4583 60.2606 26.1664 60.3496 25.8467Z" fill="#F28F8F"/>
<path d="M63.6466 20.3641L62.8821 19.8888C63.0405 19.6108 63.3352 19.4634 63.5465 19.5941C63.6537 19.6885 63.7229 19.8186 63.7413 19.9603C63.7597 20.1019 63.726 20.2454 63.6466 20.3641Z" fill="#263238"/>
<path d="M63.3131 21.7988C63.3152 21.9235 63.2787 22.0458 63.2085 22.1488C63.1383 22.2519 63.0379 22.3306 62.9211 22.3743C62.7043 22.4299 62.5291 22.2659 62.5291 22.0073C62.5272 21.883 62.5638 21.7612 62.634 21.6586C62.7042 21.5561 62.8045 21.4778 62.9211 21.4347C63.1379 21.3763 63.3131 21.5403 63.3131 21.7988Z" fill="#263238"/>
<path d="M61.3782 21.9541L61.4227 24.6841L62.8266 23.9501L61.3782 21.9541Z" fill="#F28F8F"/>
<path d="M48.707 49.2177C49.8023 37.9587 51.5731 33.9582 54.3476 32.8379C55.2789 33.5663 55.429 36.8883 54.3754 39.382C54.3754 39.382 52.0569 46.8491 51.8734 49.39C51.7564 51.7664 51.8447 54.1484 52.1375 56.5096C52.1524 56.6515 52.197 56.7887 52.2683 56.9123C52.3397 57.0358 52.4362 57.143 52.5517 57.2268C53.1438 57.6327 53.091 58.1998 53.508 58.7475C53.8361 59.1756 54.1474 59.259 54.064 59.4147C53.9946 59.5704 53.8741 59.6978 53.7224 59.7757C53.5708 59.8535 53.397 59.8772 53.23 59.8428C52.9641 59.7506 52.718 59.6091 52.5044 59.4258C52.6613 60.0252 52.9088 60.597 53.2384 61.1216C53.989 62.3365 53.9334 63.1399 52.093 63.3651C50.9393 63.5069 50.1192 62.7729 49.6105 59.879C49.4659 59.045 49.1101 57.5438 48.9738 56.4651C48.5791 53.3877 48.529 51.0302 48.707 49.2177Z" fill="#FFA8A7"/>
<path d="M55.1428 32.3037C55.1428 32.3037 53.1245 32.9542 52.0848 34.5694C51.0451 36.1846 50.0053 38.7978 49.2158 43.4654C49.2158 43.4654 50.439 45.2279 53.7778 43.8685C53.7778 43.8685 55.3596 37.9304 55.5459 35.5702C55.7377 32.9959 55.1428 32.3037 55.1428 32.3037Z" fill="#455A64"/>
<path d="M57.0192 15.8575C55.1316 17.039 54.3171 18.4735 54.2698 20.2026C54.2533 21.3904 54.3006 22.5783 54.4116 23.761C54.0561 24.017 53.7629 24.35 53.554 24.7351C53.3451 25.1201 53.2258 25.5474 53.2051 25.985C53.2051 27.1554 54.1531 27.8504 55.3234 27.5363C55.9108 27.3624 56.4298 27.0109 56.8092 26.53C57.1885 26.0491 57.4095 25.4625 57.4418 24.8508C57.4658 24.4711 57.3471 24.0961 57.109 23.7994C56.8709 23.5027 56.5305 23.3056 56.1547 23.2467C55.9183 21.5951 55.923 19.918 56.1686 18.2677C56.5883 15.7657 61.2643 14.3229 62.3124 15.7657C61.9982 14.5203 59.6436 14.2034 57.0192 15.8575Z" fill="#212121"/>
<path opacity="0.15" d="M57.0192 15.8575C55.1316 17.039 54.3171 18.4735 54.2698 20.2026C54.2533 21.3904 54.3006 22.5783 54.4116 23.761C54.0561 24.017 53.7629 24.35 53.554 24.7351C53.3451 25.1201 53.2258 25.5474 53.2051 25.985C53.2051 27.1554 54.1531 27.8504 55.3234 27.5363C55.9108 27.3624 56.4298 27.0109 56.8092 26.53C57.1885 26.0491 57.4095 25.4625 57.4418 24.8508C57.4658 24.4711 57.3471 24.0961 57.109 23.7994C56.8709 23.5027 56.5305 23.3056 56.1547 23.2467C55.9183 21.5951 55.923 19.918 56.1686 18.2677C56.5883 15.7657 61.2643 14.3229 62.3124 15.7657C61.9982 14.5203 59.6436 14.2034 57.0192 15.8575Z" fill="black"/>
<path d="M56.3379 25.1458C56.3439 25.0214 56.3189 24.8974 56.2652 24.785C56.2115 24.6726 56.1308 24.5753 56.0302 24.5018C55.9297 24.4282 55.8125 24.3808 55.6891 24.3636C55.5657 24.3465 55.44 24.3602 55.3232 24.4035C55.0419 24.487 54.7932 24.6555 54.6116 24.886C54.4299 25.1165 54.324 25.3976 54.3085 25.6907C54.3043 25.8145 54.3307 25.9375 54.3853 26.0487C54.44 26.1599 54.5212 26.2559 54.6219 26.3282C54.7225 26.4005 54.8394 26.4469 54.9622 26.4632C55.085 26.4795 55.21 26.4653 55.326 26.4218C55.6054 26.3389 55.8524 26.1719 56.0335 25.9436C56.2145 25.7153 56.3209 25.4367 56.3379 25.1458Z" fill="#212121"/>
</g>
<path d="M40.3308 43.0082C40.2851 43.0527 40.2432 43.1011 40.2057 43.1527C40.1389 43.2349 40.0889 43.3293 40.0584 43.4307C40.0382 43.4893 40.0382 43.5529 40.0584 43.6114C40.0658 43.6529 40.0862 43.6908 40.1167 43.7198C40.1314 43.7368 40.1482 43.7517 40.1668 43.7643L39.1465 43.175C39.1056 43.1523 39.0719 43.1185 39.0492 43.0777C39.033 43.0389 39.0247 42.9973 39.0247 42.9553C39.0247 42.9133 39.033 42.8718 39.0492 42.833C39.0714 42.764 39.1033 42.6985 39.1437 42.6384C39.1965 42.5592 39.256 42.4848 39.3217 42.416L40.3308 43.0082Z" fill="#212121"/>
<path d="M40.3391 42.9968C39.8081 43.5528 39.9943 43.9281 40.7561 43.8308L45.0206 43.3388V38.1318L40.3391 42.9968Z" fill="#212121"/>
<path d="M40.3391 42.9964C40.0027 43.3466 39.9554 43.6246 40.1556 43.7609L39.1353 43.1715C38.9213 43.0381 38.9685 42.7545 39.3077 42.3987L43.992 37.542L45.0234 38.1397L40.3391 42.9964Z" fill="#212121"/>
<path opacity="0.15" d="M40.3308 43.0082C40.2851 43.0527 40.2432 43.1011 40.2057 43.1527C40.1411 43.2363 40.0913 43.3303 40.0584 43.4307C40.042 43.4898 40.042 43.5523 40.0584 43.6114C40.0665 43.6526 40.0868 43.6904 40.1167 43.7198C40.1314 43.7368 40.1482 43.7517 40.1668 43.7643L39.1465 43.175C39.1056 43.1523 39.0719 43.1185 39.0492 43.0777C39.033 43.0389 39.0247 42.9973 39.0247 42.9553C39.0247 42.9133 39.033 42.8718 39.0492 42.833C39.0726 42.7645 39.1044 42.6992 39.1437 42.6384C39.1965 42.5592 39.256 42.4848 39.3217 42.416L40.3308 43.0082Z" fill="black"/>
<path opacity="0.4" d="M45.0234 38.1314L40.3391 42.9964L39.3049 42.3987L43.992 37.542L45.0234 38.1314Z" fill="white"/>
<path d="M69.0482 36.3359L69.9879 37.9428C69.9879 37.9428 76.1428 34.679 76.4903 34.2509C76.8378 33.8228 76.8155 32.9582 76.8684 32.4912C76.9545 31.7128 76.6682 31.0428 76.6265 30.762C76.5431 30.1643 77.4021 30.3033 77.6746 30.5396C77.8535 30.7301 78.0025 30.9467 78.1166 31.1818C78.25 31.4042 78.5002 32.1298 78.756 32.1743C78.9561 32.2104 79.3537 31.9268 79.5177 31.8045C80.1932 31.293 80.6102 30.5841 81.1301 29.9364C81.2227 29.797 81.3514 29.6855 81.5026 29.6139C81.6354 29.5875 81.7724 29.5915 81.9034 29.6257C82.0343 29.6599 82.1559 29.7233 82.2588 29.8113C82.4779 29.9338 82.6677 30.1026 82.8148 30.3061C82.9045 30.4586 82.9684 30.6248 83.0038 30.7982C83.2818 31.9769 82.6758 32.9721 81.9613 33.8562C81.2443 34.7256 80.3942 35.4762 79.4426 36.0802C78.8866 36.4471 78.1416 36.7724 77.4966 37.1171C76.8517 37.4618 69.9406 43.2526 68.9732 42.5965C67.8166 41.6968 66.7805 40.6522 65.8901 39.4884" fill="#FFA8A7"/>
<path d="M114.451 26.292C116.675 26.292 117.843 26.9592 118.765 29.0136C119.65 30.9791 122.393 36.6809 122.257 38.0625C122.121 39.4442 116.486 45.3267 116.486 45.3267L114.876 43.3807L118.368 37.5149L114.929 32.5387L114.451 26.292Z" fill="#FFA8A7"/>
<path d="M109.052 86.793C109.052 86.793 109.302 87.5519 109.439 88.2191C109.547 88.7473 109.7 89.6286 109.514 90.0261C109.327 90.4237 108.607 90.6794 107.49 90.6711C106.764 90.6711 105.636 91.1576 104.863 91.5913C104.09 92.0249 102.402 92.214 101.557 92.1139C100.562 91.9971 99.5308 91.4189 99.3695 91.0019C99.2083 90.5849 99.0721 90.0261 101.769 89.1615C101.791 89.1615 105.03 88.0996 106.164 86.8458L109.052 86.793Z" fill="#263238"/>
<path d="M109.052 86.8676L108.538 86.8037L106.164 86.851C105.03 88.1047 101.791 89.1612 101.769 89.1667L101.338 89.3113C100.868 89.6893 101.266 90.3315 102.378 90.4233C103.49 90.515 106.956 89.3557 107.723 88.986C108.126 88.7991 108.466 88.4995 108.702 88.1236C108.937 87.7476 109.059 87.3114 109.052 86.8676Z" fill="#FFA8A7"/>
<path d="M109.052 85.8477C109.052 85.8477 109.052 86.4954 109.052 86.8679C109.052 87.2404 108.619 87.7909 107.484 87.7492C106.689 87.7214 106.133 87.5073 106.164 86.8512V85.9144L109.052 85.8477Z" fill="#FFA8A7"/>
<path d="M116.664 82.5313C116.867 82.6147 116.908 83.0095 116.917 83.7907C116.917 84.38 117.025 85.4142 116.327 85.6032C115.63 85.7923 114.621 85.6561 114.192 85.0889C113.659 84.38 113.3 83.7573 112.524 82.8872C111.86 82.1338 111.134 81.4277 110.89 80.3852C110.665 79.4455 110.89 79.048 111.526 78.7922C112.163 78.5365 112.75 78.7478 113.639 79.49C113.887 79.6581 114.153 79.7989 114.431 79.9098C115.024 80.0961 116.458 82.4479 116.664 82.5313Z" fill="#263238"/>
<path d="M116.683 81.8082L116.655 82.7673C116.655 82.7673 116.016 84.0211 114.234 82.7673C114.195 82.6728 114.034 80.8213 114.034 80.8213L116.683 81.8082Z" fill="#FFA8A7"/>
<path d="M114.44 79.9148C114.161 79.8039 113.896 79.6631 113.648 79.495C112.93 79.2643 111.424 79.5312 112.099 80.5764C112.665 81.4357 113.39 82.1792 114.234 82.7671C115.04 83.1646 115.321 82.6726 115.321 82.6726L115.043 80.4235C114.883 80.2108 114.677 80.0369 114.44 79.9148Z" fill="#FFA8A7"/>
<path d="M117.984 68.5528C117.629 65.4086 116.948 63.5933 116.948 63.5933C116.948 63.5933 117.551 59.3621 118.023 55.3061C119.135 45.779 118.396 45.6261 117.05 42.3124C117.05 42.3124 104.838 40.7417 104.326 45.8207C103.69 52.1452 103.979 64.4106 104.084 66.6541C104.19 68.8975 104.362 69.9122 105.041 74.6104C105.547 78.1883 106.028 86.0084 106.028 86.0084C107.629 86.9314 109.169 85.8472 109.169 85.8472C109.169 85.8472 110.701 76.2312 110.665 73.643C110.634 71.7272 110.353 69.8236 109.831 67.9801C109.831 67.9801 110.87 57.6719 111.135 56.0261C111.135 56.0261 111.429 59.3149 111.538 61.5583C111.646 63.8018 112.252 65.9563 112.789 70.1346C113.253 73.7486 114.026 81.3186 114.026 81.3186C115.627 82.2415 116.745 81.8245 116.745 81.8245C116.745 81.8245 118.338 71.6942 117.984 68.5528Z" fill="#212121"/>
<path d="M109.283 24.2343L109.731 28.9825L113.901 28.7184L113.567 23.4531L109.283 24.2343Z" fill="#FFA8A7"/>
<path d="M117.648 28.3075C117.223 27.0509 116.361 26.3142 114.451 26.292L113.748 26.3142C113.614 27.0148 111.56 27.5819 109.53 26.8702C109.252 26.9453 108.46 27.0899 108.018 27.1482L107.045 27.29C105.569 27.7737 104.916 30.348 104.774 34.4096C104.632 38.4712 104.023 47.1809 104.023 47.1809C104.023 47.1809 107.201 48.8823 112.216 48.2234C116.706 47.6341 118.451 44.9792 118.296 45.3183C117.769 43.0653 116.992 40.8786 115.977 38.7992C118.34 32.9862 118.276 30.1729 117.648 28.3075Z" fill="#455A64"/>
<path d="M109.73 48.3677C110.561 48.3765 111.392 48.3263 112.216 48.2176C116.308 47.6811 118.121 45.4376 118.29 45.2903C117.764 43.045 116.988 40.8658 115.977 38.7934C117.173 35.8577 117.745 33.6893 117.94 32.0186C117.745 33.2362 115.947 37.9511 113.592 39.3661C113.592 39.3661 114.921 39.5718 116.058 41.1342C117.195 42.6965 116.261 48.0314 109.73 48.3677Z" fill="#37474F"/>
<path d="M108.018 27.1426C106.058 27.39 104.371 27.7403 103.656 29.664C102.714 32.2838 101.268 34.694 99.4001 36.7586C98.1824 38.0624 93.184 40.5589 92.0581 40.3726C90.9322 40.1863 89.9175 38.5823 89.3392 38.9159C88.761 39.2495 90.0287 40.3948 89.9592 40.6784C89.8897 40.962 87.8603 40.3726 86.9012 39.6915C85.9421 39.0104 85.3722 40.9647 86.6232 42.427C87.8742 43.8893 90.2149 44.0033 92.7614 43.4945C95.3079 42.9858 99.9616 41.4735 101.81 39.7499C104.234 37.4842 104.677 36.2526 105.727 34.3011C109.074 31.7046 108.018 27.1426 108.018 27.1426Z" fill="#FFA8A7"/>
<path d="M107.101 18.3384C107.101 18.3384 105.527 16.4619 106.761 14.6327C108.218 12.4754 110.781 11.747 113.951 12.6867C115.518 13.1509 117.823 15.3193 117.94 18.3607C118.029 20.7042 111.457 22.2527 111.563 23.8595L107.101 18.3384Z" fill="#263238"/>
<path d="M106.2 19.0244C106.2 19.0244 105.277 20.4144 105.396 20.5701C105.613 20.7121 105.853 20.8147 106.105 20.8731L106.2 19.0244Z" fill="#F28F8F"/>
<path d="M109.011 14.6019C108.113 15.0662 106.561 15.9224 106.161 19.2306C105.752 22.625 106.509 23.8037 106.97 24.2485C107.284 24.5488 108.897 24.6572 109.75 24.3959C110.804 24.0706 113.086 22.9447 114.151 21.1933C115.407 19.1305 115.666 16.3839 114.215 15.3053C112.16 13.7902 109.769 14.2099 109.011 14.6019Z" fill="#FFA8A7"/>
<path d="M108.746 14.7466C108.746 14.7466 107.962 17.8435 108.899 19.8007C108.899 19.8007 109.455 18.5914 110.487 18.9389C111.518 19.2864 111.437 20.6819 110.615 21.3936C110.405 21.5984 110.141 21.7395 109.854 21.8005C109.567 21.8615 109.269 21.8399 108.994 21.7383C108.994 21.7383 109.022 23.4536 110.487 24.1319C110.487 24.1319 113.545 25.5969 116.325 22.639C118.827 19.9535 118.513 15.133 114.812 13.9126C111.112 12.6922 108.746 14.7466 108.746 14.7466Z" fill="#263238"/>
<path d="M121.195 27.812C120.612 27.812 120.034 27.6968 119.496 27.4731C118.957 27.2493 118.468 26.9214 118.056 26.5082C117.644 26.0949 117.318 25.6044 117.096 25.0649C116.875 24.5253 116.762 23.9473 116.764 23.364V17.6816C117.938 17.6816 119.065 18.1482 119.895 18.9787C120.726 19.8092 121.192 20.9357 121.192 22.1102L121.195 27.812Z" fill="#263238"/>
<path d="M106.361 13.3563C104.985 14.7463 104.907 18.8079 108.899 19.8031L111.515 12.6335C109.992 11.641 107.59 12.0997 106.361 13.3563Z" fill="#263238"/>
<path d="M108.499 20.9069C108.399 20.8737 108.307 20.8208 108.227 20.7513C108.148 20.6818 108.084 20.5971 108.038 20.5022C107.992 20.4074 107.965 20.3043 107.96 20.199C107.954 20.0938 107.97 19.9885 108.006 19.8893C108.041 19.7902 108.097 19.6992 108.168 19.6218C108.24 19.5444 108.326 19.4821 108.422 19.4386C108.518 19.3951 108.622 19.3712 108.727 19.3684C108.833 19.3657 108.937 19.384 109.036 19.4224L108.499 20.9069Z" fill="#263238"/>
<path opacity="0.1" d="M111.14 56.0325L111.804 51.7819C113.143 51.6217 114.43 51.1741 115.58 50.4697C115.58 50.4697 114.746 51.7235 112.549 52.2461L111.871 57.1695L111.593 62.3264L111.14 56.0325Z" fill="black"/>
</g>
<defs>
<clipPath id="clip0_1106_39087">
<rect width="130" height="113" fill="white"/>
</clipPath>
</defs>
</svg>
