<svg width="651" height="676" viewBox="0 0 651 676" fill="none" xmlns="http://www.w3.org/2000/svg">
<mask id="mask0_1180_16314" style="mask-type:luminance" maskUnits="userSpaceOnUse" x="65" y="112" width="521" height="451">
<path d="M455.125 112.717L195.232 112.697L65.3019 337.73L195.264 562.784L455.162 562.804L585.093 337.77L455.125 112.717Z" fill="white"/>
</mask>
<g mask="url(#mask0_1180_16314)">
<path d="M650.057 225.255L260.196 0.181641L0.335687 450.249L390.196 675.322L650.057 225.255Z" fill="url(#paint0_linear_1180_16314)"/>
<path d="M216.28 142.107H433.78L547.28 342.607L439.78 527.107H214.28L106.78 335.607L216.28 142.107Z" fill="white" fill-opacity="0.5"/>
</g>
<path d="M133.814 457.213L100.36 476.526L92.1268 462.226L125.584 442.91L133.814 457.213Z" fill="#00478F"/>
<path d="M524.284 443.019L557.733 462.335L549.465 476.585L516.021 457.269L524.284 443.019Z" fill="#00478F"/>
<path d="M131.135 223.799L97.6807 204.485L89.4476 218.786L122.905 238.102L131.135 223.799Z" fill="#00478F"/>
<path d="M319.751 112.866L319.756 74.242L336.258 74.2176L336.254 112.842L319.751 112.866Z" fill="#00478F"/>
<path d="M517.375 219.799L550.829 200.485L559.062 214.786L525.605 234.102L517.375 219.799Z" fill="#00478F"/>
<path d="M285.437 263.187V291.107H279.837V272.947L272.357 291.107H268.117L260.597 272.947V291.107H254.997V263.187H261.357L270.237 283.947L279.117 263.187H285.437ZM310.773 279.547C310.773 280.347 310.72 281.067 310.613 281.707H294.413C294.547 283.307 295.107 284.561 296.093 285.467C297.08 286.374 298.293 286.827 299.733 286.827C301.813 286.827 303.293 285.934 304.173 284.147H310.213C309.573 286.281 308.347 288.041 306.533 289.427C304.72 290.787 302.493 291.467 299.853 291.467C297.72 291.467 295.8 291.001 294.093 290.067C292.413 289.107 291.093 287.761 290.133 286.027C289.2 284.294 288.733 282.294 288.733 280.027C288.733 277.734 289.2 275.721 290.133 273.987C291.067 272.254 292.373 270.921 294.053 269.987C295.733 269.054 297.667 268.587 299.853 268.587C301.96 268.587 303.84 269.041 305.493 269.947C307.173 270.854 308.467 272.147 309.373 273.827C310.307 275.481 310.773 277.387 310.773 279.547ZM304.973 277.947C304.947 276.507 304.427 275.361 303.413 274.507C302.4 273.627 301.16 273.187 299.693 273.187C298.307 273.187 297.133 273.614 296.173 274.467C295.24 275.294 294.667 276.454 294.453 277.947H304.973ZM319.661 272.387C320.381 271.214 321.314 270.294 322.461 269.627C323.634 268.961 324.968 268.627 326.461 268.627V274.507H324.981C323.221 274.507 321.888 274.921 320.981 275.747C320.101 276.574 319.661 278.014 319.661 280.067V291.107H314.061V268.947H319.661V272.387ZM337.913 291.467C336.099 291.467 334.473 291.147 333.033 290.507C331.593 289.841 330.446 288.947 329.593 287.827C328.766 286.707 328.313 285.467 328.233 284.107H333.873C333.979 284.961 334.393 285.667 335.113 286.227C335.859 286.787 336.779 287.067 337.873 287.067C338.939 287.067 339.766 286.854 340.353 286.427C340.966 286.001 341.273 285.454 341.273 284.787C341.273 284.067 340.899 283.534 340.153 283.187C339.433 282.814 338.273 282.414 336.673 281.987C335.019 281.587 333.659 281.174 332.593 280.747C331.553 280.321 330.646 279.667 329.873 278.787C329.126 277.907 328.753 276.721 328.753 275.227C328.753 274.001 329.099 272.881 329.793 271.867C330.513 270.854 331.526 270.054 332.833 269.467C334.166 268.881 335.726 268.587 337.513 268.587C340.153 268.587 342.259 269.254 343.833 270.587C345.406 271.894 346.273 273.667 346.433 275.907H341.073C340.993 275.027 340.619 274.334 339.953 273.827C339.313 273.294 338.446 273.027 337.353 273.027C336.339 273.027 335.553 273.214 334.993 273.587C334.459 273.961 334.193 274.481 334.193 275.147C334.193 275.894 334.566 276.467 335.313 276.867C336.059 277.241 337.219 277.627 338.793 278.027C340.393 278.427 341.713 278.841 342.753 279.267C343.793 279.694 344.686 280.361 345.433 281.267C346.206 282.147 346.606 283.321 346.633 284.787C346.633 286.067 346.273 287.214 345.553 288.227C344.859 289.241 343.846 290.041 342.513 290.627C341.206 291.187 339.673 291.467 337.913 291.467ZM359.67 285.947L365.27 268.947H371.23L363.03 291.107H356.23L348.07 268.947H354.07L359.67 285.947ZM383.415 291.467C381.282 291.467 379.362 291.001 377.655 290.067C375.948 289.107 374.602 287.761 373.615 286.027C372.655 284.294 372.175 282.294 372.175 280.027C372.175 277.761 372.668 275.761 373.655 274.027C374.668 272.294 376.042 270.961 377.775 270.027C379.508 269.067 381.442 268.587 383.575 268.587C385.708 268.587 387.642 269.067 389.375 270.027C391.108 270.961 392.468 272.294 393.455 274.027C394.468 275.761 394.975 277.761 394.975 280.027C394.975 282.294 394.455 284.294 393.415 286.027C392.402 287.761 391.015 289.107 389.255 290.067C387.522 291.001 385.575 291.467 383.415 291.467ZM383.415 286.587C384.428 286.587 385.375 286.347 386.255 285.867C387.162 285.361 387.882 284.614 388.415 283.627C388.948 282.641 389.215 281.441 389.215 280.027C389.215 277.921 388.655 276.307 387.535 275.187C386.442 274.041 385.095 273.467 383.495 273.467C381.895 273.467 380.548 274.041 379.455 275.187C378.388 276.307 377.855 277.921 377.855 280.027C377.855 282.134 378.375 283.761 379.415 284.907C380.482 286.027 381.815 286.587 383.415 286.587ZM225.302 327.707V334.707H234.702V339.147H225.302V346.547H235.902V351.107H219.702V323.147H235.902V327.707H225.302ZM252.431 351.107L247.871 344.227L243.831 351.107H237.831L245.071 339.987L237.751 328.947H244.071L248.591 335.787L252.671 328.947H258.671L251.391 339.987L258.751 351.107H252.431ZM266.593 332.147C267.313 331.134 268.3 330.294 269.553 329.627C270.833 328.934 272.286 328.587 273.913 328.587C275.806 328.587 277.513 329.054 279.033 329.987C280.58 330.921 281.793 332.254 282.673 333.987C283.58 335.694 284.033 337.681 284.033 339.947C284.033 342.214 283.58 344.227 282.673 345.987C281.793 347.721 280.58 349.067 279.033 350.027C277.513 350.987 275.806 351.467 273.913 351.467C272.286 351.467 270.846 351.134 269.593 350.467C268.366 349.801 267.366 348.961 266.593 347.947V361.667H260.993V328.947H266.593V332.147ZM278.313 339.947C278.313 338.614 278.033 337.467 277.473 336.507C276.94 335.521 276.22 334.774 275.313 334.267C274.433 333.761 273.473 333.507 272.433 333.507C271.42 333.507 270.46 333.774 269.553 334.307C268.673 334.814 267.953 335.561 267.393 336.547C266.86 337.534 266.593 338.694 266.593 340.027C266.593 341.361 266.86 342.521 267.393 343.507C267.953 344.494 268.673 345.254 269.553 345.787C270.46 346.294 271.42 346.547 272.433 346.547C273.473 346.547 274.433 346.281 275.313 345.747C276.22 345.214 276.94 344.454 277.473 343.467C278.033 342.481 278.313 341.307 278.313 339.947ZM307.902 339.547C307.902 340.347 307.849 341.067 307.742 341.707H291.542C291.676 343.307 292.236 344.561 293.222 345.467C294.209 346.374 295.422 346.827 296.862 346.827C298.942 346.827 300.422 345.934 301.302 344.147H307.342C306.702 346.281 305.476 348.041 303.662 349.427C301.849 350.787 299.622 351.467 296.982 351.467C294.849 351.467 292.929 351.001 291.222 350.067C289.542 349.107 288.222 347.761 287.262 346.027C286.329 344.294 285.862 342.294 285.862 340.027C285.862 337.734 286.329 335.721 287.262 333.987C288.196 332.254 289.502 330.921 291.182 329.987C292.862 329.054 294.796 328.587 296.982 328.587C299.089 328.587 300.969 329.041 302.622 329.947C304.302 330.854 305.596 332.147 306.502 333.827C307.436 335.481 307.902 337.387 307.902 339.547ZM302.102 337.947C302.076 336.507 301.556 335.361 300.542 334.507C299.529 333.627 298.289 333.187 296.822 333.187C295.436 333.187 294.262 333.614 293.302 334.467C292.369 335.294 291.796 336.454 291.582 337.947H302.102ZM316.79 332.387C317.51 331.214 318.443 330.294 319.59 329.627C320.763 328.961 322.096 328.627 323.59 328.627V334.507H322.11C320.35 334.507 319.016 334.921 318.11 335.747C317.23 336.574 316.79 338.014 316.79 340.067V351.107H311.19V328.947H316.79V332.387ZM329.402 326.307C328.415 326.307 327.588 326.001 326.922 325.387C326.282 324.747 325.962 323.961 325.962 323.027C325.962 322.094 326.282 321.321 326.922 320.707C327.588 320.067 328.415 319.747 329.402 319.747C330.388 319.747 331.202 320.067 331.842 320.707C332.508 321.321 332.842 322.094 332.842 323.027C332.842 323.961 332.508 324.747 331.842 325.387C331.202 326.001 330.388 326.307 329.402 326.307ZM332.162 328.947V351.107H326.562V328.947H332.162ZM357.494 339.547C357.494 340.347 357.441 341.067 357.334 341.707H341.134C341.268 343.307 341.828 344.561 342.814 345.467C343.801 346.374 345.014 346.827 346.454 346.827C348.534 346.827 350.014 345.934 350.894 344.147H356.934C356.294 346.281 355.068 348.041 353.254 349.427C351.441 350.787 349.214 351.467 346.574 351.467C344.441 351.467 342.521 351.001 340.814 350.067C339.134 349.107 337.814 347.761 336.854 346.027C335.921 344.294 335.454 342.294 335.454 340.027C335.454 337.734 335.921 335.721 336.854 333.987C337.788 332.254 339.094 330.921 340.774 329.987C342.454 329.054 344.388 328.587 346.574 328.587C348.681 328.587 350.561 329.041 352.214 329.947C353.894 330.854 355.188 332.147 356.094 333.827C357.028 335.481 357.494 337.387 357.494 339.547ZM351.694 337.947C351.668 336.507 351.148 335.361 350.134 334.507C349.121 333.627 347.881 333.187 346.414 333.187C345.028 333.187 343.854 333.614 342.894 334.467C341.961 335.294 341.388 336.454 341.174 337.947H351.694ZM373.062 328.627C375.702 328.627 377.835 329.467 379.462 331.147C381.089 332.801 381.902 335.121 381.902 338.107V351.107H376.302V338.867C376.302 337.107 375.862 335.761 374.982 334.827C374.102 333.867 372.902 333.387 371.382 333.387C369.835 333.387 368.609 333.867 367.702 334.827C366.822 335.761 366.382 337.107 366.382 338.867V351.107H360.782V328.947H366.382V331.707C367.129 330.747 368.075 330.001 369.222 329.467C370.395 328.907 371.675 328.627 373.062 328.627ZM384.987 340.027C384.987 337.734 385.454 335.734 386.387 334.027C387.321 332.294 388.614 330.961 390.267 330.027C391.921 329.067 393.814 328.587 395.947 328.587C398.694 328.587 400.961 329.281 402.747 330.667C404.561 332.027 405.774 333.947 406.387 336.427H400.347C400.027 335.467 399.481 334.721 398.707 334.187C397.961 333.627 397.027 333.347 395.907 333.347C394.307 333.347 393.041 333.934 392.107 335.107C391.174 336.254 390.707 337.894 390.707 340.027C390.707 342.134 391.174 343.774 392.107 344.947C393.041 346.094 394.307 346.667 395.907 346.667C398.174 346.667 399.654 345.654 400.347 343.627H406.387C405.774 346.027 404.561 347.934 402.747 349.347C400.934 350.761 398.667 351.467 395.947 351.467C393.814 351.467 391.921 351.001 390.267 350.067C388.614 349.107 387.321 347.774 386.387 346.067C385.454 344.334 384.987 342.321 384.987 340.027ZM430.29 339.547C430.29 340.347 430.236 341.067 430.13 341.707H413.93C414.063 343.307 414.623 344.561 415.61 345.467C416.596 346.374 417.81 346.827 419.25 346.827C421.33 346.827 422.81 345.934 423.69 344.147H429.73C429.09 346.281 427.863 348.041 426.05 349.427C424.236 350.787 422.01 351.467 419.37 351.467C417.236 351.467 415.316 351.001 413.61 350.067C411.93 349.107 410.61 347.761 409.65 346.027C408.716 344.294 408.25 342.294 408.25 340.027C408.25 337.734 408.716 335.721 409.65 333.987C410.583 332.254 411.89 330.921 413.57 329.987C415.25 329.054 417.183 328.587 419.37 328.587C421.476 328.587 423.356 329.041 425.01 329.947C426.69 330.854 427.983 332.147 428.89 333.827C429.823 335.481 430.29 337.387 430.29 339.547ZM424.49 337.947C424.463 336.507 423.943 335.361 422.93 334.507C421.916 333.627 420.676 333.187 419.21 333.187C417.823 333.187 416.65 333.614 415.69 334.467C414.756 335.294 414.183 336.454 413.97 337.947H424.49ZM262.465 391.827C262.465 393.321 262.105 394.721 261.385 396.027C260.692 397.334 259.585 398.387 258.065 399.187C256.572 399.987 254.679 400.387 252.385 400.387H247.705V411.107H242.105V383.187H252.385C254.545 383.187 256.385 383.561 257.905 384.307C259.425 385.054 260.559 386.081 261.305 387.387C262.079 388.694 262.465 390.174 262.465 391.827ZM252.145 395.867C253.692 395.867 254.839 395.521 255.585 394.827C256.332 394.107 256.705 393.107 256.705 391.827C256.705 389.107 255.185 387.747 252.145 387.747H247.705V395.867H252.145ZM271.241 381.507V411.107H265.641V381.507H271.241ZM274.534 399.947C274.534 397.707 274.974 395.721 275.854 393.987C276.761 392.254 277.974 390.921 279.494 389.987C281.041 389.054 282.761 388.587 284.654 388.587C286.307 388.587 287.747 388.921 288.974 389.587C290.227 390.254 291.227 391.094 291.974 392.107V388.947H297.614V411.107H291.974V407.867C291.254 408.907 290.254 409.774 288.974 410.467C287.721 411.134 286.267 411.467 284.614 411.467C282.747 411.467 281.041 410.987 279.494 410.027C277.974 409.067 276.761 407.721 275.854 405.987C274.974 404.227 274.534 402.214 274.534 399.947ZM291.974 400.027C291.974 398.667 291.707 397.507 291.174 396.547C290.641 395.561 289.921 394.814 289.014 394.307C288.107 393.774 287.134 393.507 286.094 393.507C285.054 393.507 284.094 393.761 283.214 394.267C282.334 394.774 281.614 395.521 281.054 396.507C280.521 397.467 280.254 398.614 280.254 399.947C280.254 401.281 280.521 402.454 281.054 403.467C281.614 404.454 282.334 405.214 283.214 405.747C284.121 406.281 285.081 406.547 286.094 406.547C287.134 406.547 288.107 406.294 289.014 405.787C289.921 405.254 290.641 404.507 291.174 403.547C291.707 402.561 291.974 401.387 291.974 400.027ZM308.804 393.547V404.267C308.804 405.014 308.977 405.561 309.324 405.907C309.697 406.227 310.31 406.387 311.164 406.387H313.764V411.107H310.244C305.524 411.107 303.164 408.814 303.164 404.227V393.547H300.524V388.947H303.164V383.467H308.804V388.947H313.764V393.547H308.804ZM327.151 393.547H323.271V411.107H317.591V393.547H315.071V388.947H317.591V387.827C317.591 385.107 318.365 383.107 319.911 381.827C321.458 380.547 323.791 379.947 326.911 380.027V384.747C325.551 384.721 324.605 384.947 324.071 385.427C323.538 385.907 323.271 386.774 323.271 388.027V388.947H327.151V393.547ZM339.82 411.467C337.687 411.467 335.767 411.001 334.06 410.067C332.354 409.107 331.007 407.761 330.02 406.027C329.06 404.294 328.58 402.294 328.58 400.027C328.58 397.761 329.074 395.761 330.06 394.027C331.074 392.294 332.447 390.961 334.18 390.027C335.914 389.067 337.847 388.587 339.98 388.587C342.114 388.587 344.047 389.067 345.78 390.027C347.514 390.961 348.874 392.294 349.86 394.027C350.874 395.761 351.38 397.761 351.38 400.027C351.38 402.294 350.86 404.294 349.82 406.027C348.807 407.761 347.42 409.107 345.66 410.067C343.927 411.001 341.98 411.467 339.82 411.467ZM339.82 406.587C340.834 406.587 341.78 406.347 342.66 405.867C343.567 405.361 344.287 404.614 344.82 403.627C345.354 402.641 345.62 401.441 345.62 400.027C345.62 397.921 345.06 396.307 343.94 395.187C342.847 394.041 341.5 393.467 339.9 393.467C338.3 393.467 336.954 394.041 335.86 395.187C334.794 396.307 334.26 397.921 334.26 400.027C334.26 402.134 334.78 403.761 335.82 404.907C336.887 406.027 338.22 406.587 339.82 406.587ZM360.288 392.387C361.008 391.214 361.942 390.294 363.088 389.627C364.262 388.961 365.595 388.627 367.088 388.627V394.507H365.608C363.848 394.507 362.515 394.921 361.608 395.747C360.728 396.574 360.288 398.014 360.288 400.067V411.107H354.688V388.947H360.288V392.387ZM397.58 388.627C400.3 388.627 402.487 389.467 404.14 391.147C405.82 392.801 406.66 395.121 406.66 398.107V411.107H401.06V398.867C401.06 397.134 400.62 395.814 399.74 394.907C398.86 393.974 397.66 393.507 396.14 393.507C394.62 393.507 393.407 393.974 392.5 394.907C391.62 395.814 391.18 397.134 391.18 398.867V411.107H385.58V398.867C385.58 397.134 385.14 395.814 384.26 394.907C383.38 393.974 382.18 393.507 380.66 393.507C379.113 393.507 377.887 393.974 376.98 394.907C376.1 395.814 375.66 397.134 375.66 398.867V411.107H370.06V388.947H375.66V391.627C376.38 390.694 377.3 389.961 378.42 389.427C379.567 388.894 380.82 388.627 382.18 388.627C383.913 388.627 385.46 389.001 386.82 389.747C388.18 390.467 389.233 391.507 389.98 392.867C390.7 391.587 391.74 390.561 393.1 389.787C394.487 389.014 395.98 388.627 397.58 388.627Z" fill="#001237"/>
<defs>
<linearGradient id="paint0_linear_1180_16314" x1="430.701" y1="334.675" x2="65.5045" y2="345.381" gradientUnits="userSpaceOnUse">
<stop stop-color="white"/>
<stop offset="1" stop-color="#BBC9D8"/>
</linearGradient>
</defs>
</svg>
