<svg width="32" height="32" viewBox="0 0 32 32" fill="none" xmlns="http://www.w3.org/2000/svg">
<path fill-rule="evenodd" clip-rule="evenodd" d="M1.3335 3.78368C1.3335 3.13372 1.59169 2.51038 2.05128 2.05079C2.51087 1.59121 3.13421 1.33301 3.78416 1.33301H28.2135C28.5356 1.33249 28.8546 1.39549 29.1524 1.51843C29.4501 1.64137 29.7206 1.82182 29.9485 2.04946C30.1764 2.27709 30.3571 2.54744 30.4804 2.84502C30.6037 3.14261 30.667 3.46158 30.6668 3.78368V28.213C30.6672 28.5352 30.604 28.8542 30.4809 29.152C30.3578 29.4497 30.1773 29.7202 29.9495 29.9481C29.7218 30.176 29.4513 30.3567 29.1537 30.4799C28.856 30.6032 28.537 30.6665 28.2148 30.6663H3.78416C3.46222 30.6663 3.14344 30.6029 2.84603 30.4797C2.54861 30.3564 2.27839 30.1758 2.05081 29.9481C1.82323 29.7204 1.64274 29.4501 1.51966 29.1526C1.39658 28.8551 1.33332 28.5363 1.3335 28.2143V3.78368ZM12.9442 12.517H16.9162V14.5117C17.4895 13.365 18.9562 12.333 21.1602 12.333C25.3855 12.333 26.3868 14.617 26.3868 18.8077V26.5703H22.1108V19.7623C22.1108 17.3757 21.5375 16.029 20.0815 16.029C18.0615 16.029 17.2215 17.481 17.2215 19.7623V26.5703H12.9442V12.517ZM5.61083 26.3877H9.88816V12.333H5.61083V26.3877ZM10.5002 7.74901C10.5082 8.11524 10.4431 8.47939 10.3085 8.8201C10.1739 9.1608 9.97263 9.47119 9.71647 9.73305C9.46031 9.99492 9.15443 10.203 8.81677 10.345C8.47911 10.4871 8.11648 10.5602 7.75016 10.5602C7.38384 10.5602 7.02121 10.4871 6.68356 10.345C6.3459 10.203 6.04001 9.99492 5.78385 9.73305C5.5277 9.47119 5.32642 9.1608 5.19184 8.8201C5.05727 8.47939 4.9921 8.11524 5.00016 7.74901C5.01599 7.03015 5.31268 6.34607 5.82668 5.84326C6.34068 5.34045 7.03113 5.0589 7.75016 5.0589C8.4692 5.0589 9.15965 5.34045 9.67365 5.84326C10.1877 6.34607 10.4843 7.03015 10.5002 7.74901Z" fill="white"/>
</svg>
