<svg width="46" height="40" viewBox="0 0 46 40" fill="none" xmlns="http://www.w3.org/2000/svg">
<path d="M34.6667 37.0271C34.6667 33.1608 29.4423 30.0271 23 30.0271C16.5577 30.0271 11.3333 33.1608 11.3333 37.0271M44 30.0271C44 27.1571 41.1207 24.6908 37 23.6105M2 30.0271C2 27.1571 4.87933 24.6908 9 23.6105M37 14.2445C37.6913 13.6333 38.2549 12.8916 38.6585 12.0619C39.0621 11.2321 39.2977 10.3308 39.3517 9.40969C39.4057 8.4886 39.277 7.56592 38.9732 6.69471C38.6693 5.82351 38.1962 5.02097 37.5811 4.33325C36.9659 3.64554 36.2209 3.08622 35.3889 2.68747C34.5568 2.28871 33.6541 2.05838 32.7327 2.00974C31.8113 1.96109 30.8894 2.09508 30.02 2.404C29.1506 2.71292 28.3508 3.19067 27.6667 3.80979M9 14.2445C7.6287 13.0035 6.80424 11.2702 6.70673 9.42332C6.60921 7.57642 7.24657 5.76599 8.47957 4.3875C9.71257 3.00901 11.441 2.17449 13.2873 2.06624C15.1336 1.958 16.9477 2.58482 18.3333 3.80979M23 23.0271C22.0807 23.0271 21.1705 22.8461 20.3212 22.4943C19.4719 22.1425 18.7003 21.6269 18.0503 20.9769C17.4002 20.3269 16.8846 19.5552 16.5328 18.7059C16.1811 17.8566 16 16.9464 16 16.0271C16 15.1079 16.1811 14.1976 16.5328 13.3483C16.8846 12.4991 17.4002 11.7274 18.0503 11.0774C18.7003 10.4274 19.4719 9.91175 20.3212 9.55997C21.1705 9.20818 22.0807 9.02712 23 9.02712C24.8565 9.02712 26.637 9.76462 27.9497 11.0774C29.2625 12.3901 30 14.1706 30 16.0271C30 17.8836 29.2625 19.6641 27.9497 20.9769C26.637 22.2896 24.8565 23.0271 23 23.0271Z" stroke="url(#paint0_linear_721_1729)" stroke-width="4" stroke-linecap="round" stroke-linejoin="round"/>
<defs>
<linearGradient id="paint0_linear_721_1729" x1="23" y1="2" x2="23" y2="37.0271" gradientUnits="userSpaceOnUse">
<stop stop-color="#2560F1"/>
<stop offset="0.4875" stop-color="#7944FF"/>
<stop offset="1" stop-color="#C623FF"/>
</linearGradient>
</defs>
</svg>
