<svg width="38" height="48" viewBox="0 0 38 48" fill="none" xmlns="http://www.w3.org/2000/svg">
<path d="M18.9999 24.0003C20.2833 24.0003 21.3823 23.543 22.2969 22.6283C23.21 21.7152 23.6666 20.617 23.6666 19.3337C23.6666 18.0503 23.21 16.9513 22.2969 16.0367C21.3823 15.1235 20.2833 14.667 18.9999 14.667C17.7166 14.667 16.6184 15.1235 15.7053 16.0367C14.7906 16.9513 14.3333 18.0503 14.3333 19.3337C14.3333 20.617 14.7906 21.7152 15.7053 22.6283C16.6184 23.543 17.7166 24.0003 18.9999 24.0003ZM18.9999 41.1503C23.7444 36.7948 27.2638 32.8374 29.5583 29.2783C31.8527 25.7208 32.9999 22.5614 32.9999 19.8003C32.9999 15.5614 31.6481 12.0902 28.9446 9.38666C26.2426 6.68466 22.9277 5.33366 18.9999 5.33366C15.0721 5.33366 11.7565 6.68466 9.05292 9.38666C6.35092 12.0902 4.99992 15.5614 4.99992 19.8003C4.99992 22.5614 6.14714 25.7208 8.44158 29.2783C10.736 32.8374 14.2555 36.7948 18.9999 41.1503ZM18.9999 47.3337C12.7388 42.0059 8.06281 37.0569 4.97192 32.4867C1.87947 27.918 0.333252 23.6892 0.333252 19.8003C0.333252 13.967 2.21003 9.31977 5.96359 5.85866C9.71559 2.39755 14.061 0.666992 18.9999 0.666992C23.9388 0.666992 28.2843 2.39755 32.0363 5.85866C35.7898 9.31977 37.6666 13.967 37.6666 19.8003C37.6666 23.6892 36.1211 27.918 33.0303 32.4867C29.9378 37.0569 25.261 42.0059 18.9999 47.3337Z" fill="url(#paint0_linear_721_1722)"/>
<defs>
<linearGradient id="paint0_linear_721_1722" x1="18.9999" y1="0.666992" x2="18.9999" y2="47.3337" gradientUnits="userSpaceOnUse">
<stop stop-color="#2560F1"/>
<stop offset="0.4875" stop-color="#7944FF"/>
<stop offset="1" stop-color="#C623FF"/>
</linearGradient>
</defs>
</svg>
