<svg width="45" height="45" viewBox="0 0 45 45" fill="none" xmlns="http://www.w3.org/2000/svg">
<path d="M42 19.5C43.6545 19.5 45 18.1545 45 16.5C45 14.8455 43.6545 13.5 42 13.5C40.3455 13.5 39 14.8455 39 16.5C39 16.845 39.0705 17.1712 39.1777 17.4802L34.986 20.2748C34.1617 19.7678 33.192 19.4782 32.1555 19.5007C31.8218 18.2077 30.6457 17.25 29.25 17.25C29.25 17.109 29.2373 16.971 29.229 16.8315L36.7357 9.32475C37.182 9.58875 37.695 9.75 38.25 9.75C39.9045 9.75 41.25 8.4045 41.25 6.75C41.25 5.0955 39.9045 3.75 38.25 3.75C36.5955 3.75 35.25 5.0955 35.25 6.75C35.25 7.305 35.4113 7.818 35.6753 8.26425L28.8788 15.0607C28.4123 13.7062 27.5295 12.546 26.379 11.7345L28.2975 5.979C28.3657 5.98425 28.431 6 28.5 6C30.1545 6 31.5 4.6545 31.5 3C31.5 1.3455 30.1545 0 28.5 0C26.8455 0 25.5 1.3455 25.5 3C25.5 4.05375 26.0482 4.97775 26.8717 5.51325L25.0425 11.001C24.2565 10.68 23.3993 10.5 22.5 10.5C21.6037 10.5 20.7472 10.6823 19.959 11.0048L18.1282 5.51325C18.9517 4.97775 19.5 4.05375 19.5 3C19.5 1.3455 18.1545 0 16.5 0C14.8455 0 13.5 1.3455 13.5 3C13.5 4.6545 14.8455 6 16.5 6C16.569 6 16.6343 5.98425 16.7025 5.97975L18.621 11.7352C17.4757 12.543 16.59 13.7003 16.1227 15.0623L9.32475 8.26425C9.58875 7.818 9.75 7.305 9.75 6.75C9.75 5.0955 8.4045 3.75 6.75 3.75C5.0955 3.75 3.75 5.0955 3.75 6.75C3.75 8.4045 5.0955 9.75 6.75 9.75C7.305 9.75 7.818 9.58875 8.26425 9.32475L14.9348 15.9952C13.2262 16.524 11.883 17.889 11.4233 19.674C10.9163 19.8045 10.449 20.0168 10.0185 20.2778L5.8215 17.4795C5.9295 17.1712 6 16.845 6 16.5C6 14.8455 4.6545 13.5 3 13.5C1.3455 13.5 0 14.8455 0 16.5C0 18.1545 1.3455 19.5 3 19.5C3.7665 19.5 4.4595 19.2023 4.98975 18.7283L8.82075 21.282C8.00025 22.2097 7.5 23.4188 7.5 24.75C7.5 25.0883 7.53525 25.4175 7.596 25.7385L5.46825 26.802C4.9275 26.0168 4.02375 25.5 3 25.5C1.3455 25.5 0 26.8455 0 28.5C0 30.1545 1.3455 31.5 3 31.5C4.6545 31.5 6 30.1545 6 28.5C6 28.407 5.9805 28.3185 5.97225 28.2278L8.094 27.1672C8.97075 28.8472 10.7265 30 12.75 30H13.9395L8.26425 35.6753C7.818 35.4113 7.305 35.25 6.75 35.25C5.0955 35.25 3.75 36.5955 3.75 38.25C3.75 39.9045 5.0955 41.25 6.75 41.25C8.4045 41.25 9.75 39.9045 9.75 38.25C9.75 37.695 9.58875 37.182 9.32475 36.7357L16.0605 30H19.2555L16.6793 39.018C16.6185 39.0142 16.5615 39 16.5 39C14.8455 39 13.5 40.3455 13.5 42C13.5 43.6545 14.8455 45 16.5 45C18.1545 45 19.5 43.6545 19.5 42C19.5 40.938 18.942 40.0095 18.108 39.4762L20.8155 30H24.1845L26.892 39.4762C26.058 40.0095 25.5 40.938 25.5 42C25.5 43.6545 26.8455 45 28.5 45C30.1545 45 31.5 43.6545 31.5 42C31.5 40.3455 30.1545 39 28.5 39C28.4385 39 28.3815 39.0142 28.3208 39.018L25.7445 30H28.9395L35.6753 36.7357C35.4113 37.182 35.25 37.695 35.25 38.25C35.25 39.9045 36.5955 41.25 38.25 41.25C39.9045 41.25 41.25 39.9045 41.25 38.25C41.25 36.5955 39.9045 35.25 38.25 35.25C37.695 35.25 37.182 35.4113 36.7357 35.6753L31.0605 30H32.25C34.2735 30 36.0293 28.8473 36.906 27.1665L39.0277 28.227C39.0195 28.3185 39 28.407 39 28.5C39 30.1545 40.3455 31.5 42 31.5C43.6545 31.5 45 30.1545 45 28.5C45 26.8455 43.6545 25.5 42 25.5C40.9762 25.5 40.0725 26.0168 39.531 26.802L37.4032 25.7385C37.4647 25.4175 37.5 25.0883 37.5 24.75C37.5 23.4217 36.999 22.2083 36.1808 21.2805L40.0095 18.7275C40.5405 19.2022 41.2335 19.5 42 19.5ZM38.25 5.25C39.0773 5.25 39.75 5.92275 39.75 6.75C39.75 7.57725 39.0773 8.25 38.25 8.25C37.4227 8.25 36.75 7.57725 36.75 6.75C36.75 5.92275 37.4227 5.25 38.25 5.25ZM28.5 1.5C29.3273 1.5 30 2.17275 30 3C30 3.82725 29.3273 4.5 28.5 4.5C27.6727 4.5 27 3.82725 27 3C27 2.17275 27.6727 1.5 28.5 1.5ZM15 3C15 2.17275 15.6727 1.5 16.5 1.5C17.3273 1.5 18 2.17275 18 3C18 3.82725 17.3273 4.5 16.5 4.5C15.6727 4.5 15 3.82725 15 3ZM3 30C2.17275 30 1.5 29.3273 1.5 28.5C1.5 27.6727 2.17275 27 3 27C3.82725 27 4.5 27.6727 4.5 28.5C4.5 29.3273 3.82725 30 3 30ZM6.75 39.75C5.92275 39.75 5.25 39.0773 5.25 38.25C5.25 37.4227 5.92275 36.75 6.75 36.75C7.57725 36.75 8.25 37.4227 8.25 38.25C8.25 39.0773 7.57725 39.75 6.75 39.75ZM16.5 43.5C15.6727 43.5 15 42.8273 15 42C15 41.1727 15.6727 40.5 16.5 40.5C17.3273 40.5 18 41.1727 18 42C18 42.8273 17.3273 43.5 16.5 43.5ZM30 42C30 42.8273 29.3273 43.5 28.5 43.5C27.6727 43.5 27 42.8273 27 42C27 41.1727 27.6727 40.5 28.5 40.5C29.3273 40.5 30 41.1727 30 42ZM39.75 38.25C39.75 39.0773 39.0773 39.75 38.25 39.75C37.4227 39.75 36.75 39.0773 36.75 38.25C36.75 37.4227 37.4227 36.75 38.25 36.75C39.0773 36.75 39.75 37.4227 39.75 38.25ZM42 27C42.8273 27 43.5 27.6727 43.5 28.5C43.5 29.3273 42.8273 30 42 30C41.1727 30 40.5 29.3273 40.5 28.5C40.5 27.6727 41.1727 27 42 27ZM42 15C42.8273 15 43.5 15.6727 43.5 16.5C43.5 17.3273 42.8273 18 42 18C41.1727 18 40.5 17.3273 40.5 16.5C40.5 15.6727 41.1727 15 42 15ZM5.25 6.75C5.25 5.92275 5.92275 5.25 6.75 5.25C7.57725 5.25 8.25 5.92275 8.25 6.75C8.25 7.57725 7.57725 8.25 6.75 8.25C5.92275 8.25 5.25 7.57725 5.25 6.75ZM3 18C2.17275 18 1.5 17.3273 1.5 16.5C1.5 15.6727 2.17275 15 3 15C3.82725 15 4.5 15.6727 4.5 16.5C4.5 17.3273 3.82725 18 3 18ZM32.25 28.5H12.75C10.6823 28.5 9 26.8177 9 24.75C9 22.8907 10.3343 21.3337 12.1733 21.0495C12.4965 21 12.75 20.7465 12.7995 20.4225C13.083 18.5857 14.637 17.2515 16.5142 17.2515C16.5157 17.2515 16.5172 17.2515 16.5187 17.2515C16.9245 17.28 17.2462 16.9823 17.295 16.5953C17.622 13.9755 19.8593 12 22.5 12C25.395 12 27.75 14.3558 27.75 17.25C27.75 17.4893 27.7275 17.751 27.6825 18.048C27.6412 18.3135 27.7463 18.5805 27.9563 18.7485C28.1663 18.9172 28.4505 18.957 28.7002 18.8588C29.7075 18.4598 30.7493 19.2555 30.7545 20.178C30.7508 20.2065 30.744 20.2665 30.7433 20.295C30.7365 20.52 30.831 20.7368 31.0005 20.8845C31.1707 21.0315 31.398 21.0953 31.62 21.057C31.8465 21.0188 32.0527 21 32.25 21C34.3177 21 36 22.6823 36 24.75C36 26.8177 34.3177 28.5 32.25 28.5Z" fill="url(#paint0_linear_721_1715)"/>
<defs>
<linearGradient id="paint0_linear_721_1715" x1="22.5" y1="0" x2="22.5" y2="45" gradientUnits="userSpaceOnUse">
<stop stop-color="#2A5EF1"/>
<stop offset="0.463542" stop-color="#7644FE"/>
<stop offset="1" stop-color="#BF25FE"/>
</linearGradient>
</defs>
</svg>
