<svg width="182" height="121" viewBox="0 0 182 121" fill="none" xmlns="http://www.w3.org/2000/svg">
<path d="M10.3206 111.833H176.952" stroke="#263238" stroke-linecap="round" stroke-linejoin="round"/>
<path d="M26.5282 39.9029C31.0648 39.9029 34.7425 36.2354 34.7425 31.7112C34.7425 27.1871 31.0648 23.5195 26.5282 23.5195C21.9916 23.5195 18.314 27.1871 18.314 31.7112C18.314 36.2354 21.9916 39.9029 26.5282 39.9029Z" stroke="#263238" stroke-linecap="round" stroke-linejoin="round"/>
<path d="M28.1966 38.7643C32.1019 37.8451 34.5206 33.9428 33.5989 30.0482C32.6771 26.1536 28.764 23.7416 24.8588 24.6608C20.9535 25.58 18.5348 29.4824 19.4565 33.3769C20.3783 37.2715 24.2914 39.6835 28.1966 38.7643Z" stroke="#263238" stroke-linecap="round" stroke-linejoin="round"/>
<path d="M26.5283 32.4038C26.9116 32.4038 27.2223 32.0939 27.2223 31.7117C27.2223 31.3294 26.9116 31.0195 26.5283 31.0195C26.145 31.0195 25.8342 31.3294 25.8342 31.7117C25.8342 32.0939 26.145 32.4038 26.5283 32.4038Z" fill="#263238" stroke="#263238" stroke-linecap="round" stroke-linejoin="round"/>
<path d="M29.0567 32.9427L26.5281 31.7109L22.3105 36.3065" stroke="#263238" stroke-linecap="round" stroke-linejoin="round"/>
<path d="M172.983 23.2441H152.463V48.7364H172.983V23.2441Z" stroke="#263238" stroke-linecap="round" stroke-linejoin="round"/>
<path d="M172.315 24.0791H153.135V47.9064H172.315V24.0791Z" stroke="#263238" stroke-linecap="round" stroke-linejoin="round"/>
<path d="M166.668 31.0918H158.782V40.888H166.668V31.0918Z" stroke="#263238" stroke-linecap="round" stroke-linejoin="round"/>
<path d="M95.0259 9.46747V1.81543" stroke="#263238" stroke-linecap="round" stroke-linejoin="round"/>
<path d="M101.362 13.5596H88.6921L92.4923 8.75586H97.5616L101.362 13.5596Z" fill="#263238"/>
<path d="M164.062 9.46747V1.81543" stroke="#263238" stroke-linecap="round" stroke-linejoin="round"/>
<path d="M170.396 13.5596H157.726L161.526 8.75586H166.596L170.396 13.5596Z" fill="#263238"/>
<path d="M25.9919 9.46747V1.81543" stroke="#263238" stroke-linecap="round" stroke-linejoin="round"/>
<path d="M32.3281 13.5596H19.6584L23.4586 8.75586H28.5255L32.3281 13.5596Z" fill="#263238"/>
<path d="M24.1162 77.7473C24.12 77.7429 24.122 77.7373 24.122 77.7315C24.122 77.7258 24.12 77.7202 24.1162 77.7158C24.1104 77.7133 24.1039 77.7132 24.098 77.7155C24.0921 77.7177 24.0873 77.7222 24.0846 77.7279C23.3931 79.3849 22.8459 81.0981 22.4491 82.8486C22.0477 84.5993 21.7455 86.3711 21.5439 88.1557L21.4153 89.4964C21.3959 89.7214 21.3716 89.9441 21.3571 90.1691L21.3182 90.8419C21.2988 91.2896 21.2721 91.7397 21.26 92.1898V93.5378L21.2746 94.2105C21.2746 94.4356 21.3013 94.6606 21.3158 94.8833C21.3498 95.331 21.3765 95.7811 21.4177 96.2264C21.5051 97.1218 21.6386 98.0099 21.7793 98.8884C21.7799 98.8937 21.7825 98.8987 21.7865 98.9022C21.7905 98.9058 21.7958 98.9078 21.8012 98.9077C21.8044 98.9081 21.8078 98.9078 21.8109 98.9067C21.814 98.9056 21.8168 98.9038 21.8192 98.9015C21.8215 98.8992 21.8233 98.8964 21.8244 98.8932C21.8255 98.8901 21.8258 98.8868 21.8254 98.8835C21.8254 98.4334 21.8036 97.9857 21.7939 97.538C21.7842 97.0903 21.7429 96.6475 21.7478 96.1998C21.7526 95.7521 21.7478 95.3092 21.7332 94.8615V94.1936V93.5257V92.1898L21.7696 90.854L21.7842 90.1861C21.7842 89.9634 21.8109 89.7408 21.823 89.5206L21.9031 88.1847C22.0565 86.4077 22.3101 84.6408 22.6626 82.8922C22.9976 81.1386 23.4839 79.4173 24.1162 77.7473Z" fill="#263238"/>
<path d="M24.3078 84.7337C24.309 84.7308 24.3095 84.7278 24.3094 84.7247C24.3092 84.7217 24.3084 84.7187 24.3071 84.7159C24.3057 84.7132 24.3038 84.7108 24.3014 84.7088C24.299 84.7069 24.2962 84.7055 24.2933 84.7047C24.2904 84.7035 24.2874 84.703 24.2843 84.7031C24.2812 84.7033 24.2782 84.704 24.2755 84.7054C24.2727 84.7068 24.2703 84.7087 24.2683 84.7111C24.2664 84.7135 24.265 84.7162 24.2642 84.7192C23.4986 86.9477 22.9897 89.2559 22.7475 91.5992C22.6286 92.7681 22.5048 93.937 22.4806 95.1131C22.451 96.2899 22.4932 97.4673 22.6067 98.639C22.6073 98.644 22.6095 98.6486 22.613 98.6521C22.6166 98.6556 22.6212 98.6578 22.6262 98.6584C22.6292 98.6591 22.6324 98.6591 22.6354 98.6585C22.6385 98.6579 22.6414 98.6566 22.6439 98.6548C22.6465 98.6529 22.6486 98.6506 22.6501 98.6479C22.6516 98.6451 22.6526 98.6421 22.6528 98.639C22.7887 97.4677 22.8737 96.3013 22.9538 95.1324C23.0338 93.9636 23.0484 92.7971 23.1236 91.6307C23.1965 90.4655 23.3351 89.3053 23.5386 88.1556C23.7321 87.0018 23.9889 85.8594 24.3078 84.7337Z" fill="#263238"/>
<path d="M28.1931 87.1907C28.1883 87.1867 28.1823 87.1846 28.1761 87.1846C28.1699 87.1846 28.1639 87.1867 28.1592 87.1907C27.1883 87.8136 26.3136 88.5742 25.5626 89.4485C25.1859 89.8891 24.8466 90.3602 24.5483 90.857L24.3396 91.2345L24.1746 91.6435C24.1194 91.7785 24.0724 91.9166 24.0338 92.0573C23.9901 92.1952 23.944 92.3356 23.9076 92.4735C23.6093 93.5907 23.4287 94.7359 23.3689 95.8906C23.3122 97.0392 23.3552 98.1906 23.4975 99.3318C23.4989 99.3368 23.5017 99.3413 23.5056 99.3447C23.5094 99.3482 23.5142 99.3504 23.5194 99.3512C23.5226 99.3519 23.526 99.3519 23.5292 99.3511C23.5325 99.3504 23.5355 99.3489 23.5381 99.3468C23.5406 99.3447 23.5427 99.342 23.5441 99.339C23.5455 99.336 23.5461 99.3327 23.5461 99.3294L23.8421 95.9244C23.9201 94.8001 24.0619 93.6811 24.2668 92.5727C24.2983 92.4348 24.3372 92.3017 24.3711 92.1662C24.4042 92.0302 24.4447 91.8961 24.4925 91.7645L24.6308 91.3724L24.8079 90.9997C25.0787 90.5052 25.3904 90.0341 25.7398 89.5913C26.4329 88.6883 27.2545 87.8909 28.1786 87.2245C28.1849 87.2218 28.19 87.2168 28.1927 87.2105C28.1954 87.2042 28.1956 87.1971 28.1931 87.1907Z" fill="#263238"/>
<path d="M26.3124 91.5654C25.808 91.9335 25.4022 92.4197 25.1307 92.9811C24.8475 93.5336 24.6261 94.1155 24.4706 94.7163C24.4245 94.8639 24.3881 95.0139 24.3541 95.1664L24.2474 95.6189C24.1913 95.923 24.1532 96.23 24.1333 96.5385C24.1333 96.8483 24.1333 97.1556 24.1333 97.4654C24.1569 97.7739 24.1974 98.0809 24.2546 98.385C24.2562 98.3895 24.2588 98.3935 24.2621 98.3969C24.2655 98.4002 24.2696 98.4028 24.274 98.4044C24.2804 98.4052 24.2869 98.4036 24.2922 98.4001C24.2976 98.3965 24.3015 98.3912 24.3032 98.385C24.3745 98.0866 24.4288 97.7844 24.4658 97.4799C24.5143 97.1798 24.5604 96.8822 24.5968 96.5821C24.6332 96.282 24.6793 95.9892 24.7036 95.6915C24.7278 95.3939 24.7667 95.0938 24.8322 94.801C24.9363 94.2111 25.1064 93.6348 25.3394 93.0828C25.5472 92.5193 25.8866 92.0133 26.3294 91.6066C26.3332 91.6022 26.3353 91.5966 26.3353 91.5908C26.3353 91.5851 26.3332 91.5795 26.3294 91.5751C26.3274 91.5724 26.3249 91.5702 26.322 91.5685C26.319 91.5668 26.3158 91.5658 26.3124 91.5654Z" fill="#263238"/>
<path d="M20.8694 94.9774C20.7407 93.4649 20.4908 91.9693 20.2554 90.4738C20.02 88.9782 19.7555 87.4851 19.4813 85.9968C19.2071 84.5085 18.9013 83.025 18.5786 81.544C18.577 81.5391 18.5739 81.5349 18.5698 81.5319C18.5656 81.5289 18.5606 81.5273 18.5555 81.5273C18.5504 81.5273 18.5454 81.5289 18.5413 81.5319C18.5372 81.5349 18.5341 81.5391 18.5325 81.544C18.7921 83.0347 19.0178 84.5303 19.2605 86.0258C19.5031 87.5214 19.7021 89.0169 19.8914 90.5173C20.0807 92.0177 20.2214 93.5206 20.4107 95.0185L20.964 99.5197C20.9655 99.5251 20.9687 99.5298 20.973 99.5333C20.9774 99.5368 20.9827 99.5388 20.9883 99.5391C20.9941 99.5387 20.9997 99.5363 21.0041 99.5323C21.0085 99.5284 21.0115 99.5231 21.0125 99.5173C21.0295 99.1374 21.0295 98.7574 21.0392 98.3775C21.0489 97.9976 21.0247 97.62 21.0174 97.2401C20.9883 96.4899 20.9227 95.7349 20.8694 94.9774Z" fill="#263238"/>
<path d="M19.957 94.9559C19.8769 94.3581 19.7653 93.7628 19.6512 93.1699L19.4377 92.2866C19.3673 91.9914 19.3018 91.6961 19.2169 91.4057C18.9144 90.2329 18.5267 89.0836 18.0569 87.9669L17.8749 87.5507L17.6735 87.1441C17.5449 86.8706 17.3896 86.6093 17.2416 86.3455C16.9447 85.8141 16.5765 85.3256 16.1471 84.8935C16.1427 84.8898 16.1371 84.8877 16.1314 84.8877C16.1256 84.8877 16.12 84.8898 16.1156 84.8935C16.1111 84.898 16.1086 84.9041 16.1086 84.9104C16.1086 84.9168 16.1111 84.9229 16.1156 84.9274C16.5135 85.3736 16.8497 85.8709 17.1154 86.406C17.2464 86.6746 17.3872 86.9408 17.4988 87.2167L17.6784 87.6281L17.8361 88.0492C18.2558 89.1695 18.5932 90.3188 18.8456 91.488C18.9839 92.0712 19.0882 92.6641 19.1877 93.2498L19.3309 94.1355C19.3819 94.4307 19.445 94.7235 19.4862 95.0188C19.5809 95.6117 19.6901 96.1997 19.7944 96.7926C19.8988 97.3855 19.9934 97.976 20.1196 98.5689C20.1207 98.5745 20.1238 98.5794 20.1282 98.583C20.1326 98.5865 20.1382 98.5884 20.1438 98.5883C20.1467 98.5883 20.1496 98.5877 20.1522 98.5866C20.1549 98.5855 20.1573 98.5839 20.1593 98.5819C20.1613 98.5799 20.1629 98.5775 20.164 98.5748C20.1651 98.5722 20.1657 98.5694 20.1657 98.5665C20.1657 97.9615 20.1519 97.3573 20.1244 96.7539C20.0905 96.1586 20.0201 95.5584 19.957 94.9559Z" fill="#263238"/>
<path d="M18.7022 95.0334C18.4207 94.2396 18.0956 93.4628 17.7316 92.7029C17.3724 91.9426 16.9672 91.2047 16.5182 90.4934C16.5136 90.4901 16.5081 90.4883 16.5024 90.4883C16.4968 90.4883 16.4912 90.4901 16.4867 90.4934C16.4822 90.498 16.4797 90.504 16.4797 90.5104C16.4797 90.5167 16.4822 90.5228 16.4867 90.5273C16.8762 91.2641 17.2206 92.0238 17.518 92.8021C17.8262 93.5765 18.1028 94.3606 18.3358 95.1592C18.5688 95.9578 18.741 96.7661 18.9546 97.5671C19.1681 98.3681 19.3598 99.174 19.6049 99.9871C19.6064 99.9918 19.6093 99.9959 19.6132 99.999C19.6171 100.002 19.6218 100.004 19.6268 100.004C19.6298 100.004 19.6329 100.004 19.6359 100.003C19.6388 100.002 19.6415 100.001 19.6438 99.9986C19.6461 99.9965 19.6479 99.994 19.6492 99.9912C19.6504 99.9884 19.6511 99.9853 19.651 99.9822C19.659 99.1371 19.5777 98.2936 19.4084 97.4654C19.2391 96.6371 19.0029 95.8238 18.7022 95.0334Z" fill="#263238"/>
<path d="M18.6513 97.6763C18.4947 97.1823 18.2701 96.7124 17.984 96.2799C17.7161 95.8352 17.3896 95.4282 17.0133 95.0699C16.82 94.9037 16.613 94.754 16.3945 94.6222C16.178 94.4821 15.9416 94.3753 15.6932 94.3052C15.6902 94.3041 15.687 94.3036 15.6837 94.3037C15.6805 94.3039 15.6774 94.3046 15.6744 94.306C15.6685 94.3087 15.6639 94.3136 15.6617 94.3197C15.6594 94.3258 15.6597 94.3326 15.6624 94.3385C15.6651 94.3444 15.6701 94.349 15.6762 94.3512C16.1235 94.5655 16.5197 94.8724 16.8386 95.2514C17.1616 95.6218 17.4333 96.0336 17.6467 96.476C17.8894 96.9091 17.9961 97.3883 18.1975 97.836C18.2849 98.0659 18.3723 98.2982 18.4742 98.5257C18.563 98.7635 18.6668 98.9954 18.7848 99.2202C18.7869 99.2243 18.79 99.2278 18.7938 99.2304C18.7976 99.2329 18.802 99.2344 18.8066 99.2348C18.8098 99.2348 18.813 99.2341 18.8159 99.2329C18.8189 99.2317 18.8215 99.2299 18.8238 99.2277C18.826 99.2254 18.8278 99.2228 18.829 99.2198C18.8303 99.2169 18.8309 99.2137 18.8309 99.2106C18.8394 98.9529 18.8297 98.6949 18.8018 98.4386C18.7654 98.1796 18.712 97.928 18.6513 97.6763Z" fill="#263238"/>
<path d="M18.7435 83.7104C17.9863 83.4992 17.3013 83.0857 16.7624 82.5146C16.2236 81.9436 15.8513 81.2366 15.6859 80.47C15.1132 77.808 16.9599 78.9454 15.3049 74.7515C13.65 70.5577 14.0309 69.6066 14.6036 68.399C15.1763 67.1915 15.4942 67.5738 16.0038 69.1613C16.5134 70.7489 18.3625 73.2269 19.0614 77.8733C19.7603 82.5197 18.7435 83.7104 18.7435 83.7104Z" fill="#263238"/>
<path d="M23.6503 79.1994C23.6503 79.1994 21.9928 78.6283 21.9298 75.5137C21.8667 72.3992 23.1431 73.0381 23.3299 69.1612C23.5168 65.2844 23.7764 62.5546 24.4778 62.4917C25.1791 62.4288 27.0258 64.3962 27.664 68.728C28.3022 73.0598 26.8365 75.9082 25.5625 77.1787C24.2885 78.4492 23.6503 79.1994 23.6503 79.1994Z" fill="#263238"/>
<path d="M17.8531 87.4586C17.8531 87.4586 17.4721 85.1838 16.7053 84.0899C15.9384 82.9961 14.2786 82.0571 13.2012 79.9614C12.1237 77.8657 10.908 76.8493 10.9735 79.8331C11.039 82.817 12.3737 84.344 14.0311 85.3604C15.6885 86.3768 17.8531 87.4586 17.8531 87.4586Z" fill="#263238"/>
<path d="M17.1517 91.3959C17.1517 91.3959 15.6229 88.475 13.3928 86.3139C11.1627 84.1529 9.37908 83.0735 10.0173 84.1529C10.6555 85.2322 11.4175 85.1717 12.5022 87.0762C13.5869 88.9808 13.2666 90.3795 14.7954 91.4588C16.3242 92.5382 17.1517 91.3959 17.1517 91.3959Z" fill="#263238"/>
<path d="M16.9601 95.1451C16.897 94.9539 16.8339 93.5575 14.6669 92.4129C12.4998 91.2682 10.4639 91.7135 10.7187 92.287C10.9735 92.8606 12.3106 93.8116 13.6477 94.3828C14.9847 94.9539 16.9601 95.1451 16.9601 95.1451Z" fill="#263238"/>
<path d="M23.5216 87.5849C23.5216 87.5849 22.5655 86.3749 23.0751 83.8363C23.5847 81.2977 24.7325 81.9318 26.0065 80.5959C27.2805 79.2601 27.0257 79.0713 28.2997 77.675C29.5737 76.2787 30.7264 75.5139 31.2287 76.0875C31.731 76.661 30.986 78.4373 30.2095 79.4537C29.433 80.4701 28.2366 80.9783 27.6615 82.2488C27.0864 83.5193 27.3436 85.5521 25.8779 86.5056C24.4122 87.4591 23.5216 87.5849 23.5216 87.5849Z" fill="#263238"/>
<path d="M26.708 88.2843C26.708 88.2843 29.0012 85.6804 30.6562 83.7734C32.3112 81.8665 32.9494 80.4072 33.0125 81.6777C33.0756 82.9482 33.5876 83.9646 32.2481 85.615C30.9086 87.2655 26.708 88.2843 26.708 88.2843Z" fill="#263238"/>
<path d="M25.4969 92.4758C25.4969 92.4758 25.4338 91.4594 29.0641 89.1095C32.6944 86.7597 34.2232 86.3144 33.8422 87.2679C33.4612 88.2214 31.8669 89.1725 30.1464 90.8979C28.4259 92.6234 25.4969 92.4758 25.4969 92.4758Z" fill="#263238"/>
<path d="M18.8966 83.4391C18.8966 83.4391 18.0424 78.892 17.1518 75.6419C16.2612 72.3918 15.6958 70.4316 15.6958 70.4316" stroke="#263238" stroke-width="0.5" stroke-linecap="round" stroke-linejoin="round"/>
<path d="M23.5022 79.2476C23.5022 79.2476 25.0504 74.3084 25.56 71.3221C26.0696 68.3358 25.4969 66.1118 25.2421 64.7881" stroke="#263238" stroke-width="0.5" stroke-linecap="round" stroke-linejoin="round"/>
<path d="M17.6516 87.3617C16.965 86.1862 16.1801 85.0706 15.305 84.027C13.9024 82.3741 12.8201 81.486 12.1819 79.8984" stroke="#263238" stroke-width="0.5" stroke-linecap="round" stroke-linejoin="round"/>
<path d="M23.5217 87.5843C23.5217 87.5843 24.0313 84.5351 25.2422 82.9475C26.4531 81.36 28.8822 78.8819 29.8286 77.292" stroke="#263238" stroke-width="0.5" stroke-linecap="round" stroke-linejoin="round"/>
<path d="M16.8095 95.0747C16.8095 95.0747 14.6667 93.6832 13.1379 92.9209" stroke="#263238" stroke-width="0.5" stroke-linecap="round" stroke-linejoin="round"/>
<path d="M24.4728 111.833H18.4741L17.188 97.6299H25.759L24.4728 111.833Z" fill="#263238" stroke="#263238" stroke-linecap="round" stroke-linejoin="round"/>
<path d="M122.226 25.5645H62.2004V66.6319H122.226V25.5645Z" fill="#263238" stroke="#263238" stroke-linecap="round" stroke-linejoin="round"/>
<path d="M121.275 26.5547H63.1541V65.6401H121.275V26.5547Z" fill="white" stroke="#263238" stroke-linecap="round" stroke-linejoin="round"/>
<path d="M92.5094 36.4541H83.9675V43.2833H92.5094V36.4541Z" fill="#263238"/>
<path d="M101.345 43.3945H92.8032V50.2238H101.345V43.3945Z" fill="#263238"/>
<path d="M92.5094 57.0537H83.9675V63.883H92.5094V57.0537Z" fill="#263238"/>
<path d="M110.295 29.7344H101.753V36.5636H110.295V29.7344Z" fill="#263238"/>
<path d="M66.219 30.7266V63.8854" stroke="#263238" stroke-linecap="round" stroke-linejoin="round"/>
<path d="M75.0181 30.7266V63.8854" stroke="#263238" stroke-linecap="round" stroke-linejoin="round"/>
<path d="M83.8196 30.7266V63.8854" stroke="#263238" stroke-linecap="round" stroke-linejoin="round"/>
<path d="M92.6187 30.7266V63.8854" stroke="#263238" stroke-linecap="round" stroke-linejoin="round"/>
<path d="M101.42 30.7266V63.8854" stroke="#263238" stroke-linecap="round" stroke-linejoin="round"/>
<path d="M110.219 30.7266V63.8854" stroke="#263238" stroke-linecap="round" stroke-linejoin="round"/>
<path d="M119.021 30.7266V63.8854" stroke="#263238" stroke-linecap="round" stroke-linejoin="round"/>
<path d="M66.4399 36.4541H119.133" stroke="#263238" stroke-linecap="round" stroke-linejoin="round"/>
<path d="M66.4399 43.2842H119.133" stroke="#263238" stroke-linecap="round" stroke-linejoin="round"/>
<path d="M66.4399 50.1152H119.133" stroke="#263238" stroke-linecap="round" stroke-linejoin="round"/>
<path d="M66.4399 56.9443H119.133" stroke="#263238" stroke-linecap="round" stroke-linejoin="round"/>
<path d="M85.2173 37.667H90.5195" stroke="#263238" stroke-linecap="round" stroke-linejoin="round"/>
<path d="M85.2173 38.5479H90.5195" stroke="#263238" stroke-linecap="round" stroke-linejoin="round"/>
<path d="M85.2173 39.4287H90.5195" stroke="#263238" stroke-linecap="round" stroke-linejoin="round"/>
<path d="M85.2173 40.3096H90.5195" stroke="#263238" stroke-linecap="round" stroke-linejoin="round"/>
<path d="M85.2173 41.1904H90.5195" stroke="#263238" stroke-linecap="round" stroke-linejoin="round"/>
<path d="M94.4968 45.0479H99.7991" stroke="#263238" stroke-linecap="round" stroke-linejoin="round"/>
<path d="M94.4968 45.9287H99.7991" stroke="#263238" stroke-linecap="round" stroke-linejoin="round"/>
<path d="M94.4968 46.8096H99.7991" stroke="#263238" stroke-linecap="round" stroke-linejoin="round"/>
<path d="M94.4968 47.6904H99.7991" stroke="#263238" stroke-linecap="round" stroke-linejoin="round"/>
<path d="M94.4968 48.5713H99.7991" stroke="#263238" stroke-linecap="round" stroke-linejoin="round"/>
<path d="M85.4382 58.5977H90.7405" stroke="#263238" stroke-linecap="round" stroke-linejoin="round"/>
<path d="M85.4382 59.4785H90.7405" stroke="#263238" stroke-linecap="round" stroke-linejoin="round"/>
<path d="M85.4382 60.3594H90.7405" stroke="#263238" stroke-linecap="round" stroke-linejoin="round"/>
<path d="M85.4382 61.2402H90.7405" stroke="#263238" stroke-linecap="round" stroke-linejoin="round"/>
<path d="M85.4382 62.1211H90.7405" stroke="#263238" stroke-linecap="round" stroke-linejoin="round"/>
<path d="M103.002 31.6074H108.305" stroke="#263238" stroke-linecap="round" stroke-linejoin="round"/>
<path d="M103.002 32.4883H108.305" stroke="#263238" stroke-linecap="round" stroke-linejoin="round"/>
<path d="M103.002 33.3691H108.305" stroke="#263238" stroke-linecap="round" stroke-linejoin="round"/>
<path d="M103.002 34.25H108.305" stroke="#263238" stroke-linecap="round" stroke-linejoin="round"/>
<path d="M103.002 35.1328H108.305" stroke="#263238" stroke-linecap="round" stroke-linejoin="round"/>
<path d="M163.754 86.9844H166.343V82.3985H163.754V86.9844Z" fill="#263238" stroke="#263238" stroke-linecap="round" stroke-linejoin="round"/>
<path d="M162.589 83.7949H167.906C170.001 83.7949 171.699 82.1015 171.699 80.0125V67.8931C171.699 65.8041 170.001 64.1106 167.906 64.1106H162.589C160.494 64.1106 158.796 65.8041 158.796 67.8931V80.0125C158.796 82.1015 160.494 83.7949 162.589 83.7949Z" fill="#949494" stroke="#263238" stroke-linecap="round" stroke-linejoin="round"/>
<path d="M169.117 111.012C169.116 110.796 169.18 110.584 169.301 110.404C169.421 110.223 169.592 110.083 169.793 110C169.993 109.917 170.214 109.895 170.427 109.937C170.64 109.979 170.836 110.083 170.989 110.236C171.143 110.39 171.247 110.585 171.289 110.797C171.332 111.009 171.31 111.23 171.226 111.43C171.143 111.63 171.002 111.8 170.821 111.92C170.641 112.04 170.428 112.104 170.211 112.104C169.921 112.104 169.643 111.989 169.437 111.784C169.232 111.579 169.117 111.302 169.117 111.012Z" fill="#263238" stroke="#263238" stroke-linecap="round" stroke-linejoin="round"/>
<path d="M147.711 111.012C147.711 110.796 147.775 110.584 147.895 110.404C148.015 110.223 148.187 110.083 148.387 110C148.588 109.917 148.808 109.895 149.021 109.937C149.234 109.979 149.43 110.083 149.584 110.236C149.737 110.39 149.842 110.585 149.884 110.797C149.926 111.009 149.904 111.23 149.821 111.43C149.738 111.63 149.597 111.8 149.416 111.92C149.235 112.04 149.023 112.104 148.806 112.104C148.515 112.104 148.237 111.989 148.032 111.784C147.826 111.579 147.711 111.302 147.711 111.012Z" fill="#263238" stroke="#263238" stroke-linecap="round" stroke-linejoin="round"/>
<path d="M158.976 111.013C158.976 110.408 159.204 109.919 159.485 109.919C159.767 109.919 159.995 110.403 159.995 111.013C159.995 111.623 159.767 112.104 159.485 112.104C159.204 112.104 158.976 111.615 158.976 111.013Z" fill="#263238" stroke="#263238" stroke-linecap="round" stroke-linejoin="round"/>
<path d="M158.488 105.081V89.4189H160.638V105.147L171.252 109.333V110.383H169.709V109.493L159.483 107.39L149.255 109.493V110.383H147.714V109.333L158.488 105.081Z" fill="#263238" stroke="#263238" stroke-linecap="round" stroke-linejoin="round"/>
<path d="M160.024 110.38H158.947L158.716 105.296H160.255L160.024 110.38Z" fill="#263238" stroke="#263238" stroke-linecap="round" stroke-linejoin="round"/>
<path d="M156.833 92.0615H162.3V88.8236H156.833V92.0615Z" fill="#263238" stroke="#263238" stroke-linecap="round" stroke-linejoin="round"/>
<path d="M151.431 90.0137H168.214C169.006 90.0137 169.648 89.3733 169.648 88.5835V87.2694C169.648 86.4795 169.006 85.8392 168.214 85.8392H151.431C150.639 85.8392 149.997 86.4795 149.997 87.2694V88.5835C149.997 89.3733 150.639 90.0137 151.431 90.0137Z" fill="#949494" stroke="#263238" stroke-linecap="round" stroke-linejoin="round"/>
<path d="M143.105 106.635C142.479 107.496 141.691 108.229 140.786 108.791C139.414 109.577 137.308 109.895 137.308 110.313C137.308 110.732 137.466 111.47 139.046 111.68C140.625 111.891 147.478 111.995 148.374 111.785C149.269 111.574 148.427 107.16 148.427 107.16C148.427 107.16 144.263 107.37 143.105 106.635Z" fill="white" stroke="#263238" stroke-linecap="round" stroke-linejoin="round"/>
<path d="M139.048 111.68C140.63 111.89 147.481 111.994 148.376 111.784C148.604 111.731 148.721 111.404 148.764 110.944C146.855 111.005 143.13 111.06 140.895 110.944C137.891 110.787 137.311 110.312 137.311 110.312C137.308 110.734 137.466 111.469 139.048 111.68Z" fill="white" stroke="#263238" stroke-linecap="round" stroke-linejoin="round"/>
<path d="M138.361 65.5381C138.361 65.5381 138.784 71.7406 139.152 74.3687C139.521 76.9968 140.892 87.715 141.788 90.5004C142.683 93.2859 143.632 105.262 143.632 105.262C143.632 105.262 142.63 105.63 142.683 106.049C142.737 106.468 142.788 107.102 142.788 107.102C142.788 107.102 144.843 108.205 146.056 108.205C147.27 108.205 148.796 107.69 148.796 107.69C148.796 107.69 148.481 103.012 148.311 99.3334C148.141 95.655 146.627 79.9928 146.627 79.9928L146.328 64.3838L138.361 65.5381Z" fill="#263238" stroke="#263238" stroke-linecap="round" stroke-linejoin="round"/>
<path d="M147.267 107.791C147.267 107.791 147.374 108.79 144.739 109.683C142.103 110.576 141.788 111.523 142.103 112.312C142.419 113.1 147.901 113.098 149.956 112.783C152.011 112.469 153.064 112.362 153.222 111.944C153.38 111.525 152.8 108.314 152.8 108.314L147.267 107.791Z" fill="white" stroke="#263238" stroke-linecap="round" stroke-linejoin="round"/>
<path d="M153.222 111.944C153.257 111.758 153.262 111.567 153.237 111.38C152.509 111.513 151.538 111.694 150.271 111.944C147.456 112.488 143.744 112.166 142.021 111.963C142.035 112.083 142.065 112.2 142.111 112.312C142.426 113.098 147.908 113.098 149.963 112.783C152.019 112.469 153.065 112.362 153.222 111.944Z" fill="white" stroke="#263238" stroke-linecap="round" stroke-linejoin="round"/>
<path d="M140.261 67.063L141.79 68.9022C141.79 68.9022 142.948 81.6193 143.37 84.9322C143.792 88.2452 145.796 100.067 145.796 100.067L147.056 106.373L146.74 107.16C146.661 107.506 146.661 107.866 146.74 108.213C146.794 108.423 146.687 108.58 148.682 108.895C150.011 109.078 151.359 109.078 152.688 108.895C152.862 108.424 152.951 107.926 152.95 107.424C152.976 106.737 152.923 106.049 152.793 105.374C152.635 104.534 152.793 100.067 151.635 95.285C150.477 90.5031 149.631 84.9831 149.631 83.1439C149.631 81.3047 149.684 70.5308 149.737 70.3179C149.791 70.1049 150.791 69.4225 150.844 67.4792C150.897 65.5359 150.633 64.7979 150.633 64.7979H140.363" fill="#263238"/>
<path d="M140.261 67.063L141.79 68.9022C141.79 68.9022 142.948 81.6193 143.37 84.9322C143.792 88.2452 145.796 100.067 145.796 100.067L147.056 106.373L146.74 107.16C146.661 107.506 146.661 107.866 146.74 108.213C146.794 108.423 146.687 108.58 148.682 108.895C150.011 109.078 151.359 109.078 152.688 108.895C152.862 108.424 152.951 107.926 152.95 107.424C152.976 106.737 152.923 106.049 152.793 105.374C152.635 104.534 152.793 100.067 151.635 95.285C150.477 90.5031 149.631 84.9831 149.631 83.1439C149.631 81.3047 149.684 70.5308 149.737 70.3179C149.791 70.1049 150.791 69.4225 150.844 67.4792C150.897 65.5359 150.633 64.7979 150.633 64.7979H140.363" stroke="#263238" stroke-linecap="round" stroke-linejoin="round"/>
<path d="M140.205 41.0497C140.205 41.0497 137.835 46.9472 137.677 50.8192C137.519 54.6912 137.677 60.2257 137.73 60.4363C137.784 60.6468 137.15 65.0609 137.519 65.7433C137.599 65.931 137.744 66.0835 137.928 66.1725C138.112 66.2615 138.322 66.281 138.519 66.2273C138.519 66.2273 150.06 66.3846 150.587 66.2782C151.113 66.1717 151.22 65.4917 151.315 64.9641C151.409 64.4365 150.999 58.1881 150.999 57.2395C150.999 56.2908 151.315 45.7299 149.997 42.7872C148.679 39.8445 145.413 37.4269 144.991 37.3229C144.569 37.2188 141.154 38.3683 140.205 41.0497Z" fill="#263238" stroke="#263238" stroke-linecap="round" stroke-linejoin="round"/>
<path d="M134.437 29.4748C134.437 29.4748 134.034 31.4108 134.153 31.5656C134.272 31.7205 134.677 32.4901 134.677 32.4901L133.629 35.3457L134.881 35.7063L136.655 38.7627L139.4 37.9932L140.208 41.6522C140.208 41.6522 140.087 42.9784 140.693 42.6202C141.3 42.262 141.822 41.8555 142.991 39.8445C144.161 37.8334 145.328 37.514 145.328 37.514C145.328 37.514 143.872 35.578 143.595 34.9803C143.319 34.3825 143.474 33.3734 142.991 30.9195C142.508 28.4656 140.853 27.9453 138.597 27.9453C136.34 27.9453 134.644 28.3882 134.437 29.4748Z" fill="white" stroke="#263238" stroke-linecap="round" stroke-linejoin="round"/>
<path d="M135.571 27.1834C135.571 27.1834 133.755 27.5851 133.433 27.9481C133.11 28.3111 133.595 29.434 134.039 29.676C134.483 29.918 137.349 29.2816 137.303 29.4752C137.257 29.6688 136.818 30.2012 137.303 30.3996C137.789 30.598 139.73 31.1256 139.73 31.1256L139.245 34.8258C139.245 34.8258 136.866 34.7048 136.301 34.8258C135.736 34.9468 134.891 35.7091 134.891 35.7091C134.891 35.7091 135.932 38.8841 136.136 39.2035C136.34 39.523 136.9 39.4455 137.546 39.2035C138.191 38.9615 140.812 37.0715 141.094 36.8295C141.375 36.5875 140.771 34.2159 140.771 34.2159C140.771 34.2159 140.851 32.246 140.851 31.8443C140.851 31.4426 141.375 31.4426 141.739 31.7233C142.103 32.004 142.225 33.0906 142.142 33.4923C142.041 33.802 141.86 34.0798 141.618 34.2982C141.618 34.2982 143.149 35.4622 143.472 35.4622C143.572 35.4713 143.672 35.444 143.754 35.3853C143.835 35.3266 143.893 35.2405 143.916 35.1428C143.957 35.0218 143.875 31.5636 143.875 31.5636C143.875 31.5636 143.957 28.2676 143.513 27.2221C143.069 26.1767 140.972 25.8936 139.643 26.0944C138.313 26.2953 135.571 27.1834 135.571 27.1834Z" fill="#263238" stroke="#263238" stroke-linecap="round" stroke-linejoin="round"/>
<path d="M135.893 32.6523C135.932 32.8726 135.867 33.0662 135.745 33.0879C135.624 33.1097 135.503 32.9476 135.457 32.7298C135.41 32.512 135.486 32.316 135.607 32.2966C135.728 32.2772 135.852 32.4273 135.893 32.6523Z" stroke="#263238" stroke-linecap="round" stroke-linejoin="round"/>
<path d="M135.005 31.8465C135.148 31.6922 135.345 31.598 135.555 31.5831C135.765 31.5683 135.973 31.6339 136.136 31.7666" stroke="#263238" stroke-linecap="round" stroke-linejoin="round"/>
<path d="M136.175 36.2701C136.175 36.2701 137.102 35.987 137.388 35.3457" stroke="white" stroke-linecap="round" stroke-linejoin="round"/>
<path d="M147.005 54.4492C147.005 54.4492 144.739 64.4874 144.527 65.0125C144.316 65.5377 143.416 67.6406 143.416 67.6406L145.894 69.7944C145.894 69.7944 146.263 69.2161 146.578 67.8584C146.774 66.9762 146.898 66.0794 146.947 65.1771C146.947 65.1771 150.531 57.5589 151.109 56.5062C151.686 55.4535 151.269 54.667 151.269 54.4057C151.269 54.1443 147.005 54.4492 147.005 54.4492Z" fill="white" stroke="#263238" stroke-linecap="round" stroke-linejoin="round"/>
<path d="M145.369 42.9929C145.369 42.9929 144.792 44.8321 144.843 45.725C144.894 46.618 146.107 51.9807 146.107 51.9807C146.107 51.9807 145.476 52.5591 145.687 52.7672C145.883 52.9938 146.059 53.2367 146.214 53.4932C146.214 53.4932 145.729 53.8611 146.214 54.3886C146.699 54.9162 146.476 55.1751 148.689 55.1146C150.902 55.0541 151.589 54.9549 151.844 54.5363C152.099 54.1176 152.424 53.8103 152.162 53.3795L151.909 52.9778C152.074 52.6534 152.147 52.2902 152.12 51.9275C152.067 51.3491 151.698 50.6667 151.698 50.4029C151.698 50.1391 151.647 46.5672 150.97 43.7818C150.293 40.9964 147.388 39.4718 146.859 39.4258" fill="#263238"/>
<path d="M145.369 42.9929C145.369 42.9929 144.792 44.8321 144.843 45.725C144.894 46.618 146.107 51.9807 146.107 51.9807C146.107 51.9807 145.476 52.5591 145.687 52.7672C145.883 52.9938 146.059 53.2367 146.214 53.4932C146.214 53.4932 145.729 53.8611 146.214 54.3886C146.699 54.9162 146.476 55.1751 148.689 55.1146C150.902 55.0541 151.589 54.9549 151.844 54.5363C152.099 54.1176 152.424 53.8103 152.162 53.3795L151.909 52.9778C152.074 52.6534 152.147 52.2902 152.12 51.9275C152.067 51.3491 151.698 50.6667 151.698 50.4029C151.698 50.1391 151.647 46.5672 150.97 43.7818C150.293 40.9964 147.388 39.4718 146.859 39.4258" stroke="#263238" stroke-linecap="round" stroke-linejoin="round"/>
<path d="M114.318 69.4853C114.318 69.4853 114.403 72.7814 114.403 72.9048C114.403 73.0282 113.988 75.378 114.194 76.4912C114.4 77.6044 116.055 79.129 116.055 79.129L116.22 69.207L114.318 69.4853Z" fill="white" stroke="#263238" stroke-linecap="round" stroke-linejoin="round"/>
<path d="M119.305 46.7545C119.305 46.7545 114.451 52.6496 114.306 53.303C114.16 53.9564 112.891 69.926 112.891 70.0785C112.891 70.2309 114.861 70.986 115.669 70.986H116.829C116.829 70.986 115.466 60.004 116.072 55.9239C116.679 51.8438 118.145 50.6846 119.256 49.1237C120.367 47.5628 120.363 46.3528 119.305 46.7545Z" fill="#263238" stroke="#263238" stroke-linecap="round" stroke-linejoin="round"/>
<path d="M119.559 106.901C119.559 106.901 118.295 108.714 117.589 109.118C116.883 109.522 114.558 110.478 114.456 110.73C114.354 110.981 114.357 111.586 114.558 111.637C114.759 111.688 118.244 111.586 120.367 111.586C122.491 111.586 123.903 111.686 124.155 111.434C124.408 111.182 124.206 107.908 123.952 107.255L123.709 106.599L119.921 106.497L119.559 106.901Z" fill="#263238" stroke="#263238" stroke-linecap="round" stroke-linejoin="round"/>
<path d="M124.245 111.132H114.391C114.391 111.374 114.434 111.616 114.558 111.638C114.759 111.686 118.244 111.587 120.367 111.587C122.491 111.587 123.903 111.686 124.156 111.434C124.211 111.343 124.241 111.239 124.245 111.132Z" fill="white" stroke="#263238" stroke-linecap="round" stroke-linejoin="round"/>
<path d="M114.709 68.919L115.366 71.9924C115.366 71.9924 115.264 80.0026 116.072 83.4777C116.572 85.7286 116.842 88.0238 116.88 90.3288C116.88 90.3288 117.992 95.8197 118.397 97.3806C118.802 98.9415 119.256 105.541 119.256 105.541C119.256 105.541 118.851 105.843 118.902 106.044C118.953 106.245 119.103 107.496 119.103 107.496C119.103 107.496 119.305 107.496 120.923 107.646C121.744 107.742 122.572 107.759 123.396 107.697L123.952 107.245C123.983 106.708 123.983 106.17 123.952 105.633C123.903 104.725 123.6 104.019 123.6 103.416C123.6 102.814 123.246 89.5132 123.246 89.5132L123.396 68.6577L114.558 68.1543L114.709 68.919Z" fill="white" stroke="#263238" stroke-linecap="round" stroke-linejoin="round"/>
<path d="M124.508 106.8C124.263 107.399 123.959 107.973 123.6 108.513C123.144 109.118 121.275 110.176 120.518 110.577C120.295 110.706 120.108 110.889 119.976 111.11C119.843 111.331 119.769 111.581 119.761 111.838C119.761 111.838 121.477 111.889 127.136 111.686L129.562 111.587C129.59 111.116 129.573 110.643 129.511 110.176C129.412 109.421 129.31 107.514 129.31 107.514L124.508 106.8Z" fill="#263238" stroke="#263238" stroke-linecap="round" stroke-linejoin="round"/>
<path d="M127.136 111.685L129.562 111.586C129.578 111.314 129.578 111.042 129.562 110.771L119.894 111.255C119.815 111.437 119.769 111.632 119.761 111.83C119.761 111.83 121.477 111.889 127.136 111.685Z" fill="white" stroke="#263238" stroke-linecap="round" stroke-linejoin="round"/>
<path d="M117.936 72.4961L119.856 74.3594C119.856 74.3594 120.615 81.6194 121.372 85.8956C122.129 90.1717 124.1 101.209 124.1 102.11C124.1 103.01 124.503 105.335 124.503 105.335C124.503 105.335 124.352 105.384 124.301 105.737C124.25 106.09 124.245 107.448 124.245 107.448C124.997 107.8 125.798 108.038 126.621 108.152C127.563 108.202 128.508 108.186 129.448 108.104C129.543 107.587 129.611 107.065 129.652 106.541C129.652 106.139 129.499 104.375 129.601 103.67C129.703 102.966 130.409 99.3871 130.208 95.4594C130.006 91.5318 128.793 85.4358 128.793 85.4358L129.196 76.5689C129.676 74.97 129.847 73.2947 129.701 71.6321C129.458 68.912 128.844 67.8545 128.844 67.8545L117.024 67.9053" fill="white"/>
<path d="M117.936 72.4961L119.856 74.3594C119.856 74.3594 120.615 81.6194 121.372 85.8956C122.129 90.1717 124.1 101.209 124.1 102.11C124.1 103.01 124.503 105.335 124.503 105.335C124.503 105.335 124.352 105.384 124.301 105.737C124.25 106.09 124.245 107.448 124.245 107.448C124.997 107.8 125.798 108.038 126.621 108.152C127.563 108.202 128.508 108.186 129.448 108.104C129.543 107.587 129.611 107.065 129.652 106.541C129.652 106.139 129.499 104.375 129.601 103.67C129.703 102.966 130.409 99.3871 130.208 95.4594C130.006 91.5318 128.793 85.4358 128.793 85.4358L129.196 76.5689C129.676 74.97 129.847 73.2947 129.701 71.6321C129.458 68.912 128.844 67.8545 128.844 67.8545L117.024 67.9053" stroke="#263238" stroke-linecap="round" stroke-linejoin="round"/>
<path d="M119.305 46.7544C119.305 46.7544 115.267 51.742 114.862 53.966C114.456 56.19 113.891 68.728 113.891 69.229C113.891 69.7299 114.699 69.9332 115.66 70.0856C117.031 70.2896 118.417 70.3706 119.802 70.3276C121.467 70.2768 123.185 69.7226 123.442 69.4201C123.699 69.1176 123.2 60.2024 124.049 55.3164C124.898 50.4304 125.767 47.8144 125.262 46.8464C124.757 45.8784 121.023 45.738 119.305 46.7544Z" fill="#263238" stroke="#263238" stroke-linecap="round" stroke-linejoin="round"/>
<path d="M123.396 46.503C123.396 46.503 120.363 51.7883 119.812 55.52C119.261 59.2516 119.659 71.6904 119.659 71.6904C119.659 71.6904 119.659 72.1937 121.984 72.1429C124.309 72.0921 127.439 71.4895 128.293 71.0346C129.147 70.5796 130.111 70.2287 130.162 69.977C130.213 69.7254 129.705 68.8203 129.705 68.0628C129.705 67.3054 129.354 64.1908 129.354 64.1908C129.354 64.1908 129.252 50.4404 128.495 48.4753C127.737 46.5103 124.76 45.9489 123.396 46.503Z" fill="#263238" stroke="#263238" stroke-linecap="round" stroke-linejoin="round"/>
<path d="M116.021 37.0846C116.021 37.0846 115.619 38.6963 115.779 39.1997C115.915 39.6045 115.967 40.0326 115.932 40.4581C115.881 40.6614 114.718 41.9706 114.961 42.2223C115.232 42.4604 115.519 42.6795 115.82 42.8781C115.82 42.8781 116.063 45.5401 116.529 45.6974C116.995 45.8547 118.65 45.5473 118.65 45.5473C118.65 45.5473 119.205 47.6116 119.205 47.9673C119.205 48.3231 117.487 52.0983 118.448 51.7958C119.409 51.4933 123.246 45.9515 123.246 45.9515C123.246 45.9515 123.195 38.8488 122.083 37.0362C120.972 35.2236 117.64 35.5237 116.021 37.0846Z" fill="white" stroke="#263238" stroke-linecap="round" stroke-linejoin="round"/>
<path d="M117.184 40.4332C117.184 40.697 117.082 40.9172 116.958 40.9172C116.834 40.9172 116.73 40.7018 116.73 40.4332C116.73 40.1646 116.832 39.9492 116.958 39.9492C117.084 39.9492 117.184 40.1719 117.184 40.4332Z" fill="#263238"/>
<path d="M116.427 39.4004C116.503 39.3324 116.593 39.2819 116.691 39.2525C116.789 39.223 116.892 39.2153 116.993 39.2298C117.094 39.2443 117.19 39.2808 117.276 39.3366C117.361 39.3924 117.433 39.4662 117.487 39.5528" stroke="#263238" stroke-linecap="round" stroke-linejoin="round"/>
<path d="M116.529 43.2797C117.049 43.2373 117.55 43.0641 117.985 42.7764" stroke="#263238" stroke-linecap="round" stroke-linejoin="round"/>
<path d="M117.842 33.3962C117.842 33.3962 115.366 34.3642 115.114 35.2596C114.862 36.155 114.658 37.2246 114.658 37.2246L116.881 37.6796L118.8 37.8296C118.8 37.8296 118.749 38.2822 119.305 39.3397C119.603 39.8967 119.873 40.4685 120.113 41.0531C120.113 41.0531 119.962 44.0248 119.812 44.8815C119.685 45.5134 119.516 46.1359 119.305 46.7449C119.305 46.7449 120.569 46.9869 122.891 47.2507C125.214 47.5145 128.094 46.9482 128.094 46.9482C128.094 46.9482 128.701 45.9391 128.65 43.9256C128.599 41.9122 127.64 39.0396 127.538 37.8756C127.437 36.7116 127.742 35.9106 125.922 34.4997C124.102 33.0889 120.872 32.6 117.842 33.3962Z" fill="#263238" stroke="#263238" stroke-linecap="round" stroke-linejoin="round"/>
<path d="M113.367 63.31C113.239 63.3109 113.112 63.302 112.986 63.2833L113.1 62.5573C113.342 62.5936 113.891 62.5912 114.058 62.3541C114.286 62.0298 114.107 60.2317 113.876 59.9341C113.789 59.8324 113.374 59.8324 113.075 59.9026L112.908 59.1935C113.088 59.1524 114.005 58.9685 114.429 59.4622C114.854 59.9558 115.109 62.1242 114.653 62.7776C114.34 63.2277 113.757 63.31 113.367 63.31Z" fill="white" stroke="#263238" stroke-linecap="round" stroke-linejoin="round"/>
<path d="M113.396 58.542H109.052V64.183H113.396V58.542Z" fill="white" stroke="#263238" stroke-linecap="round" stroke-linejoin="round"/>
<path d="M124.76 49.6781C124.76 49.6781 123.903 51.5923 123.852 52.5482C123.801 53.5041 124.913 60.0164 124.913 60.0164C124.913 60.0164 121.273 60.9215 120.266 60.9215C119.708 60.9261 119.151 60.8929 118.599 60.8222C118.599 60.8222 117.235 59.9147 116.83 59.663C116.424 59.4114 116.123 59.5614 115.417 59.0072C114.711 58.453 114.153 58.4046 114.102 58.7071C114.051 59.0096 114.053 59.2105 114.558 59.4622C114.883 59.6288 115.187 59.8318 115.466 60.0672C115.466 60.0672 114.252 60.3092 113.901 60.3697C113.549 60.4302 113.447 60.9214 113.658 61.1755C113.869 61.4296 114.214 61.7781 114.214 61.7781C114.214 61.7781 114.163 62.9881 114.82 63.2301C115.478 63.4721 117.295 63.431 117.295 63.431C117.295 63.431 119.215 63.5834 119.518 63.5834C119.822 63.5834 123.661 64.5394 126.388 64.5394C129.116 64.5394 129.924 64.6918 130.074 64.0868C130.225 63.4818 129.972 54.5665 129.468 51.8465C128.963 49.1264 127.801 47.6139 126.992 47.5146" fill="#263238"/>
<path d="M124.76 49.6781C124.76 49.6781 123.903 51.5923 123.852 52.5482C123.801 53.5041 124.913 60.0164 124.913 60.0164C124.913 60.0164 121.273 60.9215 120.266 60.9215C119.708 60.926 119.151 60.8929 118.599 60.8222C118.599 60.8222 117.235 59.9147 116.83 59.663C116.424 59.4114 116.123 59.5614 115.417 59.0072C114.711 58.453 114.153 58.4046 114.102 58.7071C114.051 59.0096 114.053 59.2105 114.558 59.4622C114.883 59.6288 115.187 59.8318 115.466 60.0672C115.466 60.0672 114.252 60.3092 113.901 60.3697C113.549 60.4302 113.447 60.9214 113.658 61.1755C113.869 61.4296 114.214 61.7781 114.214 61.7781C114.214 61.7781 114.163 62.9881 114.82 63.2301C115.478 63.4721 117.295 63.431 117.295 63.431C117.295 63.431 119.215 63.5834 119.518 63.5834C119.822 63.5834 123.661 64.5393 126.388 64.5393C129.116 64.5393 129.924 64.6918 130.074 64.0868C130.225 63.4818 129.972 54.5665 129.468 51.8465C128.963 49.1264 127.801 47.6139 126.992 47.5146" stroke="#263238" stroke-linecap="round" stroke-linejoin="round"/>
<path d="M121.945 60.6697C121.392 60.7939 120.831 60.8748 120.266 60.9117C119.708 60.9163 119.151 60.8831 118.599 60.8124C118.599 60.8124 117.235 59.9049 116.83 59.6533C116.424 59.4016 116.123 59.5516 115.417 58.9974C114.711 58.4433 114.153 58.3949 114.102 58.6974C114.051 58.9999 114.053 59.2007 114.558 59.4524C114.883 59.6191 115.187 59.822 115.466 60.0574C115.466 60.0574 114.252 60.2994 113.901 60.3599C113.549 60.4204 113.447 60.9117 113.658 61.1658C113.869 61.4199 114.214 61.7683 114.214 61.7683C114.214 61.7683 114.163 62.9783 114.82 63.2203C115.478 63.4623 117.295 63.4212 117.295 63.4212C117.295 63.4212 119.215 63.5737 119.518 63.5737C119.678 63.5737 120.819 63.8399 122.263 64.0891C121.731 62.8767 121.799 61.553 121.945 60.6697Z" fill="white" stroke="#263238" stroke-linecap="round" stroke-linejoin="round"/>
<path d="M64.2073 108.021C64.0156 109.087 63.6895 110.124 63.2366 111.109C62.5086 112.65 62.4625 113.231 64.1078 113.471C65.7531 113.71 66.5733 113.326 66.913 112.459C67.2528 111.593 67.3984 109.516 67.493 109.035C67.5876 108.553 66.2894 107.055 64.2073 108.021Z" fill="white" stroke="#263238" stroke-linecap="round" stroke-linejoin="round"/>
<path d="M66.9179 111.736C66.5782 112.363 66.1438 113.135 64.4015 112.99C63.4138 112.907 63.0013 112.481 62.8314 112.13C62.6081 112.929 62.8969 113.295 64.1127 113.471C65.7555 113.713 66.5782 113.326 66.9179 112.46C67.0542 112.052 67.1517 111.632 67.2091 111.206C67.1217 111.361 67.0223 111.54 66.9179 111.736Z" fill="white" stroke="#263238" stroke-linecap="round" stroke-linejoin="round"/>
<path d="M77.8961 107.588C78.6593 108.264 79.524 108.817 80.4587 109.226C82.0069 109.902 83.128 110.289 83.128 110.625C83.072 110.965 82.957 111.293 82.7883 111.593C81.7166 111.89 80.612 112.052 79.5001 112.077C77.8548 112.077 76.5008 111.932 75.2923 111.884C74.0838 111.835 72.6788 111.98 72.5841 111.114C72.4895 110.248 72.6788 108.604 72.6788 108.604C72.6788 108.604 76.9254 107.298 77.8961 107.588Z" fill="white" stroke="#263238" stroke-linecap="round" stroke-linejoin="round"/>
<path d="M82.781 111.59C82.781 111.59 82.8659 111.433 82.9508 111.235C82.1595 111.377 81.3592 111.464 80.5557 111.494C78.8158 111.542 78.1873 111.3 76.2023 111.06C74.9925 110.929 73.772 110.929 72.5623 111.06C72.5623 111.073 72.5623 111.087 72.5623 111.102C72.6569 111.968 74.0619 111.828 75.2704 111.871C76.4789 111.915 77.833 112.065 79.4783 112.065C80.5947 112.044 81.7042 111.885 82.781 111.59Z" fill="white" stroke="#263238" stroke-linecap="round" stroke-linejoin="round"/>
<path d="M78.1897 69.7635C78.1897 69.7635 78.4324 77.0598 77.9907 83.5116C77.5491 89.9633 76.9448 99.4424 77.1948 100.783C77.4447 102.124 77.6534 106.441 77.6534 106.441L78.1023 106.988L78.345 107.881C78.345 107.881 78.1023 108.123 76.5541 108.575C75.0059 109.028 72.771 109.122 72.771 109.122C72.771 109.122 72.6715 107.632 72.6715 107.235C72.6715 106.838 72.771 105.945 72.771 105.945C72.771 105.945 71.9265 95.4736 72.0745 93.3392C72.2225 91.2047 71.9265 82.667 71.9265 82.667L71.6838 79.5912C71.6838 79.5912 69.6939 87.5772 69.5945 88.5742C69.495 89.5712 68.0996 99.6917 68.0996 100.287C68.0996 100.882 67.5027 106.54 67.5027 106.54C67.7088 106.873 67.8443 107.245 67.9006 107.632C67.9516 108.179 67.5536 109.568 67.5536 109.568C67.1177 109.284 66.625 109.098 66.1098 109.023L64.0689 108.873C64.0689 108.873 63.671 105.993 63.671 105.398V102.322C63.671 102.322 63.472 95.2244 63.8214 92.4946C64.1709 89.7648 63.9694 81.3287 63.7705 77.7544C63.5715 74.18 63.074 71.005 63.4234 70.2112C63.6591 69.6327 63.8418 69.0342 63.9694 68.4229C66.5132 68.9503 69.091 69.2989 71.6838 69.4659C75.8091 69.7079 77.9058 68.9698 77.9058 68.9698L78.1897 69.7635Z" fill="#263238" stroke="#263238" stroke-linecap="round" stroke-linejoin="round"/>
<path d="M71.6692 79.5912L72.7685 76.3799" stroke="white" stroke-linecap="round" stroke-linejoin="round"/>
<path d="M71.5868 71.0873C71.5868 71.0873 72.4774 71.1817 74.3993 70.901C76.3213 70.6203 77.1148 70.1992 77.1148 70.1992C77.1148 70.1992 75.8505 45.8613 75.8505 45.6265C75.8766 45.2474 75.7549 44.8729 75.5107 44.5811C75.2665 44.2894 74.9188 44.1029 74.5401 44.0608C73.2273 43.8188 71.4946 44.3875 71.1185 45.8371C70.7424 47.2866 71.5868 71.0873 71.5868 71.0873Z" fill="white" stroke="#263238" stroke-linecap="round" stroke-linejoin="round"/>
<path d="M77.0613 72.3575C77.0613 72.3575 76.9206 73.8095 77.0613 73.899C77.2021 73.9886 78.561 73.4804 79.4516 73.1053C80.3422 72.7302 80.0461 72.8802 80.3325 72.0356C80.6188 71.1911 80.529 71.1911 79.6385 71.4234C78.7479 71.6557 77.0613 72.3575 77.0613 72.3575Z" fill="white" stroke="#263238" stroke-linecap="round" stroke-linejoin="round"/>
<path d="M75.2024 48.5349L76.2507 62.6217L76.7943 72.7857C76.7943 72.7857 76.9739 73.11 77.2626 73.0398C77.5514 72.9696 80.0436 72.3912 80.3324 72.0307C80.6211 71.6701 80.7303 70.7335 80.7303 70.5787C80.7303 70.4238 79.9732 61.5714 79.9732 61.5714L81.9146 58.9772C81.9146 58.9772 80.4319 50.8726 80.0703 49.2512C79.7087 47.6298 79.7111 46.7659 79.1312 46.0447C78.5512 45.3236 75.2291 43.7021 75.2291 43.7021L75.2024 48.5349Z" fill="#263238" stroke="#263238" stroke-linecap="round" stroke-linejoin="round"/>
<path d="M74.8068 42.834C74.8068 42.834 76.1439 44.2376 76.1075 44.9587C76.0711 45.6799 75.2024 48.5258 75.2024 48.5258L74.6612 44.3465C74.6612 44.3465 74.3724 43.318 74.8068 42.834Z" fill="white" stroke="#263238" stroke-linecap="round" stroke-linejoin="round"/>
<path d="M70.4024 39.8423L70.2908 42.7899C70.2908 42.7899 71.2614 45.2099 71.8802 45.9359C72.499 46.6619 73.6129 47.8719 73.6129 47.8719L74.8432 45.314L74.8772 43.9079L75.4207 42.5745C74.5651 42.379 73.7632 41.9981 73.0717 41.4589C71.9166 40.5587 70.7227 39.4769 70.6159 39.4406C70.5092 39.4043 70.4024 39.8423 70.4024 39.8423Z" fill="white" stroke="#263238" stroke-linecap="round" stroke-linejoin="round"/>
<path d="M71.1306 40.8973C71.1306 40.8973 71.4437 42.0419 73.4262 43.3947C73.8739 43.7104 74.3641 43.9614 74.8822 44.1401V43.9174L75.4258 42.584C74.5702 42.3885 73.7682 42.0076 73.0768 41.4684C72.7832 41.2385 72.4895 40.9989 72.2081 40.769L71.8295 40.6553L71.1306 40.8973Z" fill="#263238" stroke="#263238" stroke-linecap="round" stroke-linejoin="round"/>
<path d="M78.4106 33.5407C78.4106 33.5407 78.2819 36.5609 78.1946 37.5991C78.1072 38.6372 78.0635 39.5351 77.5879 40.491C77.1123 41.4469 76.593 42.911 75.7703 43.0368C74.7262 43.1957 73.6589 42.9979 72.7419 42.4754C71.7445 41.8704 70.4462 40.1885 70.4026 39.8424C70.3825 39.6508 70.3393 39.4623 70.2739 39.281C70.2739 39.281 69.7546 36.1737 69.7546 34.7919C69.7546 33.41 69.8832 32.246 72.0915 31.4692C74.2998 30.6924 78.4106 33.5407 78.4106 33.5407Z" fill="white" stroke="#263238" stroke-linecap="round" stroke-linejoin="round"/>
<path d="M71.1815 33.5409C71.1815 33.5409 72.5235 33.8869 71.8319 34.4895C71.1403 35.0921 70.4899 35.7842 70.4899 35.7842C70.4899 35.7842 70.7059 36.6481 70.621 36.9942C70.536 37.3403 70.1017 37.5992 69.7983 37.2531C69.495 36.9071 69.2353 36.6481 69.2353 36.6481C69.2353 36.6481 68.4127 34.0587 68.2404 33.3255C68.0681 32.5922 67.8934 31.813 68.9684 31.0797C69.3818 30.7769 69.8156 30.5028 70.2667 30.2593C71.5716 29.4889 73.0845 29.1421 74.5958 29.2671C77.105 29.4825 78.2358 30.9079 78.2358 30.9079C78.2358 30.9079 80.2257 30.39 80.0971 31.813C79.9685 33.2359 78.5392 34.187 77.7602 34.1023C76.9813 34.0176 72.8681 31.9437 72.0454 32.2897C71.2228 32.6358 70.6161 33.4102 71.1815 33.5409Z" fill="#263238" stroke="#263238" stroke-linecap="round" stroke-linejoin="round"/>
<path d="M76.1609 36.7354C76.1609 36.7354 76.7652 38.6713 76.5929 38.8504C76.4206 39.0295 75.7266 39.1529 75.7266 39.1529" stroke="#263238" stroke-linecap="round" stroke-linejoin="round"/>
<path d="M76.5492 39.9728C76.5492 39.9728 75.1636 40.36 74.1226 39.7139" stroke="#263238" stroke-linecap="round" stroke-linejoin="round"/>
<path d="M75.6052 35.5248C75.6052 35.5248 73.7804 35.353 72.8267 35.353C71.873 35.353 71.5284 35.2658 71.4848 35.5248C71.4411 35.7837 71.3561 37.1655 72.0914 37.6399C72.8267 38.1142 74.1687 37.8988 74.7316 37.7705C75.2946 37.6423 75.4596 36.6912 75.5106 36.3887C75.5616 36.0862 75.6052 35.5248 75.6052 35.5248Z" stroke="#263238" stroke-linecap="round" stroke-linejoin="round"/>
<path d="M76.1416 35.5305C76.1416 35.5305 77.5976 35.4386 78.3474 35.4773C79.0973 35.516 79.3763 35.4482 79.4103 35.6999C79.4443 35.9516 79.5147 37.285 78.925 37.7109C78.3353 38.1369 77.2773 37.8755 76.8284 37.7279C76.3794 37.5803 76.246 36.6582 76.212 36.3654C76.178 36.0726 76.1416 35.5305 76.1416 35.5305Z" stroke="#263238" stroke-linecap="round" stroke-linejoin="round"/>
<path d="M71.4849 35.5254L69.2354 36.6483" stroke="#263238" stroke-linecap="round" stroke-linejoin="round"/>
<path d="M75.6052 35.5254H76.1876" stroke="#263238" stroke-linecap="round" stroke-linejoin="round"/>
<path d="M70.49 37.7274C70.49 37.7274 69.495 36.4762 68.7913 36.648C68.0876 36.8199 68.7064 38.6349 69.2766 38.9349C69.8469 39.235 70.4438 38.8502 70.4438 38.8502" fill="white"/>
<path d="M70.49 37.7274C70.49 37.7274 69.495 36.4762 68.7913 36.648C68.0876 36.8199 68.7064 38.6349 69.2766 38.9349C69.8469 39.235 70.4438 38.8502 70.4438 38.8502" stroke="#263238" stroke-linecap="round" stroke-linejoin="round"/>
<path d="M73.9746 36.6816C73.9746 36.9236 73.8702 37.1317 73.7319 37.1317C73.5936 37.1317 73.4893 36.9308 73.4893 36.6816C73.4893 36.4323 73.5936 36.2314 73.7319 36.2314C73.8702 36.2314 73.9746 36.4323 73.9746 36.6816Z" fill="#263238"/>
<path d="M77.2093 37.1317C77.3393 37.1317 77.4447 36.9302 77.4447 36.6816C77.4447 36.433 77.3393 36.2314 77.2093 36.2314C77.0793 36.2314 76.9739 36.433 76.9739 36.6816C76.9739 36.9302 77.0793 37.1317 77.2093 37.1317Z" fill="#263238"/>
<path d="M72.7102 35.0892C73.4369 34.9075 74.2 34.9318 74.9136 35.1594" stroke="#263238" stroke-linecap="round" stroke-linejoin="round"/>
<path d="M76.6826 35.1861C77.1009 34.995 77.5703 34.9449 78.0197 35.0434" stroke="#263238" stroke-linecap="round" stroke-linejoin="round"/>
<path d="M72.7466 73.3761L72.7975 74.2642C72.7975 74.2642 70.7373 74.6829 67.8787 74.0222C65.0201 73.3615 62.4454 71.6022 62.1639 71.2198C61.8824 70.8375 62.4065 69.2572 62.4065 69.2572C62.4065 69.2572 62.0304 69.1653 62.688 69.3976C63.3457 69.6299 65.9204 71.8732 69.4317 72.4807C72.9431 73.0881 72.8 72.863 72.7466 73.3761Z" fill="white" stroke="#263238" stroke-linecap="round" stroke-linejoin="round"/>
<path d="M70.0724 41.8877C70.0724 41.8877 71.8438 44.3392 72.6738 45.4548C73.5037 46.5704 73.2877 47.9401 73.1809 48.3007C73.0742 48.6613 72.9383 49.2687 72.9383 49.2687V72.0433C72.9383 72.0433 73.2634 73.2678 72.7563 73.3767C72.2491 73.4856 68.5654 73.3041 65.8572 71.9005C63.1491 70.4969 62.2172 69.5217 62.2172 69.5217L62.904 63.9726L63.1928 60.875L58.7131 60.8968C58.7131 60.8968 61.3509 48.2644 61.6397 47.5868C61.9285 46.9092 69.0459 43.2986 69.0459 43.2986C69.0459 43.2986 69.1332 42.1224 70.0724 41.8877Z" fill="#263238" stroke="#263238" stroke-linecap="round" stroke-linejoin="round"/>
<path d="M79.0365 52.1075L78.9783 51.5049" stroke="#263238" stroke-linecap="round" stroke-linejoin="round"/>
<path d="M79.9734 61.5765L79.1265 53" stroke="#263238" stroke-linecap="round" stroke-linejoin="round"/>
<path d="M63.1736 60.8746L64.0156 52.8281" stroke="#263238" stroke-linecap="round" stroke-linejoin="round"/>
<path d="M61.9601 59.2073C61.3324 59.0885 60.6878 59.0885 60.0601 59.2073C58.9656 59.4009 58.4512 61.424 58.3857 62.1306C58.3201 62.8373 58.7715 64.0666 59.599 64.4103C60.4265 64.7539 60.856 64.7297 61.7248 64.2167C62.5935 63.7036 62.4989 61.3272 62.4527 60.5237C62.438 60.0429 62.2649 59.5802 61.9601 59.2073Z" fill="white" stroke="#263238" stroke-linecap="round" stroke-linejoin="round"/>
<path d="M64.098 56.8842C64.098 56.8842 64.4184 54.7304 64.4523 54.0262C64.4863 53.322 64.3868 52.4508 64.5154 52.1628C64.644 51.8748 65.0954 52.1313 65.2556 52.3225C65.4157 52.5137 65.5468 53.5107 65.5152 53.8955C65.4948 54.1306 65.4948 54.3671 65.5152 54.6022C65.5152 54.6022 67.9928 52.7726 68.284 52.3879C68.5752 52.0031 69.1528 51.7127 69.3469 51.9692C69.5411 52.2257 69.313 52.4532 69.0873 52.6758C68.8616 52.8985 67.7041 54.2174 67.5099 54.3698C67.3871 54.4821 67.2981 54.6262 67.2527 54.7861C67.4174 54.8008 67.5832 54.7785 67.738 54.7207C68.0292 54.6264 70.024 53.6293 70.2181 53.6293C70.2682 53.637 70.3161 53.6552 70.3586 53.6828C70.4011 53.7104 70.4372 53.7467 70.4646 53.7893C70.4919 53.8318 70.5098 53.8798 70.5171 53.9298C70.5244 53.9798 70.5209 54.0309 70.5069 54.0794C70.4438 54.273 67.9953 55.7492 67.9006 55.7734C67.806 55.7976 67.7065 56.0324 67.8667 56.0638C68.0268 56.0953 70.024 55.7734 70.2812 55.9017C70.3283 55.9237 70.3691 55.9572 70.3997 55.9991C70.4303 56.041 70.4498 56.09 70.4563 56.1414C70.4629 56.1929 70.4563 56.2452 70.4371 56.2934C70.4179 56.3416 70.3868 56.3842 70.3467 56.4172C70.2181 56.514 67.8351 56.9302 67.8351 56.9302L68.9295 57.1553C69.2523 57.2206 69.7983 57.2206 69.7983 57.4118C69.7983 57.603 69.6697 57.7022 69.444 57.7022H67.7696C67.4153 57.7022 66.7091 57.9902 66.1292 58.2467C65.5492 58.5032 65.292 58.6 65.292 58.6C65.292 58.6 63.7122 61.458 63.1347 62.4865C62.9135 62.9086 62.5864 63.2665 62.1854 63.5252C61.7844 63.7838 61.3231 63.9346 60.8463 63.9627C60.0091 64.0281 59.1476 62.5107 59.303 61.7847C59.4583 61.0587 60.8148 59.4083 62.0063 58.7984C63.1978 58.1886 63.5496 57.5957 64.098 56.8842Z" fill="white" stroke="#263238" stroke-linecap="round" stroke-linejoin="round"/>
<path d="M83.2931 59.5796C83.2931 59.5796 82.3734 58.3866 81.7279 58.3406C81.0824 58.2946 79.9321 60.3589 79.9321 61.2325C79.9321 62.1061 79.9782 63.7566 80.3471 63.9865C80.7159 64.2164 81.4051 63.8025 81.8201 63.2605C82.235 62.7184 83.2931 59.5796 83.2931 59.5796Z" fill="white" stroke="#263238" stroke-linecap="round" stroke-linejoin="round"/>
<path d="M93.8489 53.9177C93.8489 53.9177 93.9023 52.9352 93.7154 52.9884C93.5286 53.0417 93.3975 53.1748 93.4509 53.6249C93.4505 54.1068 93.3968 54.5873 93.2908 55.0575L93.8489 53.9177Z" fill="white" stroke="#263238" stroke-linecap="round" stroke-linejoin="round"/>
<path d="M82.3514 59.251C82.3514 59.251 80.8954 61.913 80.9415 62.6221C80.9876 63.3312 81.6064 63.5901 82.7251 63.2586C83.8438 62.927 91.6407 58.6944 92.012 58.3484C92.3832 58.0023 93.6621 55.35 94.0892 54.8708C94.5163 54.3917 94.4605 53.201 94.4605 52.9881C94.4605 52.7751 94.0892 52.855 94.0892 53.1212C94.0892 53.3874 93.184 55.1104 93.0506 55.1637C92.9171 55.2169 91.7208 55.8001 91.7208 55.8001C91.7208 55.8001 92.3323 54.6071 92.5458 54.2078C92.7594 53.8085 92.9438 53.3583 92.4924 53.5181C92.0411 53.6778 91.3204 54.8975 91.0534 55.563C90.7865 56.2285 90.3254 57.1021 90.4152 57.5256L90.4953 57.9515C90.4953 57.9515 87.8065 58.5613 86.2098 58.6412C84.6131 58.7211 82.4315 58.9848 82.3514 59.251Z" fill="white" stroke="#263238" stroke-linecap="round" stroke-linejoin="round"/>
<path d="M93.1308 56.4387C93.1308 56.4387 94.5406 54.8173 94.7275 54.5269C94.9144 54.2365 95.1522 53.784 95.0988 53.4379C95.0454 53.0919 94.8076 53.5178 94.6135 53.8106C94.4193 54.1034 94.0553 54.3672 93.8418 54.8439C93.7695 54.9907 93.6675 55.1209 93.5422 55.2263C93.4169 55.3317 93.271 55.41 93.1138 55.4562L93.1308 56.4387Z" fill="white" stroke="#263238" stroke-linecap="round" stroke-linejoin="round"/>
<path d="M92.6259 57.4185C92.6259 57.4185 93.4242 55.7729 93.6353 55.3228C93.8465 54.8727 93.9023 54.1007 93.929 53.6288C93.9557 53.1569 93.5553 53.4691 93.5019 53.8708C93.4485 54.2725 93.1306 55.4632 93.1306 55.4632C93.1306 55.4632 91.4004 56.6732 91.4004 57.0023C91.4056 57.2507 91.4234 57.4987 91.4538 57.7452" fill="white"/>
<path d="M92.6259 57.4185C92.6259 57.4185 93.4242 55.7729 93.6353 55.3228C93.8465 54.8727 93.9023 54.1007 93.929 53.6288C93.9557 53.1569 93.5553 53.4691 93.5019 53.8708C93.4485 54.2725 93.1306 55.4632 93.1306 55.4632C93.1306 55.4632 91.4004 56.6732 91.4004 57.0023C91.4056 57.2507 91.4234 57.4987 91.4538 57.7452" stroke="#263238" stroke-linecap="round" stroke-linejoin="round"/>
<path d="M38.3778 82.4014H35.7886V86.9873H38.3778V82.4014Z" fill="#263238" stroke="#263238" stroke-linecap="round" stroke-linejoin="round"/>
<path d="M39.5426 64.1113H34.2257C32.131 64.1113 30.4329 65.8048 30.4329 67.8938V80.0131C30.4329 82.1021 32.131 83.7956 34.2257 83.7956H39.5426C41.6373 83.7956 43.3354 82.1021 43.3354 80.0131V67.8938C43.3354 65.8048 41.6373 64.1113 39.5426 64.1113Z" fill="#949494" stroke="#263238" stroke-linecap="round" stroke-linejoin="round"/>
<path d="M33.0172 111.013C33.0177 110.797 32.9537 110.585 32.8333 110.405C32.713 110.224 32.5417 110.084 32.3412 110.001C32.1407 109.918 31.9199 109.896 31.707 109.938C31.494 109.98 31.2983 110.084 31.1447 110.237C30.9912 110.39 30.8867 110.586 30.8444 110.798C30.8022 111.01 30.8241 111.231 30.9074 111.431C30.9908 111.631 31.1317 111.801 31.3125 111.921C31.4932 112.041 31.7056 112.105 31.9228 112.105C32.213 112.105 32.4914 111.99 32.6966 111.785C32.9019 111.58 33.0172 111.303 33.0172 111.013Z" fill="#263238" stroke="#263238" stroke-linecap="round" stroke-linejoin="round"/>
<path d="M54.423 111.013C54.4234 110.797 54.3594 110.585 54.2391 110.405C54.1188 110.224 53.9475 110.084 53.747 110.001C53.5464 109.918 53.3257 109.896 53.1127 109.938C52.8997 109.98 52.7041 110.084 52.5505 110.237C52.397 110.39 52.2925 110.586 52.2502 110.798C52.208 111.01 52.2299 111.231 52.3132 111.431C52.3965 111.631 52.5375 111.801 52.7182 111.921C52.899 112.041 53.1114 112.105 53.3285 112.105C53.6188 112.105 53.8972 111.99 54.1024 111.785C54.3076 111.58 54.423 111.303 54.423 111.013Z" fill="#263238" stroke="#263238" stroke-linecap="round" stroke-linejoin="round"/>
<path d="M43.1559 111.013C43.1559 110.408 42.9278 109.919 42.6488 109.919C42.3697 109.919 42.1392 110.403 42.1392 111.013C42.1392 111.623 42.3673 112.104 42.6488 112.104C42.9303 112.104 43.1559 111.615 43.1559 111.013Z" fill="#263238" stroke="#263238" stroke-linecap="round" stroke-linejoin="round"/>
<path d="M43.6437 105.081V89.4189H41.4936V105.147L30.8818 109.333V110.383H32.4228V109.493L42.6512 107.39L52.8771 109.493V110.383H54.4205V109.333L43.6437 105.081Z" fill="#263238" stroke="#263238" stroke-linecap="round" stroke-linejoin="round"/>
<path d="M42.1099 110.381H43.1849L43.4155 105.297H41.8794L42.1099 110.381Z" fill="#263238" stroke="#263238" stroke-linecap="round" stroke-linejoin="round"/>
<path d="M45.2986 88.8213H39.8313V92.0593H45.2986V88.8213Z" fill="#263238" stroke="#263238" stroke-linecap="round" stroke-linejoin="round"/>
<path d="M50.7004 85.8398H33.9176C33.1255 85.8398 32.4834 86.4802 32.4834 87.2701V88.5841C32.4834 89.374 33.1255 90.0143 33.9176 90.0143H50.7004C51.4925 90.0143 52.1345 89.374 52.1345 88.5841V87.2701C52.1345 86.4802 51.4925 85.8398 50.7004 85.8398Z" fill="#949494" stroke="#263238" stroke-linecap="round" stroke-linejoin="round"/>
<path d="M66.4664 97.4053L68.1384 99.8785L70.121 99.7551C70.121 99.7551 73.8993 99.0751 74.3943 98.9517C74.8894 98.8282 75.0762 99.259 74.8287 99.7551C74.5812 100.251 72.288 102.473 71.1741 103.143C70.0603 103.813 66.8984 104.934 66.5902 104.997C66.282 105.06 65.9083 104.44 65.2264 102.526C64.7154 101.189 64.0724 99.9055 63.3069 98.6951L66.4664 97.4053Z" fill="white" stroke="#263238" stroke-linecap="round" stroke-linejoin="round"/>
<path d="M74.8287 99.755C75.0714 99.271 74.8918 98.8282 74.3943 98.9516C73.8969 99.075 70.1307 99.755 70.1307 99.755L68.1481 99.8784C68.1583 100.448 68.2633 101.011 68.4587 101.546C68.4587 101.546 65.6705 102.226 65.2361 102.536C65.918 104.45 66.2893 105.067 66.5999 105.006C66.9105 104.946 70.0676 103.833 71.1838 103.153C72.3001 102.473 74.5812 100.249 74.8287 99.755Z" fill="white" stroke="#263238" stroke-linecap="round" stroke-linejoin="round"/>
<path d="M74.8288 99.7548C74.9241 99.5858 74.9551 99.3882 74.9161 99.1982C73.7829 100.149 71.412 102.102 70.4632 102.574C69.558 103.024 67.209 103.849 65.9302 104.288C66.2044 104.842 66.4155 105.043 66.5902 105.014C66.8984 104.951 70.0579 103.84 71.1742 103.16C72.2905 102.48 74.5812 100.249 74.8288 99.7548Z" fill="white" stroke="#263238" stroke-linecap="round" stroke-linejoin="round"/>
<path d="M60.293 76.9976C60.293 76.9976 63.0206 84.9836 64.6076 90.3632C65.3711 92.9427 66.325 95.4624 67.4614 97.9015C67.4614 97.9015 66.1607 98.642 65.292 99.0752C64.4232 99.5084 62.9381 100.063 62.9381 100.063C62.9381 100.063 61.7612 98.2089 60.5236 95.801C59.286 93.3931 57.1772 87.5221 56.1847 85.7289C55.1922 83.9357 53.8308 81.218 53.8308 81.218C53.8308 81.218 53.212 78.1301 55.5659 77.3267C57.9197 76.5232 59.6136 76.1336 60.293 76.9976Z" fill="#263238" stroke="#263238" stroke-linecap="round" stroke-linejoin="round"/>
<path d="M50.892 75.6611C50.892 75.6611 51.9597 76.3702 51.9888 76.4864C52.0179 76.6025 51.9597 76.6945 51.7219 76.784C51.4841 76.8736 50.3896 77.0793 50.3896 77.0793L50.892 75.6611Z" fill="white" stroke="#263238" stroke-linecap="round" stroke-linejoin="round"/>
<path d="M54.8547 102.48C54.8547 102.48 54.4276 105.13 54.1267 106.095C53.8258 107.061 53.0396 108.82 53.2895 109.256C53.5395 109.691 54.862 110.142 55.5366 110.197C56.2112 110.253 57.0751 111.354 58.3297 111.807C59.5843 112.259 61.2417 112.138 61.2053 111.807C61.1689 111.475 57.4901 107.451 57.3105 106.458C57.1309 105.466 57.774 102.407 57.774 102.407L54.8547 102.48Z" fill="white" stroke="#263238" stroke-linecap="round" stroke-linejoin="round"/>
<path d="M56.8617 107.115L56.7623 107.393C55.7915 107.283 54.8319 107.09 53.8939 106.817C53.5518 107.763 53.1053 108.915 53.3018 109.257C53.5445 109.695 54.8743 110.142 55.5489 110.198C56.2235 110.254 57.0874 111.355 58.342 111.807C59.5966 112.26 61.254 112.139 61.2176 111.807C61.1812 111.476 57.5024 107.451 57.3228 106.459C57.1358 106.652 56.9803 106.874 56.8617 107.115Z" fill="white" stroke="#263238" stroke-linecap="round" stroke-linejoin="round"/>
<path d="M58.2667 111.15C57.2742 110.666 56.3764 109.834 55.0538 109.389C54.1948 109.096 53.5978 108.861 53.2824 108.73C53.2337 108.903 53.2405 109.087 53.3018 109.256C53.5445 109.694 54.8743 110.141 55.5489 110.197C56.2235 110.253 57.0874 111.354 58.342 111.806C59.5407 112.242 61.0987 112.148 61.2079 111.852C60.3804 111.731 58.9486 111.484 58.2667 111.15Z" fill="white" stroke="#263238" stroke-linecap="round" stroke-linejoin="round"/>
<path d="M54.1973 82.5781C54.1973 82.5781 59.0919 83.1347 59.4656 85.6055C59.8393 88.0764 58.9681 103.46 58.9681 103.46C58.2434 103.493 57.5173 103.451 56.8011 103.337C55.8086 103.153 54.1318 102.783 54.1318 102.783C54.1318 102.783 53.8891 97.5313 53.5736 95.4283C53.2582 93.3253 53.0155 87.2124 53.0155 87.2124C53.0155 87.2124 44.8376 86.5324 44.0951 86.0387C43.3525 85.545 54.1973 82.5781 54.1973 82.5781Z" fill="#263238" stroke="#263238" stroke-linecap="round" stroke-linejoin="round"/>
<path d="M59.5262 81.3413C59.5262 81.3413 48.5601 85.6053 45.7718 86.5322C43.2553 87.3265 40.5575 87.3485 38.0283 86.5951C36.1088 85.9756 35.1649 83.5168 35.1649 83.5168C35.1649 83.5168 34.6795 82.9481 34.9222 82.394C35.1649 81.8398 39.1373 78.3138 41.5518 77.6967C43.9664 77.0796 48.3465 77.3483 48.3465 77.3483C48.3465 77.3483 57.7911 75.1703 59.0918 75.3493C60.3925 75.5284 61.4287 80.153 61.6131 80.7701" fill="#263238"/>
<path d="M59.5262 81.3413C59.5262 81.3413 48.5601 85.6053 45.7718 86.5322C43.2553 87.3265 40.5575 87.3485 38.0283 86.5951C36.1088 85.9756 35.1649 83.5168 35.1649 83.5168C35.1649 83.5168 34.6795 82.9481 34.9222 82.394C35.1649 81.8398 39.1373 78.3138 41.5518 77.6967C43.9664 77.0796 48.3465 77.3483 48.3465 77.3483C48.3465 77.3483 57.7911 75.1703 59.0918 75.3493C60.3925 75.5284 61.4287 80.153 61.6131 80.7701" stroke="#263238" stroke-linecap="round" stroke-linejoin="round"/>
<path d="M37.9653 83.9989C37.9653 83.9989 38.8341 80.6109 41.12 79.1807" stroke="#263238" stroke-linecap="round" stroke-linejoin="round"/>
<path d="M37.4702 81.7137C37.4702 81.7137 38.3996 80.2907 39.6397 79.9834" stroke="#263238" stroke-linecap="round" stroke-linejoin="round"/>
<path d="M44.2915 56.2682C44.6192 56.3439 44.9277 56.4861 45.1978 56.6859C45.468 56.8858 45.6939 57.139 45.8616 57.4298C46.4707 58.4413 47.485 62.2335 47.485 62.2335C47.485 62.2335 49.106 66.9355 48.8027 68.0415C48.4994 69.1474 47.2812 70.7712 47.2812 70.7712C47.2812 70.7712 47.3831 74.4012 47.6864 75.1272C47.9529 75.854 48.1734 76.5968 48.3465 77.3512C48.3465 77.3512 47.485 77.9586 44.6458 78.3628C41.8066 78.7669 39.4746 78.9702 38.5112 79.7276C37.5478 80.4851 35.4196 83.3576 35.1648 83.5198C34.91 83.6819 34.5072 83.9747 34.3034 83.5706C34.0995 83.1665 33.7452 82.3074 34.2014 80.4875C34.6577 78.6677 35.4706 71.4875 35.7739 68.0995C36.0772 64.7115 35.4196 61.2751 35.8249 58.9035C36.2301 56.5319 39.8289 55.1138 40.6394 54.9614C41.4499 54.8089 44.2915 56.2682 44.2915 56.2682Z" fill="#263238" stroke="#263238" stroke-linecap="round" stroke-linejoin="round"/>
<path d="M35.7351 80.4777C35.7351 80.4777 37.2858 78.6869 38.0283 78.3771C38.7709 78.0674 43.9761 78.0674 43.9761 78.0674" stroke="white" stroke-linecap="round" stroke-linejoin="round"/>
<path d="M36.8513 78.1905C37.3367 77.9153 37.8576 77.7076 38.3995 77.5734C39.0814 77.45 40.8772 77.5734 40.8772 77.5734" stroke="white" stroke-linecap="round" stroke-linejoin="round"/>
<path d="M39.5767 72.0124C41.2637 71.3553 42.8018 70.3679 44.1 69.1084" stroke="white" stroke-linecap="round" stroke-linejoin="round"/>
<path d="M45.1531 41.91C45.1531 41.91 45.9127 43.529 46.1675 44.0323C46.4223 44.5357 46.3179 45.3997 46.5218 46.1063C46.7256 46.8129 47.8904 47.2679 47.8904 47.6744C47.8904 48.081 47.4342 48.8844 47.4342 48.8844C47.4342 48.8844 47.1794 52.0305 46.7741 52.3717C46.3689 52.7129 44.6969 52.8266 44.6969 52.8266L43.8355 56.113L44.6969 56.6188C44.6969 56.6188 44.8474 59.6026 44.6969 60.665C44.5465 61.7274 44.646 62.7365 43.1244 62.3324C41.6029 61.9283 39.2709 57.8869 39.0695 57.3811C38.8681 56.8753 39.7271 54.6997 38.7152 51.4642C37.7033 48.2286 39.9285 45.298 41.4015 43.9331C42.8745 42.5682 43.5807 41.6583 45.1531 41.91Z" fill="white" stroke="#263238" stroke-linecap="round" stroke-linejoin="round"/>
<path d="M45.1529 41.9099C45.102 40.9999 45 40.6466 43.1242 40.4433C41.2484 40.2401 37.2444 40.09 35.6719 42.8633C34.0994 45.6367 34.1019 51.7109 34.1019 51.7109C34.1019 51.7109 30.7555 54.6923 30.5007 56.5194C30.2459 58.3465 31.4714 60.0599 33.3909 60.6673L33.5049 60.6963C33.6752 59.8507 34.0344 59.0541 34.5557 58.3659C35.6525 57.0542 36.6038 57.1994 37.9918 56.834C39.3799 56.4686 40.2632 56.3766 40.4694 54.7964C40.6757 53.2161 40.9766 51.5076 40.8432 49.8983C40.7922 49.2909 41.4522 48.3809 41.4522 48.3809C41.4522 48.3809 43.0223 48.7851 44.0366 46.0553C45.051 43.3256 45.2039 42.8198 45.1529 41.9099Z" fill="#263238" stroke="#263238" stroke-linecap="round" stroke-linejoin="round"/>
<path d="M42.1101 49.1386C42.1101 49.1386 41.6029 46.8129 40.2852 47.7229C38.9675 48.6328 40.9453 51.2125 41.2559 51.2633C41.5665 51.3141 42.0664 51.0092 42.0664 51.0092" fill="white"/>
<path d="M42.1101 49.1386C42.1101 49.1386 41.6029 46.8129 40.2852 47.7229C38.9675 48.6328 40.9453 51.2125 41.2559 51.2633C41.5665 51.3141 42.0664 51.0092 42.0664 51.0092" stroke="#263238" stroke-linecap="round" stroke-linejoin="round"/>
<path d="M44.6967 52.8288L43.1243 52.6279L44.2405 54.0944L44.6967 52.8288Z" fill="#263238" stroke="#263238" stroke-linecap="round" stroke-linejoin="round"/>
<path d="M46.364 46.6848C46.4295 47.0284 46.364 47.3309 46.2111 47.3599C46.0583 47.389 45.8835 47.1325 45.8156 46.7912C45.7477 46.45 45.8156 46.1475 45.9709 46.1185C46.1262 46.0894 46.2985 46.3435 46.364 46.6848Z" fill="#263238"/>
<path d="M49.5647 74.2412C49.6946 74.2421 49.8244 74.2332 49.9529 74.2146L49.8365 73.4886C49.5938 73.5249 49.0308 73.5225 48.8658 73.2829C48.6353 72.9513 48.8173 71.1218 49.0526 70.812C49.14 70.7104 49.5622 70.7104 49.8656 70.7806L50.0354 70.0546C49.8534 70.011 48.9216 69.8126 48.4872 70.3256C48.0529 70.8387 47.7956 73.036 48.2615 73.6991C48.5746 74.1565 49.1691 74.2412 49.5647 74.2412Z" fill="white" stroke="#263238" stroke-linecap="round" stroke-linejoin="round"/>
<path d="M49.5356 75.1289H53.9521V69.3911H49.5356V75.1289Z" fill="white" stroke="#263238" stroke-linecap="round" stroke-linejoin="round"/>
<path d="M36.7494 57.2716C36.7494 57.2716 34.4101 56.5456 33.34 61.0541C32.9857 62.5545 31.5418 77.7521 31.8427 77.8537C32.9347 78.2385 44.4395 74.669 44.4395 74.669C44.4395 74.669 47.9995 74.427 48.3222 74.352C48.645 74.2769 49.123 73.7203 49.1012 73.4082C49.0793 73.096 49.1012 72.4644 49.1012 72.4644C49.1012 72.4644 49.6375 71.8497 49.4506 71.4431C49.3378 71.1989 49.1368 71.0062 48.8876 70.9035H48.1596L47.7253 70.7244C47.7253 70.7244 48.2664 70.1629 48.1766 69.6451C48.0868 69.1272 47.65 68.8416 47.4656 69.2191C47.2812 69.5967 47.2448 69.8653 46.9002 70.2041C46.502 70.5578 46.141 70.9511 45.8227 71.3778C45.5801 71.7626 44.9176 72.7523 44.9176 72.7523L36.6281 73.2025L37.856 63.6725" fill="#263238"/>
<path d="M36.7494 57.2716C36.7494 57.2716 34.4101 56.5456 33.34 61.0541C32.9857 62.5545 31.5418 77.7521 31.8427 77.8537C32.9347 78.2385 44.4395 74.669 44.4395 74.669C44.4395 74.669 47.9995 74.427 48.3222 74.352C48.645 74.2769 49.123 73.7203 49.1012 73.4082C49.0793 73.096 49.1012 72.4644 49.1012 72.4644C49.1012 72.4644 49.6375 71.8497 49.4506 71.4431C49.3378 71.1989 49.1368 71.0062 48.8876 70.9035H48.1596L47.7253 70.7244C47.7253 70.7244 48.2664 70.1629 48.1766 69.6451C48.0868 69.1272 47.65 68.8416 47.4656 69.2191C47.2812 69.5967 47.2448 69.8653 46.9002 70.2041C46.502 70.5578 46.141 70.9511 45.8227 71.3778C45.5801 71.7626 44.9176 72.7523 44.9176 72.7523L36.6281 73.2025L37.856 63.6725" stroke="#263238" stroke-linecap="round" stroke-linejoin="round"/>
<path d="M49.4264 71.4437C49.3136 71.1995 49.1125 71.0068 48.8634 70.9041H48.1354L47.701 70.725C47.701 70.725 48.2422 70.1636 48.1524 69.6457C48.0626 69.1278 47.6258 68.8422 47.4414 69.2198C47.2569 69.5973 47.2205 69.8659 46.8759 70.2047C46.4778 70.5585 46.1168 70.9517 45.7985 71.3784C45.5558 71.7632 44.8934 72.753 44.8934 72.753L36.6039 73.2031L37.1523 69.0528L32.4979 68.9463C32.0733 73.3023 31.6874 77.7987 31.85 77.8567C32.942 78.2415 44.4468 74.672 44.4468 74.672C44.4468 74.672 48.0068 74.43 48.3295 74.355C48.6523 74.28 49.1303 73.7234 49.1085 73.4112C49.0866 73.099 49.1085 72.4674 49.1085 72.4674C49.1085 72.4674 49.6132 71.8503 49.4264 71.4437Z" fill="white" stroke="#263238" stroke-linecap="round" stroke-linejoin="round"/>
<path d="M49.055 75.5967C49.055 75.5967 48.1256 75.783 47.8781 76.0807C47.6306 76.3783 47.0118 78.0578 47.3224 78.1207C47.633 78.1837 48.2518 76.8236 48.2518 76.8236C48.2518 76.8236 49.9893 75.9669 49.055 75.5967Z" fill="white" stroke="#263238" stroke-linecap="round" stroke-linejoin="round"/>
<path d="M49.47 75.6013C49.2562 75.5874 49.0423 75.6282 48.8488 75.7199C48.5819 75.8675 48.0189 77.138 47.9315 77.4937C47.8441 77.8495 47.9315 78.2004 48.1742 78.1133C48.4168 78.0261 49.2419 76.7532 49.4773 76.6056C49.7127 76.458 49.885 75.6061 49.47 75.6013Z" fill="white" stroke="#263238" stroke-linecap="round" stroke-linejoin="round"/>
<path d="M50.1229 75.6009C50.095 75.5377 50.0492 75.4841 49.9913 75.4464C49.9333 75.4087 49.8657 75.3887 49.7965 75.3887C49.7273 75.3887 49.6596 75.4087 49.6017 75.4464C49.5437 75.4841 49.498 75.5377 49.4701 75.6009C49.1158 76.1042 48.5237 77.6409 48.6717 77.7571C48.8198 77.8732 49.174 77.4933 49.4119 77.2271C49.6497 76.9609 50.3 76.2809 50.1229 75.6009Z" fill="white" stroke="#263238" stroke-linecap="round" stroke-linejoin="round"/>
<path d="M50.892 75.662C50.892 75.662 50.3606 75.3353 50.1228 75.6015C49.885 75.8677 49.7078 77.2955 49.766 77.4334C49.8243 77.5714 50.2999 77.2277 50.3897 77.0801C50.4795 76.9325 50.892 75.662 50.892 75.662Z" fill="white" stroke="#263238" stroke-linecap="round" stroke-linejoin="round"/>
</svg>
