<svg width="156" height="70" viewBox="0 0 156 70" fill="none" xmlns="http://www.w3.org/2000/svg">
<path d="M53.7877 27.9783C53.7001 28.022 53.6345 28.0876 53.5469 28.1314C51.6861 29.2251 49.9567 30.4939 48.3367 31.9158C47.5486 32.6376 46.8043 33.3376 46.0818 34.0814C43.4111 36.947 41.3095 40.2501 39.8427 43.8814C38.9452 46.0689 38.2884 48.3439 37.8944 50.6845C37.7411 51.6251 37.6098 52.5876 37.5441 53.5283L25.4818 60.3751C25.3942 59.8939 25.2848 59.4345 25.1972 58.9533C24.825 56.7001 24.6499 54.4033 24.6499 52.1064C24.6499 51.2751 24.6937 50.4439 24.7375 49.6126C24.7813 48.672 24.8907 47.7533 24.9783 46.8564C25.8977 39.6158 28.7218 32.747 33.1658 26.9501C33.4722 26.5126 33.8444 26.0751 34.1509 25.6814C34.9828 24.6533 35.8803 23.7126 36.7998 22.7501C37.7192 21.8095 38.7044 20.9345 39.7333 20.1033L45.8191 23.5376L52.3429 27.2126L53.0653 27.6064L53.7877 27.9783Z" fill="#7A2775"/>
<path d="M18.3231 25.6375C11.2302 38.0406 7.50858 52.0844 7.53047 66.3688C7.53047 67.5062 7.57425 68.6656 7.61803 69.8031C-1.51079 49.5469 -2.07997 26.4688 6.04183 5.79688C6.54534 4.48438 7.11453 3.21562 7.66182 1.96875L26.9922 12.8844C27.014 12.9719 27.0797 13.0375 27.1454 13.0813C23.796 16.975 20.8406 21.175 18.3231 25.6375Z" fill="#B22089"/>
<path d="M34.0849 25.5937C33.7346 26.0312 33.4063 26.425 33.0998 26.8625C31.5893 28.8531 30.2539 30.975 29.1155 33.1843C26.9482 37.45 25.5253 42.0437 24.9342 46.7687C24.8247 47.6875 24.7372 48.5843 24.6934 49.525C24.5839 48.3437 24.4088 47.1625 24.2556 46.0031C23.5769 41.6718 22.5918 37.3843 21.2564 33.2062C20.4245 30.625 19.4613 28.0875 18.3667 25.6156C20.9061 21.1531 23.8615 16.9531 27.189 13.0593C29.2906 16.1437 31.1514 19.3812 32.8152 22.75C33.2311 23.6687 33.6471 24.6093 34.0849 25.5937Z" fill="#962580"/>
<path d="M68.8054 36.5095C68.477 36.4657 68.1487 36.4438 67.8203 36.422H67.076C62.9603 36.422 59.0417 38.2157 56.3491 41.322C55.6485 42.1313 55.0356 43.0282 54.5321 43.9688L47.6143 47.8845L45.9067 48.8688C45.9067 47.797 46.06 46.7251 46.3008 45.6751C46.3446 45.522 46.3884 45.3688 46.4102 45.2376C46.87 43.5313 47.6362 41.9345 48.6651 40.4907C50.6353 37.7782 53.4375 35.7876 56.6555 34.847C58.0128 34.4532 59.392 34.2563 60.815 34.2563C63.4201 34.2563 65.9814 34.9345 68.2581 36.2251C68.4552 36.2907 68.6522 36.3782 68.8054 36.5095Z" fill="#472361"/>
<path d="M56.7209 34.7594C53.5029 35.7 50.6788 37.6906 48.7305 40.4031C49.4748 37.6031 49.3434 34.6281 48.3364 31.9156C50.0221 30.45 51.861 29.1375 53.7874 28C55.3418 29.9688 56.3488 32.2875 56.7209 34.7594Z" fill="#62266C"/>
<path opacity="0.4" d="M52.9997 36.3781C51.2921 37.4062 49.8254 38.7843 48.687 40.4031C49.4313 37.6031 49.3 34.6281 48.293 31.9156C48.687 31.5656 49.1249 31.1937 49.5627 30.8437C50.11 30.4062 50.6792 30.0125 51.2265 29.575C52.2116 31.7406 52.8245 34.0374 52.9997 36.3781Z" fill="url(#paint0_linear_272_1146)"/>
<path opacity="0.2" d="M45.447 23.275C37.6536 30.6906 32.5747 40.4688 30.9766 51.1C30.6701 53.2 30.495 55.3219 30.4731 57.4656L29.1596 58.1875L25.3723 60.3312C25.2848 59.85 25.1753 59.3906 25.0877 58.9094C24.9783 58.275 24.8907 57.6406 24.8031 57.0062C24.6061 55.3656 24.5186 53.725 24.5186 52.0625C24.5186 51.2312 24.5623 50.4 24.6061 49.5688C24.6499 48.6281 24.7594 47.7094 24.8469 46.8125C25.3942 42.5688 26.5764 38.4344 28.3715 34.5625C28.5685 34.0813 28.8093 33.6438 29.0501 33.1844C30.1885 30.9531 31.5239 28.8531 33.0344 26.8625C33.3409 26.425 33.7131 25.9875 34.0195 25.5938C34.8514 24.5656 35.749 23.625 36.6684 22.6625C37.5879 21.7219 38.573 20.8469 39.6019 20.0156L45.447 23.275Z" fill="url(#paint1_linear_272_1146)"/>
<path opacity="0.24" d="M68.8054 36.5094C68.696 36.5094 68.5646 36.4656 68.4114 36.4656C66.9446 36.0062 65.4341 35.7656 63.9017 35.7437C59.7204 35.7437 55.7361 37.4719 52.8683 40.5344C51.2045 42.3063 50.0224 44.45 49.3875 46.7687L47.6143 47.7531L45.9067 48.7375C45.9067 47.6656 46.06 46.5937 46.3008 45.5437C46.3446 45.3906 46.3884 45.2375 46.4102 45.1063C46.87 43.4 47.6362 41.8031 48.6651 40.3594C49.8253 38.7406 51.2921 37.3844 52.9777 36.3344C54.1161 35.6125 55.3639 35.0656 56.6555 34.7156C58.0128 34.3219 59.392 34.125 60.815 34.125C63.4201 34.125 65.9814 34.8031 68.2581 36.0937C68.4552 36.2687 68.6522 36.3781 68.8054 36.5094Z" fill="url(#paint2_linear_272_1146)"/>
<path opacity="0.2" d="M15.105 10.1938C8.20917 22.0282 4.57515 35.5032 4.59704 49.2188C4.59704 55.6719 5.38514 62.0813 6.96134 68.3375C-1.55452 48.4094 -1.90478 25.9657 6.02 5.79692C6.45783 4.72505 6.89567 3.65317 7.3335 2.62505C7.44296 2.4063 7.53052 2.16567 7.63998 1.92505L16.922 7.17505C16.331 8.1813 15.6961 9.20942 15.105 10.1938Z" fill="url(#paint3_linear_272_1146)"/>
<path opacity="0.2" d="M28.4373 34.5626C26.6422 38.4345 25.4381 42.5688 24.9127 46.8126C24.8033 47.7313 24.7157 48.6282 24.6719 49.5688C24.5624 48.3876 24.3873 47.2063 24.2341 46.047C23.5554 41.7157 22.5703 37.4282 21.2349 33.2501C20.403 30.6688 19.4398 28.1313 18.3452 25.6595C18.586 25.222 18.8487 24.7845 19.0895 24.347C19.2428 24.0626 19.4179 23.7782 19.593 23.5157C20.0965 22.6407 20.6657 21.7876 21.2568 20.9126L22.5265 19.0532C25.8759 26.1188 26.7297 27.9782 28.4373 34.5626Z" fill="url(#paint4_linear_272_1146)"/>
<path d="M90.5001 33.3596C90.5001 30.7564 89.931 30.5377 88.6394 30.5377C88.0702 30.5377 87.2821 31.0846 87.0194 31.5658C87.1945 32.0689 87.3259 32.6377 87.3259 33.5564V39.5064C87.3259 39.8783 87.0632 40.1408 86.691 40.1408H84.7645C84.4143 40.1408 84.1297 39.8783 84.1297 39.5064V33.6002C84.1297 31.0846 83.9545 30.5596 82.1375 30.5596C81.8311 30.5596 81.3494 30.6252 80.8678 31.0189V39.5064C80.8678 39.8783 80.6051 40.1408 80.233 40.1408H78.3722C78.0219 40.1408 77.7373 39.8783 77.7373 39.5064V28.9846C77.7373 28.7439 77.8687 28.5252 78.0438 28.4814C79.5105 27.9346 80.7146 27.8252 82.0719 27.8252C83.9983 27.8252 85.1367 28.1314 86.1218 29.1814C87.1945 27.9127 88.2891 27.8252 89.515 27.8252C92.6455 27.8252 93.6525 30.2314 93.6525 33.2939V39.5283C93.6525 39.9002 93.3899 40.1627 93.0177 40.1627H91.135C90.7847 40.1627 90.5001 39.9002 90.5001 39.5283V33.3596Z" fill="#43215C"/>
<path d="M105.364 36.772C105.54 36.772 105.737 36.8595 105.78 37.0345L106.262 38.0845C106.328 38.1939 106.328 38.3033 106.328 38.4126C106.328 38.6751 106.218 38.9595 105.934 39.1345C104.62 40.097 102.847 40.2501 101.49 40.2501C97.4615 40.2501 95.7759 37.8439 95.7759 33.8845C95.7759 30.1876 97.4615 27.7595 101.49 27.7595C104.708 27.7595 106.503 29.5533 106.503 31.697C106.503 34.3876 104.773 35.897 102.124 35.897C101.336 35.897 100.176 35.7876 98.9502 35.3283C98.9721 36.7064 99.8258 37.4939 101.511 37.4939C102.3 37.4939 103.92 37.472 105.146 36.8376C105.189 36.8158 105.277 36.772 105.364 36.772ZM98.9502 32.5501C99.585 33.0533 100.658 33.272 101.227 33.272C102.628 33.272 103.35 32.8783 103.35 31.9814C103.35 30.8001 102.475 30.5376 101.49 30.5376C100.242 30.5376 99.2348 31.0845 98.9502 32.5501Z" fill="#43215C"/>
<path d="M112.151 39.4846C112.151 39.8565 111.888 40.119 111.516 40.119H109.633C109.283 40.119 108.999 39.8565 108.999 39.4846V29.5315C108.999 29.3127 109.174 29.1815 109.393 28.9846C110.662 27.9346 112.611 27.7815 114.056 27.7815C115.128 27.7815 116.091 27.9565 117.12 28.5252C117.383 28.6784 117.536 28.8752 117.536 29.1596C117.536 29.2252 117.536 29.3127 116.989 30.6909C116.88 30.9315 116.726 31.1065 116.485 31.1065C116.398 31.1065 116.223 31.0409 116.113 31.019C115.391 30.6909 114.756 30.5377 114.165 30.5377C113.574 30.5377 112.304 30.6034 112.151 31.4346V39.4846Z" fill="#43215C"/>
<path d="M119.945 37.0127C120.995 37.3409 122.506 37.494 123.119 37.494C123.776 37.494 125.439 37.494 125.439 36.5315C125.439 34.3221 118.565 36.5971 118.565 31.4346C118.565 29.444 119.857 27.7815 123.732 27.7815C124.192 27.7815 125.768 27.9127 126.972 28.1752C127.213 28.1971 127.519 28.4815 127.519 28.8096C127.519 28.9846 127.497 29.4002 127.366 30.4065C127.3 30.6471 127.103 30.7565 126.797 30.7565C126.052 30.669 124.936 30.5377 124.695 30.5377C122.856 30.5377 121.762 30.6252 121.762 31.4127C121.762 33.5127 128.636 31.5221 128.636 36.444C128.636 38.894 126.643 40.2502 123.206 40.2502C122.396 40.2502 120.448 40.0752 119.31 39.5502C119.091 39.4627 118.894 39.3096 118.894 39.0471C118.894 38.9815 118.916 38.7846 119.31 37.2752C119.375 37.0565 119.551 36.969 119.791 36.969L119.945 37.0127Z" fill="#43215C"/>
<path d="M134.458 40.1189C134.239 40.1189 133.583 39.9658 133.342 39.2876L129.555 28.6126C129.555 28.2626 129.817 27.9783 130.19 27.9783H132.072C132.422 27.9783 132.663 28.197 132.817 28.6126L135.465 36.2251L138.114 28.6126C138.268 28.197 138.508 27.9783 138.859 27.9783H140.741C141.113 27.9783 141.376 28.2408 141.376 28.6126L137.589 39.2876C137.348 39.9876 136.691 40.1189 136.472 40.1189H134.458Z" fill="#43215C"/>
<path d="M142.537 33.9065C142.537 30.2096 144.419 27.7815 148.447 27.7815C152.475 27.7815 154.358 30.2096 154.358 33.9065C154.358 37.8659 152.475 40.2721 148.447 40.2721C144.419 40.2721 142.537 37.8659 142.537 33.9065ZM151.206 33.9284C151.206 32.4846 150.746 30.5377 148.447 30.5377C146.127 30.5377 145.689 32.4846 145.689 33.9284C145.689 35.3284 145.908 37.494 148.447 37.494C150.987 37.494 151.206 35.3502 151.206 33.9284Z" fill="#43215C"/>
<path d="M86.3799 19.9743C86.3799 17.5462 85.9858 17.4587 84.6504 17.4587C84.0594 17.4587 83.0305 17.9837 82.7459 18.5524C82.8553 19.0337 82.8772 19.4493 82.8772 19.9962V23.8024C82.8772 23.9774 82.7678 24.0868 82.5926 24.0868H82.1548C81.9797 24.0868 81.8702 23.9774 81.8702 23.8024V20.1931C81.8702 17.9181 81.6732 17.4368 79.8124 17.4368C79.3308 17.4368 78.7616 17.4806 78.28 17.7868V23.7806C78.28 23.9556 78.1705 24.0649 77.9954 24.0649H77.5575C77.3824 24.0649 77.2729 23.9556 77.2729 23.7806V17.1524C77.2729 17.0212 77.3386 16.9774 77.4481 16.9118C78.3237 16.6056 79.1118 16.5399 79.7905 16.5181C80.8851 16.5399 81.6075 16.5837 82.5488 17.5462C83.4245 16.5181 84.3002 16.5181 85.0007 16.5181C86.7739 16.5181 87.3431 17.7431 87.3431 19.5587V23.7806C87.3431 23.9556 87.2337 24.0649 87.0585 24.0649H86.6207C86.4456 24.0649 86.3361 23.9556 86.3361 23.7806V19.9743H86.3799Z" fill="#787979"/>
<path d="M92.8381 24.1961C90.3863 24.1961 89.2041 22.7305 89.2041 20.3024C89.2041 18.0493 90.233 16.5618 92.6411 16.5618C94.5457 16.5618 95.5965 17.2399 95.5965 18.8368C95.5965 20.6086 94.3924 21.1555 92.8819 21.1555C92.3127 21.1555 91.4152 21.0899 90.1892 20.543C90.1892 22.2274 91.2838 23.2555 92.9038 23.2555C93.4292 23.2555 94.1735 23.1243 95.0273 22.7961C95.0711 22.7743 95.093 22.7743 95.1367 22.7743C95.2462 22.7743 95.3557 22.8399 95.3994 22.9711L95.5089 23.4524C95.5089 23.5836 95.4213 23.6711 95.29 23.7368C94.5457 24.043 93.6043 24.1961 92.8381 24.1961ZM90.1892 19.5805C90.7146 19.9305 91.9624 20.2149 92.466 20.2149C93.8889 20.2149 94.5894 19.9961 94.5894 18.9024C94.5894 17.568 93.6262 17.4805 92.6192 17.4805C91.4589 17.4586 90.5395 17.8961 90.1892 19.5805Z" fill="#787979"/>
<path d="M101.069 24.1961C98.6175 24.1961 97.3696 22.6648 97.3696 20.2586C97.3696 17.8305 98.6612 16.5617 100.588 16.5617C100.763 16.5617 101.945 16.5617 103.105 17.1961V13.9367C103.105 13.7617 103.215 13.6523 103.39 13.6523H103.828C104.003 13.6523 104.112 13.7617 104.112 13.9367V23.3211C104.112 23.4523 104.047 23.4961 103.937 23.5617C102.974 24.0211 101.901 24.1961 101.069 24.1961ZM101.069 23.2555C101.244 23.2555 102.23 23.2555 103.105 22.7961V18.2023C102.361 17.6117 101.223 17.4586 100.938 17.4586C99.3837 17.4586 98.3766 17.9398 98.3766 20.2367C98.3766 22.4023 99.2961 23.2555 101.069 23.2555Z" fill="#787979"/>
<path d="M106.98 14.9211C107.308 14.9211 107.571 15.1836 107.571 15.5118C107.571 15.8399 107.308 16.1024 106.98 16.1024C106.651 16.1024 106.389 15.8399 106.389 15.5118C106.389 15.1618 106.651 14.9211 106.98 14.9211ZM107.483 23.8243C107.483 23.9993 107.374 24.1086 107.199 24.1086H106.761C106.586 24.1086 106.476 23.9993 106.476 23.8243V16.9336C106.476 16.7586 106.586 16.6493 106.761 16.6493H107.199C107.374 16.6493 107.483 16.7586 107.483 16.9336V23.8243Z" fill="#787979"/>
<path d="M114.795 23.3649C114.051 24.1086 112.694 24.1961 112.453 24.1961C110.57 24.1961 109.388 23.0368 109.388 20.6086C109.388 17.8743 111.271 16.5618 113.81 16.5618C114.511 16.5618 114.927 16.6274 115.584 16.8024C115.715 16.8461 115.759 16.9118 115.759 17.043V23.8243C115.759 23.9993 115.649 24.1086 115.474 24.1086H115.189C115.014 24.1086 114.971 24.043 114.905 23.8461L114.795 23.3649ZM114.795 17.5461C114.401 17.4805 113.985 17.4805 113.635 17.4805C111.49 17.4805 110.373 18.6399 110.373 20.6305C110.373 22.9711 111.534 23.2555 112.628 23.2555C113.701 23.2555 114.774 22.3149 114.774 22.3149V17.5461H114.795Z" fill="#787979"/>
<defs>
<linearGradient id="paint0_linear_272_1146" x1="50.6416" y1="45.6507" x2="50.6416" y2="25.2615" gradientUnits="userSpaceOnUse">
<stop offset="0.233" stop-color="#010101" stop-opacity="0"/>
<stop offset="0.787" stop-color="#010101"/>
</linearGradient>
<linearGradient id="paint1_linear_272_1146" x1="23.4838" y1="57.5136" x2="54.2792" y2="41.2166" gradientUnits="userSpaceOnUse">
<stop offset="0.175" stop-color="#010101" stop-opacity="0"/>
<stop offset="0.971" stop-color="#010101" stop-opacity="0.961"/>
</linearGradient>
<linearGradient id="paint2_linear_272_1146" x1="45.9226" y1="41.4394" x2="68.8362" y2="41.4394" gradientUnits="userSpaceOnUse">
<stop stop-color="#010101" stop-opacity="0"/>
<stop offset="0.687" stop-color="#010101"/>
</linearGradient>
<linearGradient id="paint3_linear_272_1146" x1="8.61023" y1="68.3491" x2="8.61023" y2="1.92683" gradientUnits="userSpaceOnUse">
<stop stop-color="#010101" stop-opacity="0"/>
<stop offset="1" stop-color="#010101"/>
</linearGradient>
<linearGradient id="paint4_linear_272_1146" x1="28.9355" y1="48.0138" x2="12.0958" y2="42.9617" gradientUnits="userSpaceOnUse">
<stop offset="0.308" stop-color="#010101" stop-opacity="0"/>
<stop offset="1" stop-color="#010101"/>
</linearGradient>
</defs>
</svg>
