<svg width="651" height="676" viewBox="0 0 651 676" fill="none" xmlns="http://www.w3.org/2000/svg">
<mask id="mask0_1187_30966" style="mask-type:luminance" maskUnits="userSpaceOnUse" x="65" y="112" width="521" height="451">
<path d="M455.125 112.717L195.232 112.697L65.3019 337.73L195.264 562.784L455.162 562.804L585.093 337.77L455.125 112.717Z" fill="white"/>
</mask>
<g mask="url(#mask0_1187_30966)">
<path d="M650.057 225.255L260.196 0.181641L0.335687 450.249L390.196 675.322L650.057 225.255Z" fill="url(#paint0_linear_1187_30966)"/>
<path d="M216.28 142.107H433.78L547.28 342.607L439.78 527.107H214.28L106.78 335.607L216.28 142.107Z" fill="white" fill-opacity="0.5"/>
</g>
<path d="M285.437 263.187V291.107H279.837V272.947L272.357 291.107H268.117L260.597 272.947V291.107H254.997V263.187H261.357L270.237 283.947L279.117 263.187H285.437ZM310.773 279.547C310.773 280.347 310.72 281.067 310.613 281.707H294.413C294.547 283.307 295.107 284.561 296.093 285.467C297.08 286.374 298.293 286.827 299.733 286.827C301.813 286.827 303.293 285.934 304.173 284.147H310.213C309.573 286.281 308.347 288.041 306.533 289.427C304.72 290.787 302.493 291.467 299.853 291.467C297.72 291.467 295.8 291.001 294.093 290.067C292.413 289.107 291.093 287.761 290.133 286.027C289.2 284.294 288.733 282.294 288.733 280.027C288.733 277.734 289.2 275.721 290.133 273.987C291.067 272.254 292.373 270.921 294.053 269.987C295.733 269.054 297.667 268.587 299.853 268.587C301.96 268.587 303.84 269.041 305.493 269.947C307.173 270.854 308.467 272.147 309.373 273.827C310.307 275.481 310.773 277.387 310.773 279.547ZM304.973 277.947C304.947 276.507 304.427 275.361 303.413 274.507C302.4 273.627 301.16 273.187 299.693 273.187C298.307 273.187 297.133 273.614 296.173 274.467C295.24 275.294 294.667 276.454 294.453 277.947H304.973ZM319.661 272.387C320.381 271.214 321.314 270.294 322.461 269.627C323.634 268.961 324.968 268.627 326.461 268.627V274.507H324.981C323.221 274.507 321.888 274.921 320.981 275.747C320.101 276.574 319.661 278.014 319.661 280.067V291.107H314.061V268.947H319.661V272.387ZM337.913 291.467C336.099 291.467 334.473 291.147 333.033 290.507C331.593 289.841 330.446 288.947 329.593 287.827C328.766 286.707 328.313 285.467 328.233 284.107H333.873C333.979 284.961 334.393 285.667 335.113 286.227C335.859 286.787 336.779 287.067 337.873 287.067C338.939 287.067 339.766 286.854 340.353 286.427C340.966 286.001 341.273 285.454 341.273 284.787C341.273 284.067 340.899 283.534 340.153 283.187C339.433 282.814 338.273 282.414 336.673 281.987C335.019 281.587 333.659 281.174 332.593 280.747C331.553 280.321 330.646 279.667 329.873 278.787C329.126 277.907 328.753 276.721 328.753 275.227C328.753 274.001 329.099 272.881 329.793 271.867C330.513 270.854 331.526 270.054 332.833 269.467C334.166 268.881 335.726 268.587 337.513 268.587C340.153 268.587 342.259 269.254 343.833 270.587C345.406 271.894 346.273 273.667 346.433 275.907H341.073C340.993 275.027 340.619 274.334 339.953 273.827C339.313 273.294 338.446 273.027 337.353 273.027C336.339 273.027 335.553 273.214 334.993 273.587C334.459 273.961 334.193 274.481 334.193 275.147C334.193 275.894 334.566 276.467 335.313 276.867C336.059 277.241 337.219 277.627 338.793 278.027C340.393 278.427 341.713 278.841 342.753 279.267C343.793 279.694 344.686 280.361 345.433 281.267C346.206 282.147 346.606 283.321 346.633 284.787C346.633 286.067 346.273 287.214 345.553 288.227C344.859 289.241 343.846 290.041 342.513 290.627C341.206 291.187 339.673 291.467 337.913 291.467ZM359.67 285.947L365.27 268.947H371.23L363.03 291.107H356.23L348.07 268.947H354.07L359.67 285.947ZM383.415 291.467C381.282 291.467 379.362 291.001 377.655 290.067C375.948 289.107 374.602 287.761 373.615 286.027C372.655 284.294 372.175 282.294 372.175 280.027C372.175 277.761 372.668 275.761 373.655 274.027C374.668 272.294 376.042 270.961 377.775 270.027C379.508 269.067 381.442 268.587 383.575 268.587C385.708 268.587 387.642 269.067 389.375 270.027C391.108 270.961 392.468 272.294 393.455 274.027C394.468 275.761 394.975 277.761 394.975 280.027C394.975 282.294 394.455 284.294 393.415 286.027C392.402 287.761 391.015 289.107 389.255 290.067C387.522 291.001 385.575 291.467 383.415 291.467ZM383.415 286.587C384.428 286.587 385.375 286.347 386.255 285.867C387.162 285.361 387.882 284.614 388.415 283.627C388.948 282.641 389.215 281.441 389.215 280.027C389.215 277.921 388.655 276.307 387.535 275.187C386.442 274.041 385.095 273.467 383.495 273.467C381.895 273.467 380.548 274.041 379.455 275.187C378.388 276.307 377.855 277.921 377.855 280.027C377.855 282.134 378.375 283.761 379.415 284.907C380.482 286.027 381.815 286.587 383.415 286.587ZM229.261 331.827C229.261 333.321 228.901 334.721 228.181 336.027C227.487 337.334 226.381 338.387 224.861 339.187C223.367 339.987 221.474 340.387 219.181 340.387H214.501V351.107H208.901V323.187H219.181C221.341 323.187 223.181 323.561 224.701 324.307C226.221 325.054 227.354 326.081 228.101 327.387C228.874 328.694 229.261 330.174 229.261 331.827ZM218.941 335.867C220.487 335.867 221.634 335.521 222.381 334.827C223.127 334.107 223.501 333.107 223.501 331.827C223.501 329.107 221.981 327.747 218.941 327.747H214.501V335.867H218.941ZM238.037 332.387C238.757 331.214 239.69 330.294 240.837 329.627C242.01 328.961 243.343 328.627 244.837 328.627V334.507H243.357C241.597 334.507 240.263 334.921 239.357 335.747C238.477 336.574 238.037 338.014 238.037 340.067V351.107H232.437V328.947H238.037V332.387ZM257.649 351.467C255.515 351.467 253.595 351.001 251.889 350.067C250.182 349.107 248.835 347.761 247.849 346.027C246.889 344.294 246.409 342.294 246.409 340.027C246.409 337.761 246.902 335.761 247.889 334.027C248.902 332.294 250.275 330.961 252.009 330.027C253.742 329.067 255.675 328.587 257.809 328.587C259.942 328.587 261.875 329.067 263.609 330.027C265.342 330.961 266.702 332.294 267.689 334.027C268.702 335.761 269.209 337.761 269.209 340.027C269.209 342.294 268.689 344.294 267.649 346.027C266.635 347.761 265.249 349.107 263.489 350.067C261.755 351.001 259.809 351.467 257.649 351.467ZM257.649 346.587C258.662 346.587 259.609 346.347 260.489 345.867C261.395 345.361 262.115 344.614 262.649 343.627C263.182 342.641 263.449 341.441 263.449 340.027C263.449 337.921 262.889 336.307 261.769 335.187C260.675 334.041 259.329 333.467 257.729 333.467C256.129 333.467 254.782 334.041 253.689 335.187C252.622 336.307 252.089 337.921 252.089 340.027C252.089 342.134 252.609 343.761 253.649 344.907C254.715 346.027 256.049 346.587 257.649 346.587ZM271.076 339.947C271.076 337.707 271.516 335.721 272.396 333.987C273.303 332.254 274.53 330.921 276.076 329.987C277.623 329.054 279.343 328.587 281.236 328.587C282.676 328.587 284.05 328.907 285.356 329.547C286.663 330.161 287.703 330.987 288.476 332.027V321.507H294.156V351.107H288.476V347.827C287.783 348.921 286.81 349.801 285.556 350.467C284.303 351.134 282.85 351.467 281.196 351.467C279.33 351.467 277.623 350.987 276.076 350.027C274.53 349.067 273.303 347.721 272.396 345.987C271.516 344.227 271.076 342.214 271.076 339.947ZM288.516 340.027C288.516 338.667 288.25 337.507 287.716 336.547C287.183 335.561 286.463 334.814 285.556 334.307C284.65 333.774 283.676 333.507 282.636 333.507C281.596 333.507 280.636 333.761 279.756 334.267C278.876 334.774 278.156 335.521 277.596 336.507C277.063 337.467 276.796 338.614 276.796 339.947C276.796 341.281 277.063 342.454 277.596 343.467C278.156 344.454 278.876 345.214 279.756 345.747C280.663 346.281 281.623 346.547 282.636 346.547C283.676 346.547 284.65 346.294 285.556 345.787C286.463 345.254 287.183 344.507 287.716 343.547C288.25 342.561 288.516 341.387 288.516 340.027ZM319.746 328.947V351.107H314.106V348.307C313.386 349.267 312.439 350.027 311.266 350.587C310.119 351.121 308.866 351.387 307.506 351.387C305.772 351.387 304.239 351.027 302.906 350.307C301.572 349.561 300.519 348.481 299.746 347.067C298.999 345.627 298.626 343.921 298.626 341.947V328.947H304.226V341.147C304.226 342.907 304.666 344.267 305.546 345.227C306.426 346.161 307.626 346.627 309.146 346.627C310.692 346.627 311.906 346.161 312.786 345.227C313.666 344.267 314.106 342.907 314.106 341.147V328.947H319.746ZM323.031 340.027C323.031 337.734 323.498 335.734 324.431 334.027C325.364 332.294 326.658 330.961 328.311 330.027C329.964 329.067 331.858 328.587 333.991 328.587C336.738 328.587 339.004 329.281 340.791 330.667C342.604 332.027 343.818 333.947 344.431 336.427H338.391C338.071 335.467 337.524 334.721 336.751 334.187C336.004 333.627 335.071 333.347 333.951 333.347C332.351 333.347 331.084 333.934 330.151 335.107C329.218 336.254 328.751 337.894 328.751 340.027C328.751 342.134 329.218 343.774 330.151 344.947C331.084 346.094 332.351 346.667 333.951 346.667C336.218 346.667 337.698 345.654 338.391 343.627H344.431C343.818 346.027 342.604 347.934 340.791 349.347C338.978 350.761 336.711 351.467 333.991 351.467C331.858 351.467 329.964 351.001 328.311 350.067C326.658 349.107 325.364 347.774 324.431 346.067C323.498 344.334 323.031 342.321 323.031 340.027ZM354.254 333.547V344.267C354.254 345.014 354.427 345.561 354.774 345.907C355.147 346.227 355.76 346.387 356.614 346.387H359.214V351.107H355.694C350.974 351.107 348.614 348.814 348.614 344.227V333.547H345.974V328.947H348.614V323.467H354.254V328.947H359.214V333.547H354.254ZM365.281 326.307C364.295 326.307 363.468 326.001 362.801 325.387C362.161 324.747 361.841 323.961 361.841 323.027C361.841 322.094 362.161 321.321 362.801 320.707C363.468 320.067 364.295 319.747 365.281 319.747C366.268 319.747 367.081 320.067 367.721 320.707C368.388 321.321 368.721 322.094 368.721 323.027C368.721 323.961 368.388 324.747 367.721 325.387C367.081 326.001 366.268 326.307 365.281 326.307ZM368.041 328.947V351.107H362.441V328.947H368.041ZM382.014 345.947L387.614 328.947H393.574L385.374 351.107H378.574L370.414 328.947H376.414L382.014 345.947ZM398.759 326.307C397.773 326.307 396.946 326.001 396.279 325.387C395.639 324.747 395.319 323.961 395.319 323.027C395.319 322.094 395.639 321.321 396.279 320.707C396.946 320.067 397.773 319.747 398.759 319.747C399.746 319.747 400.559 320.067 401.199 320.707C401.866 321.321 402.199 322.094 402.199 323.027C402.199 323.961 401.866 324.747 401.199 325.387C400.559 326.001 399.746 326.307 398.759 326.307ZM401.519 328.947V351.107H395.919V328.947H401.519ZM412.772 333.547V344.267C412.772 345.014 412.946 345.561 413.292 345.907C413.666 346.227 414.279 346.387 415.132 346.387H417.732V351.107H414.212C409.492 351.107 407.132 348.814 407.132 344.227V333.547H404.492V328.947H407.132V323.467H412.772V328.947H417.732V333.547H412.772ZM442.16 328.947L428.44 361.587H422.48L427.28 350.547L418.4 328.947H424.68L430.4 344.427L436.2 328.947H442.16ZM287.206 411.387C285.259 411.387 283.499 411.054 281.926 410.387C280.379 409.721 279.152 408.761 278.246 407.507C277.339 406.254 276.872 404.774 276.846 403.067H282.846C282.926 404.214 283.326 405.121 284.046 405.787C284.792 406.454 285.806 406.787 287.086 406.787C288.392 406.787 289.419 406.481 290.166 405.867C290.912 405.227 291.286 404.401 291.286 403.387C291.286 402.561 291.032 401.881 290.526 401.347C290.019 400.814 289.379 400.401 288.606 400.107C287.859 399.787 286.819 399.441 285.486 399.067C283.672 398.534 282.192 398.014 281.046 397.507C279.926 396.974 278.952 396.187 278.126 395.147C277.326 394.081 276.926 392.667 276.926 390.907C276.926 389.254 277.339 387.814 278.166 386.587C278.992 385.361 280.152 384.427 281.646 383.787C283.139 383.121 284.846 382.787 286.766 382.787C289.646 382.787 291.979 383.494 293.766 384.907C295.579 386.294 296.579 388.241 296.766 390.747H290.606C290.552 389.787 290.139 389.001 289.366 388.387C288.619 387.747 287.619 387.427 286.366 387.427C285.272 387.427 284.392 387.707 283.726 388.267C283.086 388.827 282.766 389.641 282.766 390.707C282.766 391.454 283.006 392.081 283.486 392.587C283.992 393.067 284.606 393.467 285.326 393.787C286.072 394.081 287.112 394.427 288.446 394.827C290.259 395.361 291.739 395.894 292.886 396.427C294.032 396.961 295.019 397.761 295.846 398.827C296.672 399.894 297.086 401.294 297.086 403.027C297.086 404.521 296.699 405.907 295.926 407.187C295.152 408.467 294.019 409.494 292.526 410.267C291.032 411.014 289.259 411.387 287.206 411.387ZM322.061 388.947V411.107H316.421V408.307C315.701 409.267 314.754 410.027 313.581 410.587C312.434 411.121 311.181 411.387 309.821 411.387C308.087 411.387 306.554 411.027 305.221 410.307C303.887 409.561 302.834 408.481 302.061 407.067C301.314 405.627 300.941 403.921 300.941 401.947V388.947H306.541V401.147C306.541 402.907 306.981 404.267 307.861 405.227C308.741 406.161 309.941 406.627 311.461 406.627C313.007 406.627 314.221 406.161 315.101 405.227C315.981 404.267 316.421 402.907 316.421 401.147V388.947H322.061ZM329.626 386.307C328.639 386.307 327.813 386.001 327.146 385.387C326.506 384.747 326.186 383.961 326.186 383.027C326.186 382.094 326.506 381.321 327.146 380.707C327.813 380.067 328.639 379.747 329.626 379.747C330.613 379.747 331.426 380.067 332.066 380.707C332.733 381.321 333.066 382.094 333.066 383.027C333.066 383.961 332.733 384.747 332.066 385.387C331.426 386.001 330.613 386.307 329.626 386.307ZM332.386 388.947V411.107H326.786V388.947H332.386ZM343.639 393.547V404.267C343.639 405.014 343.812 405.561 344.159 405.907C344.532 406.227 345.145 406.387 345.999 406.387H348.599V411.107H345.079C340.359 411.107 337.999 408.814 337.999 404.227V393.547H335.359V388.947H337.999V383.467H343.639V388.947H348.599V393.547H343.639ZM372.426 399.547C372.426 400.347 372.373 401.067 372.266 401.707H356.066C356.2 403.307 356.76 404.561 357.746 405.467C358.733 406.374 359.946 406.827 361.386 406.827C363.466 406.827 364.946 405.934 365.826 404.147H371.866C371.226 406.281 370 408.041 368.186 409.427C366.373 410.787 364.146 411.467 361.506 411.467C359.373 411.467 357.453 411.001 355.746 410.067C354.066 409.107 352.746 407.761 351.786 406.027C350.853 404.294 350.386 402.294 350.386 400.027C350.386 397.734 350.853 395.721 351.786 393.987C352.72 392.254 354.026 390.921 355.706 389.987C357.386 389.054 359.32 388.587 361.506 388.587C363.613 388.587 365.493 389.041 367.146 389.947C368.826 390.854 370.12 392.147 371.026 393.827C371.96 395.481 372.426 397.387 372.426 399.547ZM366.626 397.947C366.6 396.507 366.08 395.361 365.066 394.507C364.053 393.627 362.813 393.187 361.346 393.187C359.96 393.187 358.786 393.614 357.826 394.467C356.893 395.294 356.32 396.454 356.106 397.947H366.626Z" fill="#001237"/>
<path d="M133.814 457.213L100.36 476.526L92.1268 462.226L125.584 442.91L133.814 457.213Z" fill="#00478F"/>
<path d="M131.135 223.799L97.6812 204.485L89.4481 218.786L122.906 238.102L131.135 223.799Z" fill="#00478F"/>
<path d="M517.375 219.799L550.829 200.485L559.062 214.786L525.605 234.102L517.375 219.799Z" fill="#00478F"/>
<path d="M319.751 112.867L319.756 74.2425L336.258 74.2181L336.254 112.842L319.751 112.867Z" fill="#00478F"/>
<path d="M524.284 443.019L557.733 462.335L549.465 476.585L516.021 457.269L524.284 443.019Z" fill="#00478F"/>
<path d="M317.751 563.133L317.756 601.757L334.258 601.782L334.254 563.158L317.751 563.133Z" fill="#00478F"/>
<defs>
<linearGradient id="paint0_linear_1187_30966" x1="430.701" y1="334.675" x2="65.5045" y2="345.381" gradientUnits="userSpaceOnUse">
<stop stop-color="white"/>
<stop offset="1" stop-color="#BBC9D8"/>
</linearGradient>
</defs>
</svg>
