<svg width="441" height="495" viewBox="0 0 441 495" fill="none" xmlns="http://www.w3.org/2000/svg">
<mask id="mask0_1187_36270" style="mask-type:luminance" maskUnits="userSpaceOnUse" x="47" y="82" width="382" height="331">
<path d="M333.246 82.4538L380.844 164.892L428.442 247.33L380.835 329.778L333.222 412.225L238.01 412.233L142.797 412.238L95.1984 329.8L47.6003 247.362L95.2135 164.916L142.825 82.4656L238.036 82.4569L333.246 82.4538Z" fill="white"/>
</mask>
<g mask="url(#mask0_1187_36270)">
<path d="M194.02 495.955L-0.550675 158.968L280.765 -3.44088L475.335 333.547L194.02 495.955Z" fill="url(#paint0_linear_1187_36270)" stroke="url(#paint1_linear_1187_36270)" stroke-width="5"/>
</g>
<mask id="mask1_1187_36270" style="mask-type:luminance" maskUnits="userSpaceOnUse" x="101" y="119" width="311" height="269">
<path d="M334.135 119.733L179.294 119.743L101.866 253.826L179.276 387.897L334.115 387.884L411.545 253.804L334.135 119.733Z" fill="white"/>
</mask>
<g mask="url(#mask1_1187_36270)">
<path d="M295.428 52.6958L63.1553 186.791L217.975 454.932L450.248 320.837L295.428 52.6958Z" fill="url(#paint2_linear_1187_36270)" fill-opacity="0.8"/>
</g>
<path d="M202.058 298.154C201.031 298.154 200.107 297.978 199.286 297.626C198.465 297.259 197.819 296.746 197.35 296.086C196.881 295.426 196.646 294.656 196.646 293.776H199.33C199.389 294.436 199.645 294.979 200.1 295.404C200.569 295.829 201.222 296.042 202.058 296.042C202.923 296.042 203.598 295.837 204.082 295.426C204.566 295.001 204.808 294.458 204.808 293.798C204.808 293.285 204.654 292.867 204.346 292.544C204.053 292.221 203.679 291.972 203.224 291.796C202.784 291.62 202.168 291.429 201.376 291.224C200.379 290.96 199.565 290.696 198.934 290.432C198.318 290.153 197.79 289.728 197.35 289.156C196.91 288.584 196.69 287.821 196.69 286.868C196.69 285.988 196.91 285.218 197.35 284.558C197.79 283.898 198.406 283.392 199.198 283.04C199.99 282.688 200.907 282.512 201.948 282.512C203.429 282.512 204.639 282.886 205.578 283.634C206.531 284.367 207.059 285.379 207.162 286.67H204.39C204.346 286.113 204.082 285.636 203.598 285.24C203.114 284.844 202.476 284.646 201.684 284.646C200.965 284.646 200.379 284.829 199.924 285.196C199.469 285.563 199.242 286.091 199.242 286.78C199.242 287.249 199.381 287.638 199.66 287.946C199.953 288.239 200.32 288.474 200.76 288.65C201.2 288.826 201.801 289.017 202.564 289.222C203.576 289.501 204.397 289.779 205.028 290.058C205.673 290.337 206.216 290.769 206.656 291.356C207.111 291.928 207.338 292.698 207.338 293.666C207.338 294.443 207.125 295.177 206.7 295.866C206.289 296.555 205.681 297.113 204.874 297.538C204.082 297.949 203.143 298.154 202.058 298.154ZM221.407 291.642C221.407 292.097 221.378 292.507 221.319 292.874H212.057C212.131 293.842 212.49 294.619 213.135 295.206C213.781 295.793 214.573 296.086 215.511 296.086C216.861 296.086 217.814 295.521 218.371 294.392H221.077C220.711 295.507 220.043 296.423 219.075 297.142C218.122 297.846 216.934 298.198 215.511 298.198C214.353 298.198 213.311 297.941 212.387 297.428C211.478 296.9 210.759 296.167 210.231 295.228C209.718 294.275 209.461 293.175 209.461 291.928C209.461 290.681 209.711 289.589 210.209 288.65C210.723 287.697 211.434 286.963 212.343 286.45C213.267 285.937 214.323 285.68 215.511 285.68C216.655 285.68 217.675 285.929 218.569 286.428C219.464 286.927 220.161 287.631 220.659 288.54C221.158 289.435 221.407 290.469 221.407 291.642ZM218.789 290.85C218.775 289.926 218.445 289.185 217.799 288.628C217.154 288.071 216.355 287.792 215.401 287.792C214.536 287.792 213.795 288.071 213.179 288.628C212.563 289.171 212.197 289.911 212.079 290.85H218.789ZM226.384 287.638C226.75 287.022 227.234 286.545 227.836 286.208C228.452 285.856 229.178 285.68 230.014 285.68V288.276H229.376C228.393 288.276 227.645 288.525 227.132 289.024C226.633 289.523 226.384 290.388 226.384 291.62V298H223.876V285.878H226.384V287.638ZM237.005 295.756L240.437 285.878H243.099L238.479 298H235.487L230.889 285.878H233.573L237.005 295.756ZM246.271 284.272C245.816 284.272 245.435 284.118 245.127 283.81C244.819 283.502 244.665 283.121 244.665 282.666C244.665 282.211 244.819 281.83 245.127 281.522C245.435 281.214 245.816 281.06 246.271 281.06C246.711 281.06 247.085 281.214 247.393 281.522C247.701 281.83 247.855 282.211 247.855 282.666C247.855 283.121 247.701 283.502 247.393 283.81C247.085 284.118 246.711 284.272 246.271 284.272ZM247.503 285.878V298H244.995V285.878H247.503ZM249.96 291.928C249.96 290.681 250.209 289.589 250.708 288.65C251.221 287.697 251.925 286.963 252.82 286.45C253.714 285.937 254.741 285.68 255.9 285.68C257.366 285.68 258.576 286.032 259.53 286.736C260.498 287.425 261.15 288.415 261.488 289.706H258.782C258.562 289.105 258.21 288.635 257.726 288.298C257.242 287.961 256.633 287.792 255.9 287.792C254.873 287.792 254.052 288.159 253.436 288.892C252.834 289.611 252.534 290.623 252.534 291.928C252.534 293.233 252.834 294.253 253.436 294.986C254.052 295.719 254.873 296.086 255.9 296.086C257.352 296.086 258.312 295.448 258.782 294.172H261.488C261.136 295.404 260.476 296.387 259.508 297.12C258.54 297.839 257.337 298.198 255.9 298.198C254.741 298.198 253.714 297.941 252.82 297.428C251.925 296.9 251.221 296.167 250.708 295.228C250.209 294.275 249.96 293.175 249.96 291.928ZM275.097 291.642C275.097 292.097 275.068 292.507 275.009 292.874H265.747C265.82 293.842 266.18 294.619 266.825 295.206C267.47 295.793 268.262 296.086 269.201 296.086C270.55 296.086 271.504 295.521 272.061 294.392H274.767C274.4 295.507 273.733 296.423 272.765 297.142C271.812 297.846 270.624 298.198 269.201 298.198C268.042 298.198 267.001 297.941 266.077 297.428C265.168 296.9 264.449 296.167 263.921 295.228C263.408 294.275 263.151 293.175 263.151 291.928C263.151 290.681 263.4 289.589 263.899 288.65C264.412 287.697 265.124 286.963 266.033 286.45C266.957 285.937 268.013 285.68 269.201 285.68C270.345 285.68 271.364 285.929 272.259 286.428C273.154 286.927 273.85 287.631 274.349 288.54C274.848 289.435 275.097 290.469 275.097 291.642ZM272.479 290.85C272.464 289.926 272.134 289.185 271.489 288.628C270.844 288.071 270.044 287.792 269.091 287.792C268.226 287.792 267.485 288.071 266.869 288.628C266.253 289.171 265.886 289.911 265.769 290.85H272.479ZM180.801 315.71V331H178.293V320.528L173.629 331H171.891L167.205 320.528V331H164.697V315.71H167.403L172.771 327.7L178.117 315.71H180.801ZM183.261 324.884C183.261 323.667 183.511 322.589 184.009 321.65C184.523 320.711 185.212 319.985 186.077 319.472C186.957 318.944 187.925 318.68 188.981 318.68C189.935 318.68 190.763 318.871 191.467 319.252C192.186 319.619 192.758 320.081 193.183 320.638V318.878H195.713V331H193.183V329.196C192.758 329.768 192.179 330.245 191.445 330.626C190.712 331.007 189.876 331.198 188.937 331.198C187.896 331.198 186.943 330.934 186.077 330.406C185.212 329.863 184.523 329.115 184.009 328.162C183.511 327.194 183.261 326.101 183.261 324.884ZM193.183 324.928C193.183 324.092 193.007 323.366 192.655 322.75C192.318 322.134 191.871 321.665 191.313 321.342C190.756 321.019 190.155 320.858 189.509 320.858C188.864 320.858 188.263 321.019 187.705 321.342C187.148 321.65 186.693 322.112 186.341 322.728C186.004 323.329 185.835 324.048 185.835 324.884C185.835 325.72 186.004 326.453 186.341 327.084C186.693 327.715 187.148 328.199 187.705 328.536C188.277 328.859 188.879 329.02 189.509 329.02C190.155 329.02 190.756 328.859 191.313 328.536C191.871 328.213 192.318 327.744 192.655 327.128C193.007 326.497 193.183 325.764 193.183 324.928ZM205.123 318.68C206.077 318.68 206.927 318.878 207.675 319.274C208.438 319.67 209.032 320.257 209.457 321.034C209.883 321.811 210.095 322.75 210.095 323.85V331H207.609V324.224C207.609 323.139 207.338 322.31 206.795 321.738C206.253 321.151 205.512 320.858 204.573 320.858C203.635 320.858 202.887 321.151 202.329 321.738C201.787 322.31 201.515 323.139 201.515 324.224V331H199.007V318.878H201.515V320.264C201.926 319.765 202.447 319.377 203.077 319.098C203.723 318.819 204.405 318.68 205.123 318.68ZM212.459 324.884C212.459 323.667 212.708 322.589 213.207 321.65C213.72 320.711 214.409 319.985 215.275 319.472C216.155 318.944 217.123 318.68 218.179 318.68C219.132 318.68 219.961 318.871 220.665 319.252C221.383 319.619 221.955 320.081 222.381 320.638V318.878H224.911V331H222.381V329.196C221.955 329.768 221.376 330.245 220.643 330.626C219.909 331.007 219.073 331.198 218.135 331.198C217.093 331.198 216.14 330.934 215.275 330.406C214.409 329.863 213.72 329.115 213.207 328.162C212.708 327.194 212.459 326.101 212.459 324.884ZM222.381 324.928C222.381 324.092 222.205 323.366 221.853 322.75C221.515 322.134 221.068 321.665 220.511 321.342C219.953 321.019 219.352 320.858 218.707 320.858C218.061 320.858 217.46 321.019 216.903 321.342C216.345 321.65 215.891 322.112 215.539 322.728C215.201 323.329 215.033 324.048 215.033 324.884C215.033 325.72 215.201 326.453 215.539 327.084C215.891 327.715 216.345 328.199 216.903 328.536C217.475 328.859 218.076 329.02 218.707 329.02C219.352 329.02 219.953 328.859 220.511 328.536C221.068 328.213 221.515 327.744 221.853 327.128C222.205 326.497 222.381 325.764 222.381 324.928ZM233.089 318.68C234.027 318.68 234.856 318.871 235.575 319.252C236.308 319.619 236.88 320.081 237.291 320.638V318.878H239.821V331.198C239.821 332.313 239.586 333.303 239.117 334.168C238.647 335.048 237.965 335.737 237.071 336.236C236.191 336.735 235.135 336.984 233.903 336.984C232.26 336.984 230.896 336.595 229.811 335.818C228.725 335.055 228.109 334.014 227.963 332.694H230.449C230.639 333.325 231.043 333.831 231.659 334.212C232.289 334.608 233.037 334.806 233.903 334.806C234.915 334.806 235.729 334.498 236.345 333.882C236.975 333.266 237.291 332.371 237.291 331.198V329.174C236.865 329.746 236.286 330.23 235.553 330.626C234.834 331.007 234.013 331.198 233.089 331.198C232.033 331.198 231.065 330.934 230.185 330.406C229.319 329.863 228.63 329.115 228.117 328.162C227.618 327.194 227.369 326.101 227.369 324.884C227.369 323.667 227.618 322.589 228.117 321.65C228.63 320.711 229.319 319.985 230.185 319.472C231.065 318.944 232.033 318.68 233.089 318.68ZM237.291 324.928C237.291 324.092 237.115 323.366 236.763 322.75C236.425 322.134 235.978 321.665 235.421 321.342C234.863 321.019 234.262 320.858 233.617 320.858C232.971 320.858 232.37 321.019 231.813 321.342C231.255 321.65 230.801 322.112 230.449 322.728C230.111 323.329 229.943 324.048 229.943 324.884C229.943 325.72 230.111 326.453 230.449 327.084C230.801 327.715 231.255 328.199 231.813 328.536C232.385 328.859 232.986 329.02 233.617 329.02C234.262 329.02 234.863 328.859 235.421 328.536C235.978 328.213 236.425 327.744 236.763 327.128C237.115 326.497 237.291 325.764 237.291 324.928ZM254.225 324.642C254.225 325.097 254.196 325.507 254.137 325.874H244.875C244.948 326.842 245.308 327.619 245.953 328.206C246.598 328.793 247.39 329.086 248.329 329.086C249.678 329.086 250.632 328.521 251.189 327.392H253.895C253.528 328.507 252.861 329.423 251.893 330.142C250.94 330.846 249.752 331.198 248.329 331.198C247.17 331.198 246.129 330.941 245.205 330.428C244.296 329.9 243.577 329.167 243.049 328.228C242.536 327.275 242.279 326.175 242.279 324.928C242.279 323.681 242.528 322.589 243.027 321.65C243.54 320.697 244.252 319.963 245.161 319.45C246.085 318.937 247.141 318.68 248.329 318.68C249.473 318.68 250.492 318.929 251.387 319.428C252.282 319.927 252.978 320.631 253.477 321.54C253.976 322.435 254.225 323.469 254.225 324.642ZM251.607 323.85C251.592 322.926 251.262 322.185 250.617 321.628C249.972 321.071 249.172 320.792 248.219 320.792C247.354 320.792 246.613 321.071 245.997 321.628C245.381 322.171 245.014 322.911 244.897 323.85H251.607ZM271.367 318.68C272.32 318.68 273.171 318.878 273.919 319.274C274.682 319.67 275.276 320.257 275.701 321.034C276.141 321.811 276.361 322.75 276.361 323.85V331H273.875V324.224C273.875 323.139 273.604 322.31 273.061 321.738C272.518 321.151 271.778 320.858 270.839 320.858C269.9 320.858 269.152 321.151 268.595 321.738C268.052 322.31 267.781 323.139 267.781 324.224V331H265.295V324.224C265.295 323.139 265.024 322.31 264.481 321.738C263.938 321.151 263.198 320.858 262.259 320.858C261.32 320.858 260.572 321.151 260.015 321.738C259.472 322.31 259.201 323.139 259.201 324.224V331H256.693V318.878H259.201V320.264C259.612 319.765 260.132 319.377 260.763 319.098C261.394 318.819 262.068 318.68 262.787 318.68C263.755 318.68 264.62 318.885 265.383 319.296C266.146 319.707 266.732 320.301 267.143 321.078C267.51 320.345 268.082 319.765 268.859 319.34C269.636 318.9 270.472 318.68 271.367 318.68ZM290.662 324.642C290.662 325.097 290.633 325.507 290.574 325.874H281.312C281.386 326.842 281.745 327.619 282.39 328.206C283.036 328.793 283.828 329.086 284.766 329.086C286.116 329.086 287.069 328.521 287.626 327.392H290.332C289.966 328.507 289.298 329.423 288.33 330.142C287.377 330.846 286.189 331.198 284.766 331.198C283.608 331.198 282.566 330.941 281.642 330.428C280.733 329.9 280.014 329.167 279.486 328.228C278.973 327.275 278.716 326.175 278.716 324.928C278.716 323.681 278.966 322.589 279.464 321.65C279.978 320.697 280.689 319.963 281.598 319.45C282.522 318.937 283.578 318.68 284.766 318.68C285.91 318.68 286.93 318.929 287.824 319.428C288.719 319.927 289.416 320.631 289.914 321.54C290.413 322.435 290.662 323.469 290.662 324.642ZM288.044 323.85C288.03 322.926 287.7 322.185 287.054 321.628C286.409 321.071 285.61 320.792 284.656 320.792C283.791 320.792 283.05 321.071 282.434 321.628C281.818 322.171 281.452 322.911 281.334 323.85H288.044ZM299.246 318.68C300.2 318.68 301.05 318.878 301.798 319.274C302.561 319.67 303.155 320.257 303.58 321.034C304.006 321.811 304.218 322.75 304.218 323.85V331H301.732V324.224C301.732 323.139 301.461 322.31 300.918 321.738C300.376 321.151 299.635 320.858 298.696 320.858C297.758 320.858 297.01 321.151 296.452 321.738C295.91 322.31 295.638 323.139 295.638 324.224V331H293.13V318.878H295.638V320.264C296.049 319.765 296.57 319.377 297.2 319.098C297.846 318.819 298.528 318.68 299.246 318.68ZM310.344 320.924V327.634C310.344 328.089 310.446 328.419 310.652 328.624C310.872 328.815 311.238 328.91 311.752 328.91H313.292V331H311.312C310.182 331 309.317 330.736 308.716 330.208C308.114 329.68 307.814 328.822 307.814 327.634V320.924H306.384V318.878H307.814V315.864H310.344V318.878H313.292V320.924H310.344Z" fill="#001237"/>
<g clip-path="url(#clip0_1187_36270)">
<path d="M306.966 257.486H295.705V257.571H306.966V257.486Z" fill="#EBEBEB"/>
<path d="M266.615 258.411H263.66V258.496H266.615V258.411Z" fill="#EBEBEB"/>
<path d="M295.365 254.332H288.841V254.417H295.365V254.332Z" fill="#EBEBEB"/>
<path d="M186.521 254.902H171.836V254.987H186.521V254.902Z" fill="#EBEBEB"/>
<path d="M191.703 254.902H189.55V254.987H191.703V254.902Z" fill="#EBEBEB"/>
<path d="M230.551 256.338H198.7V256.423H230.551V256.338Z" fill="#EBEBEB"/>
<path d="M235.056 236.852H169.402C168.887 236.852 168.393 236.648 168.029 236.284C167.665 235.919 167.461 235.426 167.461 234.911V142.625C167.465 142.113 167.672 141.623 168.035 141.263C168.399 140.902 168.89 140.7 169.402 140.7H235.056C235.311 140.7 235.563 140.75 235.799 140.848C236.034 140.946 236.248 141.089 236.429 141.269C236.609 141.449 236.752 141.663 236.85 141.899C236.947 142.134 236.997 142.387 236.997 142.642V234.911C236.997 235.166 236.947 235.418 236.85 235.654C236.752 235.889 236.609 236.103 236.429 236.284C236.248 236.464 236.034 236.607 235.799 236.704C235.563 236.802 235.311 236.852 235.056 236.852ZM169.402 140.768C168.91 140.769 168.438 140.965 168.09 141.313C167.742 141.661 167.546 142.133 167.546 142.625V234.911C167.546 235.403 167.742 235.875 168.09 236.222C168.438 236.57 168.91 236.766 169.402 236.767H235.056C235.548 236.766 236.02 236.57 236.368 236.222C236.716 235.875 236.911 235.403 236.912 234.911V142.625C236.911 142.133 236.716 141.661 236.368 141.313C236.02 140.965 235.548 140.769 235.056 140.768H169.402Z" fill="#EBEBEB"/>
<path d="M308.598 236.852H242.944C242.429 236.852 241.935 236.648 241.571 236.284C241.207 235.919 241.003 235.426 241.003 234.911V142.625C241.007 142.113 241.214 141.623 241.577 141.263C241.941 140.902 242.432 140.7 242.944 140.7H308.598C309.113 140.7 309.607 140.905 309.971 141.269C310.335 141.633 310.539 142.127 310.539 142.642V234.911C310.539 235.426 310.335 235.919 309.971 236.284C309.607 236.648 309.113 236.852 308.598 236.852ZM242.944 140.768C242.452 140.769 241.98 140.965 241.632 141.313C241.284 141.661 241.088 142.133 241.088 142.625V234.911C241.088 235.403 241.284 235.875 241.632 236.222C241.98 236.57 242.452 236.766 242.944 236.767H308.598C309.09 236.766 309.562 236.57 309.91 236.222C310.258 235.875 310.453 235.403 310.454 234.911V142.625C310.453 142.133 310.258 141.661 309.91 141.313C309.562 140.965 309.09 140.769 308.598 140.768H242.944Z" fill="#EBEBEB"/>
<path d="M324 252.017H154V252.102H324V252.017Z" fill="#EBEBEB"/>
<path d="M291.499 153.053H282.357C279.458 153.053 277.107 155.403 277.107 158.302V167.445C277.107 170.344 279.458 172.695 282.357 172.695H291.499C294.399 172.695 296.749 170.344 296.749 167.445V158.302C296.749 155.403 294.399 153.053 291.499 153.053Z" fill="#F0F0F0"/>
<path d="M289.371 160.097C289.371 161.77 288.521 163.123 286.848 163.123C285.175 163.123 284.325 161.763 284.325 160.097C284.325 158.431 285.175 157.067 286.848 157.067C288.521 157.067 289.371 158.424 289.371 160.097Z" fill="#FAFAFA"/>
<path d="M286.848 168.675H291.516V165.901C291.516 164.367 289.425 163.123 286.848 163.123C284.271 163.123 282.18 164.367 282.18 165.901V168.675H286.848Z" fill="#FAFAFA"/>
<path d="M205.507 159.639H199.121C197.097 159.639 195.456 161.28 195.456 163.304V169.689C195.456 171.713 197.097 173.354 199.121 173.354H205.507C207.531 173.354 209.172 171.713 209.172 169.689V163.304C209.172 161.28 207.531 159.639 205.507 159.639Z" fill="#E6E6E6"/>
<path d="M202.035 167.237C202.241 166.951 202.48 166.69 202.746 166.458C202.927 166.298 203.096 166.123 203.249 165.935C203.354 165.796 203.41 165.626 203.409 165.452C203.413 165.333 203.387 165.215 203.333 165.109C203.28 165.003 203.2 164.911 203.103 164.843C202.862 164.686 202.578 164.608 202.29 164.622C201.989 164.615 201.691 164.684 201.423 164.823C201.17 164.96 200.951 165.153 200.784 165.387L199.529 164.653C199.821 164.212 200.228 163.86 200.706 163.633C201.257 163.377 201.86 163.253 202.467 163.269C203.142 163.237 203.81 163.414 204.381 163.776C204.61 163.93 204.796 164.14 204.922 164.385C205.048 164.631 205.11 164.904 205.102 165.18C205.108 165.437 205.059 165.692 204.959 165.928C204.877 166.127 204.762 166.311 204.619 166.472C204.483 166.622 204.31 166.792 204.096 166.985C203.891 167.16 203.703 167.353 203.535 167.563C203.414 167.726 203.352 167.925 203.358 168.128H201.79C201.778 167.813 201.863 167.502 202.035 167.237ZM201.869 170.457C201.775 170.371 201.701 170.265 201.652 170.148C201.603 170.031 201.579 169.904 201.583 169.777C201.58 169.654 201.604 169.531 201.653 169.418C201.701 169.305 201.774 169.203 201.865 169.121C202.064 168.95 202.318 168.855 202.581 168.855C202.844 168.855 203.097 168.95 203.297 169.121C203.387 169.204 203.459 169.305 203.507 169.419C203.555 169.532 203.579 169.654 203.575 169.777C203.579 169.904 203.556 170.031 203.506 170.148C203.457 170.265 203.383 170.371 203.29 170.457C203.096 170.634 202.842 170.732 202.579 170.732C202.316 170.732 202.063 170.634 201.869 170.457Z" fill="#FAFAFA"/>
<path d="M290.558 206.589H295.498C296.251 206.589 296.973 206.888 297.505 207.42C298.038 207.953 298.337 208.675 298.337 209.428V214.368C298.337 215.12 298.038 215.841 297.506 216.373C296.974 216.905 296.253 217.204 295.501 217.204H290.558C289.806 217.204 289.084 216.905 288.553 216.373C288.021 215.841 287.722 215.12 287.722 214.368V209.428C287.722 208.676 288.021 207.955 288.553 207.423C289.084 206.891 289.806 206.592 290.558 206.592V206.589Z" fill="#EBEBEB"/>
<path d="M292.808 212.471C292.968 212.249 293.153 212.047 293.359 211.869C293.501 211.744 293.631 211.607 293.75 211.461C293.831 211.354 293.874 211.224 293.873 211.09C293.876 210.998 293.856 210.907 293.814 210.825C293.773 210.743 293.711 210.672 293.635 210.621C293.449 210.497 293.228 210.436 293.006 210.448C292.778 210.441 292.552 210.491 292.349 210.595C292.145 210.698 291.971 210.851 291.843 211.039L290.87 210.471C291.095 210.127 291.41 209.852 291.782 209.676C292.207 209.479 292.673 209.382 293.142 209.394C293.665 209.368 294.183 209.506 294.624 209.788C294.802 209.908 294.946 210.071 295.044 210.262C295.141 210.453 295.189 210.665 295.182 210.879C295.185 211.077 295.148 211.274 295.073 211.457C295.009 211.612 294.919 211.754 294.808 211.879C294.68 212.019 294.545 212.152 294.403 212.277C294.245 212.413 294.1 212.562 293.968 212.722C293.876 212.85 293.829 213.004 293.832 213.161H292.621C292.611 212.917 292.676 212.676 292.808 212.471ZM292.679 214.963C292.608 214.897 292.552 214.817 292.515 214.728C292.477 214.639 292.459 214.543 292.462 214.446C292.46 214.351 292.478 214.256 292.514 214.168C292.551 214.08 292.606 214.001 292.676 213.936C292.83 213.804 293.027 213.732 293.23 213.732C293.433 213.732 293.63 213.804 293.784 213.936C293.854 214.001 293.91 214.08 293.947 214.168C293.985 214.256 294.003 214.35 294.002 214.446C294.004 214.543 293.985 214.639 293.947 214.728C293.909 214.817 293.852 214.897 293.781 214.963C293.708 215.034 293.622 215.089 293.527 215.126C293.433 215.163 293.331 215.18 293.23 215.177C293.129 215.179 293.028 215.162 292.933 215.125C292.839 215.088 292.752 215.033 292.679 214.963Z" fill="#FAFAFA"/>
<path d="M193.817 180.208H187.432C185.408 180.208 183.767 181.849 183.767 183.873V190.258C183.767 192.283 185.408 193.924 187.432 193.924H193.817C195.842 193.924 197.483 192.283 197.483 190.258V183.873C197.483 181.849 195.842 180.208 193.817 180.208Z" fill="#EBEBEB"/>
<path d="M190.625 183.2C190.217 183.2 189.814 183.281 189.437 183.437C189.061 183.593 188.719 183.821 188.431 184.11C188.143 184.398 187.915 184.74 187.759 185.117C187.603 185.493 187.524 185.897 187.524 186.304C187.524 188.004 188.911 192.125 190.625 192.125C192.338 192.125 193.726 188.015 193.726 186.304C193.726 185.897 193.646 185.493 193.491 185.117C193.335 184.74 193.107 184.398 192.819 184.11C192.531 183.821 192.189 183.593 191.812 183.437C191.436 183.281 191.032 183.2 190.625 183.2ZM190.625 187.239C190.44 187.239 190.259 187.185 190.105 187.082C189.952 186.979 189.832 186.833 189.761 186.662C189.69 186.491 189.672 186.303 189.708 186.122C189.744 185.941 189.833 185.774 189.964 185.643C190.094 185.512 190.261 185.423 190.442 185.387C190.624 185.351 190.812 185.37 190.983 185.441C191.154 185.511 191.3 185.631 191.402 185.785C191.505 185.939 191.56 186.119 191.56 186.304C191.556 186.55 191.456 186.784 191.281 186.957C191.106 187.129 190.87 187.226 190.625 187.226V187.239Z" fill="#FAFAFA"/>
<path d="M191.995 205.789C192.095 205.16 192.095 204.518 191.995 203.889L191.04 203.763C190.963 203.412 190.849 203.07 190.7 202.743L191.4 202.08C191.109 201.513 190.731 200.995 190.281 200.543L189.431 201.006C189.169 200.768 188.881 200.558 188.575 200.38L188.751 199.431C188.187 199.141 187.58 198.941 186.953 198.84L186.541 199.707C186.368 199.69 186.201 199.68 186.011 199.68C185.821 199.68 185.651 199.68 185.477 199.707L185.066 198.84C184.436 198.939 183.825 199.138 183.257 199.428L183.434 200.377C183.127 200.554 182.84 200.764 182.577 201.002L181.727 200.54C181.277 200.991 180.9 201.51 180.608 202.077L181.309 202.74C181.16 203.067 181.046 203.409 180.969 203.76L180.017 203.885C179.913 204.515 179.913 205.157 180.017 205.786L180.969 205.912C181.046 206.263 181.16 206.605 181.309 206.932L180.608 207.595C180.899 208.162 181.276 208.681 181.727 209.132L182.577 208.669C182.84 208.907 183.127 209.117 183.434 209.295L183.257 210.243C183.825 210.534 184.436 210.732 185.066 210.832L185.477 209.965C185.651 209.982 185.817 209.992 186.011 209.992C186.205 209.992 186.351 209.992 186.541 209.965L186.953 210.832C187.583 210.732 188.194 210.534 188.762 210.243L188.585 209.295C188.892 209.117 189.179 208.907 189.442 208.669L190.292 209.132C190.742 208.68 191.119 208.162 191.41 207.595L190.72 206.925C190.869 206.598 190.982 206.256 191.06 205.905L191.995 205.789ZM186.011 206.956C185.592 206.956 185.182 206.833 184.833 206.6C184.484 206.368 184.212 206.037 184.051 205.65C183.891 205.262 183.848 204.836 183.93 204.425C184.012 204.014 184.213 203.636 184.51 203.34C184.806 203.043 185.184 202.841 185.595 202.76C186.006 202.678 186.433 202.72 186.82 202.881C187.207 203.042 187.538 203.314 187.77 203.663C188.003 204.012 188.126 204.422 188.126 204.841C188.125 205.401 187.902 205.939 187.505 206.335C187.109 206.732 186.572 206.955 186.011 206.956Z" fill="#EBEBEB"/>
<path d="M195.062 212.631C195.086 212.474 195.099 212.314 195.099 212.155C195.099 211.996 195.086 211.836 195.062 211.679L194.582 211.618C194.546 211.444 194.491 211.274 194.419 211.111L194.759 210.771C194.614 210.486 194.424 210.226 194.198 209.999L193.773 210.231C193.641 210.112 193.498 210.008 193.345 209.918L193.433 209.445C193.149 209.299 192.844 209.199 192.529 209.149L192.325 209.585C192.236 209.585 192.148 209.585 192.06 209.585C191.971 209.585 191.879 209.585 191.791 209.585L191.587 209.149C191.272 209.199 190.966 209.299 190.683 209.445L190.771 209.918C190.618 210.008 190.475 210.112 190.343 210.231L189.918 209.999C189.691 210.226 189.502 210.486 189.357 210.771L189.697 211.111C189.624 211.274 189.57 211.444 189.533 211.618L189.057 211.679C189.031 211.836 189.019 211.996 189.02 212.155C189.019 212.314 189.031 212.474 189.057 212.631L189.533 212.692C189.57 212.865 189.624 213.034 189.697 213.195L189.357 213.535C189.502 213.819 189.692 214.078 189.918 214.304L190.343 214.073C190.473 214.193 190.617 214.298 190.771 214.385L190.683 214.858C190.966 215.004 191.272 215.104 191.587 215.154L191.791 214.719C191.968 214.737 192.147 214.737 192.325 214.719L192.529 215.154C192.844 215.104 193.149 215.004 193.433 214.858L193.345 214.385C193.499 214.298 193.643 214.193 193.773 214.073L194.198 214.304C194.424 214.078 194.613 213.819 194.759 213.535L194.419 213.195C194.491 213.034 194.546 212.865 194.582 212.692L195.062 212.631ZM192.07 213.212C191.861 213.212 191.656 213.15 191.482 213.034C191.308 212.918 191.173 212.753 191.093 212.56C191.013 212.366 190.992 212.154 191.033 211.949C191.074 211.744 191.174 211.555 191.322 211.407C191.47 211.259 191.658 211.159 191.864 211.118C192.069 211.077 192.281 211.098 192.474 211.178C192.668 211.258 192.833 211.394 192.949 211.568C193.065 211.741 193.127 211.946 193.127 212.155C193.126 212.433 193.016 212.7 192.82 212.898C192.624 213.096 192.358 213.209 192.08 213.212H192.07Z" fill="#E0E0E0"/>
<path d="M300.112 205.769C300.24 205.675 300.361 205.571 300.475 205.46C300.588 205.347 300.691 205.225 300.785 205.096L300.492 204.715C300.589 204.567 300.669 204.409 300.73 204.243H301.213C301.312 203.94 301.363 203.623 301.363 203.304L300.897 203.168C300.89 202.991 300.863 202.816 300.815 202.645L301.213 202.373C301.117 202.069 300.971 201.783 300.781 201.526L300.329 201.686C300.274 201.617 300.215 201.551 300.152 201.489C300.088 201.424 300.023 201.366 299.955 201.309L300.115 200.856C299.857 200.67 299.571 200.524 299.268 200.425L298.996 200.822C298.824 200.778 298.647 200.751 298.469 200.741L298.333 200.278C298.015 200.277 297.698 200.328 297.395 200.428V200.907C297.23 200.971 297.071 201.052 296.922 201.149L296.538 200.856C296.278 201.047 296.048 201.276 295.858 201.536L296.151 201.917C296.055 202.068 295.974 202.227 295.909 202.393H295.43C295.331 202.696 295.281 203.013 295.28 203.332L295.743 203.468C295.753 203.644 295.78 203.82 295.824 203.991L295.426 204.267C295.526 204.569 295.672 204.855 295.858 205.113L296.31 204.95C296.368 205.018 296.426 205.086 296.491 205.151C296.555 205.215 296.62 205.273 296.688 205.327L296.528 205.78C296.784 205.969 297.071 206.115 297.375 206.211L297.647 205.814C297.817 205.861 297.993 205.888 298.17 205.895L298.306 206.361C298.626 206.361 298.944 206.31 299.248 206.211V205.729C299.413 205.666 299.572 205.586 299.721 205.491L300.112 205.769ZM297.585 204.069C297.438 203.921 297.337 203.733 297.296 203.528C297.256 203.323 297.277 203.11 297.357 202.917C297.437 202.724 297.572 202.559 297.746 202.443C297.92 202.327 298.124 202.265 298.333 202.265C298.543 202.265 298.747 202.327 298.921 202.443C299.095 202.559 299.23 202.724 299.31 202.917C299.39 203.11 299.411 203.323 299.371 203.528C299.33 203.733 299.229 203.921 299.081 204.069C298.983 204.168 298.867 204.246 298.738 204.299C298.61 204.352 298.472 204.379 298.333 204.379C298.194 204.379 298.056 204.351 297.928 204.297C297.8 204.243 297.683 204.165 297.585 204.066V204.069Z" fill="#F0F0F0"/>
<path d="M239 266.062C275.408 266.062 304.923 264.339 304.923 262.213C304.923 260.087 275.408 258.364 239 258.364C202.592 258.364 173.077 260.087 173.077 262.213C173.077 264.339 202.592 266.062 239 266.062Z" fill="#F5F5F5"/>
<path d="M251.09 160.678V155.381L253.695 155.014V160.311L251.09 160.678Z" fill="#263238"/>
<path d="M242.431 163.63L240.479 160.522L242.142 159.332L244.09 162.436L242.431 163.63Z" fill="#263238"/>
<path d="M260.692 160.1L262.644 156.448L264.303 157.172L262.355 160.827L260.692 160.1Z" fill="#263238"/>
<g opacity="0.5">
<path d="M251.09 160.678V155.381L253.695 155.014V160.311L251.09 160.678Z" fill="white"/>
<path d="M242.431 163.63L240.479 160.522L242.142 159.332L244.09 162.436L242.431 163.63Z" fill="white"/>
<path d="M260.692 160.1L262.644 156.448L264.303 157.172L262.355 160.827L260.692 160.1Z" fill="white"/>
</g>
<path d="M254.065 155.867L250.72 156.34C250.598 156.362 250.473 156.357 250.354 156.325C250.235 156.293 250.124 156.234 250.031 156.154C249.937 156.073 249.863 155.972 249.813 155.859C249.764 155.746 249.74 155.623 249.744 155.5C249.752 155.23 249.853 154.971 250.032 154.768C250.21 154.565 250.453 154.431 250.72 154.388L254.065 153.919C254.187 153.897 254.311 153.902 254.43 153.934C254.549 153.966 254.66 154.024 254.753 154.104C254.847 154.184 254.921 154.284 254.971 154.397C255.021 154.51 255.045 154.632 255.041 154.755C255.033 155.025 254.931 155.284 254.753 155.486C254.575 155.689 254.332 155.824 254.065 155.867Z" fill="#263238"/>
<path d="M242.682 159.247L240.204 161.028C240.152 161.071 240.092 161.103 240.028 161.122C239.963 161.141 239.896 161.147 239.829 161.139C239.762 161.13 239.698 161.108 239.64 161.074C239.583 161.04 239.532 160.994 239.493 160.94C239.428 160.815 239.411 160.671 239.446 160.534C239.481 160.398 239.566 160.28 239.683 160.202L242.165 158.424C242.216 158.38 242.276 158.348 242.34 158.329C242.404 158.31 242.472 158.304 242.539 158.312C242.605 158.321 242.669 158.343 242.727 158.377C242.784 158.412 242.834 158.458 242.873 158.512C242.938 158.637 242.954 158.781 242.919 158.916C242.884 159.052 242.8 159.17 242.682 159.247Z" fill="#263238"/>
<path d="M264.582 157.602L262.1 156.52C262.04 156.49 261.988 156.448 261.946 156.397C261.904 156.346 261.873 156.286 261.855 156.222C261.837 156.158 261.833 156.091 261.842 156.026C261.851 155.96 261.874 155.897 261.909 155.84C261.971 155.713 262.078 155.613 262.209 155.56C262.34 155.507 262.487 155.504 262.62 155.551L265.098 156.636C265.158 156.665 265.211 156.707 265.254 156.758C265.297 156.809 265.328 156.869 265.346 156.933C265.364 156.997 265.368 157.065 265.358 157.131C265.349 157.197 265.325 157.26 265.289 157.316C265.227 157.442 265.12 157.541 264.99 157.594C264.859 157.647 264.714 157.649 264.582 157.602Z" fill="#263238"/>
<path opacity="0.7" d="M254.065 155.867L250.72 156.34C250.598 156.362 250.473 156.357 250.354 156.325C250.235 156.293 250.124 156.234 250.031 156.154C249.937 156.073 249.863 155.972 249.813 155.859C249.764 155.746 249.74 155.623 249.744 155.5C249.752 155.23 249.853 154.971 250.032 154.768C250.21 154.565 250.453 154.431 250.72 154.388L254.065 153.919C254.187 153.897 254.311 153.902 254.43 153.934C254.549 153.966 254.66 154.024 254.753 154.104C254.847 154.184 254.921 154.284 254.971 154.397C255.021 154.51 255.045 154.632 255.041 154.755C255.033 155.025 254.931 155.284 254.753 155.486C254.575 155.689 254.332 155.824 254.065 155.867Z" fill="white"/>
<path opacity="0.7" d="M242.682 159.247L240.204 161.028C240.152 161.071 240.092 161.103 240.028 161.122C239.963 161.141 239.896 161.147 239.829 161.139C239.762 161.13 239.698 161.108 239.64 161.074C239.583 161.04 239.532 160.994 239.493 160.94C239.428 160.815 239.411 160.671 239.446 160.534C239.481 160.398 239.566 160.28 239.683 160.202L242.165 158.424C242.216 158.38 242.276 158.348 242.34 158.329C242.404 158.31 242.472 158.304 242.539 158.312C242.605 158.321 242.669 158.343 242.727 158.377C242.784 158.412 242.834 158.458 242.873 158.512C242.938 158.637 242.954 158.781 242.919 158.916C242.884 159.052 242.8 159.17 242.682 159.247Z" fill="white"/>
<path opacity="0.7" d="M264.582 157.602L262.1 156.52C262.04 156.49 261.988 156.448 261.946 156.397C261.904 156.346 261.873 156.286 261.855 156.222C261.837 156.158 261.833 156.091 261.842 156.026C261.851 155.96 261.874 155.897 261.909 155.84C261.971 155.713 262.078 155.613 262.209 155.56C262.34 155.507 262.487 155.504 262.62 155.551L265.098 156.636C265.158 156.665 265.211 156.707 265.254 156.758C265.297 156.809 265.328 156.869 265.346 156.933C265.364 156.997 265.368 157.065 265.358 157.131C265.349 157.197 265.325 157.26 265.289 157.316C265.227 157.442 265.12 157.541 264.99 157.594C264.859 157.647 264.714 157.649 264.582 157.602Z" fill="white"/>
<path d="M252.393 193.842C243.338 195.114 235.998 188.807 235.998 179.752C235.998 170.698 243.338 162.324 252.393 161.052C261.447 159.781 268.787 166.088 268.787 175.142L271.025 174.829C271.025 164.537 262.681 157.37 252.393 158.815C242.104 160.26 233.761 169.777 233.761 180.065C233.761 190.354 242.101 197.524 252.393 196.079V193.842Z" fill="#212121"/>
<path d="M245.878 189.06L244.655 191.352L245.135 191.608L246.358 189.316L245.878 189.06Z" fill="#263238"/>
<path d="M259.644 163.283L258.421 165.574L258.9 165.83L260.124 163.539L259.644 163.283Z" fill="#263238"/>
<path d="M239.516 171.521L239.298 172.02L241.417 172.945L241.634 172.446L239.516 171.521Z" fill="#263238"/>
<path d="M245.339 165.703L244.876 165.991L246.096 167.948L246.559 167.659L245.339 165.703Z" fill="#263238"/>
<path d="M241.373 185.03L239.251 186.553L239.568 186.995L241.69 185.472L241.373 185.03Z" fill="#263238"/>
<path d="M265.215 167.908L263.094 169.431L263.411 169.873L265.533 168.35L265.215 167.908Z" fill="#263238"/>
<path d="M240.592 178.556L237.329 179.015L237.48 180.092L240.743 179.634L240.592 178.556Z" fill="#263238"/>
<path d="M252.937 162.46H251.849V165.724H252.937V162.46Z" fill="#263238"/>
<path d="M252.937 189.17H251.849V192.434H252.937V189.17Z" fill="#263238"/>
<path d="M248.18 173.911C248.053 174.038 247.982 174.211 247.982 174.39C247.982 174.57 248.053 174.742 248.18 174.87L251.832 178.005L252.787 176.913L249.139 173.775C249.067 173.72 248.985 173.681 248.898 173.658C248.811 173.635 248.72 173.63 248.631 173.642C248.542 173.655 248.456 173.685 248.379 173.731C248.301 173.778 248.234 173.839 248.18 173.911Z" fill="#212121"/>
<path opacity="0.4" d="M248.18 173.911C248.053 174.038 247.982 174.211 247.982 174.39C247.982 174.57 248.053 174.742 248.18 174.87L251.832 178.005L252.787 176.913L249.139 173.775C249.067 173.72 248.985 173.681 248.898 173.658C248.811 173.635 248.72 173.63 248.631 173.642C248.542 173.655 248.456 173.685 248.379 173.731C248.301 173.778 248.234 173.839 248.18 173.911Z" fill="white"/>
<path d="M272.619 174.333L269.896 177.981L267.176 175.098L272.619 174.333Z" fill="#212121"/>
<path d="M258.604 170.259C258.533 170.205 258.451 170.165 258.364 170.142C258.277 170.119 258.186 170.114 258.097 170.127C258.007 170.14 257.922 170.17 257.844 170.216C257.767 170.262 257.699 170.323 257.646 170.395L252.702 176.033C252.437 175.999 252.168 176.032 251.919 176.129C251.671 176.226 251.45 176.383 251.277 176.587C250.72 177.226 250.72 178.134 251.277 178.627C251.835 179.12 252.746 178.967 253.317 178.341C253.494 178.145 253.617 177.907 253.677 177.651C253.736 177.394 253.729 177.126 253.657 176.872L258.601 171.232C258.666 171.169 258.718 171.093 258.753 171.01C258.789 170.927 258.807 170.837 258.807 170.746C258.808 170.656 258.79 170.566 258.755 170.482C258.72 170.399 258.669 170.323 258.604 170.259Z" fill="#212121"/>
<path d="M220.8 171.12C217.165 171.12 214.221 173.266 214.221 175.911C214.221 177.832 215.781 179.488 218.029 180.249C217.788 181.352 217.374 182.41 216.801 183.384C217.617 183.263 218.394 182.957 219.075 182.491C219.755 182.026 220.32 181.411 220.728 180.695H220.8C224.434 180.695 227.379 178.553 227.379 175.907C227.379 173.262 224.434 171.12 220.8 171.12Z" fill="#212121"/>
<path opacity="0.7" d="M220.8 171.12C217.165 171.12 214.221 173.266 214.221 175.911C214.221 177.832 215.781 179.488 218.029 180.249C217.788 181.352 217.374 182.41 216.801 183.384C217.617 183.263 218.394 182.957 219.075 182.491C219.755 182.026 220.32 181.411 220.728 180.695H220.8C224.434 180.695 227.379 178.553 227.379 175.907C227.379 173.262 224.434 171.12 220.8 171.12Z" fill="white"/>
<path d="M217.9 176.832C218.27 176.832 218.569 176.532 218.569 176.162C218.569 175.792 218.27 175.492 217.9 175.492C217.53 175.492 217.23 175.792 217.23 176.162C217.23 176.532 217.53 176.832 217.9 176.832Z" fill="#263238"/>
<path d="M221.425 176.162C221.425 176.297 221.386 176.428 221.311 176.54C221.236 176.652 221.13 176.739 221.006 176.791C220.881 176.842 220.745 176.856 220.613 176.829C220.481 176.803 220.36 176.738 220.265 176.643C220.169 176.548 220.105 176.427 220.078 176.295C220.052 176.163 220.066 176.026 220.117 175.902C220.169 175.778 220.256 175.672 220.368 175.597C220.479 175.522 220.611 175.482 220.745 175.482C220.926 175.482 221.099 175.554 221.226 175.682C221.354 175.809 221.425 175.982 221.425 176.162Z" fill="#263238"/>
<path d="M223.612 176.832C223.981 176.832 224.281 176.532 224.281 176.162C224.281 175.792 223.981 175.492 223.612 175.492C223.242 175.492 222.942 175.792 222.942 176.162C222.942 176.532 223.242 176.832 223.612 176.832Z" fill="#263238"/>
<path d="M280.48 244.417C280.48 244.417 280.524 239.878 278.872 240.476C277.219 241.075 280.48 244.417 280.48 244.417Z" fill="#212121"/>
<path d="M282.255 240.214C282.255 240.214 284.444 236.583 282.466 236.063C280.487 235.543 282.255 240.214 282.255 240.214Z" fill="#212121"/>
<path d="M290.908 237.651C290.908 237.651 295.454 237.416 294.427 235.713C293.4 234.009 290.908 237.651 290.908 237.651Z" fill="#212121"/>
<path d="M283.717 238.858C283.717 238.858 288.477 237.784 287.586 240.456C286.695 243.128 283.717 238.858 283.717 238.858Z" fill="#212121"/>
<path d="M280.259 248.52C280.259 248.52 278.44 244.4 277.42 245.865C276.4 247.33 280.259 248.52 280.259 248.52Z" fill="#212121"/>
<path d="M285.447 238.001C285.447 238.001 290.296 236.729 288.786 234.941C287.277 233.153 285.447 238.001 285.447 238.001Z" fill="#212121"/>
<path d="M289.113 237.501C289.113 237.501 292.948 239.385 291.18 240.615C289.412 241.846 289.113 237.501 289.113 237.501Z" fill="#212121"/>
<path d="M280.959 242.591C280.959 242.591 283.615 239.395 284.434 241.717C285.254 244.039 280.959 242.591 280.959 242.591Z" fill="#212121"/>
<g opacity="0.4">
<path d="M280.259 248.52C280.259 248.52 278.44 244.4 277.42 245.865C276.4 247.33 280.259 248.52 280.259 248.52Z" fill="white"/>
<path d="M285.447 238.001C285.447 238.001 290.296 236.729 288.786 234.941C287.277 233.153 285.447 238.001 285.447 238.001Z" fill="white"/>
<path d="M289.113 237.501C289.113 237.501 292.948 239.385 291.18 240.615C289.412 241.846 289.113 237.501 289.113 237.501Z" fill="white"/>
<path d="M280.959 242.591C280.959 242.591 283.615 239.395 284.434 241.717C285.254 244.039 280.959 242.591 280.959 242.591Z" fill="white"/>
</g>
<path d="M280.232 246.739C280.232 246.739 282.136 242.659 283.669 244.716C285.203 246.773 280.232 246.739 280.232 246.739Z" fill="#212121"/>
<path d="M280.262 251.03C279.685 248.371 279.768 245.612 280.504 242.992C282.061 237.892 286.838 236.692 291.666 237.464C292.05 237.525 291.88 238.103 291.499 238.042C288.936 237.634 286.059 237.593 283.826 239.143C282.228 240.262 281.323 242.04 280.888 243.903C280.378 246.201 280.365 248.581 280.851 250.884C280.929 251.264 280.344 251.414 280.262 251.033V251.03Z" fill="#212121"/>
<g opacity="0.3">
<path d="M280.262 251.03C279.685 248.371 279.768 245.612 280.504 242.992C282.061 237.892 286.838 236.692 291.666 237.464C292.05 237.525 291.88 238.103 291.499 238.042C288.936 237.634 286.059 237.593 283.826 239.143C282.228 240.262 281.323 242.04 280.888 243.903C280.378 246.201 280.365 248.581 280.851 250.884C280.929 251.264 280.344 251.414 280.262 251.033V251.03Z" fill="black"/>
</g>
<path d="M276.478 243.04C276.478 243.04 274.098 237.491 272.555 238.939C271.011 240.388 276.478 243.04 276.478 243.04Z" fill="#212121"/>
<path d="M276.274 237.138C276.274 237.138 276.839 231.762 274.309 231.994C271.779 232.225 276.274 237.138 276.274 237.138Z" fill="#212121"/>
<path d="M284.771 230.242C284.771 230.242 289.82 227.975 287.746 226.349C285.672 224.724 284.771 230.242 284.771 230.242Z" fill="#212121"/>
<path d="M277.219 234.849C277.219 234.849 282.078 231.449 282.476 235.108C282.874 238.766 277.219 234.849 277.219 234.849Z" fill="#212121"/>
<path d="M278.416 248.119C278.416 248.119 274.136 243.91 273.751 246.134C273.367 248.357 278.416 248.119 278.416 248.119Z" fill="#212121"/>
<path d="M278.732 233.051C278.732 233.051 283.581 229.386 280.908 227.866C278.236 226.346 278.732 233.051 278.732 233.051Z" fill="#212121"/>
<path d="M282.646 230.844C282.646 230.844 288.014 231.466 286.651 233.734C285.288 236.002 282.646 230.844 282.646 230.844Z" fill="#212121"/>
<path d="M276.06 240.595C276.06 240.595 277.386 235.546 279.555 238.018C281.724 240.49 276.06 240.595 276.06 240.595Z" fill="#212121"/>
<g opacity="0.4">
<path d="M278.416 248.119C278.416 248.119 274.136 243.91 273.751 246.134C273.367 248.357 278.416 248.119 278.416 248.119Z" fill="white"/>
<path d="M278.732 233.051C278.732 233.051 283.581 229.386 280.908 227.866C278.236 226.346 278.732 233.051 278.732 233.051Z" fill="white"/>
<path d="M282.646 230.844C282.646 230.844 288.014 231.466 286.651 233.734C285.288 236.002 282.646 230.844 282.646 230.844Z" fill="white"/>
<path d="M276.06 240.595C276.06 240.595 277.386 235.546 279.555 238.018C281.724 240.49 276.06 240.595 276.06 240.595Z" fill="white"/>
</g>
<path d="M277.44 245.964C277.44 245.964 277.44 240.16 280.276 242C283.112 243.839 277.44 245.964 277.44 245.964Z" fill="#212121"/>
<path d="M279.749 251.173C277.757 248.259 276.22 244.713 275.757 241.286C274.826 234.404 279.62 230.851 285.532 229.681C286.002 229.59 286.114 230.361 285.651 230.463C282.513 231.082 279.191 232.296 277.491 235.152C276.264 237.209 276.176 239.769 276.669 242.224C277.325 245.269 278.57 248.157 280.334 250.724C280.362 250.763 280.383 250.807 280.395 250.854C280.406 250.901 280.408 250.949 280.401 250.997C280.394 251.045 280.377 251.09 280.352 251.132C280.327 251.173 280.294 251.209 280.256 251.237C280.217 251.266 280.173 251.287 280.126 251.298C280.079 251.31 280.03 251.312 279.983 251.305C279.935 251.297 279.889 251.281 279.848 251.256C279.807 251.231 279.771 251.198 279.742 251.159L279.749 251.173Z" fill="#212121"/>
<g opacity="0.3">
<path d="M279.749 251.173C277.757 248.259 276.22 244.713 275.757 241.286C274.826 234.404 279.62 230.851 285.532 229.681C286.002 229.59 286.114 230.361 285.651 230.463C282.513 231.082 279.191 232.296 277.491 235.152C276.264 237.209 276.176 239.769 276.669 242.224C277.325 245.269 278.57 248.157 280.334 250.724C280.362 250.763 280.383 250.807 280.395 250.854C280.406 250.901 280.408 250.949 280.401 250.997C280.394 251.045 280.377 251.09 280.352 251.132C280.327 251.173 280.294 251.209 280.256 251.237C280.217 251.266 280.173 251.287 280.126 251.298C280.079 251.31 280.03 251.312 279.983 251.305C279.935 251.297 279.889 251.281 279.848 251.256C279.807 251.231 279.771 251.198 279.742 251.159L279.749 251.173Z" fill="black"/>
</g>
<path d="M275.914 244.499C275.914 244.499 277.043 240.735 278.253 241.653C279.463 242.571 275.914 244.499 275.914 244.499Z" fill="#212121"/>
<path d="M275.519 240.568C275.519 240.568 274.646 237.002 276.414 237.083C278.182 237.165 275.519 240.568 275.519 240.568Z" fill="#212121"/>
<path d="M269.029 236.24C269.029 236.24 265.333 234.88 266.622 233.734C267.91 232.588 269.029 236.24 269.029 236.24Z" fill="#212121"/>
<path d="M274.663 239.069C274.663 239.069 270.997 236.957 271.055 239.409C271.113 241.86 274.663 239.069 274.663 239.069Z" fill="#212121"/>
<path d="M275.04 247.943C275.04 247.943 277.617 245.016 278.083 246.485C278.549 247.953 275.04 247.943 275.04 247.943Z" fill="#212121"/>
<path d="M273.452 237.916C273.452 237.916 269.773 235.618 271.48 234.516C273.187 233.415 273.452 237.916 273.452 237.916Z" fill="#212121"/>
<path d="M270.549 236.58C270.549 236.58 266.897 237.151 268.043 238.62C269.189 240.089 270.549 236.58 270.549 236.58Z" fill="#212121"/>
<path d="M275.982 242.863C275.982 242.863 274.622 239.538 273.333 241.248C272.045 242.958 275.982 242.863 275.982 242.863Z" fill="#212121"/>
<g opacity="0.4">
<path d="M275.04 247.943C275.04 247.943 277.617 245.016 278.083 246.485C278.549 247.953 275.04 247.943 275.04 247.943Z" fill="white"/>
<path d="M273.452 237.916C273.452 237.916 269.773 235.618 271.48 234.516C273.187 233.415 273.452 237.916 273.452 237.916Z" fill="white"/>
<path d="M270.549 236.58C270.549 236.58 266.897 237.151 268.043 238.62C269.189 240.089 270.549 236.58 270.549 236.58Z" fill="white"/>
<path d="M275.982 242.864C275.982 242.864 274.622 239.539 273.333 241.249C272.045 242.959 275.982 242.864 275.982 242.864Z" fill="white"/>
</g>
<path d="M275.513 246.478C275.513 246.478 274.992 242.612 273.194 243.921C271.395 245.23 275.513 246.478 275.513 246.478Z" fill="#212121"/>
<path d="M274.387 250.014C275.548 247.966 276.188 245.665 276.25 243.312C276.274 238.702 272.64 236.478 268.451 235.873C268.111 235.826 268.111 236.349 268.451 236.397C270.674 236.716 273.071 237.417 274.506 239.28C275.526 240.613 275.832 242.316 275.713 243.965C275.544 245.996 274.942 247.966 273.949 249.745C273.785 250.038 274.231 250.313 274.397 250.017L274.387 250.014Z" fill="#212121"/>
<g opacity="0.3">
<path d="M274.387 250.014C275.548 247.966 276.188 245.665 276.25 243.312C276.274 238.702 272.64 236.478 268.451 235.873C268.111 235.826 268.111 236.349 268.451 236.397C270.674 236.716 273.071 237.417 274.506 239.28C275.526 240.613 275.832 242.316 275.713 243.965C275.544 245.996 274.942 247.966 273.949 249.745C273.785 250.038 274.231 250.313 274.397 250.017L274.387 250.014Z" fill="black"/>
</g>
<path d="M284.968 249.058L283.652 258.982C283.57 259.599 283.266 260.166 282.798 260.576C282.33 260.986 281.728 261.212 281.106 261.213H272.922C272.299 261.212 271.698 260.986 271.229 260.576C270.761 260.166 270.458 259.599 270.375 258.982L269.059 249.058H284.968Z" fill="#212121"/>
<path opacity="0.3" d="M284.968 249.058L283.652 258.982C283.57 259.599 283.266 260.166 282.798 260.576C282.33 260.986 281.728 261.212 281.106 261.213H272.922C272.299 261.212 271.698 260.986 271.229 260.576C270.761 260.166 270.458 259.599 270.375 258.982L269.059 249.058H284.968Z" fill="white"/>
<path d="M211.076 229.994H208.842V244.675H211.076V229.994Z" fill="#263238"/>
<path opacity="0.5" d="M211.076 229.994H208.842V244.675H211.076V229.994Z" fill="white"/>
<path d="M216.747 255.671L211.514 254.726V244.22C211.515 244.143 211.5 244.066 211.471 243.994C211.441 243.923 211.398 243.858 211.343 243.803C211.288 243.748 211.223 243.705 211.152 243.676C211.08 243.646 211.004 243.631 210.926 243.632H208.992C208.914 243.631 208.837 243.646 208.765 243.676C208.694 243.705 208.628 243.748 208.573 243.803C208.519 243.858 208.475 243.923 208.445 243.994C208.415 244.066 208.4 244.143 208.4 244.22V254.726L203.171 255.671C202.804 255.737 202.471 255.929 202.232 256.215C201.993 256.501 201.862 256.862 201.862 257.235L209.957 256.504L218.056 257.235C218.056 256.863 217.924 256.502 217.685 256.216C217.446 255.93 217.114 255.737 216.747 255.671Z" fill="#263238"/>
<path d="M203.562 258.823C203.562 259.159 203.462 259.488 203.275 259.768C203.089 260.047 202.823 260.265 202.512 260.394C202.202 260.522 201.86 260.556 201.53 260.49C201.2 260.425 200.898 260.263 200.66 260.025C200.422 259.787 200.26 259.484 200.195 259.155C200.129 258.825 200.163 258.483 200.291 258.172C200.42 257.862 200.638 257.596 200.917 257.41C201.197 257.223 201.526 257.123 201.862 257.123C202.313 257.123 202.745 257.302 203.064 257.621C203.383 257.94 203.562 258.372 203.562 258.823Z" fill="#212121"/>
<path d="M219.756 258.823C219.756 259.159 219.656 259.488 219.47 259.768C219.283 260.047 219.017 260.265 218.707 260.394C218.396 260.522 218.054 260.556 217.724 260.49C217.395 260.425 217.092 260.263 216.854 260.025C216.616 259.787 216.454 259.484 216.389 259.155C216.323 258.825 216.357 258.483 216.485 258.172C216.614 257.862 216.832 257.596 217.112 257.41C217.391 257.223 217.72 257.123 218.056 257.123C218.279 257.123 218.5 257.167 218.707 257.252C218.913 257.338 219.1 257.463 219.258 257.621C219.416 257.779 219.541 257.966 219.627 258.172C219.712 258.379 219.756 258.6 219.756 258.823Z" fill="#212121"/>
<path d="M211.287 258.823C211.287 259.761 210.899 260.523 209.957 260.523C209.015 260.523 208.631 259.761 208.631 258.823C208.631 257.885 209.019 257.123 209.957 257.123C210.896 257.123 211.287 257.885 211.287 258.823Z" fill="#212121"/>
<g opacity="0.5">
<path d="M211.565 254.733V256.651L212.198 256.709V254.849L211.565 254.733Z" fill="black"/>
<path d="M207.734 254.846V256.705L208.366 256.651V254.733L207.734 254.846Z" fill="black"/>
</g>
<path d="M195.375 216.622C195.234 216.622 195.095 216.653 194.967 216.713C194.839 216.773 194.727 216.86 194.636 216.969C194.546 217.077 194.481 217.204 194.445 217.34C194.409 217.477 194.404 217.619 194.429 217.758L196.503 228.933C196.597 229.441 196.866 229.9 197.263 230.231C197.66 230.561 198.16 230.742 198.676 230.742H231.36C231.553 230.742 231.744 230.704 231.922 230.63C232.1 230.557 232.262 230.448 232.398 230.312C232.534 230.175 232.642 230.013 232.715 229.835C232.789 229.657 232.826 229.466 232.826 229.273C232.826 228.721 232.606 228.191 232.215 227.8C231.824 227.409 231.294 227.189 230.741 227.189H212.092C211.598 227.189 211.118 227.024 210.729 226.72C210.339 226.415 210.063 225.989 209.944 225.51L208.274 218.771C208.122 218.158 207.77 217.613 207.273 217.224C206.775 216.834 206.162 216.623 205.53 216.622H195.375Z" fill="#263238"/>
<path d="M199.788 225.51L198.118 218.771C197.967 218.158 197.614 217.613 197.117 217.224C196.62 216.834 196.006 216.623 195.375 216.622C195.234 216.622 195.095 216.653 194.967 216.713C194.839 216.773 194.727 216.86 194.636 216.969C194.546 217.077 194.481 217.204 194.445 217.34C194.409 217.477 194.404 217.619 194.429 217.758L196.503 228.933C196.597 229.441 196.866 229.9 197.263 230.231C197.66 230.561 198.16 230.742 198.676 230.742H221.201C221.394 230.743 221.585 230.705 221.764 230.631C221.942 230.558 222.104 230.45 222.241 230.313C222.377 230.177 222.485 230.014 222.559 229.836C222.633 229.658 222.67 229.466 222.67 229.273C222.669 228.721 222.449 228.191 222.058 227.801C221.668 227.41 221.138 227.19 220.586 227.189H201.94C201.445 227.191 200.964 227.026 200.574 226.722C200.183 226.417 199.907 225.99 199.788 225.51Z" fill="#263238"/>
<path opacity="0.2" d="M199.788 225.51L198.118 218.771C197.967 218.158 197.614 217.613 197.117 217.224C196.62 216.834 196.006 216.623 195.375 216.622C195.234 216.622 195.095 216.653 194.967 216.713C194.839 216.773 194.727 216.86 194.636 216.969C194.546 217.077 194.481 217.204 194.445 217.34C194.409 217.477 194.404 217.619 194.429 217.758L196.503 228.933C196.597 229.441 196.866 229.9 197.263 230.231C197.66 230.561 198.16 230.742 198.676 230.742H221.201C221.394 230.743 221.585 230.705 221.764 230.631C221.942 230.558 222.104 230.45 222.241 230.313C222.377 230.177 222.485 230.014 222.559 229.836C222.633 229.658 222.67 229.466 222.67 229.273C222.669 228.721 222.449 228.191 222.058 227.801C221.668 227.41 221.138 227.19 220.586 227.189H201.94C201.445 227.191 200.964 227.026 200.574 226.722C200.183 226.417 199.907 225.99 199.788 225.51Z" fill="white"/>
<path d="M213.595 184.646C213.595 184.646 217.315 185.754 215.577 188.505L213.962 186.152L213.595 184.646Z" fill="#263238"/>
<path d="M226.995 198.823L228.616 196.443L230.221 196.953L230.514 197.599L228.514 200.459L226.995 198.823Z" fill="#DBB178"/>
<path d="M229.398 199.445C227.773 201.995 225.21 205.715 224.231 205.494C221.354 204.851 217.4 202.128 215.37 199.136C215.064 198.684 214.938 198.134 215.018 197.595C215.098 197.055 215.378 196.565 215.802 196.222V196.202C216.023 196.021 216.278 195.886 216.552 195.803C216.825 195.721 217.113 195.694 217.397 195.723C217.681 195.752 217.957 195.837 218.208 195.973C218.46 196.109 218.682 196.293 218.862 196.514C218.899 196.559 218.933 196.606 218.967 196.654C220.766 199.234 223.047 201.682 223.421 201.89C223.86 202.141 224.999 201.064 227.41 198.017L229.398 199.445Z" fill="#212121"/>
<path opacity="0.6" d="M229.398 199.445C227.773 201.995 225.21 205.715 224.231 205.494C221.354 204.851 217.4 202.128 215.37 199.136C215.064 198.684 214.938 198.134 215.018 197.595C215.098 197.055 215.378 196.565 215.802 196.222V196.202C216.023 196.021 216.278 195.886 216.552 195.803C216.825 195.721 217.113 195.694 217.397 195.723C217.681 195.752 217.957 195.837 218.208 195.973C218.46 196.109 218.682 196.293 218.862 196.514C218.899 196.559 218.933 196.606 218.967 196.654C220.766 199.234 223.047 201.682 223.421 201.89C223.86 202.141 224.999 201.064 227.41 198.017L229.398 199.445Z" fill="white"/>
<path d="M229.436 197.389L232.649 198.018L231.153 195.325C231.153 195.325 229.208 195.325 228.616 196.444L229.436 197.389Z" fill="#DBB178"/>
<path opacity="0.2" d="M220.13 203.634C217.801 202.043 217.492 198.31 217.492 198.31L216.172 197.708L215.54 199.388C216.804 201.066 218.358 202.505 220.13 203.634Z" fill="black"/>
<path d="M234.92 196.865L233.546 194.676L231.156 195.325L232.649 198.018L234.92 196.865Z" fill="#DBB178"/>
<path d="M217.077 211.808L205.68 212.556C205.68 212.556 205.598 209.496 205.201 206.678C205.077 205.697 204.882 204.726 204.616 203.774C204.32 202.802 203.936 201.71 203.494 200.442C203.436 200.286 203.378 200.129 203.314 199.966C203.164 199.572 203.011 199.16 202.838 198.732V198.712C202.684 198.293 202.7 197.831 202.884 197.424C203.068 197.018 203.404 196.7 203.82 196.539C203.899 196.508 203.979 196.485 204.062 196.468C204.786 196.315 205.517 196.175 206.258 196.06L206.897 195.964C208.604 195.71 210.324 195.556 212.048 195.502C212.942 195.502 213.898 195.529 214.714 195.567L215.394 195.601C216.257 195.652 216.856 195.706 216.856 195.706C216.856 195.706 217.23 195.781 217.451 197.783C217.456 197.897 217.467 198.011 217.485 198.123C217.512 198.538 217.536 199.062 217.546 199.691C217.58 202.261 217.427 206.576 217.077 211.808Z" fill="#212121"/>
<path opacity="0.6" d="M217.077 211.808L205.68 212.556C205.68 212.556 205.598 209.496 205.201 206.678C205.077 205.697 204.882 204.726 204.616 203.774C204.32 202.802 203.936 201.71 203.494 200.442C203.436 200.286 203.378 200.129 203.314 199.966C203.164 199.572 203.011 199.16 202.838 198.732V198.712C202.684 198.293 202.7 197.831 202.884 197.424C203.068 197.018 203.404 196.7 203.82 196.539C203.899 196.508 203.979 196.485 204.062 196.468C204.786 196.315 205.517 196.175 206.258 196.06L206.897 195.964C208.604 195.71 210.324 195.556 212.048 195.502C212.942 195.502 213.898 195.529 214.714 195.567L215.394 195.601C216.257 195.652 216.856 195.706 216.856 195.706C216.856 195.706 217.23 195.781 217.451 197.783C217.456 197.897 217.467 198.011 217.485 198.123C217.512 198.538 217.536 199.062 217.546 199.691C217.58 202.261 217.427 206.576 217.077 211.808Z" fill="white"/>
<path d="M207.295 195.91L210.137 199.697L212.177 197.95L214.829 199.228L213.395 195.519C212.953 195.519 212.497 195.519 212.058 195.519C210.465 195.562 208.874 195.692 207.295 195.91Z" fill="#212121"/>
<path opacity="0.9" d="M207.295 195.91L210.137 199.697L212.177 197.95L214.829 199.228L213.395 195.519C212.953 195.519 212.497 195.519 212.058 195.519C210.465 195.562 208.874 195.692 207.295 195.91Z" fill="white"/>
<path d="M232.452 257.515H230.027L231.132 239.216H235.668L232.452 257.515Z" fill="#DBB178"/>
<path d="M229.759 257.283C229.732 257.052 232.625 256.834 232.625 256.834C232.625 256.834 234.638 258.384 236.406 258.534C238.174 258.684 237.361 259.857 235.447 260.122L230.711 260.802C229.351 261.002 230.038 259.7 229.759 257.283Z" fill="#263238"/>
<path d="M234.077 257.382C233.708 257.36 233.343 257.29 232.992 257.174C232.978 257.171 232.965 257.164 232.955 257.154C232.948 257.131 232.948 257.106 232.955 257.082C232.955 257.052 233.115 256.334 233.485 256.124C233.541 256.09 233.603 256.068 233.667 256.061C233.732 256.053 233.797 256.059 233.859 256.079C234.039 256.134 234.087 256.236 234.09 256.307C234.09 256.453 233.951 256.617 233.75 256.766C233.944 256.712 234.149 256.712 234.342 256.766C234.384 256.782 234.423 256.806 234.455 256.837C234.488 256.868 234.514 256.905 234.532 256.946C234.561 257 234.573 257.061 234.568 257.121C234.562 257.181 234.539 257.239 234.502 257.286C234.378 257.373 234.226 257.407 234.077 257.382ZM233.298 257.076C233.733 257.188 234.243 257.263 234.356 257.14C234.383 257.116 234.376 257.065 234.356 257.004C234.347 256.984 234.335 256.966 234.319 256.952C234.303 256.937 234.284 256.926 234.264 256.919C233.934 256.88 233.599 256.934 233.298 257.076ZM233.693 256.226C233.642 256.226 233.593 256.24 233.55 256.266C233.356 256.435 233.22 256.66 233.159 256.909C233.533 256.695 233.907 256.426 233.907 256.311C233.907 256.29 233.866 256.263 233.801 256.239C233.766 256.229 233.729 256.225 233.693 256.226Z" fill="#212121"/>
<path opacity="0.2" d="M230.939 242.415L235.083 242.541L235.668 239.216H231.132L230.939 242.415Z" fill="black"/>
<path d="M220.817 257.824L218.495 257.515L222.17 237.254L226.753 238.563L220.817 257.824Z" fill="#DBB178"/>
<path d="M218.192 257.191C218.192 256.953 221.089 257.191 221.089 257.191C221.089 257.191 222.847 259.023 224.57 259.435C226.294 259.846 225.318 260.89 223.387 260.863L218.6 260.805C217.216 260.791 218.1 259.632 218.192 257.191Z" fill="#263238"/>
<path d="M222.612 257.946C222.189 257.894 221.778 257.767 221.398 257.572L221.374 257.551C221.373 257.548 221.372 257.544 221.372 257.539C221.372 257.535 221.373 257.531 221.374 257.528C221.369 257.517 221.367 257.505 221.367 257.494C221.367 257.482 221.369 257.47 221.374 257.46C221.374 257.432 221.64 256.752 222.054 256.593C222.113 256.566 222.177 256.552 222.241 256.552C222.306 256.552 222.37 256.566 222.428 256.593C222.598 256.678 222.629 256.78 222.622 256.851C222.622 256.997 222.439 257.137 222.224 257.252C222.424 257.228 222.627 257.26 222.809 257.344C222.848 257.365 222.883 257.394 222.91 257.429C222.937 257.464 222.956 257.505 222.966 257.548C222.987 257.603 222.992 257.664 222.978 257.722C222.964 257.78 222.932 257.832 222.887 257.871C222.808 257.928 222.71 257.955 222.612 257.946ZM221.704 257.511C222.119 257.687 222.612 257.851 222.724 257.735C222.751 257.715 222.758 257.667 222.724 257.599C222.719 257.579 222.71 257.56 222.697 257.543C222.684 257.527 222.668 257.514 222.649 257.504C222.339 257.423 222.013 257.426 221.704 257.511ZM222.18 256.729C222.143 256.73 222.106 256.738 222.071 256.752C221.857 256.888 221.69 257.086 221.592 257.32C222.007 257.167 222.398 256.946 222.405 256.837C222.405 256.817 222.371 256.783 222.313 256.756C222.277 256.738 222.238 256.726 222.197 256.722L222.18 256.729Z" fill="#212121"/>
<path opacity="0.2" d="M226.753 238.563L222.17 237.254L221.446 241.249L225.689 242.014L226.753 238.563Z" fill="black"/>
<path d="M229.932 240.786L235.763 241.092C237.256 234.217 238.745 226.638 238.449 224.976C237.888 221.79 233.56 218.546 216.757 215.796L208.937 227.546C208.937 227.546 220.375 227.012 230.799 227.012C230.796 227.019 230.214 233.561 229.932 240.786Z" fill="#212121"/>
<path opacity="0.1" d="M229.932 240.786L235.763 241.092C237.256 234.217 238.745 226.638 238.449 224.976C237.888 221.79 233.56 218.546 216.757 215.796L208.937 227.546C208.937 227.546 220.375 227.012 230.799 227.012C230.796 227.019 230.214 233.561 229.932 240.786Z" fill="black"/>
<path d="M229.541 239.872L229.715 241.399L236.103 241.616L236.416 240.212L229.541 239.872Z" fill="#212121"/>
<path d="M213.034 195.512H212.048C210.634 195.556 209.223 195.672 207.819 195.852C208.431 196.583 210.338 197.722 211.616 197.722C213.401 197.708 213.004 196.382 213.034 195.512Z" fill="#DBB178"/>
<path d="M220.868 239.603L226.828 240.572C229.249 233.795 231.67 226.584 231.629 224.959C231.547 221.722 230.837 220.042 219.13 217.431C219.13 217.431 218.508 216.523 217.09 211.821L205.68 212.569C205.68 212.569 200.475 222.157 204.504 226.251C205.394 227.162 207.145 227.57 208.924 227.553C208.924 227.553 213.038 227.573 223.204 227.097C223.207 227.097 222 232.898 220.868 239.603Z" fill="#212121"/>
<path d="M220.63 238.562L227.535 239.729L226.879 241.181L220.599 240.15L220.63 238.562Z" fill="#212121"/>
<path opacity="0.1" d="M229.541 239.872L229.715 241.399L236.103 241.616L236.416 240.212L229.541 239.872Z" fill="black"/>
<path d="M212.171 194.529C212.039 195.368 212.074 196.225 212.273 197.052L209.148 196.593C209.081 196.583 209.017 196.557 208.961 196.519C208.905 196.48 208.859 196.429 208.826 196.369C208.793 196.31 208.774 196.243 208.771 196.175C208.768 196.107 208.781 196.039 208.808 195.977C209.236 195.005 209.406 193.046 209.512 192.145C209.57 191.601 209.593 191.105 209.597 190.758C209.6 190.411 209.597 190.282 209.597 190.282L210.994 190.921L213.276 191.965C212.75 192.743 212.375 193.613 212.171 194.529Z" fill="#DBB178"/>
<path opacity="0.2" d="M213.282 191.965C212.751 192.742 212.371 193.612 212.16 194.529C211.02 194.077 210.079 193.233 209.505 192.149C209.566 191.605 209.59 191.109 209.593 190.762C210.09 190.813 210.552 190.864 210.994 190.925L213.282 191.965Z" fill="black"/>
<path d="M213.449 189.735C213.357 190.779 213.891 191.622 214.639 191.622C215.387 191.622 216.07 190.779 216.162 189.735C216.254 188.691 215.72 187.845 214.972 187.845C214.224 187.845 213.541 188.691 213.449 189.735Z" fill="#212121"/>
<path opacity="0.5" d="M213.316 189.735C213.225 190.779 213.758 191.622 214.506 191.622C215.254 191.622 215.934 190.779 216.026 189.735C216.118 188.691 215.584 187.845 214.836 187.845C214.088 187.845 213.405 188.691 213.316 189.735Z" fill="black"/>
<path d="M208.084 187.899C208.641 190.456 208.835 191.979 210.345 193.146C210.832 193.532 211.415 193.778 212.031 193.856C212.648 193.934 213.274 193.842 213.842 193.589C214.41 193.337 214.897 192.933 215.252 192.423C215.606 191.912 215.814 191.315 215.853 190.694C216.053 188.314 215.108 184.53 212.415 183.806C211.837 183.633 211.223 183.616 210.635 183.756C210.047 183.895 209.507 184.187 209.068 184.602C208.629 185.017 208.307 185.54 208.134 186.119C207.961 186.698 207.944 187.312 208.084 187.899Z" fill="#DBB178"/>
<path d="M207.492 190.568C207.906 191.068 208.48 191.409 209.117 191.534C209.923 191.67 210.107 190.925 209.695 190.201C209.328 189.551 208.461 188.698 207.74 188.888C207.02 189.079 206.972 189.939 207.492 190.568Z" fill="#DBB178"/>
<path d="M212.12 188.151C212.154 188.362 212.29 188.518 212.429 188.491C212.568 188.464 212.65 188.291 212.619 188.083C212.589 187.876 212.449 187.716 212.31 187.743C212.171 187.77 212.089 187.94 212.12 188.151Z" fill="#263238"/>
<path d="M214.52 187.869C214.551 188.08 214.69 188.236 214.826 188.209C214.962 188.182 215.05 188.008 215.02 187.798C214.989 187.587 214.846 187.434 214.71 187.458C214.574 187.481 214.469 187.658 214.52 187.869Z" fill="#263238"/>
<path d="M213.762 188.062C214.114 188.675 214.545 189.239 215.044 189.739C214.914 189.858 214.759 189.948 214.59 190.001C214.421 190.054 214.243 190.069 214.068 190.045L213.762 188.062Z" fill="#C0854B"/>
<path d="M211.266 187.474C211.246 187.479 211.225 187.479 211.205 187.474C211.191 187.466 211.178 187.456 211.167 187.443C211.157 187.43 211.149 187.415 211.145 187.399C211.141 187.384 211.139 187.367 211.142 187.351C211.144 187.334 211.149 187.318 211.157 187.304C211.249 187.131 211.382 186.983 211.544 186.873C211.707 186.763 211.894 186.695 212.089 186.675C212.105 186.674 212.122 186.676 212.137 186.681C212.152 186.686 212.167 186.694 212.179 186.705C212.191 186.716 212.2 186.729 212.207 186.744C212.214 186.759 212.218 186.775 212.218 186.791C212.22 186.807 212.218 186.824 212.213 186.839C212.208 186.855 212.199 186.869 212.189 186.882C212.178 186.894 212.165 186.904 212.15 186.911C212.135 186.918 212.119 186.923 212.103 186.923C211.949 186.941 211.803 186.996 211.676 187.084C211.549 187.171 211.445 187.289 211.375 187.427C211.362 187.443 211.346 187.456 211.327 187.464C211.308 187.472 211.287 187.476 211.266 187.474Z" fill="#263238"/>
<path d="M215.401 186.941C215.38 186.941 215.36 186.937 215.342 186.927C215.324 186.918 215.309 186.904 215.299 186.886C215.212 186.752 215.096 186.639 214.96 186.557C214.823 186.474 214.669 186.424 214.51 186.41C214.48 186.405 214.454 186.39 214.434 186.368C214.415 186.345 214.405 186.316 214.405 186.286C214.405 186.256 214.415 186.228 214.434 186.205C214.454 186.182 214.48 186.167 214.51 186.162C214.709 186.175 214.903 186.235 215.076 186.337C215.248 186.438 215.394 186.579 215.503 186.747C215.521 186.774 215.528 186.807 215.523 186.84C215.517 186.872 215.499 186.901 215.472 186.92C215.45 186.933 215.426 186.94 215.401 186.941Z" fill="#263238"/>
<path d="M208.584 191.262C208.584 191.262 210.209 189.599 209.413 185.519C209.413 185.519 210.722 186.631 213.762 185.808C213.762 185.808 211.963 185.985 211.14 185.128C211.14 185.128 212.817 185.907 215.526 185.128C215.526 185.128 215.044 182.384 212.126 182.245C212.126 182.245 213.068 181.453 213.976 181.606C213.976 181.606 213.048 180.807 210.692 182.361L209.76 182.741C209.76 182.741 207.135 181.796 205.68 184.02C204.521 185.778 205.102 191.313 208.584 191.262Z" fill="#263238"/>
<path d="M214.544 190.51C214.544 190.51 213.721 190.303 211.402 190.252C211.661 190.956 212.154 191.537 213.344 191.551C213.492 191.567 213.642 191.553 213.784 191.509C213.927 191.464 214.059 191.391 214.171 191.293C214.284 191.195 214.375 191.075 214.439 190.941C214.504 190.806 214.539 190.659 214.544 190.51Z" fill="#263238"/>
<path d="M212.82 190.989C213.277 190.973 213.728 191.1 214.109 191.353C213.886 191.495 213.624 191.563 213.361 191.547C212.905 191.566 212.456 191.438 212.079 191.183C212.299 191.042 212.559 190.974 212.82 190.989Z" fill="#A02724"/>
<path d="M214.438 190.49C214.414 190.576 214.367 190.653 214.301 190.713C214.236 190.773 214.155 190.813 214.068 190.83C213.383 190.814 212.701 190.742 212.028 190.613C211.92 190.603 211.817 190.567 211.727 190.508C211.636 190.448 211.562 190.368 211.511 190.273C212.491 190.269 213.47 190.342 214.438 190.49Z" fill="white"/>
<path d="M207.322 188.78V186.036C207.322 185.224 207.584 184.434 208.069 183.782C208.554 183.131 209.237 182.654 210.015 182.422L210.933 182.259C210.135 182.497 209.435 182.986 208.938 183.654C208.44 184.322 208.172 185.132 208.172 185.965V188.78H207.322Z" fill="#212121"/>
<path d="M209.454 190.109C209.546 191.153 209.012 191.996 208.264 191.996C207.516 191.996 206.833 191.153 206.744 190.109C206.656 189.065 207.186 188.219 207.934 188.219C208.682 188.219 209.362 189.065 209.454 190.109Z" fill="#212121"/>
<path opacity="0.5" d="M209.454 190.109C209.546 191.153 209.012 191.996 208.264 191.996C207.516 191.996 206.833 191.153 206.744 190.109C206.656 189.065 207.186 188.219 207.934 188.219C208.682 188.219 209.362 189.065 209.454 190.109Z" fill="black"/>
<path d="M209.002 190.109C209.09 191.153 208.56 191.996 207.808 191.996C207.057 191.996 206.38 191.153 206.289 190.109C206.197 189.065 206.731 188.219 207.479 188.219C208.227 188.219 208.91 189.065 209.002 190.109Z" fill="#212121"/>
<path opacity="0.3" d="M208.06 190.385L207.999 189.834H208.104C207.968 189.293 207.587 188.889 207.169 188.889C206.751 188.889 206.445 189.293 206.401 189.834H206.472L206.533 190.385H206.452C206.588 190.925 206.969 191.326 207.383 191.326C207.798 191.326 208.111 190.925 208.152 190.385H208.06Z" fill="white"/>
<path d="M203.174 190.34L204.66 187.416L205.86 190.252C205.86 190.252 204.657 191.782 203.416 191.561L203.174 190.34Z" fill="#DBB178"/>
<path d="M206.969 186.339L207.842 188.77L205.857 190.252L204.66 187.417L206.969 186.339Z" fill="#DBB178"/>
<path d="M203.565 193.489L204.993 191.085L204.844 190.106L203.586 189.66L201.794 192.448L203.565 193.489Z" fill="#DBB178"/>
<path d="M204.595 191.993L201.988 197.732C201.988 197.732 203.256 196.593 203.956 196.43C205.071 196.168 208.437 197.185 205.027 200.887C205.027 200.887 198.275 205.107 196.898 203.471C195.827 202.2 200.376 194.471 202.46 191.085L204.595 191.993Z" fill="#212121"/>
<path opacity="0.6" d="M204.595 191.993L201.988 197.732C201.988 197.732 203.256 196.593 203.956 196.43C205.071 196.168 208.437 197.185 205.027 200.887C205.027 200.887 198.275 205.107 196.898 203.471C195.827 202.2 200.376 194.471 202.46 191.085L204.595 191.993Z" fill="white"/>
<path opacity="0.2" d="M201.988 197.732L201.26 199.973L203.395 196.688C202.897 196.996 202.426 197.345 201.988 197.732Z" fill="black"/>
<path d="M211.756 192.642C211.47 192.649 211.185 192.631 210.902 192.587C210.175 192.326 209.471 192.003 208.798 191.622L208.934 191.377C209.587 191.744 210.27 192.056 210.974 192.312C211.698 192.372 212.426 192.372 213.15 192.312L213.17 192.594C213.116 192.594 212.402 192.642 211.756 192.642Z" fill="#212121"/>
<path d="M212.062 192.7L213.422 192.598C213.422 192.598 213.384 192.177 212.742 192.194C212.099 192.211 212.062 192.7 212.062 192.7Z" fill="#212121"/>
<g opacity="0.5">
<path d="M211.756 192.642C211.47 192.649 211.185 192.631 210.902 192.587C210.175 192.326 209.471 192.003 208.798 191.622L208.934 191.377C209.587 191.744 210.27 192.056 210.974 192.312C211.698 192.372 212.426 192.372 213.15 192.312L213.17 192.594C213.116 192.594 212.402 192.642 211.756 192.642Z" fill="black"/>
<path d="M212.062 192.699L213.422 192.597C213.422 192.597 213.384 192.176 212.742 192.193C212.099 192.21 212.062 192.699 212.062 192.699Z" fill="black"/>
</g>
<path d="M266.22 260.904C266.149 260.906 266.078 260.895 266.011 260.87C265.943 260.845 265.882 260.808 265.83 260.759C265.777 260.71 265.735 260.652 265.705 260.587C265.675 260.522 265.659 260.452 265.656 260.38L262.256 221.015C262.25 220.675 262.117 220.35 261.884 220.104C261.65 219.857 261.333 219.707 260.995 219.682H244.933C244.594 219.707 244.277 219.857 244.044 220.104C243.81 220.35 243.677 220.675 243.671 221.015L240.272 260.38C240.271 260.453 240.256 260.525 240.227 260.592C240.198 260.659 240.156 260.72 240.104 260.77C240.051 260.82 239.989 260.86 239.921 260.886C239.853 260.912 239.78 260.923 239.707 260.921C239.56 260.891 239.43 260.806 239.344 260.683C239.258 260.56 239.223 260.409 239.245 260.261L242.645 220.893C242.764 219.516 243.746 218.479 244.933 218.479H260.995C262.181 218.479 263.164 219.516 263.283 220.893L266.683 260.261C266.705 260.409 266.669 260.56 266.583 260.683C266.497 260.806 266.367 260.891 266.22 260.921V260.904Z" fill="#212121"/>
<g opacity="0.4">
<path d="M266.22 260.904C266.149 260.906 266.078 260.895 266.011 260.87C265.943 260.845 265.882 260.808 265.83 260.759C265.777 260.71 265.735 260.652 265.705 260.587C265.675 260.522 265.659 260.452 265.656 260.38L262.256 221.015C262.25 220.675 262.117 220.35 261.884 220.104C261.65 219.857 261.333 219.707 260.995 219.682H244.933C244.594 219.707 244.277 219.857 244.044 220.104C243.81 220.35 243.677 220.675 243.671 221.015L240.272 260.38C240.271 260.453 240.256 260.525 240.227 260.592C240.198 260.659 240.156 260.72 240.104 260.77C240.051 260.82 239.989 260.86 239.921 260.886C239.853 260.912 239.78 260.923 239.707 260.921C239.56 260.891 239.43 260.806 239.344 260.683C239.258 260.56 239.223 260.409 239.245 260.261L242.645 220.893C242.764 219.516 243.746 218.479 244.933 218.479H260.995C262.181 218.479 263.164 219.516 263.283 220.893L266.683 260.261C266.705 260.409 266.669 260.56 266.583 260.683C266.497 260.806 266.367 260.891 266.22 260.921V260.904Z" fill="black"/>
</g>
<path d="M265.996 216.775H222.337C221.955 216.775 221.646 217.084 221.646 217.466V219.703C221.646 220.084 221.955 220.393 222.337 220.393H265.996C266.377 220.393 266.686 220.084 266.686 219.703V217.466C266.686 217.084 266.377 216.775 265.996 216.775Z" fill="#263238"/>
<path opacity="0.2" d="M246.922 216.775H265.996C266.176 216.775 266.349 216.847 266.477 216.975C266.604 217.102 266.676 217.275 266.676 217.455V219.693C266.676 219.873 266.604 220.046 266.477 220.173C266.349 220.301 266.176 220.373 265.996 220.373H246.922V216.775Z" fill="white"/>
<path d="M248.629 260.904C248.556 260.907 248.483 260.896 248.414 260.87C248.346 260.844 248.283 260.805 248.23 260.755C248.177 260.704 248.135 260.643 248.106 260.576C248.077 260.509 248.061 260.437 248.061 260.364L244.661 220.998C244.655 220.659 244.522 220.334 244.289 220.087C244.056 219.84 243.738 219.69 243.4 219.666H227.338C227 219.691 226.683 219.842 226.451 220.088C226.218 220.335 226.086 220.659 226.08 220.998L222.68 260.381C222.68 260.453 222.665 260.525 222.636 260.592C222.607 260.659 222.565 260.72 222.512 260.77C222.46 260.821 222.397 260.86 222.329 260.886C222.261 260.912 222.188 260.924 222.116 260.921C221.966 260.89 221.835 260.802 221.75 260.675C221.665 260.549 221.633 260.394 221.66 260.245L225.06 220.876C225.179 219.499 226.165 218.462 227.348 218.462H243.41C244.596 218.462 245.579 219.499 245.698 220.876L249.098 260.245C249.12 260.392 249.085 260.543 249 260.666C248.914 260.788 248.785 260.874 248.639 260.904H248.629Z" fill="#212121"/>
<g opacity="0.4">
<path d="M248.629 260.904C248.556 260.907 248.483 260.896 248.414 260.87C248.346 260.844 248.283 260.805 248.23 260.755C248.177 260.704 248.135 260.643 248.106 260.576C248.077 260.509 248.061 260.437 248.061 260.364L244.661 220.998C244.655 220.659 244.522 220.334 244.289 220.087C244.056 219.84 243.738 219.69 243.4 219.666H227.338C227 219.691 226.683 219.842 226.451 220.088C226.218 220.335 226.086 220.659 226.08 220.998L222.68 260.381C222.68 260.453 222.665 260.525 222.636 260.592C222.607 260.659 222.565 260.72 222.512 260.77C222.46 260.821 222.397 260.86 222.329 260.886C222.261 260.912 222.188 260.924 222.116 260.921C221.966 260.89 221.835 260.802 221.75 260.675C221.665 260.549 221.633 260.394 221.66 260.245L225.06 220.876C225.179 219.499 226.165 218.462 227.348 218.462H243.41C244.596 218.462 245.579 219.499 245.698 220.876L249.098 260.245C249.12 260.392 249.085 260.543 249 260.666C248.914 260.788 248.785 260.874 248.639 260.904H248.629Z" fill="black"/>
</g>
<path d="M236.052 214.994H248.653V216.181C248.653 216.339 248.59 216.49 248.478 216.601C248.367 216.713 248.215 216.776 248.058 216.776H236.647C236.489 216.776 236.338 216.713 236.226 216.601C236.115 216.49 236.052 216.339 236.052 216.181V215.001V214.994Z" fill="#263238"/>
<path opacity="0.2" d="M236.052 214.994H248.653V216.181C248.653 216.339 248.59 216.49 248.478 216.601C248.367 216.713 248.215 216.776 248.058 216.776H236.647C236.489 216.776 236.338 216.713 236.226 216.601C236.115 216.49 236.052 216.339 236.052 216.181V215.001V214.994Z" fill="white"/>
<path d="M227.141 214.994H239.741V216.181C239.741 216.339 239.678 216.49 239.567 216.601C239.455 216.713 239.304 216.776 239.146 216.776H227.736C227.578 216.776 227.427 216.713 227.315 216.601C227.203 216.49 227.141 216.339 227.141 216.181V215.001V214.994Z" fill="#263238"/>
<path opacity="0.6" d="M227.141 214.994H239.741V216.181C239.741 216.339 239.678 216.49 239.567 216.601C239.455 216.713 239.304 216.776 239.146 216.776H227.736C227.578 216.776 227.427 216.713 227.315 216.601C227.203 216.49 227.141 216.339 227.141 216.181V215.001V214.994Z" fill="white"/>
<path d="M238.283 215.67H237.113V216.092H238.283V215.67Z" fill="#263238"/>
<path d="M236.409 215.67H235.24V216.092H236.409V215.67Z" fill="#263238"/>
<path d="M249.54 216.775H250.142C250.306 216.772 250.465 216.711 250.589 216.603C250.713 216.495 250.796 216.346 250.822 216.184L252.862 203.641C252.878 203.542 252.872 203.44 252.846 203.342C252.819 203.245 252.772 203.155 252.708 203.077C252.643 202.999 252.563 202.936 252.472 202.892C252.382 202.848 252.283 202.824 252.182 202.822L242.4 202.805L239.755 216.745H240.357L249.54 216.775Z" fill="#263238"/>
<path opacity="0.6" d="M249.54 216.775H250.142C250.306 216.772 250.465 216.711 250.589 216.603C250.713 216.495 250.796 216.346 250.822 216.184L252.862 203.641C252.878 203.542 252.872 203.44 252.846 203.342C252.819 203.245 252.772 203.155 252.708 203.077C252.643 202.999 252.563 202.936 252.472 202.892C252.382 202.848 252.283 202.824 252.182 202.822L242.4 202.805L239.755 216.745H240.357L249.54 216.775Z" fill="white"/>
<path opacity="0.2" d="M239.908 215.867L239.738 216.758H240.34L249.52 216.775H250.121C250.286 216.772 250.444 216.71 250.569 216.602C250.693 216.494 250.775 216.346 250.801 216.183L250.849 215.888L239.908 215.867Z" fill="black"/>
<path d="M239.751 216.769H240.36C240.525 216.765 240.683 216.704 240.807 216.596C240.931 216.488 241.014 216.34 241.04 216.177L243.08 203.628C243.096 203.528 243.091 203.426 243.064 203.329C243.037 203.232 242.99 203.142 242.926 203.065C242.861 202.987 242.781 202.925 242.69 202.881C242.6 202.837 242.501 202.814 242.4 202.812L239.751 216.769Z" fill="#263238"/>
<path opacity="0.3" d="M239.751 216.769H240.36C240.525 216.765 240.683 216.704 240.807 216.596C240.931 216.488 241.014 216.34 241.04 216.177L243.08 203.628C243.096 203.528 243.091 203.426 243.064 203.329C243.037 203.232 242.99 203.142 242.926 203.065C242.861 202.987 242.781 202.925 242.69 202.881C242.6 202.837 242.501 202.814 242.4 202.812L239.751 216.769Z" fill="white"/>
</g>
<defs>
<linearGradient id="paint0_linear_1187_36270" x1="273.379" y1="176.956" x2="141.595" y2="412.806" gradientUnits="userSpaceOnUse">
<stop stop-color="white"/>
<stop offset="1" stop-color="#BBC9D8"/>
</linearGradient>
<linearGradient id="paint1_linear_1187_36270" x1="138.857" y1="75.5984" x2="335.911" y2="416.925" gradientUnits="userSpaceOnUse">
<stop stop-color="#2560F1"/>
<stop offset="0.4875" stop-color="#7944FF"/>
<stop offset="1" stop-color="#C623FF"/>
</linearGradient>
<linearGradient id="paint2_linear_1187_36270" x1="286.532" y1="198.481" x2="183.303" y2="390.076" gradientUnits="userSpaceOnUse">
<stop stop-color="white"/>
<stop offset="1" stop-color="#BBC9D8"/>
</linearGradient>
<clipPath id="clip0_1187_36270">
<rect width="133" height="113" fill="white" transform="translate(172 153)"/>
</clipPath>
</defs>
</svg>
