<svg width="441" height="453" viewBox="0 0 441 453" fill="none" xmlns="http://www.w3.org/2000/svg">
<mask id="mask0_1187_38523" style="mask-type:luminance" maskUnits="userSpaceOnUse" x="44" y="40" width="382" height="331">
<path d="M330.246 370.546L377.844 288.108L425.442 205.67L377.835 123.222L330.222 40.7755L235.01 40.7668L139.797 40.7617L92.1985 123.2L44.6003 205.638L92.2135 288.084L139.825 370.534L235.036 370.543L330.246 370.546Z" fill="white"/>
</mask>
<g mask="url(#mask0_1187_38523)">
<path d="M282.646 452.988L-3 288.079L187.397 -41.6798L473.043 123.229L282.646 452.988Z" fill="url(#paint0_linear_1187_38523)"/>
</g>
<mask id="mask1_1187_38523" style="mask-type:luminance" maskUnits="userSpaceOnUse" x="91" y="81" width="288" height="249">
<path d="M306.818 329.978L163.247 329.97L91.4532 205.644L163.23 81.3305L306.799 81.3426L378.595 205.665L306.818 329.978Z" fill="white"/>
</mask>
<g mask="url(#mask1_1187_38523)">
<path d="M270.929 392.137L55.5601 267.801L199.113 19.1735L414.482 143.51L270.929 392.137Z" fill="url(#paint1_linear_1187_38523)" fill-opacity="0.8"/>
</g>
<path d="M186.752 243.734V248.222H192.032V250.268H186.752V254.954H192.692V257H184.244V241.688H192.692V243.734H186.752ZM200.973 250.862L204.889 257H202.051L199.433 252.886L196.969 257H194.351L198.267 251.038L194.351 244.878H197.189L199.807 248.992L202.271 244.878H204.889L200.973 250.862ZM217.869 250.642C217.869 251.097 217.84 251.507 217.781 251.874H208.519C208.593 252.842 208.952 253.619 209.597 254.206C210.243 254.793 211.035 255.086 211.973 255.086C213.323 255.086 214.276 254.521 214.833 253.392H217.539C217.173 254.507 216.505 255.423 215.537 256.142C214.584 256.846 213.396 257.198 211.973 257.198C210.815 257.198 209.773 256.941 208.849 256.428C207.94 255.9 207.221 255.167 206.693 254.228C206.18 253.275 205.923 252.175 205.923 250.928C205.923 249.681 206.173 248.589 206.671 247.65C207.185 246.697 207.896 245.963 208.805 245.45C209.729 244.937 210.785 244.68 211.973 244.68C213.117 244.68 214.137 244.929 215.031 245.428C215.926 245.927 216.623 246.631 217.121 247.54C217.62 248.435 217.869 249.469 217.869 250.642ZM215.251 249.85C215.237 248.926 214.907 248.185 214.261 247.628C213.616 247.071 212.817 246.792 211.863 246.792C210.998 246.792 210.257 247.071 209.641 247.628C209.025 248.171 208.659 248.911 208.541 249.85H215.251ZM219.502 250.928C219.502 249.681 219.751 248.589 220.25 247.65C220.763 246.697 221.467 245.963 222.362 245.45C223.256 244.937 224.283 244.68 225.442 244.68C226.908 244.68 228.118 245.032 229.072 245.736C230.04 246.425 230.692 247.415 231.03 248.706H228.324C228.104 248.105 227.752 247.635 227.268 247.298C226.784 246.961 226.175 246.792 225.442 246.792C224.415 246.792 223.594 247.159 222.978 247.892C222.376 248.611 222.076 249.623 222.076 250.928C222.076 252.233 222.376 253.253 222.978 253.986C223.594 254.719 224.415 255.086 225.442 255.086C226.894 255.086 227.854 254.448 228.324 253.172H231.03C230.678 254.404 230.018 255.387 229.05 256.12C228.082 256.839 226.879 257.198 225.442 257.198C224.283 257.198 223.256 256.941 222.362 256.428C221.467 255.9 220.763 255.167 220.25 254.228C219.751 253.275 219.502 252.175 219.502 250.928ZM244.507 244.878V257H241.999V255.57C241.603 256.069 241.082 256.465 240.437 256.758C239.806 257.037 239.132 257.176 238.413 257.176C237.46 257.176 236.602 256.978 235.839 256.582C235.091 256.186 234.497 255.599 234.057 254.822C233.632 254.045 233.419 253.106 233.419 252.006V244.878H235.905V251.632C235.905 252.717 236.176 253.553 236.719 254.14C237.262 254.712 238.002 254.998 238.941 254.998C239.88 254.998 240.62 254.712 241.163 254.14C241.72 253.553 241.999 252.717 241.999 251.632V244.878H244.507ZM250.742 246.924V253.634C250.742 254.089 250.845 254.419 251.05 254.624C251.27 254.815 251.637 254.91 252.15 254.91H253.69V257H251.71C250.581 257 249.715 256.736 249.114 256.208C248.513 255.68 248.212 254.822 248.212 253.634V246.924H246.782V244.878H248.212V241.864H250.742V244.878H253.69V246.924H250.742ZM257.278 243.272C256.823 243.272 256.442 243.118 256.134 242.81C255.826 242.502 255.672 242.121 255.672 241.666C255.672 241.211 255.826 240.83 256.134 240.522C256.442 240.214 256.823 240.06 257.278 240.06C257.718 240.06 258.092 240.214 258.4 240.522C258.708 240.83 258.862 241.211 258.862 241.666C258.862 242.121 258.708 242.502 258.4 242.81C258.092 243.118 257.718 243.272 257.278 243.272ZM258.51 244.878V257H256.002V244.878H258.51ZM266.488 254.756L269.92 244.878H272.582L267.962 257H264.97L260.372 244.878H263.056L266.488 254.756ZM285.588 250.642C285.588 251.097 285.559 251.507 285.5 251.874H276.238C276.311 252.842 276.671 253.619 277.316 254.206C277.961 254.793 278.753 255.086 279.692 255.086C281.041 255.086 281.995 254.521 282.552 253.392H285.258C284.891 254.507 284.224 255.423 283.256 256.142C282.303 256.846 281.115 257.198 279.692 257.198C278.533 257.198 277.492 256.941 276.568 256.428C275.659 255.9 274.94 255.167 274.412 254.228C273.899 253.275 273.642 252.175 273.642 250.928C273.642 249.681 273.891 248.589 274.39 247.65C274.903 246.697 275.615 245.963 276.524 245.45C277.448 244.937 278.504 244.68 279.692 244.68C280.836 244.68 281.855 244.929 282.75 245.428C283.645 245.927 284.341 246.631 284.84 247.54C285.339 248.435 285.588 249.469 285.588 250.642ZM282.97 249.85C282.955 248.926 282.625 248.185 281.98 247.628C281.335 247.071 280.535 246.792 279.582 246.792C278.717 246.792 277.976 247.071 277.36 247.628C276.744 248.171 276.377 248.911 276.26 249.85H282.97ZM185.094 286.876H178.692L177.592 290H174.974L180.452 274.688H183.356L188.834 290H186.194L185.094 286.876ZM184.39 284.83L181.904 277.724L179.396 284.83H184.39ZM195.615 290.198C194.662 290.198 193.804 290.029 193.041 289.692C192.293 289.34 191.699 288.871 191.259 288.284C190.819 287.683 190.585 287.015 190.555 286.282H193.151C193.195 286.795 193.437 287.228 193.877 287.58C194.332 287.917 194.897 288.086 195.571 288.086C196.275 288.086 196.818 287.954 197.199 287.69C197.595 287.411 197.793 287.059 197.793 286.634C197.793 286.179 197.573 285.842 197.133 285.622C196.708 285.402 196.026 285.16 195.087 284.896C194.178 284.647 193.437 284.405 192.865 284.17C192.293 283.935 191.795 283.576 191.369 283.092C190.959 282.608 190.753 281.97 190.753 281.178C190.753 280.533 190.944 279.946 191.325 279.418C191.707 278.875 192.249 278.45 192.953 278.142C193.672 277.834 194.493 277.68 195.417 277.68C196.796 277.68 197.903 278.032 198.739 278.736C199.59 279.425 200.045 280.371 200.103 281.574H197.595C197.551 281.031 197.331 280.599 196.935 280.276C196.539 279.953 196.004 279.792 195.329 279.792C194.669 279.792 194.163 279.917 193.811 280.166C193.459 280.415 193.283 280.745 193.283 281.156C193.283 281.479 193.401 281.75 193.635 281.97C193.87 282.19 194.156 282.366 194.493 282.498C194.831 282.615 195.329 282.769 195.989 282.96C196.869 283.195 197.588 283.437 198.145 283.686C198.717 283.921 199.209 284.273 199.619 284.742C200.03 285.211 200.243 285.835 200.257 286.612C200.257 287.301 200.067 287.917 199.685 288.46C199.304 289.003 198.761 289.428 198.057 289.736C197.368 290.044 196.554 290.198 195.615 290.198ZM207.367 290.198C206.414 290.198 205.556 290.029 204.793 289.692C204.045 289.34 203.451 288.871 203.011 288.284C202.571 287.683 202.337 287.015 202.307 286.282H204.903C204.947 286.795 205.189 287.228 205.629 287.58C206.084 287.917 206.649 288.086 207.323 288.086C208.027 288.086 208.57 287.954 208.951 287.69C209.347 287.411 209.545 287.059 209.545 286.634C209.545 286.179 209.325 285.842 208.885 285.622C208.46 285.402 207.778 285.16 206.839 284.896C205.93 284.647 205.189 284.405 204.617 284.17C204.045 283.935 203.547 283.576 203.121 283.092C202.711 282.608 202.505 281.97 202.505 281.178C202.505 280.533 202.696 279.946 203.077 279.418C203.459 278.875 204.001 278.45 204.705 278.142C205.424 277.834 206.245 277.68 207.169 277.68C208.548 277.68 209.655 278.032 210.491 278.736C211.342 279.425 211.797 280.371 211.855 281.574H209.347C209.303 281.031 209.083 280.599 208.687 280.276C208.291 279.953 207.756 279.792 207.081 279.792C206.421 279.792 205.915 279.917 205.563 280.166C205.211 280.415 205.035 280.745 205.035 281.156C205.035 281.479 205.153 281.75 205.387 281.97C205.622 282.19 205.908 282.366 206.245 282.498C206.583 282.615 207.081 282.769 207.741 282.96C208.621 283.195 209.34 283.437 209.897 283.686C210.469 283.921 210.961 284.273 211.371 284.742C211.782 285.211 211.995 285.835 212.009 286.612C212.009 287.301 211.819 287.917 211.437 288.46C211.056 289.003 210.513 289.428 209.809 289.736C209.12 290.044 208.306 290.198 207.367 290.198ZM215.995 276.272C215.541 276.272 215.159 276.118 214.851 275.81C214.543 275.502 214.389 275.121 214.389 274.666C214.389 274.211 214.543 273.83 214.851 273.522C215.159 273.214 215.541 273.06 215.995 273.06C216.435 273.06 216.809 273.214 217.117 273.522C217.425 273.83 217.579 274.211 217.579 274.666C217.579 275.121 217.425 275.502 217.117 275.81C216.809 276.118 216.435 276.272 215.995 276.272ZM217.227 277.878V290H214.719V277.878H217.227ZM224.92 290.198C223.967 290.198 223.109 290.029 222.346 289.692C221.598 289.34 221.004 288.871 220.564 288.284C220.124 287.683 219.889 287.015 219.86 286.282H222.456C222.5 286.795 222.742 287.228 223.182 287.58C223.637 287.917 224.201 288.086 224.876 288.086C225.58 288.086 226.123 287.954 226.504 287.69C226.9 287.411 227.098 287.059 227.098 286.634C227.098 286.179 226.878 285.842 226.438 285.622C226.013 285.402 225.331 285.16 224.392 284.896C223.483 284.647 222.742 284.405 222.17 284.17C221.598 283.935 221.099 283.576 220.674 283.092C220.263 282.608 220.058 281.97 220.058 281.178C220.058 280.533 220.249 279.946 220.63 279.418C221.011 278.875 221.554 278.45 222.258 278.142C222.977 277.834 223.798 277.68 224.722 277.68C226.101 277.68 227.208 278.032 228.044 278.736C228.895 279.425 229.349 280.371 229.408 281.574H226.9C226.856 281.031 226.636 280.599 226.24 280.276C225.844 279.953 225.309 279.792 224.634 279.792C223.974 279.792 223.468 279.917 223.116 280.166C222.764 280.415 222.588 280.745 222.588 281.156C222.588 281.479 222.705 281.75 222.94 281.97C223.175 282.19 223.461 282.366 223.798 282.498C224.135 282.615 224.634 282.769 225.294 282.96C226.174 283.195 226.893 283.437 227.45 283.686C228.022 283.921 228.513 284.273 228.924 284.742C229.335 285.211 229.547 285.835 229.562 286.612C229.562 287.301 229.371 287.917 228.99 288.46C228.609 289.003 228.066 289.428 227.362 289.736C226.673 290.044 225.859 290.198 224.92 290.198ZM235.198 279.924V286.634C235.198 287.089 235.301 287.419 235.506 287.624C235.726 287.815 236.093 287.91 236.606 287.91H238.146V290H236.166C235.037 290 234.171 289.736 233.57 289.208C232.969 288.68 232.668 287.822 232.668 286.634V279.924H231.238V277.878H232.668V274.864H235.198V277.878H238.146V279.924H235.198ZM239.622 283.884C239.622 282.667 239.871 281.589 240.37 280.65C240.883 279.711 241.572 278.985 242.438 278.472C243.318 277.944 244.286 277.68 245.342 277.68C246.295 277.68 247.124 277.871 247.828 278.252C248.546 278.619 249.118 279.081 249.544 279.638V277.878H252.074V290H249.544V288.196C249.118 288.768 248.539 289.245 247.806 289.626C247.072 290.007 246.236 290.198 245.298 290.198C244.256 290.198 243.303 289.934 242.438 289.406C241.572 288.863 240.883 288.115 240.37 287.162C239.871 286.194 239.622 285.101 239.622 283.884ZM249.544 283.928C249.544 283.092 249.368 282.366 249.016 281.75C248.678 281.134 248.231 280.665 247.674 280.342C247.116 280.019 246.515 279.858 245.87 279.858C245.224 279.858 244.623 280.019 244.066 280.342C243.508 280.65 243.054 281.112 242.702 281.728C242.364 282.329 242.196 283.048 242.196 283.884C242.196 284.72 242.364 285.453 242.702 286.084C243.054 286.715 243.508 287.199 244.066 287.536C244.638 287.859 245.239 288.02 245.87 288.02C246.515 288.02 247.116 287.859 247.674 287.536C248.231 287.213 248.678 286.744 249.016 286.128C249.368 285.497 249.544 284.764 249.544 283.928ZM261.484 277.68C262.437 277.68 263.288 277.878 264.036 278.274C264.798 278.67 265.392 279.257 265.818 280.034C266.243 280.811 266.456 281.75 266.456 282.85V290H263.97V283.224C263.97 282.139 263.698 281.31 263.156 280.738C262.613 280.151 261.872 279.858 260.934 279.858C259.995 279.858 259.247 280.151 258.69 280.738C258.147 281.31 257.876 282.139 257.876 283.224V290H255.368V277.878H257.876V279.264C258.286 278.765 258.807 278.377 259.438 278.098C260.083 277.819 260.765 277.68 261.484 277.68ZM268.819 283.928C268.819 282.681 269.068 281.589 269.567 280.65C270.08 279.697 270.784 278.963 271.679 278.45C272.574 277.937 273.6 277.68 274.759 277.68C276.226 277.68 277.436 278.032 278.389 278.736C279.357 279.425 280.01 280.415 280.347 281.706H277.641C277.421 281.105 277.069 280.635 276.585 280.298C276.101 279.961 275.492 279.792 274.759 279.792C273.732 279.792 272.911 280.159 272.295 280.892C271.694 281.611 271.393 282.623 271.393 283.928C271.393 285.233 271.694 286.253 272.295 286.986C272.911 287.719 273.732 288.086 274.759 288.086C276.211 288.086 277.172 287.448 277.641 286.172H280.347C279.995 287.404 279.335 288.387 278.367 289.12C277.399 289.839 276.196 290.198 274.759 290.198C273.6 290.198 272.574 289.941 271.679 289.428C270.784 288.9 270.08 288.167 269.567 287.228C269.068 286.275 268.819 285.175 268.819 283.928ZM293.956 283.642C293.956 284.097 293.927 284.507 293.868 284.874H284.606C284.68 285.842 285.039 286.619 285.684 287.206C286.33 287.793 287.122 288.086 288.06 288.086C289.41 288.086 290.363 287.521 290.92 286.392H293.626C293.26 287.507 292.592 288.423 291.624 289.142C290.671 289.846 289.483 290.198 288.06 290.198C286.902 290.198 285.86 289.941 284.936 289.428C284.027 288.9 283.308 288.167 282.78 287.228C282.267 286.275 282.01 285.175 282.01 283.928C282.01 282.681 282.26 281.589 282.758 280.65C283.272 279.697 283.983 278.963 284.892 278.45C285.816 277.937 286.872 277.68 288.06 277.68C289.204 277.68 290.224 277.929 291.118 278.428C292.013 278.927 292.71 279.631 293.208 280.54C293.707 281.435 293.956 282.469 293.956 283.642ZM291.338 282.85C291.324 281.926 290.994 281.185 290.348 280.628C289.703 280.071 288.904 279.792 287.95 279.792C287.085 279.792 286.344 280.071 285.728 280.628C285.112 281.171 284.746 281.911 284.628 282.85H291.338Z" fill="#001237"/>
<g clip-path="url(#clip0_1187_38523)">
<path d="M240.608 225.185C273.602 225.185 300.35 209.972 300.35 191.206C300.35 172.439 273.602 157.226 240.608 157.226C207.613 157.226 180.865 172.439 180.865 191.206C180.865 209.972 207.613 225.185 240.608 225.185Z" fill="#F5F5F5"/>
<path d="M278.505 207.019C286.395 207.019 292.791 203.009 292.791 198.062C292.791 193.115 286.395 189.104 278.505 189.104C270.615 189.104 264.218 193.115 264.218 198.062C264.218 203.009 270.615 207.019 278.505 207.019Z" fill="#E6E6E6"/>
<path d="M184.182 172.06C184.011 169.998 183.535 167.974 182.77 166.052C181.511 162.947 179.1 159.828 176.323 159.244C173.546 158.66 172.373 160.523 172.956 162.357C173.462 163.937 175.525 165.249 177.093 166.628C178.661 168.006 181.586 171.354 182.397 174.559L183.965 174.731L184.182 172.06Z" fill="#212121"/>
<g opacity="0.15">
<path d="M184.182 172.06C184.011 169.998 183.535 167.974 182.77 166.052C181.511 162.947 179.1 159.828 176.323 159.244C173.546 158.66 172.373 160.523 172.956 162.357C173.462 163.937 175.525 165.249 177.093 166.628C178.661 168.006 181.586 171.354 182.397 174.559L183.965 174.731L184.182 172.06Z" fill="black"/>
</g>
<path d="M183.106 173.5C183.061 173.5 183.018 173.483 182.986 173.451C182.954 173.42 182.935 173.378 182.934 173.333C182.642 165.238 174.73 160.712 174.644 160.662C174.606 160.638 174.579 160.601 174.568 160.557C174.557 160.514 174.563 160.468 174.584 160.429C174.606 160.39 174.642 160.361 174.684 160.347C174.727 160.334 174.773 160.337 174.813 160.356C174.897 160.403 182.984 165.027 183.281 173.314C183.283 173.36 183.266 173.404 183.235 173.438C183.204 173.472 183.16 173.492 183.114 173.494L183.106 173.5Z" fill="white"/>
<path d="M185.43 186.31C185.43 186.31 183.812 187.333 181.283 186.897C180.465 186.788 179.702 186.422 179.106 185.851C178.453 185.179 178.35 184.5 178.166 183.6C178.116 183.223 177.987 182.861 177.788 182.538C177.232 181.793 176.165 181.806 175.264 181.612C173.985 181.334 172.809 180.416 172.439 179.163C172.07 177.909 172.67 176.383 173.882 175.888L172.395 174.934C171.933 174.663 171.505 174.336 171.122 173.961C170.739 173.579 170.51 173.069 170.479 172.53C170.479 171.74 171.066 171.034 171.789 170.711C172.529 170.426 173.333 170.343 174.116 170.472C174.909 170.569 175.689 170.756 176.44 171.028C176.645 171.121 176.866 171.171 177.09 171.176C177.383 171.124 177.656 170.998 177.885 170.809C179.587 169.697 182.358 169.772 183.27 171.89C183.404 172.202 183.484 172.535 183.629 172.841C184.157 173.984 185.644 173.639 186.606 174.173C186.908 174.364 187.164 174.619 187.356 174.92C187.549 175.221 187.672 175.561 187.718 175.916C187.91 177.044 187.596 178.331 187.387 179.446C187.179 180.561 186.915 181.598 186.612 182.654C186.364 183.527 186.092 184.392 185.803 185.251C185.742 185.429 185.608 186.199 185.43 186.31Z" fill="#212121"/>
<path d="M186.448 183.702C185.6 181.369 184.207 179.272 182.386 177.586C182.367 177.545 182.333 177.513 182.292 177.497C181.767 177.005 181.217 176.541 180.643 176.107C180.426 174.606 180.618 173.074 181.199 171.673C181.219 171.631 181.221 171.584 181.205 171.54C181.19 171.497 181.157 171.462 181.116 171.442C181.074 171.423 181.026 171.42 180.983 171.436C180.94 171.452 180.904 171.484 180.885 171.526C180.309 172.876 180.088 174.352 180.243 175.812C177.913 174.132 175.328 172.837 172.587 171.976C172.542 171.965 172.495 171.971 172.455 171.994C172.415 172.017 172.386 172.054 172.373 172.098C172.366 172.12 172.364 172.143 172.367 172.166C172.37 172.189 172.377 172.211 172.389 172.231C172.4 172.251 172.415 172.268 172.434 172.282C172.452 172.296 172.473 172.307 172.495 172.312C172.567 172.332 177.499 173.733 181.58 177.316C179.078 176.88 176.095 178.086 175.959 178.15C175.92 178.165 175.889 178.192 175.869 178.228C175.849 178.264 175.842 178.305 175.85 178.345C175.858 178.386 175.88 178.422 175.912 178.447C175.945 178.472 175.985 178.485 176.025 178.484C176.048 178.488 176.07 178.488 176.092 178.484C176.126 178.467 179.631 177.049 182.108 177.82C183.907 179.469 185.285 181.525 186.128 183.816C186.14 183.85 186.162 183.88 186.191 183.901C186.221 183.922 186.256 183.933 186.292 183.933H186.35C186.372 183.925 186.392 183.912 186.409 183.896C186.426 183.879 186.44 183.86 186.449 183.838C186.458 183.817 186.462 183.793 186.462 183.77C186.462 183.747 186.457 183.723 186.448 183.702Z" fill="white"/>
<path d="M185.486 186.069C185.515 186.475 185.641 186.869 185.851 187.219C186.062 187.568 186.352 187.863 186.698 188.079L220.6 207.644C220.975 207.835 221.389 207.934 221.809 207.934C222.23 207.934 222.644 207.835 223.019 207.644L269.397 180.867C269.762 180.674 270.067 180.384 270.28 180.03C270.493 179.677 270.605 179.272 270.605 178.859C270.605 178.446 270.493 178.041 270.28 177.687C270.067 177.333 269.762 177.044 269.397 176.85L235.501 157.279C235.126 157.09 234.712 156.991 234.292 156.991C233.871 156.991 233.457 157.09 233.082 157.279L186.698 184.061C186.352 184.277 186.062 184.571 185.852 184.92C185.641 185.269 185.516 185.662 185.486 186.069Z" fill="#37474F"/>
<path d="M221.804 205.32V207.936C221.383 207.948 220.967 207.853 220.594 207.658L186.684 188.079C186.33 187.892 186.031 187.615 185.819 187.275C185.607 186.935 185.488 186.545 185.476 186.145C185.463 185.744 185.557 185.348 185.748 184.996C185.939 184.643 186.219 184.348 186.562 184.14C186.019 184.529 186.061 185.099 186.684 185.457L220.6 205.029C220.97 205.226 221.384 205.327 221.804 205.32Z" fill="#263238"/>
<path d="M184.352 184.103C184.015 183.874 183.737 183.569 183.54 183.213C183.343 182.856 183.232 182.459 183.217 182.052V141.6C183.24 141.181 183.361 140.772 183.572 140.409C183.782 140.045 184.075 139.736 184.427 139.507L230.805 112.73C231.165 112.539 231.566 112.435 231.973 112.427C232.381 112.419 232.785 112.508 233.152 112.685C233.488 112.914 233.766 113.219 233.963 113.576C234.161 113.932 234.271 114.33 234.286 114.737V155.189C234.263 155.608 234.142 156.016 233.932 156.38C233.721 156.744 233.429 157.053 233.077 157.282L186.698 184.062C186.337 184.252 185.937 184.354 185.53 184.362C185.122 184.369 184.719 184.28 184.352 184.103Z" fill="#455A64"/>
<path d="M186.553 184.134C186.206 184.29 185.829 184.368 185.449 184.362C185.069 184.357 184.694 184.269 184.352 184.103C184.015 183.874 183.737 183.569 183.54 183.213C183.343 182.856 183.232 182.459 183.217 182.052V141.6C183.231 141.179 183.353 140.769 183.573 140.41L185.842 141.717C185.624 142.077 185.501 142.486 185.486 142.907V183.361C185.486 184.078 185.953 184.398 186.553 184.134Z" fill="#263238"/>
<path d="M185.486 142.913V183.362C185.486 184.134 186.042 184.446 186.698 184.062L233.077 157.282C233.429 157.053 233.722 156.744 233.932 156.38C234.142 156.017 234.263 155.608 234.286 155.189V114.737C234.286 113.967 233.744 113.653 233.077 114.039L186.698 140.816C186.345 141.046 186.051 141.355 185.841 141.719C185.63 142.083 185.509 142.492 185.486 142.913Z" fill="#37474F"/>
<path d="M186.698 185.458L220.6 205.029C220.975 205.218 221.389 205.316 221.809 205.316C222.229 205.316 222.643 205.218 223.018 205.029L269.397 178.252C270.067 177.865 270.067 177.24 269.397 176.862L235.501 157.291C235.126 157.101 234.711 157.003 234.291 157.003C233.871 157.003 233.457 157.101 233.082 157.291L186.698 184.062C186.028 184.446 186.028 185.071 186.698 185.458Z" fill="#455A64"/>
<path d="M187.348 143.062L232.065 117.25C232.465 117.019 232.79 117.208 232.79 117.67V152.698C232.776 152.949 232.704 153.194 232.577 153.412C232.451 153.631 232.276 153.816 232.065 153.954L187.348 179.753C186.945 179.983 186.62 179.797 186.62 179.333V144.305C186.636 144.055 186.71 143.812 186.836 143.597C186.963 143.381 187.138 143.198 187.348 143.062Z" fill="#FAFAFA"/>
<path d="M190.632 184.409L233.683 159.55C233.87 159.454 234.077 159.404 234.287 159.404C234.498 159.404 234.705 159.454 234.892 159.55L237.094 160.821C237.166 160.846 237.229 160.893 237.273 160.956C237.317 161.018 237.341 161.093 237.341 161.17C237.341 161.246 237.317 161.321 237.273 161.383C237.229 161.446 237.166 161.493 237.094 161.518L194.037 186.374C193.85 186.47 193.643 186.52 193.432 186.52C193.222 186.52 193.015 186.47 192.828 186.374L190.632 185.107C190.559 185.081 190.497 185.034 190.452 184.972C190.408 184.909 190.384 184.834 190.384 184.758C190.384 184.681 190.408 184.606 190.452 184.544C190.497 184.481 190.559 184.434 190.632 184.409Z" fill="#37474F"/>
<path d="M196.306 187.686L239.357 162.83C239.544 162.736 239.751 162.687 239.961 162.687C240.171 162.687 240.378 162.736 240.566 162.83L254.11 170.651C254.182 170.676 254.245 170.723 254.289 170.786C254.334 170.848 254.357 170.923 254.357 170.999C254.357 171.076 254.334 171.151 254.289 171.213C254.245 171.276 254.182 171.323 254.11 171.348L211.109 196.168C210.921 196.263 210.714 196.313 210.503 196.313C210.292 196.313 210.085 196.263 209.897 196.168L196.308 188.384C196.235 188.36 196.17 188.314 196.125 188.252C196.079 188.189 196.054 188.114 196.054 188.036C196.053 187.959 196.078 187.883 196.123 187.82C196.168 187.758 196.232 187.711 196.306 187.686Z" fill="#263238"/>
<path d="M234.898 174.007L236.243 173.231C236.301 173.198 236.299 173.142 236.243 173.106L234.684 172.205C234.65 172.188 234.614 172.179 234.577 172.179C234.539 172.179 234.503 172.188 234.469 172.205L233.121 172.984C233.063 173.014 233.066 173.07 233.121 173.106L234.678 174.007C234.712 174.024 234.75 174.033 234.788 174.033C234.826 174.033 234.864 174.024 234.898 174.007ZM232.237 170.915L230.886 171.699C230.828 171.733 230.833 171.788 230.886 171.824L232.443 172.722C232.476 172.739 232.514 172.748 232.551 172.748C232.589 172.748 232.626 172.739 232.66 172.722L234.008 171.944C234.064 171.911 234.061 171.855 234.008 171.819L232.448 170.921C232.416 170.904 232.379 170.896 232.343 170.896C232.306 170.896 232.27 170.904 232.237 170.921V170.915ZM227.881 173.451L225.601 174.766C225.543 174.799 225.546 174.855 225.601 174.891L227.158 175.791C227.192 175.808 227.229 175.816 227.267 175.816C227.304 175.816 227.341 175.808 227.375 175.791L229.655 174.476C229.713 174.443 229.707 174.388 229.655 174.351L228.106 173.451C228.071 173.432 228.033 173.423 227.993 173.423C227.954 173.423 227.916 173.432 227.881 173.451ZM230.266 172.061L228.918 172.839C228.862 172.872 228.865 172.928 228.918 172.964L230.477 173.865C230.511 173.881 230.547 173.89 230.584 173.89C230.622 173.89 230.658 173.881 230.691 173.865L232.04 173.086C232.095 173.053 232.093 172.998 232.04 172.964L230.48 172.061C230.447 172.044 230.41 172.035 230.373 172.035C230.336 172.035 230.299 172.044 230.266 172.061ZM224.984 175.119L223.636 175.894C223.58 175.928 223.583 175.983 223.636 176.019L225.195 176.92C225.228 176.937 225.265 176.946 225.302 176.946C225.34 176.946 225.376 176.937 225.409 176.92L226.758 176.142C226.813 176.111 226.811 176.056 226.758 176.019L225.193 175.119C225.16 175.102 225.123 175.093 225.086 175.093C225.048 175.093 225.012 175.102 224.979 175.119H224.984ZM223.013 176.256L221.668 177.034C221.609 177.065 221.612 177.12 221.668 177.156L223.227 178.057C223.26 178.074 223.297 178.082 223.334 178.082C223.371 178.082 223.408 178.074 223.441 178.057L224.79 177.279C224.848 177.245 224.842 177.19 224.79 177.154L223.233 176.253C223.198 176.234 223.16 176.224 223.12 176.223C223.081 176.223 223.042 176.232 223.008 176.25L223.013 176.256ZM229.146 179.914L230.494 179.136C230.55 179.102 230.547 179.047 230.494 179.011L228.935 178.113C228.901 178.096 228.865 178.087 228.827 178.087C228.79 178.087 228.754 178.096 228.72 178.113L227.372 178.891C227.314 178.924 227.319 178.98 227.372 179.016L228.929 179.914C228.962 179.929 228.999 179.937 229.035 179.936C229.072 179.935 229.108 179.926 229.14 179.909L229.146 179.914ZM227.175 181.051L228.523 180.273C228.581 180.239 228.576 180.184 228.523 180.148L226.966 179.25C226.933 179.233 226.896 179.224 226.858 179.224C226.82 179.224 226.783 179.233 226.749 179.25L225.401 180.028C225.346 180.062 225.348 180.117 225.401 180.153L226.961 181.054C226.994 181.068 227.03 181.075 227.066 181.073C227.102 181.072 227.137 181.062 227.169 181.046L227.175 181.051ZM225.204 182.188L226.552 181.41C226.61 181.376 226.608 181.321 226.552 181.287L224.995 180.387C224.962 180.37 224.925 180.361 224.888 180.361C224.851 180.361 224.814 180.37 224.781 180.387L223.433 181.165C223.375 181.199 223.377 181.254 223.433 181.29L224.992 182.191C225.025 182.205 225.061 182.211 225.096 182.21C225.132 182.208 225.167 182.199 225.198 182.183L225.204 182.188ZM223.236 183.325L224.584 182.547C224.639 182.516 224.637 182.461 224.584 182.425L223.01 181.513C222.977 181.496 222.941 181.487 222.903 181.487C222.866 181.487 222.829 181.496 222.796 181.513L221.448 182.288C221.39 182.322 221.395 182.377 221.448 182.413L223.005 183.314C223.039 183.333 223.077 183.344 223.117 183.345C223.156 183.346 223.195 183.337 223.23 183.32L223.236 183.325ZM232.932 175.158L234.28 174.379C234.336 174.346 234.333 174.29 234.28 174.254L232.721 173.353C232.688 173.337 232.651 173.328 232.614 173.328C232.577 173.328 232.54 173.337 232.507 173.353L231.159 174.132C231.103 174.165 231.106 174.221 231.159 174.254L232.718 175.155C232.751 175.17 232.787 175.178 232.823 175.177C232.859 175.177 232.894 175.168 232.927 175.152L232.932 175.158ZM231.114 178.772L234.122 177.034C234.18 177.001 234.175 176.945 234.122 176.912L230.33 174.727C230.296 174.71 230.259 174.701 230.222 174.701C230.184 174.701 230.147 174.71 230.113 174.727L228.559 175.625C228.501 175.658 228.504 175.714 228.559 175.75L230.561 176.906C230.625 176.942 230.628 176.998 230.561 177.029L229.318 177.749C229.26 177.782 229.263 177.838 229.318 177.874L230.878 178.772C230.913 178.792 230.953 178.802 230.993 178.802C231.034 178.802 231.073 178.792 231.108 178.772H231.114ZM221.045 177.382L219.697 178.16C219.638 178.193 219.644 178.249 219.697 178.282L221.253 179.183C221.287 179.2 221.324 179.209 221.362 179.209C221.399 179.209 221.437 179.2 221.47 179.183L222.816 178.405C222.874 178.371 222.871 178.316 222.816 178.28L221.256 177.379C221.222 177.363 221.184 177.356 221.147 177.357C221.109 177.359 221.072 177.369 221.039 177.387L221.045 177.382ZM219.074 178.519L217.726 179.297C217.67 179.33 217.673 179.386 217.726 179.422L219.285 180.32C219.318 180.337 219.355 180.346 219.392 180.346C219.429 180.346 219.466 180.337 219.499 180.32L220.847 179.542C220.903 179.508 220.9 179.453 220.847 179.417L219.288 178.519C219.254 178.501 219.216 178.493 219.177 178.494C219.139 178.495 219.102 178.505 219.068 178.524L219.074 178.519ZM209.23 191.273C209.263 191.29 209.3 191.298 209.337 191.298C209.374 191.298 209.411 191.29 209.444 191.273L210.792 190.495C210.851 190.461 210.848 190.406 210.792 190.373L209.235 189.472C209.202 189.455 209.165 189.447 209.127 189.447C209.089 189.447 209.052 189.455 209.019 189.472L207.673 190.25C207.615 190.284 207.617 190.339 207.673 190.375L209.23 191.273ZM203.308 187.629L201.96 188.407C201.905 188.44 201.907 188.496 201.96 188.532L203.52 189.43C203.553 189.447 203.59 189.456 203.627 189.456C203.664 189.456 203.701 189.447 203.734 189.43L205.082 188.652C205.138 188.618 205.135 188.563 205.082 188.527L203.523 187.629C203.489 187.612 203.453 187.603 203.415 187.603C203.378 187.603 203.342 187.612 203.308 187.629ZM206.48 190.297C206.514 190.314 206.55 190.322 206.587 190.322C206.625 190.322 206.661 190.314 206.695 190.297L208.043 189.519C208.098 189.486 208.096 189.43 208.043 189.394L206.483 188.493C206.45 188.476 206.413 188.467 206.376 188.467C206.339 188.467 206.302 188.476 206.269 188.493L204.921 189.272C204.865 189.305 204.868 189.358 204.921 189.394L206.48 190.297ZM212.702 191.965L214.05 191.187C214.109 191.156 214.103 191.101 214.05 191.065L212.494 190.164C212.46 190.147 212.423 190.138 212.385 190.138C212.347 190.138 212.31 190.147 212.277 190.164L210.928 190.94C210.873 190.973 210.876 191.029 210.928 191.065L212.488 191.965C212.521 191.983 212.557 191.992 212.595 191.993C212.632 191.993 212.669 191.985 212.702 191.968V191.965ZM210.517 193.1C210.551 193.116 210.588 193.125 210.625 193.125C210.663 193.125 210.7 193.116 210.734 193.1L212.079 192.321C212.138 192.288 212.135 192.232 212.079 192.196L210.52 191.295C210.487 191.278 210.45 191.27 210.413 191.27C210.376 191.27 210.339 191.278 210.306 191.295L208.952 192.077C208.893 192.107 208.896 192.163 208.952 192.199L210.517 193.1ZM205.279 186.483L203.931 187.262C203.873 187.295 203.876 187.351 203.931 187.384L205.488 188.285C205.521 188.302 205.558 188.311 205.595 188.311C205.632 188.311 205.669 188.302 205.702 188.285L207.05 187.506C207.109 187.473 207.106 187.417 207.05 187.381L205.491 186.481C205.457 186.465 205.421 186.458 205.384 186.459C205.348 186.46 205.312 186.469 205.279 186.486V186.483ZM215.129 180.795L213.781 181.574C213.722 181.607 213.728 181.663 213.781 181.699L215.338 182.597C215.371 182.614 215.408 182.623 215.446 182.623C215.484 182.623 215.521 182.614 215.554 182.597L216.903 181.818C216.958 181.785 216.955 181.73 216.903 181.693L215.343 180.795C215.31 180.779 215.273 180.77 215.236 180.771C215.198 180.771 215.162 180.781 215.129 180.798V180.795ZM207.256 185.349L205.908 186.127C205.852 186.161 205.855 186.216 205.908 186.25L207.467 187.151C207.5 187.168 207.537 187.176 207.574 187.176C207.612 187.176 207.648 187.168 207.681 187.151L209.03 186.372C209.088 186.339 209.083 186.283 209.03 186.247L207.473 185.346C207.439 185.33 207.402 185.322 207.364 185.323C207.327 185.323 207.29 185.332 207.256 185.349ZM217.106 179.661L215.76 180.44C215.702 180.473 215.704 180.529 215.76 180.565L217.32 181.463C217.353 181.48 217.389 181.489 217.427 181.489C217.464 181.489 217.501 181.48 217.534 181.463L218.882 180.684C218.94 180.651 218.938 180.595 218.882 180.559L217.325 179.661C217.29 179.642 217.251 179.632 217.211 179.632C217.171 179.632 217.132 179.642 217.097 179.661H217.106ZM213.166 181.935L211.818 182.714C211.762 182.747 211.765 182.803 211.818 182.839L213.372 183.737C213.405 183.753 213.442 183.762 213.479 183.762C213.516 183.762 213.553 183.753 213.586 183.737L214.934 182.958C214.993 182.925 214.987 182.869 214.934 182.836L213.372 181.941C213.339 181.923 213.303 181.913 213.266 181.912C213.228 181.911 213.192 181.919 213.158 181.935H213.166ZM211.198 183.072L209.85 183.851C209.791 183.884 209.794 183.94 209.85 183.976L211.409 184.876C211.442 184.894 211.479 184.902 211.516 184.902C211.554 184.902 211.59 184.894 211.623 184.876L212.972 184.098C213.03 184.065 213.027 184.009 212.972 183.976L211.412 183.075C211.378 183.057 211.34 183.047 211.301 183.047C211.263 183.046 211.224 183.055 211.19 183.072H211.198ZM209.227 184.212L207.879 184.99C207.82 185.021 207.826 185.077 207.879 185.113L209.436 186.013C209.469 186.031 209.506 186.039 209.544 186.039C209.582 186.039 209.619 186.031 209.652 186.013L211.001 185.238C211.056 185.205 211.054 185.149 211.001 185.113L209.441 184.212C209.407 184.194 209.369 184.184 209.33 184.184C209.291 184.184 209.253 184.194 209.219 184.212H209.227ZM219.296 185.602L220.645 184.824C220.703 184.79 220.7 184.735 220.645 184.699L219.085 183.798C219.052 183.781 219.015 183.773 218.978 183.773C218.941 183.773 218.904 183.781 218.871 183.798L217.523 184.576C217.464 184.61 217.467 184.665 217.523 184.699L219.082 185.599C219.114 185.615 219.15 185.622 219.185 185.622C219.221 185.621 219.256 185.613 219.288 185.596L219.296 185.602ZM236.599 168.413L235.251 169.192C235.195 169.225 235.198 169.281 235.251 169.314L236.81 170.215C236.843 170.232 236.88 170.241 236.917 170.241C236.955 170.241 236.991 170.232 237.024 170.215L238.373 169.436C238.431 169.403 238.425 169.347 238.373 169.311L236.816 168.411C236.781 168.392 236.743 168.383 236.704 168.382C236.664 168.382 236.626 168.39 236.591 168.408L236.599 168.413ZM234.214 169.789L232.868 170.568C232.81 170.601 232.813 170.657 232.868 170.693L234.428 171.591C234.461 171.608 234.498 171.617 234.535 171.617C234.572 171.617 234.609 171.608 234.642 171.591L235.99 170.812C236.049 170.779 236.046 170.723 235.99 170.687L234.433 169.789C234.399 169.77 234.36 169.759 234.32 169.758C234.28 169.757 234.241 169.766 234.205 169.784L234.214 169.789ZM238.57 167.287L237.222 168.066C237.163 168.096 237.169 168.152 237.222 168.188L238.778 169.089C238.812 169.105 238.849 169.114 238.887 169.114C238.924 169.114 238.962 169.105 238.995 169.089L240.344 168.31C240.399 168.277 240.396 168.221 240.344 168.185L238.784 167.285C238.751 167.264 238.713 167.252 238.675 167.249C238.636 167.247 238.597 167.254 238.562 167.271L238.57 167.287ZM228.373 177.801L229.721 177.023C229.777 176.99 229.774 176.934 229.721 176.898L228.162 176C228.129 175.983 228.092 175.974 228.055 175.974C228.017 175.974 227.981 175.983 227.948 176L226.599 176.778C226.544 176.812 226.546 176.867 226.599 176.903L228.159 177.801C228.192 177.815 228.228 177.82 228.264 177.817C228.299 177.814 228.334 177.803 228.365 177.785L228.373 177.801ZM240.755 166.153C240.721 166.136 240.684 166.127 240.647 166.127C240.609 166.127 240.572 166.136 240.538 166.153L239.193 166.929C239.134 166.962 239.137 167.018 239.193 167.054L240.752 167.955C240.785 167.972 240.822 167.981 240.859 167.981C240.897 167.981 240.933 167.972 240.966 167.955L242.315 167.176C242.373 167.146 242.37 167.09 242.315 167.054L240.755 166.153ZM221.267 184.473L222.616 183.698C222.674 183.664 222.668 183.609 222.616 183.573L221.059 182.672C221.025 182.655 220.988 182.646 220.95 182.646C220.913 182.646 220.876 182.655 220.842 182.672L219.488 183.431C219.432 183.461 219.435 183.517 219.488 183.553L221.048 184.454C221.08 184.471 221.116 184.48 221.153 184.481C221.19 184.481 221.226 184.473 221.259 184.457L221.267 184.473ZM245.425 170.526L246.774 169.748C246.832 169.714 246.827 169.659 246.774 169.625L245.217 168.725C245.183 168.708 245.146 168.699 245.109 168.699C245.071 168.699 245.034 168.708 245 168.725L243.655 169.503C243.596 169.536 243.599 169.592 243.655 169.628L245.214 170.529C245.247 170.541 245.283 170.545 245.318 170.542C245.353 170.538 245.387 170.527 245.417 170.509L245.425 170.526ZM241.23 170.379L242.579 169.6C242.634 169.567 242.632 169.511 242.579 169.475L241.019 168.577C240.986 168.56 240.949 168.551 240.912 168.551C240.875 168.551 240.838 168.56 240.805 168.577L239.457 169.356C239.398 169.389 239.404 169.445 239.457 169.481L241.014 170.379C241.047 170.392 241.084 170.397 241.12 170.394C241.156 170.392 241.191 170.38 241.222 170.362L241.23 170.379ZM242.982 167.44C242.948 167.423 242.911 167.414 242.873 167.414C242.836 167.414 242.799 167.423 242.765 167.44L241.419 168.219C241.361 168.252 241.364 168.308 241.419 168.344L242.979 169.242C243.012 169.259 243.049 169.268 243.086 169.268C243.123 169.268 243.16 169.259 243.193 169.242L244.541 168.463C244.6 168.43 244.597 168.374 244.541 168.338L242.982 167.44ZM243.396 167.198L247.182 169.386C247.216 169.403 247.252 169.411 247.289 169.411C247.327 169.411 247.363 169.403 247.396 169.386L248.745 168.608C248.8 168.575 248.798 168.519 248.745 168.486L244.958 166.298C244.925 166.281 244.889 166.273 244.851 166.273C244.814 166.273 244.778 166.281 244.744 166.298L243.396 167.076C243.324 167.093 243.327 167.148 243.396 167.182V167.198ZM238.826 169.7L237.477 170.479C237.422 170.512 237.425 170.568 237.477 170.604L239.037 171.502C239.07 171.519 239.107 171.528 239.144 171.528C239.181 171.528 239.218 171.519 239.251 171.502L240.599 170.723C240.658 170.69 240.652 170.635 240.599 170.598L239.043 169.7C239.009 169.681 238.97 169.67 238.931 169.668C238.892 169.667 238.853 169.675 238.817 169.692L238.826 169.7ZM223.992 178.252L222.643 179.03C222.585 179.063 222.591 179.119 222.643 179.155L224.2 180.056C224.234 180.073 224.271 180.082 224.309 180.082C224.346 180.082 224.383 180.073 224.417 180.056L225.763 179.278C225.821 179.244 225.818 179.191 225.763 179.155L224.214 178.257C224.18 178.239 224.142 178.228 224.104 178.227C224.065 178.226 224.026 178.235 223.992 178.252ZM243.232 171.644C243.266 171.661 243.303 171.67 243.34 171.67C243.378 171.67 243.415 171.661 243.449 171.644L244.797 170.865C244.853 170.835 244.85 170.779 244.797 170.743L243.229 169.837C243.196 169.82 243.159 169.812 243.122 169.812C243.085 169.812 243.048 169.82 243.015 169.837L241.667 170.615C241.609 170.648 241.614 170.704 241.667 170.74L243.232 171.644ZM225.96 177.115L224.614 177.893C224.556 177.926 224.559 177.982 224.614 178.018L226.174 178.919C226.207 178.935 226.244 178.944 226.281 178.944C226.318 178.944 226.355 178.935 226.388 178.919L227.736 178.141C227.795 178.107 227.792 178.052 227.736 178.018L226.18 177.117C226.146 177.1 226.108 177.09 226.07 177.089C226.032 177.089 225.994 177.098 225.96 177.115ZM211.195 190.131C211.229 190.147 211.265 190.156 211.302 190.156C211.339 190.156 211.376 190.147 211.409 190.131L212.758 189.352C212.813 189.319 212.811 189.263 212.758 189.23L211.198 188.329C211.165 188.312 211.128 188.303 211.091 188.303C211.054 188.303 211.017 188.312 210.984 188.329L209.636 189.108C209.58 189.141 209.583 189.197 209.636 189.233L211.195 190.131ZM208.232 187.351L206.884 188.126C206.825 188.16 206.828 188.215 206.884 188.251L208.44 189.152C208.474 189.169 208.511 189.178 208.549 189.178C208.586 189.178 208.624 189.169 208.657 189.152L210.003 188.374C210.061 188.343 210.058 188.288 210.003 188.251L208.446 187.351C208.413 187.334 208.376 187.325 208.339 187.325C208.302 187.325 208.265 187.334 208.232 187.351ZM213.372 189.019L214.718 188.24C214.776 188.207 214.773 188.151 214.718 188.115L213.158 187.217C213.125 187.2 213.088 187.191 213.051 187.191C213.014 187.191 212.977 187.2 212.944 187.217L211.596 187.996C211.537 188.029 211.54 188.085 211.596 188.121L213.152 189.019C213.186 189.036 213.224 189.045 213.262 189.045C213.3 189.045 213.338 189.036 213.372 189.019ZM215.34 187.882L216.689 187.103C216.747 187.07 216.741 187.014 216.689 186.978L215.132 186.08C215.098 186.063 215.061 186.054 215.023 186.054C214.986 186.054 214.949 186.063 214.915 186.08L213.567 186.859C213.511 186.892 213.514 186.948 213.567 186.984L215.126 187.882C215.161 187.898 215.2 187.906 215.239 187.904C215.278 187.902 215.315 187.891 215.349 187.871L215.34 187.882ZM217.311 186.745L218.66 185.966C218.715 185.933 218.712 185.877 218.66 185.841L217.1 184.94C217.067 184.924 217.03 184.915 216.993 184.915C216.956 184.915 216.919 184.924 216.886 184.94L215.538 185.719C215.479 185.752 215.485 185.808 215.538 185.841L217.094 186.742C217.13 186.759 217.169 186.767 217.208 186.766C217.247 186.764 217.286 186.753 217.32 186.734L217.311 186.745ZM210.192 186.225L208.843 187.003C208.788 187.037 208.791 187.092 208.843 187.128L210.403 188.029C210.436 188.045 210.473 188.054 210.51 188.054C210.547 188.054 210.584 188.045 210.617 188.029L211.965 187.251C212.024 187.217 212.018 187.162 211.965 187.128L210.409 186.228C210.377 186.21 210.342 186.2 210.306 186.198C210.27 186.195 210.234 186.201 210.2 186.214L210.192 186.225ZM212.163 185.088L210.814 185.866C210.756 185.9 210.762 185.955 210.814 185.991L212.371 186.892C212.405 186.908 212.442 186.917 212.48 186.917C212.517 186.917 212.554 186.908 212.588 186.892L213.936 186.114C213.992 186.08 213.989 186.025 213.936 185.991L212.377 185.091C212.346 185.073 212.311 185.062 212.276 185.06C212.24 185.057 212.204 185.063 212.171 185.077L212.163 185.088ZM220.044 180.529L218.699 181.307C218.64 181.34 218.643 181.396 218.699 181.429L220.258 182.33C220.291 182.347 220.328 182.356 220.365 182.356C220.402 182.356 220.439 182.347 220.472 182.33L221.82 181.552C221.879 181.518 221.876 181.463 221.82 181.426L220.264 180.526C220.229 180.509 220.192 180.501 220.154 180.501C220.115 180.502 220.078 180.511 220.044 180.529ZM218.076 181.666L216.728 182.444C216.669 182.477 216.675 182.533 216.728 182.566L218.284 183.467C218.318 183.484 218.355 183.493 218.393 183.493C218.43 183.493 218.468 183.484 218.501 183.467L219.849 182.689C219.905 182.655 219.902 182.6 219.849 182.564L218.29 181.663C218.257 181.648 218.221 181.64 218.185 181.641C218.149 181.641 218.114 181.65 218.081 181.666H218.076ZM222.015 179.392L220.667 180.17C220.611 180.201 220.614 180.256 220.667 180.292L222.226 181.193C222.259 181.21 222.296 181.219 222.333 181.219C222.371 181.219 222.407 181.21 222.44 181.193L223.789 180.417C223.844 180.384 223.842 180.328 223.789 180.292L222.229 179.392C222.197 179.375 222.161 179.367 222.125 179.367C222.089 179.367 222.053 179.375 222.021 179.392H222.015ZM214.137 183.94L212.788 184.718C212.73 184.751 212.733 184.807 212.788 184.843L214.348 185.741C214.381 185.758 214.418 185.767 214.455 185.767C214.492 185.767 214.529 185.758 214.562 185.741L215.91 184.963C215.969 184.929 215.966 184.874 215.91 184.838L214.351 183.94C214.318 183.923 214.283 183.915 214.246 183.915C214.21 183.915 214.175 183.923 214.142 183.94H214.137ZM216.105 182.803L214.757 183.581C214.701 183.614 214.704 183.67 214.757 183.706L216.316 184.604C216.349 184.621 216.386 184.63 216.423 184.63C216.46 184.63 216.497 184.621 216.53 184.604L217.878 183.826C217.937 183.792 217.931 183.737 217.878 183.701L216.319 182.803C216.286 182.786 216.251 182.778 216.215 182.778C216.178 182.778 216.143 182.786 216.11 182.803H216.105ZM214.668 190.831L216.016 190.053C216.071 190.019 216.069 189.964 216.016 189.931L214.453 189.019C214.42 189.002 214.384 188.993 214.346 188.993C214.309 188.993 214.273 189.002 214.239 189.019L212.891 189.797C212.833 189.83 212.838 189.886 212.891 189.922L214.448 190.823C214.482 190.842 214.52 190.853 214.56 190.854C214.599 190.856 214.638 190.848 214.673 190.831H214.668ZM203.106 189.664L201.549 188.766C201.515 188.749 201.478 188.74 201.44 188.74C201.403 188.74 201.365 188.749 201.332 188.766L199.984 189.544C199.928 189.577 199.931 189.633 199.984 189.669L201.543 190.567C201.576 190.584 201.613 190.593 201.65 190.593C201.687 190.593 201.724 190.584 201.757 190.567L203.106 189.789C203.178 189.755 203.172 189.7 203.111 189.664H203.106ZM206.058 190.531L204.501 189.63C204.467 189.614 204.43 189.605 204.393 189.605C204.355 189.605 204.318 189.614 204.284 189.63L202.21 190.826C202.155 190.859 202.158 190.915 202.21 190.951L203.77 191.851C203.803 191.869 203.84 191.877 203.877 191.877C203.914 191.877 203.951 191.869 203.984 191.851L206.058 190.656C206.144 190.623 206.125 190.567 206.063 190.531H206.058ZM200.715 187.926L199.158 187.025C199.124 187.008 199.087 186.999 199.05 186.999C199.012 186.999 198.975 187.008 198.941 187.025L197.273 187.985C197.217 188.018 197.22 188.073 197.273 188.107L198.833 189.008C198.866 189.025 198.902 189.034 198.94 189.034C198.977 189.034 199.014 189.025 199.047 189.008L200.715 188.048C200.787 188.015 200.781 187.959 200.72 187.926H200.715ZM201.988 187.189C202.021 187.207 202.058 187.215 202.095 187.215C202.132 187.215 202.169 187.207 202.202 187.189L203.55 186.411C203.606 186.378 203.603 186.322 203.55 186.286L201.988 185.405C201.955 185.388 201.918 185.379 201.881 185.379C201.844 185.379 201.807 185.388 201.774 185.405L200.426 186.183C200.37 186.216 200.373 186.272 200.426 186.308L201.988 187.189ZM208.81 191.521L207.256 190.617C207.223 190.6 207.186 190.591 207.149 190.591C207.112 190.591 207.075 190.6 207.042 190.617L204.448 192.113C204.393 192.146 204.395 192.202 204.448 192.238L206.008 193.136C206.041 193.153 206.078 193.162 206.115 193.162C206.152 193.162 206.189 193.153 206.222 193.136L208.813 191.64C208.874 191.61 208.871 191.554 208.81 191.521ZM210.103 193.344L208.543 192.444C208.51 192.427 208.473 192.419 208.436 192.419C208.399 192.419 208.362 192.427 208.329 192.444L206.661 193.4C206.606 193.433 206.608 193.489 206.661 193.525L208.221 194.426C208.254 194.442 208.291 194.451 208.328 194.451C208.365 194.451 208.401 194.442 208.435 194.426L210.103 193.469C210.167 193.433 210.164 193.378 210.103 193.342V193.344ZM216.639 178.733C216.672 178.749 216.709 178.758 216.747 178.758C216.785 178.758 216.822 178.749 216.855 178.733L218.204 177.954C218.259 177.921 218.257 177.865 218.204 177.832L216.644 176.931C216.611 176.914 216.574 176.905 216.537 176.905C216.5 176.905 216.463 176.914 216.43 176.931L215.082 177.71C215.023 177.743 215.029 177.799 215.082 177.835L216.639 178.733ZM212.699 181.007C212.733 181.024 212.77 181.033 212.808 181.033C212.845 181.033 212.883 181.024 212.916 181.007L214.262 180.228C214.32 180.198 214.317 180.142 214.262 180.106L212.702 179.205C212.669 179.189 212.632 179.18 212.595 179.18C212.558 179.18 212.521 179.189 212.488 179.205L211.148 179.984C211.09 180.017 211.092 180.073 211.148 180.109L212.699 181.007ZM203.962 186.05C203.995 186.067 204.033 186.076 204.07 186.076C204.108 186.076 204.145 186.067 204.179 186.05L205.524 185.271C205.583 185.238 205.58 185.182 205.524 185.146L203.965 184.248C203.931 184.231 203.895 184.222 203.858 184.222C203.82 184.222 203.784 184.231 203.75 184.248L202.402 185.027C202.344 185.06 202.349 185.116 202.402 185.152L203.962 186.05ZM214.67 179.87C214.704 179.886 214.74 179.895 214.777 179.895C214.814 179.895 214.851 179.886 214.884 179.87L216.233 179.091C216.291 179.058 216.286 179.002 216.233 178.969L214.676 178.068C214.642 178.051 214.605 178.042 214.567 178.042C214.53 178.042 214.493 178.051 214.459 178.068L213.111 178.847C213.055 178.88 213.058 178.936 213.111 178.972L214.67 179.87ZM210.731 182.144C210.764 182.161 210.801 182.17 210.838 182.17C210.875 182.17 210.912 182.161 210.945 182.144L212.293 181.368C212.349 181.335 212.346 181.279 212.293 181.243L210.734 180.342C210.701 180.325 210.664 180.316 210.627 180.316C210.59 180.316 210.553 180.325 210.52 180.342L209.171 181.121C209.116 181.151 209.119 181.207 209.171 181.243L210.731 182.144ZM211.187 193.486C211.153 193.469 211.116 193.46 211.079 193.46C211.041 193.46 211.004 193.469 210.97 193.486L208.896 194.684C208.841 194.718 208.843 194.773 208.896 194.807L210.456 195.707C210.489 195.724 210.526 195.733 210.563 195.733C210.6 195.733 210.637 195.724 210.67 195.707L212.744 194.509C212.799 194.476 212.797 194.42 212.744 194.384L211.187 193.486ZM207.904 183.776C207.937 183.792 207.974 183.801 208.011 183.801C208.048 183.801 208.085 183.792 208.118 183.776L209.466 182.997C209.522 182.964 209.519 182.908 209.466 182.872L207.907 181.971C207.873 181.955 207.837 181.946 207.8 181.946C207.762 181.946 207.726 181.955 207.693 181.971L206.344 182.75C206.289 182.783 206.291 182.839 206.344 182.872L207.904 183.776ZM205.933 184.913C205.966 184.93 206.003 184.939 206.04 184.939C206.077 184.939 206.114 184.93 206.147 184.913L207.495 184.134C207.554 184.101 207.551 184.045 207.495 184.009L205.938 183.108C205.905 183.092 205.867 183.083 205.83 183.083C205.792 183.083 205.755 183.092 205.722 183.108L204.376 183.887C204.318 183.92 204.32 183.976 204.376 184.009L205.933 184.913ZM247.683 172.403C247.65 172.386 247.613 172.377 247.576 172.377C247.539 172.377 247.502 172.386 247.469 172.403L244.149 174.318C244.094 174.351 244.097 174.407 244.149 174.443L245.709 175.344C245.742 175.36 245.779 175.369 245.816 175.369C245.853 175.369 245.89 175.36 245.923 175.344L249.248 173.451C249.306 173.417 249.304 173.362 249.248 173.328L247.683 172.403ZM243.327 174.905C243.293 174.888 243.257 174.88 243.22 174.88C243.182 174.88 243.146 174.888 243.113 174.905L241.764 175.683C241.709 175.716 241.711 175.772 241.764 175.805L243.324 176.706C243.357 176.722 243.394 176.731 243.431 176.731C243.468 176.731 243.505 176.722 243.538 176.706L244.886 175.928C244.942 175.894 244.939 175.839 244.886 175.803L243.327 174.905ZM216.639 189.669L217.987 188.891C218.045 188.857 218.042 188.802 217.987 188.768L216.43 187.907C216.397 187.89 216.36 187.881 216.323 187.881C216.286 187.881 216.249 187.89 216.216 187.907L214.868 188.685C214.809 188.718 214.812 188.774 214.868 188.81L216.427 189.711C216.462 189.725 216.499 189.731 216.536 189.728C216.573 189.725 216.609 189.713 216.641 189.694L216.639 189.669ZM239.385 177.181C239.351 177.164 239.315 177.155 239.277 177.155C239.24 177.155 239.204 177.164 239.17 177.181L237.822 177.96C237.764 177.993 237.769 178.049 237.822 178.085L239.379 178.983C239.413 179 239.45 179.009 239.487 179.009C239.525 179.009 239.562 179 239.596 178.983L240.944 178.204C241 178.171 240.997 178.116 240.944 178.079L239.385 177.181ZM249.651 171.254C249.617 171.237 249.58 171.228 249.543 171.228C249.505 171.228 249.468 171.237 249.434 171.254L248.086 172.033C248.03 172.066 248.033 172.122 248.086 172.158L249.646 173.056C249.679 173.073 249.715 173.082 249.753 173.082C249.79 173.082 249.826 173.073 249.86 173.056L251.208 172.278C251.266 172.244 251.261 172.189 251.208 172.152L249.651 171.254ZM253.179 171.015L249.393 168.83C249.359 168.813 249.323 168.804 249.285 168.804C249.248 168.804 249.212 168.813 249.178 168.83L247.83 169.609C247.772 169.639 247.777 169.695 247.83 169.731L251.614 171.916C251.647 171.933 251.684 171.942 251.722 171.942C251.76 171.942 251.797 171.933 251.831 171.916L253.179 171.138C253.246 171.132 253.243 171.077 253.182 171.04L253.179 171.015ZM232.023 181.429C231.99 181.413 231.953 181.404 231.916 181.404C231.879 181.404 231.842 181.413 231.809 181.429L230.141 182.386C230.083 182.419 230.088 182.475 230.141 182.511L231.698 183.411C231.732 183.428 231.769 183.436 231.806 183.436C231.844 183.436 231.881 183.428 231.915 183.411L233.583 182.455C233.638 182.422 233.635 182.366 233.583 182.33L232.023 181.429ZM237.002 178.583C236.969 178.565 236.932 178.557 236.895 178.557C236.858 178.557 236.821 178.565 236.788 178.583L234.714 179.781C234.659 179.814 234.661 179.87 234.714 179.906L236.274 180.804C236.307 180.821 236.343 180.83 236.381 180.83C236.418 180.83 236.455 180.821 236.488 180.804L238.562 179.606C238.617 179.572 238.614 179.517 238.562 179.483L237.002 178.583ZM227.464 184.09C227.431 184.073 227.394 184.064 227.357 184.064C227.32 184.064 227.283 184.073 227.25 184.09L216.155 190.484C216.096 190.517 216.102 190.573 216.155 190.609L217.712 191.51C217.745 191.526 217.782 191.535 217.82 191.535C217.858 191.535 217.895 191.526 217.928 191.51L229.021 185.116C229.079 185.082 229.076 185.027 229.021 184.993L227.464 184.09ZM215.749 190.853C215.715 190.836 215.678 190.827 215.641 190.827C215.603 190.827 215.566 190.836 215.532 190.853L213.864 191.81C213.809 191.843 213.811 191.899 213.864 191.935L215.424 192.833C215.457 192.85 215.493 192.859 215.531 192.859C215.568 192.859 215.605 192.85 215.638 192.833L217.306 191.874C217.364 191.843 217.359 191.788 217.306 191.751L215.749 190.853ZM229.746 182.772C229.713 182.755 229.676 182.746 229.638 182.746C229.6 182.746 229.563 182.755 229.529 182.772L227.861 183.728C227.803 183.762 227.806 183.817 227.861 183.853L229.421 184.751C229.454 184.768 229.491 184.777 229.528 184.777C229.565 184.777 229.602 184.768 229.635 184.751L231.303 183.792C231.361 183.762 231.356 183.706 231.303 183.67L229.746 182.772ZM213.467 192.171C213.433 192.154 213.397 192.145 213.36 192.145C213.322 192.145 213.286 192.154 213.253 192.171L211.585 193.13C211.526 193.164 211.532 193.219 211.585 193.255L213.141 194.153C213.175 194.17 213.212 194.179 213.25 194.179C213.287 194.179 213.325 194.17 213.358 194.153L215.026 193.194C215.085 193.161 215.082 193.105 215.026 193.072L213.467 192.171ZM234.317 180.139C234.283 180.122 234.246 180.113 234.208 180.113C234.17 180.113 234.133 180.122 234.1 180.139L232.432 181.098C232.373 181.132 232.376 181.187 232.432 181.221L233.991 182.121C234.025 182.138 234.061 182.146 234.098 182.146C234.135 182.146 234.172 182.138 234.205 182.121L235.873 181.162C235.932 181.129 235.926 181.073 235.873 181.037L234.317 180.139ZM241.367 176.067C241.333 176.05 241.296 176.042 241.258 176.042C241.221 176.042 241.184 176.05 241.15 176.067L239.804 176.845C239.746 176.878 239.749 176.934 239.804 176.967L241.364 177.868C241.397 177.885 241.434 177.894 241.471 177.894C241.508 177.894 241.545 177.885 241.578 177.868L242.926 177.09C242.985 177.056 242.982 177.001 242.926 176.965L241.367 176.067ZM245.684 172.934L247.03 172.155C247.088 172.122 247.085 172.066 247.03 172.03L245.47 171.132C245.437 171.115 245.4 171.106 245.363 171.106C245.326 171.106 245.289 171.115 245.256 171.132L243.908 171.911C243.849 171.944 243.852 172 243.908 172.036L245.464 172.934C245.497 172.95 245.533 172.958 245.57 172.958C245.607 172.958 245.643 172.95 245.676 172.934H245.684ZM236.874 172.875L238.222 172.097C238.281 172.066 238.275 172.011 238.222 171.974L236.666 171.074C236.632 171.057 236.595 171.049 236.557 171.049C236.52 171.049 236.483 171.057 236.449 171.074L235.101 171.852C235.045 171.886 235.048 171.941 235.101 171.977L236.66 172.878C236.692 172.893 236.728 172.901 236.763 172.9C236.799 172.9 236.834 172.891 236.866 172.875H236.874ZM232.426 180.595L236.365 178.321C236.421 178.288 236.418 178.232 236.365 178.196L234.778 177.295C234.745 177.279 234.708 177.27 234.671 177.27C234.634 177.27 234.597 177.279 234.564 177.295L230.622 179.567C230.564 179.6 230.566 179.656 230.622 179.692L232.179 180.59C232.213 180.609 232.251 180.62 232.291 180.621C232.33 180.622 232.369 180.613 232.404 180.595H232.426ZM243.513 174.065C243.546 174.082 243.583 174.091 243.62 174.091C243.657 174.091 243.694 174.082 243.727 174.065L245.075 173.287C245.131 173.253 245.128 173.198 245.075 173.162L243.516 172.264C243.483 172.247 243.446 172.238 243.409 172.238C243.371 172.238 243.335 172.247 243.302 172.264L241.953 173.042C241.898 173.075 241.9 173.131 241.953 173.167L243.513 174.065ZM241.5 172.786L242.848 172.008C242.904 171.974 242.901 171.919 242.848 171.883L241.289 170.982C241.256 170.965 241.219 170.956 241.182 170.956C241.145 170.956 241.108 170.965 241.075 170.982L239.726 171.76C239.671 171.791 239.674 171.847 239.726 171.883L241.286 172.783C241.316 172.797 241.349 172.804 241.382 172.805C241.415 172.805 241.447 172.799 241.478 172.786H241.5ZM230.455 181.732L231.803 180.954C231.859 180.921 231.856 180.865 231.803 180.832L230.244 179.931C230.211 179.914 230.174 179.905 230.137 179.905C230.1 179.905 230.063 179.914 230.03 179.931L228.682 180.709C228.626 180.743 228.629 180.798 228.682 180.834L230.241 181.735C230.272 181.748 230.304 181.754 230.337 181.754C230.37 181.753 230.403 181.746 230.433 181.732H230.455ZM239.157 176.581C239.19 176.598 239.226 176.607 239.264 176.607C239.301 176.607 239.338 176.598 239.371 176.581L240.719 175.803C240.777 175.769 240.775 175.714 240.719 175.68L239.159 174.78C239.126 174.763 239.089 174.755 239.052 174.755C239.015 174.755 238.979 174.763 238.945 174.78L237.597 175.558C237.539 175.591 237.541 175.647 237.597 175.683L239.157 176.581ZM220.606 187.423L221.954 186.645C222.01 186.611 222.007 186.556 221.954 186.519L220.394 185.622C220.361 185.604 220.325 185.596 220.287 185.596C220.25 185.596 220.213 185.604 220.18 185.622L218.832 186.4C218.774 186.433 218.779 186.489 218.832 186.525L220.389 187.423C220.42 187.436 220.453 187.443 220.486 187.442C220.52 187.442 220.553 187.434 220.583 187.42L220.606 187.423ZM222.574 186.286L223.922 185.508C223.981 185.474 223.978 185.419 223.922 185.382L222.365 184.482C222.332 184.465 222.295 184.457 222.258 184.457C222.221 184.457 222.185 184.465 222.151 184.482L220.803 185.26C220.745 185.293 220.747 185.349 220.803 185.382L222.363 186.283C222.392 186.296 222.423 186.302 222.454 186.302C222.486 186.302 222.517 186.296 222.546 186.283L222.574 186.286ZM218.635 188.56L219.983 187.782C220.041 187.748 220.036 187.693 219.983 187.656L218.426 186.759C218.393 186.741 218.355 186.733 218.318 186.733C218.28 186.733 218.243 186.741 218.209 186.759L216.861 187.537C216.805 187.57 216.808 187.626 216.861 187.662L218.421 188.56C218.451 188.573 218.484 188.58 218.517 188.579C218.55 188.579 218.582 188.571 218.612 188.557L218.635 188.56ZM226.494 184.015L227.839 183.239C227.898 183.206 227.895 183.15 227.839 183.114L226.28 182.213C226.247 182.196 226.21 182.187 226.173 182.187C226.135 182.187 226.099 182.196 226.066 182.213L224.717 182.992C224.659 183.022 224.664 183.078 224.717 183.114L226.274 184.015C226.308 184.032 226.346 184.041 226.384 184.041C226.422 184.041 226.46 184.032 226.494 184.015ZM224.523 185.154L225.871 184.376C225.927 184.343 225.924 184.287 225.871 184.251L224.311 183.35C224.278 183.334 224.241 183.325 224.204 183.325C224.167 183.325 224.131 183.334 224.097 183.35L222.749 184.129C222.693 184.162 222.696 184.218 222.749 184.251L224.309 185.152C224.342 185.167 224.379 185.175 224.416 185.174C224.453 185.173 224.49 185.163 224.523 185.146V185.154ZM228.462 182.878L229.81 182.099C229.869 182.066 229.863 182.01 229.81 181.977L228.253 181.076C228.22 181.06 228.183 181.051 228.145 181.051C228.107 181.051 228.07 181.06 228.037 181.076L226.691 181.855C226.633 181.888 226.635 181.944 226.691 181.98L228.251 182.88C228.284 182.895 228.321 182.901 228.358 182.899C228.394 182.897 228.43 182.887 228.462 182.869V182.878ZM237.475 166.053C237.508 166.07 237.545 166.079 237.583 166.079C237.621 166.079 237.658 166.07 237.692 166.053L239.04 165.275C239.095 165.244 239.093 165.189 239.04 165.152L238.626 164.913C238.592 164.896 238.555 164.887 238.517 164.887C238.479 164.887 238.442 164.896 238.409 164.913L237.06 165.692C237.005 165.725 237.008 165.781 237.06 165.817L237.475 166.053ZM227.784 172.308C227.817 172.325 227.853 172.334 227.891 172.334C227.928 172.334 227.965 172.325 227.998 172.308L229.346 171.53C229.402 171.496 229.399 171.441 229.346 171.405L227.786 170.507C227.753 170.49 227.717 170.481 227.679 170.481C227.642 170.481 227.605 170.49 227.572 170.507L226.224 171.285C226.168 171.318 226.171 171.374 226.224 171.41L227.784 172.308ZM231.72 170.026C231.753 170.043 231.79 170.052 231.827 170.052C231.864 170.052 231.901 170.043 231.934 170.026L233.282 169.247C233.341 169.214 233.335 169.158 233.282 169.122L231.726 168.221C231.692 168.205 231.655 168.196 231.617 168.196C231.58 168.196 231.543 168.205 231.509 168.221L230.16 169C230.105 169.033 230.108 169.089 230.16 169.122L231.72 170.026ZM225.373 173.69C225.407 173.706 225.444 173.715 225.482 173.715C225.519 173.715 225.556 173.706 225.59 173.69L226.938 172.911C226.994 172.878 226.991 172.822 226.938 172.786L225.379 171.886C225.346 171.869 225.309 171.861 225.272 171.861C225.235 171.861 225.198 171.869 225.165 171.886L223.817 172.664C223.758 172.695 223.764 172.75 223.817 172.786L225.373 173.69ZM229.749 171.163C229.783 171.18 229.82 171.189 229.857 171.189C229.895 171.189 229.932 171.18 229.966 171.163L231.311 170.384C231.37 170.351 231.367 170.295 231.311 170.259L229.752 169.361C229.719 169.344 229.682 169.335 229.645 169.335C229.608 169.335 229.571 169.344 229.538 169.361L228.189 170.14C228.131 170.173 228.134 170.229 228.189 170.265L229.749 171.163ZM221.434 175.953C221.467 175.97 221.504 175.979 221.541 175.979C221.578 175.979 221.615 175.97 221.648 175.953L222.996 175.174C223.055 175.141 223.052 175.085 222.996 175.049L221.434 174.168C221.401 174.151 221.364 174.142 221.327 174.142C221.29 174.142 221.253 174.151 221.22 174.168L219.872 174.946C219.813 174.98 219.816 175.035 219.872 175.071L221.434 175.953ZM223.408 174.841C223.441 174.858 223.478 174.867 223.515 174.867C223.552 174.867 223.589 174.858 223.622 174.841L224.97 174.062C225.029 174.029 225.023 173.973 224.97 173.937L223.411 173.036C223.377 173.02 223.341 173.011 223.304 173.011C223.266 173.011 223.23 173.02 223.197 173.036L221.848 173.815C221.793 173.848 221.795 173.904 221.848 173.937L223.408 174.841ZM233.535 168.333C233.568 168.35 233.605 168.359 233.642 168.359C233.68 168.359 233.716 168.35 233.749 168.333L235.098 167.554C235.156 167.521 235.153 167.465 235.098 167.429L234.684 167.19C234.65 167.173 234.614 167.164 234.577 167.164C234.539 167.164 234.503 167.173 234.469 167.19L233.121 167.969C233.063 168.002 233.068 168.057 233.121 168.094L233.535 168.333ZM239.446 164.922C239.479 164.938 239.516 164.947 239.553 164.947C239.59 164.947 239.626 164.938 239.66 164.922L241.008 164.143C241.066 164.11 241.064 164.054 241.008 164.021L240.594 163.782C240.561 163.765 240.524 163.756 240.487 163.756C240.45 163.756 240.413 163.765 240.38 163.782L239.031 164.56C238.973 164.594 238.979 164.649 239.031 164.685L239.446 164.922ZM242.721 166.812C242.754 166.828 242.79 166.837 242.828 166.837C242.865 166.837 242.901 166.828 242.935 166.812L244.283 166.034C244.341 166 244.336 165.945 244.283 165.911L242.723 165.011C242.69 164.994 242.654 164.985 242.616 164.985C242.579 164.985 242.542 164.994 242.509 165.011L241.161 165.789C241.105 165.822 241.108 165.878 241.161 165.914L242.721 166.812ZM247.644 171.816L248.992 171.038C249.051 171.004 249.045 170.949 248.992 170.913L247.435 170.012C247.402 169.995 247.365 169.987 247.327 169.987C247.289 169.987 247.252 169.995 247.219 170.012L245.87 170.79C245.815 170.824 245.817 170.879 245.87 170.913L247.43 171.813C247.464 171.828 247.502 171.834 247.539 171.831C247.576 171.828 247.612 171.816 247.644 171.797V171.816ZM235.506 167.201C235.54 167.218 235.576 167.226 235.613 167.226C235.651 167.226 235.687 167.218 235.72 167.201L237.069 166.423C237.124 166.389 237.122 166.334 237.069 166.298L236.655 166.059C236.621 166.042 236.585 166.033 236.548 166.033C236.51 166.033 236.474 166.042 236.441 166.059L235.092 166.837C235.034 166.87 235.037 166.926 235.092 166.962L235.506 167.201ZM219.466 177.12C219.499 177.137 219.537 177.146 219.574 177.146C219.612 177.146 219.649 177.137 219.683 177.12L221.031 176.342C221.087 176.309 221.084 176.253 221.031 176.217L219.471 175.319C219.438 175.302 219.402 175.293 219.364 175.293C219.327 175.293 219.29 175.302 219.257 175.319L217.909 176.097C217.851 176.131 217.856 176.186 217.909 176.222L219.466 177.12Z" fill="#455A64"/>
<path d="M228.203 188.927L241.505 181.235C241.73 181.121 241.979 181.062 242.231 181.062C242.483 181.062 242.732 181.121 242.957 181.235L250.585 185.638C250.985 185.872 250.985 186.247 250.585 186.472L237.28 194.167C237.055 194.282 236.807 194.342 236.554 194.342C236.302 194.342 236.053 194.282 235.829 194.167L228.2 189.764C227.803 189.533 227.803 189.158 228.203 188.927Z" fill="#263238"/>
<path d="M231.111 121.247V123.279L200.834 140.76C200.626 140.88 200.456 140.782 200.456 140.54L200.478 139.812C200.298 139.74 200.112 139.682 199.922 139.64L190.854 144.874C190.744 144.947 190.652 145.044 190.586 145.159C190.519 145.273 190.481 145.401 190.473 145.533V146.301C190.467 146.433 190.429 146.561 190.363 146.676C190.298 146.79 190.206 146.887 190.095 146.959L189.05 147.563V145.533C189.056 145.401 189.094 145.273 189.159 145.158C189.225 145.044 189.317 144.947 189.428 144.874L230.733 121.028C230.942 120.908 231.111 121.005 231.111 121.247Z" fill="#212121"/>
<path d="M231.114 151.677C231.107 151.809 231.069 151.937 231.002 152.051C230.936 152.165 230.844 152.262 230.733 152.333L189.428 176.18C189.219 176.302 189.05 176.202 189.05 175.96V147.563L190.095 146.959C190.304 146.84 190.651 144.997 190.854 144.874L199.922 139.64C200.131 139.52 200.626 140.879 200.834 140.752L231.111 123.279V151.677H231.114Z" fill="#EBEBEB"/>
<path d="M190.854 155.347L208.996 144.864C209.205 144.741 209.374 144.842 209.374 145.083V162.914C209.368 163.046 209.33 163.175 209.265 163.289C209.199 163.404 209.107 163.501 208.996 163.573L190.854 174.057C190.645 174.176 190.476 174.079 190.476 173.837V156.006C190.482 155.874 190.52 155.746 190.586 155.631C190.651 155.517 190.743 155.419 190.854 155.347Z" fill="#FAFAFA"/>
<path d="M190.854 150.637L229.31 128.436C229.518 128.314 229.688 128.414 229.688 128.656V131.327C229.681 131.459 229.643 131.587 229.577 131.701C229.512 131.815 229.42 131.912 229.31 131.983L190.854 154.187C190.645 154.307 190.476 154.209 190.476 153.968V151.296C190.482 151.164 190.52 151.036 190.586 150.921C190.651 150.806 190.743 150.709 190.854 150.637Z" fill="#455A64"/>
<path d="M215.429 138.567V139.273C215.429 139.42 215.532 139.479 215.657 139.406L226.836 132.951V131.717L215.657 138.172C215.591 138.215 215.536 138.274 215.496 138.342C215.457 138.411 215.434 138.488 215.429 138.567Z" fill="#FAFAFA"/>
<path d="M228.034 131.025C228.162 130.952 228.262 131.025 228.262 131.155V131.864C228.258 131.943 228.235 132.02 228.195 132.089C228.156 132.158 228.1 132.216 228.034 132.259L226.835 132.951V131.717L228.034 131.025Z" fill="#212121"/>
<path d="M227.948 131.995L227.811 131.953C227.826 131.897 227.833 131.839 227.834 131.781C227.839 131.728 227.83 131.674 227.809 131.626C227.787 131.577 227.754 131.535 227.711 131.503C227.682 131.485 227.648 131.476 227.614 131.476C227.58 131.476 227.546 131.485 227.517 131.503C227.43 131.567 227.359 131.65 227.311 131.747C227.262 131.844 227.238 131.95 227.239 132.059C227.234 132.111 227.243 132.165 227.264 132.213C227.286 132.262 227.319 132.304 227.361 132.337C227.387 132.351 227.417 132.359 227.447 132.359C227.486 132.358 227.523 132.346 227.556 132.325C227.655 132.258 227.731 132.161 227.772 132.047L227.906 132.089H227.92C227.93 132.09 227.941 132.087 227.949 132.081C227.958 132.074 227.964 132.066 227.967 132.056C227.971 132.045 227.972 132.033 227.968 132.022C227.965 132.01 227.957 132.001 227.948 131.995ZM227.517 132.25C227.502 132.259 227.486 132.263 227.469 132.263C227.453 132.263 227.436 132.259 227.422 132.25C227.395 132.225 227.374 132.194 227.362 132.159C227.349 132.124 227.345 132.087 227.35 132.05C227.349 131.961 227.368 131.872 227.405 131.791C227.443 131.709 227.498 131.638 227.567 131.58C227.585 131.569 227.606 131.563 227.628 131.561C227.639 131.557 227.651 131.557 227.661 131.561C227.709 131.586 227.734 131.661 227.734 131.758C227.739 131.852 227.723 131.945 227.685 132.031C227.647 132.116 227.59 132.192 227.517 132.25Z" fill="#FAFAFA"/>
<path d="M231.111 123.279V125.751L189.05 150.034V147.563L189.831 147.112C190.039 146.99 190.109 146.806 190.209 146.453L190.473 145.533C190.488 145.403 190.53 145.278 190.596 145.165C190.661 145.051 190.749 144.952 190.854 144.874L199.922 139.64C199.963 139.604 200.011 139.578 200.064 139.565C200.116 139.552 200.171 139.552 200.224 139.565C200.276 139.578 200.325 139.603 200.365 139.639C200.406 139.675 200.437 139.72 200.456 139.77L200.781 140.36C200.901 140.565 200.959 140.688 201.168 140.565L231.111 123.279Z" fill="#E6E6E6"/>
<path d="M229.332 122.523C229.61 122.37 229.81 122.492 229.81 122.801C229.802 122.968 229.755 123.13 229.671 123.275C229.588 123.42 229.472 123.544 229.332 123.635C229.054 123.788 228.851 123.663 228.851 123.357C228.859 123.189 228.906 123.026 228.99 122.881C229.074 122.736 229.191 122.613 229.332 122.523Z" fill="#455A64"/>
<path d="M227.609 123.516C227.873 123.363 228.087 123.485 228.087 123.794C228.079 123.961 228.031 124.124 227.948 124.268C227.865 124.413 227.749 124.537 227.609 124.628C227.331 124.781 227.13 124.656 227.13 124.35C227.138 124.183 227.186 124.02 227.269 123.875C227.352 123.73 227.468 123.607 227.609 123.516Z" fill="#455A64"/>
<path d="M225.882 124.522C226.146 124.369 226.36 124.491 226.36 124.8C226.352 124.967 226.305 125.129 226.221 125.274C226.138 125.419 226.022 125.543 225.882 125.634C225.604 125.787 225.404 125.662 225.404 125.356C225.412 125.189 225.459 125.026 225.542 124.881C225.625 124.736 225.742 124.613 225.882 124.522Z" fill="#455A64"/>
<path opacity="0.5" d="M190.793 147.743L190.195 148.085L190.423 147.649C190.432 147.633 190.436 147.614 190.436 147.596C190.436 147.578 190.432 147.559 190.423 147.543C190.404 147.521 190.373 147.543 190.354 147.574L190.031 148.196V148.219C190.03 148.23 190.03 148.241 190.031 148.252C190.03 148.26 190.03 148.269 190.031 148.277V148.291L190.354 148.541C190.359 148.544 190.365 148.545 190.37 148.545C190.376 148.545 190.382 148.544 190.387 148.541C190.402 148.528 190.415 148.512 190.423 148.494C190.432 148.478 190.437 148.461 190.437 148.443C190.437 148.424 190.432 148.407 190.423 148.391L190.195 148.219L190.793 147.874C190.808 147.861 190.82 147.846 190.828 147.828C190.836 147.81 190.84 147.791 190.84 147.771C190.854 147.746 190.818 147.727 190.793 147.743Z" fill="#455A64"/>
<path opacity="0.5" d="M191.29 147.455L191.888 147.11L191.66 146.935C191.641 146.921 191.638 146.874 191.66 146.835C191.682 146.796 191.707 146.773 191.727 146.787L192.052 147.038C192.054 147.047 192.054 147.056 192.052 147.065C192.053 147.076 192.053 147.088 192.052 147.099C192.053 147.106 192.053 147.114 192.052 147.121L191.727 147.744C191.72 147.758 191.709 147.77 191.696 147.78C191.691 147.784 191.685 147.786 191.678 147.786C191.672 147.786 191.665 147.784 191.66 147.78C191.651 147.764 191.647 147.745 191.647 147.727C191.647 147.709 191.651 147.69 191.66 147.674L191.888 147.235L191.29 147.596C191.263 147.613 191.243 147.596 191.243 147.552C191.243 147.533 191.248 147.515 191.256 147.498C191.264 147.481 191.276 147.466 191.29 147.455Z" fill="#455A64"/>
<path opacity="0.5" d="M193.248 145.736C193.248 145.7 193.211 145.705 193.198 145.736L193.114 145.936C192.975 145.919 192.806 146.056 192.692 146.298C192.544 146.612 192.544 146.981 192.692 147.132C192.729 147.167 192.777 147.187 192.828 147.19C192.878 147.193 192.929 147.179 192.97 147.148C193.092 147.07 193.189 146.957 193.248 146.823C193.267 146.781 193.267 146.734 193.248 146.717C193.228 146.701 193.198 146.717 193.181 146.756C193.07 146.99 192.903 147.093 192.781 146.987C192.725 146.894 192.695 146.788 192.695 146.68C192.695 146.572 192.725 146.465 192.781 146.373C192.858 146.206 192.972 146.095 193.059 146.095L192.997 146.245C192.981 146.284 192.997 146.323 193.02 146.306L193.264 146.147C193.274 146.139 193.281 146.129 193.286 146.117C193.291 146.106 193.293 146.093 193.292 146.081L193.248 145.736Z" fill="#455A64"/>
<path opacity="0.5" d="M199.658 140.768L199.878 140.307C199.89 140.285 199.897 140.261 199.897 140.236C199.897 140.211 199.89 140.187 199.878 140.165C199.85 140.14 199.808 140.165 199.783 140.218L199.567 140.679L199.35 140.468C199.322 140.446 199.283 140.468 199.255 140.524C199.243 140.545 199.236 140.57 199.236 140.595C199.236 140.619 199.243 140.644 199.255 140.665L199.472 140.877L199.255 141.335C199.243 141.357 199.236 141.382 199.236 141.408C199.236 141.433 199.243 141.458 199.255 141.48C199.262 141.485 199.27 141.487 199.279 141.487C199.287 141.487 199.296 141.485 199.302 141.48C199.323 141.465 199.339 141.445 199.35 141.422L199.567 140.963L199.783 141.171C199.787 141.175 199.79 141.177 199.794 141.179C199.798 141.18 199.803 141.181 199.807 141.181C199.811 141.181 199.816 141.18 199.82 141.179C199.824 141.177 199.828 141.175 199.831 141.171C199.852 141.158 199.868 141.139 199.878 141.116C199.891 141.094 199.897 141.069 199.897 141.044C199.897 141.018 199.891 140.993 199.878 140.971L199.658 140.768Z" fill="#455A64"/>
<path d="M194.04 146.304V145.534C194.046 145.402 194.084 145.273 194.149 145.159C194.215 145.044 194.307 144.947 194.418 144.875L228.595 125.154C228.804 125.034 228.973 125.131 228.973 125.373V126.143C228.967 126.275 228.929 126.404 228.864 126.518C228.798 126.633 228.706 126.73 228.595 126.802L194.418 146.523C194.209 146.643 194.04 146.546 194.04 146.304Z" fill="#FAFAFA"/>
<path d="M228.384 125.561L228.484 125.773C228.489 125.776 228.494 125.778 228.499 125.778C228.505 125.778 228.51 125.776 228.515 125.773L228.74 125.686C228.773 125.686 228.79 125.723 228.762 125.77L228.601 126.073C228.596 126.092 228.596 126.112 228.601 126.131L228.64 126.409C228.64 126.451 228.606 126.509 228.576 126.507L228.376 126.482C228.368 126.481 228.36 126.483 228.353 126.487C228.346 126.491 228.341 126.497 228.337 126.504L228.137 126.76C228.103 126.798 228.067 126.785 228.073 126.735L228.112 126.418C228.115 126.411 228.117 126.403 228.117 126.395C228.117 126.388 228.115 126.38 228.112 126.373L227.948 126.256C227.923 126.237 227.948 126.17 227.973 126.142L228.195 125.973C228.211 125.959 228.223 125.941 228.228 125.92L228.328 125.595C228.312 125.553 228.356 125.528 228.384 125.561Z" stroke="#E0E0E0" stroke-width="0.75" stroke-miterlimit="10"/>
<g opacity="0.5">
<path d="M229.421 125.061C229.398 125.06 229.375 125.054 229.355 125.042C229.335 125.031 229.319 125.014 229.307 124.994C229.29 124.964 229.286 124.927 229.295 124.894C229.304 124.86 229.327 124.831 229.357 124.814L230.425 124.196C230.454 124.184 230.487 124.183 230.518 124.194C230.548 124.204 230.574 124.225 230.59 124.253C230.606 124.28 230.612 124.313 230.606 124.344C230.6 124.376 230.583 124.404 230.558 124.424L229.496 125.041C229.474 125.056 229.447 125.063 229.421 125.061Z" fill="#455A64"/>
<path d="M229.421 125.678C229.398 125.678 229.375 125.671 229.355 125.659C229.335 125.648 229.319 125.631 229.307 125.611C229.299 125.596 229.293 125.58 229.291 125.563C229.289 125.546 229.291 125.529 229.295 125.512C229.3 125.496 229.308 125.48 229.318 125.467C229.329 125.453 229.342 125.442 229.357 125.433L230.425 124.814C230.454 124.801 230.487 124.8 230.518 124.811C230.548 124.821 230.574 124.842 230.59 124.87C230.606 124.897 230.612 124.93 230.606 124.962C230.6 124.993 230.583 125.022 230.558 125.042L229.496 125.661C229.473 125.674 229.447 125.68 229.421 125.678Z" fill="#455A64"/>
<path d="M229.421 126.296C229.392 126.296 229.364 126.286 229.341 126.268C229.318 126.251 229.302 126.226 229.295 126.198C229.287 126.17 229.289 126.14 229.301 126.114C229.312 126.087 229.332 126.065 229.357 126.051L230.425 125.434C230.439 125.424 230.456 125.418 230.473 125.416C230.491 125.413 230.508 125.414 230.525 125.418C230.542 125.423 230.558 125.431 230.572 125.441C230.586 125.452 230.597 125.466 230.605 125.481C230.623 125.511 230.627 125.547 230.619 125.581C230.61 125.615 230.588 125.644 230.558 125.662L229.496 126.279C229.473 126.291 229.447 126.297 229.421 126.296Z" fill="#455A64"/>
</g>
<path d="M199.163 159.551C200.69 157.997 201.082 157.29 201.082 156.668C201.082 156.045 200.82 155.653 200.009 156.112C199.435 156.432 199.006 156.959 198.808 157.585C198.757 157.717 198.677 157.835 198.574 157.931C198.471 158.028 198.347 158.099 198.213 158.141L197.153 158.375C196.9 158.433 196.731 158.272 196.792 158.019C197.256 156.126 198.427 154.377 200.07 153.429C202.043 152.289 203.194 153.151 203.194 155.075C203.194 156.923 202.221 158.466 201.248 159.576C201.067 159.808 200.961 160.09 200.945 160.385V161.013C200.938 161.154 200.897 161.291 200.826 161.413C200.756 161.535 200.658 161.639 200.54 161.716L199.238 162.467C199.013 162.597 198.833 162.492 198.833 162.233V160.337C198.852 160.046 198.969 159.769 199.163 159.551Z" fill="#455A64"/>
<path d="M198.808 165.074C198.805 164.688 198.903 164.308 199.091 163.971C199.28 163.634 199.553 163.352 199.884 163.153C200.581 162.747 200.945 163.106 200.945 163.84C200.951 164.226 200.856 164.607 200.67 164.945C200.484 165.283 200.213 165.567 199.884 165.769C199.169 166.181 198.808 165.808 198.808 165.074Z" fill="#455A64"/>
<path d="M241.914 114.759L240.894 114.164C240.795 114.117 240.685 114.097 240.576 114.107C240.467 114.117 240.362 114.157 240.274 114.223L214.873 128.884C214.62 129.05 214.408 129.272 214.257 129.535C214.105 129.797 214.017 130.091 214 130.394V166.926C213.991 167.032 214.008 167.139 214.052 167.236C214.095 167.333 214.162 167.418 214.248 167.482L215.276 168.077L240.263 152.759C240.517 152.593 240.727 152.37 240.879 152.108C241.03 151.846 241.117 151.552 241.133 151.249L241.914 114.759Z" fill="#212121"/>
<path opacity="0.15" d="M215.26 168.077L214.245 167.49C214.159 167.427 214.092 167.342 214.049 167.245C214.006 167.147 213.989 167.04 214 166.934V130.394C214.012 130.073 214.108 129.762 214.278 129.49L215.318 130.082C215.147 130.354 215.051 130.667 215.04 130.989V167.523C215.028 167.627 215.042 167.731 215.08 167.828C215.118 167.924 215.18 168.01 215.26 168.077Z" fill="black"/>
<path d="M215.893 129.482L241.294 114.817C241.775 114.539 242.164 114.765 242.164 115.321V151.853C242.148 152.155 242.061 152.449 241.91 152.711C241.759 152.974 241.548 153.196 241.294 153.362L215.893 168.027C215.412 168.305 215.021 168.079 215.021 167.523V130.989C215.038 130.687 215.126 130.393 215.277 130.131C215.429 129.869 215.64 129.647 215.893 129.482Z" fill="#212121"/>
<path opacity="0.4" d="M240.894 114.164L241.889 114.739C241.793 114.704 241.689 114.693 241.588 114.707C241.486 114.72 241.389 114.758 241.305 114.817L215.905 129.481C215.663 129.631 215.462 129.837 215.318 130.082L214.287 129.49C214.43 129.243 214.631 129.035 214.873 128.884L240.26 114.236C240.349 114.171 240.453 114.131 240.562 114.122C240.672 114.112 240.782 114.132 240.88 114.18L240.894 114.164Z" fill="white"/>
<path d="M218.776 130.916L239.118 119.17C239.482 118.959 239.777 119.132 239.777 119.551V150.801C239.764 151.03 239.698 151.253 239.583 151.451C239.469 151.65 239.309 151.818 239.118 151.944L218.776 163.667C218.412 163.876 218.115 163.706 218.115 163.286V132.064C218.126 131.834 218.191 131.61 218.307 131.41C218.422 131.21 218.583 131.041 218.776 130.916Z" fill="white"/>
<path d="M234.895 137.796L235.101 137.627C234.761 137.259 234.32 136.999 233.833 136.882L233.766 137.138C234.198 137.244 234.59 137.473 234.895 137.796Z" fill="#37474F"/>
<path d="M235.348 138.833L234.928 138.422C234.829 138.318 234.773 138.181 234.773 138.037C234.773 137.893 234.829 137.756 234.928 137.652C235.032 137.553 235.17 137.497 235.313 137.497C235.457 137.497 235.595 137.553 235.698 137.652L236.115 138.063C236.215 138.167 236.27 138.305 236.27 138.448C236.27 138.592 236.215 138.73 236.115 138.833C236.012 138.932 235.874 138.987 235.732 138.987C235.589 138.987 235.451 138.932 235.348 138.833Z" fill="#212121"/>
<mask id="mask2_1187_38523" style="mask-type:luminance" maskUnits="userSpaceOnUse" x="218" y="119" width="22" height="45">
<path d="M218.776 130.916L239.118 119.17C239.482 118.959 239.777 119.132 239.777 119.551V150.801C239.764 151.03 239.698 151.253 239.583 151.451C239.469 151.65 239.309 151.818 239.118 151.944L218.776 163.667C218.412 163.876 218.115 163.706 218.115 163.286V132.064C218.126 131.834 218.191 131.61 218.307 131.41C218.422 131.21 218.583 131.041 218.776 130.916Z" fill="white"/>
</mask>
<g mask="url(#mask2_1187_38523)">
<path d="M239.048 148.335L239.988 149.942C239.988 149.942 246.143 146.678 246.49 146.25C246.838 145.822 246.816 144.957 246.868 144.49C246.955 143.712 246.668 143.042 246.627 142.761C246.557 142.272 247.26 142.244 247.608 142.925C247.864 143.42 247.886 143.987 248.103 143.992C248.413 143.774 248.703 143.528 248.967 143.256C249.348 142.839 250.038 142.144 250.56 142.238C250.649 142.259 250.73 142.306 250.792 142.373C250.854 142.439 250.894 142.523 250.908 142.614C250.923 142.901 250.989 143.183 251.102 143.448C251.187 143.548 251.257 143.66 251.308 143.781C251.325 143.961 251.325 144.141 251.308 144.32C251.33 144.579 251.586 144.687 251.614 144.94C251.606 145.135 251.585 145.329 251.55 145.521C251.55 145.647 251.589 145.755 251.589 145.88C251.562 146.137 251.451 146.377 251.272 146.564C250.751 147.171 250.134 147.687 249.445 148.093C248.889 148.46 248.144 148.785 247.499 149.13C246.855 149.475 239.61 155.04 238.645 154.384C238.25 154.106 237.211 152.78 236.118 151.295" fill="#FFA8A7"/>
<path d="M235.89 151.488C234.78 149.941 233.759 148.333 232.832 146.67C231.72 143.556 232.98 141.482 232.98 141.482C232.98 141.482 234.578 140.988 235.91 143.089C236.496 144.015 238.031 146.617 239.037 148.335" fill="#FFA8A7"/>
<path d="M230.183 141.53C230.183 141.53 231.945 140.815 233.088 140.89C234.231 140.965 235.076 141.288 235.915 142.636C237.027 144.435 238.887 147.543 238.887 147.543C238.101 149.159 236.847 150.501 235.287 151.393L231.873 146.245L230.183 141.53Z" fill="#455A64"/>
<path d="M224.589 144.643C224.002 145.117 223.568 145.755 223.344 146.475C223.083 147.346 222.956 148.252 222.966 149.161V155.013L222.891 166.088C226.605 167.353 231.325 166.238 235.287 161.835C235.287 161.835 235.067 147.657 235.067 145.341C235.067 145.236 235.067 145.13 235.067 145.022C234.923 141.738 232.09 140.215 229.299 141.794L226.952 143.117L224.598 144.643H224.589Z" fill="#F0F0F0"/>
<path d="M225.882 131.172C225.882 131.172 224.061 131.03 223.658 132.72C223.288 134.227 226.035 140.176 225.974 140.076C225.913 139.976 225.882 131.172 225.882 131.172Z" fill="#263238"/>
<path d="M232.312 127.769C232.312 127.769 231.637 125.951 228.356 127.243C226.688 127.902 226.063 129.968 226.063 129.968L232.312 127.769Z" fill="#212121"/>
<path opacity="0.4" d="M232.312 127.769C232.312 127.769 231.637 125.951 228.356 127.243C226.688 127.902 226.063 129.968 226.063 129.968L232.312 127.769Z" fill="black"/>
<path d="M227.133 132.598C227.133 135.1 228.884 136.651 231.047 136.07C233.21 135.489 234.962 133.012 234.962 130.51C234.962 128.008 233.096 128.008 230.933 128.592C228.77 129.176 227.133 130.101 227.133 132.598Z" fill="#263238"/>
<path d="M225.09 136.551C225.09 136.551 225.665 139.525 225.896 139.979C225.966 140.11 226.067 140.222 226.191 140.304C226.315 140.386 226.457 140.435 226.605 140.448L226.566 138.258L225.09 136.551Z" fill="#263238"/>
<path d="M225.813 131.875C225.585 131.912 225.367 131.998 225.175 132.126C224.983 132.255 224.822 132.423 224.701 132.62C224.228 133.307 224.492 134.991 225.084 136.551L226.168 136.404L225.813 131.875Z" fill="#263238"/>
<path d="M226.502 136.317C226.282 136.526 225.974 136.125 225.704 135.872C225.435 135.619 224.559 135.411 224.12 136.592C223.68 137.774 224.506 139.008 225.198 139.075C226.388 139.186 226.566 138.258 226.566 138.258L226.605 143.337C228.604 145.455 232.101 142.959 230.528 142.022V140.512C231.074 140.465 231.612 140.353 232.132 140.179C233.007 139.787 233.558 138.844 233.825 137.677C234.25 135.806 234.411 134.341 234.05 130.985C233.655 127.304 229.838 128.288 227.778 130.337C225.718 132.386 226.502 136.317 226.502 136.317Z" fill="#FFA8A7"/>
<path d="M226.502 136.754C226.391 136.787 225.974 136.101 225.704 135.887C225.329 135.592 225.813 131.889 225.813 131.889C225.379 130.933 226.18 129.49 227.016 128.903C227.618 128.517 228.296 128.268 229.004 128.172C229.605 128.065 230.203 127.982 230.8 127.925C231.53 127.886 232.256 127.799 232.974 127.663C233.536 127.53 234.081 127.332 234.597 127.074C235.053 126.865 235.431 127.335 235.028 128.116C234.667 128.827 234.166 129.457 233.555 129.968C231.781 131.3 229.721 131.619 227.928 131.817C227.525 131.861 227.436 132.336 227.219 133.629C227.027 134.752 226.869 136.634 226.502 136.754Z" fill="#263238"/>
<path d="M224.448 131.906L223.13 131.442C223.316 130.955 223.764 130.666 224.125 130.794C224.487 130.922 224.634 131.419 224.448 131.906Z" fill="#263238"/>
<path d="M230.525 140.513C230.525 140.513 228.579 140.582 227.889 140.346C227.477 140.202 227.138 139.903 226.944 139.512C227.038 139.923 227.221 140.308 227.481 140.64C227.981 141.244 230.525 141.105 230.525 141.105V140.513Z" fill="#F28F8F"/>
<path d="M230.052 134.808C230.051 134.929 230.013 135.047 229.943 135.146C229.874 135.245 229.776 135.321 229.663 135.364C229.449 135.42 229.274 135.256 229.274 134.997C229.272 134.873 229.308 134.752 229.378 134.649C229.448 134.547 229.547 134.468 229.663 134.425C229.88 134.377 230.052 134.53 230.052 134.808Z" fill="#263238"/>
<path d="M229.427 133.098L228.593 133.857C228.534 133.715 228.521 133.559 228.556 133.409C228.591 133.26 228.672 133.125 228.787 133.023C228.829 132.975 228.881 132.937 228.94 132.914C229 132.89 229.064 132.882 229.127 132.889C229.19 132.897 229.251 132.92 229.303 132.956C229.355 132.993 229.398 133.042 229.427 133.098Z" fill="#263238"/>
<path d="M230.35 137.847L231.242 137.994C231.216 138.136 231.142 138.264 231.031 138.356C230.92 138.448 230.78 138.498 230.636 138.497C230.388 138.458 230.261 138.166 230.35 137.847Z" fill="#F28F8F"/>
<path d="M233.647 132.364L232.882 131.889C233.041 131.611 233.335 131.463 233.547 131.594C233.654 131.689 233.723 131.819 233.741 131.96C233.76 132.102 233.726 132.245 233.647 132.364Z" fill="#263238"/>
<path d="M233.313 133.799C233.315 133.923 233.279 134.046 233.209 134.149C233.138 134.252 233.038 134.331 232.921 134.374C232.704 134.43 232.529 134.266 232.529 134.007C232.527 133.883 232.564 133.761 232.634 133.659C232.704 133.556 232.805 133.478 232.921 133.435C233.138 133.376 233.313 133.54 233.313 133.799Z" fill="#263238"/>
<path d="M231.378 133.954L231.423 136.684L232.827 135.95L231.378 133.954Z" fill="#F28F8F"/>
<path d="M218.707 161.218C219.802 149.959 221.573 145.958 224.348 144.838C225.279 145.566 225.429 148.888 224.375 151.382C224.375 151.382 222.057 158.849 221.873 161.39C221.756 163.766 221.845 166.148 222.137 168.51C222.152 168.652 222.197 168.789 222.268 168.912C222.34 169.036 222.436 169.143 222.552 169.227C223.144 169.633 223.091 170.2 223.508 170.747C223.836 171.176 224.147 171.259 224.064 171.415C223.995 171.57 223.874 171.698 223.722 171.776C223.571 171.854 223.397 171.877 223.23 171.843C222.964 171.751 222.718 171.609 222.504 171.426C222.661 172.025 222.909 172.597 223.238 173.122C223.989 174.336 223.933 175.14 222.093 175.365C220.939 175.507 220.119 174.773 219.61 171.879C219.466 171.045 219.11 169.544 218.974 168.465C218.579 165.388 218.529 163.03 218.707 161.218Z" fill="#FFA8A7"/>
<path d="M225.143 144.304C225.143 144.304 223.124 144.954 222.085 146.569C221.045 148.185 220.005 150.798 219.216 155.465C219.216 155.465 220.439 157.228 223.778 155.869C223.778 155.869 225.36 149.93 225.546 147.57C225.738 144.996 225.143 144.304 225.143 144.304Z" fill="#455A64"/>
<path d="M227.019 127.857C225.132 129.039 224.317 130.473 224.27 132.203C224.253 133.39 224.301 134.578 224.412 135.761C224.056 136.017 223.763 136.35 223.554 136.735C223.345 137.12 223.226 137.547 223.205 137.985C223.205 139.155 224.153 139.85 225.323 139.536C225.911 139.362 226.43 139.011 226.809 138.53C227.189 138.049 227.41 137.462 227.442 136.851C227.466 136.471 227.347 136.096 227.109 135.799C226.871 135.503 226.531 135.306 226.155 135.247C225.918 133.595 225.923 131.918 226.169 130.268C226.588 127.766 231.264 126.323 232.312 127.766C231.998 126.52 229.644 126.203 227.019 127.857Z" fill="#212121"/>
<path opacity="0.15" d="M227.019 127.857C225.132 129.039 224.317 130.473 224.27 132.203C224.253 133.39 224.301 134.578 224.412 135.761C224.056 136.017 223.763 136.35 223.554 136.735C223.345 137.12 223.226 137.547 223.205 137.985C223.205 139.155 224.153 139.85 225.323 139.536C225.911 139.362 226.43 139.011 226.809 138.53C227.189 138.049 227.41 137.462 227.442 136.851C227.466 136.471 227.347 136.096 227.109 135.799C226.871 135.503 226.531 135.306 226.155 135.247C225.918 133.595 225.923 131.918 226.169 130.268C226.588 127.766 231.264 126.323 232.312 127.766C231.998 126.52 229.644 126.203 227.019 127.857Z" fill="black"/>
<path d="M226.338 137.146C226.344 137.021 226.319 136.897 226.265 136.785C226.211 136.673 226.131 136.575 226.03 136.502C225.93 136.428 225.812 136.381 225.689 136.364C225.566 136.346 225.44 136.36 225.323 136.404C225.042 136.487 224.793 136.656 224.612 136.886C224.43 137.116 224.324 137.398 224.309 137.691C224.304 137.815 224.331 137.937 224.385 138.049C224.44 138.16 224.521 138.256 224.622 138.328C224.722 138.401 224.839 138.447 224.962 138.463C225.085 138.48 225.21 138.465 225.326 138.422C225.605 138.339 225.852 138.172 226.033 137.944C226.215 137.715 226.321 137.437 226.338 137.146Z" fill="#212121"/>
</g>
<path d="M210.331 155.008C210.285 155.053 210.243 155.101 210.206 155.153C210.139 155.235 210.089 155.329 210.058 155.431C210.038 155.489 210.038 155.553 210.058 155.611C210.066 155.653 210.086 155.691 210.117 155.72C210.131 155.737 210.148 155.752 210.167 155.764L209.147 155.175C209.106 155.152 209.072 155.119 209.049 155.078C209.033 155.039 209.025 154.997 209.025 154.955C209.025 154.913 209.033 154.872 209.049 154.833C209.071 154.764 209.103 154.699 209.144 154.638C209.196 154.559 209.256 154.485 209.322 154.416L210.331 155.008Z" fill="#212121"/>
<path d="M210.339 154.997C209.808 155.553 209.994 155.928 210.756 155.831L215.021 155.339V150.132L210.339 154.997Z" fill="#212121"/>
<path d="M210.339 154.996C210.003 155.347 209.955 155.625 210.156 155.761L209.135 155.171C208.921 155.038 208.969 154.754 209.308 154.399L213.992 149.542L215.023 150.14L210.339 154.996Z" fill="#212121"/>
<path opacity="0.15" d="M210.331 155.008C210.285 155.053 210.243 155.101 210.206 155.153C210.141 155.236 210.091 155.33 210.058 155.431C210.042 155.49 210.042 155.552 210.058 155.611C210.066 155.653 210.087 155.69 210.117 155.72C210.131 155.737 210.148 155.752 210.167 155.764L209.147 155.175C209.106 155.152 209.072 155.119 209.049 155.078C209.033 155.039 209.025 154.997 209.025 154.955C209.025 154.913 209.033 154.872 209.049 154.833C209.073 154.765 209.104 154.699 209.144 154.638C209.196 154.559 209.256 154.485 209.322 154.416L210.331 155.008Z" fill="black"/>
<path opacity="0.4" d="M215.023 150.131L210.339 154.996L209.305 154.399L213.992 149.542L215.023 150.131Z" fill="white"/>
<path d="M239.048 148.336L239.988 149.943C239.988 149.943 246.143 146.679 246.49 146.251C246.838 145.823 246.816 144.958 246.868 144.491C246.955 143.713 246.668 143.043 246.626 142.762C246.543 142.164 247.402 142.303 247.675 142.54C247.853 142.73 248.003 142.947 248.117 143.182C248.25 143.404 248.5 144.13 248.756 144.174C248.956 144.21 249.354 143.927 249.518 143.805C250.193 143.293 250.61 142.584 251.13 141.936C251.223 141.797 251.351 141.686 251.503 141.614C251.635 141.587 251.772 141.592 251.903 141.626C252.034 141.66 252.156 141.723 252.259 141.811C252.478 141.934 252.668 142.103 252.815 142.306C252.905 142.459 252.968 142.625 253.004 142.798C253.282 143.977 252.676 144.972 251.961 145.856C251.244 146.726 250.394 147.476 249.443 148.08C248.887 148.447 248.142 148.772 247.497 149.117C246.852 149.462 239.941 155.253 238.973 154.596C237.817 153.697 236.78 152.652 235.89 151.488" fill="#FFA8A7"/>
<path d="M284.451 138.292C286.675 138.292 287.843 138.959 288.765 141.014C289.65 142.979 292.393 148.681 292.257 150.063C292.121 151.444 286.486 157.327 286.486 157.327L284.876 155.381L288.368 149.515L284.929 144.539L284.451 138.292Z" fill="#FFA8A7"/>
<path d="M279.052 198.793C279.052 198.793 279.302 199.552 279.439 200.219C279.547 200.747 279.7 201.629 279.514 202.026C279.327 202.424 278.607 202.679 277.49 202.671C276.764 202.671 275.636 203.158 274.863 203.591C274.09 204.025 272.402 204.214 271.557 204.114C270.562 203.997 269.531 203.419 269.37 203.002C269.208 202.585 269.072 202.026 271.769 201.162C271.791 201.162 275.03 200.1 276.164 198.846L279.052 198.793Z" fill="#263238"/>
<path d="M279.052 198.868L278.538 198.804L276.164 198.851C275.03 200.105 271.791 201.161 271.769 201.167L271.338 201.311C270.868 201.689 271.266 202.332 272.378 202.423C273.49 202.515 276.956 201.356 277.723 200.986C278.126 200.799 278.466 200.5 278.702 200.124C278.937 199.748 279.059 199.311 279.052 198.868Z" fill="#FFA8A7"/>
<path d="M279.052 197.848C279.052 197.848 279.052 198.495 279.052 198.868C279.052 199.24 278.619 199.791 277.484 199.749C276.689 199.721 276.133 199.507 276.164 198.851V197.914L279.052 197.848Z" fill="#FFA8A7"/>
<path d="M286.664 194.531C286.867 194.615 286.908 195.009 286.917 195.791C286.917 196.38 287.025 197.414 286.327 197.603C285.63 197.792 284.621 197.656 284.192 197.089C283.659 196.38 283.3 195.757 282.524 194.887C281.86 194.134 281.134 193.428 280.89 192.385C280.665 191.446 280.89 191.048 281.526 190.792C282.163 190.536 282.75 190.748 283.639 191.49C283.887 191.658 284.153 191.799 284.431 191.91C285.024 192.096 286.458 194.448 286.664 194.531Z" fill="#263238"/>
<path d="M286.683 193.808L286.655 194.767C286.655 194.767 286.016 196.021 284.234 194.767C284.195 194.673 284.034 192.821 284.034 192.821L286.683 193.808Z" fill="#FFA8A7"/>
<path d="M284.44 191.915C284.161 191.804 283.896 191.663 283.648 191.495C282.93 191.264 281.424 191.531 282.099 192.576C282.665 193.436 283.39 194.179 284.234 194.767C285.04 195.165 285.321 194.673 285.321 194.673L285.043 192.424C284.883 192.211 284.677 192.037 284.44 191.915Z" fill="#FFA8A7"/>
<path d="M287.984 180.553C287.629 177.409 286.948 175.593 286.948 175.593C286.948 175.593 287.551 171.362 288.023 167.306C289.135 157.779 288.396 157.626 287.05 154.312C287.05 154.312 274.838 152.742 274.326 157.821C273.69 164.145 273.979 176.411 274.084 178.654C274.19 180.898 274.362 181.912 275.041 186.61C275.547 190.188 276.028 198.008 276.028 198.008C277.629 198.931 279.169 197.847 279.169 197.847C279.169 197.847 280.701 188.231 280.665 185.643C280.634 183.727 280.353 181.824 279.831 179.98C279.831 179.98 280.87 169.672 281.135 168.026C281.135 168.026 281.429 171.315 281.538 173.558C281.646 175.802 282.252 177.956 282.789 182.135C283.253 185.749 284.026 193.319 284.026 193.319C285.627 194.242 286.745 193.825 286.745 193.825C286.745 193.825 288.338 183.694 287.984 180.553Z" fill="#212121"/>
<path d="M279.283 136.234L279.731 140.983L283.901 140.718L283.567 135.453L279.283 136.234Z" fill="#FFA8A7"/>
<path d="M287.648 140.307C287.223 139.051 286.361 138.314 284.451 138.292L283.748 138.314C283.614 139.015 281.56 139.582 279.53 138.87C279.252 138.945 278.46 139.09 278.018 139.148L277.045 139.29C275.569 139.774 274.916 142.348 274.774 146.41C274.632 150.471 274.023 159.181 274.023 159.181C274.023 159.181 277.201 160.882 282.216 160.223C286.706 159.634 288.451 156.979 288.296 157.318C287.769 155.065 286.992 152.879 285.977 150.799C288.34 144.986 288.276 142.173 287.648 140.307Z" fill="#455A64"/>
<path d="M279.73 160.368C280.561 160.376 281.392 160.326 282.216 160.218C286.308 159.681 288.121 157.438 288.29 157.29C287.764 155.045 286.988 152.866 285.977 150.793C287.173 147.858 287.745 145.689 287.94 144.019C287.745 145.236 285.947 149.951 283.592 151.366C283.592 151.366 284.921 151.572 286.058 153.134C287.195 154.697 286.261 160.031 279.73 160.368Z" fill="#37474F"/>
<path d="M278.018 139.143C276.058 139.39 274.371 139.74 273.656 141.664C272.714 144.284 271.268 146.694 269.4 148.759C268.182 150.062 263.184 152.559 262.058 152.373C260.932 152.186 259.917 150.582 259.339 150.916C258.761 151.249 260.029 152.395 259.959 152.678C259.89 152.962 257.86 152.373 256.901 151.691C255.942 151.01 255.372 152.965 256.623 154.427C257.874 155.889 260.215 156.003 262.761 155.495C265.308 154.986 269.962 153.473 271.81 151.75C274.234 149.484 274.677 148.253 275.727 146.301C279.074 143.705 278.018 139.143 278.018 139.143Z" fill="#FFA8A7"/>
<path d="M277.101 130.338C277.101 130.338 275.527 128.462 276.761 126.633C278.218 124.475 280.781 123.747 283.951 124.687C285.518 125.151 287.823 127.319 287.94 130.361C288.029 132.704 281.457 134.253 281.563 135.86L277.101 130.338Z" fill="#263238"/>
<path d="M276.2 131.024C276.2 131.024 275.277 132.414 275.396 132.57C275.613 132.712 275.853 132.815 276.105 132.873L276.2 131.024Z" fill="#F28F8F"/>
<path d="M279.011 126.602C278.113 127.066 276.561 127.922 276.161 131.231C275.752 134.625 276.509 135.804 276.97 136.249C277.284 136.549 278.897 136.657 279.75 136.396C280.804 136.071 283.086 134.945 284.151 133.193C285.407 131.131 285.666 128.384 284.215 127.305C282.16 125.79 279.769 126.21 279.011 126.602Z" fill="#FFA8A7"/>
<path d="M278.746 126.747C278.746 126.747 277.962 129.844 278.899 131.801C278.899 131.801 279.455 130.591 280.487 130.939C281.518 131.286 281.437 132.682 280.615 133.394C280.405 133.598 280.141 133.739 279.854 133.8C279.567 133.861 279.269 133.84 278.994 133.738C278.994 133.738 279.022 135.454 280.487 136.132C280.487 136.132 283.545 137.597 286.325 134.639C288.827 131.954 288.513 127.133 284.812 125.913C281.112 124.692 278.746 126.747 278.746 126.747Z" fill="#263238"/>
<path d="M291.195 139.812C290.612 139.812 290.034 139.697 289.496 139.473C288.957 139.249 288.468 138.921 288.056 138.508C287.644 138.095 287.318 137.604 287.096 137.065C286.875 136.525 286.762 135.947 286.764 135.364V129.682C287.938 129.682 289.065 130.148 289.895 130.979C290.726 131.809 291.192 132.936 291.192 134.11L291.195 139.812Z" fill="#263238"/>
<path d="M276.361 125.356C274.985 126.746 274.907 130.808 278.899 131.803L281.515 124.633C279.992 123.641 277.59 124.1 276.361 125.356Z" fill="#263238"/>
<path d="M278.499 132.907C278.399 132.874 278.307 132.821 278.227 132.751C278.148 132.682 278.084 132.597 278.038 132.502C277.992 132.407 277.965 132.304 277.96 132.199C277.954 132.094 277.97 131.988 278.006 131.889C278.041 131.79 278.097 131.699 278.168 131.622C278.24 131.544 278.326 131.482 278.422 131.439C278.518 131.395 278.622 131.371 278.727 131.368C278.833 131.366 278.937 131.384 279.036 131.422L278.499 132.907Z" fill="#263238"/>
<path opacity="0.1" d="M281.14 168.033L281.804 163.782C283.143 163.622 284.43 163.174 285.58 162.47C285.58 162.47 284.746 163.724 282.549 164.246L281.871 169.17L281.593 174.326L281.14 168.033Z" fill="black"/>
</g>
<defs>
<linearGradient id="paint0_linear_1187_38523" x1="271.719" y1="273.723" x2="144.736" y2="38.0816" gradientUnits="userSpaceOnUse">
<stop stop-color="white"/>
<stop offset="1" stop-color="#BBC9D8"/>
</linearGradient>
<linearGradient id="paint1_linear_1187_38523" x1="262.68" y1="256.962" x2="166.964" y2="79.3095" gradientUnits="userSpaceOnUse">
<stop stop-color="white"/>
<stop offset="1" stop-color="#BBC9D8"/>
</linearGradient>
<clipPath id="clip0_1187_38523">
<rect width="130" height="113" fill="white" transform="translate(170 112)"/>
</clipPath>
</defs>
</svg>
