<svg width="441" height="495" viewBox="0 0 441 495" fill="none" xmlns="http://www.w3.org/2000/svg">
<mask id="mask0_1187_39301" style="mask-type:luminance" maskUnits="userSpaceOnUse" x="47" y="82" width="382" height="331">
<path d="M333.246 412.546L380.844 330.108L428.442 247.67L380.835 165.222L333.222 82.7755L238.01 82.7668L142.797 82.7617L95.1984 165.2L47.6003 247.638L95.2135 330.084L142.825 412.534L238.036 412.543L333.246 412.546Z" fill="white"/>
</mask>
<g mask="url(#mask0_1187_39301)">
<path d="M194.02 -0.955284L-0.550675 336.032L280.765 498.441L475.335 161.453L194.02 -0.955284Z" fill="url(#paint0_linear_1187_39301)" stroke="url(#paint1_linear_1187_39301)" stroke-width="5"/>
</g>
<mask id="mask1_1187_39301" style="mask-type:luminance" maskUnits="userSpaceOnUse" x="101" y="107" width="311" height="269">
<path d="M334.135 375.267L179.294 375.257L101.866 241.174L179.276 107.103L334.115 107.116L411.545 241.196L334.135 375.267Z" fill="white"/>
</mask>
<g mask="url(#mask1_1187_39301)">
<path d="M295.428 442.304L63.1553 308.209L217.975 40.0676L450.248 174.163L295.428 442.304Z" fill="url(#paint2_linear_1187_39301)" fill-opacity="0.8"/>
</g>
<path d="M189.752 285.734V290.222H195.032V292.268H189.752V296.954H195.692V299H187.244V283.688H195.692V285.734H189.752ZM203.973 292.862L207.889 299H205.051L202.433 294.886L199.969 299H197.351L201.267 293.038L197.351 286.878H200.189L202.807 290.992L205.271 286.878H207.889L203.973 292.862ZM220.869 292.642C220.869 293.097 220.84 293.507 220.781 293.874H211.519C211.593 294.842 211.952 295.619 212.597 296.206C213.243 296.793 214.035 297.086 214.973 297.086C216.323 297.086 217.276 296.521 217.833 295.392H220.539C220.173 296.507 219.505 297.423 218.537 298.142C217.584 298.846 216.396 299.198 214.973 299.198C213.815 299.198 212.773 298.941 211.849 298.428C210.94 297.9 210.221 297.167 209.693 296.228C209.18 295.275 208.923 294.175 208.923 292.928C208.923 291.681 209.173 290.589 209.671 289.65C210.185 288.697 210.896 287.963 211.805 287.45C212.729 286.937 213.785 286.68 214.973 286.68C216.117 286.68 217.137 286.929 218.031 287.428C218.926 287.927 219.623 288.631 220.121 289.54C220.62 290.435 220.869 291.469 220.869 292.642ZM218.251 291.85C218.237 290.926 217.907 290.185 217.261 289.628C216.616 289.071 215.817 288.792 214.863 288.792C213.998 288.792 213.257 289.071 212.641 289.628C212.025 290.171 211.659 290.911 211.541 291.85H218.251ZM222.502 292.928C222.502 291.681 222.751 290.589 223.25 289.65C223.763 288.697 224.467 287.963 225.362 287.45C226.256 286.937 227.283 286.68 228.442 286.68C229.908 286.68 231.118 287.032 232.072 287.736C233.04 288.425 233.692 289.415 234.03 290.706H231.324C231.104 290.105 230.752 289.635 230.268 289.298C229.784 288.961 229.175 288.792 228.442 288.792C227.415 288.792 226.594 289.159 225.978 289.892C225.376 290.611 225.076 291.623 225.076 292.928C225.076 294.233 225.376 295.253 225.978 295.986C226.594 296.719 227.415 297.086 228.442 297.086C229.894 297.086 230.854 296.448 231.324 295.172H234.03C233.678 296.404 233.018 297.387 232.05 298.12C231.082 298.839 229.879 299.198 228.442 299.198C227.283 299.198 226.256 298.941 225.362 298.428C224.467 297.9 223.763 297.167 223.25 296.228C222.751 295.275 222.502 294.175 222.502 292.928ZM247.507 286.878V299H244.999V297.57C244.603 298.069 244.082 298.465 243.437 298.758C242.806 299.037 242.132 299.176 241.413 299.176C240.46 299.176 239.602 298.978 238.839 298.582C238.091 298.186 237.497 297.599 237.057 296.822C236.632 296.045 236.419 295.106 236.419 294.006V286.878H238.905V293.632C238.905 294.717 239.176 295.553 239.719 296.14C240.262 296.712 241.002 296.998 241.941 296.998C242.88 296.998 243.62 296.712 244.163 296.14C244.72 295.553 244.999 294.717 244.999 293.632V286.878H247.507ZM253.742 288.924V295.634C253.742 296.089 253.845 296.419 254.05 296.624C254.27 296.815 254.637 296.91 255.15 296.91H256.69V299H254.71C253.581 299 252.715 298.736 252.114 298.208C251.513 297.68 251.212 296.822 251.212 295.634V288.924H249.782V286.878H251.212V283.864H253.742V286.878H256.69V288.924H253.742ZM260.278 285.272C259.823 285.272 259.442 285.118 259.134 284.81C258.826 284.502 258.672 284.121 258.672 283.666C258.672 283.211 258.826 282.83 259.134 282.522C259.442 282.214 259.823 282.06 260.278 282.06C260.718 282.06 261.092 282.214 261.4 282.522C261.708 282.83 261.862 283.211 261.862 283.666C261.862 284.121 261.708 284.502 261.4 284.81C261.092 285.118 260.718 285.272 260.278 285.272ZM261.51 286.878V299H259.002V286.878H261.51ZM269.488 296.756L272.92 286.878H275.582L270.962 299H267.97L263.372 286.878H266.056L269.488 296.756ZM288.588 292.642C288.588 293.097 288.559 293.507 288.5 293.874H279.238C279.311 294.842 279.671 295.619 280.316 296.206C280.961 296.793 281.753 297.086 282.692 297.086C284.041 297.086 284.995 296.521 285.552 295.392H288.258C287.891 296.507 287.224 297.423 286.256 298.142C285.303 298.846 284.115 299.198 282.692 299.198C281.533 299.198 280.492 298.941 279.568 298.428C278.659 297.9 277.94 297.167 277.412 296.228C276.899 295.275 276.642 294.175 276.642 292.928C276.642 291.681 276.891 290.589 277.39 289.65C277.903 288.697 278.615 287.963 279.524 287.45C280.448 286.937 281.504 286.68 282.692 286.68C283.836 286.68 284.855 286.929 285.75 287.428C286.645 287.927 287.341 288.631 287.84 289.54C288.339 290.435 288.588 291.469 288.588 292.642ZM285.97 291.85C285.955 290.926 285.625 290.185 284.98 289.628C284.335 289.071 283.535 288.792 282.582 288.792C281.717 288.792 280.976 289.071 280.36 289.628C279.744 290.171 279.377 290.911 279.26 291.85H285.97ZM188.094 328.876H181.692L180.592 332H177.974L183.452 316.688H186.356L191.834 332H189.194L188.094 328.876ZM187.39 326.83L184.904 319.724L182.396 326.83H187.39ZM198.615 332.198C197.662 332.198 196.804 332.029 196.041 331.692C195.293 331.34 194.699 330.871 194.259 330.284C193.819 329.683 193.585 329.015 193.555 328.282H196.151C196.195 328.795 196.437 329.228 196.877 329.58C197.332 329.917 197.897 330.086 198.571 330.086C199.275 330.086 199.818 329.954 200.199 329.69C200.595 329.411 200.793 329.059 200.793 328.634C200.793 328.179 200.573 327.842 200.133 327.622C199.708 327.402 199.026 327.16 198.087 326.896C197.178 326.647 196.437 326.405 195.865 326.17C195.293 325.935 194.795 325.576 194.369 325.092C193.959 324.608 193.753 323.97 193.753 323.178C193.753 322.533 193.944 321.946 194.325 321.418C194.707 320.875 195.249 320.45 195.953 320.142C196.672 319.834 197.493 319.68 198.417 319.68C199.796 319.68 200.903 320.032 201.739 320.736C202.59 321.425 203.045 322.371 203.103 323.574H200.595C200.551 323.031 200.331 322.599 199.935 322.276C199.539 321.953 199.004 321.792 198.329 321.792C197.669 321.792 197.163 321.917 196.811 322.166C196.459 322.415 196.283 322.745 196.283 323.156C196.283 323.479 196.401 323.75 196.635 323.97C196.87 324.19 197.156 324.366 197.493 324.498C197.831 324.615 198.329 324.769 198.989 324.96C199.869 325.195 200.588 325.437 201.145 325.686C201.717 325.921 202.209 326.273 202.619 326.742C203.03 327.211 203.243 327.835 203.257 328.612C203.257 329.301 203.067 329.917 202.685 330.46C202.304 331.003 201.761 331.428 201.057 331.736C200.368 332.044 199.554 332.198 198.615 332.198ZM210.367 332.198C209.414 332.198 208.556 332.029 207.793 331.692C207.045 331.34 206.451 330.871 206.011 330.284C205.571 329.683 205.337 329.015 205.307 328.282H207.903C207.947 328.795 208.189 329.228 208.629 329.58C209.084 329.917 209.649 330.086 210.323 330.086C211.027 330.086 211.57 329.954 211.951 329.69C212.347 329.411 212.545 329.059 212.545 328.634C212.545 328.179 212.325 327.842 211.885 327.622C211.46 327.402 210.778 327.16 209.839 326.896C208.93 326.647 208.189 326.405 207.617 326.17C207.045 325.935 206.547 325.576 206.121 325.092C205.711 324.608 205.505 323.97 205.505 323.178C205.505 322.533 205.696 321.946 206.077 321.418C206.459 320.875 207.001 320.45 207.705 320.142C208.424 319.834 209.245 319.68 210.169 319.68C211.548 319.68 212.655 320.032 213.491 320.736C214.342 321.425 214.797 322.371 214.855 323.574H212.347C212.303 323.031 212.083 322.599 211.687 322.276C211.291 321.953 210.756 321.792 210.081 321.792C209.421 321.792 208.915 321.917 208.563 322.166C208.211 322.415 208.035 322.745 208.035 323.156C208.035 323.479 208.153 323.75 208.387 323.97C208.622 324.19 208.908 324.366 209.245 324.498C209.583 324.615 210.081 324.769 210.741 324.96C211.621 325.195 212.34 325.437 212.897 325.686C213.469 325.921 213.961 326.273 214.371 326.742C214.782 327.211 214.995 327.835 215.009 328.612C215.009 329.301 214.819 329.917 214.437 330.46C214.056 331.003 213.513 331.428 212.809 331.736C212.12 332.044 211.306 332.198 210.367 332.198ZM218.995 318.272C218.541 318.272 218.159 318.118 217.851 317.81C217.543 317.502 217.389 317.121 217.389 316.666C217.389 316.211 217.543 315.83 217.851 315.522C218.159 315.214 218.541 315.06 218.995 315.06C219.435 315.06 219.809 315.214 220.117 315.522C220.425 315.83 220.579 316.211 220.579 316.666C220.579 317.121 220.425 317.502 220.117 317.81C219.809 318.118 219.435 318.272 218.995 318.272ZM220.227 319.878V332H217.719V319.878H220.227ZM227.92 332.198C226.967 332.198 226.109 332.029 225.346 331.692C224.598 331.34 224.004 330.871 223.564 330.284C223.124 329.683 222.889 329.015 222.86 328.282H225.456C225.5 328.795 225.742 329.228 226.182 329.58C226.637 329.917 227.201 330.086 227.876 330.086C228.58 330.086 229.123 329.954 229.504 329.69C229.9 329.411 230.098 329.059 230.098 328.634C230.098 328.179 229.878 327.842 229.438 327.622C229.013 327.402 228.331 327.16 227.392 326.896C226.483 326.647 225.742 326.405 225.17 326.17C224.598 325.935 224.099 325.576 223.674 325.092C223.263 324.608 223.058 323.97 223.058 323.178C223.058 322.533 223.249 321.946 223.63 321.418C224.011 320.875 224.554 320.45 225.258 320.142C225.977 319.834 226.798 319.68 227.722 319.68C229.101 319.68 230.208 320.032 231.044 320.736C231.895 321.425 232.349 322.371 232.408 323.574H229.9C229.856 323.031 229.636 322.599 229.24 322.276C228.844 321.953 228.309 321.792 227.634 321.792C226.974 321.792 226.468 321.917 226.116 322.166C225.764 322.415 225.588 322.745 225.588 323.156C225.588 323.479 225.705 323.75 225.94 323.97C226.175 324.19 226.461 324.366 226.798 324.498C227.135 324.615 227.634 324.769 228.294 324.96C229.174 325.195 229.893 325.437 230.45 325.686C231.022 325.921 231.513 326.273 231.924 326.742C232.335 327.211 232.547 327.835 232.562 328.612C232.562 329.301 232.371 329.917 231.99 330.46C231.609 331.003 231.066 331.428 230.362 331.736C229.673 332.044 228.859 332.198 227.92 332.198ZM238.198 321.924V328.634C238.198 329.089 238.301 329.419 238.506 329.624C238.726 329.815 239.093 329.91 239.606 329.91H241.146V332H239.166C238.037 332 237.171 331.736 236.57 331.208C235.969 330.68 235.668 329.822 235.668 328.634V321.924H234.238V319.878H235.668V316.864H238.198V319.878H241.146V321.924H238.198ZM242.622 325.884C242.622 324.667 242.871 323.589 243.37 322.65C243.883 321.711 244.572 320.985 245.438 320.472C246.318 319.944 247.286 319.68 248.342 319.68C249.295 319.68 250.124 319.871 250.828 320.252C251.546 320.619 252.118 321.081 252.544 321.638V319.878H255.074V332H252.544V330.196C252.118 330.768 251.539 331.245 250.806 331.626C250.072 332.007 249.236 332.198 248.298 332.198C247.256 332.198 246.303 331.934 245.438 331.406C244.572 330.863 243.883 330.115 243.37 329.162C242.871 328.194 242.622 327.101 242.622 325.884ZM252.544 325.928C252.544 325.092 252.368 324.366 252.016 323.75C251.678 323.134 251.231 322.665 250.674 322.342C250.116 322.019 249.515 321.858 248.87 321.858C248.224 321.858 247.623 322.019 247.066 322.342C246.508 322.65 246.054 323.112 245.702 323.728C245.364 324.329 245.196 325.048 245.196 325.884C245.196 326.72 245.364 327.453 245.702 328.084C246.054 328.715 246.508 329.199 247.066 329.536C247.638 329.859 248.239 330.02 248.87 330.02C249.515 330.02 250.116 329.859 250.674 329.536C251.231 329.213 251.678 328.744 252.016 328.128C252.368 327.497 252.544 326.764 252.544 325.928ZM264.484 319.68C265.437 319.68 266.288 319.878 267.036 320.274C267.798 320.67 268.392 321.257 268.818 322.034C269.243 322.811 269.456 323.75 269.456 324.85V332H266.97V325.224C266.97 324.139 266.698 323.31 266.156 322.738C265.613 322.151 264.872 321.858 263.934 321.858C262.995 321.858 262.247 322.151 261.69 322.738C261.147 323.31 260.876 324.139 260.876 325.224V332H258.368V319.878H260.876V321.264C261.286 320.765 261.807 320.377 262.438 320.098C263.083 319.819 263.765 319.68 264.484 319.68ZM271.819 325.928C271.819 324.681 272.068 323.589 272.567 322.65C273.08 321.697 273.784 320.963 274.679 320.45C275.574 319.937 276.6 319.68 277.759 319.68C279.226 319.68 280.436 320.032 281.389 320.736C282.357 321.425 283.01 322.415 283.347 323.706H280.641C280.421 323.105 280.069 322.635 279.585 322.298C279.101 321.961 278.492 321.792 277.759 321.792C276.732 321.792 275.911 322.159 275.295 322.892C274.694 323.611 274.393 324.623 274.393 325.928C274.393 327.233 274.694 328.253 275.295 328.986C275.911 329.719 276.732 330.086 277.759 330.086C279.211 330.086 280.172 329.448 280.641 328.172H283.347C282.995 329.404 282.335 330.387 281.367 331.12C280.399 331.839 279.196 332.198 277.759 332.198C276.6 332.198 275.574 331.941 274.679 331.428C273.784 330.9 273.08 330.167 272.567 329.228C272.068 328.275 271.819 327.175 271.819 325.928ZM296.956 325.642C296.956 326.097 296.927 326.507 296.868 326.874H287.606C287.68 327.842 288.039 328.619 288.684 329.206C289.33 329.793 290.122 330.086 291.06 330.086C292.41 330.086 293.363 329.521 293.92 328.392H296.626C296.26 329.507 295.592 330.423 294.624 331.142C293.671 331.846 292.483 332.198 291.06 332.198C289.902 332.198 288.86 331.941 287.936 331.428C287.027 330.9 286.308 330.167 285.78 329.228C285.267 328.275 285.01 327.175 285.01 325.928C285.01 324.681 285.26 323.589 285.758 322.65C286.272 321.697 286.983 320.963 287.892 320.45C288.816 319.937 289.872 319.68 291.06 319.68C292.204 319.68 293.224 319.929 294.118 320.428C295.013 320.927 295.71 321.631 296.208 322.54C296.707 323.435 296.956 324.469 296.956 325.642ZM294.338 324.85C294.324 323.926 293.994 323.185 293.348 322.628C292.703 322.071 291.904 321.792 290.95 321.792C290.085 321.792 289.344 322.071 288.728 322.628C288.112 323.171 287.746 323.911 287.628 324.85H294.338Z" fill="#001237"/>
<g clip-path="url(#clip0_1187_39301)">
<path d="M243.608 267.185C276.602 267.185 303.35 251.972 303.35 233.206C303.35 214.439 276.602 199.226 243.608 199.226C210.613 199.226 183.865 214.439 183.865 233.206C183.865 251.972 210.613 267.185 243.608 267.185Z" fill="#F5F5F5"/>
<path d="M281.505 249.019C289.395 249.019 295.791 245.009 295.791 240.062C295.791 235.115 289.395 231.104 281.505 231.104C273.615 231.104 267.218 235.115 267.218 240.062C267.218 245.009 273.615 249.019 281.505 249.019Z" fill="#E6E6E6"/>
<path d="M187.182 214.06C187.011 211.998 186.535 209.974 185.77 208.052C184.511 204.947 182.1 201.828 179.323 201.244C176.546 200.66 175.373 202.523 175.956 204.357C176.462 205.937 178.525 207.249 180.093 208.628C181.661 210.006 184.586 213.354 185.397 216.559L186.965 216.731L187.182 214.06Z" fill="#212121"/>
<g opacity="0.15">
<path d="M187.182 214.06C187.011 211.998 186.535 209.974 185.77 208.052C184.511 204.947 182.1 201.828 179.323 201.244C176.546 200.66 175.373 202.523 175.956 204.357C176.462 205.937 178.525 207.249 180.093 208.628C181.661 210.006 184.586 213.354 185.397 216.559L186.965 216.731L187.182 214.06Z" fill="black"/>
</g>
<path d="M186.106 215.5C186.061 215.5 186.018 215.483 185.986 215.451C185.954 215.42 185.935 215.378 185.934 215.333C185.642 207.238 177.73 202.712 177.644 202.662C177.606 202.638 177.579 202.601 177.568 202.557C177.557 202.514 177.563 202.468 177.584 202.429C177.606 202.39 177.642 202.361 177.684 202.347C177.727 202.334 177.773 202.337 177.813 202.356C177.897 202.403 185.984 207.027 186.281 215.314C186.283 215.36 186.266 215.404 186.235 215.438C186.204 215.472 186.16 215.492 186.114 215.494L186.106 215.5Z" fill="white"/>
<path d="M188.43 228.31C188.43 228.31 186.812 229.333 184.283 228.897C183.465 228.788 182.702 228.422 182.106 227.851C181.453 227.179 181.35 226.5 181.166 225.6C181.116 225.223 180.987 224.861 180.788 224.538C180.232 223.793 179.165 223.806 178.264 223.612C176.985 223.334 175.809 222.416 175.439 221.163C175.07 219.909 175.67 218.383 176.882 217.888L175.395 216.934C174.933 216.663 174.505 216.336 174.122 215.961C173.739 215.579 173.51 215.069 173.479 214.53C173.479 213.74 174.066 213.034 174.789 212.711C175.529 212.426 176.333 212.343 177.116 212.472C177.909 212.569 178.689 212.756 179.44 213.028C179.645 213.121 179.866 213.171 180.09 213.176C180.383 213.124 180.656 212.998 180.885 212.809C182.587 211.697 185.358 211.772 186.27 213.89C186.404 214.202 186.484 214.535 186.629 214.841C187.157 215.984 188.644 215.639 189.606 216.173C189.908 216.364 190.164 216.619 190.356 216.92C190.549 217.221 190.672 217.561 190.718 217.916C190.91 219.044 190.596 220.331 190.387 221.446C190.179 222.561 189.915 223.598 189.612 224.654C189.364 225.527 189.092 226.392 188.803 227.251C188.742 227.429 188.608 228.199 188.43 228.31Z" fill="#212121"/>
<path d="M189.448 225.702C188.6 223.369 187.207 221.272 185.386 219.586C185.367 219.545 185.333 219.513 185.292 219.497C184.767 219.005 184.217 218.541 183.643 218.107C183.426 216.606 183.618 215.074 184.199 213.673C184.219 213.631 184.221 213.584 184.205 213.54C184.19 213.497 184.157 213.462 184.116 213.442C184.074 213.423 184.026 213.42 183.983 213.436C183.94 213.452 183.904 213.484 183.885 213.526C183.309 214.876 183.088 216.352 183.243 217.812C180.913 216.132 178.328 214.837 175.587 213.976C175.542 213.965 175.495 213.971 175.455 213.994C175.415 214.017 175.386 214.054 175.373 214.098C175.366 214.12 175.364 214.143 175.367 214.166C175.37 214.189 175.377 214.211 175.389 214.231C175.4 214.251 175.415 214.268 175.434 214.282C175.452 214.296 175.473 214.307 175.495 214.312C175.567 214.332 180.499 215.733 184.58 219.316C182.078 218.88 179.095 220.086 178.959 220.15C178.92 220.165 178.889 220.192 178.869 220.228C178.849 220.264 178.842 220.305 178.85 220.345C178.858 220.386 178.88 220.422 178.912 220.447C178.945 220.472 178.985 220.485 179.025 220.484C179.048 220.488 179.07 220.488 179.092 220.484C179.126 220.467 182.631 219.049 185.108 219.82C186.907 221.469 188.285 223.525 189.128 225.816C189.14 225.85 189.162 225.88 189.191 225.901C189.221 225.922 189.256 225.933 189.292 225.933H189.35C189.372 225.925 189.392 225.912 189.409 225.896C189.426 225.879 189.44 225.86 189.449 225.838C189.458 225.817 189.462 225.793 189.462 225.77C189.462 225.747 189.457 225.723 189.448 225.702Z" fill="white"/>
<path d="M188.486 228.069C188.515 228.475 188.641 228.869 188.851 229.219C189.062 229.568 189.352 229.863 189.698 230.079L223.6 249.644C223.975 249.835 224.389 249.934 224.809 249.934C225.23 249.934 225.644 249.835 226.019 249.644L272.397 222.867C272.762 222.674 273.067 222.384 273.28 222.03C273.493 221.677 273.605 221.272 273.605 220.859C273.605 220.446 273.493 220.041 273.28 219.687C273.067 219.333 272.762 219.044 272.397 218.85L238.501 199.279C238.126 199.09 237.712 198.991 237.292 198.991C236.871 198.991 236.457 199.09 236.082 199.279L189.698 226.061C189.352 226.277 189.062 226.571 188.852 226.92C188.641 227.269 188.516 227.662 188.486 228.069Z" fill="#37474F"/>
<path d="M224.804 247.32V249.936C224.383 249.948 223.967 249.853 223.594 249.658L189.684 230.079C189.33 229.892 189.031 229.615 188.819 229.275C188.607 228.935 188.488 228.545 188.476 228.145C188.463 227.744 188.557 227.348 188.748 226.996C188.939 226.643 189.219 226.348 189.562 226.14C189.019 226.529 189.061 227.099 189.684 227.457L223.6 247.029C223.97 247.226 224.384 247.327 224.804 247.32Z" fill="#263238"/>
<path d="M187.352 226.103C187.015 225.874 186.737 225.569 186.54 225.213C186.343 224.856 186.232 224.459 186.217 224.052V183.6C186.24 183.181 186.361 182.772 186.572 182.409C186.782 182.045 187.075 181.736 187.427 181.507L233.805 154.73C234.165 154.539 234.566 154.435 234.973 154.427C235.381 154.419 235.785 154.508 236.152 154.685C236.488 154.914 236.766 155.219 236.963 155.576C237.161 155.932 237.271 156.33 237.286 156.737V197.189C237.263 197.608 237.142 198.016 236.932 198.38C236.721 198.744 236.429 199.053 236.077 199.282L189.698 226.062C189.337 226.252 188.937 226.354 188.53 226.362C188.122 226.369 187.719 226.28 187.352 226.103Z" fill="#455A64"/>
<path d="M189.553 226.134C189.206 226.29 188.829 226.368 188.449 226.362C188.069 226.357 187.694 226.269 187.352 226.103C187.015 225.874 186.737 225.569 186.54 225.213C186.343 224.856 186.232 224.459 186.217 224.052V183.6C186.231 183.179 186.353 182.769 186.573 182.41L188.842 183.717C188.624 184.077 188.501 184.486 188.486 184.907V225.361C188.486 226.078 188.953 226.398 189.553 226.134Z" fill="#263238"/>
<path d="M188.486 184.913V225.362C188.486 226.134 189.042 226.446 189.698 226.062L236.077 199.282C236.429 199.053 236.722 198.744 236.932 198.38C237.142 198.017 237.263 197.608 237.286 197.189V156.737C237.286 155.967 236.744 155.653 236.077 156.039L189.698 182.816C189.345 183.046 189.051 183.355 188.841 183.719C188.63 184.083 188.509 184.492 188.486 184.913Z" fill="#37474F"/>
<path d="M189.698 227.458L223.6 247.029C223.975 247.218 224.389 247.316 224.809 247.316C225.229 247.316 225.643 247.218 226.018 247.029L272.397 220.252C273.067 219.865 273.067 219.24 272.397 218.862L238.501 199.291C238.126 199.101 237.711 199.003 237.291 199.003C236.871 199.003 236.457 199.101 236.082 199.291L189.698 226.062C189.028 226.446 189.028 227.071 189.698 227.458Z" fill="#455A64"/>
<path d="M190.348 185.062L235.065 159.25C235.465 159.019 235.79 159.208 235.79 159.67V194.698C235.776 194.949 235.704 195.194 235.577 195.412C235.451 195.631 235.276 195.816 235.065 195.954L190.348 221.753C189.945 221.983 189.62 221.797 189.62 221.333V186.305C189.636 186.055 189.71 185.812 189.836 185.597C189.963 185.381 190.138 185.198 190.348 185.062Z" fill="#FAFAFA"/>
<path d="M193.632 226.409L236.683 201.55C236.87 201.454 237.077 201.404 237.287 201.404C237.498 201.404 237.705 201.454 237.892 201.55L240.094 202.821C240.166 202.846 240.229 202.893 240.273 202.956C240.317 203.018 240.341 203.093 240.341 203.17C240.341 203.246 240.317 203.321 240.273 203.383C240.229 203.446 240.166 203.493 240.094 203.518L197.037 228.374C196.85 228.47 196.643 228.52 196.432 228.52C196.222 228.52 196.015 228.47 195.828 228.374L193.632 227.107C193.559 227.081 193.497 227.034 193.452 226.972C193.408 226.909 193.384 226.834 193.384 226.758C193.384 226.681 193.408 226.606 193.452 226.544C193.497 226.481 193.559 226.434 193.632 226.409Z" fill="#37474F"/>
<path d="M199.306 229.686L242.357 204.83C242.544 204.736 242.751 204.687 242.961 204.687C243.171 204.687 243.378 204.736 243.566 204.83L257.11 212.651C257.182 212.676 257.245 212.723 257.289 212.786C257.334 212.848 257.357 212.923 257.357 212.999C257.357 213.076 257.334 213.151 257.289 213.213C257.245 213.276 257.182 213.323 257.11 213.348L214.109 238.168C213.921 238.263 213.714 238.313 213.503 238.313C213.292 238.313 213.085 238.263 212.897 238.168L199.308 230.384C199.235 230.36 199.17 230.314 199.125 230.252C199.079 230.189 199.054 230.114 199.054 230.036C199.053 229.959 199.078 229.883 199.123 229.82C199.168 229.758 199.232 229.711 199.306 229.686Z" fill="#263238"/>
<path d="M237.898 216.007L239.243 215.231C239.301 215.198 239.299 215.142 239.243 215.106L237.684 214.205C237.65 214.188 237.614 214.179 237.577 214.179C237.539 214.179 237.503 214.188 237.469 214.205L236.121 214.984C236.063 215.014 236.066 215.07 236.121 215.106L237.678 216.007C237.712 216.024 237.75 216.033 237.788 216.033C237.826 216.033 237.864 216.024 237.898 216.007ZM235.237 212.915L233.886 213.699C233.828 213.733 233.833 213.788 233.886 213.824L235.443 214.722C235.476 214.739 235.514 214.748 235.551 214.748C235.589 214.748 235.626 214.739 235.66 214.722L237.008 213.944C237.064 213.911 237.061 213.855 237.008 213.819L235.448 212.921C235.416 212.904 235.379 212.896 235.343 212.896C235.306 212.896 235.27 212.904 235.237 212.921V212.915ZM230.881 215.451L228.601 216.766C228.543 216.799 228.546 216.855 228.601 216.891L230.158 217.791C230.192 217.808 230.229 217.816 230.267 217.816C230.304 217.816 230.341 217.808 230.375 217.791L232.655 216.476C232.713 216.443 232.707 216.388 232.655 216.351L231.106 215.451C231.071 215.432 231.033 215.423 230.993 215.423C230.954 215.423 230.916 215.432 230.881 215.451ZM233.266 214.061L231.918 214.839C231.862 214.872 231.865 214.928 231.918 214.964L233.477 215.865C233.511 215.881 233.547 215.89 233.584 215.89C233.622 215.89 233.658 215.881 233.691 215.865L235.04 215.086C235.095 215.053 235.093 214.998 235.04 214.964L233.48 214.061C233.447 214.044 233.41 214.035 233.373 214.035C233.336 214.035 233.299 214.044 233.266 214.061ZM227.984 217.119L226.636 217.894C226.58 217.928 226.583 217.983 226.636 218.019L228.195 218.92C228.228 218.937 228.265 218.946 228.302 218.946C228.34 218.946 228.376 218.937 228.409 218.92L229.758 218.142C229.813 218.111 229.811 218.056 229.758 218.019L228.193 217.119C228.16 217.102 228.123 217.093 228.086 217.093C228.048 217.093 228.012 217.102 227.979 217.119H227.984ZM226.013 218.256L224.668 219.034C224.609 219.065 224.612 219.12 224.668 219.156L226.227 220.057C226.26 220.074 226.297 220.082 226.334 220.082C226.371 220.082 226.408 220.074 226.441 220.057L227.79 219.279C227.848 219.245 227.842 219.19 227.79 219.154L226.233 218.253C226.198 218.234 226.16 218.224 226.12 218.223C226.081 218.223 226.042 218.232 226.008 218.25L226.013 218.256ZM232.146 221.914L233.494 221.136C233.55 221.102 233.547 221.047 233.494 221.011L231.935 220.113C231.901 220.096 231.865 220.087 231.827 220.087C231.79 220.087 231.754 220.096 231.72 220.113L230.372 220.891C230.314 220.924 230.319 220.98 230.372 221.016L231.929 221.914C231.962 221.929 231.999 221.937 232.035 221.936C232.072 221.935 232.108 221.926 232.14 221.909L232.146 221.914ZM230.175 223.051L231.523 222.273C231.581 222.239 231.576 222.184 231.523 222.148L229.966 221.25C229.933 221.233 229.896 221.224 229.858 221.224C229.82 221.224 229.783 221.233 229.749 221.25L228.401 222.028C228.346 222.062 228.348 222.117 228.401 222.153L229.961 223.054C229.994 223.068 230.03 223.075 230.066 223.073C230.102 223.072 230.137 223.062 230.169 223.046L230.175 223.051ZM228.204 224.188L229.552 223.41C229.61 223.376 229.608 223.321 229.552 223.287L227.995 222.387C227.962 222.37 227.925 222.361 227.888 222.361C227.851 222.361 227.814 222.37 227.781 222.387L226.433 223.165C226.375 223.199 226.377 223.254 226.433 223.29L227.992 224.191C228.025 224.205 228.061 224.211 228.096 224.21C228.132 224.208 228.167 224.199 228.198 224.183L228.204 224.188ZM226.236 225.325L227.584 224.547C227.639 224.516 227.637 224.461 227.584 224.425L226.01 223.513C225.977 223.496 225.941 223.487 225.903 223.487C225.866 223.487 225.829 223.496 225.796 223.513L224.448 224.288C224.39 224.322 224.395 224.377 224.448 224.413L226.005 225.314C226.039 225.333 226.077 225.344 226.117 225.345C226.156 225.346 226.195 225.337 226.23 225.32L226.236 225.325ZM235.932 217.158L237.28 216.379C237.336 216.346 237.333 216.29 237.28 216.254L235.721 215.353C235.688 215.337 235.651 215.328 235.614 215.328C235.577 215.328 235.54 215.337 235.507 215.353L234.159 216.132C234.103 216.165 234.106 216.221 234.159 216.254L235.718 217.155C235.751 217.17 235.787 217.178 235.823 217.177C235.859 217.177 235.894 217.168 235.927 217.152L235.932 217.158ZM234.114 220.772L237.122 219.034C237.18 219.001 237.175 218.945 237.122 218.912L233.33 216.727C233.296 216.71 233.259 216.701 233.222 216.701C233.184 216.701 233.147 216.71 233.113 216.727L231.559 217.625C231.501 217.658 231.504 217.714 231.559 217.75L233.561 218.906C233.625 218.942 233.628 218.998 233.561 219.029L232.318 219.749C232.26 219.782 232.263 219.838 232.318 219.874L233.878 220.772C233.913 220.792 233.953 220.802 233.993 220.802C234.034 220.802 234.073 220.792 234.108 220.772H234.114ZM224.045 219.382L222.697 220.16C222.638 220.193 222.644 220.249 222.697 220.282L224.253 221.183C224.287 221.2 224.324 221.209 224.362 221.209C224.399 221.209 224.437 221.2 224.47 221.183L225.816 220.405C225.874 220.371 225.871 220.316 225.816 220.28L224.256 219.379C224.222 219.363 224.184 219.356 224.147 219.357C224.109 219.359 224.072 219.369 224.039 219.387L224.045 219.382ZM222.074 220.519L220.726 221.297C220.67 221.33 220.673 221.386 220.726 221.422L222.285 222.32C222.318 222.337 222.355 222.346 222.392 222.346C222.429 222.346 222.466 222.337 222.499 222.32L223.847 221.542C223.903 221.508 223.9 221.453 223.847 221.417L222.288 220.519C222.254 220.501 222.216 220.493 222.177 220.494C222.139 220.495 222.102 220.505 222.068 220.524L222.074 220.519ZM212.23 233.273C212.263 233.29 212.3 233.298 212.337 233.298C212.374 233.298 212.411 233.29 212.444 233.273L213.792 232.495C213.851 232.461 213.848 232.406 213.792 232.373L212.235 231.472C212.202 231.455 212.165 231.447 212.127 231.447C212.089 231.447 212.052 231.455 212.019 231.472L210.673 232.25C210.615 232.284 210.617 232.339 210.673 232.375L212.23 233.273ZM206.308 229.629L204.96 230.407C204.905 230.44 204.907 230.496 204.96 230.532L206.52 231.43C206.553 231.447 206.59 231.456 206.627 231.456C206.664 231.456 206.701 231.447 206.734 231.43L208.082 230.652C208.138 230.618 208.135 230.563 208.082 230.527L206.523 229.629C206.489 229.612 206.453 229.603 206.415 229.603C206.378 229.603 206.342 229.612 206.308 229.629ZM209.48 232.297C209.514 232.314 209.55 232.322 209.587 232.322C209.625 232.322 209.661 232.314 209.695 232.297L211.043 231.519C211.098 231.486 211.096 231.43 211.043 231.394L209.483 230.493C209.45 230.476 209.413 230.467 209.376 230.467C209.339 230.467 209.302 230.476 209.269 230.493L207.921 231.272C207.865 231.305 207.868 231.358 207.921 231.394L209.48 232.297ZM215.702 233.965L217.05 233.187C217.109 233.156 217.103 233.101 217.05 233.065L215.494 232.164C215.46 232.147 215.423 232.138 215.385 232.138C215.347 232.138 215.31 232.147 215.277 232.164L213.928 232.94C213.873 232.973 213.876 233.029 213.928 233.065L215.488 233.965C215.521 233.983 215.557 233.992 215.595 233.993C215.632 233.993 215.669 233.985 215.702 233.968V233.965ZM213.517 235.1C213.551 235.116 213.588 235.125 213.625 235.125C213.663 235.125 213.7 235.116 213.734 235.1L215.079 234.321C215.138 234.288 215.135 234.232 215.079 234.196L213.52 233.295C213.487 233.278 213.45 233.27 213.413 233.27C213.376 233.27 213.339 233.278 213.306 233.295L211.952 234.077C211.893 234.107 211.896 234.163 211.952 234.199L213.517 235.1ZM208.279 228.483L206.931 229.262C206.873 229.295 206.876 229.351 206.931 229.384L208.488 230.285C208.521 230.302 208.558 230.311 208.595 230.311C208.632 230.311 208.669 230.302 208.702 230.285L210.05 229.506C210.109 229.473 210.106 229.417 210.05 229.381L208.491 228.481C208.457 228.465 208.421 228.458 208.384 228.459C208.348 228.46 208.312 228.469 208.279 228.486V228.483ZM218.129 222.795L216.781 223.574C216.722 223.607 216.728 223.663 216.781 223.699L218.338 224.597C218.371 224.614 218.408 224.623 218.446 224.623C218.484 224.623 218.521 224.614 218.554 224.597L219.903 223.818C219.958 223.785 219.955 223.73 219.903 223.693L218.343 222.795C218.31 222.779 218.273 222.77 218.236 222.771C218.198 222.771 218.162 222.781 218.129 222.798V222.795ZM210.256 227.349L208.908 228.127C208.852 228.161 208.855 228.216 208.908 228.25L210.467 229.151C210.5 229.168 210.537 229.176 210.574 229.176C210.612 229.176 210.648 229.168 210.681 229.151L212.03 228.372C212.088 228.339 212.083 228.283 212.03 228.247L210.473 227.346C210.439 227.33 210.402 227.322 210.364 227.323C210.327 227.323 210.29 227.332 210.256 227.349ZM220.106 221.661L218.76 222.44C218.702 222.473 218.704 222.529 218.76 222.565L220.32 223.463C220.353 223.48 220.389 223.489 220.427 223.489C220.464 223.489 220.501 223.48 220.534 223.463L221.882 222.684C221.94 222.651 221.938 222.595 221.882 222.559L220.325 221.661C220.29 221.642 220.251 221.632 220.211 221.632C220.171 221.632 220.132 221.642 220.097 221.661H220.106ZM216.166 223.935L214.818 224.714C214.762 224.747 214.765 224.803 214.818 224.839L216.372 225.737C216.405 225.753 216.442 225.762 216.479 225.762C216.516 225.762 216.553 225.753 216.586 225.737L217.934 224.958C217.993 224.925 217.987 224.869 217.934 224.836L216.372 223.941C216.339 223.923 216.303 223.913 216.266 223.912C216.228 223.911 216.192 223.919 216.158 223.935H216.166ZM214.198 225.072L212.85 225.851C212.791 225.884 212.794 225.94 212.85 225.976L214.409 226.876C214.442 226.894 214.479 226.902 214.516 226.902C214.554 226.902 214.59 226.894 214.623 226.876L215.972 226.098C216.03 226.065 216.027 226.009 215.972 225.976L214.412 225.075C214.378 225.057 214.34 225.047 214.301 225.047C214.263 225.046 214.224 225.055 214.19 225.072H214.198ZM212.227 226.212L210.879 226.99C210.82 227.021 210.826 227.077 210.879 227.113L212.436 228.013C212.469 228.031 212.506 228.039 212.544 228.039C212.582 228.039 212.619 228.031 212.652 228.013L214.001 227.238C214.056 227.205 214.054 227.149 214.001 227.113L212.441 226.212C212.407 226.194 212.369 226.184 212.33 226.184C212.291 226.184 212.253 226.194 212.219 226.212H212.227ZM222.296 227.602L223.645 226.824C223.703 226.79 223.7 226.735 223.645 226.699L222.085 225.798C222.052 225.781 222.015 225.773 221.978 225.773C221.941 225.773 221.904 225.781 221.871 225.798L220.523 226.576C220.464 226.61 220.467 226.665 220.523 226.699L222.082 227.599C222.114 227.615 222.15 227.622 222.185 227.622C222.221 227.621 222.256 227.613 222.288 227.596L222.296 227.602ZM239.599 210.413L238.251 211.192C238.195 211.225 238.198 211.281 238.251 211.314L239.81 212.215C239.843 212.232 239.88 212.241 239.917 212.241C239.955 212.241 239.991 212.232 240.024 212.215L241.373 211.436C241.431 211.403 241.425 211.347 241.373 211.311L239.816 210.411C239.781 210.392 239.743 210.383 239.704 210.382C239.664 210.382 239.626 210.39 239.591 210.408L239.599 210.413ZM237.214 211.789L235.868 212.568C235.81 212.601 235.813 212.657 235.868 212.693L237.428 213.591C237.461 213.608 237.498 213.617 237.535 213.617C237.572 213.617 237.609 213.608 237.642 213.591L238.99 212.812C239.049 212.779 239.046 212.723 238.99 212.687L237.433 211.789C237.399 211.77 237.36 211.759 237.32 211.758C237.28 211.757 237.241 211.766 237.205 211.784L237.214 211.789ZM241.57 209.287L240.222 210.066C240.163 210.096 240.169 210.152 240.222 210.188L241.778 211.089C241.812 211.105 241.849 211.114 241.887 211.114C241.924 211.114 241.962 211.105 241.995 211.089L243.344 210.31C243.399 210.277 243.396 210.221 243.344 210.185L241.784 209.285C241.751 209.264 241.713 209.252 241.675 209.249C241.636 209.247 241.597 209.254 241.562 209.271L241.57 209.287ZM231.373 219.801L232.721 219.023C232.777 218.99 232.774 218.934 232.721 218.898L231.162 218C231.129 217.983 231.092 217.974 231.055 217.974C231.017 217.974 230.981 217.983 230.948 218L229.599 218.778C229.544 218.812 229.546 218.867 229.599 218.903L231.159 219.801C231.192 219.815 231.228 219.82 231.264 219.817C231.299 219.814 231.334 219.803 231.365 219.785L231.373 219.801ZM243.755 208.153C243.721 208.136 243.684 208.127 243.647 208.127C243.609 208.127 243.572 208.136 243.538 208.153L242.193 208.929C242.134 208.962 242.137 209.018 242.193 209.054L243.752 209.955C243.785 209.972 243.822 209.981 243.859 209.981C243.897 209.981 243.933 209.972 243.966 209.955L245.315 209.176C245.373 209.146 245.37 209.09 245.315 209.054L243.755 208.153ZM224.267 226.473L225.616 225.698C225.674 225.664 225.668 225.609 225.616 225.573L224.059 224.672C224.025 224.655 223.988 224.646 223.95 224.646C223.913 224.646 223.876 224.655 223.842 224.672L222.488 225.431C222.432 225.461 222.435 225.517 222.488 225.553L224.048 226.454C224.08 226.471 224.116 226.48 224.153 226.481C224.19 226.481 224.226 226.473 224.259 226.457L224.267 226.473ZM248.425 212.526L249.774 211.748C249.832 211.714 249.827 211.659 249.774 211.625L248.217 210.725C248.183 210.708 248.146 210.699 248.109 210.699C248.071 210.699 248.034 210.708 248 210.725L246.655 211.503C246.596 211.536 246.599 211.592 246.655 211.628L248.214 212.529C248.247 212.541 248.283 212.545 248.318 212.542C248.353 212.538 248.387 212.527 248.417 212.509L248.425 212.526ZM244.23 212.379L245.579 211.6C245.634 211.567 245.632 211.511 245.579 211.475L244.019 210.577C243.986 210.56 243.949 210.551 243.912 210.551C243.875 210.551 243.838 210.56 243.805 210.577L242.457 211.356C242.398 211.389 242.404 211.445 242.457 211.481L244.014 212.379C244.047 212.392 244.084 212.397 244.12 212.394C244.156 212.392 244.191 212.38 244.222 212.362L244.23 212.379ZM245.982 209.44C245.948 209.423 245.911 209.414 245.873 209.414C245.836 209.414 245.799 209.423 245.765 209.44L244.419 210.219C244.361 210.252 244.364 210.308 244.419 210.344L245.979 211.242C246.012 211.259 246.049 211.268 246.086 211.268C246.123 211.268 246.16 211.259 246.193 211.242L247.541 210.463C247.6 210.43 247.597 210.374 247.541 210.338L245.982 209.44ZM246.396 209.198L250.182 211.386C250.216 211.403 250.252 211.411 250.289 211.411C250.327 211.411 250.363 211.403 250.396 211.386L251.745 210.608C251.8 210.575 251.798 210.519 251.745 210.486L247.958 208.298C247.925 208.281 247.889 208.273 247.851 208.273C247.814 208.273 247.778 208.281 247.744 208.298L246.396 209.076C246.324 209.093 246.327 209.148 246.396 209.182V209.198ZM241.826 211.7L240.477 212.479C240.422 212.512 240.425 212.568 240.477 212.604L242.037 213.502C242.07 213.519 242.107 213.528 242.144 213.528C242.181 213.528 242.218 213.519 242.251 213.502L243.599 212.723C243.658 212.69 243.652 212.635 243.599 212.598L242.043 211.7C242.009 211.681 241.97 211.67 241.931 211.668C241.892 211.667 241.853 211.675 241.817 211.692L241.826 211.7ZM226.992 220.252L225.643 221.03C225.585 221.063 225.591 221.119 225.643 221.155L227.2 222.056C227.234 222.073 227.271 222.082 227.309 222.082C227.346 222.082 227.383 222.073 227.417 222.056L228.763 221.278C228.821 221.244 228.818 221.191 228.763 221.155L227.214 220.257C227.18 220.239 227.142 220.228 227.104 220.227C227.065 220.226 227.026 220.235 226.992 220.252ZM246.232 213.644C246.266 213.661 246.303 213.67 246.34 213.67C246.378 213.67 246.415 213.661 246.449 213.644L247.797 212.865C247.853 212.835 247.85 212.779 247.797 212.743L246.229 211.837C246.196 211.82 246.159 211.812 246.122 211.812C246.085 211.812 246.048 211.82 246.015 211.837L244.667 212.615C244.609 212.648 244.614 212.704 244.667 212.74L246.232 213.644ZM228.96 219.115L227.614 219.893C227.556 219.926 227.559 219.982 227.614 220.018L229.174 220.919C229.207 220.935 229.244 220.944 229.281 220.944C229.318 220.944 229.355 220.935 229.388 220.919L230.736 220.141C230.795 220.107 230.792 220.052 230.736 220.018L229.18 219.117C229.146 219.1 229.108 219.09 229.07 219.089C229.032 219.089 228.994 219.098 228.96 219.115ZM214.195 232.131C214.229 232.147 214.265 232.156 214.302 232.156C214.339 232.156 214.376 232.147 214.409 232.131L215.758 231.352C215.813 231.319 215.811 231.263 215.758 231.23L214.198 230.329C214.165 230.312 214.128 230.303 214.091 230.303C214.054 230.303 214.017 230.312 213.984 230.329L212.636 231.108C212.58 231.141 212.583 231.197 212.636 231.233L214.195 232.131ZM211.232 229.351L209.884 230.126C209.825 230.16 209.828 230.215 209.884 230.251L211.44 231.152C211.474 231.169 211.511 231.178 211.549 231.178C211.586 231.178 211.624 231.169 211.657 231.152L213.003 230.374C213.061 230.343 213.058 230.288 213.003 230.251L211.446 229.351C211.413 229.334 211.376 229.325 211.339 229.325C211.302 229.325 211.265 229.334 211.232 229.351ZM216.372 231.019L217.718 230.24C217.776 230.207 217.773 230.151 217.718 230.115L216.158 229.217C216.125 229.2 216.088 229.191 216.051 229.191C216.014 229.191 215.977 229.2 215.944 229.217L214.596 229.996C214.537 230.029 214.54 230.085 214.596 230.121L216.152 231.019C216.186 231.036 216.224 231.045 216.262 231.045C216.3 231.045 216.338 231.036 216.372 231.019ZM218.34 229.882L219.689 229.103C219.747 229.07 219.741 229.014 219.689 228.978L218.132 228.08C218.098 228.063 218.061 228.054 218.023 228.054C217.986 228.054 217.949 228.063 217.915 228.08L216.567 228.859C216.511 228.892 216.514 228.948 216.567 228.984L218.126 229.882C218.161 229.898 218.2 229.906 218.239 229.904C218.278 229.902 218.315 229.891 218.349 229.871L218.34 229.882ZM220.311 228.745L221.66 227.966C221.715 227.933 221.712 227.877 221.66 227.841L220.1 226.94C220.067 226.924 220.03 226.915 219.993 226.915C219.956 226.915 219.919 226.924 219.886 226.94L218.538 227.719C218.479 227.752 218.485 227.808 218.538 227.841L220.094 228.742C220.13 228.759 220.169 228.767 220.208 228.766C220.247 228.764 220.286 228.753 220.32 228.734L220.311 228.745ZM213.192 228.225L211.843 229.003C211.788 229.037 211.791 229.092 211.843 229.128L213.403 230.029C213.436 230.045 213.473 230.054 213.51 230.054C213.547 230.054 213.584 230.045 213.617 230.029L214.965 229.251C215.024 229.217 215.018 229.162 214.965 229.128L213.409 228.228C213.377 228.21 213.342 228.2 213.306 228.198C213.27 228.195 213.234 228.201 213.2 228.214L213.192 228.225ZM215.163 227.088L213.814 227.866C213.756 227.9 213.762 227.955 213.814 227.991L215.371 228.892C215.405 228.908 215.442 228.917 215.48 228.917C215.517 228.917 215.554 228.908 215.588 228.892L216.936 228.114C216.992 228.08 216.989 228.025 216.936 227.991L215.377 227.091C215.346 227.073 215.311 227.062 215.276 227.06C215.24 227.057 215.204 227.063 215.171 227.077L215.163 227.088ZM223.044 222.529L221.699 223.307C221.64 223.34 221.643 223.396 221.699 223.429L223.258 224.33C223.291 224.347 223.328 224.356 223.365 224.356C223.402 224.356 223.439 224.347 223.472 224.33L224.82 223.552C224.879 223.518 224.876 223.463 224.82 223.426L223.264 222.526C223.229 222.509 223.192 222.501 223.154 222.501C223.115 222.502 223.078 222.511 223.044 222.529ZM221.076 223.666L219.728 224.444C219.669 224.477 219.675 224.533 219.728 224.566L221.284 225.467C221.318 225.484 221.355 225.493 221.393 225.493C221.43 225.493 221.468 225.484 221.501 225.467L222.849 224.689C222.905 224.655 222.902 224.6 222.849 224.564L221.29 223.663C221.257 223.648 221.221 223.64 221.185 223.641C221.149 223.641 221.114 223.65 221.081 223.666H221.076ZM225.015 221.392L223.667 222.17C223.611 222.201 223.614 222.256 223.667 222.292L225.226 223.193C225.259 223.21 225.296 223.219 225.333 223.219C225.371 223.219 225.407 223.21 225.44 223.193L226.789 222.417C226.844 222.384 226.842 222.328 226.789 222.292L225.229 221.392C225.197 221.375 225.161 221.367 225.125 221.367C225.089 221.367 225.053 221.375 225.021 221.392H225.015ZM217.137 225.94L215.788 226.718C215.73 226.751 215.733 226.807 215.788 226.843L217.348 227.741C217.381 227.758 217.418 227.767 217.455 227.767C217.492 227.767 217.529 227.758 217.562 227.741L218.91 226.963C218.969 226.929 218.966 226.874 218.91 226.838L217.351 225.94C217.318 225.923 217.283 225.915 217.246 225.915C217.21 225.915 217.175 225.923 217.142 225.94H217.137ZM219.105 224.803L217.757 225.581C217.701 225.614 217.704 225.67 217.757 225.706L219.316 226.604C219.349 226.621 219.386 226.63 219.423 226.63C219.46 226.63 219.497 226.621 219.53 226.604L220.878 225.826C220.937 225.792 220.931 225.737 220.878 225.701L219.319 224.803C219.286 224.786 219.251 224.778 219.215 224.778C219.178 224.778 219.143 224.786 219.11 224.803H219.105ZM217.668 232.831L219.016 232.053C219.071 232.019 219.069 231.964 219.016 231.931L217.453 231.019C217.42 231.002 217.384 230.993 217.346 230.993C217.309 230.993 217.273 231.002 217.239 231.019L215.891 231.797C215.833 231.83 215.838 231.886 215.891 231.922L217.448 232.823C217.482 232.842 217.52 232.853 217.56 232.854C217.599 232.856 217.638 232.848 217.673 232.831H217.668ZM206.106 231.664L204.549 230.766C204.515 230.749 204.478 230.74 204.44 230.74C204.403 230.74 204.365 230.749 204.332 230.766L202.984 231.544C202.928 231.577 202.931 231.633 202.984 231.669L204.543 232.567C204.576 232.584 204.613 232.593 204.65 232.593C204.687 232.593 204.724 232.584 204.757 232.567L206.106 231.789C206.178 231.755 206.172 231.7 206.111 231.664H206.106ZM209.058 232.531L207.501 231.63C207.467 231.614 207.43 231.605 207.393 231.605C207.355 231.605 207.318 231.614 207.284 231.63L205.21 232.826C205.155 232.859 205.158 232.915 205.21 232.951L206.77 233.851C206.803 233.869 206.84 233.877 206.877 233.877C206.914 233.877 206.951 233.869 206.984 233.851L209.058 232.656C209.144 232.623 209.125 232.567 209.063 232.531H209.058ZM203.715 229.926L202.158 229.025C202.124 229.008 202.087 228.999 202.05 228.999C202.012 228.999 201.975 229.008 201.941 229.025L200.273 229.985C200.217 230.018 200.22 230.073 200.273 230.107L201.833 231.008C201.866 231.025 201.902 231.034 201.94 231.034C201.977 231.034 202.014 231.025 202.047 231.008L203.715 230.048C203.787 230.015 203.781 229.959 203.72 229.926H203.715ZM204.988 229.189C205.021 229.207 205.058 229.215 205.095 229.215C205.132 229.215 205.169 229.207 205.202 229.189L206.55 228.411C206.606 228.378 206.603 228.322 206.55 228.286L204.988 227.405C204.955 227.388 204.918 227.379 204.881 227.379C204.844 227.379 204.807 227.388 204.774 227.405L203.426 228.183C203.37 228.216 203.373 228.272 203.426 228.308L204.988 229.189ZM211.81 233.521L210.256 232.617C210.223 232.6 210.186 232.591 210.149 232.591C210.112 232.591 210.075 232.6 210.042 232.617L207.448 234.113C207.393 234.146 207.395 234.202 207.448 234.238L209.008 235.136C209.041 235.153 209.078 235.162 209.115 235.162C209.152 235.162 209.189 235.153 209.222 235.136L211.813 233.64C211.874 233.61 211.871 233.554 211.81 233.521ZM213.103 235.344L211.543 234.444C211.51 234.427 211.473 234.419 211.436 234.419C211.399 234.419 211.362 234.427 211.329 234.444L209.661 235.4C209.606 235.433 209.608 235.489 209.661 235.525L211.221 236.426C211.254 236.442 211.291 236.451 211.328 236.451C211.365 236.451 211.401 236.442 211.435 236.426L213.103 235.469C213.167 235.433 213.164 235.378 213.103 235.342V235.344ZM219.639 220.733C219.672 220.749 219.709 220.758 219.747 220.758C219.785 220.758 219.822 220.749 219.855 220.733L221.204 219.954C221.259 219.921 221.257 219.865 221.204 219.832L219.644 218.931C219.611 218.914 219.574 218.905 219.537 218.905C219.5 218.905 219.463 218.914 219.43 218.931L218.082 219.71C218.023 219.743 218.029 219.799 218.082 219.835L219.639 220.733ZM215.699 223.007C215.733 223.024 215.77 223.033 215.808 223.033C215.845 223.033 215.883 223.024 215.916 223.007L217.262 222.228C217.32 222.198 217.317 222.142 217.262 222.106L215.702 221.205C215.669 221.189 215.632 221.18 215.595 221.18C215.558 221.18 215.521 221.189 215.488 221.205L214.148 221.984C214.09 222.017 214.092 222.073 214.148 222.109L215.699 223.007ZM206.962 228.05C206.995 228.067 207.033 228.076 207.07 228.076C207.108 228.076 207.145 228.067 207.179 228.05L208.524 227.271C208.583 227.238 208.58 227.182 208.524 227.146L206.965 226.248C206.931 226.231 206.895 226.222 206.858 226.222C206.82 226.222 206.784 226.231 206.75 226.248L205.402 227.027C205.344 227.06 205.349 227.116 205.402 227.152L206.962 228.05ZM217.67 221.87C217.704 221.886 217.74 221.895 217.777 221.895C217.814 221.895 217.851 221.886 217.884 221.87L219.233 221.091C219.291 221.058 219.286 221.002 219.233 220.969L217.676 220.068C217.642 220.051 217.605 220.042 217.567 220.042C217.53 220.042 217.493 220.051 217.459 220.068L216.111 220.847C216.055 220.88 216.058 220.936 216.111 220.972L217.67 221.87ZM213.731 224.144C213.764 224.161 213.801 224.17 213.838 224.17C213.875 224.17 213.912 224.161 213.945 224.144L215.293 223.368C215.349 223.335 215.346 223.279 215.293 223.243L213.734 222.342C213.701 222.325 213.664 222.316 213.627 222.316C213.59 222.316 213.553 222.325 213.52 222.342L212.171 223.121C212.116 223.151 212.119 223.207 212.171 223.243L213.731 224.144ZM214.187 235.486C214.153 235.469 214.116 235.46 214.079 235.46C214.041 235.46 214.004 235.469 213.97 235.486L211.896 236.684C211.841 236.718 211.843 236.773 211.896 236.807L213.456 237.707C213.489 237.724 213.526 237.733 213.563 237.733C213.6 237.733 213.637 237.724 213.67 237.707L215.744 236.509C215.799 236.476 215.797 236.42 215.744 236.384L214.187 235.486ZM210.904 225.776C210.937 225.792 210.974 225.801 211.011 225.801C211.048 225.801 211.085 225.792 211.118 225.776L212.466 224.997C212.522 224.964 212.519 224.908 212.466 224.872L210.907 223.971C210.873 223.955 210.837 223.946 210.8 223.946C210.762 223.946 210.726 223.955 210.693 223.971L209.344 224.75C209.289 224.783 209.291 224.839 209.344 224.872L210.904 225.776ZM208.933 226.913C208.966 226.93 209.003 226.939 209.04 226.939C209.077 226.939 209.114 226.93 209.147 226.913L210.495 226.134C210.554 226.101 210.551 226.045 210.495 226.009L208.938 225.108C208.905 225.092 208.867 225.083 208.83 225.083C208.792 225.083 208.755 225.092 208.722 225.108L207.376 225.887C207.318 225.92 207.32 225.976 207.376 226.009L208.933 226.913ZM250.683 214.403C250.65 214.386 250.613 214.377 250.576 214.377C250.539 214.377 250.502 214.386 250.469 214.403L247.149 216.318C247.094 216.351 247.097 216.407 247.149 216.443L248.709 217.344C248.742 217.36 248.779 217.369 248.816 217.369C248.853 217.369 248.89 217.36 248.923 217.344L252.248 215.451C252.306 215.417 252.304 215.362 252.248 215.328L250.683 214.403ZM246.327 216.905C246.293 216.888 246.257 216.88 246.22 216.88C246.182 216.88 246.146 216.888 246.113 216.905L244.764 217.683C244.709 217.716 244.711 217.772 244.764 217.805L246.324 218.706C246.357 218.722 246.394 218.731 246.431 218.731C246.468 218.731 246.505 218.722 246.538 218.706L247.886 217.928C247.942 217.894 247.939 217.839 247.886 217.803L246.327 216.905ZM219.639 231.669L220.987 230.891C221.045 230.857 221.042 230.802 220.987 230.768L219.43 229.907C219.397 229.89 219.36 229.881 219.323 229.881C219.286 229.881 219.249 229.89 219.216 229.907L217.868 230.685C217.809 230.718 217.812 230.774 217.868 230.81L219.427 231.711C219.462 231.725 219.499 231.731 219.536 231.728C219.573 231.725 219.609 231.713 219.641 231.694L219.639 231.669ZM242.385 219.181C242.351 219.164 242.315 219.155 242.277 219.155C242.24 219.155 242.204 219.164 242.17 219.181L240.822 219.96C240.764 219.993 240.769 220.049 240.822 220.085L242.379 220.983C242.413 221 242.45 221.009 242.487 221.009C242.525 221.009 242.562 221 242.596 220.983L243.944 220.204C244 220.171 243.997 220.116 243.944 220.079L242.385 219.181ZM252.651 213.254C252.617 213.237 252.58 213.228 252.543 213.228C252.505 213.228 252.468 213.237 252.434 213.254L251.086 214.033C251.03 214.066 251.033 214.122 251.086 214.158L252.646 215.056C252.679 215.073 252.715 215.082 252.753 215.082C252.79 215.082 252.826 215.073 252.86 215.056L254.208 214.278C254.266 214.244 254.261 214.189 254.208 214.152L252.651 213.254ZM256.179 213.015L252.393 210.83C252.359 210.813 252.323 210.804 252.285 210.804C252.248 210.804 252.212 210.813 252.178 210.83L250.83 211.609C250.772 211.639 250.777 211.695 250.83 211.731L254.614 213.916C254.647 213.933 254.684 213.942 254.722 213.942C254.76 213.942 254.797 213.933 254.831 213.916L256.179 213.138C256.246 213.132 256.243 213.077 256.182 213.04L256.179 213.015ZM235.023 223.429C234.99 223.413 234.953 223.404 234.916 223.404C234.879 223.404 234.842 223.413 234.809 223.429L233.141 224.386C233.083 224.419 233.088 224.475 233.141 224.511L234.698 225.411C234.732 225.428 234.769 225.436 234.806 225.436C234.844 225.436 234.881 225.428 234.915 225.411L236.583 224.455C236.638 224.422 236.635 224.366 236.583 224.33L235.023 223.429ZM240.002 220.583C239.969 220.565 239.932 220.557 239.895 220.557C239.858 220.557 239.821 220.565 239.788 220.583L237.714 221.781C237.659 221.814 237.661 221.87 237.714 221.906L239.274 222.804C239.307 222.821 239.343 222.83 239.381 222.83C239.418 222.83 239.455 222.821 239.488 222.804L241.562 221.606C241.617 221.572 241.614 221.517 241.562 221.483L240.002 220.583ZM230.464 226.09C230.431 226.073 230.394 226.064 230.357 226.064C230.32 226.064 230.283 226.073 230.25 226.09L219.155 232.484C219.096 232.517 219.102 232.573 219.155 232.609L220.712 233.51C220.745 233.526 220.782 233.535 220.82 233.535C220.858 233.535 220.895 233.526 220.928 233.51L232.021 227.116C232.079 227.082 232.076 227.027 232.021 226.993L230.464 226.09ZM218.749 232.853C218.715 232.836 218.678 232.827 218.641 232.827C218.603 232.827 218.566 232.836 218.532 232.853L216.864 233.81C216.809 233.843 216.811 233.899 216.864 233.935L218.424 234.833C218.457 234.85 218.493 234.859 218.531 234.859C218.568 234.859 218.605 234.85 218.638 234.833L220.306 233.874C220.364 233.843 220.359 233.788 220.306 233.751L218.749 232.853ZM232.746 224.772C232.713 224.755 232.676 224.746 232.638 224.746C232.6 224.746 232.563 224.755 232.529 224.772L230.861 225.728C230.803 225.762 230.806 225.817 230.861 225.853L232.421 226.751C232.454 226.768 232.491 226.777 232.528 226.777C232.565 226.777 232.602 226.768 232.635 226.751L234.303 225.792C234.361 225.762 234.356 225.706 234.303 225.67L232.746 224.772ZM216.467 234.171C216.433 234.154 216.397 234.145 216.36 234.145C216.322 234.145 216.286 234.154 216.253 234.171L214.585 235.13C214.526 235.164 214.532 235.219 214.585 235.255L216.141 236.153C216.175 236.17 216.212 236.179 216.25 236.179C216.287 236.179 216.325 236.17 216.358 236.153L218.026 235.194C218.085 235.161 218.082 235.105 218.026 235.072L216.467 234.171ZM237.317 222.139C237.283 222.122 237.246 222.113 237.208 222.113C237.17 222.113 237.133 222.122 237.1 222.139L235.432 223.098C235.373 223.132 235.376 223.187 235.432 223.221L236.991 224.121C237.025 224.138 237.061 224.146 237.098 224.146C237.135 224.146 237.172 224.138 237.205 224.121L238.873 223.162C238.932 223.129 238.926 223.073 238.873 223.037L237.317 222.139ZM244.367 218.067C244.333 218.05 244.296 218.042 244.258 218.042C244.221 218.042 244.184 218.05 244.15 218.067L242.804 218.845C242.746 218.878 242.749 218.934 242.804 218.967L244.364 219.868C244.397 219.885 244.434 219.894 244.471 219.894C244.508 219.894 244.545 219.885 244.578 219.868L245.926 219.09C245.985 219.056 245.982 219.001 245.926 218.965L244.367 218.067ZM248.684 214.934L250.03 214.155C250.088 214.122 250.085 214.066 250.03 214.03L248.47 213.132C248.437 213.115 248.4 213.106 248.363 213.106C248.326 213.106 248.289 213.115 248.256 213.132L246.908 213.911C246.849 213.944 246.852 214 246.908 214.036L248.464 214.934C248.497 214.95 248.533 214.958 248.57 214.958C248.607 214.958 248.643 214.95 248.676 214.934H248.684ZM239.874 214.875L241.222 214.097C241.281 214.066 241.275 214.011 241.222 213.974L239.666 213.074C239.632 213.057 239.595 213.049 239.557 213.049C239.52 213.049 239.483 213.057 239.449 213.074L238.101 213.852C238.045 213.886 238.048 213.941 238.101 213.977L239.66 214.878C239.692 214.893 239.728 214.901 239.763 214.9C239.799 214.9 239.834 214.891 239.866 214.875H239.874ZM235.426 222.595L239.365 220.321C239.421 220.288 239.418 220.232 239.365 220.196L237.778 219.295C237.745 219.279 237.708 219.27 237.671 219.27C237.634 219.27 237.597 219.279 237.564 219.295L233.622 221.567C233.564 221.6 233.566 221.656 233.622 221.692L235.179 222.59C235.213 222.609 235.251 222.62 235.291 222.621C235.33 222.622 235.369 222.613 235.404 222.595H235.426ZM246.513 216.065C246.546 216.082 246.583 216.091 246.62 216.091C246.657 216.091 246.694 216.082 246.727 216.065L248.075 215.287C248.131 215.253 248.128 215.198 248.075 215.162L246.516 214.264C246.483 214.247 246.446 214.238 246.409 214.238C246.371 214.238 246.335 214.247 246.302 214.264L244.953 215.042C244.898 215.075 244.9 215.131 244.953 215.167L246.513 216.065ZM244.5 214.786L245.848 214.008C245.904 213.974 245.901 213.919 245.848 213.883L244.289 212.982C244.256 212.965 244.219 212.956 244.182 212.956C244.145 212.956 244.108 212.965 244.075 212.982L242.726 213.76C242.671 213.791 242.674 213.847 242.726 213.883L244.286 214.783C244.316 214.797 244.349 214.804 244.382 214.805C244.415 214.805 244.447 214.799 244.478 214.786H244.5ZM233.455 223.732L234.803 222.954C234.859 222.921 234.856 222.865 234.803 222.832L233.244 221.931C233.211 221.914 233.174 221.905 233.137 221.905C233.1 221.905 233.063 221.914 233.03 221.931L231.682 222.709C231.626 222.743 231.629 222.798 231.682 222.834L233.241 223.735C233.272 223.748 233.304 223.754 233.337 223.754C233.37 223.753 233.403 223.746 233.433 223.732H233.455ZM242.157 218.581C242.19 218.598 242.226 218.607 242.264 218.607C242.301 218.607 242.338 218.598 242.371 218.581L243.719 217.803C243.777 217.769 243.775 217.714 243.719 217.68L242.159 216.78C242.126 216.763 242.089 216.755 242.052 216.755C242.015 216.755 241.979 216.763 241.945 216.78L240.597 217.558C240.539 217.591 240.541 217.647 240.597 217.683L242.157 218.581ZM223.606 229.423L224.954 228.645C225.01 228.611 225.007 228.556 224.954 228.519L223.394 227.622C223.361 227.604 223.325 227.596 223.287 227.596C223.25 227.596 223.213 227.604 223.18 227.622L221.832 228.4C221.774 228.433 221.779 228.489 221.832 228.525L223.389 229.423C223.42 229.436 223.453 229.443 223.486 229.442C223.52 229.442 223.553 229.434 223.583 229.42L223.606 229.423ZM225.574 228.286L226.922 227.508C226.981 227.474 226.978 227.419 226.922 227.382L225.365 226.482C225.332 226.465 225.295 226.457 225.258 226.457C225.221 226.457 225.185 226.465 225.151 226.482L223.803 227.26C223.745 227.293 223.747 227.349 223.803 227.382L225.363 228.283C225.392 228.296 225.423 228.302 225.454 228.302C225.486 228.302 225.517 228.296 225.546 228.283L225.574 228.286ZM221.635 230.56L222.983 229.782C223.041 229.748 223.036 229.693 222.983 229.656L221.426 228.759C221.393 228.741 221.355 228.733 221.318 228.733C221.28 228.733 221.243 228.741 221.209 228.759L219.861 229.537C219.805 229.57 219.808 229.626 219.861 229.662L221.421 230.56C221.451 230.573 221.484 230.58 221.517 230.579C221.55 230.579 221.582 230.571 221.612 230.557L221.635 230.56ZM229.494 226.015L230.839 225.239C230.898 225.206 230.895 225.15 230.839 225.114L229.28 224.213C229.247 224.196 229.21 224.187 229.173 224.187C229.135 224.187 229.099 224.196 229.066 224.213L227.717 224.992C227.659 225.022 227.664 225.078 227.717 225.114L229.274 226.015C229.308 226.032 229.346 226.041 229.384 226.041C229.422 226.041 229.46 226.032 229.494 226.015ZM227.523 227.154L228.871 226.376C228.927 226.343 228.924 226.287 228.871 226.251L227.311 225.35C227.278 225.334 227.241 225.325 227.204 225.325C227.167 225.325 227.131 225.334 227.097 225.35L225.749 226.129C225.693 226.162 225.696 226.218 225.749 226.251L227.309 227.152C227.342 227.167 227.379 227.175 227.416 227.174C227.453 227.173 227.49 227.163 227.523 227.146V227.154ZM231.462 224.878L232.81 224.099C232.869 224.066 232.863 224.01 232.81 223.977L231.253 223.076C231.22 223.06 231.183 223.051 231.145 223.051C231.107 223.051 231.07 223.06 231.037 223.076L229.691 223.855C229.633 223.888 229.635 223.944 229.691 223.98L231.251 224.88C231.284 224.895 231.321 224.901 231.358 224.899C231.394 224.897 231.43 224.887 231.462 224.869V224.878ZM240.475 208.053C240.508 208.07 240.545 208.079 240.583 208.079C240.621 208.079 240.658 208.07 240.692 208.053L242.04 207.275C242.095 207.244 242.093 207.189 242.04 207.152L241.626 206.913C241.592 206.896 241.555 206.887 241.517 206.887C241.479 206.887 241.442 206.896 241.409 206.913L240.06 207.692C240.005 207.725 240.008 207.781 240.06 207.817L240.475 208.053ZM230.784 214.308C230.817 214.325 230.853 214.334 230.891 214.334C230.928 214.334 230.965 214.325 230.998 214.308L232.346 213.53C232.402 213.496 232.399 213.441 232.346 213.405L230.786 212.507C230.753 212.49 230.717 212.481 230.679 212.481C230.642 212.481 230.605 212.49 230.572 212.507L229.224 213.285C229.168 213.318 229.171 213.374 229.224 213.41L230.784 214.308ZM234.72 212.026C234.753 212.043 234.79 212.052 234.827 212.052C234.864 212.052 234.901 212.043 234.934 212.026L236.282 211.247C236.341 211.214 236.335 211.158 236.282 211.122L234.726 210.221C234.692 210.205 234.655 210.196 234.617 210.196C234.58 210.196 234.543 210.205 234.509 210.221L233.16 211C233.105 211.033 233.108 211.089 233.16 211.122L234.72 212.026ZM228.373 215.69C228.407 215.706 228.444 215.715 228.482 215.715C228.519 215.715 228.556 215.706 228.59 215.69L229.938 214.911C229.994 214.878 229.991 214.822 229.938 214.786L228.379 213.886C228.346 213.869 228.309 213.861 228.272 213.861C228.235 213.861 228.198 213.869 228.165 213.886L226.817 214.664C226.758 214.695 226.764 214.75 226.817 214.786L228.373 215.69ZM232.749 213.163C232.783 213.18 232.82 213.189 232.857 213.189C232.895 213.189 232.932 213.18 232.966 213.163L234.311 212.384C234.37 212.351 234.367 212.295 234.311 212.259L232.752 211.361C232.719 211.344 232.682 211.335 232.645 211.335C232.608 211.335 232.571 211.344 232.538 211.361L231.189 212.14C231.131 212.173 231.134 212.229 231.189 212.265L232.749 213.163ZM224.434 217.953C224.467 217.97 224.504 217.979 224.541 217.979C224.578 217.979 224.615 217.97 224.648 217.953L225.996 217.174C226.055 217.141 226.052 217.085 225.996 217.049L224.434 216.168C224.401 216.151 224.364 216.142 224.327 216.142C224.29 216.142 224.253 216.151 224.22 216.168L222.872 216.946C222.813 216.98 222.816 217.035 222.872 217.071L224.434 217.953ZM226.408 216.841C226.441 216.858 226.478 216.867 226.515 216.867C226.552 216.867 226.589 216.858 226.622 216.841L227.97 216.062C228.029 216.029 228.023 215.973 227.97 215.937L226.411 215.036C226.377 215.02 226.341 215.011 226.304 215.011C226.266 215.011 226.23 215.02 226.197 215.036L224.848 215.815C224.793 215.848 224.795 215.904 224.848 215.937L226.408 216.841ZM236.535 210.333C236.568 210.35 236.605 210.359 236.642 210.359C236.68 210.359 236.716 210.35 236.749 210.333L238.098 209.554C238.156 209.521 238.153 209.465 238.098 209.429L237.684 209.19C237.65 209.173 237.614 209.164 237.577 209.164C237.539 209.164 237.503 209.173 237.469 209.19L236.121 209.969C236.063 210.002 236.068 210.057 236.121 210.094L236.535 210.333ZM242.446 206.922C242.479 206.938 242.516 206.947 242.553 206.947C242.59 206.947 242.626 206.938 242.66 206.922L244.008 206.143C244.066 206.11 244.064 206.054 244.008 206.021L243.594 205.782C243.561 205.765 243.524 205.756 243.487 205.756C243.45 205.756 243.413 205.765 243.38 205.782L242.031 206.56C241.973 206.594 241.979 206.649 242.031 206.685L242.446 206.922ZM245.721 208.812C245.754 208.828 245.79 208.837 245.828 208.837C245.865 208.837 245.901 208.828 245.935 208.812L247.283 208.034C247.341 208 247.336 207.945 247.283 207.911L245.723 207.011C245.69 206.994 245.654 206.985 245.616 206.985C245.579 206.985 245.542 206.994 245.509 207.011L244.161 207.789C244.105 207.822 244.108 207.878 244.161 207.914L245.721 208.812ZM250.644 213.816L251.992 213.038C252.051 213.004 252.045 212.949 251.992 212.913L250.435 212.012C250.402 211.995 250.365 211.987 250.327 211.987C250.289 211.987 250.252 211.995 250.219 212.012L248.87 212.79C248.815 212.824 248.817 212.879 248.87 212.913L250.43 213.813C250.464 213.828 250.502 213.834 250.539 213.831C250.576 213.828 250.612 213.816 250.644 213.797V213.816ZM238.506 209.201C238.54 209.218 238.576 209.226 238.613 209.226C238.651 209.226 238.687 209.218 238.72 209.201L240.069 208.423C240.124 208.389 240.122 208.334 240.069 208.298L239.655 208.059C239.621 208.042 239.585 208.033 239.548 208.033C239.51 208.033 239.474 208.042 239.441 208.059L238.092 208.837C238.034 208.87 238.037 208.926 238.092 208.962L238.506 209.201ZM222.466 219.12C222.499 219.137 222.537 219.146 222.574 219.146C222.612 219.146 222.649 219.137 222.683 219.12L224.031 218.342C224.087 218.309 224.084 218.253 224.031 218.217L222.471 217.319C222.438 217.302 222.402 217.293 222.364 217.293C222.327 217.293 222.29 217.302 222.257 217.319L220.909 218.097C220.851 218.131 220.856 218.186 220.909 218.222L222.466 219.12Z" fill="#455A64"/>
<path d="M231.203 230.927L244.505 223.235C244.73 223.121 244.979 223.062 245.231 223.062C245.483 223.062 245.732 223.121 245.957 223.235L253.585 227.638C253.985 227.872 253.985 228.247 253.585 228.472L240.28 236.167C240.055 236.282 239.807 236.342 239.554 236.342C239.302 236.342 239.053 236.282 238.829 236.167L231.2 231.764C230.803 231.533 230.803 231.158 231.203 230.927Z" fill="#263238"/>
<path d="M234.111 163.247V165.279L203.834 182.76C203.626 182.88 203.456 182.782 203.456 182.54L203.478 181.812C203.298 181.74 203.112 181.682 202.922 181.64L193.854 186.874C193.744 186.947 193.652 187.044 193.586 187.159C193.519 187.273 193.481 187.401 193.473 187.533V188.301C193.467 188.433 193.429 188.561 193.363 188.676C193.298 188.79 193.206 188.887 193.095 188.959L192.05 189.563V187.533C192.056 187.401 192.094 187.273 192.159 187.158C192.225 187.044 192.317 186.947 192.428 186.874L233.733 163.028C233.942 162.908 234.111 163.005 234.111 163.247Z" fill="#212121"/>
<path d="M234.114 193.677C234.107 193.809 234.069 193.937 234.002 194.051C233.936 194.165 233.844 194.262 233.733 194.333L192.428 218.18C192.219 218.302 192.05 218.202 192.05 217.96V189.563L193.095 188.959C193.304 188.84 193.651 186.997 193.854 186.874L202.922 181.64C203.131 181.52 203.626 182.879 203.834 182.752L234.111 165.279V193.677H234.114Z" fill="#EBEBEB"/>
<path d="M193.854 197.347L211.996 186.864C212.205 186.741 212.374 186.842 212.374 187.083V204.914C212.368 205.046 212.33 205.175 212.265 205.289C212.199 205.404 212.107 205.501 211.996 205.573L193.854 216.057C193.645 216.176 193.476 216.079 193.476 215.837V198.006C193.482 197.874 193.52 197.746 193.586 197.631C193.651 197.517 193.743 197.419 193.854 197.347Z" fill="#FAFAFA"/>
<path d="M193.854 192.637L232.31 170.436C232.518 170.314 232.688 170.414 232.688 170.656V173.327C232.681 173.459 232.643 173.587 232.577 173.701C232.512 173.815 232.42 173.912 232.31 173.983L193.854 196.187C193.645 196.307 193.476 196.209 193.476 195.968V193.296C193.482 193.164 193.52 193.036 193.586 192.921C193.651 192.806 193.743 192.709 193.854 192.637Z" fill="#455A64"/>
<path d="M218.429 180.567V181.273C218.429 181.42 218.532 181.479 218.657 181.406L229.836 174.951V173.717L218.657 180.172C218.591 180.215 218.536 180.274 218.496 180.342C218.457 180.411 218.434 180.488 218.429 180.567Z" fill="#FAFAFA"/>
<path d="M231.034 173.025C231.162 172.952 231.262 173.025 231.262 173.155V173.864C231.258 173.943 231.235 174.02 231.195 174.089C231.156 174.158 231.1 174.216 231.034 174.259L229.835 174.951V173.717L231.034 173.025Z" fill="#212121"/>
<path d="M230.948 173.995L230.811 173.953C230.826 173.897 230.833 173.839 230.834 173.781C230.839 173.728 230.83 173.674 230.809 173.626C230.787 173.577 230.754 173.535 230.711 173.503C230.682 173.485 230.648 173.476 230.614 173.476C230.58 173.476 230.546 173.485 230.517 173.503C230.43 173.567 230.359 173.65 230.311 173.747C230.262 173.844 230.238 173.95 230.239 174.059C230.234 174.111 230.243 174.165 230.264 174.213C230.286 174.262 230.319 174.304 230.361 174.337C230.387 174.351 230.417 174.359 230.447 174.359C230.486 174.358 230.523 174.346 230.556 174.325C230.655 174.258 230.731 174.161 230.772 174.047L230.906 174.089H230.92C230.93 174.09 230.941 174.087 230.949 174.081C230.958 174.074 230.964 174.066 230.967 174.056C230.971 174.045 230.972 174.033 230.968 174.022C230.965 174.01 230.957 174.001 230.948 173.995ZM230.517 174.25C230.502 174.259 230.486 174.263 230.469 174.263C230.453 174.263 230.436 174.259 230.422 174.25C230.395 174.225 230.374 174.194 230.362 174.159C230.349 174.124 230.345 174.087 230.35 174.05C230.349 173.961 230.368 173.872 230.405 173.791C230.443 173.709 230.498 173.638 230.567 173.58C230.585 173.569 230.606 173.563 230.628 173.561C230.639 173.557 230.651 173.557 230.661 173.561C230.709 173.586 230.734 173.661 230.734 173.758C230.739 173.852 230.723 173.945 230.685 174.031C230.647 174.116 230.59 174.192 230.517 174.25Z" fill="#FAFAFA"/>
<path d="M234.111 165.279V167.751L192.05 192.034V189.563L192.831 189.112C193.039 188.99 193.109 188.806 193.209 188.453L193.473 187.533C193.488 187.403 193.53 187.278 193.596 187.165C193.661 187.051 193.749 186.952 193.854 186.874L202.922 181.64C202.963 181.604 203.011 181.578 203.064 181.565C203.116 181.552 203.171 181.552 203.224 181.565C203.276 181.578 203.325 181.603 203.365 181.639C203.406 181.675 203.437 181.72 203.456 181.77L203.781 182.36C203.901 182.565 203.959 182.688 204.168 182.565L234.111 165.279Z" fill="#E6E6E6"/>
<path d="M232.332 164.523C232.61 164.37 232.81 164.492 232.81 164.801C232.802 164.968 232.755 165.13 232.671 165.275C232.588 165.42 232.472 165.544 232.332 165.635C232.054 165.788 231.851 165.663 231.851 165.357C231.859 165.189 231.906 165.026 231.99 164.881C232.074 164.736 232.191 164.613 232.332 164.523Z" fill="#455A64"/>
<path d="M230.609 165.516C230.873 165.363 231.087 165.485 231.087 165.794C231.079 165.961 231.031 166.124 230.948 166.268C230.865 166.413 230.749 166.537 230.609 166.628C230.331 166.781 230.13 166.656 230.13 166.35C230.138 166.183 230.186 166.02 230.269 165.875C230.352 165.73 230.468 165.607 230.609 165.516Z" fill="#455A64"/>
<path d="M228.882 166.522C229.146 166.369 229.36 166.491 229.36 166.8C229.352 166.967 229.305 167.129 229.221 167.274C229.138 167.419 229.022 167.543 228.882 167.634C228.604 167.787 228.404 167.662 228.404 167.356C228.412 167.189 228.459 167.026 228.542 166.881C228.625 166.736 228.742 166.613 228.882 166.522Z" fill="#455A64"/>
<path opacity="0.5" d="M193.793 189.743L193.195 190.085L193.423 189.649C193.432 189.633 193.436 189.614 193.436 189.596C193.436 189.578 193.432 189.559 193.423 189.543C193.404 189.521 193.373 189.543 193.354 189.574L193.031 190.196V190.219C193.03 190.23 193.03 190.241 193.031 190.252C193.03 190.26 193.03 190.269 193.031 190.277V190.291L193.354 190.541C193.359 190.544 193.365 190.545 193.37 190.545C193.376 190.545 193.382 190.544 193.387 190.541C193.402 190.528 193.415 190.512 193.423 190.494C193.432 190.478 193.437 190.461 193.437 190.443C193.437 190.424 193.432 190.407 193.423 190.391L193.195 190.219L193.793 189.874C193.808 189.861 193.82 189.846 193.828 189.828C193.836 189.81 193.84 189.791 193.84 189.771C193.854 189.746 193.818 189.727 193.793 189.743Z" fill="#455A64"/>
<path opacity="0.5" d="M194.29 189.455L194.888 189.11L194.66 188.935C194.641 188.921 194.638 188.874 194.66 188.835C194.682 188.796 194.707 188.773 194.727 188.787L195.052 189.038C195.054 189.047 195.054 189.056 195.052 189.065C195.053 189.076 195.053 189.088 195.052 189.099C195.053 189.106 195.053 189.114 195.052 189.121L194.727 189.744C194.72 189.758 194.709 189.77 194.696 189.78C194.691 189.784 194.685 189.786 194.678 189.786C194.672 189.786 194.665 189.784 194.66 189.78C194.651 189.764 194.647 189.745 194.647 189.727C194.647 189.709 194.651 189.69 194.66 189.674L194.888 189.235L194.29 189.596C194.263 189.613 194.243 189.596 194.243 189.552C194.243 189.533 194.248 189.515 194.256 189.498C194.264 189.481 194.276 189.466 194.29 189.455Z" fill="#455A64"/>
<path opacity="0.5" d="M196.248 187.736C196.248 187.7 196.211 187.705 196.198 187.736L196.114 187.936C195.975 187.919 195.806 188.056 195.692 188.298C195.544 188.612 195.544 188.981 195.692 189.132C195.729 189.167 195.777 189.187 195.828 189.19C195.878 189.193 195.929 189.179 195.97 189.148C196.092 189.07 196.189 188.957 196.248 188.823C196.267 188.781 196.267 188.734 196.248 188.717C196.228 188.701 196.198 188.717 196.181 188.756C196.07 188.99 195.903 189.093 195.781 188.987C195.725 188.894 195.695 188.788 195.695 188.68C195.695 188.572 195.725 188.465 195.781 188.373C195.858 188.206 195.972 188.095 196.059 188.095L195.997 188.245C195.981 188.284 195.997 188.323 196.02 188.306L196.264 188.147C196.274 188.139 196.281 188.129 196.286 188.117C196.291 188.106 196.293 188.093 196.292 188.081L196.248 187.736Z" fill="#455A64"/>
<path opacity="0.5" d="M202.658 182.768L202.878 182.307C202.89 182.285 202.897 182.261 202.897 182.236C202.897 182.211 202.89 182.187 202.878 182.165C202.85 182.14 202.808 182.165 202.783 182.218L202.567 182.679L202.35 182.468C202.322 182.446 202.283 182.468 202.255 182.524C202.243 182.545 202.236 182.57 202.236 182.595C202.236 182.619 202.243 182.644 202.255 182.665L202.472 182.877L202.255 183.335C202.243 183.357 202.236 183.382 202.236 183.408C202.236 183.433 202.243 183.458 202.255 183.48C202.262 183.485 202.27 183.487 202.279 183.487C202.287 183.487 202.296 183.485 202.302 183.48C202.323 183.465 202.339 183.445 202.35 183.422L202.567 182.963L202.783 183.171C202.787 183.175 202.79 183.177 202.794 183.179C202.798 183.18 202.803 183.181 202.807 183.181C202.811 183.181 202.816 183.18 202.82 183.179C202.824 183.177 202.828 183.175 202.831 183.171C202.852 183.158 202.868 183.139 202.878 183.116C202.891 183.094 202.897 183.069 202.897 183.044C202.897 183.018 202.891 182.993 202.878 182.971L202.658 182.768Z" fill="#455A64"/>
<path d="M197.04 188.304V187.534C197.046 187.402 197.084 187.273 197.149 187.159C197.215 187.044 197.307 186.947 197.418 186.875L231.595 167.154C231.804 167.034 231.973 167.131 231.973 167.373V168.143C231.967 168.275 231.929 168.404 231.864 168.518C231.798 168.633 231.706 168.73 231.595 168.802L197.418 188.523C197.209 188.643 197.04 188.546 197.04 188.304Z" fill="#FAFAFA"/>
<path d="M231.384 167.561L231.484 167.773C231.489 167.776 231.494 167.778 231.499 167.778C231.505 167.778 231.51 167.776 231.515 167.773L231.74 167.686C231.773 167.686 231.79 167.723 231.762 167.77L231.601 168.073C231.596 168.092 231.596 168.112 231.601 168.131L231.64 168.409C231.64 168.451 231.606 168.509 231.576 168.507L231.376 168.482C231.368 168.481 231.36 168.483 231.353 168.487C231.346 168.491 231.341 168.497 231.337 168.504L231.137 168.76C231.103 168.798 231.067 168.785 231.073 168.735L231.112 168.418C231.115 168.411 231.117 168.403 231.117 168.395C231.117 168.388 231.115 168.38 231.112 168.373L230.948 168.256C230.923 168.237 230.948 168.17 230.973 168.142L231.195 167.973C231.211 167.959 231.223 167.941 231.228 167.92L231.328 167.595C231.312 167.553 231.356 167.528 231.384 167.561Z" stroke="#E0E0E0" stroke-width="0.75" stroke-miterlimit="10"/>
<g opacity="0.5">
<path d="M232.421 167.061C232.398 167.06 232.375 167.054 232.355 167.042C232.335 167.031 232.319 167.014 232.307 166.994C232.29 166.964 232.286 166.927 232.295 166.894C232.304 166.86 232.327 166.831 232.357 166.814L233.425 166.196C233.454 166.184 233.487 166.183 233.518 166.194C233.548 166.204 233.574 166.225 233.59 166.253C233.606 166.28 233.612 166.313 233.606 166.344C233.6 166.376 233.583 166.404 233.558 166.424L232.496 167.041C232.474 167.056 232.447 167.063 232.421 167.061Z" fill="#455A64"/>
<path d="M232.421 167.678C232.398 167.678 232.375 167.671 232.355 167.659C232.335 167.648 232.319 167.631 232.307 167.611C232.299 167.596 232.293 167.58 232.291 167.563C232.289 167.546 232.291 167.529 232.295 167.512C232.3 167.496 232.308 167.48 232.318 167.467C232.329 167.453 232.342 167.442 232.357 167.433L233.425 166.814C233.454 166.801 233.487 166.8 233.518 166.811C233.548 166.821 233.574 166.842 233.59 166.87C233.606 166.897 233.612 166.93 233.606 166.962C233.6 166.993 233.583 167.022 233.558 167.042L232.496 167.661C232.473 167.674 232.447 167.68 232.421 167.678Z" fill="#455A64"/>
<path d="M232.421 168.296C232.392 168.296 232.364 168.286 232.341 168.268C232.318 168.251 232.302 168.226 232.295 168.198C232.287 168.17 232.289 168.14 232.301 168.114C232.312 168.087 232.332 168.065 232.357 168.051L233.425 167.434C233.439 167.424 233.456 167.418 233.473 167.416C233.491 167.413 233.508 167.414 233.525 167.418C233.542 167.423 233.558 167.431 233.572 167.441C233.586 167.452 233.597 167.466 233.605 167.481C233.623 167.511 233.627 167.547 233.619 167.581C233.61 167.615 233.588 167.644 233.558 167.662L232.496 168.279C232.473 168.291 232.447 168.297 232.421 168.296Z" fill="#455A64"/>
</g>
<path d="M202.163 201.551C203.69 199.997 204.082 199.29 204.082 198.668C204.082 198.045 203.82 197.653 203.009 198.112C202.435 198.432 202.006 198.959 201.808 199.585C201.757 199.717 201.677 199.835 201.574 199.931C201.471 200.028 201.347 200.099 201.213 200.141L200.153 200.375C199.9 200.433 199.731 200.272 199.792 200.019C200.256 198.126 201.427 196.377 203.07 195.429C205.043 194.289 206.194 195.151 206.194 197.075C206.194 198.923 205.221 200.466 204.248 201.576C204.067 201.808 203.961 202.09 203.945 202.385V203.013C203.938 203.154 203.897 203.291 203.826 203.413C203.756 203.535 203.658 203.639 203.54 203.716L202.238 204.467C202.013 204.597 201.833 204.492 201.833 204.233V202.337C201.852 202.046 201.969 201.769 202.163 201.551Z" fill="#455A64"/>
<path d="M201.808 207.074C201.805 206.688 201.903 206.308 202.091 205.971C202.28 205.634 202.553 205.352 202.884 205.153C203.581 204.747 203.945 205.106 203.945 205.84C203.951 206.226 203.856 206.607 203.67 206.945C203.484 207.283 203.213 207.567 202.884 207.769C202.169 208.181 201.808 207.808 201.808 207.074Z" fill="#455A64"/>
<path d="M244.914 156.759L243.894 156.164C243.795 156.117 243.685 156.097 243.576 156.107C243.467 156.117 243.362 156.157 243.274 156.223L217.873 170.884C217.62 171.05 217.408 171.272 217.257 171.535C217.105 171.797 217.017 172.091 217 172.394V208.926C216.991 209.032 217.008 209.139 217.052 209.236C217.095 209.333 217.162 209.418 217.248 209.482L218.276 210.077L243.263 194.759C243.517 194.593 243.727 194.37 243.879 194.108C244.03 193.846 244.117 193.552 244.133 193.249L244.914 156.759Z" fill="#212121"/>
<path opacity="0.15" d="M218.26 210.077L217.245 209.49C217.159 209.427 217.092 209.342 217.049 209.245C217.006 209.147 216.989 209.04 217 208.934V172.394C217.012 172.073 217.108 171.762 217.278 171.49L218.318 172.082C218.147 172.354 218.051 172.667 218.04 172.989V209.523C218.028 209.627 218.042 209.731 218.08 209.828C218.118 209.924 218.18 210.01 218.26 210.077Z" fill="black"/>
<path d="M218.893 171.482L244.294 156.817C244.775 156.539 245.164 156.765 245.164 157.321V193.853C245.148 194.155 245.061 194.449 244.91 194.711C244.759 194.974 244.548 195.196 244.294 195.362L218.893 210.027C218.412 210.305 218.021 210.079 218.021 209.523V172.989C218.038 172.687 218.126 172.393 218.277 172.131C218.429 171.869 218.64 171.647 218.893 171.482Z" fill="#212121"/>
<path opacity="0.4" d="M243.894 156.164L244.889 156.739C244.793 156.704 244.689 156.693 244.588 156.707C244.486 156.72 244.389 156.758 244.305 156.817L218.905 171.481C218.663 171.631 218.462 171.837 218.318 172.082L217.287 171.49C217.43 171.243 217.631 171.035 217.873 170.884L243.26 156.236C243.349 156.171 243.453 156.131 243.562 156.122C243.672 156.112 243.782 156.132 243.88 156.18L243.894 156.164Z" fill="white"/>
<path d="M221.776 172.916L242.118 161.17C242.482 160.959 242.777 161.132 242.777 161.551V192.801C242.764 193.03 242.698 193.253 242.583 193.451C242.469 193.65 242.309 193.818 242.118 193.944L221.776 205.667C221.412 205.876 221.115 205.706 221.115 205.286V174.064C221.126 173.834 221.191 173.61 221.307 173.41C221.422 173.21 221.583 173.041 221.776 172.916Z" fill="white"/>
<path d="M237.895 179.796L238.101 179.627C237.761 179.259 237.32 178.999 236.833 178.882L236.766 179.138C237.198 179.244 237.59 179.473 237.895 179.796Z" fill="#37474F"/>
<path d="M238.348 180.833L237.928 180.422C237.829 180.318 237.773 180.181 237.773 180.037C237.773 179.893 237.829 179.756 237.928 179.652C238.032 179.553 238.17 179.497 238.313 179.497C238.457 179.497 238.595 179.553 238.698 179.652L239.115 180.063C239.215 180.167 239.27 180.305 239.27 180.448C239.27 180.592 239.215 180.73 239.115 180.833C239.012 180.932 238.874 180.987 238.732 180.987C238.589 180.987 238.451 180.932 238.348 180.833Z" fill="#212121"/>
<mask id="mask2_1187_39301" style="mask-type:luminance" maskUnits="userSpaceOnUse" x="221" y="161" width="22" height="45">
<path d="M221.776 172.916L242.118 161.17C242.482 160.959 242.777 161.132 242.777 161.551V192.801C242.764 193.03 242.698 193.253 242.583 193.451C242.469 193.65 242.309 193.818 242.118 193.944L221.776 205.667C221.412 205.876 221.115 205.706 221.115 205.286V174.064C221.126 173.834 221.191 173.61 221.307 173.41C221.422 173.21 221.583 173.041 221.776 172.916Z" fill="white"/>
</mask>
<g mask="url(#mask2_1187_39301)">
<path d="M242.048 190.335L242.988 191.942C242.988 191.942 249.143 188.678 249.49 188.25C249.838 187.822 249.816 186.957 249.868 186.49C249.955 185.712 249.668 185.042 249.627 184.761C249.557 184.272 250.26 184.244 250.608 184.925C250.864 185.42 250.886 185.987 251.103 185.992C251.413 185.774 251.703 185.528 251.967 185.256C252.348 184.839 253.038 184.144 253.56 184.238C253.649 184.259 253.73 184.306 253.792 184.373C253.854 184.439 253.894 184.523 253.908 184.614C253.923 184.901 253.989 185.183 254.102 185.448C254.187 185.548 254.257 185.66 254.308 185.781C254.325 185.961 254.325 186.141 254.308 186.32C254.33 186.579 254.586 186.687 254.614 186.94C254.606 187.135 254.585 187.329 254.55 187.521C254.55 187.647 254.589 187.755 254.589 187.88C254.562 188.137 254.451 188.377 254.272 188.564C253.751 189.171 253.134 189.687 252.445 190.093C251.889 190.46 251.144 190.785 250.499 191.13C249.855 191.475 242.61 197.04 241.645 196.384C241.25 196.106 240.211 194.78 239.118 193.295" fill="#FFA8A7"/>
<path d="M238.89 193.488C237.78 191.941 236.759 190.333 235.832 188.67C234.72 185.556 235.98 183.482 235.98 183.482C235.98 183.482 237.578 182.988 238.91 185.089C239.496 186.015 241.031 188.617 242.037 190.335" fill="#FFA8A7"/>
<path d="M233.183 183.53C233.183 183.53 234.945 182.815 236.088 182.89C237.231 182.965 238.076 183.288 238.915 184.636C240.027 186.435 241.887 189.543 241.887 189.543C241.101 191.159 239.847 192.501 238.287 193.393L234.873 188.245L233.183 183.53Z" fill="#455A64"/>
<path d="M227.589 186.643C227.002 187.117 226.568 187.755 226.344 188.475C226.083 189.346 225.956 190.252 225.966 191.161V197.013L225.891 208.088C229.605 209.353 234.325 208.238 238.287 203.835C238.287 203.835 238.067 189.657 238.067 187.341C238.067 187.236 238.067 187.13 238.067 187.022C237.923 183.738 235.09 182.215 232.299 183.794L229.952 185.117L227.598 186.643H227.589Z" fill="#F0F0F0"/>
<path d="M228.882 173.172C228.882 173.172 227.061 173.03 226.658 174.72C226.288 176.227 229.035 182.176 228.974 182.076C228.913 181.976 228.882 173.172 228.882 173.172Z" fill="#263238"/>
<path d="M235.312 169.769C235.312 169.769 234.637 167.951 231.356 169.243C229.688 169.902 229.063 171.968 229.063 171.968L235.312 169.769Z" fill="#212121"/>
<path opacity="0.4" d="M235.312 169.769C235.312 169.769 234.637 167.951 231.356 169.243C229.688 169.902 229.063 171.968 229.063 171.968L235.312 169.769Z" fill="black"/>
<path d="M230.133 174.598C230.133 177.1 231.884 178.651 234.047 178.07C236.21 177.489 237.962 175.012 237.962 172.51C237.962 170.008 236.096 170.008 233.933 170.592C231.77 171.176 230.133 172.101 230.133 174.598Z" fill="#263238"/>
<path d="M228.09 178.551C228.09 178.551 228.665 181.525 228.896 181.979C228.966 182.11 229.067 182.222 229.191 182.304C229.315 182.386 229.457 182.435 229.605 182.448L229.566 180.258L228.09 178.551Z" fill="#263238"/>
<path d="M228.813 173.875C228.585 173.912 228.367 173.998 228.175 174.126C227.983 174.255 227.822 174.423 227.701 174.62C227.228 175.307 227.492 176.991 228.084 178.551L229.168 178.404L228.813 173.875Z" fill="#263238"/>
<path d="M229.502 178.317C229.282 178.526 228.974 178.125 228.704 177.872C228.435 177.619 227.559 177.411 227.12 178.592C226.68 179.774 227.506 181.008 228.198 181.075C229.388 181.186 229.566 180.258 229.566 180.258L229.605 185.337C231.604 187.455 235.101 184.959 233.528 184.022V182.512C234.074 182.465 234.612 182.353 235.132 182.179C236.007 181.787 236.558 180.844 236.825 179.677C237.25 177.806 237.411 176.341 237.05 172.985C236.655 169.304 232.838 170.288 230.778 172.337C228.718 174.386 229.502 178.317 229.502 178.317Z" fill="#FFA8A7"/>
<path d="M229.502 178.754C229.391 178.787 228.974 178.101 228.704 177.887C228.329 177.592 228.813 173.889 228.813 173.889C228.379 172.933 229.18 171.49 230.016 170.903C230.618 170.517 231.296 170.268 232.004 170.172C232.605 170.065 233.203 169.982 233.8 169.925C234.53 169.886 235.256 169.799 235.974 169.663C236.536 169.53 237.081 169.332 237.597 169.074C238.053 168.865 238.431 169.335 238.028 170.116C237.667 170.827 237.166 171.457 236.555 171.968C234.781 173.3 232.721 173.619 230.928 173.817C230.525 173.861 230.436 174.336 230.219 175.629C230.027 176.752 229.869 178.634 229.502 178.754Z" fill="#263238"/>
<path d="M227.448 173.906L226.13 173.442C226.316 172.955 226.764 172.666 227.125 172.794C227.487 172.922 227.634 173.419 227.448 173.906Z" fill="#263238"/>
<path d="M233.525 182.513C233.525 182.513 231.579 182.582 230.889 182.346C230.477 182.202 230.138 181.903 229.944 181.512C230.038 181.923 230.221 182.308 230.481 182.64C230.981 183.244 233.525 183.105 233.525 183.105V182.513Z" fill="#F28F8F"/>
<path d="M233.052 176.808C233.051 176.929 233.013 177.047 232.943 177.146C232.874 177.245 232.776 177.321 232.663 177.364C232.449 177.42 232.274 177.256 232.274 176.997C232.272 176.873 232.308 176.752 232.378 176.649C232.448 176.547 232.547 176.468 232.663 176.425C232.88 176.377 233.052 176.53 233.052 176.808Z" fill="#263238"/>
<path d="M232.427 175.098L231.593 175.857C231.534 175.715 231.521 175.559 231.556 175.409C231.591 175.26 231.672 175.125 231.787 175.023C231.829 174.975 231.881 174.937 231.94 174.914C232 174.89 232.064 174.882 232.127 174.889C232.19 174.897 232.251 174.92 232.303 174.956C232.355 174.993 232.398 175.042 232.427 175.098Z" fill="#263238"/>
<path d="M233.35 179.847L234.242 179.994C234.216 180.136 234.142 180.264 234.031 180.356C233.92 180.448 233.78 180.498 233.636 180.497C233.388 180.458 233.261 180.166 233.35 179.847Z" fill="#F28F8F"/>
<path d="M236.647 174.364L235.882 173.889C236.041 173.611 236.335 173.463 236.547 173.594C236.654 173.689 236.723 173.819 236.741 173.96C236.76 174.102 236.726 174.245 236.647 174.364Z" fill="#263238"/>
<path d="M236.313 175.799C236.315 175.923 236.279 176.046 236.209 176.149C236.138 176.252 236.038 176.331 235.921 176.374C235.704 176.43 235.529 176.266 235.529 176.007C235.527 175.883 235.564 175.761 235.634 175.659C235.704 175.556 235.805 175.478 235.921 175.435C236.138 175.376 236.313 175.54 236.313 175.799Z" fill="#263238"/>
<path d="M234.378 175.954L234.423 178.684L235.827 177.95L234.378 175.954Z" fill="#F28F8F"/>
<path d="M221.707 203.218C222.802 191.959 224.573 187.958 227.348 186.838C228.279 187.566 228.429 190.888 227.375 193.382C227.375 193.382 225.057 200.849 224.873 203.39C224.756 205.766 224.845 208.148 225.137 210.51C225.152 210.652 225.197 210.789 225.268 210.912C225.34 211.036 225.436 211.143 225.552 211.227C226.144 211.633 226.091 212.2 226.508 212.747C226.836 213.176 227.147 213.259 227.064 213.415C226.995 213.57 226.874 213.698 226.722 213.776C226.571 213.854 226.397 213.877 226.23 213.843C225.964 213.751 225.718 213.609 225.504 213.426C225.661 214.025 225.909 214.597 226.238 215.122C226.989 216.336 226.933 217.14 225.093 217.365C223.939 217.507 223.119 216.773 222.61 213.879C222.466 213.045 222.11 211.544 221.974 210.465C221.579 207.388 221.529 205.03 221.707 203.218Z" fill="#FFA8A7"/>
<path d="M228.143 186.304C228.143 186.304 226.124 186.954 225.085 188.569C224.045 190.185 223.005 192.798 222.216 197.465C222.216 197.465 223.439 199.228 226.778 197.869C226.778 197.869 228.36 191.93 228.546 189.57C228.738 186.996 228.143 186.304 228.143 186.304Z" fill="#455A64"/>
<path d="M230.019 169.857C228.132 171.039 227.317 172.473 227.27 174.203C227.253 175.39 227.301 176.578 227.412 177.761C227.056 178.017 226.763 178.35 226.554 178.735C226.345 179.12 226.226 179.547 226.205 179.985C226.205 181.155 227.153 181.85 228.323 181.536C228.911 181.362 229.43 181.011 229.809 180.53C230.189 180.049 230.41 179.462 230.442 178.851C230.466 178.471 230.347 178.096 230.109 177.799C229.871 177.503 229.531 177.306 229.155 177.247C228.918 175.595 228.923 173.918 229.169 172.268C229.588 169.766 234.264 168.323 235.312 169.766C234.998 168.52 232.644 168.203 230.019 169.857Z" fill="#212121"/>
<path opacity="0.15" d="M230.019 169.857C228.132 171.039 227.317 172.473 227.27 174.203C227.253 175.39 227.301 176.578 227.412 177.761C227.056 178.017 226.763 178.35 226.554 178.735C226.345 179.12 226.226 179.547 226.205 179.985C226.205 181.155 227.153 181.85 228.323 181.536C228.911 181.362 229.43 181.011 229.809 180.53C230.189 180.049 230.41 179.462 230.442 178.851C230.466 178.471 230.347 178.096 230.109 177.799C229.871 177.503 229.531 177.306 229.155 177.247C228.918 175.595 228.923 173.918 229.169 172.268C229.588 169.766 234.264 168.323 235.312 169.766C234.998 168.52 232.644 168.203 230.019 169.857Z" fill="black"/>
<path d="M229.338 179.146C229.344 179.021 229.319 178.897 229.265 178.785C229.211 178.673 229.131 178.575 229.03 178.502C228.93 178.428 228.812 178.381 228.689 178.364C228.566 178.346 228.44 178.36 228.323 178.404C228.042 178.487 227.793 178.656 227.612 178.886C227.43 179.116 227.324 179.398 227.309 179.691C227.304 179.815 227.331 179.937 227.385 180.049C227.44 180.16 227.521 180.256 227.622 180.328C227.722 180.401 227.839 180.447 227.962 180.463C228.085 180.48 228.21 180.465 228.326 180.422C228.605 180.339 228.852 180.172 229.033 179.944C229.215 179.715 229.321 179.437 229.338 179.146Z" fill="#212121"/>
</g>
<path d="M213.331 197.008C213.285 197.053 213.243 197.101 213.206 197.153C213.139 197.235 213.089 197.329 213.058 197.431C213.038 197.489 213.038 197.553 213.058 197.611C213.066 197.653 213.086 197.691 213.117 197.72C213.131 197.737 213.148 197.752 213.167 197.764L212.147 197.175C212.106 197.152 212.072 197.119 212.049 197.078C212.033 197.039 212.025 196.997 212.025 196.955C212.025 196.913 212.033 196.872 212.049 196.833C212.071 196.764 212.103 196.699 212.144 196.638C212.196 196.559 212.256 196.485 212.322 196.416L213.331 197.008Z" fill="#212121"/>
<path d="M213.339 196.997C212.808 197.553 212.994 197.928 213.756 197.831L218.021 197.339V192.132L213.339 196.997Z" fill="#212121"/>
<path d="M213.339 196.996C213.003 197.347 212.955 197.625 213.156 197.761L212.135 197.171C211.921 197.038 211.969 196.754 212.308 196.399L216.992 191.542L218.023 192.14L213.339 196.996Z" fill="#212121"/>
<path opacity="0.15" d="M213.331 197.008C213.285 197.053 213.243 197.101 213.206 197.153C213.141 197.236 213.091 197.33 213.058 197.431C213.042 197.49 213.042 197.552 213.058 197.611C213.066 197.653 213.087 197.69 213.117 197.72C213.131 197.737 213.148 197.752 213.167 197.764L212.147 197.175C212.106 197.152 212.072 197.119 212.049 197.078C212.033 197.039 212.025 196.997 212.025 196.955C212.025 196.913 212.033 196.872 212.049 196.833C212.073 196.765 212.104 196.699 212.144 196.638C212.196 196.559 212.256 196.485 212.322 196.416L213.331 197.008Z" fill="black"/>
<path opacity="0.4" d="M218.023 192.131L213.339 196.996L212.305 196.399L216.992 191.542L218.023 192.131Z" fill="white"/>
<path d="M242.048 190.336L242.988 191.943C242.988 191.943 249.143 188.679 249.49 188.251C249.838 187.823 249.816 186.958 249.868 186.491C249.955 185.713 249.668 185.043 249.626 184.762C249.543 184.164 250.402 184.303 250.675 184.54C250.853 184.73 251.003 184.947 251.117 185.182C251.25 185.404 251.5 186.13 251.756 186.174C251.956 186.21 252.354 185.927 252.518 185.805C253.193 185.293 253.61 184.584 254.13 183.936C254.223 183.797 254.351 183.686 254.503 183.614C254.635 183.587 254.772 183.592 254.903 183.626C255.034 183.66 255.156 183.723 255.259 183.811C255.478 183.934 255.668 184.103 255.815 184.306C255.905 184.459 255.968 184.625 256.004 184.798C256.282 185.977 255.676 186.972 254.961 187.856C254.244 188.726 253.394 189.476 252.443 190.08C251.887 190.447 251.142 190.772 250.497 191.117C249.852 191.462 242.941 197.253 241.973 196.596C240.817 195.697 239.78 194.652 238.89 193.488" fill="#FFA8A7"/>
<path d="M287.451 180.292C289.675 180.292 290.843 180.959 291.765 183.014C292.65 184.979 295.393 190.681 295.257 192.063C295.121 193.444 289.486 199.327 289.486 199.327L287.876 197.381L291.368 191.515L287.929 186.539L287.451 180.292Z" fill="#FFA8A7"/>
<path d="M282.052 240.793C282.052 240.793 282.302 241.552 282.439 242.219C282.547 242.747 282.7 243.629 282.514 244.026C282.327 244.424 281.607 244.679 280.49 244.671C279.764 244.671 278.636 245.158 277.863 245.591C277.09 246.025 275.402 246.214 274.557 246.114C273.562 245.997 272.531 245.419 272.37 245.002C272.208 244.585 272.072 244.026 274.769 243.162C274.791 243.162 278.03 242.1 279.164 240.846L282.052 240.793Z" fill="#263238"/>
<path d="M282.052 240.868L281.538 240.804L279.164 240.851C278.03 242.105 274.791 243.161 274.769 243.167L274.338 243.311C273.868 243.689 274.266 244.332 275.378 244.423C276.49 244.515 279.956 243.356 280.723 242.986C281.126 242.799 281.466 242.5 281.702 242.124C281.937 241.748 282.059 241.311 282.052 240.868Z" fill="#FFA8A7"/>
<path d="M282.052 239.848C282.052 239.848 282.052 240.495 282.052 240.868C282.052 241.24 281.619 241.791 280.484 241.749C279.689 241.721 279.133 241.507 279.164 240.851V239.914L282.052 239.848Z" fill="#FFA8A7"/>
<path d="M289.664 236.531C289.867 236.615 289.908 237.009 289.917 237.791C289.917 238.38 290.025 239.414 289.327 239.603C288.63 239.792 287.621 239.656 287.192 239.089C286.659 238.38 286.3 237.757 285.524 236.887C284.86 236.134 284.134 235.428 283.89 234.385C283.665 233.446 283.89 233.048 284.526 232.792C285.163 232.536 285.75 232.748 286.639 233.49C286.887 233.658 287.153 233.799 287.431 233.91C288.024 234.096 289.458 236.448 289.664 236.531Z" fill="#263238"/>
<path d="M289.683 235.808L289.655 236.767C289.655 236.767 289.016 238.021 287.234 236.767C287.195 236.673 287.034 234.821 287.034 234.821L289.683 235.808Z" fill="#FFA8A7"/>
<path d="M287.44 233.915C287.161 233.804 286.896 233.663 286.648 233.495C285.93 233.264 284.424 233.531 285.099 234.576C285.665 235.436 286.39 236.179 287.234 236.767C288.04 237.165 288.321 236.673 288.321 236.673L288.043 234.424C287.883 234.211 287.677 234.037 287.44 233.915Z" fill="#FFA8A7"/>
<path d="M290.984 222.553C290.629 219.409 289.948 217.593 289.948 217.593C289.948 217.593 290.551 213.362 291.023 209.306C292.135 199.779 291.396 199.626 290.05 196.312C290.05 196.312 277.838 194.742 277.326 199.821C276.69 206.145 276.979 218.411 277.084 220.654C277.19 222.898 277.362 223.912 278.041 228.61C278.547 232.188 279.028 240.008 279.028 240.008C280.629 240.931 282.169 239.847 282.169 239.847C282.169 239.847 283.701 230.231 283.665 227.643C283.634 225.727 283.353 223.824 282.831 221.98C282.831 221.98 283.87 211.672 284.135 210.026C284.135 210.026 284.429 213.315 284.538 215.558C284.646 217.802 285.252 219.956 285.789 224.135C286.253 227.749 287.026 235.319 287.026 235.319C288.627 236.242 289.745 235.825 289.745 235.825C289.745 235.825 291.338 225.694 290.984 222.553Z" fill="#212121"/>
<path d="M282.283 178.234L282.731 182.983L286.901 182.718L286.567 177.453L282.283 178.234Z" fill="#FFA8A7"/>
<path d="M290.648 182.307C290.223 181.051 289.361 180.314 287.451 180.292L286.748 180.314C286.614 181.015 284.56 181.582 282.53 180.87C282.252 180.945 281.46 181.09 281.018 181.148L280.045 181.29C278.569 181.774 277.916 184.348 277.774 188.41C277.632 192.471 277.023 201.181 277.023 201.181C277.023 201.181 280.201 202.882 285.216 202.223C289.706 201.634 291.451 198.979 291.296 199.318C290.769 197.065 289.992 194.879 288.977 192.799C291.34 186.986 291.276 184.173 290.648 182.307Z" fill="#455A64"/>
<path d="M282.73 202.368C283.561 202.376 284.392 202.326 285.216 202.218C289.308 201.681 291.121 199.438 291.29 199.29C290.764 197.045 289.988 194.866 288.977 192.793C290.173 189.858 290.745 187.689 290.94 186.019C290.745 187.236 288.947 191.951 286.592 193.366C286.592 193.366 287.921 193.572 289.058 195.134C290.195 196.697 289.261 202.031 282.73 202.368Z" fill="#37474F"/>
<path d="M281.018 181.143C279.058 181.39 277.371 181.74 276.656 183.664C275.714 186.284 274.268 188.694 272.4 190.759C271.182 192.062 266.184 194.559 265.058 194.373C263.932 194.186 262.917 192.582 262.339 192.916C261.761 193.249 263.029 194.395 262.959 194.678C262.89 194.962 260.86 194.373 259.901 193.691C258.942 193.01 258.372 194.965 259.623 196.427C260.874 197.889 263.215 198.003 265.761 197.495C268.308 196.986 272.962 195.473 274.81 193.75C277.234 191.484 277.677 190.253 278.727 188.301C282.074 185.705 281.018 181.143 281.018 181.143Z" fill="#FFA8A7"/>
<path d="M280.101 172.338C280.101 172.338 278.527 170.462 279.761 168.633C281.218 166.475 283.781 165.747 286.951 166.687C288.518 167.151 290.823 169.319 290.94 172.361C291.029 174.704 284.457 176.253 284.563 177.86L280.101 172.338Z" fill="#263238"/>
<path d="M279.2 173.024C279.2 173.024 278.277 174.414 278.396 174.57C278.613 174.712 278.853 174.815 279.105 174.873L279.2 173.024Z" fill="#F28F8F"/>
<path d="M282.011 168.602C281.113 169.066 279.561 169.922 279.161 173.231C278.752 176.625 279.509 177.804 279.97 178.249C280.284 178.549 281.897 178.657 282.75 178.396C283.804 178.071 286.086 176.945 287.151 175.193C288.407 173.131 288.666 170.384 287.215 169.305C285.16 167.79 282.769 168.21 282.011 168.602Z" fill="#FFA8A7"/>
<path d="M281.746 168.747C281.746 168.747 280.962 171.844 281.899 173.801C281.899 173.801 282.455 172.591 283.487 172.939C284.518 173.286 284.437 174.682 283.615 175.394C283.405 175.598 283.141 175.739 282.854 175.8C282.567 175.861 282.269 175.84 281.994 175.738C281.994 175.738 282.022 177.454 283.487 178.132C283.487 178.132 286.545 179.597 289.325 176.639C291.827 173.954 291.513 169.133 287.812 167.913C284.112 166.692 281.746 168.747 281.746 168.747Z" fill="#263238"/>
<path d="M294.195 181.812C293.612 181.812 293.034 181.697 292.496 181.473C291.957 181.249 291.468 180.921 291.056 180.508C290.644 180.095 290.318 179.604 290.096 179.065C289.875 178.525 289.762 177.947 289.764 177.364V171.682C290.938 171.682 292.065 172.148 292.895 172.979C293.726 173.809 294.192 174.936 294.192 176.11L294.195 181.812Z" fill="#263238"/>
<path d="M279.361 167.356C277.985 168.746 277.907 172.808 281.899 173.803L284.515 166.633C282.992 165.641 280.59 166.1 279.361 167.356Z" fill="#263238"/>
<path d="M281.499 174.907C281.399 174.874 281.307 174.821 281.227 174.751C281.148 174.682 281.084 174.597 281.038 174.502C280.992 174.407 280.965 174.304 280.96 174.199C280.954 174.094 280.97 173.988 281.006 173.889C281.041 173.79 281.097 173.699 281.168 173.622C281.24 173.544 281.326 173.482 281.422 173.439C281.518 173.395 281.622 173.371 281.727 173.368C281.833 173.366 281.937 173.384 282.036 173.422L281.499 174.907Z" fill="#263238"/>
<path opacity="0.1" d="M284.14 210.033L284.804 205.782C286.143 205.622 287.43 205.174 288.58 204.47C288.58 204.47 287.746 205.724 285.549 206.246L284.871 211.17L284.593 216.326L284.14 210.033Z" fill="black"/>
</g>
<defs>
<linearGradient id="paint0_linear_1187_39301" x1="273.379" y1="318.044" x2="141.595" y2="82.1945" gradientUnits="userSpaceOnUse">
<stop stop-color="white"/>
<stop offset="1" stop-color="#BBC9D8"/>
</linearGradient>
<linearGradient id="paint1_linear_1187_39301" x1="138.857" y1="419.402" x2="335.911" y2="78.0746" gradientUnits="userSpaceOnUse">
<stop stop-color="#2560F1"/>
<stop offset="0.4875" stop-color="#7944FF"/>
<stop offset="1" stop-color="#C623FF"/>
</linearGradient>
<linearGradient id="paint2_linear_1187_39301" x1="286.532" y1="296.519" x2="183.303" y2="104.924" gradientUnits="userSpaceOnUse">
<stop stop-color="white"/>
<stop offset="1" stop-color="#BBC9D8"/>
</linearGradient>
<clipPath id="clip0_1187_39301">
<rect width="130" height="113" fill="white" transform="translate(173 154)"/>
</clipPath>
</defs>
</svg>
