<svg width="477" height="495" viewBox="0 0 477 495" fill="none" xmlns="http://www.w3.org/2000/svg">
<mask id="mask0_1187_30967" style="mask-type:luminance" maskUnits="userSpaceOnUse" x="47" y="82" width="382" height="331">
<path d="M142.797 82.4498L95.1987 164.888L47.5982 247.33L95.2117 329.777L142.825 412.224L238.034 412.231L333.246 412.24L380.846 329.798L428.445 247.359L380.835 164.914L333.221 82.4672L238.009 82.4585L142.797 82.4498Z" fill="white"/>
</mask>
<g mask="url(#mask0_1187_30967)">
<path d="M190.396 0.0113951L476.043 164.921L285.645 494.682L-0.00235221 329.772L190.396 0.0113951Z" fill="url(#paint0_linear_1187_30967)"/>
</g>
<mask id="mask1_1187_30967" style="mask-type:luminance" maskUnits="userSpaceOnUse" x="94" y="123" width="288" height="249">
<path d="M166.224 123.02L309.798 123.035L381.594 247.358L309.817 371.672L166.247 371.66L94.4473 247.335L166.224 123.02Z" fill="white"/>
</mask>
<g mask="url(#mask1_1187_30967)">
<path d="M202.112 60.8651L417.481 185.202L273.928 433.831L58.5578 309.494L202.112 60.8651Z" fill="url(#paint1_linear_1187_30967)" fill-opacity="0.8"/>
</g>
<path d="M204.802 284.32V301H202.066V289.576L196.978 301H195.082L189.97 289.576V301H187.234V284.32H190.186L196.042 297.4L201.874 284.32H204.802ZM220.518 294.064C220.518 294.56 220.486 295.008 220.422 295.408H210.318C210.398 296.464 210.79 297.312 211.494 297.952C212.198 298.592 213.062 298.912 214.086 298.912C215.558 298.912 216.598 298.296 217.206 297.064H220.158C219.758 298.28 219.03 299.28 217.974 300.064C216.934 300.832 215.638 301.216 214.086 301.216C212.822 301.216 211.686 300.936 210.678 300.376C209.686 299.8 208.902 299 208.326 297.976C207.766 296.936 207.486 295.736 207.486 294.376C207.486 293.016 207.758 291.824 208.302 290.8C208.862 289.76 209.638 288.96 210.63 288.4C211.638 287.84 212.79 287.56 214.086 287.56C215.334 287.56 216.446 287.832 217.422 288.376C218.398 288.92 219.158 289.688 219.702 290.68C220.246 291.656 220.518 292.784 220.518 294.064ZM217.662 293.2C217.646 292.192 217.286 291.384 216.582 290.776C215.878 290.168 215.006 289.864 213.966 289.864C213.022 289.864 212.214 290.168 211.542 290.776C210.87 291.368 210.47 292.176 210.342 293.2H217.662ZM235.33 294.064C235.33 294.56 235.298 295.008 235.234 295.408H225.13C225.21 296.464 225.602 297.312 226.306 297.952C227.01 298.592 227.874 298.912 228.898 298.912C230.37 298.912 231.41 298.296 232.018 297.064H234.97C234.57 298.28 233.842 299.28 232.786 300.064C231.746 300.832 230.45 301.216 228.898 301.216C227.634 301.216 226.498 300.936 225.49 300.376C224.498 299.8 223.714 299 223.138 297.976C222.578 296.936 222.298 295.736 222.298 294.376C222.298 293.016 222.57 291.824 223.114 290.8C223.674 289.76 224.45 288.96 225.442 288.4C226.45 287.84 227.602 287.56 228.898 287.56C230.146 287.56 231.258 287.832 232.234 288.376C233.21 288.92 233.97 289.688 234.514 290.68C235.058 291.656 235.33 292.784 235.33 294.064ZM232.474 293.2C232.458 292.192 232.098 291.384 231.394 290.776C230.69 290.168 229.818 289.864 228.778 289.864C227.834 289.864 227.026 290.168 226.354 290.776C225.682 291.368 225.282 292.176 225.154 293.2H232.474ZM241.215 290.008V297.328C241.215 297.824 241.327 298.184 241.551 298.408C241.791 298.616 242.191 298.72 242.751 298.72H244.431V301H242.271C241.039 301 240.095 300.712 239.439 300.136C238.783 299.56 238.455 298.624 238.455 297.328V290.008H236.895V287.776H238.455V284.488H241.215V287.776H244.431V290.008H241.215ZM248.344 286.024C247.848 286.024 247.432 285.856 247.096 285.52C246.76 285.184 246.592 284.768 246.592 284.272C246.592 283.776 246.76 283.36 247.096 283.024C247.432 282.688 247.848 282.52 248.344 282.52C248.824 282.52 249.232 282.688 249.568 283.024C249.904 283.36 250.072 283.776 250.072 284.272C250.072 284.768 249.904 285.184 249.568 285.52C249.232 285.856 248.824 286.024 248.344 286.024ZM249.688 287.776V301H246.952V287.776H249.688ZM259.952 287.56C260.992 287.56 261.92 287.776 262.736 288.208C263.568 288.64 264.216 289.28 264.68 290.128C265.144 290.976 265.376 292 265.376 293.2V301H262.664V293.608C262.664 292.424 262.368 291.52 261.776 290.896C261.184 290.256 260.376 289.936 259.352 289.936C258.328 289.936 257.512 290.256 256.904 290.896C256.312 291.52 256.016 292.424 256.016 293.608V301H253.28V287.776H256.016V289.288C256.464 288.744 257.032 288.32 257.72 288.016C258.424 287.712 259.168 287.56 259.952 287.56ZM274.194 287.56C275.218 287.56 276.122 287.768 276.906 288.184C277.706 288.584 278.33 289.088 278.778 289.696V287.776H281.538V301.216C281.538 302.432 281.282 303.512 280.77 304.456C280.258 305.416 279.514 306.168 278.538 306.712C277.578 307.256 276.426 307.528 275.082 307.528C273.29 307.528 271.802 307.104 270.618 306.256C269.434 305.424 268.762 304.288 268.602 302.848H271.314C271.522 303.536 271.962 304.088 272.634 304.504C273.322 304.936 274.138 305.152 275.082 305.152C276.186 305.152 277.074 304.816 277.746 304.144C278.434 303.472 278.778 302.496 278.778 301.216V299.008C278.314 299.632 277.682 300.16 276.882 300.592C276.098 301.008 275.202 301.216 274.194 301.216C273.042 301.216 271.986 300.928 271.026 300.352C270.082 299.76 269.33 298.944 268.77 297.904C268.226 296.848 267.954 295.656 267.954 294.328C267.954 293 268.226 291.824 268.77 290.8C269.33 289.776 270.082 288.984 271.026 288.424C271.986 287.848 273.042 287.56 274.194 287.56ZM278.778 294.376C278.778 293.464 278.586 292.672 278.202 292C277.834 291.328 277.346 290.816 276.738 290.464C276.13 290.112 275.474 289.936 274.77 289.936C274.066 289.936 273.41 290.112 272.802 290.464C272.194 290.8 271.698 291.304 271.314 291.976C270.946 292.632 270.762 293.416 270.762 294.328C270.762 295.24 270.946 296.04 271.314 296.728C271.698 297.416 272.194 297.944 272.802 298.312C273.426 298.664 274.082 298.84 274.77 298.84C275.474 298.84 276.13 298.664 276.738 298.312C277.346 297.96 277.834 297.448 278.202 296.776C278.586 296.088 278.778 295.288 278.778 294.376ZM174.556 320.32V337H171.82V325.576L166.732 337H164.836L159.724 325.576V337H156.988V320.32H159.94L165.796 333.4L171.628 320.32H174.556ZM177.24 330.328C177.24 329 177.512 327.824 178.056 326.8C178.616 325.776 179.368 324.984 180.312 324.424C181.272 323.848 182.328 323.56 183.48 323.56C184.52 323.56 185.424 323.768 186.192 324.184C186.976 324.584 187.6 325.088 188.064 325.696V323.776H190.824V337H188.064V335.032C187.6 335.656 186.968 336.176 186.168 336.592C185.368 337.008 184.456 337.216 183.432 337.216C182.296 337.216 181.256 336.928 180.312 336.352C179.368 335.76 178.616 334.944 178.056 333.904C177.512 332.848 177.24 331.656 177.24 330.328ZM188.064 330.376C188.064 329.464 187.872 328.672 187.488 328C187.12 327.328 186.632 326.816 186.024 326.464C185.416 326.112 184.76 325.936 184.056 325.936C183.352 325.936 182.696 326.112 182.088 326.464C181.48 326.8 180.984 327.304 180.6 327.976C180.232 328.632 180.048 329.416 180.048 330.328C180.048 331.24 180.232 332.04 180.6 332.728C180.984 333.416 181.48 333.944 182.088 334.312C182.712 334.664 183.368 334.84 184.056 334.84C184.76 334.84 185.416 334.664 186.024 334.312C186.632 333.96 187.12 333.448 187.488 332.776C187.872 332.088 188.064 331.288 188.064 330.376ZM201.089 323.56C202.129 323.56 203.057 323.776 203.873 324.208C204.705 324.64 205.353 325.28 205.817 326.128C206.281 326.976 206.513 328 206.513 329.2V337H203.801V329.608C203.801 328.424 203.505 327.52 202.913 326.896C202.321 326.256 201.513 325.936 200.489 325.936C199.465 325.936 198.649 326.256 198.041 326.896C197.449 327.52 197.153 328.424 197.153 329.608V337H194.417V323.776H197.153V325.288C197.601 324.744 198.169 324.32 198.857 324.016C199.561 323.712 200.305 323.56 201.089 323.56ZM209.091 330.328C209.091 329 209.363 327.824 209.907 326.8C210.467 325.776 211.219 324.984 212.163 324.424C213.123 323.848 214.179 323.56 215.331 323.56C216.371 323.56 217.275 323.768 218.043 324.184C218.827 324.584 219.451 325.088 219.915 325.696V323.776H222.675V337H219.915V335.032C219.451 335.656 218.819 336.176 218.019 336.592C217.219 337.008 216.307 337.216 215.283 337.216C214.147 337.216 213.107 336.928 212.163 336.352C211.219 335.76 210.467 334.944 209.907 333.904C209.363 332.848 209.091 331.656 209.091 330.328ZM219.915 330.376C219.915 329.464 219.723 328.672 219.339 328C218.971 327.328 218.483 326.816 217.875 326.464C217.267 326.112 216.611 325.936 215.907 325.936C215.203 325.936 214.547 326.112 213.939 326.464C213.331 326.8 212.835 327.304 212.451 327.976C212.083 328.632 211.899 329.416 211.899 330.328C211.899 331.24 212.083 332.04 212.451 332.728C212.835 333.416 213.331 333.944 213.939 334.312C214.563 334.664 215.219 334.84 215.907 334.84C216.611 334.84 217.267 334.664 217.875 334.312C218.483 333.96 218.971 333.448 219.339 332.776C219.723 332.088 219.915 331.288 219.915 330.376ZM231.597 323.56C232.621 323.56 233.525 323.768 234.309 324.184C235.109 324.584 235.733 325.088 236.181 325.696V323.776H238.941V337.216C238.941 338.432 238.685 339.512 238.173 340.456C237.661 341.416 236.917 342.168 235.941 342.712C234.981 343.256 233.829 343.528 232.485 343.528C230.693 343.528 229.205 343.104 228.021 342.256C226.837 341.424 226.165 340.288 226.005 338.848H228.717C228.925 339.536 229.365 340.088 230.037 340.504C230.725 340.936 231.541 341.152 232.485 341.152C233.589 341.152 234.477 340.816 235.149 340.144C235.837 339.472 236.181 338.496 236.181 337.216V335.008C235.717 335.632 235.085 336.16 234.285 336.592C233.501 337.008 232.605 337.216 231.597 337.216C230.445 337.216 229.389 336.928 228.429 336.352C227.485 335.76 226.733 334.944 226.173 333.904C225.629 332.848 225.357 331.656 225.357 330.328C225.357 329 225.629 327.824 226.173 326.8C226.733 325.776 227.485 324.984 228.429 324.424C229.389 323.848 230.445 323.56 231.597 323.56ZM236.181 330.376C236.181 329.464 235.989 328.672 235.605 328C235.237 327.328 234.749 326.816 234.141 326.464C233.533 326.112 232.877 325.936 232.173 325.936C231.469 325.936 230.813 326.112 230.205 326.464C229.597 326.8 229.101 327.304 228.717 327.976C228.349 328.632 228.165 329.416 228.165 330.328C228.165 331.24 228.349 332.04 228.717 332.728C229.101 333.416 229.597 333.944 230.205 334.312C230.829 334.664 231.485 334.84 232.173 334.84C232.877 334.84 233.533 334.664 234.141 334.312C234.749 333.96 235.237 333.448 235.605 332.776C235.989 332.088 236.181 331.288 236.181 330.376ZM254.654 330.064C254.654 330.56 254.622 331.008 254.558 331.408H244.454C244.534 332.464 244.926 333.312 245.63 333.952C246.334 334.592 247.198 334.912 248.222 334.912C249.694 334.912 250.734 334.296 251.342 333.064H254.294C253.894 334.28 253.166 335.28 252.11 336.064C251.07 336.832 249.774 337.216 248.222 337.216C246.958 337.216 245.822 336.936 244.814 336.376C243.822 335.8 243.038 335 242.462 333.976C241.902 332.936 241.622 331.736 241.622 330.376C241.622 329.016 241.894 327.824 242.438 326.8C242.998 325.76 243.774 324.96 244.766 324.4C245.774 323.84 246.926 323.56 248.222 323.56C249.47 323.56 250.582 323.832 251.558 324.376C252.534 324.92 253.294 325.688 253.838 326.68C254.382 327.656 254.654 328.784 254.654 330.064ZM251.798 329.2C251.782 328.192 251.422 327.384 250.718 326.776C250.014 326.168 249.142 325.864 248.102 325.864C247.158 325.864 246.35 326.168 245.678 326.776C245.006 327.368 244.606 328.176 244.478 329.2H251.798ZM273.355 323.56C274.395 323.56 275.323 323.776 276.139 324.208C276.971 324.64 277.619 325.28 278.083 326.128C278.563 326.976 278.803 328 278.803 329.2V337H276.091V329.608C276.091 328.424 275.795 327.52 275.203 326.896C274.611 326.256 273.803 325.936 272.779 325.936C271.755 325.936 270.939 326.256 270.331 326.896C269.739 327.52 269.443 328.424 269.443 329.608V337H266.731V329.608C266.731 328.424 266.435 327.52 265.843 326.896C265.251 326.256 264.443 325.936 263.419 325.936C262.395 325.936 261.579 326.256 260.971 326.896C260.379 327.52 260.083 328.424 260.083 329.608V337H257.347V323.776H260.083V325.288C260.531 324.744 261.099 324.32 261.787 324.016C262.475 323.712 263.211 323.56 263.995 323.56C265.051 323.56 265.995 323.784 266.827 324.232C267.659 324.68 268.299 325.328 268.747 326.176C269.147 325.376 269.771 324.744 270.619 324.28C271.467 323.8 272.379 323.56 273.355 323.56ZM294.404 330.064C294.404 330.56 294.372 331.008 294.308 331.408H284.204C284.284 332.464 284.676 333.312 285.38 333.952C286.084 334.592 286.948 334.912 287.972 334.912C289.444 334.912 290.484 334.296 291.092 333.064H294.044C293.644 334.28 292.916 335.28 291.86 336.064C290.82 336.832 289.524 337.216 287.972 337.216C286.708 337.216 285.572 336.936 284.564 336.376C283.572 335.8 282.788 335 282.212 333.976C281.652 332.936 281.372 331.736 281.372 330.376C281.372 329.016 281.644 327.824 282.188 326.8C282.748 325.76 283.524 324.96 284.516 324.4C285.524 323.84 286.676 323.56 287.972 323.56C289.22 323.56 290.332 323.832 291.308 324.376C292.284 324.92 293.044 325.688 293.588 326.68C294.132 327.656 294.404 328.784 294.404 330.064ZM291.548 329.2C291.532 328.192 291.172 327.384 290.468 326.776C289.764 326.168 288.892 325.864 287.852 325.864C286.908 325.864 286.1 326.168 285.428 326.776C284.756 327.368 284.356 328.176 284.228 329.2H291.548ZM303.769 323.56C304.809 323.56 305.737 323.776 306.553 324.208C307.385 324.64 308.033 325.28 308.497 326.128C308.961 326.976 309.193 328 309.193 329.2V337H306.481V329.608C306.481 328.424 306.185 327.52 305.593 326.896C305.001 326.256 304.193 325.936 303.169 325.936C302.145 325.936 301.329 326.256 300.721 326.896C300.129 327.52 299.833 328.424 299.833 329.608V337H297.097V323.776H299.833V325.288C300.281 324.744 300.849 324.32 301.537 324.016C302.241 323.712 302.985 323.56 303.769 323.56ZM315.875 326.008V333.328C315.875 333.824 315.987 334.184 316.211 334.408C316.451 334.616 316.851 334.72 317.411 334.72H319.091V337H316.931C315.699 337 314.755 336.712 314.099 336.136C313.443 335.56 313.115 334.624 313.115 333.328V326.008H311.555V323.776H313.115V320.488H315.875V323.776H319.091V326.008H315.875Z" fill="#001237"/>
<path d="M157.321 257.833H323.952" stroke="#263238" stroke-linecap="round" stroke-linejoin="round"/>
<path d="M173.528 185.903C178.065 185.903 181.742 182.235 181.742 177.711C181.742 173.187 178.065 169.52 173.528 169.52C168.992 169.52 165.314 173.187 165.314 177.711C165.314 182.235 168.992 185.903 173.528 185.903Z" stroke="#263238" stroke-linecap="round" stroke-linejoin="round"/>
<path d="M175.197 184.764C179.102 183.845 181.521 179.943 180.599 176.048C179.677 172.154 175.764 169.742 171.859 170.661C167.953 171.58 165.535 175.482 166.457 179.377C167.378 183.271 171.291 185.683 175.197 184.764Z" stroke="#263238" stroke-linecap="round" stroke-linejoin="round"/>
<path d="M173.528 178.404C173.912 178.404 174.222 178.094 174.222 177.712C174.222 177.329 173.912 177.02 173.528 177.02C173.145 177.02 172.834 177.329 172.834 177.712C172.834 178.094 173.145 178.404 173.528 178.404Z" fill="#263238" stroke="#263238" stroke-linecap="round" stroke-linejoin="round"/>
<path d="M176.057 178.943L173.528 177.711L169.311 182.307" stroke="#263238" stroke-linecap="round" stroke-linejoin="round"/>
<path d="M319.983 169.244H299.463V194.736H319.983V169.244Z" stroke="#263238" stroke-linecap="round" stroke-linejoin="round"/>
<path d="M319.315 170.079H300.135V193.906H319.315V170.079Z" stroke="#263238" stroke-linecap="round" stroke-linejoin="round"/>
<path d="M313.668 177.092H305.782V186.888H313.668V177.092Z" stroke="#263238" stroke-linecap="round" stroke-linejoin="round"/>
<path d="M242.026 155.467V147.815" stroke="#263238" stroke-linecap="round" stroke-linejoin="round"/>
<path d="M248.362 159.56H235.692L239.492 154.756H244.562L248.362 159.56Z" fill="#263238"/>
<path d="M311.062 155.467V147.815" stroke="#263238" stroke-linecap="round" stroke-linejoin="round"/>
<path d="M317.396 159.56H304.726L308.526 154.756H313.596L317.396 159.56Z" fill="#263238"/>
<path d="M172.992 155.467V147.815" stroke="#263238" stroke-linecap="round" stroke-linejoin="round"/>
<path d="M179.328 159.56H166.658L170.459 154.756H175.525L179.328 159.56Z" fill="#263238"/>
<path d="M171.116 223.747C171.12 223.743 171.122 223.737 171.122 223.732C171.122 223.726 171.12 223.72 171.116 223.716C171.11 223.713 171.104 223.713 171.098 223.715C171.092 223.718 171.087 223.722 171.085 223.728C170.393 225.385 169.846 227.098 169.449 228.849C169.048 230.599 168.745 232.371 168.544 234.156L168.415 235.496C168.396 235.721 168.372 235.944 168.357 236.169L168.318 236.842C168.299 237.29 168.272 237.74 168.26 238.19V239.538L168.275 240.211C168.275 240.436 168.301 240.661 168.316 240.883C168.35 241.331 168.376 241.781 168.418 242.226C168.505 243.122 168.639 244.01 168.779 244.888C168.78 244.894 168.782 244.899 168.787 244.902C168.791 244.906 168.796 244.908 168.801 244.908C168.804 244.908 168.808 244.908 168.811 244.907C168.814 244.906 168.817 244.904 168.819 244.902C168.822 244.899 168.823 244.896 168.824 244.893C168.825 244.89 168.826 244.887 168.825 244.884C168.825 244.433 168.804 243.986 168.794 243.538C168.784 243.09 168.743 242.647 168.748 242.2C168.753 241.752 168.748 241.309 168.733 240.862V240.194V239.526V238.19L168.77 236.854L168.784 236.186C168.784 235.963 168.811 235.741 168.823 235.521L168.903 234.185C169.057 232.408 169.31 230.641 169.663 228.892C169.998 227.139 170.484 225.417 171.116 223.747Z" fill="#263238"/>
<path d="M171.308 230.734C171.309 230.731 171.309 230.728 171.309 230.725C171.309 230.722 171.308 230.719 171.307 230.716C171.306 230.713 171.304 230.711 171.301 230.709C171.299 230.707 171.296 230.705 171.293 230.705C171.29 230.704 171.287 230.703 171.284 230.703C171.281 230.703 171.278 230.704 171.275 230.705C171.273 230.707 171.27 230.709 171.268 230.711C171.266 230.713 171.265 230.716 171.264 230.719C170.499 232.948 169.99 235.256 169.747 237.599C169.629 238.768 169.505 239.937 169.481 241.113C169.451 242.29 169.493 243.467 169.607 244.639C169.607 244.644 169.609 244.649 169.613 244.652C169.617 244.656 169.621 244.658 169.626 244.658C169.629 244.659 169.632 244.659 169.635 244.658C169.639 244.658 169.641 244.657 169.644 244.655C169.646 244.653 169.649 244.651 169.65 244.648C169.652 244.645 169.653 244.642 169.653 244.639C169.789 243.468 169.874 242.301 169.954 241.132C170.034 239.964 170.048 238.797 170.124 237.631C170.197 236.465 170.335 235.305 170.539 234.156C170.732 233.002 170.989 231.859 171.308 230.734Z" fill="#263238"/>
<path d="M175.193 233.191C175.188 233.187 175.182 233.185 175.176 233.185C175.17 233.185 175.164 233.187 175.159 233.191C174.188 233.814 173.314 234.574 172.563 235.449C172.186 235.889 171.847 236.36 171.548 236.857L171.34 237.234L171.175 237.643C171.119 237.778 171.072 237.917 171.034 238.057C170.99 238.195 170.944 238.336 170.908 238.474C170.609 239.591 170.429 240.736 170.369 241.891C170.312 243.039 170.355 244.191 170.498 245.332C170.499 245.337 170.502 245.341 170.506 245.345C170.509 245.348 170.514 245.35 170.519 245.351C170.523 245.352 170.526 245.352 170.529 245.351C170.532 245.35 170.535 245.349 170.538 245.347C170.541 245.345 170.543 245.342 170.544 245.339C170.545 245.336 170.546 245.333 170.546 245.329L170.842 241.924C170.92 240.8 171.062 239.681 171.267 238.573C171.298 238.435 171.337 238.302 171.371 238.166C171.404 238.03 171.445 237.896 171.492 237.764L171.631 237.372L171.808 237C172.079 236.505 172.39 236.034 172.74 235.591C173.433 234.688 174.255 233.891 175.179 233.225C175.185 233.222 175.19 233.217 175.193 233.211C175.195 233.204 175.196 233.197 175.193 233.191Z" fill="#263238"/>
<path d="M173.312 237.565C172.808 237.934 172.402 238.42 172.131 238.981C171.847 239.534 171.626 240.115 171.471 240.716C171.425 240.864 171.388 241.014 171.354 241.166L171.247 241.619C171.191 241.923 171.153 242.23 171.133 242.539C171.133 242.848 171.133 243.156 171.133 243.465C171.157 243.774 171.197 244.081 171.255 244.385C171.256 244.389 171.259 244.394 171.262 244.397C171.265 244.4 171.27 244.403 171.274 244.404C171.28 244.405 171.287 244.404 171.292 244.4C171.298 244.397 171.301 244.391 171.303 244.385C171.375 244.087 171.429 243.784 171.466 243.48C171.514 243.18 171.56 242.882 171.597 242.582C171.633 242.282 171.679 241.989 171.704 241.692C171.728 241.394 171.767 241.094 171.832 240.801C171.936 240.211 172.106 239.635 172.339 239.083C172.547 238.519 172.887 238.013 173.329 237.607C173.333 237.602 173.335 237.597 173.335 237.591C173.335 237.585 173.333 237.579 173.329 237.575C173.327 237.572 173.325 237.57 173.322 237.568C173.319 237.567 173.316 237.566 173.312 237.565Z" fill="#263238"/>
<path d="M167.869 240.977C167.741 239.465 167.491 237.969 167.255 236.474C167.02 234.978 166.756 233.485 166.481 231.997C166.207 230.508 165.901 229.025 165.579 227.544C165.577 227.539 165.574 227.535 165.57 227.532C165.566 227.529 165.561 227.527 165.556 227.527C165.55 227.527 165.545 227.529 165.541 227.532C165.537 227.535 165.534 227.539 165.532 227.544C165.792 229.035 166.018 230.53 166.26 232.026C166.503 233.521 166.702 235.017 166.891 236.517C167.081 238.018 167.221 239.521 167.411 241.019L167.964 245.52C167.966 245.525 167.969 245.53 167.973 245.533C167.977 245.537 167.983 245.539 167.988 245.539C167.994 245.539 168 245.536 168.004 245.532C168.009 245.528 168.011 245.523 168.013 245.517C168.03 245.137 168.03 244.757 168.039 244.378C168.049 243.998 168.025 243.62 168.017 243.24C167.988 242.49 167.923 241.735 167.869 240.977Z" fill="#263238"/>
<path d="M166.957 240.956C166.877 240.358 166.765 239.763 166.651 239.17L166.438 238.287C166.367 237.991 166.302 237.696 166.217 237.406C165.914 236.233 165.527 235.084 165.057 233.967L164.875 233.551L164.673 233.144C164.545 232.871 164.39 232.609 164.242 232.345C163.945 231.814 163.576 231.326 163.147 230.894C163.143 230.89 163.137 230.888 163.131 230.888C163.126 230.888 163.12 230.89 163.116 230.894C163.111 230.898 163.109 230.904 163.109 230.91C163.109 230.917 163.111 230.923 163.116 230.927C163.513 231.374 163.85 231.871 164.115 232.406C164.246 232.675 164.387 232.941 164.499 233.217L164.678 233.628L164.836 234.049C165.256 235.17 165.593 236.319 165.846 237.488C165.984 238.071 166.088 238.664 166.188 239.25L166.331 240.135C166.382 240.431 166.445 240.724 166.486 241.019C166.581 241.612 166.69 242.2 166.794 242.793C166.899 243.386 166.993 243.976 167.12 244.569C167.121 244.574 167.124 244.579 167.128 244.583C167.133 244.587 167.138 244.588 167.144 244.588C167.147 244.588 167.15 244.588 167.152 244.587C167.155 244.586 167.157 244.584 167.159 244.582C167.161 244.58 167.163 244.577 167.164 244.575C167.165 244.572 167.166 244.569 167.166 244.566C167.166 243.961 167.152 243.357 167.124 242.754C167.09 242.159 167.02 241.558 166.957 240.956Z" fill="#263238"/>
<path d="M165.702 241.033C165.421 240.24 165.096 239.463 164.732 238.703C164.372 237.943 163.967 237.205 163.518 236.493C163.514 236.49 163.508 236.488 163.502 236.488C163.497 236.488 163.491 236.49 163.487 236.493C163.482 236.498 163.48 236.504 163.48 236.51C163.48 236.517 163.482 236.523 163.487 236.527C163.876 237.264 164.221 238.024 164.518 238.802C164.826 239.577 165.103 240.361 165.336 241.159C165.569 241.958 165.741 242.766 165.955 243.567C166.168 244.368 166.36 245.174 166.605 245.987C166.606 245.992 166.609 245.996 166.613 245.999C166.617 246.002 166.622 246.004 166.627 246.004C166.63 246.004 166.633 246.004 166.636 246.003C166.639 246.002 166.642 246.001 166.644 245.999C166.646 245.997 166.648 245.994 166.649 245.991C166.65 245.988 166.651 245.985 166.651 245.982C166.659 245.137 166.578 244.294 166.408 243.465C166.239 242.637 166.003 241.824 165.702 241.033Z" fill="#263238"/>
<path d="M165.651 243.676C165.495 243.182 165.27 242.712 164.984 242.28C164.716 241.835 164.39 241.428 164.013 241.07C163.82 240.904 163.613 240.754 163.395 240.622C163.178 240.482 162.942 240.375 162.693 240.305C162.69 240.304 162.687 240.304 162.684 240.304C162.681 240.304 162.677 240.305 162.674 240.306C162.669 240.309 162.664 240.314 162.662 240.32C162.659 240.326 162.66 240.333 162.662 240.338C162.665 240.344 162.67 240.349 162.676 240.351C163.123 240.565 163.52 240.872 163.839 241.251C164.162 241.622 164.433 242.034 164.647 242.476C164.889 242.909 164.996 243.388 165.198 243.836C165.285 244.066 165.372 244.298 165.474 244.526C165.563 244.763 165.667 244.995 165.785 245.22C165.787 245.224 165.79 245.228 165.794 245.23C165.798 245.233 165.802 245.234 165.807 245.235C165.81 245.235 165.813 245.234 165.816 245.233C165.819 245.232 165.822 245.23 165.824 245.228C165.826 245.225 165.828 245.223 165.829 245.22C165.83 245.217 165.831 245.214 165.831 245.211C165.839 244.953 165.83 244.695 165.802 244.439C165.765 244.18 165.712 243.928 165.651 243.676Z" fill="#263238"/>
<path d="M165.744 229.71C164.986 229.499 164.301 229.086 163.762 228.515C163.224 227.944 162.851 227.237 162.686 226.47C162.113 223.808 163.96 224.945 162.305 220.752C160.65 216.558 161.031 215.607 161.604 214.399C162.176 213.191 162.494 213.574 163.004 215.161C163.513 216.749 165.363 219.227 166.061 223.873C166.76 228.52 165.744 229.71 165.744 229.71Z" fill="#263238"/>
<path d="M170.65 225.199C170.65 225.199 168.993 224.628 168.93 221.514C168.867 218.399 170.143 219.038 170.33 215.161C170.517 211.284 170.776 208.555 171.478 208.492C172.179 208.429 174.026 210.396 174.664 214.728C175.302 219.06 173.836 221.908 172.562 223.179C171.288 224.449 170.65 225.199 170.65 225.199Z" fill="#263238"/>
<path d="M164.853 233.459C164.853 233.459 164.472 231.184 163.705 230.09C162.938 228.996 161.279 228.057 160.201 225.961C159.124 223.866 157.908 222.849 157.973 225.833C158.039 228.817 159.374 230.344 161.031 231.36C162.688 232.377 164.853 233.459 164.853 233.459Z" fill="#263238"/>
<path d="M164.152 237.396C164.152 237.396 162.623 234.475 160.393 232.314C158.163 230.153 156.379 229.074 157.017 230.153C157.656 231.232 158.417 231.172 159.502 233.076C160.587 234.981 160.267 236.38 161.795 237.459C163.324 238.538 164.152 237.396 164.152 237.396Z" fill="#263238"/>
<path d="M163.96 241.145C163.897 240.954 163.834 239.558 161.667 238.413C159.5 237.268 157.464 237.713 157.719 238.287C157.973 238.861 159.311 239.812 160.648 240.383C161.985 240.954 163.96 241.145 163.96 241.145Z" fill="#263238"/>
<path d="M170.522 233.585C170.522 233.585 169.566 232.375 170.075 229.836C170.585 227.298 171.733 227.932 173.007 226.596C174.281 225.26 174.026 225.071 175.3 223.675C176.574 222.279 177.726 221.514 178.229 222.087C178.731 222.661 177.986 224.437 177.21 225.454C176.433 226.47 175.237 226.978 174.662 228.249C174.086 229.519 174.344 231.552 172.878 232.506C171.412 233.459 170.522 233.585 170.522 233.585Z" fill="#263238"/>
<path d="M173.708 234.284C173.708 234.284 176.001 231.68 177.656 229.773C179.311 227.866 179.949 226.407 180.012 227.678C180.076 228.948 180.588 229.965 179.248 231.615C177.909 233.265 173.708 234.284 173.708 234.284Z" fill="#263238"/>
<path d="M172.497 238.476C172.497 238.476 172.434 237.459 176.064 235.11C179.694 232.76 181.223 232.314 180.842 233.268C180.461 234.221 178.867 235.172 177.146 236.898C175.426 238.623 172.497 238.476 172.497 238.476Z" fill="#263238"/>
<path d="M165.897 229.439C165.897 229.439 165.042 224.892 164.152 221.642C163.261 218.392 162.696 216.432 162.696 216.432" stroke="#263238" stroke-width="0.5" stroke-linecap="round" stroke-linejoin="round"/>
<path d="M170.502 225.248C170.502 225.248 172.05 220.308 172.56 217.322C173.07 214.336 172.497 212.112 172.242 210.788" stroke="#263238" stroke-width="0.5" stroke-linecap="round" stroke-linejoin="round"/>
<path d="M164.652 233.362C163.965 232.186 163.18 231.071 162.305 230.027C160.902 228.374 159.82 227.486 159.182 225.898" stroke="#263238" stroke-width="0.5" stroke-linecap="round" stroke-linejoin="round"/>
<path d="M170.522 233.584C170.522 233.584 171.031 230.535 172.242 228.948C173.453 227.36 175.882 224.882 176.829 223.292" stroke="#263238" stroke-width="0.5" stroke-linecap="round" stroke-linejoin="round"/>
<path d="M163.809 241.075C163.809 241.075 161.667 239.683 160.138 238.921" stroke="#263238" stroke-width="0.5" stroke-linecap="round" stroke-linejoin="round"/>
<path d="M171.473 257.833H165.474L164.188 243.63H172.759L171.473 257.833Z" fill="#263238" stroke="#263238" stroke-linecap="round" stroke-linejoin="round"/>
<path d="M269.226 171.564H209.2V212.632H269.226V171.564Z" fill="#263238" stroke="#263238" stroke-linecap="round" stroke-linejoin="round"/>
<path d="M268.275 172.555H210.154V211.64H268.275V172.555Z" fill="white" stroke="#263238" stroke-linecap="round" stroke-linejoin="round"/>
<path d="M239.509 182.454H230.968V189.283H239.509V182.454Z" fill="#263238"/>
<path d="M248.345 189.395H239.803V196.224H248.345V189.395Z" fill="#263238"/>
<path d="M239.509 203.054H230.968V209.883H239.509V203.054Z" fill="#263238"/>
<path d="M257.295 175.734H248.753V182.564H257.295V175.734Z" fill="#263238"/>
<path d="M213.219 176.727V209.885" stroke="#263238" stroke-linecap="round" stroke-linejoin="round"/>
<path d="M222.018 176.727V209.885" stroke="#263238" stroke-linecap="round" stroke-linejoin="round"/>
<path d="M230.82 176.727V209.885" stroke="#263238" stroke-linecap="round" stroke-linejoin="round"/>
<path d="M239.619 176.727V209.885" stroke="#263238" stroke-linecap="round" stroke-linejoin="round"/>
<path d="M248.42 176.727V209.885" stroke="#263238" stroke-linecap="round" stroke-linejoin="round"/>
<path d="M257.219 176.727V209.885" stroke="#263238" stroke-linecap="round" stroke-linejoin="round"/>
<path d="M266.021 176.727V209.885" stroke="#263238" stroke-linecap="round" stroke-linejoin="round"/>
<path d="M213.44 182.454H266.133" stroke="#263238" stroke-linecap="round" stroke-linejoin="round"/>
<path d="M213.44 189.284H266.133" stroke="#263238" stroke-linecap="round" stroke-linejoin="round"/>
<path d="M213.44 196.115H266.133" stroke="#263238" stroke-linecap="round" stroke-linejoin="round"/>
<path d="M213.44 202.944H266.133" stroke="#263238" stroke-linecap="round" stroke-linejoin="round"/>
<path d="M232.217 183.667H237.52" stroke="#263238" stroke-linecap="round" stroke-linejoin="round"/>
<path d="M232.217 184.548H237.52" stroke="#263238" stroke-linecap="round" stroke-linejoin="round"/>
<path d="M232.217 185.429H237.52" stroke="#263238" stroke-linecap="round" stroke-linejoin="round"/>
<path d="M232.217 186.31H237.52" stroke="#263238" stroke-linecap="round" stroke-linejoin="round"/>
<path d="M232.217 187.19H237.52" stroke="#263238" stroke-linecap="round" stroke-linejoin="round"/>
<path d="M241.497 191.048H246.799" stroke="#263238" stroke-linecap="round" stroke-linejoin="round"/>
<path d="M241.497 191.929H246.799" stroke="#263238" stroke-linecap="round" stroke-linejoin="round"/>
<path d="M241.497 192.81H246.799" stroke="#263238" stroke-linecap="round" stroke-linejoin="round"/>
<path d="M241.497 193.69H246.799" stroke="#263238" stroke-linecap="round" stroke-linejoin="round"/>
<path d="M241.497 194.571H246.799" stroke="#263238" stroke-linecap="round" stroke-linejoin="round"/>
<path d="M232.438 204.598H237.741" stroke="#263238" stroke-linecap="round" stroke-linejoin="round"/>
<path d="M232.438 205.479H237.741" stroke="#263238" stroke-linecap="round" stroke-linejoin="round"/>
<path d="M232.438 206.359H237.741" stroke="#263238" stroke-linecap="round" stroke-linejoin="round"/>
<path d="M232.438 207.24H237.741" stroke="#263238" stroke-linecap="round" stroke-linejoin="round"/>
<path d="M232.438 208.121H237.741" stroke="#263238" stroke-linecap="round" stroke-linejoin="round"/>
<path d="M250.002 177.607H255.305" stroke="#263238" stroke-linecap="round" stroke-linejoin="round"/>
<path d="M250.002 178.488H255.305" stroke="#263238" stroke-linecap="round" stroke-linejoin="round"/>
<path d="M250.002 179.369H255.305" stroke="#263238" stroke-linecap="round" stroke-linejoin="round"/>
<path d="M250.002 180.25H255.305" stroke="#263238" stroke-linecap="round" stroke-linejoin="round"/>
<path d="M250.002 181.133H255.305" stroke="#263238" stroke-linecap="round" stroke-linejoin="round"/>
<path d="M310.754 232.984H313.343V228.398H310.754V232.984Z" fill="#263238" stroke="#263238" stroke-linecap="round" stroke-linejoin="round"/>
<path d="M309.589 229.795H314.906C317.001 229.795 318.699 228.101 318.699 226.012V213.893C318.699 211.804 317.001 210.111 314.906 210.111H309.589C307.494 210.111 305.796 211.804 305.796 213.893V226.012C305.796 228.101 307.494 229.795 309.589 229.795Z" fill="#949494" stroke="#263238" stroke-linecap="round" stroke-linejoin="round"/>
<path d="M316.117 257.012C316.116 256.796 316.18 256.584 316.301 256.404C316.421 256.223 316.592 256.083 316.793 256C316.993 255.917 317.214 255.895 317.427 255.937C317.64 255.979 317.836 256.083 317.989 256.236C318.143 256.39 318.247 256.585 318.289 256.797C318.332 257.009 318.31 257.23 318.226 257.43C318.143 257.63 318.002 257.8 317.821 257.92C317.641 258.04 317.428 258.104 317.211 258.104C316.921 258.104 316.643 257.989 316.437 257.784C316.232 257.579 316.117 257.302 316.117 257.012Z" fill="#263238" stroke="#263238" stroke-linecap="round" stroke-linejoin="round"/>
<path d="M294.711 257.012C294.711 256.796 294.775 256.584 294.895 256.404C295.015 256.223 295.187 256.083 295.387 256C295.588 255.917 295.808 255.895 296.021 255.937C296.234 255.979 296.43 256.083 296.584 256.236C296.737 256.39 296.842 256.585 296.884 256.797C296.926 257.009 296.904 257.23 296.821 257.43C296.738 257.63 296.597 257.8 296.416 257.92C296.235 258.04 296.023 258.104 295.806 258.104C295.515 258.104 295.237 257.989 295.032 257.784C294.826 257.579 294.711 257.302 294.711 257.012Z" fill="#263238" stroke="#263238" stroke-linecap="round" stroke-linejoin="round"/>
<path d="M305.976 257.013C305.976 256.408 306.204 255.919 306.485 255.919C306.767 255.919 306.995 256.403 306.995 257.013C306.995 257.623 306.767 258.104 306.485 258.104C306.204 258.104 305.976 257.615 305.976 257.013Z" fill="#263238" stroke="#263238" stroke-linecap="round" stroke-linejoin="round"/>
<path d="M305.488 251.081V235.419H307.638V251.147L318.252 255.333V256.383H316.709V255.493L306.483 253.39L296.255 255.493V256.383H294.714V255.333L305.488 251.081Z" fill="#263238" stroke="#263238" stroke-linecap="round" stroke-linejoin="round"/>
<path d="M307.024 256.38H305.947L305.716 251.296H307.255L307.024 256.38Z" fill="#263238" stroke="#263238" stroke-linecap="round" stroke-linejoin="round"/>
<path d="M303.833 238.062H309.3V234.824H303.833V238.062Z" fill="#263238" stroke="#263238" stroke-linecap="round" stroke-linejoin="round"/>
<path d="M298.431 236.014H315.214C316.006 236.014 316.648 235.373 316.648 234.583V233.269C316.648 232.48 316.006 231.839 315.214 231.839H298.431C297.639 231.839 296.997 232.48 296.997 233.269V234.583C296.997 235.373 297.639 236.014 298.431 236.014Z" fill="#949494" stroke="#263238" stroke-linecap="round" stroke-linejoin="round"/>
<path d="M290.105 252.635C289.479 253.496 288.691 254.229 287.786 254.791C286.414 255.577 284.308 255.895 284.308 256.313C284.308 256.732 284.466 257.47 286.046 257.68C287.625 257.891 294.478 257.995 295.374 257.785C296.269 257.574 295.427 253.16 295.427 253.16C295.427 253.16 291.263 253.37 290.105 252.635Z" fill="white" stroke="#263238" stroke-linecap="round" stroke-linejoin="round"/>
<path d="M286.048 257.68C287.63 257.89 294.481 257.994 295.376 257.784C295.604 257.731 295.721 257.404 295.764 256.944C293.855 257.005 290.13 257.06 287.895 256.944C284.891 256.787 284.311 256.312 284.311 256.312C284.308 256.734 284.466 257.469 286.048 257.68Z" fill="white" stroke="#263238" stroke-linecap="round" stroke-linejoin="round"/>
<path d="M285.361 211.538C285.361 211.538 285.784 217.741 286.152 220.369C286.521 222.997 287.892 233.715 288.788 236.5C289.683 239.286 290.632 251.262 290.632 251.262C290.632 251.262 289.63 251.63 289.683 252.049C289.737 252.468 289.788 253.102 289.788 253.102C289.788 253.102 291.843 254.205 293.056 254.205C294.27 254.205 295.796 253.69 295.796 253.69C295.796 253.69 295.481 249.012 295.311 245.333C295.141 241.655 293.627 225.993 293.627 225.993L293.328 210.384L285.361 211.538Z" fill="#263238" stroke="#263238" stroke-linecap="round" stroke-linejoin="round"/>
<path d="M294.267 253.791C294.267 253.791 294.374 254.79 291.739 255.683C289.103 256.576 288.788 257.523 289.103 258.312C289.419 259.1 294.901 259.098 296.956 258.783C299.011 258.469 300.064 258.362 300.222 257.944C300.38 257.525 299.8 254.314 299.8 254.314L294.267 253.791Z" fill="white" stroke="#263238" stroke-linecap="round" stroke-linejoin="round"/>
<path d="M300.222 257.944C300.257 257.758 300.262 257.567 300.237 257.38C299.509 257.513 298.538 257.694 297.271 257.944C294.456 258.488 290.744 258.166 289.021 257.963C289.035 258.083 289.065 258.2 289.111 258.312C289.426 259.098 294.908 259.098 296.963 258.783C299.019 258.469 300.065 258.362 300.222 257.944Z" fill="white" stroke="#263238" stroke-linecap="round" stroke-linejoin="round"/>
<path d="M287.261 213.063L288.79 214.902C288.79 214.902 289.948 227.619 290.37 230.932C290.792 234.245 292.796 246.067 292.796 246.067L294.056 252.373L293.74 253.16C293.661 253.506 293.661 253.866 293.74 254.213C293.794 254.423 293.687 254.58 295.682 254.895C297.011 255.078 298.359 255.078 299.688 254.895C299.862 254.424 299.951 253.926 299.95 253.424C299.976 252.737 299.923 252.049 299.793 251.374C299.635 250.534 299.793 246.067 298.635 241.285C297.477 236.503 296.631 230.983 296.631 229.144C296.631 227.305 296.684 216.531 296.737 216.318C296.791 216.105 297.791 215.422 297.844 213.479C297.897 211.536 297.633 210.798 297.633 210.798H287.363" fill="#263238"/>
<path d="M287.261 213.063L288.79 214.902C288.79 214.902 289.948 227.619 290.37 230.932C290.792 234.245 292.796 246.067 292.796 246.067L294.056 252.373L293.74 253.16C293.661 253.506 293.661 253.866 293.74 254.213C293.794 254.423 293.687 254.58 295.682 254.895C297.011 255.078 298.359 255.078 299.688 254.895C299.862 254.424 299.951 253.926 299.95 253.424C299.976 252.737 299.923 252.049 299.793 251.374C299.635 250.534 299.793 246.067 298.635 241.285C297.477 236.503 296.631 230.983 296.631 229.144C296.631 227.305 296.684 216.531 296.737 216.318C296.791 216.105 297.791 215.422 297.844 213.479C297.897 211.536 297.633 210.798 297.633 210.798H287.363" stroke="#263238" stroke-linecap="round" stroke-linejoin="round"/>
<path d="M287.205 187.05C287.205 187.05 284.835 192.947 284.677 196.819C284.519 200.691 284.677 206.226 284.73 206.436C284.784 206.647 284.15 211.061 284.519 211.743C284.599 211.931 284.744 212.083 284.928 212.172C285.112 212.261 285.322 212.281 285.519 212.227C285.519 212.227 297.06 212.385 297.587 212.278C298.113 212.172 298.22 211.492 298.315 210.964C298.409 210.437 297.999 204.188 297.999 203.239C297.999 202.291 298.315 191.73 296.997 188.787C295.679 185.845 292.413 183.427 291.991 183.323C291.569 183.219 288.154 184.368 287.205 187.05Z" fill="#263238" stroke="#263238" stroke-linecap="round" stroke-linejoin="round"/>
<path d="M281.437 175.475C281.437 175.475 281.034 177.411 281.153 177.566C281.272 177.721 281.677 178.49 281.677 178.49L280.629 181.346L281.881 181.706L283.655 184.763L286.4 183.993L287.208 187.652C287.208 187.652 287.087 188.978 287.693 188.62C288.3 188.262 288.822 187.855 289.991 185.844C291.161 183.833 292.328 183.514 292.328 183.514C292.328 183.514 290.872 181.578 290.595 180.98C290.319 180.383 290.474 179.373 289.991 176.919C289.508 174.466 287.853 173.945 285.597 173.945C283.34 173.945 281.644 174.388 281.437 175.475Z" fill="white" stroke="#263238" stroke-linecap="round" stroke-linejoin="round"/>
<path d="M282.571 173.183C282.571 173.183 280.755 173.585 280.433 173.948C280.11 174.311 280.595 175.434 281.039 175.676C281.483 175.918 284.349 175.282 284.303 175.475C284.257 175.669 283.818 176.201 284.303 176.4C284.789 176.598 286.73 177.126 286.73 177.126L286.245 180.826C286.245 180.826 283.866 180.705 283.301 180.826C282.736 180.947 281.891 181.709 281.891 181.709C281.891 181.709 282.932 184.884 283.136 185.204C283.34 185.523 283.9 185.446 284.546 185.204C285.191 184.962 287.812 183.072 288.094 182.83C288.375 182.588 287.771 180.216 287.771 180.216C287.771 180.216 287.851 178.246 287.851 177.844C287.851 177.443 288.375 177.443 288.739 177.723C289.103 178.004 289.225 179.091 289.142 179.492C289.041 179.802 288.86 180.08 288.618 180.298C288.618 180.298 290.149 181.462 290.472 181.462C290.572 181.471 290.672 181.444 290.754 181.385C290.835 181.327 290.893 181.24 290.916 181.143C290.957 181.022 290.875 177.564 290.875 177.564C290.875 177.564 290.957 174.268 290.513 173.222C290.069 172.177 287.972 171.894 286.643 172.094C285.313 172.295 282.571 173.183 282.571 173.183Z" fill="#263238" stroke="#263238" stroke-linecap="round" stroke-linejoin="round"/>
<path d="M282.893 178.652C282.932 178.873 282.867 179.066 282.745 179.088C282.624 179.11 282.503 178.948 282.457 178.73C282.41 178.512 282.486 178.316 282.607 178.297C282.728 178.277 282.852 178.427 282.893 178.652Z" stroke="#263238" stroke-linecap="round" stroke-linejoin="round"/>
<path d="M282.005 177.846C282.148 177.692 282.345 177.598 282.555 177.583C282.765 177.568 282.973 177.634 283.136 177.767" stroke="#263238" stroke-linecap="round" stroke-linejoin="round"/>
<path d="M283.175 182.27C283.175 182.27 284.102 181.987 284.388 181.346" stroke="white" stroke-linecap="round" stroke-linejoin="round"/>
<path d="M294.005 200.449C294.005 200.449 291.739 210.487 291.527 211.013C291.316 211.538 290.416 213.641 290.416 213.641L292.894 215.794C292.894 215.794 293.263 215.216 293.578 213.858C293.774 212.976 293.898 212.079 293.947 211.177C293.947 211.177 297.531 203.559 298.109 202.506C298.686 201.454 298.269 200.667 298.269 200.406C298.269 200.144 294.005 200.449 294.005 200.449Z" fill="white" stroke="#263238" stroke-linecap="round" stroke-linejoin="round"/>
<path d="M292.369 188.993C292.369 188.993 291.792 190.832 291.843 191.725C291.894 192.618 293.107 197.981 293.107 197.981C293.107 197.981 292.476 198.559 292.687 198.767C292.883 198.994 293.059 199.237 293.214 199.493C293.214 199.493 292.729 199.861 293.214 200.389C293.699 200.916 293.476 201.175 295.689 201.115C297.902 201.054 298.589 200.955 298.844 200.536C299.099 200.118 299.424 199.81 299.162 199.38L298.909 198.978C299.074 198.653 299.147 198.29 299.12 197.928C299.067 197.349 298.698 196.667 298.698 196.403C298.698 196.139 298.647 192.567 297.97 189.782C297.293 186.996 294.388 185.472 293.859 185.426" fill="#263238"/>
<path d="M292.369 188.993C292.369 188.993 291.792 190.832 291.843 191.725C291.894 192.618 293.107 197.981 293.107 197.981C293.107 197.981 292.476 198.559 292.687 198.767C292.883 198.994 293.059 199.237 293.214 199.493C293.214 199.493 292.729 199.861 293.214 200.389C293.699 200.916 293.476 201.175 295.689 201.115C297.902 201.054 298.589 200.955 298.844 200.536C299.099 200.118 299.424 199.81 299.162 199.38L298.909 198.978C299.074 198.653 299.147 198.29 299.12 197.928C299.067 197.349 298.698 196.667 298.698 196.403C298.698 196.139 298.647 192.567 297.97 189.782C297.293 186.996 294.388 185.472 293.859 185.426" stroke="#263238" stroke-linecap="round" stroke-linejoin="round"/>
<path d="M261.318 215.485C261.318 215.485 261.403 218.781 261.403 218.905C261.403 219.028 260.988 221.378 261.194 222.491C261.4 223.604 263.055 225.129 263.055 225.129L263.22 215.207L261.318 215.485Z" fill="white" stroke="#263238" stroke-linecap="round" stroke-linejoin="round"/>
<path d="M266.305 192.754C266.305 192.754 261.451 198.65 261.306 199.303C261.16 199.956 259.891 215.926 259.891 216.078C259.891 216.231 261.861 216.986 262.669 216.986H263.829C263.829 216.986 262.466 206.004 263.072 201.924C263.679 197.844 265.145 196.685 266.256 195.124C267.367 193.563 267.363 192.353 266.305 192.754Z" fill="#263238" stroke="#263238" stroke-linecap="round" stroke-linejoin="round"/>
<path d="M266.559 252.901C266.559 252.901 265.295 254.714 264.589 255.118C263.883 255.522 261.558 256.478 261.456 256.73C261.354 256.981 261.357 257.586 261.558 257.637C261.759 257.688 265.244 257.586 267.367 257.586C269.491 257.586 270.903 257.686 271.155 257.434C271.408 257.182 271.206 253.908 270.952 253.255L270.709 252.599L266.921 252.497L266.559 252.901Z" fill="#263238" stroke="#263238" stroke-linecap="round" stroke-linejoin="round"/>
<path d="M271.245 257.132H261.391C261.391 257.374 261.434 257.616 261.558 257.638C261.759 257.686 265.244 257.587 267.367 257.587C269.491 257.587 270.903 257.686 271.156 257.434C271.211 257.343 271.241 257.239 271.245 257.132Z" fill="white" stroke="#263238" stroke-linecap="round" stroke-linejoin="round"/>
<path d="M261.709 214.919L262.366 217.992C262.366 217.992 262.264 226.003 263.072 229.478C263.572 231.729 263.842 234.024 263.88 236.329C263.88 236.329 264.992 241.82 265.397 243.381C265.802 244.942 266.256 251.541 266.256 251.541C266.256 251.541 265.851 251.843 265.902 252.044C265.953 252.245 266.103 253.496 266.103 253.496C266.103 253.496 266.305 253.496 267.923 253.646C268.744 253.742 269.572 253.759 270.396 253.697L270.952 253.245C270.983 252.708 270.983 252.17 270.952 251.633C270.903 250.725 270.6 250.019 270.6 249.416C270.6 248.814 270.246 235.513 270.246 235.513L270.396 214.658L261.558 214.154L261.709 214.919Z" fill="white" stroke="#263238" stroke-linecap="round" stroke-linejoin="round"/>
<path d="M271.508 252.8C271.263 253.399 270.959 253.973 270.6 254.513C270.144 255.118 268.275 256.176 267.518 256.577C267.295 256.706 267.108 256.889 266.976 257.11C266.843 257.331 266.769 257.581 266.761 257.838C266.761 257.838 268.477 257.889 274.136 257.686L276.562 257.587C276.59 257.116 276.573 256.643 276.511 256.176C276.412 255.421 276.31 253.514 276.31 253.514L271.508 252.8Z" fill="#263238" stroke="#263238" stroke-linecap="round" stroke-linejoin="round"/>
<path d="M274.136 257.685L276.562 257.586C276.578 257.314 276.578 257.042 276.562 256.771L266.894 257.255C266.815 257.437 266.769 257.632 266.761 257.83C266.761 257.83 268.477 257.889 274.136 257.685Z" fill="white" stroke="#263238" stroke-linecap="round" stroke-linejoin="round"/>
<path d="M264.936 218.496L266.856 220.359C266.856 220.359 267.615 227.619 268.372 231.896C269.129 236.172 271.1 247.209 271.1 248.11C271.1 249.01 271.503 251.335 271.503 251.335C271.503 251.335 271.352 251.384 271.301 251.737C271.25 252.09 271.245 253.448 271.245 253.448C271.997 253.8 272.798 254.038 273.621 254.152C274.563 254.202 275.508 254.186 276.448 254.104C276.543 253.587 276.611 253.065 276.652 252.541C276.652 252.139 276.499 250.375 276.601 249.67C276.703 248.966 277.409 245.387 277.208 241.459C277.006 237.532 275.793 231.436 275.793 231.436L276.196 222.569C276.676 220.97 276.847 219.295 276.701 217.632C276.458 214.912 275.844 213.854 275.844 213.854L264.024 213.905" fill="white"/>
<path d="M264.936 218.496L266.856 220.359C266.856 220.359 267.615 227.619 268.372 231.896C269.129 236.172 271.1 247.209 271.1 248.11C271.1 249.01 271.503 251.335 271.503 251.335C271.503 251.335 271.352 251.384 271.301 251.737C271.25 252.09 271.245 253.448 271.245 253.448C271.997 253.8 272.798 254.038 273.621 254.152C274.563 254.202 275.508 254.186 276.448 254.104C276.543 253.587 276.611 253.065 276.652 252.541C276.652 252.139 276.499 250.375 276.601 249.67C276.703 248.966 277.409 245.387 277.208 241.459C277.006 237.532 275.793 231.436 275.793 231.436L276.196 222.569C276.676 220.97 276.847 219.295 276.701 217.632C276.458 214.912 275.844 213.854 275.844 213.854L264.024 213.905" stroke="#263238" stroke-linecap="round" stroke-linejoin="round"/>
<path d="M266.305 192.754C266.305 192.754 262.267 197.742 261.862 199.966C261.456 202.19 260.891 214.728 260.891 215.229C260.891 215.73 261.699 215.933 262.66 216.086C264.031 216.29 265.417 216.371 266.802 216.328C268.467 216.277 270.185 215.723 270.442 215.42C270.699 215.118 270.2 206.202 271.049 201.316C271.898 196.43 272.767 193.814 272.262 192.846C271.757 191.878 268.023 191.738 266.305 192.754Z" fill="#263238" stroke="#263238" stroke-linecap="round" stroke-linejoin="round"/>
<path d="M270.396 192.503C270.396 192.503 267.363 197.788 266.812 201.52C266.261 205.252 266.659 217.69 266.659 217.69C266.659 217.69 266.659 218.194 268.984 218.143C271.309 218.092 274.439 217.49 275.293 217.035C276.147 216.58 277.111 216.229 277.162 215.977C277.213 215.725 276.705 214.82 276.705 214.063C276.705 213.305 276.354 210.191 276.354 210.191C276.354 210.191 276.252 196.44 275.495 194.475C274.737 192.51 271.76 191.949 270.396 192.503Z" fill="#263238" stroke="#263238" stroke-linecap="round" stroke-linejoin="round"/>
<path d="M263.021 183.085C263.021 183.085 262.619 184.696 262.779 185.2C262.915 185.604 262.967 186.033 262.932 186.458C262.881 186.661 261.718 187.971 261.961 188.222C262.232 188.46 262.519 188.68 262.82 188.878C262.82 188.878 263.063 191.54 263.529 191.697C263.995 191.855 265.65 191.547 265.65 191.547C265.65 191.547 266.205 193.612 266.205 193.967C266.205 194.323 264.487 198.098 265.448 197.796C266.409 197.493 270.246 191.951 270.246 191.951C270.246 191.951 270.195 184.849 269.083 183.036C267.972 181.224 264.64 181.524 263.021 183.085Z" fill="white" stroke="#263238" stroke-linecap="round" stroke-linejoin="round"/>
<path d="M264.184 186.433C264.184 186.697 264.082 186.917 263.958 186.917C263.834 186.917 263.73 186.702 263.73 186.433C263.73 186.165 263.832 185.949 263.958 185.949C264.084 185.949 264.184 186.172 264.184 186.433Z" fill="#263238"/>
<path d="M263.427 185.4C263.503 185.332 263.593 185.282 263.691 185.252C263.789 185.223 263.892 185.215 263.993 185.23C264.094 185.244 264.19 185.281 264.276 185.337C264.361 185.392 264.433 185.466 264.487 185.553" stroke="#263238" stroke-linecap="round" stroke-linejoin="round"/>
<path d="M263.529 189.28C264.049 189.237 264.55 189.064 264.985 188.776" stroke="#263238" stroke-linecap="round" stroke-linejoin="round"/>
<path d="M264.842 179.396C264.842 179.396 262.366 180.364 262.114 181.26C261.862 182.155 261.658 183.225 261.658 183.225L263.881 183.68L265.8 183.83C265.8 183.83 265.749 184.282 266.305 185.34C266.603 185.897 266.873 186.469 267.113 187.053C267.113 187.053 266.962 190.025 266.812 190.882C266.685 191.513 266.516 192.136 266.305 192.745C266.305 192.745 267.569 192.987 269.891 193.251C272.214 193.514 275.094 192.948 275.094 192.948C275.094 192.948 275.701 191.939 275.65 189.926C275.599 187.912 274.64 185.04 274.538 183.876C274.437 182.712 274.742 181.911 272.922 180.5C271.102 179.089 267.872 178.6 264.842 179.396Z" fill="#263238" stroke="#263238" stroke-linecap="round" stroke-linejoin="round"/>
<path d="M260.367 209.31C260.239 209.311 260.112 209.302 259.986 209.283L260.1 208.557C260.342 208.594 260.891 208.591 261.058 208.354C261.286 208.03 261.107 206.232 260.876 205.934C260.789 205.832 260.374 205.832 260.075 205.903L259.908 205.194C260.088 205.152 261.005 204.968 261.429 205.462C261.854 205.956 262.109 208.124 261.653 208.778C261.34 209.228 260.757 209.31 260.367 209.31Z" fill="white" stroke="#263238" stroke-linecap="round" stroke-linejoin="round"/>
<path d="M260.396 204.542H256.052V210.183H260.396V204.542Z" fill="white" stroke="#263238" stroke-linecap="round" stroke-linejoin="round"/>
<path d="M271.76 195.678C271.76 195.678 270.903 197.592 270.852 198.548C270.801 199.504 271.913 206.016 271.913 206.016C271.913 206.016 268.273 206.921 267.266 206.921C266.708 206.926 266.151 206.893 265.599 206.822C265.599 206.822 264.235 205.915 263.83 205.663C263.424 205.411 263.123 205.561 262.417 205.007C261.711 204.453 261.153 204.405 261.102 204.707C261.051 205.01 261.053 205.211 261.558 205.462C261.883 205.629 262.187 205.832 262.466 206.067C262.466 206.067 261.252 206.309 260.901 206.37C260.549 206.43 260.447 206.921 260.658 207.176C260.869 207.43 261.214 207.778 261.214 207.778C261.214 207.778 261.163 208.988 261.82 209.23C262.478 209.472 264.295 209.431 264.295 209.431C264.295 209.431 266.215 209.583 266.518 209.583C266.822 209.583 270.661 210.539 273.388 210.539C276.116 210.539 276.924 210.692 277.074 210.087C277.225 209.482 276.972 200.567 276.468 197.846C275.963 195.126 274.801 193.614 273.992 193.515" fill="#263238"/>
<path d="M271.76 195.678C271.76 195.678 270.903 197.592 270.852 198.548C270.801 199.504 271.913 206.016 271.913 206.016C271.913 206.016 268.273 206.921 267.266 206.921C266.708 206.926 266.151 206.893 265.599 206.822C265.599 206.822 264.235 205.915 263.83 205.663C263.424 205.411 263.123 205.561 262.417 205.007C261.711 204.453 261.153 204.405 261.102 204.707C261.051 205.01 261.053 205.211 261.558 205.462C261.883 205.629 262.187 205.832 262.466 206.067C262.466 206.067 261.252 206.309 260.901 206.37C260.549 206.43 260.447 206.921 260.658 207.176C260.869 207.43 261.214 207.778 261.214 207.778C261.214 207.778 261.163 208.988 261.82 209.23C262.478 209.472 264.295 209.431 264.295 209.431C264.295 209.431 266.215 209.583 266.518 209.583C266.822 209.583 270.661 210.539 273.388 210.539C276.116 210.539 276.924 210.692 277.074 210.087C277.225 209.482 276.972 200.567 276.468 197.846C275.963 195.126 274.801 193.614 273.992 193.515" stroke="#263238" stroke-linecap="round" stroke-linejoin="round"/>
<path d="M268.945 206.67C268.392 206.794 267.831 206.875 267.266 206.912C266.708 206.916 266.151 206.883 265.599 206.812C265.599 206.812 264.235 205.905 263.83 205.653C263.424 205.402 263.123 205.552 262.417 204.997C261.711 204.443 261.153 204.395 261.102 204.697C261.051 205 261.053 205.201 261.558 205.452C261.883 205.619 262.187 205.822 262.466 206.057C262.466 206.057 261.252 206.299 260.901 206.36C260.549 206.42 260.447 206.912 260.658 207.166C260.869 207.42 261.214 207.768 261.214 207.768C261.214 207.768 261.163 208.978 261.82 209.22C262.478 209.462 264.295 209.421 264.295 209.421C264.295 209.421 266.215 209.574 266.518 209.574C266.678 209.574 267.819 209.84 269.263 210.089C268.731 208.877 268.799 207.553 268.945 206.67Z" fill="white" stroke="#263238" stroke-linecap="round" stroke-linejoin="round"/>
<path d="M211.207 254.021C211.016 255.087 210.689 256.124 210.237 257.109C209.509 258.65 209.463 259.231 211.108 259.471C212.753 259.71 213.573 259.326 213.913 258.459C214.253 257.593 214.398 255.516 214.493 255.035C214.588 254.553 213.289 253.055 211.207 254.021Z" fill="white" stroke="#263238" stroke-linecap="round" stroke-linejoin="round"/>
<path d="M213.918 257.736C213.578 258.363 213.144 259.135 211.401 258.99C210.414 258.907 210.001 258.481 209.831 258.13C209.608 258.929 209.897 259.295 211.113 259.471C212.756 259.713 213.578 259.326 213.918 258.46C214.054 258.052 214.152 257.632 214.209 257.206C214.122 257.361 214.022 257.54 213.918 257.736Z" fill="white" stroke="#263238" stroke-linecap="round" stroke-linejoin="round"/>
<path d="M224.896 253.588C225.659 254.264 226.524 254.817 227.459 255.226C229.007 255.902 230.128 256.289 230.128 256.625C230.072 256.965 229.957 257.293 229.788 257.593C228.717 257.89 227.612 258.052 226.5 258.077C224.855 258.077 223.501 257.932 222.292 257.884C221.084 257.835 219.679 257.98 219.584 257.114C219.489 256.248 219.679 254.604 219.679 254.604C219.679 254.604 223.925 253.298 224.896 253.588Z" fill="white" stroke="#263238" stroke-linecap="round" stroke-linejoin="round"/>
<path d="M229.781 257.59C229.781 257.59 229.866 257.433 229.951 257.235C229.16 257.377 228.359 257.464 227.556 257.494C225.816 257.542 225.187 257.3 223.202 257.06C221.992 256.929 220.772 256.929 219.562 257.06C219.562 257.073 219.562 257.087 219.562 257.102C219.657 257.968 221.062 257.828 222.27 257.871C223.479 257.915 224.833 258.065 226.478 258.065C227.595 258.044 228.704 257.885 229.781 257.59Z" fill="white" stroke="#263238" stroke-linecap="round" stroke-linejoin="round"/>
<path d="M225.19 215.764C225.19 215.764 225.432 223.06 224.991 229.512C224.549 235.963 223.945 245.442 224.195 246.783C224.445 248.124 224.653 252.441 224.653 252.441L225.102 252.988L225.345 253.881C225.345 253.881 225.102 254.123 223.554 254.575C222.006 255.028 219.771 255.122 219.771 255.122C219.771 255.122 219.671 253.632 219.671 253.235C219.671 252.838 219.771 251.945 219.771 251.945C219.771 251.945 218.926 241.474 219.075 239.339C219.223 237.205 218.926 228.667 218.926 228.667L218.684 225.591C218.684 225.591 216.694 233.577 216.594 234.574C216.495 235.571 215.1 245.692 215.1 246.287C215.1 246.882 214.503 252.54 214.503 252.54C214.709 252.873 214.844 253.245 214.901 253.632C214.952 254.179 214.554 255.568 214.554 255.568C214.118 255.284 213.625 255.098 213.11 255.023L211.069 254.873C211.069 254.873 210.671 251.993 210.671 251.398V248.322C210.671 248.322 210.472 241.224 210.821 238.495C211.171 235.765 210.969 227.329 210.77 223.754C210.571 220.18 210.074 217.005 210.423 216.211C210.659 215.633 210.842 215.034 210.969 214.423C213.513 214.95 216.091 215.299 218.684 215.466C222.809 215.708 224.906 214.97 224.906 214.97L225.19 215.764Z" fill="#263238" stroke="#263238" stroke-linecap="round" stroke-linejoin="round"/>
<path d="M218.669 225.591L219.768 222.38" stroke="white" stroke-linecap="round" stroke-linejoin="round"/>
<path d="M218.587 217.087C218.587 217.087 219.477 217.182 221.399 216.901C223.321 216.62 224.115 216.199 224.115 216.199C224.115 216.199 222.85 191.861 222.85 191.627C222.877 191.247 222.755 190.873 222.511 190.581C222.267 190.289 221.919 190.103 221.54 190.061C220.227 189.819 218.495 190.387 218.118 191.837C217.742 193.287 218.587 217.087 218.587 217.087Z" fill="white" stroke="#263238" stroke-linecap="round" stroke-linejoin="round"/>
<path d="M224.061 218.357C224.061 218.357 223.921 219.809 224.061 219.899C224.202 219.989 225.561 219.48 226.452 219.105C227.342 218.73 227.046 218.88 227.332 218.036C227.619 217.191 227.529 217.191 226.638 217.423C225.748 217.656 224.061 218.357 224.061 218.357Z" fill="white" stroke="#263238" stroke-linecap="round" stroke-linejoin="round"/>
<path d="M222.202 194.535L223.251 208.622L223.794 218.786C223.794 218.786 223.974 219.11 224.263 219.04C224.551 218.97 227.044 218.391 227.332 218.031C227.621 217.67 227.73 216.734 227.73 216.579C227.73 216.424 226.973 207.571 226.973 207.571L228.915 204.977C228.915 204.977 227.432 196.873 227.07 195.251C226.709 193.63 226.711 192.766 226.131 192.045C225.551 191.324 222.229 189.702 222.229 189.702L222.202 194.535Z" fill="#263238" stroke="#263238" stroke-linecap="round" stroke-linejoin="round"/>
<path d="M221.807 188.834C221.807 188.834 223.144 190.238 223.108 190.959C223.071 191.68 222.202 194.526 222.202 194.526L221.661 190.346C221.661 190.346 221.372 189.318 221.807 188.834Z" fill="white" stroke="#263238" stroke-linecap="round" stroke-linejoin="round"/>
<path d="M217.402 185.842L217.291 188.79C217.291 188.79 218.261 191.21 218.88 191.936C219.499 192.662 220.613 193.872 220.613 193.872L221.843 191.314L221.877 189.908L222.421 188.575C221.565 188.379 220.763 187.998 220.072 187.459C218.917 186.559 217.723 185.477 217.616 185.441C217.509 185.404 217.402 185.842 217.402 185.842Z" fill="white" stroke="#263238" stroke-linecap="round" stroke-linejoin="round"/>
<path d="M218.131 186.897C218.131 186.897 218.444 188.042 220.426 189.395C220.874 189.71 221.364 189.961 221.882 190.14V189.917L222.426 188.584C221.57 188.389 220.768 188.008 220.077 187.468C219.783 187.238 219.49 186.999 219.208 186.769L218.829 186.655L218.131 186.897Z" fill="#263238" stroke="#263238" stroke-linecap="round" stroke-linejoin="round"/>
<path d="M225.411 179.541C225.411 179.541 225.282 182.561 225.195 183.599C225.107 184.637 225.064 185.535 224.588 186.491C224.112 187.447 223.593 188.911 222.77 189.037C221.726 189.196 220.659 188.998 219.742 188.475C218.745 187.87 217.446 186.188 217.403 185.842C217.382 185.651 217.339 185.462 217.274 185.281C217.274 185.281 216.755 182.174 216.755 180.792C216.755 179.41 216.883 178.246 219.092 177.469C221.3 176.692 225.411 179.541 225.411 179.541Z" fill="white" stroke="#263238" stroke-linecap="round" stroke-linejoin="round"/>
<path d="M218.182 179.541C218.182 179.541 219.523 179.887 218.832 180.49C218.14 181.092 217.49 181.784 217.49 181.784C217.49 181.784 217.706 182.648 217.621 182.994C217.536 183.34 217.102 183.599 216.798 183.253C216.495 182.907 216.235 182.648 216.235 182.648C216.235 182.648 215.413 180.059 215.24 179.325C215.068 178.592 214.893 177.813 215.968 177.08C216.382 176.777 216.816 176.503 217.267 176.259C218.572 175.489 220.085 175.142 221.596 175.267C224.105 175.483 225.236 176.908 225.236 176.908C225.236 176.908 227.226 176.39 227.097 177.813C226.968 179.236 225.539 180.187 224.76 180.102C223.981 180.018 219.868 177.944 219.045 178.29C218.223 178.636 217.616 179.41 218.182 179.541Z" fill="#263238" stroke="#263238" stroke-linecap="round" stroke-linejoin="round"/>
<path d="M223.161 182.735C223.161 182.735 223.765 184.671 223.593 184.85C223.421 185.03 222.727 185.153 222.727 185.153" stroke="#263238" stroke-linecap="round" stroke-linejoin="round"/>
<path d="M223.549 185.973C223.549 185.973 222.164 186.36 221.123 185.714" stroke="#263238" stroke-linecap="round" stroke-linejoin="round"/>
<path d="M222.605 181.525C222.605 181.525 220.78 181.353 219.827 181.353C218.873 181.353 218.528 181.266 218.485 181.525C218.441 181.784 218.356 183.166 219.091 183.64C219.827 184.114 221.169 183.899 221.732 183.771C222.295 183.642 222.46 182.691 222.511 182.389C222.562 182.086 222.605 181.525 222.605 181.525Z" stroke="#263238" stroke-linecap="round" stroke-linejoin="round"/>
<path d="M223.142 181.531C223.142 181.531 224.598 181.439 225.347 181.477C226.097 181.516 226.376 181.448 226.41 181.7C226.444 181.952 226.515 183.285 225.925 183.711C225.335 184.137 224.277 183.876 223.828 183.728C223.379 183.58 223.246 182.658 223.212 182.365C223.178 182.073 223.142 181.531 223.142 181.531Z" stroke="#263238" stroke-linecap="round" stroke-linejoin="round"/>
<path d="M218.485 181.525L216.235 182.648" stroke="#263238" stroke-linecap="round" stroke-linejoin="round"/>
<path d="M222.605 181.525H223.188" stroke="#263238" stroke-linecap="round" stroke-linejoin="round"/>
<path d="M217.49 183.727C217.49 183.727 216.495 182.476 215.791 182.648C215.088 182.82 215.706 184.635 216.277 184.935C216.847 185.235 217.444 184.85 217.444 184.85" fill="white"/>
<path d="M217.49 183.727C217.49 183.727 216.495 182.476 215.791 182.648C215.088 182.82 215.706 184.635 216.277 184.935C216.847 185.235 217.444 184.85 217.444 184.85" stroke="#263238" stroke-linecap="round" stroke-linejoin="round"/>
<path d="M220.975 182.682C220.975 182.924 220.87 183.132 220.732 183.132C220.594 183.132 220.489 182.931 220.489 182.682C220.489 182.432 220.594 182.231 220.732 182.231C220.87 182.231 220.975 182.432 220.975 182.682Z" fill="#263238"/>
<path d="M224.209 183.132C224.339 183.132 224.445 182.93 224.445 182.682C224.445 182.433 224.339 182.231 224.209 182.231C224.079 182.231 223.974 182.433 223.974 182.682C223.974 182.93 224.079 183.132 224.209 183.132Z" fill="#263238"/>
<path d="M219.71 181.089C220.437 180.907 221.2 180.932 221.914 181.159" stroke="#263238" stroke-linecap="round" stroke-linejoin="round"/>
<path d="M223.683 181.186C224.101 180.995 224.57 180.945 225.02 181.043" stroke="#263238" stroke-linecap="round" stroke-linejoin="round"/>
<path d="M219.747 219.376L219.798 220.264C219.798 220.264 217.737 220.683 214.879 220.022C212.02 219.362 209.445 217.602 209.164 217.22C208.882 216.837 209.407 215.257 209.407 215.257C209.407 215.257 209.03 215.165 209.688 215.398C210.346 215.63 212.92 217.873 216.432 218.481C219.943 219.088 219.8 218.863 219.747 219.376Z" fill="white" stroke="#263238" stroke-linecap="round" stroke-linejoin="round"/>
<path d="M217.072 187.888C217.072 187.888 218.844 190.339 219.674 191.455C220.504 192.57 220.288 193.94 220.181 194.301C220.074 194.661 219.938 195.269 219.938 195.269V218.043C219.938 218.043 220.263 219.268 219.756 219.377C219.249 219.486 215.565 219.304 212.857 217.901C210.149 216.497 209.217 215.522 209.217 215.522L209.904 209.973L210.193 206.875L205.713 206.897C205.713 206.897 208.351 194.264 208.64 193.587C208.928 192.909 216.046 189.299 216.046 189.299C216.046 189.299 216.133 188.122 217.072 187.888Z" fill="#263238" stroke="#263238" stroke-linecap="round" stroke-linejoin="round"/>
<path d="M226.037 198.107L225.978 197.505" stroke="#263238" stroke-linecap="round" stroke-linejoin="round"/>
<path d="M226.973 207.576L226.126 199" stroke="#263238" stroke-linecap="round" stroke-linejoin="round"/>
<path d="M210.174 206.875L211.016 198.828" stroke="#263238" stroke-linecap="round" stroke-linejoin="round"/>
<path d="M208.96 205.207C208.332 205.088 207.688 205.088 207.06 205.207C205.966 205.401 205.451 207.424 205.386 208.131C205.32 208.837 205.771 210.067 206.599 210.41C207.426 210.754 207.856 210.73 208.725 210.217C209.593 209.704 209.499 207.327 209.453 206.524C209.438 206.043 209.265 205.58 208.96 205.207Z" fill="white" stroke="#263238" stroke-linecap="round" stroke-linejoin="round"/>
<path d="M211.098 202.884C211.098 202.884 211.418 200.73 211.452 200.026C211.486 199.322 211.387 198.451 211.515 198.163C211.644 197.875 212.095 198.131 212.256 198.323C212.416 198.514 212.547 199.511 212.515 199.896C212.495 200.131 212.495 200.367 212.515 200.602C212.515 200.602 214.993 198.773 215.284 198.388C215.575 198.003 216.153 197.713 216.347 197.969C216.541 198.226 216.313 198.453 216.087 198.676C215.862 198.898 214.704 200.217 214.51 200.37C214.387 200.482 214.298 200.626 214.253 200.786C214.417 200.801 214.583 200.778 214.738 200.721C215.029 200.626 217.024 199.629 217.218 199.629C217.268 199.637 217.316 199.655 217.359 199.683C217.401 199.71 217.437 199.747 217.465 199.789C217.492 199.832 217.51 199.88 217.517 199.93C217.524 199.98 217.521 200.031 217.507 200.079C217.444 200.273 214.995 201.749 214.901 201.773C214.806 201.798 214.707 202.032 214.867 202.064C215.027 202.095 217.024 201.773 217.281 201.902C217.328 201.924 217.369 201.957 217.4 201.999C217.43 202.041 217.45 202.09 217.456 202.141C217.463 202.193 217.456 202.245 217.437 202.293C217.418 202.342 217.387 202.384 217.347 202.417C217.218 202.514 214.835 202.93 214.835 202.93L215.93 203.155C216.252 203.221 216.798 203.221 216.798 203.412C216.798 203.603 216.67 203.702 216.444 203.702H214.77C214.415 203.702 213.709 203.99 213.129 204.247C212.549 204.503 212.292 204.6 212.292 204.6C212.292 204.6 210.712 207.458 210.135 208.487C209.913 208.909 209.586 209.266 209.185 209.525C208.784 209.784 208.323 209.935 207.846 209.963C207.009 210.028 206.148 208.511 206.303 207.785C206.458 207.059 207.815 205.408 209.006 204.798C210.198 204.189 210.55 203.596 211.098 202.884Z" fill="white" stroke="#263238" stroke-linecap="round" stroke-linejoin="round"/>
<path d="M230.293 205.58C230.293 205.58 229.373 204.387 228.728 204.341C228.082 204.295 226.932 206.359 226.932 207.232C226.932 208.106 226.978 209.757 227.347 209.986C227.716 210.216 228.405 209.803 228.82 209.26C229.235 208.718 230.293 205.58 230.293 205.58Z" fill="white" stroke="#263238" stroke-linecap="round" stroke-linejoin="round"/>
<path d="M240.849 199.918C240.849 199.918 240.902 198.935 240.715 198.988C240.529 199.042 240.398 199.175 240.451 199.625C240.451 200.107 240.397 200.587 240.291 201.058L240.849 199.918Z" fill="white" stroke="#263238" stroke-linecap="round" stroke-linejoin="round"/>
<path d="M229.351 205.251C229.351 205.251 227.895 207.913 227.942 208.622C227.988 209.331 228.606 209.59 229.725 209.259C230.844 208.927 238.641 204.694 239.012 204.348C239.383 204.002 240.662 201.35 241.089 200.871C241.516 200.392 241.46 199.201 241.46 198.988C241.46 198.775 241.089 198.855 241.089 199.121C241.089 199.387 240.184 201.11 240.051 201.164C239.917 201.217 238.721 201.8 238.721 201.8C238.721 201.8 239.332 200.607 239.546 200.208C239.759 199.808 239.944 199.358 239.492 199.518C239.041 199.678 238.32 200.897 238.053 201.563C237.786 202.228 237.325 203.102 237.415 203.526L237.495 203.951C237.495 203.951 234.807 204.561 233.21 204.641C231.613 204.721 229.431 204.985 229.351 205.251Z" fill="white" stroke="#263238" stroke-linecap="round" stroke-linejoin="round"/>
<path d="M240.131 202.439C240.131 202.439 241.541 200.817 241.728 200.527C241.914 200.237 242.152 199.784 242.099 199.438C242.045 199.092 241.808 199.518 241.613 199.811C241.419 200.103 241.055 200.367 240.842 200.844C240.77 200.991 240.668 201.121 240.542 201.226C240.417 201.332 240.271 201.41 240.114 201.456L240.131 202.439Z" fill="white" stroke="#263238" stroke-linecap="round" stroke-linejoin="round"/>
<path d="M239.626 203.419C239.626 203.419 240.424 201.773 240.635 201.323C240.846 200.873 240.902 200.101 240.929 199.629C240.956 199.157 240.555 199.469 240.502 199.871C240.448 200.273 240.131 201.463 240.131 201.463C240.131 201.463 238.4 202.673 238.4 203.002C238.406 203.251 238.423 203.499 238.454 203.745" fill="white"/>
<path d="M239.626 203.419C239.626 203.419 240.424 201.773 240.635 201.323C240.846 200.873 240.902 200.101 240.929 199.629C240.956 199.157 240.555 199.469 240.502 199.871C240.448 200.273 240.131 201.463 240.131 201.463C240.131 201.463 238.4 202.673 238.4 203.002C238.406 203.251 238.423 203.499 238.454 203.745" stroke="#263238" stroke-linecap="round" stroke-linejoin="round"/>
<path d="M185.378 228.401H182.789V232.987H185.378V228.401Z" fill="#263238" stroke="#263238" stroke-linecap="round" stroke-linejoin="round"/>
<path d="M186.543 210.111H181.226C179.131 210.111 177.433 211.805 177.433 213.894V226.013C177.433 228.102 179.131 229.796 181.226 229.796H186.543C188.637 229.796 190.335 228.102 190.335 226.013V213.894C190.335 211.805 188.637 210.111 186.543 210.111Z" fill="#949494" stroke="#263238" stroke-linecap="round" stroke-linejoin="round"/>
<path d="M180.017 257.013C180.018 256.797 179.954 256.585 179.833 256.405C179.713 256.224 179.542 256.084 179.341 256.001C179.141 255.918 178.92 255.896 178.707 255.938C178.494 255.98 178.298 256.084 178.145 256.237C177.991 256.39 177.887 256.586 177.844 256.798C177.802 257.01 177.824 257.231 177.907 257.431C177.991 257.631 178.132 257.801 178.312 257.921C178.493 258.041 178.706 258.105 178.923 258.105C179.213 258.105 179.491 257.99 179.697 257.785C179.902 257.58 180.017 257.303 180.017 257.013Z" fill="#263238" stroke="#263238" stroke-linecap="round" stroke-linejoin="round"/>
<path d="M201.423 257.013C201.423 256.797 201.359 256.585 201.239 256.405C201.119 256.224 200.947 256.084 200.747 256.001C200.546 255.918 200.326 255.896 200.113 255.938C199.9 255.98 199.704 256.084 199.551 256.237C199.397 256.39 199.292 256.586 199.25 256.798C199.208 257.01 199.23 257.231 199.313 257.431C199.397 257.631 199.537 257.801 199.718 257.921C199.899 258.041 200.111 258.105 200.329 258.105C200.619 258.105 200.897 257.99 201.102 257.785C201.308 257.58 201.423 257.303 201.423 257.013Z" fill="#263238" stroke="#263238" stroke-linecap="round" stroke-linejoin="round"/>
<path d="M190.156 257.013C190.156 256.408 189.928 255.919 189.649 255.919C189.37 255.919 189.139 256.403 189.139 257.013C189.139 257.623 189.367 258.104 189.649 258.104C189.93 258.104 190.156 257.615 190.156 257.013Z" fill="#263238" stroke="#263238" stroke-linecap="round" stroke-linejoin="round"/>
<path d="M190.644 251.081V235.419H188.494V251.147L177.882 255.333V256.383H179.423V255.493L189.651 253.39L199.877 255.493V256.383H201.42V255.333L190.644 251.081Z" fill="#263238" stroke="#263238" stroke-linecap="round" stroke-linejoin="round"/>
<path d="M189.11 256.381H190.185L190.415 251.297H188.879L189.11 256.381Z" fill="#263238" stroke="#263238" stroke-linecap="round" stroke-linejoin="round"/>
<path d="M192.299 234.821H186.831V238.059H192.299V234.821Z" fill="#263238" stroke="#263238" stroke-linecap="round" stroke-linejoin="round"/>
<path d="M197.7 231.84H180.918C180.125 231.84 179.483 232.48 179.483 233.27V234.584C179.483 235.374 180.125 236.014 180.918 236.014H197.7C198.492 236.014 199.135 235.374 199.135 234.584V233.27C199.135 232.48 198.492 231.84 197.7 231.84Z" fill="#949494" stroke="#263238" stroke-linecap="round" stroke-linejoin="round"/>
<path d="M213.466 243.405L215.138 245.879L217.121 245.755C217.121 245.755 220.899 245.075 221.394 244.952C221.889 244.828 222.076 245.259 221.829 245.755C221.581 246.251 219.288 248.473 218.174 249.143C217.06 249.813 213.898 250.934 213.59 250.997C213.282 251.06 212.908 250.44 212.226 248.526C211.715 247.189 211.072 245.906 210.307 244.695L213.466 243.405Z" fill="white" stroke="#263238" stroke-linecap="round" stroke-linejoin="round"/>
<path d="M221.829 245.755C222.071 245.271 221.892 244.828 221.394 244.952C220.897 245.075 217.131 245.755 217.131 245.755L215.148 245.878C215.158 246.448 215.263 247.011 215.459 247.546C215.459 247.546 212.67 248.226 212.236 248.536C212.918 250.45 213.289 251.067 213.6 251.006C213.91 250.946 217.068 249.833 218.184 249.153C219.3 248.473 221.581 246.249 221.829 245.755Z" fill="white" stroke="#263238" stroke-linecap="round" stroke-linejoin="round"/>
<path d="M221.829 245.755C221.924 245.586 221.955 245.388 221.916 245.198C220.783 246.149 218.412 248.102 217.463 248.574C216.558 249.024 214.209 249.849 212.93 250.288C213.204 250.842 213.416 251.043 213.59 251.014C213.898 250.951 217.058 249.84 218.174 249.16C219.29 248.48 221.581 246.249 221.829 245.755Z" fill="white" stroke="#263238" stroke-linecap="round" stroke-linejoin="round"/>
<path d="M207.293 222.998C207.293 222.998 210.021 230.984 211.608 236.363C212.371 238.943 213.325 241.462 214.461 243.902C214.461 243.902 213.161 244.642 212.292 245.075C211.423 245.508 209.938 246.063 209.938 246.063C209.938 246.063 208.761 244.209 207.524 241.801C206.286 239.393 204.177 233.522 203.185 231.729C202.192 229.936 200.831 227.218 200.831 227.218C200.831 227.218 200.212 224.13 202.566 223.327C204.92 222.523 206.614 222.134 207.293 222.998Z" fill="#263238" stroke="#263238" stroke-linecap="round" stroke-linejoin="round"/>
<path d="M197.892 221.661C197.892 221.661 198.96 222.37 198.989 222.486C199.018 222.603 198.96 222.694 198.722 222.784C198.484 222.874 197.39 223.079 197.39 223.079L197.892 221.661Z" fill="white" stroke="#263238" stroke-linecap="round" stroke-linejoin="round"/>
<path d="M201.855 248.48C201.855 248.48 201.428 251.13 201.127 252.095C200.826 253.061 200.04 254.82 200.29 255.256C200.539 255.691 201.862 256.142 202.537 256.197C203.211 256.253 204.075 257.354 205.33 257.807C206.584 258.259 208.242 258.138 208.205 257.807C208.169 257.475 204.49 253.451 204.311 252.458C204.131 251.466 204.774 248.407 204.774 248.407L201.855 248.48Z" fill="white" stroke="#263238" stroke-linecap="round" stroke-linejoin="round"/>
<path d="M203.862 253.115L203.762 253.393C202.791 253.283 201.832 253.09 200.894 252.817C200.552 253.763 200.105 254.915 200.302 255.257C200.544 255.695 201.874 256.142 202.549 256.198C203.224 256.254 204.087 257.355 205.342 257.807C206.597 258.26 208.254 258.139 208.218 257.807C208.181 257.476 204.502 253.451 204.323 252.459C204.136 252.652 203.98 252.874 203.862 253.115Z" fill="white" stroke="#263238" stroke-linecap="round" stroke-linejoin="round"/>
<path d="M205.267 257.15C204.274 256.666 203.376 255.834 202.054 255.389C201.195 255.096 200.598 254.861 200.282 254.73C200.234 254.903 200.24 255.087 200.302 255.256C200.544 255.694 201.874 256.141 202.549 256.197C203.223 256.253 204.087 257.354 205.342 257.806C206.541 258.242 208.099 258.148 208.208 257.852C207.38 257.731 205.949 257.484 205.267 257.15Z" fill="white" stroke="#263238" stroke-linecap="round" stroke-linejoin="round"/>
<path d="M201.197 228.578C201.197 228.578 206.092 229.135 206.466 231.606C206.839 234.076 205.968 249.46 205.968 249.46C205.243 249.493 204.517 249.451 203.801 249.337C202.809 249.153 201.132 248.783 201.132 248.783C201.132 248.783 200.889 243.531 200.574 241.428C200.258 239.325 200.015 233.212 200.015 233.212C200.015 233.212 191.838 232.532 191.095 232.039C190.352 231.545 201.197 228.578 201.197 228.578Z" fill="#263238" stroke="#263238" stroke-linecap="round" stroke-linejoin="round"/>
<path d="M206.526 227.341C206.526 227.341 195.56 231.605 192.772 232.532C190.255 233.327 187.557 233.348 185.028 232.595C183.109 231.976 182.165 229.517 182.165 229.517C182.165 229.517 181.68 228.948 181.922 228.394C182.165 227.84 186.137 224.314 188.552 223.697C190.966 223.08 195.347 223.348 195.347 223.348C195.347 223.348 204.791 221.17 206.092 221.349C207.392 221.528 208.429 226.153 208.613 226.77" fill="#263238"/>
<path d="M206.526 227.341C206.526 227.341 195.56 231.605 192.772 232.532C190.255 233.327 187.557 233.348 185.028 232.595C183.109 231.976 182.165 229.517 182.165 229.517C182.165 229.517 181.68 228.948 181.922 228.394C182.165 227.84 186.137 224.314 188.552 223.697C190.966 223.08 195.347 223.348 195.347 223.348C195.347 223.348 204.791 221.17 206.092 221.349C207.392 221.528 208.429 226.153 208.613 226.77" stroke="#263238" stroke-linecap="round" stroke-linejoin="round"/>
<path d="M184.965 229.999C184.965 229.999 185.834 226.611 188.12 225.181" stroke="#263238" stroke-linecap="round" stroke-linejoin="round"/>
<path d="M184.47 227.714C184.47 227.714 185.4 226.291 186.64 225.983" stroke="#263238" stroke-linecap="round" stroke-linejoin="round"/>
<path d="M191.292 202.268C191.619 202.344 191.928 202.486 192.198 202.686C192.468 202.886 192.694 203.139 192.862 203.43C193.471 204.441 194.485 208.233 194.485 208.233C194.485 208.233 196.106 212.936 195.803 214.041C195.499 215.147 194.281 216.771 194.281 216.771C194.281 216.771 194.383 220.401 194.686 221.127C194.953 221.854 195.173 222.597 195.346 223.351C195.346 223.351 194.485 223.959 191.646 224.363C188.807 224.767 186.475 224.97 185.511 225.728C184.548 226.485 182.42 229.358 182.165 229.52C181.91 229.682 181.507 229.975 181.303 229.571C181.1 229.166 180.745 228.307 181.201 226.488C181.658 224.668 182.471 217.488 182.774 214.1C183.077 210.712 182.42 207.275 182.825 204.904C183.23 202.532 186.829 201.114 187.639 200.961C188.45 200.809 191.292 202.268 191.292 202.268Z" fill="#263238" stroke="#263238" stroke-linecap="round" stroke-linejoin="round"/>
<path d="M182.735 226.478C182.735 226.478 184.286 224.687 185.028 224.377C185.771 224.067 190.976 224.067 190.976 224.067" stroke="white" stroke-linecap="round" stroke-linejoin="round"/>
<path d="M183.851 224.191C184.337 223.915 184.858 223.708 185.4 223.573C186.081 223.45 187.877 223.573 187.877 223.573" stroke="white" stroke-linecap="round" stroke-linejoin="round"/>
<path d="M186.577 218.012C188.264 217.355 189.802 216.368 191.1 215.108" stroke="white" stroke-linecap="round" stroke-linejoin="round"/>
<path d="M192.153 187.91C192.153 187.91 192.913 189.529 193.167 190.032C193.422 190.536 193.318 191.4 193.522 192.106C193.726 192.813 194.89 193.268 194.89 193.674C194.89 194.081 194.434 194.884 194.434 194.884C194.434 194.884 194.179 198.03 193.774 198.372C193.369 198.713 191.697 198.827 191.697 198.827L190.835 202.113L191.697 202.619C191.697 202.619 191.847 205.603 191.697 206.665C191.546 207.727 191.646 208.737 190.124 208.332C188.603 207.928 186.271 203.887 186.069 203.381C185.868 202.875 186.727 200.7 185.715 197.464C184.703 194.229 186.929 191.298 188.402 189.933C189.874 188.568 190.581 187.658 192.153 187.91Z" fill="white" stroke="#263238" stroke-linecap="round" stroke-linejoin="round"/>
<path d="M192.153 187.91C192.102 187 192 186.647 190.124 186.443C188.248 186.24 184.244 186.09 182.672 188.863C181.099 191.637 181.102 197.711 181.102 197.711C181.102 197.711 177.755 200.692 177.501 202.519C177.246 204.347 178.471 206.06 180.391 206.667L180.505 206.696C180.675 205.851 181.034 205.054 181.556 204.366C182.653 203.054 183.604 203.199 184.992 202.834C186.38 202.469 187.263 202.377 187.469 200.796C187.676 199.216 187.977 197.508 187.843 195.898C187.792 195.291 188.452 194.381 188.452 194.381C188.452 194.381 190.022 194.785 191.037 192.055C192.051 189.326 192.204 188.82 192.153 187.91Z" fill="#263238" stroke="#263238" stroke-linecap="round" stroke-linejoin="round"/>
<path d="M189.11 195.139C189.11 195.139 188.603 192.813 187.285 193.723C185.968 194.633 187.945 197.213 188.256 197.263C188.566 197.314 189.066 197.009 189.066 197.009" fill="white"/>
<path d="M189.11 195.139C189.11 195.139 188.603 192.813 187.285 193.723C185.968 194.633 187.945 197.213 188.256 197.263C188.566 197.314 189.066 197.009 189.066 197.009" stroke="#263238" stroke-linecap="round" stroke-linejoin="round"/>
<path d="M191.697 198.829L190.124 198.628L191.241 200.094L191.697 198.829Z" fill="#263238" stroke="#263238" stroke-linecap="round" stroke-linejoin="round"/>
<path d="M193.364 192.685C193.43 193.028 193.364 193.331 193.211 193.36C193.058 193.389 192.884 193.132 192.816 192.791C192.748 192.45 192.816 192.148 192.971 192.118C193.126 192.089 193.299 192.344 193.364 192.685Z" fill="#263238"/>
<path d="M196.565 220.241C196.695 220.242 196.824 220.233 196.953 220.215L196.836 219.489C196.594 219.525 196.031 219.522 195.866 219.283C195.635 218.951 195.817 217.122 196.053 216.812C196.14 216.71 196.562 216.71 196.866 216.781L197.035 216.055C196.853 216.011 195.922 215.813 195.487 216.326C195.053 216.839 194.796 219.036 195.262 219.699C195.575 220.156 196.169 220.241 196.565 220.241Z" fill="white" stroke="#263238" stroke-linecap="round" stroke-linejoin="round"/>
<path d="M196.536 221.129H200.952V215.391H196.536V221.129Z" fill="white" stroke="#263238" stroke-linecap="round" stroke-linejoin="round"/>
<path d="M183.749 203.272C183.749 203.272 181.41 202.546 180.34 207.054C179.986 208.554 178.542 223.752 178.843 223.854C179.935 224.238 191.44 220.669 191.44 220.669C191.44 220.669 194.999 220.427 195.322 220.352C195.645 220.277 196.123 219.72 196.101 219.408C196.079 219.096 196.101 218.464 196.101 218.464C196.101 218.464 196.637 217.85 196.451 217.443C196.338 217.199 196.137 217.006 195.888 216.903H195.16L194.725 216.724C194.725 216.724 195.266 216.163 195.177 215.645C195.087 215.127 194.65 214.842 194.466 215.219C194.281 215.597 194.245 215.865 193.9 216.204C193.502 216.558 193.141 216.951 192.823 217.378C192.58 217.763 191.918 218.752 191.918 218.752L183.628 219.202L184.856 209.672" fill="#263238"/>
<path d="M183.749 203.272C183.749 203.272 181.41 202.546 180.34 207.054C179.986 208.554 178.542 223.752 178.843 223.854C179.935 224.238 191.44 220.669 191.44 220.669C191.44 220.669 194.999 220.427 195.322 220.352C195.645 220.277 196.123 219.72 196.101 219.408C196.079 219.096 196.101 218.464 196.101 218.464C196.101 218.464 196.637 217.85 196.451 217.443C196.338 217.199 196.137 217.006 195.888 216.903H195.16L194.725 216.724C194.725 216.724 195.266 216.163 195.177 215.645C195.087 215.127 194.65 214.842 194.466 215.219C194.281 215.597 194.245 215.865 193.9 216.204C193.502 216.558 193.141 216.951 192.823 217.378C192.58 217.763 191.918 218.752 191.918 218.752L183.628 219.202L184.856 209.672" stroke="#263238" stroke-linecap="round" stroke-linejoin="round"/>
<path d="M196.426 217.444C196.314 217.2 196.113 217.007 195.863 216.904H195.135L194.701 216.725C194.701 216.725 195.242 216.164 195.152 215.646C195.063 215.128 194.626 214.842 194.441 215.22C194.257 215.597 194.221 215.866 193.876 216.205C193.478 216.558 193.117 216.952 192.799 217.378C192.556 217.763 191.893 218.753 191.893 218.753L183.604 219.203L184.152 215.053L179.498 214.946C179.073 219.302 178.687 223.799 178.85 223.857C179.942 224.242 191.447 220.672 191.447 220.672C191.447 220.672 195.007 220.43 195.33 220.355C195.652 220.28 196.13 219.723 196.108 219.411C196.087 219.099 196.108 218.467 196.108 218.467C196.108 218.467 196.613 217.85 196.426 217.444Z" fill="white" stroke="#263238" stroke-linecap="round" stroke-linejoin="round"/>
<path d="M196.055 221.597C196.055 221.597 195.126 221.783 194.878 222.081C194.631 222.378 194.012 224.058 194.322 224.121C194.633 224.184 195.252 222.824 195.252 222.824C195.252 222.824 196.989 221.967 196.055 221.597Z" fill="white" stroke="#263238" stroke-linecap="round" stroke-linejoin="round"/>
<path d="M196.47 221.601C196.256 221.587 196.042 221.628 195.849 221.72C195.582 221.868 195.019 223.138 194.932 223.494C194.844 223.849 194.932 224.2 195.174 224.113C195.417 224.026 196.242 222.753 196.477 222.606C196.713 222.458 196.885 221.606 196.47 221.601Z" fill="white" stroke="#263238" stroke-linecap="round" stroke-linejoin="round"/>
<path d="M197.123 221.601C197.095 221.538 197.049 221.484 196.991 221.446C196.933 221.409 196.866 221.389 196.796 221.389C196.727 221.389 196.66 221.409 196.602 221.446C196.544 221.484 196.498 221.538 196.47 221.601C196.116 222.104 195.524 223.641 195.672 223.757C195.82 223.873 196.174 223.493 196.412 223.227C196.65 222.961 197.3 222.281 197.123 221.601Z" fill="white" stroke="#263238" stroke-linecap="round" stroke-linejoin="round"/>
<path d="M197.892 221.662C197.892 221.662 197.361 221.335 197.123 221.602C196.885 221.868 196.708 223.296 196.766 223.433C196.824 223.571 197.3 223.228 197.39 223.08C197.479 222.933 197.892 221.662 197.892 221.662Z" fill="white" stroke="#263238" stroke-linecap="round" stroke-linejoin="round"/>
<defs>
<linearGradient id="paint0_linear_1187_30967" x1="201.322" y1="179.277" x2="328.306" y2="414.92" gradientUnits="userSpaceOnUse">
<stop stop-color="white"/>
<stop offset="1" stop-color="#BBC9D8"/>
</linearGradient>
<linearGradient id="paint1_linear_1187_30967" x1="210.356" y1="196.024" x2="306.074" y2="373.683" gradientUnits="userSpaceOnUse">
<stop stop-color="white"/>
<stop offset="1" stop-color="#BBC9D8"/>
</linearGradient>
</defs>
</svg>
