<svg width="510" height="515" viewBox="0 0 510 515" fill="none" xmlns="http://www.w3.org/2000/svg">
<mask id="mask0_777_39641" style="mask-type:luminance" maskUnits="userSpaceOnUse" x="81" y="82" width="381" height="331">
<path d="M366.712 82.4498L414.311 164.888L461.911 247.33L414.298 329.777L366.684 412.224L271.476 412.231L176.264 412.24L128.663 329.798L81.065 247.359L128.675 164.914L176.288 82.4672L271.5 82.4585L366.712 82.4498Z" fill="white"/>
</mask>
<g mask="url(#mask0_777_39641)">
<path d="M319.114 0.0114148L33.4666 164.921L223.865 494.682L509.512 329.772L319.114 0.0114148Z" fill="url(#paint0_linear_777_39641)"/>
</g>
<mask id="mask1_777_39641" style="mask-type:luminance" maskUnits="userSpaceOnUse" x="127" y="123" width="289" height="249">
<path d="M343.285 123.022L199.711 123.036L127.915 247.359L199.692 371.673L343.263 371.661L415.062 247.336L343.285 123.022Z" fill="white"/>
</mask>
<g mask="url(#mask1_777_39641)">
<path d="M307.398 60.8666L92.0278 185.204L235.582 433.832L450.951 309.495L307.398 60.8666Z" fill="url(#paint1_linear_777_39641)" fill-opacity="0.8"/>
</g>
<path d="M86.375 333.799L119.829 314.485L128.062 328.786L94.6045 348.102L86.375 333.799Z" fill="#00478F"/>
<path d="M264.29 318.107L269.474 326.435H266.402L262.634 320.387L259.106 326.435H256.058L261.242 318.107L256.034 309.755H259.106L262.898 315.851L266.45 309.755H269.498L264.29 318.107ZM281.142 326.435L277.302 319.763H275.214V326.435H272.478V309.755H278.238C279.518 309.755 280.598 309.979 281.478 310.427C282.374 310.875 283.038 311.475 283.47 312.227C283.918 312.979 284.142 313.819 284.142 314.747C284.142 315.835 283.822 316.827 283.182 317.723C282.558 318.603 281.59 319.203 280.278 319.523L284.406 326.435H281.142ZM275.214 317.579H278.238C279.262 317.579 280.03 317.323 280.542 316.811C281.07 316.299 281.334 315.611 281.334 314.747C281.334 313.883 281.078 313.211 280.566 312.731C280.054 312.235 279.278 311.987 278.238 311.987H275.214V317.579Z" fill="#001237"/>
<path fill-rule="evenodd" clip-rule="evenodd" d="M261.72 170.673C262.153 170.643 262.585 170.73 262.972 170.925C263.229 171.132 263.243 171.41 263.302 171.947C263.734 175.979 264.554 205.491 264.421 205.829C264.242 206.129 264.077 206.119 263.73 206.172C256.212 207.35 246.642 210.036 239.286 212.534C219.897 219.15 214.412 224.41 213.703 224.705C213.634 224.726 213.562 224.733 213.49 224.725C213.418 224.716 213.349 224.692 213.287 224.655C213.226 224.617 213.172 224.567 213.132 224.507C213.091 224.448 213.063 224.38 213.05 224.309C212.373 222.047 210.572 189.744 210.442 186.938C210.431 186.829 210.445 186.719 210.484 186.617C210.523 186.515 210.586 186.424 210.668 186.35C213.714 183.044 254.004 170.683 261.72 170.673ZM213.828 223.489C225.187 215.14 249.389 207.327 263.37 205.119C262.387 167.796 262.298 173.584 262.221 171.757C261.524 171.704 260.823 171.729 260.131 171.833C252.858 172.71 235.614 177.677 228.136 180.02C226.363 180.577 211.834 185.134 210.9 186.775C210.832 186.896 213.103 218.691 213.828 223.489Z" fill="black"/>
<path fill-rule="evenodd" clip-rule="evenodd" d="M216.432 189.685C216.457 190.293 218.207 213.271 218.322 213.203C220.923 211.657 231.834 207.722 233.335 206.896C233.584 206.759 232.208 185.827 231.936 184.888C231.585 183.678 216.429 189.619 216.432 189.685Z" fill="#212121"/>
<path fill-rule="evenodd" clip-rule="evenodd" d="M231.53 184.264C231.682 184.247 231.835 184.272 231.974 184.333C232.113 184.395 232.234 184.493 232.323 184.616C232.785 185.441 233.78 202.662 233.871 204.871C233.958 207.072 233.997 207.177 233.461 207.449C232.485 207.934 229.597 209.045 227.046 210.045C218.503 213.391 218.935 213.515 218.511 213.681C218.442 213.709 218.368 213.721 218.294 213.717C218.22 213.713 218.147 213.693 218.081 213.659C218.016 213.624 217.958 213.576 217.912 213.518C217.867 213.459 217.834 213.392 217.817 213.319C217.533 212.115 216.183 189.698 216.213 189.695C216.211 189.652 216.222 189.608 216.245 189.571C216.267 189.534 216.3 189.504 216.339 189.485C216.902 189.184 228.931 184.249 231.53 184.264ZM216.665 189.82C216.682 190.017 218.67 211.714 218.738 212.387C222.078 210.694 230.763 207.504 232.816 206.541C232.843 204.196 231.729 186.918 231.514 185.188C229.666 185.052 218.544 189.056 216.665 189.82Z" fill="#212121"/>
<path fill-rule="evenodd" clip-rule="evenodd" d="M237.071 183.438C237.049 183.211 237.276 183.05 237.475 182.934C239.892 181.506 254.928 177.627 256.98 177.672C257.135 177.662 257.288 177.709 257.41 177.804C257.533 177.898 257.617 178.035 257.646 178.187C257.928 179.181 258.588 185.777 258.395 186.688C258.378 186.785 258.337 186.877 258.276 186.955C258.216 187.032 258.137 187.094 258.047 187.135C257.885 187.181 257.719 187.212 257.551 187.227C254.784 187.737 239.827 191.688 237.895 191.352C237.788 191.343 237.687 191.301 237.606 191.231C237.525 191.162 237.468 191.067 237.444 190.963C237.298 190.211 237.213 186.979 237.108 184.278C237.08 183.513 237.069 183.447 237.071 183.438ZM256.662 178.769C254.562 178.999 238.658 182.426 237.517 183.447C237.614 184.268 237.974 189.411 238.16 190.59C240.19 190.528 254.124 186.756 257.335 186.151C257.359 184.769 256.75 178.76 256.662 178.769Z" fill="#212121"/>
<path fill-rule="evenodd" clip-rule="evenodd" d="M259.025 191.124L259.101 191.27V191.273L259.049 191.428C258.743 191.59 259.217 191.417 257.366 191.715C253.204 192.393 245.948 194.329 242.069 195.579C238.593 196.708 239.766 196.587 238.875 196.635L238.56 196.356V196.353L238.537 195.933C238.869 195.558 238.784 195.633 238.915 195.573C242.482 194.019 254.321 191.259 258.868 191.069L259.025 191.124Z" fill="#212121"/>
<path fill-rule="evenodd" clip-rule="evenodd" d="M259.379 196.695L259.456 196.84V196.843L259.403 196.998C259.097 197.16 259.571 196.987 257.72 197.285C253.559 197.963 246.303 199.899 242.423 201.149C238.832 202.316 240.165 202.154 239.229 202.205L238.915 201.926V201.924L238.892 201.504C239.224 201.129 239.139 201.204 239.27 201.144C242.837 199.59 254.676 196.829 259.223 196.64L259.379 196.695Z" fill="#212121"/>
<path fill-rule="evenodd" clip-rule="evenodd" d="M332.084 183.557C332.199 183.747 332.18 183.546 332.197 186.303C332.21 188.346 332.392 219.447 331.846 221.427C331.833 221.504 331.802 221.576 331.756 221.638C331.709 221.701 331.649 221.751 331.579 221.786C331.51 221.821 331.433 221.838 331.355 221.838C331.278 221.837 331.201 221.818 331.132 221.783C329.679 220.835 328.174 219.969 326.624 219.19C314.324 212.896 292.829 207.537 279.88 206.359C279.763 206.349 279.651 206.3 279.563 206.221C279.476 206.142 279.415 206.036 279.391 205.921C279.345 205.522 278.215 174.421 278.533 171.691C278.531 171.523 278.588 171.359 278.694 171.229C278.801 171.099 278.949 171.011 279.114 170.979C283.581 169.369 330.069 180.389 332.084 183.557ZM331.732 183.831C331.733 183.842 331.734 183.852 331.736 183.863H331.74C331.737 183.837 331.728 183.813 331.713 183.792L331.716 183.795C330.439 181.81 309.33 176.949 307.029 176.427C303.475 175.623 283.117 171.155 279.567 171.939C279.602 173.741 279.184 168.689 280.461 205.308C292.006 206.413 310.704 210.908 323.148 216.441C329.37 219.224 331.02 220.767 331.038 220.566C331.535 214.854 331.69 183.831 331.732 183.831ZM332.063 184.008H332.061H332.065C332.032 183.955 331.831 183.61 332.063 184.008Z" fill="black"/>
<path fill-rule="evenodd" clip-rule="evenodd" d="M326.367 187.031C326.379 187.639 326.038 210.682 325.918 210.62C323.227 209.237 312.096 205.977 310.546 205.244C310.289 205.122 310.382 184.146 310.597 183.194C310.875 181.962 326.366 186.964 326.367 187.031Z" fill="#212121"/>
<path fill-rule="evenodd" clip-rule="evenodd" d="M311.196 182.538C313.955 182.58 325.415 186.371 326.437 186.822C326.48 186.838 326.518 186.866 326.545 186.904C326.571 186.941 326.586 186.986 326.586 187.032C326.544 187.032 326.407 187.034 326.589 187.032C326.622 188.27 326.639 209.502 326.431 210.711C326.418 210.784 326.39 210.853 326.348 210.914C326.306 210.975 326.251 211.026 326.188 211.064C326.114 211.107 326.031 211.133 325.946 211.139C325.663 211.144 325.87 211.089 324.034 210.387C320.203 208.936 313.353 206.901 310.886 205.977C310.614 205.907 310.36 205.784 310.138 205.614C309.949 205.373 309.888 205.409 309.857 200.49C309.841 197.795 309.872 184.889 310.129 183.17C310.212 182.65 310.676 182.532 311.196 182.538ZM311.04 183.466C310.925 185.286 310.876 202.125 311.043 204.818C311.06 205.064 321.612 208.172 325.455 209.833C325.494 208.813 326.136 187.534 326.143 187.181C324.106 186.495 312.929 183.234 311.039 183.466H311.04Z" fill="#212121"/>
<path fill-rule="evenodd" clip-rule="evenodd" d="M285.399 177.515C288.354 177.573 303.577 180.525 305.189 181.724C305.249 181.76 305.298 181.81 305.333 181.87C305.368 181.93 305.386 181.997 305.386 182.067C305.371 182.568 305.544 187.494 305.503 189.097C305.489 189.551 305.509 189.833 305.152 189.979C303.628 190.552 289.174 187.661 285.466 187.134C284.498 187.001 284.263 187.212 284.211 185.729C284.152 183.93 284.292 180.104 284.452 178.603C284.534 177.835 284.599 177.507 285.399 177.515ZM285.324 186.007C288.479 186.404 302.733 189.332 304.735 189.264C304.838 188.186 304.896 183.103 304.936 182.166C304.982 181.321 287.481 178.671 285.542 178.596C285.344 181.061 285.271 183.534 285.324 186.007Z" fill="#212121"/>
<path fill-rule="evenodd" clip-rule="evenodd" d="M284.938 191.372C287.894 191.43 303.117 194.383 304.728 195.582C304.788 195.617 304.838 195.667 304.872 195.727C304.907 195.787 304.925 195.855 304.926 195.924C304.91 196.425 305.083 201.351 305.042 202.954C305.028 203.409 305.048 203.69 304.691 203.834C303.168 204.407 288.713 201.517 285.005 200.99C284.039 200.857 283.803 201.068 283.75 199.585C283.691 197.786 283.832 193.959 283.991 192.459C284.074 191.692 284.139 191.365 284.938 191.372ZM284.862 199.866C288.017 200.264 302.271 203.192 304.273 203.124C304.376 202.046 304.434 196.963 304.474 196.026C304.52 195.18 287.019 192.531 285.08 192.456C284.882 194.921 284.809 197.394 284.862 199.866Z" fill="#212121"/>
<path fill-rule="evenodd" clip-rule="evenodd" d="M258.22 222.988C262.445 223.006 262.63 228.375 262.63 228.375C262.63 228.375 259.46 241.181 258.396 241.075C255.904 240.829 252.795 240.186 250.043 233.958C247.946 229.212 247.612 214.48 247.327 213.788C246.987 212.961 246.07 212.257 245.611 211.444C244.846 210.092 244.811 208.047 245.933 207.08C246.37 206.815 246.857 206.642 247.364 206.572C246.931 205.629 246.569 204.656 246.281 203.66C246.09 203.124 245.841 202.622 246.088 202.103C246.143 201.986 246.226 201.883 246.329 201.803C246.432 201.724 246.552 201.669 246.679 201.645C246.807 201.62 246.939 201.626 247.064 201.662C247.189 201.698 247.304 201.763 247.399 201.851C247.897 202.313 249.231 204.869 249.371 205.452C249.41 205.618 251.193 207.28 251.498 208.481C251.568 208.759 252.932 210.857 253.183 211.247C254.752 213.694 255.596 216.614 256.697 219.291C257.067 220.187 257.752 222.447 258.219 222.987C258.921 223.819 259.567 224.696 260.155 225.613" fill="white"/>
<path fill-rule="evenodd" clip-rule="evenodd" d="M247.566 201.434C248.121 201.822 249.105 203.799 249.39 204.405C249.933 205.571 249.586 205.108 249.98 205.556C251.957 207.794 251.63 207.977 252.01 208.659C253.158 210.707 253.917 211.386 255.123 214.356C255.479 215.234 257.162 219.788 257.178 219.831C257.45 220.633 258.002 222.32 258.356 222.806C260.522 222.854 261.771 224.226 262.488 226.27C262.705 226.944 262.843 227.641 262.899 228.347C262.913 228.669 261.079 235.775 259.985 238.918C259.764 239.582 259.49 240.227 259.165 240.848C258.759 241.529 258.546 241.481 258.06 241.436C257.306 241.367 256.562 241.214 255.842 240.977C254.552 240.519 253.399 239.741 252.49 238.716C250.963 236.947 249.817 234.883 249.122 232.652C247.816 228.09 247.378 220.152 247.053 215.532C246.932 213.87 246.935 213.945 246.725 213.616C246.393 213.098 245.795 212.536 245.378 211.923C244.407 210.473 244.263 208.121 245.504 206.871C245.844 206.556 246.266 206.343 246.722 206.257C246.464 205.629 246.237 204.989 246.043 204.339C245.813 203.606 245.762 203.534 245.665 203.223C245.166 201.579 246.573 200.761 247.566 201.434ZM258.308 240.711L258.303 240.715L258.307 240.712L258.308 240.711ZM246.805 202.063C246.649 202.066 246.521 202.143 246.448 202.368C246.41 202.728 246.482 203.091 246.655 203.409C246.954 204.416 247.321 205.402 247.754 206.359C247.801 206.446 247.818 206.547 247.802 206.645C247.785 206.744 247.736 206.834 247.662 206.901C247.487 207.035 247.494 206.985 247.067 207.086C246.772 207.143 246.49 207.252 246.234 207.41C245.436 208.05 245.205 209.825 246.013 211.238C246.205 211.545 246.425 211.834 246.67 212.101C247.877 213.492 247.814 213.566 247.93 215.123C248.205 218.848 248.482 224.217 249.212 228.831C249.712 231.96 250.157 233.665 251.72 236.265C252.686 237.804 253.675 238.995 255.271 239.85C256.233 240.318 257.275 240.599 258.342 240.679C258.734 240.048 259.05 239.372 259.283 238.667C260.404 235.531 261.366 232.062 262.223 228.859C262.383 228.245 262.368 228.43 262.333 228.019C262.088 226.019 261.336 224.025 259.422 223.365C259.178 223.286 258.927 223.231 258.672 223.2C259.255 223.943 259.799 224.715 260.301 225.514L260.25 225.766L259.998 225.712C257.229 221.626 258.437 224.559 256.561 219.668C256.418 219.304 256.209 218.833 255.983 218.249C255.425 216.847 254.988 215.635 254.396 214.288C253.168 211.631 253.072 211.817 251.64 209.516C251.432 209.214 251.257 208.891 251.118 208.552C250.841 207.594 249.531 206.307 249.122 205.814C248.896 205.536 249.101 205.654 248.408 204.296C248.094 203.676 247.745 203.075 247.364 202.495C247.209 202.263 247.086 202.058 246.805 202.063Z" fill="#212121"/>
<path fill-rule="evenodd" clip-rule="evenodd" d="M245.373 207.703C245.181 207.62 244.969 207.596 244.764 207.634C244.559 207.672 244.369 207.771 244.221 207.918C243.814 208.301 243.912 208.959 244.084 209.446C244.448 210.282 244.981 211.033 245.649 211.654C245.98 211.901 246.817 211.76 246.928 211.267C247.054 210.706 246.819 210.251 246.573 209.738C246.273 209.109 245.905 208.16 245.373 207.703Z" fill="white"/>
<path fill-rule="evenodd" clip-rule="evenodd" d="M244.892 207.39C245.112 207.386 245.327 207.452 245.507 207.579C245.83 207.844 246.105 208.162 246.321 208.52C246.546 208.879 247.045 209.776 247.152 209.998C247.329 210.336 247.414 210.714 247.398 211.095C247.4 211.305 247.339 211.511 247.224 211.686C247.108 211.861 246.944 211.999 246.751 212.081C246.56 212.172 246.352 212.222 246.141 212.226C245.93 212.231 245.721 212.191 245.526 212.108C245.038 211.749 244.626 211.296 244.316 210.776C243.869 210.091 243.479 209.354 243.581 208.543C243.611 208.22 243.764 207.921 244.008 207.707C244.251 207.492 244.567 207.379 244.892 207.39ZM244.617 207.967C244.534 208.015 244.463 208.081 244.409 208.159C244.355 208.238 244.319 208.328 244.304 208.422C244.287 208.727 244.345 209.032 244.472 209.31C244.83 210.045 245.315 210.711 245.905 211.278C246.001 211.316 246.106 211.328 246.208 211.312C246.311 211.295 246.407 211.251 246.486 211.184C246.558 210.896 246.524 210.591 246.39 210.325C246.374 210.283 245.819 208.836 245.802 208.794C245.676 208.45 245.493 208.13 245.26 207.847L245.255 207.844L245.264 207.851L245.259 207.848L245.267 207.853L245.261 207.85L245.267 207.854L245.26 207.851C245.151 207.825 245.037 207.822 244.926 207.842C244.815 207.862 244.71 207.905 244.617 207.967Z" fill="#212121"/>
<path fill-rule="evenodd" clip-rule="evenodd" d="M247.16 206.641C246.968 206.557 246.756 206.533 246.551 206.571C246.346 206.61 246.157 206.709 246.008 206.856C245.601 207.238 245.7 207.896 245.871 208.384C246.235 209.219 246.768 209.971 247.436 210.591C247.767 210.838 248.605 210.697 248.715 210.204C248.841 209.644 248.606 209.188 248.361 208.676C248.06 208.047 247.692 207.098 247.16 206.641Z" fill="white"/>
<path fill-rule="evenodd" clip-rule="evenodd" d="M246.679 206.328C246.899 206.323 247.115 206.389 247.294 206.516C247.617 206.782 247.892 207.099 248.108 207.457C248.334 207.816 248.832 208.713 248.939 208.935C249.117 209.273 249.202 209.651 249.187 210.033C249.188 210.243 249.128 210.448 249.012 210.623C248.897 210.799 248.732 210.936 248.539 211.018C248.349 211.109 248.141 211.159 247.93 211.164C247.719 211.168 247.509 211.128 247.314 211.045C246.826 210.687 246.415 210.234 246.104 209.713C245.658 209.028 245.267 208.292 245.369 207.48C245.4 207.158 245.552 206.859 245.796 206.644C246.039 206.43 246.355 206.317 246.679 206.328ZM246.404 206.905C246.321 206.953 246.25 207.018 246.196 207.097C246.142 207.175 246.106 207.265 246.091 207.359C246.074 207.665 246.132 207.97 246.259 208.248C246.617 208.983 247.102 209.649 247.692 210.215C247.788 210.254 247.893 210.265 247.995 210.249C248.098 210.232 248.194 210.189 248.273 210.122C248.345 209.833 248.311 209.528 248.177 209.262C248.161 209.22 247.605 207.774 247.589 207.731C247.464 207.387 247.282 207.067 247.05 206.783L247.045 206.78L247.054 206.787L247.049 206.784L247.057 206.789L247.051 206.786L247.057 206.79L247.051 206.787C246.941 206.761 246.826 206.758 246.715 206.778C246.604 206.798 246.498 206.842 246.404 206.905Z" fill="#212121"/>
<path fill-rule="evenodd" clip-rule="evenodd" d="M251.324 208.602C251.392 208.405 251.4 208.192 251.346 207.991C251.293 207.789 251.179 207.608 251.022 207.472C250.609 207.094 249.959 207.243 249.486 207.451C248.68 207.878 247.97 208.466 247.401 209.179C247.179 209.526 247.384 210.35 247.885 210.422C248.454 210.506 248.891 210.237 249.383 209.954C249.988 209.605 250.908 209.167 251.324 208.602Z" fill="white"/>
<path fill-rule="evenodd" clip-rule="evenodd" d="M250.287 206.881C250.495 206.874 250.701 206.918 250.887 207.01C251.073 207.102 251.233 207.238 251.354 207.407C251.495 207.595 251.579 207.819 251.598 208.052C251.616 208.286 251.568 208.52 251.458 208.728C251.184 209.113 250.842 209.445 250.448 209.706C249.943 210.071 249.415 210.403 248.868 210.703C248.598 210.824 248.305 210.884 248.009 210.877C247.801 210.88 247.596 210.821 247.422 210.709C247.247 210.596 247.109 210.434 247.025 210.244C246.927 210.056 246.871 209.849 246.862 209.638C246.853 209.426 246.89 209.215 246.971 209.02C247.229 208.505 248.126 207.794 248.64 207.451C249.117 207.096 249.692 206.897 250.287 206.881ZM250.455 207.591C249.962 207.651 249.496 207.853 249.115 208.172C248.614 208.524 248.165 208.944 247.782 209.422C247.732 209.508 247.791 209.911 247.944 209.981C248.25 210.012 248.557 209.946 248.823 209.793C250.047 209.205 250.744 208.947 251.17 208.501L251.173 208.496C251.187 208.39 251.179 208.282 251.149 208.18C251.117 208.018 251.032 207.871 250.906 207.764C250.78 207.657 250.622 207.596 250.457 207.59L250.455 207.591Z" fill="#212121"/>
<path fill-rule="evenodd" clip-rule="evenodd" d="M262.14 229.351C262.14 229.351 262.661 225.327 258.36 222.938C257.345 222.374 268.117 216.614 280.28 216.188C296.725 215.612 301.121 231.152 301.028 235.117C300.986 238.351 300.191 241.531 298.707 244.404C297.223 247.277 295.089 249.765 292.476 251.671L290.451 250.345L260.906 254.562C260.906 254.562 258.444 247.152 256.382 245.871C255.825 245.524 258.613 241.302 258.613 241.302C260.415 231.297 262.14 229.351 262.14 229.351Z" fill="white"/>
<path fill-rule="evenodd" clip-rule="evenodd" d="M261.75 229.599C262.006 229.19 261.958 229.344 261.969 229.163C261.987 228.269 261.817 227.382 261.469 226.558C261.122 225.734 260.606 224.993 259.953 224.382C258.842 223.332 258.201 223.238 258.081 222.979C257.463 221.616 267.993 216.921 277.842 215.965C281.23 215.644 284.179 215.671 287.48 216.664C294.885 218.917 299.727 225.646 301.184 232.587C301.434 233.66 301.522 234.764 301.446 235.863C301.273 239.46 300.193 242.954 298.306 246.021C296.561 248.835 294.232 251.082 292.747 252.034C292.673 252.089 292.583 252.121 292.49 252.124C292.397 252.127 292.306 252.101 292.228 252.05L290.345 250.816C290.39 250.816 261.036 254.999 260.766 254.913C260.544 254.803 260.592 254.776 260.276 253.886C259.677 252.153 257.775 247.181 256.256 246.163C256.159 246.112 256.083 246.029 256.04 245.928C255.895 245.546 256.202 244.878 256.401 244.482C256.986 243.351 257.636 242.256 258.349 241.201C258.398 241.198 259.746 232.978 261.75 229.599ZM276.259 216.889C271.841 217.442 267.512 218.559 263.379 220.214C262.318 220.649 259.352 221.925 258.579 222.785C260.718 224.051 261.872 225.777 262.235 227.728C262.342 228.268 262.37 228.821 262.319 229.37C261.936 229.962 261.623 230.596 261.385 231.26C259.789 235.315 258.971 241.235 258.842 241.451C258.291 242.278 256.872 244.584 256.622 245.619C256.613 245.709 256.614 245.565 257.149 246.108C258.707 247.778 260.412 251.999 261.155 254.143C261.514 254.092 289.799 249.911 290.579 249.911C290.62 249.923 290.659 249.941 290.695 249.965C292.603 251.212 292.444 251.141 292.486 251.11C293.379 250.45 294.208 249.709 294.964 248.896C297.783 245.918 299.641 242.161 300.298 238.114C300.718 235.268 300.73 233.781 299.77 230.725C299.411 229.594 298.967 228.491 298.441 227.427C293.69 218.144 286.28 215.678 276.259 216.889Z" fill="#212121"/>
<path fill-rule="evenodd" clip-rule="evenodd" d="M290.552 250.258C290.552 250.258 275.459 240.804 275.342 240.827C257.68 244.364 251.804 248.205 250.932 248.337C249.502 248.554 247.95 248.554 246.444 248.782C245.717 248.892 241.835 249.058 241.866 249.935C241.956 252.381 246.351 250.252 246.804 252.302C246.937 252.72 247.193 253.089 247.538 253.36C247.884 253.631 248.302 253.792 248.74 253.822C250.733 253.914 251.788 252.979 252.319 252.707C252.524 252.604 256.199 253.693 260.19 254.506C284.694 259.494 290.406 250.21 290.552 250.258Z" fill="white"/>
<path fill-rule="evenodd" clip-rule="evenodd" d="M290.647 250.409C290.615 250.457 290.218 250.91 289.993 251.133C289.069 252.038 288.021 252.807 286.882 253.418C273.491 260.348 253.01 252.788 252.361 253.2C251.385 253.898 250.217 254.275 249.017 254.279C248.589 254.298 248.163 254.212 247.777 254.027C247.461 253.888 247.177 253.687 246.941 253.435C246.706 253.183 246.524 252.886 246.407 252.562C246.384 252.399 246.322 252.244 246.227 252.11C245.464 251.285 242.733 252.287 241.72 250.921C241.524 250.636 241.418 250.298 241.416 249.951C241.402 249.241 242.237 248.965 242.917 248.795C244.024 248.574 245.145 248.426 246.272 248.351C248.01 248.107 248.629 248.141 250.139 247.988C250.884 247.91 250.769 247.9 250.87 247.896C253.1 247.022 258.01 244.097 273.252 240.882C275.59 240.411 275.342 240.448 275.523 240.521C279.39 242.873 287.787 248.277 290.651 250.102C290.581 250.213 290.472 250.387 290.651 250.104L290.676 250.123C290.696 250.142 290.712 250.166 290.721 250.192C290.731 250.218 290.734 250.246 290.731 250.273C290.728 250.301 290.719 250.327 290.705 250.351C290.69 250.375 290.67 250.395 290.647 250.409ZM252.427 252.253C254.003 252.364 275.72 259.526 287.371 252.62C288.452 252.001 289.428 251.216 290.264 250.293C290.04 250.156 276.734 242.011 275.295 241.194C269.861 242.348 263.76 243.84 258.505 245.716C256.167 246.537 253.874 247.483 251.637 248.55C251.102 248.79 251.059 248.792 249.81 248.917C247.98 249.065 247.815 249.06 246.857 249.177C245.666 249.345 243.652 249.429 242.601 249.833C242.504 249.869 242.411 249.918 242.326 249.977C242.326 250.083 242.351 250.188 242.398 250.283C242.445 250.378 242.514 250.461 242.598 250.526C243.267 251.022 245.219 250.591 246.388 251.121C247.195 251.533 247.193 252.104 247.321 252.415C247.454 252.664 247.643 252.879 247.874 253.043C248.104 253.207 248.37 253.315 248.649 253.358C249.668 253.448 250.688 253.197 251.549 252.644C252.065 252.337 252.154 252.235 252.426 252.253H252.427ZM290.557 250.437H290.56H290.564H290.557Z" fill="#212121"/>
<path fill-rule="evenodd" clip-rule="evenodd" d="M284.268 227.999L284.243 228.254C282.395 230.127 280.024 233.405 278.672 235.397C278.339 235.885 275.653 239.894 275.615 240.56V240.556L275.613 240.568V240.573V240.579V240.584V240.588V240.603L275.464 240.813C275.195 240.625 275.267 240.684 275.244 240.623C275.171 238.877 279.748 230.991 284.014 227.976L284.268 227.999Z" fill="#212121"/>
<path fill-rule="evenodd" clip-rule="evenodd" d="M307.113 236.768C286.819 238.791 244.413 238.115 224.277 232.542L222.058 279.189C230.839 286.739 289.853 290.14 305.176 285.692C305.347 285.641 307.58 236.722 307.113 236.768Z" fill="white" fill-opacity="0.38"/>
<path fill-rule="evenodd" clip-rule="evenodd" d="M307.181 236.558C307.374 236.642 307.37 236.787 307.391 237.303C307.52 243.244 306.06 278.952 305.669 285.165C305.622 285.737 305.667 285.921 305.344 286.105C296.286 288.707 276.168 288.352 266.771 287.814C256.947 287.41 232.117 285.326 223.435 280.75C222.788 280.429 222.185 280.024 221.642 279.546C221.55 279.44 221.502 279.302 221.509 279.162C223.902 229.193 223.71 232.443 223.878 232.206C223.952 232.119 224.052 232.058 224.164 232.033C224.912 231.928 233.597 235.421 262.356 236.934C293.026 238.422 306.589 236.436 307.181 236.558ZM222.716 279.012C228.702 283.632 253.218 285.834 260.785 286.372C271.269 287.118 294.583 288.074 304.768 285.342C304.768 285.3 307.166 242.512 306.936 237.009C306.692 237.028 304.235 237.294 300.592 237.535C280.721 238.845 243.799 238.321 224.768 233.214C222.641 279.549 222.529 278.875 222.716 279.012Z" fill="#212121"/>
<path fill-rule="evenodd" clip-rule="evenodd" d="M258.61 247.277C253.948 247.225 245.697 246.829 238.669 245.233L236.843 269.589C240.55 271.46 250.756 272.781 257.1 271.744C257.1 271.744 258.718 247.277 258.61 247.277Z" fill="white" fill-opacity="0.38"/>
<path fill-rule="evenodd" clip-rule="evenodd" d="M243.299 245.669C247.114 246.275 250.958 246.685 254.815 246.896C258.707 247.112 258.582 247.001 258.736 247.098C258.804 247.153 258.751 247.111 258.792 247.154C258.999 247.505 257.672 270.775 257.629 271.502C257.608 271.849 257.622 272.074 257.266 272.229C254.41 272.943 245.93 272.835 239.678 271.177C238.587 270.909 237.527 270.525 236.518 270.031C236.421 269.96 236.35 269.859 236.317 269.744C236.265 269.601 237.479 253.949 238.149 245.688C238.199 245.092 238.183 245.125 238.272 244.968C238.637 244.517 238.551 244.877 243.299 245.669ZM238.872 249.274C237.528 268.138 237.387 269.241 237.432 269.261C241.193 270.955 250.709 272.146 256.617 271.295C257.247 262.607 258.323 249.1 258.389 247.498C257.895 247.519 255.171 247.459 254.647 247.444C249.711 247.302 243.945 246.821 239.149 245.82C239.093 245.809 239.137 245.429 238.872 249.274Z" fill="#212121"/>
<path fill-rule="evenodd" clip-rule="evenodd" d="M292.166 248.724C285.672 249.598 277.815 249.189 270.742 247.804L269.645 272.203C273.406 273.962 285.078 274.451 291.388 273.225C291.388 273.225 292.273 248.71 292.166 248.724Z" fill="white" fill-opacity="0.38"/>
<path fill-rule="evenodd" clip-rule="evenodd" d="M277.408 248.376C281.071 248.807 284.763 248.95 288.448 248.804C292.066 248.643 292.181 248.356 292.354 248.613C292.485 248.862 292.183 261.843 292.177 262.13C291.907 274.095 291.932 273.334 291.774 273.556C291.698 273.642 291.596 273.701 291.484 273.724C291.526 273.724 290.262 273.963 289.202 274.083C284.204 274.691 276.626 274.556 271.742 273.45C270.91 273.284 270.1 273.016 269.332 272.652C269.27 272.61 269.218 272.555 269.178 272.491C269.138 272.427 269.112 272.355 269.101 272.281C269.077 272.161 270.212 248.11 270.268 247.696C270.293 247.587 270.354 247.489 270.442 247.42C270.932 247.107 270.81 247.587 277.408 248.376ZM270.222 271.854C274.603 273.588 285.649 273.705 290.898 272.796C291.192 265.656 291.892 251.625 291.952 248.98C285.248 249.922 277.918 249.555 271.204 248.378C270.636 263.028 270.177 271.834 270.222 271.854Z" fill="#212121"/>
<path fill-rule="evenodd" clip-rule="evenodd" d="M236.283 274.151C240.408 276.183 249.473 277.107 254.556 276.755C256.579 276.616 256.041 276.525 256.425 276.622L256.512 276.761V276.764C256.453 277 256.565 277 255.328 277.177C248.531 278.143 239.503 276.892 235.882 275.181C235.811 275.184 235.705 275.04 235.513 274.817L235.542 274.397V274.394L235.861 274.12L236.283 274.151Z" fill="#212121"/>
<path fill-rule="evenodd" clip-rule="evenodd" d="M269.878 277.161C274.265 278.973 285.706 279.245 291.08 278.132L291.245 278.162L291.342 278.295V278.298C291.297 278.546 291.378 278.527 290.416 278.738C283.509 280.254 273.228 279.666 269.6 278.238C269.415 278.165 269.506 278.234 269.156 277.878V277.458V277.456L269.456 277.162L269.878 277.161Z" fill="#212121"/>
<path fill-rule="evenodd" clip-rule="evenodd" d="M231.196 253.865L231.305 253.981V253.984L231.292 254.141L231.171 254.265C231.112 254.267 229.985 254.861 229.943 254.883C228.699 255.51 227.544 256.299 226.507 257.228C226.934 257.771 230.342 261.218 230.384 261.253L230.378 261.249H230.38L230.385 261.253L230.378 261.249L230.381 261.252L230.374 261.248H230.377L230.366 261.243H230.369L230.353 261.237L230.327 261.23L230.455 261.314L230.501 261.476V261.479C230.496 261.502 230.489 261.524 230.478 261.545C230.47 261.56 230.46 261.574 230.447 261.587L230.427 261.606C230.408 261.621 230.387 261.633 230.365 261.643L230.329 261.654C230.308 261.658 230.286 261.659 230.264 261.658C230.198 261.648 230.135 261.622 230.083 261.58C229.088 260.956 228.139 260.263 227.241 259.507C226.616 258.977 226.044 258.388 225.533 257.747C224.959 256.915 225.516 256.641 226.007 256.205C227.351 255.117 228.452 254.416 231.023 253.837L231.196 253.865ZM230.205 261.246C230.131 261.29 230.156 261.267 230.093 261.346C230.059 261.446 230.051 261.438 230.168 261.27C230.333 261.228 230.336 261.236 230.278 261.228L230.205 261.246Z" fill="#212121"/>
<path fill-rule="evenodd" clip-rule="evenodd" d="M299.08 257.456C301.358 258.385 302.603 259.282 304.073 261.147C304.135 261.229 304.176 261.324 304.193 261.424C304.21 261.525 304.204 261.628 304.173 261.726C303.769 262.986 298.849 265.296 298.545 265.296C298.486 265.29 298.431 265.262 298.392 265.217C298.374 265.197 298.361 265.173 298.353 265.147C298.346 265.125 298.342 265.102 298.341 265.078V265.075L298.412 264.923L298.553 264.86L298.526 264.862L298.509 264.866H298.512L298.501 264.87H298.504L298.496 264.872H298.5L298.492 264.875L298.497 264.872H298.5L298.493 264.875C298.703 264.758 300.591 263.306 301.594 262.602C301.98 262.32 302.569 261.912 302.98 261.539C302.695 261.179 302.359 260.794 302.218 260.649C301.192 259.612 300.07 258.675 298.866 257.852L298.766 257.71L298.779 257.552V257.55L298.905 257.454L299.08 257.456ZM298.704 264.919C298.801 265.123 298.78 265.092 298.766 265.003C298.719 264.919 298.741 264.945 298.671 264.886C298.59 264.855 298.614 264.86 298.565 264.857L298.704 264.919Z" fill="#212121"/>
<path fill-rule="evenodd" clip-rule="evenodd" d="M287.41 198.628C283.996 195.263 276.211 192.165 271.711 197.442C271.711 197.442 269.416 201.382 271.088 210.138C271.275 211.124 271.642 212.066 272.172 212.918C273.146 214.253 275.504 214.604 277.077 214.539C277.684 214.514 278.279 214.387 278.864 214.363C278.957 214.359 279.324 214.233 279.403 214.307C279.806 214.677 280.084 217.139 280.201 217.247C280.65 217.661 281.197 217.954 281.792 218.098C282.386 218.242 283.007 218.232 283.596 218.069C284.417 217.896 285.944 217.387 286.257 216.688C286.397 216.377 285.893 213.328 286.019 213.184C288.206 210.699 287.576 208.426 287.937 208.035C287.982 207.985 288.903 207.856 289.142 207.748C290.07 207.331 290.711 205.76 290.474 204.786C290.415 204.496 290.278 204.228 290.078 204.01C289.879 203.793 289.624 203.633 289.34 203.549C288.945 203.435 287.711 204.225 287.711 204.225L287.41 198.628Z" fill="white"/>
<path fill-rule="evenodd" clip-rule="evenodd" d="M289.299 203.251C289.757 203.332 290.165 203.59 290.433 203.97C291.094 204.87 290.872 206.09 290.342 207.032C289.635 208.175 289.082 208.138 288.207 208.338C288.159 209.089 288.057 209.836 287.902 210.573C287.624 211.601 287.118 212.554 286.423 213.361C286.405 213.585 286.685 215.584 286.714 216.268C286.748 216.469 286.727 216.676 286.654 216.866C286.58 217.056 286.458 217.224 286.298 217.351C285.959 217.638 285.576 217.87 285.164 218.037C283.258 218.821 281.571 218.937 280.019 217.686C279.759 217.461 279.745 217.444 279.602 216.674C279.173 214.4 279.161 214.931 279.154 214.765C278.875 214.817 278.593 214.85 278.31 214.865C277.678 214.967 277.038 215.01 276.399 214.994C275.307 214.978 274.229 214.744 273.229 214.306C272.788 214.112 272.389 213.832 272.058 213.482C271.726 213.132 271.467 212.719 271.297 212.268C270.693 210.905 270.541 209.736 270.325 208.232C269.999 205.968 269.961 203.671 270.212 201.397C270.358 200.038 270.709 198.709 271.253 197.455C271.325 197.28 271.434 197.122 271.573 196.993C272.005 196.519 272.489 196.096 273.015 195.73C277.289 192.724 284.058 194.89 287.537 198.497C287.603 198.574 287.591 198.62 287.6 198.761C287.965 204.192 287.886 203.804 288.022 203.727C288.406 203.472 288.843 203.309 289.299 203.251ZM275.459 195.337C274.234 195.741 273.135 196.456 272.269 197.413C272.017 197.695 272.047 197.654 271.989 197.78C271.301 199.189 270.954 201.681 270.92 203.394C270.834 205.569 271.219 210.609 272.427 212.49C272.621 212.802 272.885 213.065 273.198 213.257C274.171 213.887 275.679 214.11 276.845 214.091C277.357 214.07 277.868 214.021 278.375 213.946C278.555 213.937 278.734 213.918 278.912 213.891C279.365 213.787 279.597 213.779 279.861 214.157C280.232 214.803 280.383 216.05 280.584 216.985C281.039 217.393 281.611 217.648 282.218 217.714C283.575 217.871 285.481 217.059 285.812 216.59C285.854 216.532 285.846 216.545 285.849 216.472C285.802 215.351 285.621 214.355 285.581 213.392C285.59 212.935 285.641 213.02 285.959 212.607C286.36 212.113 286.686 211.564 286.929 210.976C287.238 210.122 287.414 209.226 287.453 208.319C287.557 207.717 287.757 207.682 288.072 207.618C288.975 207.446 288.999 207.481 289.34 207.201C289.621 206.925 289.843 206.593 289.992 206.228C290.14 205.862 290.212 205.47 290.204 205.076C290.181 204.716 290.026 204.376 289.77 204.122C289.726 204.08 289.678 204.041 289.627 204.006C289.514 203.927 289.39 203.867 289.258 203.825C288.812 203.93 288.388 204.11 288.002 204.357C287.802 204.475 287.819 204.475 287.722 204.486C287.662 204.488 287.603 204.469 287.555 204.432C287.507 204.395 287.474 204.342 287.461 204.283C287.454 204.215 287.481 204.84 287.235 198.781C287.232 198.697 287.243 198.721 287.201 198.681C284.242 195.962 279.315 194.073 275.459 195.337Z" fill="#212121"/>
<path fill-rule="evenodd" clip-rule="evenodd" d="M271.239 199.326C271.352 199.077 270.662 199.381 270.42 199.25C269.932 198.984 269.418 198.616 269.125 197.321C268.878 196.233 269.899 195.155 269.862 195.122C268.501 193.871 268.425 192.047 269.815 190.537C270.586 189.701 271.579 190.029 272.45 189.991C272.583 189.986 272.818 189.115 272.939 188.957C273.452 188.268 274.212 187.804 275.06 187.662C275.402 187.615 275.751 187.644 276.081 187.747C276.411 187.85 276.715 188.025 276.97 188.258C277.254 188.475 277.864 188.848 277.864 188.848C278.197 188.47 278.571 188.13 278.981 187.836C279.783 187.439 280.674 187.252 281.568 187.294C283.038 187.305 284.182 189.019 284.491 189.006C284.575 189.003 286.898 187.613 288.975 188.722C290.128 189.339 291.196 190.1 291.585 191.452C291.823 192.435 291.855 193.457 291.679 194.452C291.679 194.452 294.923 194.608 294.887 198.373C294.87 200.179 293.165 201.134 293.165 201.149C293.19 201.746 294.092 202.226 293.589 203.207C292.939 204.476 291.867 204.001 291.657 204.35C291.569 204.493 292.275 205.828 290.549 206.282C290.451 206.307 291.095 203.79 289.277 203.218C287.782 202.749 285.986 201.807 285.543 200.308C285.367 199.712 285.561 198.376 284.871 198.068C284.606 197.949 284.218 198.626 283.979 198.684C281.834 199.206 281.081 198.885 279.206 197.821C278.823 197.604 278.525 196.988 278.105 196.902C277.341 196.744 276.428 198.351 275.61 198.502C274.917 198.631 273.42 197.84 273.172 197.977C272.779 198.194 272.749 198.901 272.35 199.121C271.994 199.318 270.975 198.978 270.991 198.985" fill="#212121"/>
<path fill-rule="evenodd" clip-rule="evenodd" d="M287.245 188.028C288.062 188.034 288.859 188.278 289.539 188.73C290.098 189.042 290.604 189.441 291.036 189.913C292.052 191.031 292.193 192.727 291.992 194.217C292.537 194.301 293.057 194.506 293.512 194.817C293.968 195.128 294.348 195.537 294.624 196.014C294.998 196.728 295.183 197.526 295.16 198.332C295.139 198.923 294.974 199.501 294.679 200.014C294.384 200.527 293.967 200.96 293.467 201.276C293.632 201.791 294.536 202.416 293.575 203.733C293.32 204.059 292.96 204.288 292.556 204.379C292.178 204.465 292.005 204.45 291.931 204.483C292.041 204.874 292.015 205.29 291.857 205.664C291.735 205.884 291.566 206.075 291.363 206.224C291.159 206.372 290.925 206.474 290.678 206.522C290.625 206.548 290.565 206.556 290.507 206.547C290.448 206.537 290.394 206.51 290.352 206.468C290.214 206.306 290.285 206.212 290.306 205.735C290.356 204.997 290.234 204.063 289.608 203.663C289.251 203.409 286.722 202.86 285.635 201.099C285.486 200.858 285.372 200.597 285.299 200.324C285.169 199.855 285.264 198.736 284.913 198.374C284.879 198.338 284.839 198.308 284.796 198.284C284.699 198.289 284.39 198.708 284.132 198.858C283.855 198.942 283.571 199.005 283.283 199.046C281.809 199.274 281.168 199.079 279.856 198.401C278.913 197.879 279.001 197.952 278.596 197.507C278.428 197.318 278.21 197.062 277.979 197.067C277.328 197.077 276.429 198.574 275.554 198.663C274.844 198.721 273.571 198.087 273.244 198.094C273.215 198.094 273.177 198.129 273.154 198.147C272.847 198.472 272.813 198.942 272.471 199.186C272.164 199.396 271.702 199.274 271.337 199.199C271.349 199.22 271.356 199.243 271.359 199.267C271.361 199.291 271.358 199.315 271.349 199.337C271.338 199.379 271.349 199.367 271.191 199.429C271.136 199.289 271.226 199.337 270.729 199.394C270.649 199.411 270.568 199.412 270.488 199.396C270.409 199.38 270.333 199.349 270.267 199.303C269.984 199.144 269.736 198.929 269.538 198.672C269.34 198.415 269.196 198.121 269.115 197.806C268.911 197.326 268.889 196.787 269.053 196.292C269.197 195.883 269.402 195.498 269.661 195.15C269.314 194.819 269.038 194.42 268.85 193.978C268.58 193.303 268.559 192.554 268.791 191.865C268.92 191.484 269.107 191.125 269.347 190.803C269.631 190.337 270.078 189.993 270.601 189.837C271.183 189.748 271.773 189.73 272.359 189.784C272.491 189.538 272.597 189.112 272.741 188.857C273.026 188.463 273.388 188.131 273.807 187.882C274.225 187.633 274.69 187.473 275.172 187.412C276.286 187.293 276.869 187.938 277.818 188.533C278.09 188.232 278.39 187.956 278.712 187.709C279.815 187.085 281.112 186.895 282.347 187.177C283.391 187.549 284.203 188.534 284.485 188.72C285.339 188.279 286.284 188.042 287.245 188.028ZM284.839 197.829C284.99 197.87 285.128 197.949 285.241 198.057C285.354 198.165 285.437 198.3 285.484 198.449C285.719 198.975 285.633 199.912 285.82 200.381C286.298 201.577 287.566 202.299 288.76 202.766C289.403 203.01 289.705 203.029 290.109 203.393C290.786 204.01 290.892 204.985 290.829 205.904C290.968 205.845 291.096 205.762 291.207 205.66C291.316 205.55 291.395 205.413 291.436 205.264C291.477 205.114 291.478 204.956 291.44 204.806C291.392 204.453 291.304 204.312 291.504 204.111C291.872 203.794 292.464 204.034 292.989 203.568C293.236 203.342 293.403 203.042 293.465 202.714C293.498 202.096 292.877 201.701 292.893 201.124C292.896 201.086 292.908 201.048 292.927 201.014C292.923 200.899 293.596 200.675 294.178 199.781C294.421 199.409 294.568 198.983 294.605 198.54C294.66 196.85 294.063 195.474 292.471 194.906C291.711 194.635 291.594 194.826 291.436 194.581C291.333 194.343 291.567 194.081 291.51 192.724C291.493 192.219 291.397 191.72 291.226 191.245C291.174 191.112 291.114 190.983 291.046 190.858C290.902 190.74 290.813 190.03 288.847 188.961C288.398 188.723 287.902 188.588 287.395 188.567C286.412 188.567 285.443 188.804 284.571 189.259C284.12 189.376 283.666 188.479 282.62 187.873C282.207 187.619 281.724 187.507 281.242 187.553C280.551 187.556 279.869 187.703 279.239 187.984C278.829 188.222 278.464 188.528 278.159 188.891C278.01 189.05 278.022 189.046 277.939 189.081C277.81 189.112 277.791 189.095 277.524 188.925C276.69 188.387 276.138 187.777 275.207 187.875C274.794 187.927 274.396 188.061 274.035 188.269C273.675 188.478 273.36 188.757 273.11 189.09C272.987 189.277 272.823 190.008 272.576 190.165C272.306 190.314 271.133 189.966 270.379 190.34C269.801 190.739 269.366 191.314 269.139 191.978C268.964 192.459 268.932 192.98 269.048 193.477C269.179 194.013 269.456 194.502 269.85 194.889C269.992 195.033 270.009 195.029 270.017 195.11C270.023 195.223 269.949 195.254 269.708 195.624C269.358 196.087 269.195 196.664 269.25 197.242C269.328 197.669 269.481 198.08 269.702 198.454C269.897 198.746 270.163 198.983 270.476 199.142C270.667 199.168 270.862 199.159 271.05 199.115L270.959 199.087L270.977 199.09L270.986 199.063L270.936 199.077C270.922 199.07 270.91 199.059 270.901 199.046C270.892 199.033 270.885 199.019 270.882 199.003C270.879 198.988 270.879 198.972 270.883 198.957C270.887 198.941 270.894 198.927 270.904 198.915C270.972 198.845 270.985 198.873 271.256 198.943C271.585 199.053 271.938 199.08 272.28 199.019C272.666 198.816 272.729 197.843 273.25 197.826C273.652 197.826 274.554 198.273 275.272 198.354C275.431 198.376 275.593 198.358 275.744 198.304C275.894 198.249 276.03 198.159 276.138 198.041C277.16 197.198 277.78 196.116 278.733 197.117C279.015 197.491 279.395 197.781 279.83 197.953C281.384 198.773 282.059 198.926 283.922 198.472C284.283 198.16 284.501 197.809 284.839 197.829ZM271.143 199.297L271.146 199.308V199.311L271.14 199.294L271.143 199.297Z" fill="#212121"/>
<path fill-rule="evenodd" clip-rule="evenodd" d="M275.766 211.548V211.552V211.543V211.547L275.763 211.537L275.766 211.541L275.761 211.532L275.764 211.536L275.759 211.526L275.762 211.53L275.758 211.521L275.761 211.525L275.756 211.516L275.759 211.52L275.753 211.512L275.758 211.515L275.752 211.508L275.756 211.511L275.75 211.504L275.753 211.507L275.747 211.5L275.751 211.503L275.746 211.497L275.75 211.5L275.744 211.494L275.748 211.497L275.743 211.492L275.747 211.495L275.741 211.49L275.747 211.492L275.74 211.488L275.745 211.491L275.74 211.487H275.745L275.74 211.484H275.745L275.74 211.481H275.745L275.74 211.478H275.745L275.741 211.475H275.748L275.744 211.473H275.752H275.746H275.756H275.752H275.761H275.757H275.768H275.766C275.939 211.45 276.107 211.395 276.261 211.311L276.269 211.306L276.261 211.309L276.272 211.301L276.262 211.305L276.267 211.299L276.254 211.306L276.261 211.301L276.246 211.31L276.251 211.305L276.241 211.312C276.302 211.243 276.353 211.167 276.393 211.084V211.076C276.48 210.899 276.533 210.706 276.55 210.509V210.504C276.583 210.298 276.555 210.087 276.469 209.898C276.383 209.708 276.243 209.548 276.067 209.438C275.857 209.312 275.653 209.334 275.724 209.321H275.716L275.727 209.318C275.532 209.35 275.346 209.42 275.178 209.525V209.521L275.17 209.529V209.526L275.162 209.533L275.165 209.529L275.157 209.537L275.16 209.532L275.157 209.536L275.153 209.539L275.156 209.534L275.15 209.541L275.153 209.536L275.148 209.541V209.536L275.145 209.541V209.535L275.143 209.541L275.145 209.535L275.141 209.541L275.144 209.534L275.141 209.54V209.533L275.139 209.539V209.531V209.537V209.529L275.136 209.535V209.527V209.533V209.525V209.531V209.522V209.528V209.519V209.526V209.517V209.522V209.514V209.519V209.511V209.517V209.508V209.514L275.133 209.505V209.512L275.13 209.503V209.509L275.127 209.501V209.507L275.123 209.499V209.505L275.12 209.497V209.502L275.115 209.494L275.118 209.5L275.06 209.752L274.808 209.694C274.78 209.657 274.761 209.616 274.751 209.572C274.741 209.527 274.74 209.481 274.749 209.437C274.817 209.215 274.952 209.019 275.137 208.878C275.311 208.718 275.529 208.614 275.764 208.58C275.998 208.546 276.237 208.583 276.45 208.687C277.739 209.246 277.74 211.216 276.729 211.837C276.549 211.929 276.35 211.978 276.149 211.981C275.947 211.985 275.746 211.942 275.564 211.856C275.51 211.829 275.465 211.787 275.435 211.735C275.405 211.682 275.391 211.622 275.396 211.562L275.578 211.384L275.756 211.569V211.574V211.565V211.57V211.555V211.56V211.55V211.555L275.766 211.548Z" fill="#212121"/>
<path fill-rule="evenodd" clip-rule="evenodd" d="M267.806 200.007C267.881 200.046 269.577 198.348 269.577 198.348C270.723 198.201 283.321 197.351 286.007 199.072C286.954 199.679 286.777 204.708 286.508 206.204C286.342 207.125 284.392 208.052 284.392 208.052C284.392 208.052 277.729 209.412 267.564 207.525C267.272 207.47 267.806 200.007 267.806 200.007Z" fill="white"/>
<path fill-rule="evenodd" clip-rule="evenodd" d="M285.892 198.515C286.092 198.585 286.273 198.7 286.421 198.852C286.568 199.003 286.679 199.187 286.745 199.388C287.371 200.967 287.183 205.194 286.949 206.302C286.905 206.516 286.815 206.718 286.684 206.894C286.171 207.505 285.533 208 284.814 208.346C284.617 208.469 284.392 208.542 284.16 208.556C280.437 209.167 274.549 209.202 268.215 207.987C267.375 207.827 267.2 207.901 267.171 207.208C267.131 206.255 267.286 204.146 267.359 203.209C267.638 199.615 267.605 199.936 267.745 199.838C268.245 199.41 268.715 198.948 269.153 198.457C269.518 198.082 269.371 198.136 269.96 198.073C273.156 197.733 282.985 197.1 285.892 198.515ZM276.042 198.37C275.419 198.37 269.793 198.459 269.668 198.585C269.413 198.829 268.285 199.908 267.984 200.122C267.887 202.244 267.738 205.263 267.82 207.238C272.547 208.054 279.587 208.456 284.25 207.62C284.861 207.334 285.416 206.939 285.885 206.454C285.962 206.37 286.02 206.271 286.057 206.164C286.295 205.143 286.479 200.246 285.787 199.454L285.777 199.445C285.587 199.322 285.381 199.227 285.165 199.161C282.969 198.419 278.427 198.37 276.042 198.37ZM267.842 207.379L267.839 207.371V207.374V207.376V207.369L267.842 207.379ZM267.838 207.369L267.841 207.376V207.369L267.838 207.369Z" fill="#212121"/>
<path fill-rule="evenodd" clip-rule="evenodd" d="M267.807 200.007C267.807 200.007 266.591 206.996 267.564 207.525C270.709 209.228 284.273 209.027 284.47 207.87C284.811 205.864 284.957 200.669 284.213 200.772C282.04 201.067 269.84 200.94 267.807 200.007Z" fill="white"/>
<path fill-rule="evenodd" clip-rule="evenodd" d="M267.628 199.976C267.633 199.949 267.644 199.924 267.661 199.902C267.677 199.88 267.698 199.861 267.722 199.848C267.746 199.836 267.773 199.828 267.801 199.827C267.828 199.826 267.855 199.831 267.88 199.842C269.765 200.601 278.687 200.524 280.736 200.489C281.916 200.505 283.097 200.451 284.271 200.327C284.799 200.367 284.947 200.946 285.047 201.429C285.271 203.529 285.238 205.648 284.95 207.74C284.952 207.878 284.918 208.014 284.852 208.134C284.786 208.255 284.689 208.357 284.572 208.429C283.007 209.473 272.388 209.546 268.321 208.213C267.925 208.103 267.552 207.92 267.222 207.674C266.347 206.67 267.394 201.398 267.627 199.976C267.671 199.984 267.736 199.995 267.628 199.976ZM278.52 208.317C279.559 208.294 283.118 208.169 284.041 207.692C284.18 206.675 284.262 205.652 284.287 204.626C284.338 203.571 284.291 202.513 284.147 201.467C284.131 201.386 284.11 201.307 284.084 201.229C281.717 201.465 276.443 201.255 273.787 201.073C272.54 200.985 269.128 200.714 267.954 200.262C267.744 201.748 267.389 204.798 267.515 206.277C267.511 206.601 267.581 206.922 267.719 207.215V207.218H267.722L267.725 207.221C269.774 208.275 276.057 208.368 278.52 208.317ZM267.735 207.233L267.731 207.228H267.733L267.729 207.224H267.732L267.727 207.22H267.729L267.723 207.215H267.726L267.721 207.212L267.725 207.216L267.722 207.212L267.728 207.218L267.724 207.213L267.729 207.219L267.724 207.214L267.735 207.233ZM267.726 207.225H267.731L267.726 207.223V207.225Z" fill="#212121"/>
<path fill-rule="evenodd" clip-rule="evenodd" d="M284.816 202.35C285.337 202.61 294.198 197.266 294.667 196.911C295.265 196.46 295.312 199.247 294.748 199.955C293.896 201.022 285.081 205.871 284.83 205.258C284.799 205.182 284.816 202.35 284.816 202.35Z" fill="white"/>
<path fill-rule="evenodd" clip-rule="evenodd" d="M284.887 202.18H284.891L284.881 202.177H284.885L284.877 202.175H284.881H284.873H284.877L284.87 202.173H284.874H284.868H284.871H284.866C284.995 202.14 285.121 202.095 285.241 202.038C286.498 201.492 293.701 197.009 294.093 196.759C294.463 196.522 294.372 196.573 294.449 196.522C294.531 196.469 294.625 196.436 294.722 196.425C294.819 196.414 294.917 196.426 295.009 196.459C295.101 196.492 295.184 196.546 295.252 196.617C295.319 196.688 295.369 196.773 295.399 196.866C295.723 197.514 295.648 199.409 295.182 200.123C294.384 201.325 286.648 205.453 285.053 205.6C284.933 205.617 284.81 205.594 284.705 205.534C284.48 205.382 284.531 205.24 284.569 204.042C284.571 203.977 284.627 202.507 284.638 202.347C284.637 202.317 284.645 202.287 284.659 202.26C284.674 202.234 284.695 202.211 284.721 202.195C284.746 202.179 284.776 202.169 284.806 202.167C284.836 202.165 284.866 202.171 284.894 202.184H284.898L284.887 202.18ZM285.115 205.214V205.205V205.21V205.201V205.205V205.193V205.214ZM287.772 201.321C286.882 201.797 285.955 202.201 285 202.53C285.016 202.997 285.059 204.276 285.096 204.989C285.354 204.91 285.607 204.813 285.852 204.699C286.989 204.19 294.008 200.422 294.453 199.568C294.609 199.151 294.689 198.711 294.691 198.266C294.702 197.995 294.686 197.724 294.644 197.456C292.66 198.704 289.687 200.359 287.772 201.321Z" fill="#212121"/>
<path fill-rule="evenodd" clip-rule="evenodd" d="M282.25 202.667V202.67L282.202 202.825L282.055 202.909C280.103 203.18 278.136 203.318 276.166 203.322C274.871 203.336 270.977 203.271 269.775 202.845L269.469 202.557L269.455 202.137V202.134L269.741 201.828C270.371 201.806 269.967 201.791 270.569 201.926C272.143 202.25 275.385 202.423 276.986 202.489C281.805 202.682 281.673 202.373 282.167 202.525L282.25 202.667Z" fill="#212121"/>
<path fill-rule="evenodd" clip-rule="evenodd" d="M266.786 222.665C263.144 227.555 260.576 233.159 259.25 239.11C258.805 241.09 259.034 240.694 258.714 240.948L258.557 240.745C259.026 233.909 261.833 227.442 266.505 222.43L266.762 222.407L266.786 222.665Z" fill="#212121"/>
<defs>
<linearGradient id="paint0_linear_777_39641" x1="308.187" y1="179.277" x2="181.203" y2="414.92" gradientUnits="userSpaceOnUse">
<stop stop-color="white"/>
<stop offset="1" stop-color="#BBC9D8"/>
</linearGradient>
<linearGradient id="paint1_linear_777_39641" x1="299.153" y1="196.026" x2="203.435" y2="373.685" gradientUnits="userSpaceOnUse">
<stop stop-color="white"/>
<stop offset="1" stop-color="#BBC9D8"/>
</linearGradient>
</defs>
</svg>
