<svg width="32" height="24" viewBox="0 0 32 24" fill="none" xmlns="http://www.w3.org/2000/svg">
<g clip-path="url(#clip0_569_1557)">
<mask id="mask0_569_1557" style="mask-type:luminance" maskUnits="userSpaceOnUse" x="0" y="0" width="32" height="24">
<path d="M0.00146484 0H31.9983V24H0.00146484V0Z" fill="white"/>
</mask>
<g mask="url(#mask0_569_1557)">
<path fill-rule="evenodd" clip-rule="evenodd" d="M-2 0H34V24H-2V0Z" fill="#199D00"/>
<path fill-rule="evenodd" clip-rule="evenodd" d="M7.07015 6.80131C7.03265 7.36381 6.9764 8.34818 7.45921 8.45131C8.03577 8.50756 7.71702 7.47631 7.92796 7.28881C7.96546 7.19506 8.03577 7.19506 8.04046 7.31225V8.18881C8.04046 8.47006 8.22796 8.55443 8.36859 8.61068C8.51859 8.60131 8.62171 8.61068 8.67796 8.75131L8.75296 10.2654C8.75296 10.2654 9.09984 10.3685 9.11859 9.41693C9.13265 8.85443 9.00609 8.39037 9.08109 8.28256C9.08109 8.17475 9.22171 8.17006 9.31546 8.22162C9.46546 8.32475 9.53109 8.456 9.76546 8.40912C10.1217 8.306 10.3373 8.13256 10.342 7.86068C10.335 7.5935 10.2794 7.32984 10.178 7.08256C10.1967 7.03568 10.1123 6.90912 10.1311 6.86225C10.192 6.96537 10.2905 6.956 10.3092 6.86225C10.2483 6.66537 10.1545 6.47318 10.0045 6.3935C9.87796 6.281 9.69046 6.29975 9.62952 6.53412C9.59202 6.80131 9.72327 7.11537 9.91546 7.37787C9.95765 7.47631 10.0139 7.64506 9.99046 7.79506C9.88734 7.856 9.78421 7.82787 9.69515 7.73881C9.69515 7.73881 9.4139 7.52787 9.4139 7.47631C9.4889 6.99818 9.42796 6.94193 9.38577 6.806C9.35765 6.62318 9.26859 6.56225 9.19827 6.44037C9.12796 6.36537 9.03421 6.36537 8.98734 6.44037C8.86077 6.656 8.92171 7.12006 9.01077 7.331C9.0764 7.52318 9.17484 7.64506 9.12796 7.64506C9.09046 7.75287 9.01077 7.72475 8.94984 7.59818C8.88124 7.33183 8.84814 7.05758 8.8514 6.78256C8.82796 6.56693 8.79984 6.10756 8.65452 5.98568C8.57015 5.87318 8.44359 5.92943 8.39671 6.03256C8.38433 6.24197 8.38904 6.45204 8.41077 6.66068C8.50452 7.00756 8.53734 7.31693 8.58421 7.6685C8.59827 8.14193 8.31234 7.87475 8.3264 7.63568C8.38789 7.33514 8.38309 7.02481 8.31234 6.72631C8.26546 6.60443 8.2139 6.57631 8.09671 6.59506C8.00765 6.59506 7.77796 6.8435 7.71234 7.26537C7.71234 7.26537 7.65609 7.481 7.63265 7.67318C7.59984 7.88881 7.45921 8.04818 7.35609 7.64506C7.27171 7.34975 7.21546 6.63256 7.07484 6.80131H7.07015Z" fill="white"/>
<path fill-rule="evenodd" clip-rule="evenodd" d="M8.64062 9.10332L7.14062 9.8252C7.15469 9.48301 7.84844 8.86895 8.32656 8.86426C8.63125 8.86895 8.55625 8.98144 8.63594 9.10332H8.64062Z" fill="white"/>
<path fill-rule="evenodd" clip-rule="evenodd" d="M8.37346 9.57251C7.58596 11.6116 10.225 11.8975 10.5203 9.65689C10.5485 9.56314 10.661 9.47407 10.6797 9.62407C10.6188 11.6538 8.63596 11.7897 8.29846 11.1522C8.21906 10.9328 8.17938 10.7011 8.18127 10.4678C8.13439 10.0694 7.92346 10.2241 7.89064 10.6178C7.85783 10.8381 7.86721 10.8991 7.86721 11.11C7.97033 12.7131 10.525 12.0241 10.9422 10.7022C11.1625 9.97095 10.9047 9.43189 11.0219 9.43189C11.275 9.70376 11.6313 9.46939 11.711 9.37564C11.7438 9.32876 11.8281 9.29595 11.8844 9.35689C12.0813 9.49751 12.4281 9.43189 12.5031 9.18345C12.5453 8.93501 12.5781 8.68189 12.5875 8.42407C12.4235 8.47095 12.3063 8.50376 12.2922 8.57407L12.2594 8.7897C12.2453 8.86001 12.1094 8.86001 12.1 8.77095C12.0391 8.4897 11.786 8.45689 11.6313 8.88814C11.5328 8.97251 11.3453 8.99126 11.3266 8.8647C11.35 8.57407 11.2328 8.53657 10.9985 8.67251L10.7735 6.97564C10.8672 6.97564 10.961 7.04595 11.05 6.93345C10.9563 6.62876 10.7453 6.01001 10.6281 5.96314C10.5766 5.89751 10.5297 5.9397 10.4547 5.95845C10.3328 5.99595 10.2203 6.09907 10.2578 6.30532C10.3985 7.18657 10.4922 7.85689 10.6375 8.74282C10.661 8.84126 10.5766 8.9772 10.4641 8.96314C10.2766 8.83657 10.2297 8.57876 9.90158 8.58814C9.66721 8.58814 9.40471 8.84595 9.37189 9.0897C9.32971 9.28657 9.31564 9.49751 9.37189 9.66626C9.53596 9.86314 9.73283 9.84439 9.90627 9.8022C10.0469 9.74126 10.1641 9.60064 10.2156 9.63345C10.2485 9.67564 10.2203 10.1444 9.54533 10.5006C9.13752 10.6881 8.80939 10.7256 8.63596 10.3928C8.52814 10.1819 8.64533 9.3897 8.37346 9.57251Z" fill="white"/>
<path fill-rule="evenodd" clip-rule="evenodd" d="M11.7343 7.49984C11.889 7.44359 12.639 6.58109 12.639 6.58109L12.5265 6.48734C12.4843 6.45453 12.489 6.41703 12.5265 6.38422C12.714 6.27172 12.653 6.03734 12.5593 5.92484C12.4956 5.89382 12.4256 5.87809 12.3548 5.8789C12.284 5.87971 12.2144 5.89705 12.1515 5.92953C12.0202 6.05609 11.9921 6.25766 12.0952 6.37953C12.1937 6.42641 12.2921 6.52953 12.2265 6.58578C11.9171 6.91391 11.078 7.48109 11.1765 7.49984C11.1952 7.52797 11.7155 7.52797 11.7296 7.49984H11.7343ZM7.18741 10.5467C6.90616 10.9967 6.88272 11.667 7.03741 11.8686C7.12178 11.9623 7.25772 12.0045 7.35616 11.9717C7.53428 11.8967 7.61397 11.5358 7.57178 11.4092C7.51085 11.3155 7.46397 11.3014 7.40303 11.3764C7.28116 11.6295 7.2296 11.4561 7.21553 11.3155C7.2021 11.0773 7.21467 10.8384 7.25303 10.603C7.28585 10.4061 7.25303 10.4623 7.18741 10.5467ZM19.239 9.82953C18.9671 9.23891 18.5874 8.65766 18.4702 8.43734C18.1049 7.85986 17.7171 7.29693 17.3077 6.74984C17.0171 6.40297 17.7858 6.89516 17.214 6.20141L16.7968 5.84984C16.703 5.78422 16.478 5.66234 16.4405 5.85922C16.4218 6.03734 16.4312 6.13109 16.4593 6.27641C16.4827 6.37016 16.6233 6.53422 16.6937 6.62797C17.6547 7.90084 18.4987 9.25792 19.2155 10.6827C19.3374 10.6217 19.3093 9.92797 19.239 9.82953Z" fill="white"/>
<path fill-rule="evenodd" clip-rule="evenodd" d="M18.0437 11.7897C17.9875 11.8506 18.175 12.1085 18.4187 12.1085C18.8219 12.0616 19.1781 11.8366 19.5062 11.2366C19.6396 11.037 19.7246 10.8091 19.7547 10.571C19.7944 9.43302 19.7031 8.2943 19.4828 7.1772C19.4687 7.08345 19.4828 6.97095 19.4922 6.94283C19.5203 6.91001 19.6094 6.94283 19.6562 6.86314C19.7265 6.79283 19.4687 6.20689 19.3281 5.98658C19.2812 5.88345 19.2578 5.81783 19.1734 5.99595C19.0716 6.1925 19.0231 6.41231 19.0328 6.63345C19.225 7.96939 19.2859 9.13658 19.4078 10.4725C19.4219 10.6038 19.4031 10.7913 19.314 10.8663C18.9603 11.2601 18.5275 11.5748 18.0437 11.7897ZM23.5047 11.785C23.214 11.9538 23.214 12.146 23.4484 12.1506C23.8515 12.1038 24.3297 12.071 24.6578 11.5741C24.7737 11.34 24.8407 11.0849 24.8547 10.8241C24.9137 9.70367 24.8397 8.58021 24.6344 7.4772C24.625 7.38345 24.5828 7.16314 24.5969 7.13501C24.625 7.06939 24.7562 7.1397 24.8031 7.0647C24.8687 6.99439 24.4609 6.46939 24.3156 6.24439C24.2687 6.14126 24.25 6.07564 24.1609 6.25376C24.0665 6.45212 24.037 6.67518 24.0765 6.89126C24.2922 8.34439 24.4515 9.43189 24.4844 10.7163C24.4656 10.8381 24.4609 10.9038 24.4047 11.0585C24.2781 11.2178 24.1375 11.4241 24.0062 11.5225C23.875 11.6163 23.5937 11.71 23.5047 11.785Z" fill="white"/>
<path fill-rule="evenodd" clip-rule="evenodd" d="M23.7203 10.4863C23.7203 10.1441 23.725 9.85352 23.7156 9.59571C23.7126 9.37737 23.6647 9.16197 23.575 8.9629C23.4906 8.77071 23.5422 8.61602 23.5 8.40977C23.4625 8.20352 23.4719 7.89415 23.4156 7.65509C23.3969 7.56134 23.35 7.25665 23.3641 7.22384C23.3875 7.15821 23.4766 7.22384 23.5234 7.14884C23.5891 7.07852 23.2891 6.30509 23.1391 6.08477C23.0875 5.98634 22.9844 6.01915 22.8672 6.17852C22.75 6.28634 22.7922 6.5254 22.8391 6.75509C23.125 8.26915 23.3453 9.64259 23.2984 11.0816C23.2797 11.2035 23.7203 10.716 23.7203 10.4863ZM21.5781 8.61134C21.3953 8.60196 21.0156 8.2504 20.9031 8.04884C20.8847 7.99957 20.8769 7.94699 20.8801 7.8945C20.8833 7.84201 20.8976 7.79078 20.9219 7.74415C20.9922 7.69727 21.0953 7.6504 21.175 7.69727C21.175 7.69727 21.2547 7.80977 21.2406 7.82384C21.3344 7.87071 21.3812 7.84727 21.3906 7.80509C21.3953 7.73477 21.3625 7.69259 21.3625 7.61759C21.4047 7.40196 21.6437 7.36915 21.7375 7.50509C21.8031 7.58946 21.8312 7.7629 21.8359 7.88009C21.8359 7.94102 21.7422 7.87071 21.6812 7.88009C21.6297 7.89884 21.6156 7.96446 21.6109 8.02071C21.6016 8.1754 21.5828 8.42384 21.5781 8.60665V8.61134ZM18.2125 10.8613C18.2594 10.402 18.1937 9.58165 18.1891 9.30977C18.164 8.61057 18.1061 7.91293 18.0156 7.21915C17.9594 6.8254 18.175 7.26134 18.1469 7.03165C18.0766 6.64259 17.8609 6.3754 17.6031 6.02384C17.5234 5.90665 17.5234 5.88321 17.3969 6.05196C17.2562 6.36602 17.3781 6.58634 17.4156 6.83477C17.5984 7.64102 17.7062 8.38165 17.7578 9.11759C17.8118 9.88208 17.818 10.6492 17.7766 11.4145C17.9172 11.4191 18.1328 11.1941 18.2125 10.8613Z" fill="white"/>
<path fill-rule="evenodd" clip-rule="evenodd" d="M24.3437 10.125C24.0203 9.58123 23.5375 8.99998 23.4062 8.77967C22.9716 8.17268 22.515 7.58166 22.0375 7.0078C21.639 6.58592 22.225 6.93748 21.9625 6.60936C21.7422 6.3703 21.6812 6.29061 21.489 6.1453C21.3953 6.08436 21.339 5.96717 21.3015 6.16873C21.2866 6.34332 21.2835 6.51872 21.2922 6.69373C21.2922 6.77342 21.3765 6.92811 21.4515 7.02186C22.4218 8.21717 23.4859 9.43592 24.339 10.9687C24.4609 10.9078 24.4187 10.2187 24.339 10.125H24.3437Z" fill="white"/>
<path fill-rule="evenodd" clip-rule="evenodd" d="M9.7468 9.12693C9.72336 9.16912 9.6718 9.22068 9.69055 9.27224C9.72336 9.31912 9.75617 9.33318 9.81242 9.33318C9.86398 9.33318 9.93898 9.34724 9.95305 9.31912C9.98117 9.28631 9.99992 9.22537 9.98117 9.16443C9.92492 9.02381 9.77492 9.08006 9.7468 9.12693Z" fill="#1BA400"/>
<path fill-rule="evenodd" clip-rule="evenodd" d="M20.6032 16.9919C21.0344 17.0106 21.3157 17.0153 21.6954 17.0575L22.1454 17.0106C22.6422 16.9637 22.661 17.7184 22.661 17.7184C22.661 18.1637 22.4875 18.1872 22.2672 18.2341C22.1407 18.2528 22.0797 18.1591 22.0094 18.0653C21.9034 18.0993 21.7905 18.1057 21.6813 18.0841C21.4985 18.0747 21.3204 18.0747 21.1422 18.0606C20.9547 18.0466 20.8516 18.0841 20.6594 18.0653C20.6219 18.1262 20.5657 18.2106 20.4532 18.1872C20.3594 18.1731 20.2422 17.9059 20.275 17.695C20.3454 17.545 20.3219 17.5966 20.3219 17.5309C18.5594 17.4841 16.7829 17.4044 15.0579 17.4278C13.7079 17.4325 12.3766 17.4887 11.0407 17.545C10.3282 17.5356 9.78442 17.4231 9.40942 16.8747C9.44692 16.8747 11.2282 16.9731 11.7485 16.9403C12.7094 16.9309 13.5907 16.8512 14.5704 16.8231C16.5016 16.8559 18.4188 16.8559 20.35 16.9919C20.1625 16.8653 20.1625 16.57 20.4438 16.495C20.4672 16.4762 20.4813 16.6403 20.5235 16.6356C20.7532 16.6216 20.65 16.9309 20.6032 16.9919ZM12.8407 6.34187C12.55 7.17624 13.0094 8.09499 13.3282 8.00593C13.5625 8.09968 13.7032 7.65905 13.7969 7.18093C13.8672 7.04499 13.9141 7.03093 13.9469 7.10124C13.9375 7.73874 13.9938 7.88405 14.1579 8.07624C14.5235 8.35749 14.8282 8.11374 14.8516 8.0903L15.1329 7.80437C15.1985 7.73405 15.2829 7.73405 15.3719 7.7903C15.461 7.86999 15.4469 8.00593 15.6344 8.09968C15.7938 8.1653 16.1266 8.11843 16.2063 7.98249C16.3094 7.79968 16.3375 7.73874 16.3844 7.67312C16.4594 7.57468 16.586 7.61687 16.586 7.64968C16.5719 7.70593 16.4969 7.75749 16.5485 7.86062C16.6422 7.92624 16.661 7.88405 16.7125 7.86999C16.9 7.77624 17.0407 7.37312 17.0407 7.37312C17.0454 7.22312 16.961 7.23249 16.9047 7.26999L16.7594 7.36843C16.6657 7.38249 16.4922 7.44343 16.4032 7.30749C16.3141 7.14811 16.3141 6.91843 16.2485 6.75437C16.2485 6.74499 16.1266 6.49655 16.2391 6.48249C16.2954 6.49187 16.4125 6.52468 16.4313 6.42624C16.4875 6.3278 16.3094 6.05124 16.1829 5.91061C16.075 5.79343 15.925 5.77937 15.7797 5.90124C15.6766 5.99499 15.6907 6.09811 15.6719 6.19655C15.6541 6.2671 15.6534 6.34085 15.6697 6.41175C15.686 6.48265 15.7189 6.54867 15.7657 6.60436C15.8688 6.80124 16.0516 7.05905 15.9907 7.42468C15.9907 7.42468 15.8829 7.59343 15.6954 7.56999C15.6157 7.55593 15.4891 7.52312 15.4235 7.01686C15.3719 6.64186 15.4329 6.10749 15.2735 5.85905C15.2125 5.70436 15.1704 5.55905 15.0297 5.81686C14.9922 5.91999 14.8282 6.07468 14.9454 6.38874C15.0563 6.67175 15.0886 6.97947 15.0391 7.27937C14.9688 7.38249 14.9547 7.4153 14.8657 7.51374C14.7438 7.65437 14.6079 7.61686 14.5047 7.5653C14.411 7.50436 14.336 7.47155 14.2891 7.26061C14.2985 6.93249 14.3172 6.39343 14.2563 6.28093C14.1672 6.1028 14.0219 6.16843 13.961 6.22468C13.6821 6.53445 13.4954 6.91599 13.4219 7.32624C13.3375 7.59812 13.2485 7.51843 13.1875 7.41062C13.0375 7.26999 13.0235 6.15905 12.8407 6.34187Z" fill="white"/>
<path fill-rule="evenodd" clip-rule="evenodd" d="M13.722 8.16144C13.858 8.06769 13.797 8.00206 13.9939 8.19894C14.248 8.64856 14.3956 9.15051 14.4252 9.66613C14.4158 9.788 14.5002 9.863 14.5423 9.83488C14.5611 9.55363 15.2502 9.15988 15.883 9.10363C15.9767 9.08019 15.9298 8.89738 15.9439 8.80363C15.9064 8.45206 16.1408 8.13331 16.4689 8.10988C16.9189 8.1755 17.0689 8.41456 17.0783 8.7755C17.0267 9.47863 16.2955 9.59581 15.8877 9.65206C15.8267 9.6755 15.7986 9.70363 15.8877 9.73644L17.6033 9.74581L17.6923 9.79269C17.7017 9.83956 17.6642 9.80206 17.5986 9.91456C17.5042 10.0804 17.4452 10.2639 17.4252 10.4536C16.9142 10.6224 16.3845 10.688 15.8502 10.7583C15.6627 10.8521 15.5689 10.9786 15.6064 11.1193C15.672 11.2739 16.0845 11.4333 16.0845 11.438C16.1642 11.4849 16.2533 11.6021 16.0611 11.8411C15.2267 11.8036 14.5752 11.4474 14.3502 10.9458C14.2845 10.8943 14.2095 10.9458 14.1627 11.0114C13.8345 11.4333 13.5158 11.8083 12.958 12.0146C12.6298 12.0989 12.2877 11.963 12.1283 11.7474C12.0205 11.6208 12.0252 11.4849 11.9877 11.4568C11.8048 11.5364 10.258 12.1927 10.4548 11.8833C10.8298 11.4849 11.4861 11.1849 12.058 10.7911C12.1002 10.6552 12.1752 10.2052 12.4002 10.0599C12.4142 10.0599 12.3673 10.3224 12.372 10.4349C12.372 10.5286 12.3627 10.5614 12.3814 10.538C12.4236 10.5146 13.1173 9.96613 13.1783 9.79738C13.2439 9.70363 13.1923 9.45988 13.1923 9.4505C13.0611 9.113 12.8783 9.08488 12.8127 8.91613C12.7517 8.69581 12.7798 8.44269 12.9064 8.36769C13.0189 8.26925 13.1502 8.27863 13.2767 8.39113C13.4173 8.51769 13.5392 8.76613 13.5767 8.94894C13.5533 9.01925 13.3892 8.90206 13.3423 8.93488C13.4326 9.03856 13.4926 9.16504 13.5158 9.3005C13.6095 9.68488 13.5814 9.83488 13.4877 10.0833C13.1783 10.7349 12.7845 10.9271 12.4377 11.1708C12.4283 11.1708 12.4236 11.3349 12.5502 11.4239C12.597 11.4708 12.7798 11.4943 12.9908 11.4239C13.4414 11.1737 13.8058 10.7929 14.0361 10.3318C14.0759 9.98082 14.0375 9.62543 13.9236 9.29113C13.7877 8.97706 13.6283 8.53175 13.6283 8.52238C13.6236 8.3255 13.6377 8.25988 13.722 8.16144ZM9.2314 6.35206C9.42828 6.44581 9.80328 6.40363 9.78453 6.08488L9.77515 5.93956C9.73765 5.84581 9.62515 5.86925 9.60171 5.963C9.59234 5.99581 9.61578 6.04738 9.58765 6.06144C9.5689 6.08019 9.50796 6.07081 9.50796 5.98175C9.50796 5.95363 9.48922 5.9255 9.47515 5.90675C9.46578 5.89738 9.4564 5.89738 9.43297 5.89738C9.40484 5.89738 9.40484 5.90206 9.39078 5.9255C9.38609 5.94894 9.37671 5.97238 9.37671 6.0005C9.37671 6.03331 9.35797 6.04269 9.33922 6.04738C9.31109 6.04738 9.31578 6.04738 9.29234 6.038C9.28297 6.02394 9.2689 6.01925 9.2689 5.99113L9.25484 5.91613C9.24546 5.90206 9.22671 5.89269 9.20796 5.888C9.10015 5.888 9.09078 6.01456 9.10015 6.06144C9.09078 6.07081 9.08609 6.29113 9.2314 6.35206Z" fill="white"/>
<path fill-rule="evenodd" clip-rule="evenodd" d="M15.0204 8.7984C15.2173 8.89215 15.6907 8.84058 15.5735 8.5359L15.5641 8.3859C15.5219 8.29215 15.4141 8.31558 15.3907 8.41402C15.3813 8.44215 15.4048 8.49371 15.3719 8.50777C15.3579 8.52652 15.2923 8.51715 15.2969 8.43277C15.2969 8.40465 15.2782 8.37183 15.2641 8.35308C15.2501 8.3484 15.2454 8.34371 15.2173 8.34371C15.1938 8.34371 15.1938 8.35308 15.1798 8.37652C15.1704 8.39996 15.1657 8.4234 15.1657 8.45152C15.161 8.47965 15.1469 8.48902 15.1235 8.4984C15.1001 8.4984 15.1048 8.4984 15.086 8.48433C15.0719 8.47027 15.0579 8.46558 15.0579 8.44215L15.0438 8.36715C15.0344 8.35308 15.0157 8.34371 14.9969 8.33902C14.8891 8.33902 14.8798 8.4609 14.8844 8.50777C14.8798 8.51715 14.8751 8.74215 15.0251 8.7984H15.0204ZM18.3954 7.7859C18.5923 7.87965 18.9626 7.83746 18.9485 7.5234L18.9391 7.3734C18.8969 7.27965 18.7891 7.30308 18.7657 7.39683C18.7563 7.42965 18.7798 7.48121 18.7469 7.49996C18.7329 7.51402 18.6673 7.50465 18.6719 7.41558C18.6719 7.38746 18.6532 7.35934 18.6391 7.34059C18.6251 7.33121 18.6204 7.33121 18.5923 7.33121C18.5688 7.33121 18.5688 7.34059 18.5548 7.36402L18.5407 7.43434C18.536 7.46715 18.5219 7.48121 18.4985 7.48121C18.4751 7.48121 18.4798 7.48121 18.461 7.47183C18.4469 7.45777 18.4329 7.45308 18.4329 7.42965C18.4329 7.40621 18.4282 7.36871 18.4188 7.34996C18.4094 7.3359 18.3907 7.33121 18.3719 7.32652C18.2641 7.32652 18.2548 7.4484 18.2594 7.49527C18.2548 7.50465 18.2501 7.72496 18.4001 7.7859H18.3954ZM20.1438 10.3312C19.8016 10.7203 19.9516 11.3625 20.0313 11.5031C20.1438 11.7281 20.2329 11.8734 20.4532 11.9859C20.6548 12.1312 20.8141 12.0421 20.8985 11.939C21.1001 11.7281 21.1048 11.189 21.1985 11.0859C21.2641 10.889 21.4329 10.9218 21.5126 11.0109C21.5871 11.1167 21.6871 11.2021 21.8032 11.2593C21.9907 11.4234 22.2157 11.4562 22.4407 11.3062C22.5907 11.2171 22.6891 11.1093 22.7782 10.889C22.8719 10.6265 22.8251 9.40777 22.8016 8.6859L22.6048 7.67808C22.6048 7.66871 22.5813 7.19996 22.5579 7.09215C22.5579 7.04527 22.5438 7.03121 22.5907 7.0359C22.6423 7.08277 22.6469 7.08277 22.6844 7.09683C22.7313 7.10621 22.7782 7.01715 22.7454 6.94215L22.2766 6.07027C22.2391 6.03277 22.1876 5.99527 22.1266 6.07965C22.0907 6.11219 22.0621 6.15201 22.0427 6.19646C22.0233 6.24091 22.0135 6.28897 22.0141 6.33746C22.0282 6.54371 22.061 6.75465 22.0751 6.9609L22.2626 8.02027C22.3235 8.77027 22.3376 9.38902 22.3985 10.1437C22.3891 10.4625 22.2907 10.739 22.1969 10.7812C22.1969 10.7812 22.0563 10.8609 21.9626 10.7718C21.8923 10.7437 21.6157 10.3078 21.6157 10.3078C21.4751 10.1812 21.3813 10.214 21.2829 10.3078C21.0016 10.5796 20.8798 11.0765 20.6876 11.4234C20.6407 11.5031 20.5001 11.564 20.3501 11.4187C19.9657 10.889 20.1907 10.139 20.1438 10.3312ZM18.4844 5.93902C18.6626 6.00933 18.7844 6.37027 18.7469 6.5484C18.7094 6.75933 18.6157 6.99371 18.5501 6.96559C18.4751 6.93746 18.5969 6.74996 18.5266 6.55309C18.4891 6.42184 18.2454 6.18746 18.2735 6.12184C18.2266 5.97652 18.3766 5.9109 18.4844 5.93433V5.93902Z" fill="white"/>
<path fill-rule="evenodd" clip-rule="evenodd" d="M20.7156 10.5463C20.7485 10.115 20.6875 9.85252 20.6781 9.59939C20.6688 9.34627 20.3922 7.41502 20.336 7.22752C20.2656 6.86189 20.6031 7.18064 20.5656 6.96502C20.4485 6.70252 20.1625 6.31346 20.0735 6.08377C20.0172 5.99002 20.0406 5.89627 19.9188 6.06033C19.8138 6.34798 19.7769 6.65603 19.811 6.96033C20.1016 8.47439 20.3969 9.73064 20.35 11.1697C20.4906 11.1697 20.6453 10.8556 20.7156 10.5463ZM23.7344 6.54783C23.8985 6.62752 23.9922 7.07752 23.9735 7.20408C23.9406 7.43846 23.8563 7.69158 23.7953 7.65877C23.725 7.63064 23.8094 7.31189 23.7766 7.21346C23.7391 7.07283 23.5188 6.81971 23.5422 6.74471C23.4953 6.58533 23.636 6.51971 23.7344 6.54783ZM11.7485 9.73064C11.9031 9.79158 11.9969 10.1197 11.9828 10.2135C11.9453 10.3869 11.8656 10.5744 11.8047 10.5463C11.7438 10.5275 11.8188 10.2931 11.7906 10.2181C11.7766 10.0447 11.561 9.95096 11.5656 9.87596C11.5281 9.73533 11.6594 9.71189 11.7531 9.73064H11.7485Z" fill="white"/>
<path fill-rule="evenodd" clip-rule="evenodd" d="M15.4797 10.2279C15.6766 10.2373 15.775 10.3967 15.5922 10.4623C15.4047 10.5232 15.2313 10.5748 15.2266 10.8373C15.2969 11.2123 15.1329 11.0811 15.0391 11.0342C14.9266 10.9498 14.6079 10.7529 14.561 10.3311C14.5563 10.2326 14.636 10.1436 14.7625 10.1436C14.95 10.1951 15.2313 10.1998 15.4797 10.2279Z" fill="#1B9D00"/>
<path fill-rule="evenodd" clip-rule="evenodd" d="M7.62823 5.83167C7.85323 5.8973 7.86729 6.2348 7.85323 6.33324C7.82042 6.51136 7.74073 6.70355 7.68448 6.68011C7.61885 6.65667 7.68448 6.41292 7.65167 6.33792C7.61885 6.2348 7.42667 6.03792 7.44542 5.98167C7.40323 5.86449 7.53917 5.80824 7.62823 5.83167ZM12.1235 7.40667C11.9454 7.50042 11.8798 7.78168 11.9876 7.95043C12.0907 8.09105 12.2501 8.03949 12.2689 8.03949C12.4423 8.05824 12.5454 7.71605 12.5454 7.71605C12.5454 7.71605 12.5501 7.6223 12.3485 7.80511C12.2595 7.81917 12.2548 7.78636 12.2314 7.73949C12.2099 7.65025 12.2181 7.55644 12.2548 7.4723C12.2876 7.38792 12.222 7.35042 12.1235 7.40667ZM13.436 5.70042C13.3423 5.76136 13.1689 5.94417 13.1642 6.15042C13.1595 6.26761 13.136 6.26761 13.211 6.33792C13.272 6.4223 13.3235 6.41761 13.436 6.35668C13.4641 6.33903 13.4881 6.31575 13.5067 6.28831C13.5253 6.26088 13.5379 6.22988 13.5439 6.1973C13.572 6.06605 13.4032 6.26292 13.3845 6.11292C13.347 5.9723 13.4548 5.91605 13.5579 5.7848C13.5579 5.69105 13.5579 5.63011 13.4314 5.70042H13.436ZM14.486 5.88792C14.4447 6.05861 14.4196 6.23283 14.411 6.40824C14.3829 6.53949 14.5517 6.59574 14.622 6.42699C14.7345 6.1223 14.7345 5.99105 14.7439 5.86449C14.711 5.66292 14.5751 5.66761 14.486 5.88792ZM21.1423 9.27699C21.161 9.25355 22.0798 8.60199 22.0798 8.60199C22.1735 8.56917 22.1501 8.93949 22.1079 8.9348C21.823 9.2094 21.4953 9.4358 21.1376 9.60511C21.0907 9.63792 21.0485 9.35667 21.1376 9.27699H21.1423ZM21.972 9.26761C22.136 9.3473 22.2017 9.82074 22.1829 9.9473C22.1829 10.2004 22.0282 10.3973 21.9626 10.3692C21.897 10.3364 21.972 10.0551 21.9392 9.95667C21.9017 9.81605 21.7657 9.55824 21.7892 9.48324C21.7423 9.32386 21.8735 9.23949 21.9767 9.26761H21.972ZM16.5345 11.302C16.6105 11.2132 16.6989 11.1359 16.797 11.0723C16.8907 11.0254 16.9751 11.1098 16.9704 11.1051C16.9845 11.1989 16.9142 11.2785 16.9376 11.4004C16.9564 11.4473 16.9704 11.5035 17.0595 11.4848C17.2048 11.3676 17.3407 11.3582 17.4814 11.3535C17.5985 11.3582 17.6032 11.5504 17.5282 11.5504C17.261 11.6067 17.1439 11.6817 16.9517 11.752C16.8579 11.8082 16.7829 11.7379 16.7829 11.7332C16.7829 11.7286 16.7314 11.6817 16.7642 11.5598C16.7735 11.4661 16.736 11.4098 16.6517 11.4192C16.5954 11.4567 16.5392 11.4754 16.511 11.4051C16.497 11.3582 16.4923 11.3301 16.5345 11.302ZM22.9376 11.5551C22.9751 11.602 23.0032 11.6489 22.9329 11.7332L22.7595 11.8832C22.7314 11.9301 22.7126 12.0145 22.8064 12.0379C22.9751 12.0848 23.3689 11.827 23.3689 11.8223C23.4345 11.7754 23.4157 11.6817 23.4064 11.6817C23.3689 11.6395 23.2845 11.6676 23.2282 11.6582C23.2001 11.6582 23.111 11.6489 23.1532 11.5645C23.1847 11.5231 23.21 11.4773 23.2282 11.4285C23.2517 11.3723 23.2282 11.3348 23.1345 11.302C23.036 11.2832 22.9939 11.2926 22.886 11.302C22.8298 11.3114 22.811 11.3395 22.797 11.4098C22.8017 11.5176 22.8673 11.5129 22.9376 11.5504V11.5551Z" fill="white"/>
<path fill-rule="evenodd" clip-rule="evenodd" d="M16.5672 8.89216C16.5437 8.93903 16.4594 8.93903 16.3797 8.89216C16.3 8.84528 16.2531 8.77028 16.2812 8.7281C16.3094 8.68591 16.389 8.68591 16.4687 8.7281C16.5484 8.77028 16.5906 8.84997 16.5672 8.89216ZM12.3953 6.37966C12.3484 6.39372 12.2828 6.35154 12.2547 6.28591C12.2265 6.22029 12.2406 6.16403 12.2875 6.14997C12.3344 6.13591 12.3953 6.18278 12.4281 6.24372C12.4609 6.30466 12.4422 6.37028 12.3906 6.38435L12.3953 6.37966Z" fill="#259F00"/>
<path fill-rule="evenodd" clip-rule="evenodd" d="M20.6499 17.5781C21.0905 17.5969 21.503 17.5781 21.939 17.6016C22.0187 17.6719 21.9624 17.8359 21.9109 17.8266L21.5452 17.8125C21.5405 17.6719 21.1843 17.6953 21.1937 17.8172C21.0015 17.8406 20.828 17.8125 20.6312 17.8031C20.5749 17.7328 20.5843 17.6063 20.6499 17.5781Z" fill="#209000"/>
</g>
</g>
<defs>
<clipPath id="clip0_569_1557">
<rect width="32" height="24" rx="2" fill="white"/>
</clipPath>
</defs>
</svg>
