<svg width="133" height="113" viewBox="0 0 133 113" fill="none" xmlns="http://www.w3.org/2000/svg">
<g clip-path="url(#clip0_1106_28499)">
<path d="M134.966 104.486H123.705V104.571H134.966V104.486Z" fill="#EBEBEB"/>
<path d="M94.6148 105.411H91.6602V105.496H94.6148V105.411Z" fill="#EBEBEB"/>
<path d="M123.365 101.332H116.841V101.417H123.365V101.332Z" fill="#EBEBEB"/>
<path d="M14.521 101.902H-0.163574V101.987H14.521V101.902Z" fill="#EBEBEB"/>
<path d="M19.7026 101.902H17.5504V101.987H19.7026V101.902Z" fill="#EBEBEB"/>
<path d="M58.551 103.338H26.6998V103.423H58.551V103.338Z" fill="#EBEBEB"/>
<path d="M63.056 83.8522H-2.59803C-3.11292 83.8522 -3.60672 83.6477 -3.97081 83.2836C-4.33489 82.9195 -4.53943 82.4257 -4.53943 81.9108V-10.3754C-4.53495 -10.8873 -4.32843 -11.3768 -3.96483 -11.7372C-3.60123 -12.0976 -3.10999 -12.2998 -2.59803 -12.2998H63.056C63.3109 -12.2998 63.5634 -12.2496 63.7989 -12.152C64.0345 -12.0545 64.2485 -11.9115 64.4287 -11.7312C64.609 -11.5509 64.752 -11.3369 64.8496 -11.1013C64.9472 -10.8658 64.9974 -10.6134 64.9974 -10.3584V81.9108C64.9974 82.1657 64.9472 82.4182 64.8496 82.6537C64.752 82.8893 64.609 83.1033 64.4287 83.2836C64.2485 83.4639 64.0345 83.6068 63.7989 83.7044C63.5634 83.802 63.3109 83.8522 63.056 83.8522ZM-2.59803 -12.2318C-3.0901 -12.2309 -3.56176 -12.035 -3.90971 -11.6871C-4.25766 -11.3391 -4.45353 -10.8675 -4.45443 -10.3754V81.9108C-4.45353 82.4029 -4.25766 82.8745 -3.90971 83.2225C-3.56176 83.5704 -3.0901 83.7663 -2.59803 83.7672H63.056C63.548 83.7663 64.0197 83.5704 64.3677 83.2225C64.7156 82.8745 64.9115 82.4029 64.9124 81.9108V-10.3754C64.9115 -10.8675 64.7156 -11.3391 64.3677 -11.6871C64.0197 -12.035 63.548 -12.2309 63.056 -12.2318H-2.59803Z" fill="#EBEBEB"/>
<path d="M136.598 83.8522H70.944C70.4291 83.8522 69.9353 83.6477 69.5712 83.2836C69.2071 82.9195 69.0026 82.4257 69.0026 81.9108V-10.3754C69.007 -10.8873 69.2136 -11.3768 69.5772 -11.7372C69.9408 -12.0976 70.432 -12.2998 70.944 -12.2998H136.598C137.113 -12.2998 137.607 -12.0953 137.971 -11.7312C138.335 -11.3671 138.539 -10.8733 138.539 -10.3584V81.9108C138.539 82.4257 138.335 82.9195 137.971 83.2836C137.607 83.6477 137.113 83.8522 136.598 83.8522ZM70.944 -12.2318C70.4519 -12.2309 69.9802 -12.035 69.6323 -11.6871C69.2843 -11.3391 69.0885 -10.8675 69.0876 -10.3754V81.9108C69.0885 82.4029 69.2843 82.8745 69.6323 83.2225C69.9802 83.5704 70.4519 83.7663 70.944 83.7672H136.598C137.09 83.7663 137.562 83.5704 137.91 83.2225C138.258 82.8745 138.453 82.4029 138.454 81.9108V-10.3754C138.453 -10.8675 138.258 -11.3391 137.91 -11.6871C137.562 -12.035 137.09 -12.2309 136.598 -12.2318H70.944Z" fill="#EBEBEB"/>
<path d="M152 99.0166H-18V99.1016H152V99.0166Z" fill="#EBEBEB"/>
<path d="M119.499 0.0527344H110.357C107.458 0.0527344 105.107 2.40306 105.107 5.30233V14.4449C105.107 17.3442 107.458 19.6945 110.357 19.6945H119.499C122.399 19.6945 124.749 17.3442 124.749 14.4449V5.30233C124.749 2.40306 122.399 0.0527344 119.499 0.0527344Z" fill="#F0F0F0"/>
<path d="M117.371 7.09678C117.371 8.76958 116.521 10.1228 114.848 10.1228C113.175 10.1228 112.325 8.76278 112.325 7.09678C112.325 5.43078 113.175 4.06738 114.848 4.06738C116.521 4.06738 117.371 5.42398 117.371 7.09678Z" fill="#FAFAFA"/>
<path d="M114.848 15.6752H119.516V12.9008C119.516 11.3674 117.425 10.123 114.848 10.123C112.271 10.123 110.18 11.3674 110.18 12.9008V15.6752H114.848Z" fill="#FAFAFA"/>
<path d="M33.5066 6.63867H27.1214C25.0971 6.63867 23.4562 8.27964 23.4562 10.3039V16.6891C23.4562 18.7133 25.0971 20.3543 27.1214 20.3543H33.5066C35.5308 20.3543 37.1718 18.7133 37.1718 16.6891V10.3039C37.1718 8.27964 35.5308 6.63867 33.5066 6.63867Z" fill="#E6E6E6"/>
<path d="M30.0352 14.2371C30.2412 13.951 30.4797 13.6897 30.7458 13.4585C30.9275 13.2979 31.0958 13.1228 31.249 12.9349C31.3539 12.7959 31.4101 12.6262 31.4088 12.4521C31.4126 12.3332 31.3865 12.2152 31.3331 12.1089C31.2796 12.0027 31.2005 11.9114 31.1028 11.8435C30.8622 11.6857 30.5776 11.6083 30.2902 11.6225C29.9889 11.6154 29.6907 11.6844 29.4232 11.8231C29.1697 11.9597 28.951 12.1528 28.784 12.3875L27.5294 11.6531C27.8214 11.2123 28.2281 10.8596 28.7058 10.6331C29.2569 10.3774 29.8597 10.2529 30.467 10.2693C31.142 10.2374 31.8104 10.4143 32.3812 10.7759C32.6101 10.9301 32.7962 11.1397 32.9222 11.3853C33.0483 11.6308 33.1101 11.9042 33.102 12.1801C33.1076 12.4367 33.059 12.6916 32.9592 12.9281C32.8767 13.1269 32.7618 13.3107 32.6192 13.4721C32.4832 13.6217 32.3098 13.7917 32.0956 13.9855C31.8906 14.1598 31.7027 14.3534 31.5346 14.5635C31.4139 14.7264 31.3516 14.9252 31.3578 15.1279H29.7904C29.7778 14.8128 29.8634 14.5015 30.0352 14.2371ZM29.8686 17.4569C29.7752 17.3705 29.7014 17.2651 29.6521 17.1478C29.6029 17.0305 29.5793 16.904 29.583 16.7769C29.5803 16.6537 29.6041 16.5313 29.6528 16.4181C29.7015 16.3049 29.7739 16.2035 29.8652 16.1207C30.0644 15.9495 30.3183 15.8554 30.5809 15.8554C30.8435 15.8554 31.0974 15.9495 31.2966 16.1207C31.3873 16.2038 31.4591 16.3053 31.5072 16.4185C31.5553 16.5317 31.5786 16.6539 31.5754 16.7769C31.5791 16.904 31.5556 17.0305 31.5063 17.1478C31.457 17.2651 31.3832 17.3705 31.2898 17.4569C31.0956 17.6342 30.8422 17.7324 30.5792 17.7324C30.3163 17.7324 30.0628 17.6342 29.8686 17.4569Z" fill="#FAFAFA"/>
<path d="M118.558 53.5889H123.498C124.251 53.5889 124.973 53.888 125.505 54.4204C126.038 54.9528 126.337 55.6749 126.337 56.4279V61.3681C126.337 62.1201 126.038 62.8414 125.506 63.3731C124.974 63.9049 124.253 64.2037 123.501 64.2037H118.558C117.806 64.2037 117.084 63.9049 116.553 63.3731C116.021 62.8414 115.722 62.1201 115.722 61.3681V56.4279C115.722 55.6758 116.021 54.9546 116.553 54.4228C117.084 53.891 117.806 53.5923 118.558 53.5923V53.5889Z" fill="#EBEBEB"/>
<path d="M120.808 59.4706C120.968 59.2494 121.153 59.0475 121.359 58.8688C121.501 58.7439 121.631 58.6075 121.75 58.4608C121.831 58.3544 121.874 58.2239 121.873 58.0902C121.876 57.9982 121.856 57.9068 121.814 57.8247C121.773 57.7426 121.711 57.6725 121.635 57.621C121.449 57.497 121.228 57.4362 121.006 57.4476C120.778 57.4408 120.552 57.4915 120.349 57.5948C120.145 57.6982 119.971 57.851 119.843 58.0392L118.87 57.4714C119.095 57.1273 119.41 56.852 119.782 56.6758C120.207 56.4787 120.673 56.3822 121.142 56.3936C121.665 56.3682 122.183 56.5061 122.624 56.788C122.802 56.9077 122.946 57.0707 123.044 57.2616C123.141 57.4525 123.189 57.6651 123.182 57.8794C123.185 58.0775 123.148 58.2743 123.073 58.4574C123.009 58.6118 122.919 58.7544 122.808 58.879C122.68 59.0191 122.545 59.1519 122.403 59.2768C122.245 59.4125 122.1 59.5615 121.968 59.7222C121.876 59.85 121.829 60.0038 121.832 60.1608H120.621C120.611 59.9169 120.676 59.6758 120.808 59.4706ZM120.679 61.9628C120.608 61.8971 120.552 61.817 120.515 61.7279C120.477 61.6387 120.459 61.5426 120.462 61.446C120.46 61.3507 120.478 61.2561 120.514 61.1682C120.551 61.0804 120.606 61.0012 120.676 60.936C120.83 60.804 121.027 60.7315 121.23 60.7315C121.433 60.7315 121.63 60.804 121.784 60.936C121.854 61.0009 121.91 61.0799 121.947 61.1678C121.985 61.2557 122.003 61.3505 122.002 61.446C122.004 61.5429 121.985 61.6392 121.947 61.7283C121.909 61.8174 121.852 61.8974 121.781 61.9628C121.708 62.0337 121.622 62.0892 121.527 62.126C121.433 62.1628 121.331 62.1802 121.23 62.177C121.129 62.1794 121.028 62.1617 120.933 62.125C120.839 62.0882 120.752 62.0331 120.679 61.9628Z" fill="#FAFAFA"/>
<path d="M21.8174 27.208H15.4322C13.4079 27.208 11.767 28.849 11.767 30.8732V37.2584C11.767 39.2826 13.4079 40.9236 15.4322 40.9236H21.8174C23.8416 40.9236 25.4826 39.2826 25.4826 37.2584V30.8732C25.4826 28.849 23.8416 27.208 21.8174 27.208Z" fill="#EBEBEB"/>
<path d="M18.6249 30.2002C18.2174 30.2002 17.8139 30.2805 17.4374 30.4366C17.061 30.5926 16.719 30.8213 16.4311 31.1096C16.1431 31.3979 15.9147 31.7401 15.7591 32.1167C15.6035 32.4933 15.5236 32.8969 15.524 33.3044C15.524 35.0044 16.9113 39.1252 18.6249 39.1252C20.3385 39.1252 21.7256 35.0146 21.7256 33.3044C21.7261 32.8969 21.6462 32.4933 21.4906 32.1167C21.335 31.7401 21.1066 31.3979 20.8187 31.1096C20.5307 30.8213 20.1887 30.5926 19.8123 30.4366C19.4358 30.2805 19.0323 30.2002 18.6249 30.2002ZM18.6249 34.2394C18.4399 34.2394 18.2592 34.1846 18.1054 34.0818C17.9516 33.9791 17.8318 33.8331 17.761 33.6622C17.6903 33.4914 17.6717 33.3034 17.7078 33.122C17.7439 32.9406 17.8329 32.774 17.9637 32.6433C18.0945 32.5125 18.2611 32.4234 18.4424 32.3874C18.6238 32.3513 18.8118 32.3698 18.9827 32.4406C19.1535 32.5113 19.2995 32.6312 19.4023 32.7849C19.505 32.9387 19.5599 33.1195 19.5599 33.3044C19.5563 33.55 19.4562 33.7843 19.2812 33.9568C19.1063 34.1292 18.8705 34.2258 18.6249 34.2258V34.2394Z" fill="#FAFAFA"/>
<path d="M19.995 52.7894C20.0947 52.1598 20.0947 51.5185 19.995 50.8888L19.0396 50.763C18.9625 50.412 18.8485 50.0701 18.6996 49.743L19.4 49.08C19.1088 48.5131 18.7314 47.9946 18.2814 47.5432L17.4314 48.0056C17.1686 47.7675 16.8814 47.5578 16.5746 47.38L16.7514 46.4314C16.1867 46.1409 15.5797 45.9412 14.9528 45.8398L14.5414 46.7068C14.368 46.6898 14.2014 46.6796 14.011 46.6796C13.8206 46.6796 13.6506 46.6796 13.4772 46.7068L13.0658 45.8398C12.4356 45.9391 11.8251 46.1377 11.257 46.428L11.4338 47.3766C11.1269 47.5544 10.8397 47.7641 10.577 48.0022L9.72699 47.5398C9.27695 47.9912 8.8996 48.5097 8.60839 49.0766L9.30879 49.7396C9.15983 50.0667 9.04587 50.4086 8.96879 50.7596L8.01679 50.8854C7.91254 51.5147 7.91254 52.1568 8.01679 52.786L8.96879 52.9118C9.04587 53.2629 9.15983 53.6048 9.30879 53.9318L8.60839 54.5948C8.89894 55.1622 9.27636 55.6808 9.72699 56.1316L10.577 55.6692C10.8397 55.9074 11.1269 56.1171 11.4338 56.2948L11.257 57.2434C11.8251 57.5338 12.4356 57.7324 13.0658 57.8316L13.4772 56.9646C13.6506 56.9816 13.8172 56.9918 14.011 56.9918C14.2048 56.9918 14.351 56.9918 14.5414 56.9646L14.9528 57.8316C15.583 57.7324 16.1935 57.5338 16.7616 57.2434L16.5848 56.2948C16.8916 56.1171 17.1788 55.9074 17.4416 55.6692L18.2916 56.1316C18.7416 55.6803 19.119 55.1618 19.4102 54.5948L18.72 53.925C18.8685 53.5978 18.9825 53.256 19.06 52.905L19.995 52.7894ZM14.011 53.9556C13.5918 53.9563 13.1818 53.8326 12.8329 53.6001C12.484 53.3676 12.212 53.0368 12.0513 52.6496C11.8905 52.2624 11.8483 51.8362 11.9299 51.425C12.0115 51.0138 12.2134 50.6361 12.5098 50.3397C12.8062 50.0432 13.184 49.8414 13.5952 49.7598C14.0064 49.6782 14.4326 49.7204 14.8198 49.8811C15.207 50.0419 15.5377 50.3139 15.7702 50.6628C16.0027 51.0116 16.1265 51.4216 16.1258 51.8408C16.1249 52.4014 15.9018 52.9388 15.5054 53.3352C15.109 53.7316 14.5716 53.9547 14.011 53.9556Z" fill="#EBEBEB"/>
<path d="M23.0618 59.631C23.0862 59.4735 23.0987 59.3144 23.0992 59.155C23.099 58.9956 23.0865 58.8365 23.0618 58.679L22.5824 58.6178C22.5461 58.4437 22.4914 58.2738 22.4192 58.1112L22.7592 57.7712C22.6137 57.4862 22.4244 57.2258 22.1982 56.9994L21.7732 57.2306C21.6412 57.1124 21.4977 57.0076 21.3448 56.9178L21.4332 56.4452C21.1494 56.2992 20.8441 56.1994 20.5288 56.1494L20.3248 56.5846C20.2364 56.5846 20.148 56.5846 20.0596 56.5846C19.9712 56.5846 19.8794 56.5846 19.791 56.5846L19.587 56.1494C19.2718 56.1994 18.9665 56.2992 18.6826 56.4452L18.771 56.9178C18.6182 57.0076 18.4747 57.1124 18.3426 57.2306L17.9176 56.9994C17.6914 57.2258 17.5021 57.4862 17.3566 57.7712L17.6966 58.1112C17.6245 58.2738 17.5698 58.4437 17.5334 58.6178L17.0574 58.679C17.031 58.8363 17.0185 58.9956 17.02 59.155C17.0188 59.3145 17.0313 59.4737 17.0574 59.631L17.5334 59.6922C17.5698 59.8653 17.6245 60.034 17.6966 60.1954L17.3566 60.5354C17.5024 60.8192 17.6917 61.0785 17.9176 61.3038L18.3426 61.0726C18.4729 61.193 18.6167 61.298 18.771 61.3854L18.6826 61.858C18.9665 62.004 19.2718 62.1039 19.587 62.1538L19.791 61.7186C19.9685 61.7368 20.1473 61.7368 20.3248 61.7186L20.5288 62.1538C20.8441 62.1039 21.1494 62.004 21.4332 61.858L21.3448 61.3854C21.4992 61.298 21.6429 61.193 21.7732 61.0726L22.1982 61.3038C22.4241 61.0785 22.6134 60.8192 22.7592 60.5354L22.4192 60.1954C22.4913 60.034 22.5461 59.8653 22.5824 59.6922L23.0618 59.631ZM20.0698 60.2124C19.8607 60.2124 19.6562 60.1504 19.4824 60.0342C19.3085 59.918 19.1729 59.7529 19.0929 59.5597C19.0129 59.3665 18.9919 59.1538 19.0327 58.9487C19.0735 58.7436 19.1742 58.5552 19.3221 58.4073C19.47 58.2594 19.6584 58.1587 19.8635 58.1179C20.0686 58.0771 20.2813 58.0981 20.4745 58.1781C20.6677 58.2581 20.8328 58.3937 20.949 58.5676C21.0652 58.7414 21.1272 58.9459 21.1272 59.155C21.1264 59.4334 21.0161 59.7003 20.8202 59.8982C20.6242 60.096 20.3584 60.2088 20.08 60.2124H20.0698Z" fill="#E0E0E0"/>
<path d="M128.112 52.7693C128.24 52.6748 128.361 52.5714 128.475 52.4599C128.588 52.3469 128.691 52.2252 128.785 52.0961L128.492 51.7153C128.589 51.5671 128.669 51.4086 128.73 51.2427H129.213C129.312 50.9398 129.363 50.6231 129.363 50.3043L128.897 50.1683C128.89 49.9912 128.863 49.8155 128.815 49.6447L129.213 49.3727C129.117 49.0686 128.971 48.7826 128.781 48.5261L128.329 48.6859C128.274 48.617 128.215 48.5512 128.152 48.4887C128.088 48.4241 128.023 48.3663 127.955 48.3085L128.115 47.8563C127.857 47.6699 127.571 47.5243 127.268 47.4245L126.996 47.8223C126.824 47.7783 126.647 47.751 126.469 47.7407L126.333 47.2783C126.015 47.2774 125.698 47.3279 125.395 47.4279V47.9073C125.23 47.9713 125.071 48.0522 124.922 48.1487L124.538 47.8563C124.278 48.0466 124.048 48.276 123.858 48.5363L124.151 48.9171C124.055 49.0675 123.974 49.2269 123.909 49.3931H123.43C123.331 49.6962 123.281 50.0129 123.28 50.3315L123.743 50.4675C123.753 50.6443 123.78 50.8197 123.824 50.9911L123.426 51.2665C123.526 51.5692 123.672 51.8547 123.858 52.1131L124.31 51.9499C124.368 52.0179 124.426 52.0859 124.491 52.1505C124.555 52.2151 124.62 52.2729 124.688 52.3273L124.528 52.7795C124.784 52.9692 125.071 53.1151 125.375 53.2113L125.647 52.8135C125.817 52.8608 125.993 52.8882 126.17 52.8951L126.306 53.3609C126.626 53.3606 126.944 53.3101 127.248 53.2113V52.7285C127.413 52.6657 127.572 52.586 127.721 52.4905L128.112 52.7693ZM125.585 51.0693C125.438 50.9214 125.337 50.733 125.296 50.5279C125.256 50.3228 125.277 50.1103 125.357 49.9171C125.437 49.7239 125.572 49.5588 125.746 49.4427C125.92 49.3265 126.124 49.2645 126.333 49.2645C126.543 49.2645 126.747 49.3265 126.921 49.4427C127.095 49.5588 127.23 49.7239 127.31 49.9171C127.39 50.1103 127.411 50.3228 127.371 50.5279C127.33 50.733 127.229 50.9214 127.081 51.0693C126.983 51.1678 126.867 51.2459 126.738 51.299C126.61 51.3522 126.472 51.3794 126.333 51.3791C126.194 51.3787 126.056 51.3509 125.928 51.2972C125.8 51.2434 125.683 51.1648 125.585 51.0659V51.0693Z" fill="#F0F0F0"/>
<path d="M67 113.062C103.408 113.062 132.923 111.339 132.923 109.213C132.923 107.087 103.408 105.364 67 105.364C30.5919 105.364 1.07739 107.087 1.07739 109.213C1.07739 111.339 30.5919 113.062 67 113.062Z" fill="#F5F5F5"/>
<path d="M79.0905 7.67807V2.38087L81.6949 2.01367V7.31087L79.0905 7.67807Z" fill="#263238"/>
<path d="M70.4306 10.6296L68.479 7.52203L70.1416 6.33203L72.0898 9.43623L70.4306 10.6296Z" fill="#263238"/>
<path d="M88.692 7.09984L90.6436 3.44824L92.3028 4.17244L90.3546 7.82744L88.692 7.09984Z" fill="#263238"/>
<g opacity="0.5">
<path d="M79.0904 7.67807V2.38087L81.6948 2.01367V7.31087L79.0904 7.67807Z" fill="white"/>
<path d="M70.4306 10.6296L68.479 7.52203L70.1416 6.33203L72.0898 9.43623L70.4306 10.6296Z" fill="white"/>
<path d="M88.692 7.09984L90.6436 3.44824L92.3028 4.17244L90.3546 7.82744L88.692 7.09984Z" fill="white"/>
</g>
<path d="M82.0654 2.8672L78.7198 3.3398C78.5984 3.36223 78.4734 3.35714 78.3542 3.32491C78.235 3.29268 78.1245 3.23413 78.0308 3.15355C77.9372 3.07298 77.8629 2.97245 77.8132 2.85934C77.7636 2.74624 77.74 2.62344 77.744 2.49999C77.7517 2.23003 77.8534 1.97123 78.0316 1.76825C78.2097 1.56527 78.4532 1.43085 78.7198 1.3882L82.0654 0.918994C82.1866 0.896631 82.3113 0.901655 82.4302 0.933697C82.5492 0.965738 82.6595 1.02399 82.7531 1.10418C82.8466 1.18437 82.9211 1.28447 82.9709 1.39715C83.0208 1.50982 83.0448 1.63223 83.0412 1.75539C83.0329 2.02516 82.931 2.28362 82.7529 2.48647C82.5749 2.68932 82.3318 2.82392 82.0654 2.8672Z" fill="#263238"/>
<path d="M70.6822 6.24677L68.2036 8.02837C68.1521 8.07145 68.0923 8.10348 68.0279 8.12245C67.9634 8.14142 67.8958 8.14693 67.8291 8.13863C67.7625 8.13034 67.6983 8.10843 67.6404 8.07425C67.5826 8.04007 67.5324 7.99436 67.493 7.93997C67.4277 7.81527 67.4109 7.67072 67.4461 7.53439C67.4813 7.39805 67.5659 7.27965 67.6834 7.20217L70.1654 5.42396C70.2165 5.38047 70.276 5.34808 70.3402 5.32886C70.4045 5.30964 70.472 5.30401 70.5385 5.31232C70.6051 5.32064 70.6691 5.34272 70.7267 5.37716C70.7842 5.4116 70.8339 5.45765 70.8727 5.51237C70.9378 5.63655 70.9545 5.78056 70.9193 5.91633C70.8841 6.0521 70.7996 6.1699 70.6822 6.24677Z" fill="#263238"/>
<path d="M92.5816 4.60156L90.0996 3.52036C90.0404 3.4903 89.9881 3.44828 89.946 3.39695C89.9039 3.34562 89.8729 3.28611 89.855 3.22218C89.8371 3.15826 89.8327 3.09131 89.842 3.02558C89.8514 2.95986 89.8742 2.89679 89.9092 2.84036C89.9712 2.71311 90.0781 2.61325 90.2092 2.55991C90.3404 2.50658 90.4866 2.50354 90.6198 2.55136L93.0984 3.63596C93.1584 3.66522 93.2114 3.70684 93.2541 3.75807C93.2968 3.80931 93.3282 3.86901 93.3462 3.93324C93.3642 3.99747 93.3684 4.06478 93.3585 4.13074C93.3486 4.19671 93.3248 4.25983 93.2888 4.31596C93.2268 4.44234 93.1204 4.54138 92.9899 4.59408C92.8593 4.64679 92.714 4.64945 92.5816 4.60156Z" fill="#263238"/>
<path opacity="0.7" d="M82.0654 2.8672L78.7198 3.3398C78.5984 3.36223 78.4734 3.35714 78.3542 3.32491C78.235 3.29268 78.1245 3.23413 78.0308 3.15355C77.9372 3.07298 77.8629 2.97245 77.8132 2.85934C77.7636 2.74624 77.74 2.62344 77.744 2.49999C77.7517 2.23003 77.8534 1.97123 78.0316 1.76825C78.2097 1.56527 78.4532 1.43085 78.7198 1.3882L82.0654 0.918994C82.1866 0.896631 82.3113 0.901655 82.4302 0.933697C82.5492 0.965738 82.6595 1.02399 82.7531 1.10418C82.8466 1.18437 82.9211 1.28447 82.9709 1.39715C83.0208 1.50982 83.0448 1.63223 83.0412 1.75539C83.0329 2.02516 82.931 2.28362 82.7529 2.48647C82.5749 2.68932 82.3318 2.82392 82.0654 2.8672Z" fill="white"/>
<path opacity="0.7" d="M70.6822 6.24677L68.2036 8.02837C68.1521 8.07145 68.0923 8.10348 68.0279 8.12245C67.9634 8.14142 67.8958 8.14693 67.8291 8.13863C67.7625 8.13034 67.6983 8.10843 67.6404 8.07425C67.5826 8.04007 67.5324 7.99436 67.493 7.93997C67.4277 7.81527 67.4109 7.67072 67.4461 7.53439C67.4813 7.39805 67.5659 7.27965 67.6834 7.20217L70.1654 5.42396C70.2165 5.38047 70.276 5.34808 70.3402 5.32886C70.4045 5.30964 70.472 5.30401 70.5385 5.31232C70.6051 5.32064 70.6691 5.34272 70.7267 5.37716C70.7842 5.4116 70.8339 5.45765 70.8727 5.51237C70.9378 5.63655 70.9545 5.78056 70.9193 5.91633C70.8841 6.0521 70.7996 6.1699 70.6822 6.24677Z" fill="white"/>
<path opacity="0.7" d="M92.5816 4.60156L90.0996 3.52036C90.0404 3.4903 89.9881 3.44828 89.946 3.39695C89.9039 3.34562 89.8729 3.28611 89.855 3.22218C89.8371 3.15826 89.8327 3.09131 89.842 3.02558C89.8514 2.95986 89.8742 2.89679 89.9092 2.84036C89.9712 2.71311 90.0781 2.61325 90.2092 2.55991C90.3404 2.50658 90.4866 2.50354 90.6198 2.55136L93.0984 3.63596C93.1584 3.66522 93.2114 3.70684 93.2541 3.75807C93.2968 3.80931 93.3282 3.86901 93.3462 3.93324C93.3642 3.99747 93.3684 4.06478 93.3585 4.13074C93.3486 4.19671 93.3248 4.25983 93.2888 4.31596C93.2268 4.44234 93.1204 4.54138 92.9899 4.59408C92.8593 4.64679 92.714 4.64945 92.5816 4.60156Z" fill="white"/>
<path d="M80.3926 40.8419C71.3384 42.1135 63.9978 35.8065 63.9978 26.7523C63.9978 17.6981 71.3384 9.3239 80.3926 8.0523C89.4468 6.7807 96.7874 13.0877 96.7874 22.1419L99.0246 21.8291C99.0246 11.5373 90.681 4.3701 80.3926 5.8151C70.1042 7.2601 61.7606 16.7767 61.7606 27.0651C61.7606 37.3535 70.1008 44.5241 80.3926 43.0791V40.8419Z" fill="#212121"/>
<path d="M73.8784 36.0602L72.6549 38.3516L73.1348 38.6078L74.3583 36.3164L73.8784 36.0602Z" fill="#263238"/>
<path d="M87.644 10.2828L86.4205 12.5742L86.9004 12.8305L88.1239 10.539L87.644 10.2828Z" fill="#263238"/>
<path d="M67.5156 18.521L67.2979 19.0195L69.4166 19.9448L69.6343 19.4462L67.5156 18.521Z" fill="#263238"/>
<path d="M73.3387 12.7029L72.8763 12.9912L74.0963 14.9477L74.5587 14.6594L73.3387 12.7029Z" fill="#263238"/>
<path d="M69.3729 32.0305L67.2513 33.5527L67.5685 33.9947L69.6901 32.4725L69.3729 32.0305Z" fill="#263238"/>
<path d="M93.2155 14.9084L91.0939 16.4307L91.411 16.8727L93.5326 15.3504L93.2155 14.9084Z" fill="#263238"/>
<path d="M68.5915 25.5561L65.329 26.0146L65.4804 27.0921L68.7429 26.6335L68.5915 25.5561Z" fill="#263238"/>
<path d="M80.9366 9.45996H79.8486V12.724H80.9366V9.45996Z" fill="#263238"/>
<path d="M80.9366 36.1699H79.8486V39.4339H80.9366V36.1699Z" fill="#263238"/>
<path d="M76.18 20.911C76.0534 21.0384 75.9823 21.2108 75.9823 21.3904C75.9823 21.5701 76.0534 21.7424 76.18 21.8698L79.8316 25.0046L80.787 23.9132L77.1388 20.775C77.0672 20.7204 76.9854 20.6805 76.8982 20.6578C76.811 20.635 76.7202 20.6298 76.631 20.6425C76.5418 20.6551 76.456 20.6854 76.3786 20.7315C76.3011 20.7776 76.2337 20.8386 76.18 20.911Z" fill="#212121"/>
<path opacity="0.4" d="M76.18 20.911C76.0534 21.0384 75.9823 21.2108 75.9823 21.3904C75.9823 21.5701 76.0534 21.7424 76.18 21.8698L79.8316 25.0046L80.787 23.9132L77.1388 20.775C77.0672 20.7204 76.9854 20.6805 76.8982 20.6578C76.811 20.635 76.7202 20.6298 76.631 20.6425C76.5418 20.6551 76.456 20.6854 76.3786 20.7315C76.3011 20.7776 76.2337 20.8386 76.18 20.911Z" fill="white"/>
<path d="M100.619 21.333L97.8958 24.9812L95.1758 22.098L100.619 21.333Z" fill="#212121"/>
<path d="M86.6044 17.2594C86.5328 17.2048 86.451 17.1649 86.3638 17.1422C86.2766 17.1194 86.1858 17.1142 86.0965 17.1269C86.0073 17.1395 85.9215 17.1698 85.8441 17.2159C85.7667 17.262 85.6992 17.323 85.6456 17.3954L80.702 23.0326C80.4372 22.9992 80.1682 23.0324 79.9195 23.1292C79.6707 23.226 79.45 23.3833 79.2774 23.5868C78.7198 24.226 78.7198 25.1338 79.2774 25.6268C79.835 26.1198 80.7462 25.9668 81.3174 25.3412C81.4935 25.145 81.6171 24.9074 81.6765 24.6506C81.736 24.3937 81.7294 24.126 81.6574 23.8724L86.601 18.2318C86.666 18.1687 86.7177 18.0933 86.7531 18.0099C86.7886 17.9265 86.807 17.8369 86.8073 17.7463C86.8076 17.6557 86.7898 17.566 86.755 17.4824C86.7201 17.3988 86.6689 17.323 86.6044 17.2594Z" fill="#212121"/>
<path d="M48.7998 18.1201C45.1652 18.1201 42.2208 20.2655 42.2208 22.9107C42.2208 24.8317 43.7814 26.4875 46.0288 27.2491C45.7879 28.3524 45.3737 29.4104 44.8014 30.3839C45.617 30.2626 46.3943 29.9574 47.0747 29.4915C47.755 29.0256 48.3205 28.4111 48.7284 27.6945H48.7998C52.4344 27.6945 55.3788 25.5525 55.3788 22.9073C55.3788 20.2621 52.4344 18.1201 48.7998 18.1201Z" fill="#212121"/>
<path opacity="0.7" d="M48.7998 18.1201C45.1652 18.1201 42.2208 20.2655 42.2208 22.9107C42.2208 24.8317 43.7814 26.4875 46.0288 27.2491C45.7879 28.3524 45.3737 29.4104 44.8014 30.3839C45.617 30.2626 46.3943 29.9574 47.0747 29.4915C47.755 29.0256 48.3205 28.4111 48.7284 27.6945H48.7998C52.4344 27.6945 55.3788 25.5525 55.3788 22.9073C55.3788 20.2621 52.4344 18.1201 48.7998 18.1201Z" fill="white"/>
<path d="M45.8997 23.8318C46.2696 23.8318 46.5695 23.5319 46.5695 23.162C46.5695 22.7921 46.2696 22.4922 45.8997 22.4922C45.5297 22.4922 45.2299 22.7921 45.2299 23.162C45.2299 23.5319 45.5297 23.8318 45.8997 23.8318Z" fill="#263238"/>
<path d="M49.4254 23.1624C49.4254 23.2969 49.3856 23.4284 49.3108 23.5402C49.2361 23.652 49.1299 23.7392 49.0057 23.7907C48.8814 23.8421 48.7447 23.8556 48.6128 23.8294C48.4809 23.8031 48.3597 23.7384 48.2646 23.6433C48.1695 23.5482 48.1047 23.427 48.0785 23.2951C48.0523 23.1632 48.0657 23.0265 48.1172 22.9022C48.1687 22.7779 48.2558 22.6717 48.3676 22.597C48.4795 22.5223 48.6109 22.4824 48.7454 22.4824C48.9258 22.4824 49.0987 22.5541 49.2263 22.6816C49.3538 22.8091 49.4254 22.9821 49.4254 23.1624Z" fill="#263238"/>
<path d="M51.6116 23.8318C51.9815 23.8318 52.2814 23.5319 52.2814 23.162C52.2814 22.7921 51.9815 22.4922 51.6116 22.4922C51.2417 22.4922 50.9418 22.7921 50.9418 23.162C50.9418 23.5319 51.2417 23.8318 51.6116 23.8318Z" fill="#263238"/>
<path d="M108.48 91.4168C108.48 91.4168 108.524 86.8778 106.872 87.4762C105.219 88.0746 108.48 91.4168 108.48 91.4168Z" fill="#212121"/>
<path d="M110.255 87.2143C110.255 87.2143 112.444 83.5831 110.466 83.0629C108.487 82.5427 110.255 87.2143 110.255 87.2143Z" fill="#212121"/>
<path d="M118.908 84.6505C118.908 84.6505 123.454 84.4159 122.427 82.7125C121.4 81.0091 118.908 84.6505 118.908 84.6505Z" fill="#212121"/>
<path d="M111.717 85.858C111.717 85.858 116.477 84.7836 115.586 87.456C114.695 90.1284 111.717 85.858 111.717 85.858Z" fill="#212121"/>
<path d="M108.259 95.5203C108.259 95.5203 106.44 91.3995 105.42 92.8649C104.4 94.3303 108.259 95.5203 108.259 95.5203Z" fill="#212121"/>
<path d="M113.447 85.001C113.447 85.001 118.296 83.7294 116.786 81.941C115.277 80.1526 113.447 85.001 113.447 85.001Z" fill="#212121"/>
<path d="M117.113 84.501C117.113 84.501 120.948 86.3846 119.18 87.6154C117.412 88.8462 117.113 84.501 117.113 84.501Z" fill="#212121"/>
<path d="M108.959 89.5907C108.959 89.5907 111.615 86.3947 112.434 88.7169C113.254 91.0391 108.959 89.5907 108.959 89.5907Z" fill="#212121"/>
<g opacity="0.4">
<path d="M108.259 95.5203C108.259 95.5203 106.44 91.3995 105.42 92.8649C104.4 94.3303 108.259 95.5203 108.259 95.5203Z" fill="white"/>
<path d="M113.447 85.001C113.447 85.001 118.296 83.7294 116.786 81.941C115.277 80.1526 113.447 85.001 113.447 85.001Z" fill="white"/>
<path d="M117.113 84.501C117.113 84.501 120.948 86.3846 119.18 87.6154C117.412 88.8462 117.113 84.501 117.113 84.501Z" fill="white"/>
<path d="M108.959 89.5907C108.959 89.5907 111.615 86.3947 112.434 88.7169C113.254 91.0391 108.959 89.5907 108.959 89.5907Z" fill="white"/>
</g>
<path d="M108.232 93.7392C108.232 93.7392 110.136 89.6592 111.669 91.7162C113.203 93.7732 108.232 93.7392 108.232 93.7392Z" fill="#212121"/>
<path d="M108.262 98.0299C107.685 95.3711 107.768 92.6115 108.504 89.9922C110.061 84.8922 114.838 83.6921 119.666 84.4639C120.05 84.5251 119.88 85.103 119.499 85.0418C116.936 84.6338 114.059 84.5931 111.826 86.1435C110.228 87.2621 109.323 89.0403 108.888 90.9035C108.378 93.2009 108.365 95.5809 108.851 97.8837C108.929 98.2645 108.344 98.4141 108.262 98.0333V98.0299Z" fill="#212121"/>
<g opacity="0.3">
<path d="M108.262 98.0299C107.685 95.3711 107.768 92.6115 108.504 89.9922C110.061 84.8922 114.838 83.6921 119.666 84.4639C120.05 84.5251 119.88 85.103 119.499 85.0418C116.936 84.6338 114.059 84.5931 111.826 86.1435C110.228 87.2621 109.323 89.0403 108.888 90.9035C108.378 93.2009 108.365 95.5809 108.851 97.8837C108.929 98.2645 108.344 98.4141 108.262 98.0333V98.0299Z" fill="black"/>
</g>
<path d="M104.478 90.0398C104.478 90.0398 102.098 84.491 100.555 85.9394C99.011 87.3878 104.478 90.0398 104.478 90.0398Z" fill="#212121"/>
<path d="M104.274 84.1378C104.274 84.1378 104.839 78.7624 102.309 78.9936C99.7794 79.2248 104.274 84.1378 104.274 84.1378Z" fill="#212121"/>
<path d="M112.771 77.2423C112.771 77.2423 117.82 74.9745 115.746 73.3493C113.672 71.7241 112.771 77.2423 112.771 77.2423Z" fill="#212121"/>
<path d="M105.219 81.8495C105.219 81.8495 110.078 78.4495 110.476 82.1079C110.874 85.7663 105.219 81.8495 105.219 81.8495Z" fill="#212121"/>
<path d="M106.416 95.1193C106.416 95.1193 102.136 90.9101 101.751 93.1337C101.367 95.3573 106.416 95.1193 106.416 95.1193Z" fill="#212121"/>
<path d="M106.732 80.0508C106.732 80.0508 111.581 76.3856 108.908 74.8658C106.236 73.346 106.732 80.0508 106.732 80.0508Z" fill="#212121"/>
<path d="M110.646 77.8438C110.646 77.8438 116.014 78.4659 114.651 80.7338C113.288 83.0016 110.646 77.8438 110.646 77.8438Z" fill="#212121"/>
<path d="M104.06 87.5954C104.06 87.5954 105.386 82.5464 107.555 85.0182C109.724 87.49 104.06 87.5954 104.06 87.5954Z" fill="#212121"/>
<g opacity="0.4">
<path d="M106.416 95.1193C106.416 95.1193 102.136 90.9101 101.751 93.1337C101.367 95.3573 106.416 95.1193 106.416 95.1193Z" fill="white"/>
<path d="M106.732 80.0508C106.732 80.0508 111.581 76.3856 108.908 74.8658C106.236 73.346 106.732 80.0508 106.732 80.0508Z" fill="white"/>
<path d="M110.646 77.8438C110.646 77.8438 116.014 78.4659 114.651 80.7338C113.288 83.0016 110.646 77.8438 110.646 77.8438Z" fill="white"/>
<path d="M104.06 87.5954C104.06 87.5954 105.386 82.5464 107.555 85.0182C109.724 87.49 104.06 87.5954 104.06 87.5954Z" fill="white"/>
</g>
<path d="M105.44 92.9643C105.44 92.9643 105.44 87.1605 108.276 88.9999C111.112 90.8393 105.44 92.9643 105.44 92.9643Z" fill="#212121"/>
<path d="M107.749 98.1728C105.757 95.259 104.22 91.7128 103.757 88.2856C102.826 81.404 107.62 77.851 113.532 76.6814C114.002 76.5896 114.114 77.3614 113.651 77.4634C110.513 78.0822 107.191 79.296 105.491 82.152C104.264 84.209 104.176 86.7692 104.669 89.224C105.325 92.2692 106.57 95.1567 108.334 97.724C108.362 97.7628 108.383 97.8069 108.395 97.8538C108.406 97.9006 108.408 97.9492 108.401 97.9969C108.394 98.0446 108.377 98.0903 108.352 98.1316C108.327 98.1729 108.294 98.2088 108.256 98.2374C108.217 98.266 108.173 98.2866 108.126 98.2982C108.079 98.3097 108.03 98.3119 107.983 98.3046C107.935 98.2974 107.889 98.2808 107.848 98.2558C107.807 98.2309 107.771 98.198 107.742 98.1592L107.749 98.1728Z" fill="#212121"/>
<g opacity="0.3">
<path d="M107.749 98.1728C105.757 95.259 104.22 91.7128 103.757 88.2856C102.826 81.404 107.62 77.851 113.532 76.6814C114.002 76.5896 114.114 77.3614 113.651 77.4634C110.513 78.0822 107.191 79.296 105.491 82.152C104.264 84.209 104.176 86.7692 104.669 89.224C105.325 92.2692 106.57 95.1567 108.334 97.724C108.362 97.7628 108.383 97.8069 108.395 97.8538C108.406 97.9006 108.408 97.9492 108.401 97.9969C108.394 98.0446 108.377 98.0903 108.352 98.1316C108.327 98.1729 108.294 98.2088 108.256 98.2374C108.217 98.266 108.173 98.2866 108.126 98.2982C108.079 98.3097 108.03 98.3119 107.983 98.3046C107.935 98.2974 107.889 98.2808 107.848 98.2558C107.807 98.2309 107.771 98.198 107.742 98.1592L107.749 98.1728Z" fill="black"/>
</g>
<path d="M103.914 91.4988C103.914 91.4988 105.043 87.735 106.253 88.653C107.463 89.571 103.914 91.4988 103.914 91.4988Z" fill="#212121"/>
<path d="M103.519 87.5684C103.519 87.5684 102.646 84.0018 104.414 84.0834C106.182 84.165 103.519 87.5684 103.519 87.5684Z" fill="#212121"/>
<path d="M97.0288 83.2401C97.0288 83.2401 93.333 81.8801 94.6216 80.7343C95.9102 79.5885 97.0288 83.2401 97.0288 83.2401Z" fill="#212121"/>
<path d="M102.663 86.0689C102.663 86.0689 98.9974 83.9575 99.0552 86.4089C99.113 88.8603 102.663 86.0689 102.663 86.0689Z" fill="#212121"/>
<path d="M103.04 94.9432C103.04 94.9432 105.617 92.0158 106.083 93.4846C106.549 94.9534 103.04 94.9432 103.04 94.9432Z" fill="#212121"/>
<path d="M101.452 84.9164C101.452 84.9164 97.7734 82.618 99.4802 81.5164C101.187 80.4148 101.452 84.9164 101.452 84.9164Z" fill="#212121"/>
<path d="M98.5486 83.5801C98.5486 83.5801 94.897 84.1513 96.0428 85.6201C97.1886 87.0889 98.5486 83.5801 98.5486 83.5801Z" fill="#212121"/>
<path d="M103.982 89.8628C103.982 89.8628 102.622 86.5376 101.333 88.2478C100.045 89.958 103.982 89.8628 103.982 89.8628Z" fill="#212121"/>
<g opacity="0.4">
<path d="M103.04 94.9432C103.04 94.9432 105.617 92.0158 106.083 93.4846C106.549 94.9534 103.04 94.9432 103.04 94.9432Z" fill="white"/>
<path d="M101.452 84.9164C101.452 84.9164 97.7734 82.618 99.4802 81.5164C101.187 80.4148 101.452 84.9164 101.452 84.9164Z" fill="white"/>
<path d="M98.5486 83.5801C98.5486 83.5801 94.897 84.1513 96.0428 85.6201C97.1886 87.0889 98.5486 83.5801 98.5486 83.5801Z" fill="white"/>
<path d="M103.982 89.8637C103.982 89.8637 102.622 86.5385 101.333 88.2487C100.045 89.9589 103.982 89.8637 103.982 89.8637Z" fill="white"/>
</g>
<path d="M103.513 93.4778C103.513 93.4778 102.992 89.612 101.194 90.921C99.3952 92.23 103.513 93.4778 103.513 93.4778Z" fill="#212121"/>
<path d="M102.387 97.0138C103.548 94.9663 104.188 92.6651 104.25 90.3124C104.274 85.702 100.64 83.4784 96.4508 82.8732C96.1108 82.8256 96.1108 83.3492 96.4508 83.3968C98.6744 83.7164 101.071 84.4168 102.506 86.28C103.526 87.6128 103.832 89.3162 103.713 90.9652C103.544 92.9957 102.942 94.9665 101.949 96.7452C101.785 97.0376 102.231 97.313 102.397 97.0172L102.387 97.0138Z" fill="#212121"/>
<g opacity="0.3">
<path d="M102.387 97.0138C103.548 94.9663 104.188 92.6651 104.25 90.3124C104.274 85.702 100.64 83.4784 96.4508 82.8732C96.1108 82.8256 96.1108 83.3492 96.4508 83.3968C98.6744 83.7164 101.071 84.4168 102.506 86.28C103.526 87.6128 103.832 89.3162 103.713 90.9652C103.544 92.9957 102.942 94.9665 101.949 96.7452C101.785 97.0376 102.231 97.313 102.397 97.0172L102.387 97.0138Z" fill="black"/>
</g>
<path d="M112.968 96.0576L111.652 105.982C111.57 106.599 111.266 107.166 110.798 107.576C110.33 107.986 109.728 108.212 109.106 108.213H100.922C100.299 108.212 99.6978 107.986 99.2295 107.576C98.7611 107.166 98.4575 106.599 98.3752 105.982L97.0594 96.0576H112.968Z" fill="#212121"/>
<path opacity="0.3" d="M112.968 96.0576L111.652 105.982C111.57 106.599 111.266 107.166 110.798 107.576C110.33 107.986 109.728 108.212 109.106 108.213H100.922C100.299 108.212 99.6978 107.986 99.2295 107.576C98.7611 107.166 98.4575 106.599 98.3752 105.982L97.0594 96.0576H112.968Z" fill="white"/>
<path d="M39.0758 76.9941H36.842V91.6753H39.0758V76.9941Z" fill="#263238"/>
<path opacity="0.5" d="M39.0758 76.9941H36.842V91.6753H39.0758V76.9941Z" fill="white"/>
<path d="M44.747 102.671L39.5144 101.726V91.22C39.5149 91.1427 39.5 91.066 39.4706 90.9944C39.4412 90.9229 39.3978 90.8578 39.3431 90.8031C39.2884 90.7484 39.2234 90.7051 39.1518 90.6757C39.0803 90.6463 39.0036 90.6314 38.9262 90.6318H36.9916C36.9141 90.6314 36.8372 90.6463 36.7655 90.6756C36.6937 90.705 36.6285 90.7483 36.5735 90.8029C36.5185 90.8576 36.4749 90.9226 36.4451 90.9942C36.4153 91.0658 36.4 91.1425 36.4 91.22V101.726L31.1708 102.671C30.8037 102.737 30.4713 102.929 30.232 103.215C29.9927 103.501 29.8616 103.862 29.8618 104.235L37.9572 103.504L46.056 104.235C46.0555 103.863 45.9243 103.502 45.685 103.216C45.4458 102.93 45.1138 102.737 44.747 102.671Z" fill="#263238"/>
<path d="M31.5619 105.823C31.5619 106.159 31.4622 106.488 31.2754 106.768C31.0886 107.047 30.8231 107.265 30.5124 107.394C30.2018 107.522 29.86 107.556 29.5302 107.49C29.2004 107.425 28.8975 107.263 28.6598 107.025C28.422 106.787 28.2601 106.484 28.1945 106.155C28.1289 105.825 28.1626 105.483 28.2913 105.172C28.4199 104.862 28.6378 104.596 28.9174 104.41C29.197 104.223 29.5256 104.123 29.8619 104.123C30.3127 104.123 30.7451 104.302 31.0639 104.621C31.3828 104.94 31.5619 105.372 31.5619 105.823Z" fill="#212121"/>
<path d="M47.7561 105.823C47.7561 106.159 47.6564 106.488 47.4696 106.768C47.2828 107.047 47.0173 107.265 46.7066 107.394C46.396 107.522 46.0542 107.556 45.7244 107.49C45.3947 107.425 45.0917 107.263 44.854 107.025C44.6162 106.787 44.4543 106.484 44.3887 106.155C44.3231 105.825 44.3568 105.483 44.4855 105.172C44.6142 104.862 44.832 104.596 45.1116 104.41C45.3912 104.223 45.7198 104.123 46.0561 104.123C46.2793 104.123 46.5004 104.167 46.7066 104.252C46.9129 104.338 47.1003 104.463 47.2582 104.621C47.416 104.779 47.5412 104.966 47.6267 105.172C47.7121 105.379 47.7561 105.6 47.7561 105.823Z" fill="#212121"/>
<path d="M39.2866 105.823C39.2866 106.761 38.899 107.523 37.9572 107.523C37.0154 107.523 36.6312 106.761 36.6312 105.823C36.6312 104.885 37.0188 104.123 37.9572 104.123C38.8956 104.123 39.2866 104.885 39.2866 105.823Z" fill="#212121"/>
<g opacity="0.5">
<path d="M39.5654 101.733V103.651L40.1978 103.709V101.849L39.5654 101.733Z" fill="black"/>
<path d="M35.7336 101.846V103.705L36.366 103.651V101.733L35.7336 101.846Z" fill="black"/>
</g>
<path d="M23.3747 63.6221C23.2337 63.6223 23.0945 63.6534 22.967 63.7133C22.8394 63.7732 22.7265 63.8604 22.6364 63.9687C22.5462 64.077 22.4809 64.2039 22.4452 64.3402C22.4094 64.4765 22.4041 64.619 22.4295 64.7577L24.5035 75.9335C24.5972 76.4413 24.8658 76.9003 25.2627 77.2307C25.6596 77.5611 26.1596 77.7421 26.676 77.7423H59.3602C59.553 77.7423 59.7438 77.7043 59.9218 77.6304C60.0998 77.5566 60.2615 77.4483 60.3976 77.3119C60.5338 77.1754 60.6416 77.0135 60.7151 76.8353C60.7885 76.6571 60.8261 76.4662 60.8256 76.2735C60.8256 75.7207 60.6061 75.1906 60.2152 74.7997C59.8243 74.4089 59.2942 74.1893 58.7414 74.1893H40.0924C39.5982 74.1894 39.1181 74.0241 38.7286 73.7198C38.3392 73.4154 38.0629 72.9894 37.9436 72.5097L36.2743 65.7709C36.1224 65.1578 35.7698 64.6132 35.2726 64.2238C34.7753 63.8343 34.162 63.6225 33.5304 63.6221H23.3747Z" fill="#263238"/>
<path d="M27.7878 72.5097L26.1184 65.7709C25.9666 65.1578 25.614 64.6132 25.1168 64.2238C24.6195 63.8343 24.0062 63.6225 23.3747 63.6221C23.2337 63.6223 23.0945 63.6534 22.967 63.7133C22.8394 63.7732 22.7265 63.8604 22.6364 63.9687C22.5462 64.077 22.4809 64.2039 22.4452 64.3402C22.4094 64.4765 22.4041 64.619 22.4295 64.7577L24.5035 75.9335C24.5972 76.4413 24.8658 76.9003 25.2627 77.2307C25.6596 77.5611 26.1596 77.7421 26.676 77.7423H49.201C49.3941 77.7427 49.5853 77.705 49.7637 77.6314C49.9421 77.5577 50.1042 77.4495 50.2406 77.3131C50.3771 77.1766 50.4853 77.0145 50.559 76.8361C50.6326 76.6577 50.6703 76.4665 50.6698 76.2735C50.6689 75.721 50.4491 75.1914 50.0584 74.8007C49.6677 74.41 49.1381 74.1902 48.5856 74.1893H29.94C29.445 74.1908 28.9638 74.0261 28.5736 73.7215C28.1834 73.417 27.9067 72.9902 27.7878 72.5097Z" fill="#263238"/>
<path opacity="0.2" d="M27.7878 72.5097L26.1184 65.7709C25.9666 65.1578 25.614 64.6132 25.1168 64.2238C24.6195 63.8343 24.0062 63.6225 23.3747 63.6221C23.2337 63.6223 23.0945 63.6534 22.967 63.7133C22.8394 63.7732 22.7265 63.8604 22.6364 63.9687C22.5462 64.077 22.4809 64.2039 22.4452 64.3402C22.4094 64.4765 22.4041 64.619 22.4295 64.7577L24.5035 75.9335C24.5972 76.4413 24.8658 76.9003 25.2627 77.2307C25.6596 77.5611 26.1596 77.7421 26.676 77.7423H49.201C49.3941 77.7427 49.5853 77.705 49.7637 77.6314C49.9421 77.5577 50.1042 77.4495 50.2406 77.3131C50.3771 77.1766 50.4853 77.0145 50.559 76.8361C50.6326 76.6577 50.6703 76.4665 50.6698 76.2735C50.6689 75.721 50.4491 75.1914 50.0584 74.8007C49.6677 74.41 49.1381 74.1902 48.5856 74.1893H29.94C29.445 74.1908 28.9638 74.0261 28.5736 73.7215C28.1834 73.417 27.9067 72.9902 27.7878 72.5097Z" fill="white"/>
<path d="M41.5952 31.6455C41.5952 31.6455 45.3148 32.7539 43.5774 35.5045L41.9624 33.1517L41.5952 31.6455Z" fill="#263238"/>
<path d="M54.9946 45.8234L56.6164 43.4434L58.2212 43.9534L58.5136 44.5994L56.5144 47.4588L54.9946 45.8234Z" fill="#DBB178"/>
<path d="M57.3985 46.4451C55.7733 48.9951 53.2097 52.7147 52.2305 52.4937C49.3541 51.8511 45.3999 49.1277 43.3701 46.1357C43.0637 45.6843 42.938 45.1343 43.018 44.5947C43.098 44.055 43.3778 43.5651 43.8019 43.2219V43.2015C44.0232 43.0208 44.278 42.8856 44.5517 42.8035C44.8254 42.7214 45.1126 42.6941 45.3968 42.7232C45.681 42.7522 45.9567 42.8371 46.2081 42.9728C46.4596 43.1086 46.6817 43.2926 46.8619 43.5143C46.8993 43.5585 46.9333 43.6061 46.9673 43.6537C48.7659 46.2343 51.0473 48.6823 51.4213 48.8897C51.8599 49.1413 52.9989 48.0635 55.4095 45.0171L57.3985 46.4451Z" fill="#212121"/>
<path opacity="0.6" d="M57.3985 46.4451C55.7733 48.9951 53.2097 52.7147 52.2305 52.4937C49.3541 51.8511 45.3999 49.1277 43.3701 46.1357C43.0637 45.6843 42.938 45.1343 43.018 44.5947C43.098 44.055 43.3778 43.5651 43.8019 43.2219V43.2015C44.0232 43.0208 44.278 42.8856 44.5517 42.8035C44.8254 42.7214 45.1126 42.6941 45.3968 42.7232C45.681 42.7522 45.9567 42.8371 46.2081 42.9728C46.4596 43.1086 46.6817 43.2926 46.8619 43.5143C46.8993 43.5585 46.9333 43.6061 46.9673 43.6537C48.7659 46.2343 51.0473 48.6823 51.4213 48.8897C51.8599 49.1413 52.9989 48.0635 55.4095 45.0171L57.3985 46.4451Z" fill="white"/>
<path d="M57.4359 44.389L60.6489 45.018L59.1529 42.3252C59.1529 42.3252 57.2081 42.3252 56.6165 43.4438L57.4359 44.389Z" fill="#DBB178"/>
<path opacity="0.2" d="M48.13 50.6342C45.801 49.043 45.4916 45.3098 45.4916 45.3098L44.1724 44.708L43.54 46.3876C44.8037 48.0663 46.3584 49.5046 48.13 50.6342Z" fill="black"/>
<path d="M62.9201 43.8654L61.5465 41.6758L59.1562 42.3252L60.6489 45.018L62.9201 43.8654Z" fill="#DBB178"/>
<path d="M45.0769 58.8084L33.6801 59.5564C33.6801 59.5564 33.5985 56.4964 33.2007 53.6778C33.0773 52.6969 32.8818 51.7264 32.6159 50.7742C32.3201 49.8018 31.9359 48.7104 31.4939 47.4422C31.4361 47.2858 31.3783 47.1294 31.3137 46.9662C31.1641 46.5718 31.0111 46.1604 30.8377 45.732V45.7116C30.6837 45.2929 30.7004 44.8305 30.8842 44.4241C31.068 44.0177 31.4042 43.6998 31.8203 43.539C31.8986 43.5085 31.9794 43.4846 32.0617 43.4676C32.7859 43.3146 33.5169 43.1752 34.2581 43.0596L34.8973 42.9644C36.6038 42.7101 38.3237 42.5557 40.0483 42.502C40.9425 42.502 41.8979 42.5292 42.7139 42.5666L43.3939 42.6006C44.2575 42.6516 44.8559 42.706 44.8559 42.706C44.8559 42.706 45.2299 42.7808 45.4509 44.7834C45.4559 44.8972 45.4672 45.0107 45.4849 45.1234C45.5121 45.5382 45.5359 46.0618 45.5461 46.6908C45.5801 49.2612 45.4271 53.5758 45.0769 58.8084Z" fill="#212121"/>
<path opacity="0.6" d="M45.0769 58.8084L33.6801 59.5564C33.6801 59.5564 33.5985 56.4964 33.2007 53.6778C33.0773 52.6969 32.8818 51.7264 32.6159 50.7742C32.3201 49.8018 31.9359 48.7104 31.4939 47.4422C31.4361 47.2858 31.3783 47.1294 31.3137 46.9662C31.1641 46.5718 31.0111 46.1604 30.8377 45.732V45.7116C30.6837 45.2929 30.7004 44.8305 30.8842 44.4241C31.068 44.0177 31.4042 43.6998 31.8203 43.539C31.8986 43.5085 31.9794 43.4846 32.0617 43.4676C32.7859 43.3146 33.5169 43.1752 34.2581 43.0596L34.8973 42.9644C36.6038 42.7101 38.3237 42.5557 40.0483 42.502C40.9425 42.502 41.8979 42.5292 42.7139 42.5666L43.3939 42.6006C44.2575 42.6516 44.8559 42.706 44.8559 42.706C44.8559 42.706 45.2299 42.7808 45.4509 44.7834C45.4559 44.8972 45.4672 45.0107 45.4849 45.1234C45.5121 45.5382 45.5359 46.0618 45.5461 46.6908C45.5801 49.2612 45.4271 53.5758 45.0769 58.8084Z" fill="white"/>
<path d="M35.295 42.9096L38.1374 46.6972L40.1774 44.9496L42.8294 46.228L41.3946 42.5186C40.9526 42.5186 40.497 42.5186 40.0584 42.5186C38.4647 42.5617 36.8745 42.6922 35.295 42.9096Z" fill="#212121"/>
<path opacity="0.9" d="M35.295 42.9096L38.1374 46.6972L40.1774 44.9496L42.8294 46.228L41.3946 42.5186C40.9526 42.5186 40.497 42.5186 40.0584 42.5186C38.4647 42.5617 36.8745 42.6922 35.295 42.9096Z" fill="white"/>
<path d="M60.4517 104.515H58.0275L59.1325 86.2158H63.6681L60.4517 104.515Z" fill="#DBB178"/>
<path d="M57.7589 104.283C57.7317 104.052 60.6251 103.834 60.6251 103.834C60.6251 103.834 62.6379 105.384 64.4059 105.534C66.1739 105.684 65.3613 106.857 63.4471 107.122L58.7109 107.802C57.3509 108.002 58.0377 106.7 57.7589 104.283Z" fill="#263238"/>
<path d="M62.0769 104.382C61.7079 104.36 61.3433 104.29 60.9923 104.174C60.9782 104.171 60.9653 104.164 60.9549 104.154C60.948 104.131 60.948 104.106 60.9549 104.082C60.9549 104.052 61.1147 103.334 61.4853 103.124C61.5408 103.09 61.6029 103.068 61.6675 103.061C61.732 103.053 61.7974 103.059 61.8593 103.079C62.0395 103.134 62.0871 103.236 62.0905 103.307C62.0905 103.453 61.9511 103.617 61.7505 103.766C61.9439 103.712 62.1486 103.712 62.3421 103.766C62.3842 103.782 62.4227 103.806 62.4553 103.837C62.488 103.868 62.5142 103.905 62.5325 103.946C62.5609 104 62.5731 104.061 62.5676 104.121C62.5622 104.181 62.5394 104.239 62.5019 104.286C62.3782 104.373 62.2256 104.407 62.0769 104.382ZM61.2983 104.076C61.7335 104.188 62.2435 104.263 62.3557 104.14C62.3829 104.116 62.3761 104.065 62.3557 104.004C62.3474 103.984 62.3349 103.966 62.3191 103.952C62.3032 103.937 62.2844 103.926 62.2639 103.919C61.9337 103.88 61.5992 103.934 61.2983 104.076ZM61.6927 103.226C61.6422 103.226 61.5927 103.24 61.5499 103.266C61.3562 103.435 61.2196 103.66 61.1589 103.909C61.5329 103.695 61.9069 103.426 61.9069 103.311C61.9069 103.29 61.8661 103.263 61.8015 103.239C61.7661 103.229 61.7294 103.225 61.6927 103.226Z" fill="#212121"/>
<path opacity="0.2" d="M58.9386 89.4152L63.0832 89.541L63.668 86.2158H59.1324L58.9386 89.4152Z" fill="black"/>
<path d="M48.8168 104.824L46.4946 104.515L50.17 84.2539L54.7532 85.5629L48.8168 104.824Z" fill="#DBB178"/>
<path d="M46.192 104.191C46.192 103.953 49.0888 104.191 49.0888 104.191C49.0888 104.191 50.8466 106.023 52.5704 106.435C54.2942 106.846 53.3184 107.89 51.3872 107.863L46.6 107.805C45.2162 107.791 46.1002 106.632 46.192 104.191Z" fill="#263238"/>
<path d="M50.6121 104.946C50.1886 104.894 49.7777 104.767 49.3983 104.572L49.3745 104.551C49.3729 104.548 49.3721 104.544 49.3721 104.539C49.3721 104.535 49.3729 104.531 49.3745 104.528C49.3694 104.517 49.3667 104.505 49.3667 104.494C49.3667 104.482 49.3694 104.47 49.3745 104.46C49.3745 104.432 49.6397 103.752 50.0545 103.593C50.1131 103.566 50.1769 103.552 50.2415 103.552C50.306 103.552 50.3698 103.566 50.4285 103.593C50.5985 103.678 50.6291 103.78 50.6223 103.851C50.6223 103.997 50.4387 104.137 50.2245 104.252C50.4242 104.228 50.6267 104.26 50.8093 104.344C50.8484 104.365 50.8827 104.394 50.9097 104.429C50.9366 104.464 50.9557 104.505 50.9657 104.548C50.9875 104.603 50.9916 104.664 50.9776 104.722C50.9637 104.78 50.9322 104.832 50.8875 104.871C50.8077 104.928 50.7099 104.955 50.6121 104.946ZM49.7043 104.511C50.1191 104.687 50.6121 104.851 50.7243 104.735C50.7515 104.715 50.7583 104.667 50.7243 104.599C50.7191 104.579 50.7098 104.56 50.6969 104.543C50.6841 104.527 50.6679 104.514 50.6495 104.504C50.3392 104.423 50.0133 104.426 49.7043 104.511ZM50.1803 103.729C50.1429 103.73 50.106 103.738 50.0715 103.752C49.8573 103.888 49.6899 104.086 49.5921 104.32C50.0069 104.167 50.3979 103.946 50.4047 103.837C50.4047 103.817 50.3707 103.783 50.3129 103.756C50.2767 103.738 50.2375 103.726 50.1973 103.722L50.1803 103.729Z" fill="#212121"/>
<path opacity="0.2" d="M54.7532 85.5629L50.17 84.2539L49.4458 88.2489L53.689 89.0139L54.7532 85.5629Z" fill="black"/>
<path d="M57.9323 87.7859L63.7633 88.0919C65.2559 81.2171 66.7451 73.6385 66.4493 71.9759C65.8883 68.7901 61.5601 65.5465 44.7573 62.7959L36.9373 74.5463C36.9373 74.5463 48.3749 74.0125 58.7993 74.0125C58.7959 74.0193 58.2145 80.5609 57.9323 87.7859Z" fill="#212121"/>
<path opacity="0.1" d="M57.9323 87.7859L63.7633 88.0919C65.2559 81.2171 66.7451 73.6385 66.4493 71.9759C65.8883 68.7901 61.5601 65.5465 44.7573 62.7959L36.9373 74.5463C36.9373 74.5463 48.3749 74.0125 58.7993 74.0125C58.7959 74.0193 58.2145 80.5609 57.9323 87.7859Z" fill="black"/>
<path d="M57.5413 86.8721L57.7147 88.3987L64.1033 88.6163L64.4161 87.2121L57.5413 86.8721Z" fill="#212121"/>
<path d="M41.0342 42.5117H40.0482C38.6338 42.5559 37.2228 42.6715 35.8186 42.8517C36.4306 43.5827 38.338 44.7217 39.6164 44.7217C41.4014 44.7081 41.0036 43.3821 41.0342 42.5117Z" fill="#DBB178"/>
<path d="M48.8679 86.6027L54.8281 87.5717C57.2489 80.7955 59.6697 73.5841 59.6289 71.9589C59.5473 68.7221 58.8367 67.0425 47.1305 64.4313C47.1305 64.4313 46.5083 63.5235 45.0905 58.8213L33.6801 59.5693C33.6801 59.5693 28.4747 69.1573 32.5037 73.2509C33.3945 74.1621 35.1455 74.5701 36.9237 74.5531C36.9237 74.5531 41.0377 74.5735 51.2037 74.0975C51.2071 74.0975 50.0001 79.8979 48.8679 86.6027Z" fill="#212121"/>
<path d="M48.6298 85.5625L55.5352 86.7287L54.879 88.1805L48.5992 87.1503L48.6298 85.5625Z" fill="#212121"/>
<path opacity="0.1" d="M57.5413 86.8721L57.7147 88.3987L64.1033 88.6163L64.4161 87.2121L57.5413 86.8721Z" fill="black"/>
<path d="M40.1706 41.5288C40.0394 42.3683 40.074 43.2254 40.2726 44.0516L37.148 43.5926C37.0807 43.5827 37.0166 43.5574 36.9607 43.5186C36.9047 43.4798 36.8585 43.4287 36.8256 43.3691C36.7927 43.3096 36.774 43.2432 36.771 43.1752C36.7679 43.1073 36.7806 43.0395 36.808 42.9772C37.2364 42.0048 37.4064 40.0464 37.5118 39.1454C37.5696 38.6014 37.5934 38.105 37.5968 37.7582C37.6002 37.4114 37.5968 37.2822 37.5968 37.2822L38.9942 37.9214L41.2756 38.9652C40.7496 39.7428 40.3748 40.6125 40.1706 41.5288Z" fill="#DBB178"/>
<path opacity="0.2" d="M41.2824 38.9653C40.7514 39.7422 40.3708 40.6117 40.1604 41.5289C39.0203 41.0768 38.0788 40.2329 37.505 39.1489C37.5662 38.6049 37.59 38.1085 37.5934 37.7617C38.0898 37.8127 38.5522 37.8637 38.9942 37.9249L41.2824 38.9653Z" fill="black"/>
<path d="M41.449 36.7351C41.3572 37.7789 41.891 38.6221 42.639 38.6221C43.387 38.6221 44.0704 37.7789 44.1622 36.7351C44.254 35.6913 43.7202 34.8447 42.9722 34.8447C42.2242 34.8447 41.5408 35.6913 41.449 36.7351Z" fill="#212121"/>
<path opacity="0.5" d="M41.3164 36.7351C41.2246 37.7789 41.7584 38.6221 42.5064 38.6221C43.2544 38.6221 43.9344 37.7789 44.0262 36.7351C44.118 35.6913 43.5842 34.8447 42.8362 34.8447C42.0882 34.8447 41.4048 35.6913 41.3164 36.7351Z" fill="black"/>
<path d="M36.0838 34.8995C36.6414 37.4563 36.8352 38.9795 38.3448 40.1457C38.8315 40.5322 39.4148 40.7779 40.0313 40.8562C40.6479 40.9344 41.2741 40.8422 41.8419 40.5895C42.4097 40.3368 42.8973 39.9333 43.2519 39.4229C43.6064 38.9124 43.8143 38.3146 43.8528 37.6943C44.0534 35.3143 43.1082 31.5301 40.4154 30.8059C39.8366 30.6331 39.2226 30.6157 38.6349 30.7555C38.0473 30.8953 37.5068 31.1873 37.0678 31.6022C36.6288 32.017 36.3068 32.5402 36.134 33.119C35.9613 33.6978 35.944 34.3119 36.0838 34.8995Z" fill="#DBB178"/>
<path d="M35.4922 37.568C35.9063 38.0678 36.4805 38.409 37.1174 38.5336C37.9232 38.6696 38.1068 37.925 37.6954 37.2008C37.3282 36.5514 36.4612 35.698 35.7404 35.8884C35.0196 36.0788 34.972 36.939 35.4922 37.568Z" fill="#DBB178"/>
<path d="M40.1197 35.1513C40.1537 35.3621 40.2897 35.5185 40.4291 35.4913C40.5685 35.4641 40.6501 35.2907 40.6195 35.0833C40.5889 34.8759 40.4495 34.7161 40.3101 34.7433C40.1707 34.7705 40.0891 34.9405 40.1197 35.1513Z" fill="#263238"/>
<path d="M42.52 34.8689C42.5506 35.0797 42.69 35.2361 42.826 35.2089C42.962 35.1817 43.0504 35.0083 43.0198 34.7975C42.9892 34.5867 42.8464 34.4337 42.7104 34.4575C42.5744 34.4813 42.469 34.6581 42.52 34.8689Z" fill="#263238"/>
<path d="M41.7618 35.0625C42.1137 35.6751 42.5446 36.2387 43.0436 36.7387C42.9136 36.8584 42.7586 36.9479 42.59 37.0008C42.4213 37.0537 42.243 37.0687 42.0678 37.0447L41.7618 35.0625Z" fill="#C0854B"/>
<path d="M39.2662 34.4742C39.2461 34.4788 39.2252 34.4788 39.205 34.4742C39.1905 34.4665 39.1777 34.4558 39.1674 34.4429C39.1571 34.4301 39.1495 34.4153 39.145 34.3994C39.1406 34.3835 39.1394 34.3669 39.1415 34.3506C39.1437 34.3342 39.1491 34.3185 39.1574 34.3042C39.2489 34.1308 39.3818 33.9826 39.5443 33.8728C39.7068 33.7631 39.894 33.6952 40.089 33.6752C40.1052 33.6738 40.1215 33.6758 40.1369 33.6809C40.1523 33.6861 40.1665 33.6943 40.1786 33.7051C40.1907 33.7159 40.2005 33.7291 40.2073 33.7439C40.2141 33.7586 40.2178 33.7746 40.2182 33.7908C40.2196 33.8072 40.2177 33.8237 40.2126 33.8393C40.2075 33.8549 40.1993 33.8693 40.1885 33.8816C40.1778 33.894 40.1646 33.9041 40.1498 33.9113C40.1351 33.9185 40.119 33.9226 40.1026 33.9234C39.9493 33.9407 39.8025 33.9957 39.6756 34.0836C39.5486 34.1714 39.4454 34.2892 39.375 34.4266C39.3622 34.4429 39.3456 34.4558 39.3266 34.4641C39.3076 34.4724 39.2869 34.4759 39.2662 34.4742Z" fill="#263238"/>
<path d="M43.4006 33.9407C43.3804 33.9414 43.3603 33.9367 43.3424 33.9272C43.3245 33.9176 43.3094 33.9035 43.2986 33.8863C43.2123 33.7519 43.0964 33.6391 42.9596 33.5566C42.8229 33.474 42.669 33.424 42.5098 33.4103C42.4805 33.4054 42.4538 33.3903 42.4345 33.3675C42.4152 33.3448 42.4047 33.316 42.4047 33.2862C42.4047 33.2564 42.4152 33.2276 42.4345 33.2049C42.4538 33.1821 42.4805 33.167 42.5098 33.1621C42.7095 33.1753 42.9033 33.2351 43.0757 33.3367C43.2481 33.4382 43.3943 33.5787 43.5026 33.7469C43.5212 33.7741 43.5285 33.8074 43.5227 33.8399C43.517 33.8723 43.4988 33.9012 43.4721 33.9203C43.4505 33.9333 43.4258 33.9403 43.4006 33.9407Z" fill="#263238"/>
<path d="M36.5836 38.2618C36.5836 38.2618 38.2088 36.5992 37.4132 32.5192C37.4132 32.5192 38.7222 33.631 41.7618 32.8082C41.7618 32.8082 39.9632 32.985 39.1404 32.1282C39.1404 32.1282 40.8166 32.9068 43.5264 32.1282C43.5264 32.1282 43.0436 29.3844 40.1264 29.245C40.1264 29.245 41.0682 28.4528 41.976 28.6058C41.976 28.6058 41.0478 27.8068 38.6916 29.3606L37.76 29.7414C37.76 29.7414 35.1352 28.7962 33.68 31.0198C32.5206 32.7776 33.102 38.3128 36.5836 38.2618Z" fill="#263238"/>
<path d="M42.5438 37.5104C42.5438 37.5104 41.721 37.303 39.4022 37.252C39.6606 37.9558 40.1536 38.5372 41.3436 38.5508C41.4919 38.5672 41.642 38.5529 41.7844 38.5085C41.9269 38.4642 42.0586 38.3909 42.1714 38.2932C42.2841 38.1954 42.3754 38.0754 42.4395 37.9407C42.5036 37.806 42.5391 37.6595 42.5438 37.5104Z" fill="#263238"/>
<path d="M40.8201 37.9893C41.2771 37.9726 41.7278 38.0999 42.1087 38.3531C41.8862 38.4955 41.6242 38.5633 41.3607 38.5469C40.9055 38.566 40.4562 38.4385 40.0789 38.1831C40.2994 38.0422 40.5588 37.9744 40.8201 37.9893Z" fill="#A02724"/>
<path d="M42.4384 37.4902C42.4142 37.5756 42.3667 37.6526 42.3013 37.7127C42.2358 37.7727 42.155 37.8134 42.0678 37.8302C41.3829 37.8143 40.7006 37.7415 40.0278 37.6126C39.9202 37.603 39.8167 37.567 39.7266 37.5077C39.6364 37.4483 39.5623 37.3675 39.511 37.2726C40.4909 37.2694 41.4697 37.3421 42.4384 37.4902Z" fill="white"/>
<path d="M35.3223 35.78V33.0362C35.3221 32.2241 35.584 31.4337 36.0692 30.7825C36.5544 30.1313 37.2369 29.6541 38.0151 29.422L38.9331 29.2588C38.1351 29.4968 37.4354 29.9861 36.9379 30.6538C36.4405 31.3216 36.1719 32.1321 36.1723 32.9648V35.78H35.3223Z" fill="#212121"/>
<path d="M37.454 37.1092C37.5458 38.153 37.012 38.9962 36.264 38.9962C35.516 38.9962 34.8326 38.153 34.7442 37.1092C34.6558 36.0654 35.1862 35.2188 35.9342 35.2188C36.6822 35.2188 37.3622 36.0654 37.454 37.1092Z" fill="#212121"/>
<path opacity="0.5" d="M37.454 37.1092C37.5458 38.153 37.012 38.9962 36.264 38.9962C35.516 38.9962 34.8326 38.153 34.7442 37.1092C34.6558 36.0654 35.1862 35.2188 35.9342 35.2188C36.6822 35.2188 37.3622 36.0654 37.454 37.1092Z" fill="black"/>
<path d="M37.0018 37.1092C37.0902 38.153 36.5598 38.9962 35.8084 38.9962C35.057 38.9962 34.3804 38.153 34.2886 37.1092C34.1968 36.0654 34.7306 35.2188 35.4786 35.2188C36.2266 35.2188 36.91 36.0654 37.0018 37.1092Z" fill="#212121"/>
<path opacity="0.3" d="M36.0601 37.3847L35.9989 36.8339H36.1043C35.9683 36.2933 35.5875 35.8887 35.1693 35.8887C34.7511 35.8887 34.4451 36.2933 34.4009 36.8339H34.4723L34.5335 37.3847H34.4519C34.5879 37.9253 34.9687 38.3265 35.3835 38.3265C35.7983 38.3265 36.1111 37.9253 36.1519 37.3847H36.0601Z" fill="white"/>
<path d="M31.1742 37.34L32.66 34.416L33.8602 37.2516C33.8602 37.2516 32.6566 38.7816 31.4156 38.5606L31.1742 37.34Z" fill="#DBB178"/>
<path d="M34.9686 33.3389L35.8424 35.7699L33.8568 37.2523L32.66 34.4167L34.9686 33.3389Z" fill="#DBB178"/>
<path d="M31.5652 40.4886L32.9932 38.0848L32.8436 37.1056L31.5856 36.6602L29.7938 39.4482L31.5652 40.4886Z" fill="#DBB178"/>
<path d="M32.5954 38.9928L29.9876 44.732C29.9876 44.732 31.2558 43.593 31.9562 43.4298C33.0714 43.168 36.4374 44.1846 33.0272 47.8872C33.0272 47.8872 26.2748 52.1066 24.8978 50.4712C23.8268 49.1996 28.376 41.4714 30.4602 38.085L32.5954 38.9928Z" fill="#212121"/>
<path opacity="0.6" d="M32.5954 38.9928L29.9876 44.732C29.9876 44.732 31.2558 43.593 31.9562 43.4298C33.0714 43.168 36.4374 44.1846 33.0272 47.8872C33.0272 47.8872 26.2748 52.1066 24.8978 50.4712C23.8268 49.1996 28.376 41.4714 30.4602 38.085L32.5954 38.9928Z" fill="white"/>
<path opacity="0.2" d="M29.9876 44.7323L29.26 46.9729L31.3952 43.6885C30.8972 43.9958 30.4263 44.345 29.9876 44.7323Z" fill="black"/>
<path d="M39.7559 39.6418C39.4703 39.649 39.1847 39.6308 38.9025 39.5874C38.1748 39.3257 37.4708 39.0027 36.7979 38.6218L36.9339 38.377C37.5873 38.7436 38.2696 39.0563 38.9739 39.312C39.6979 39.3719 40.4258 39.3719 41.1499 39.312L41.1703 39.5942C41.1159 39.5942 40.4019 39.6418 39.7559 39.6418Z" fill="#212121"/>
<path d="M40.0619 39.7005L41.4219 39.5985C41.4219 39.5985 41.3845 39.1769 40.7419 39.1939C40.0993 39.2109 40.0619 39.7005 40.0619 39.7005Z" fill="#212121"/>
<g opacity="0.5">
<path d="M39.7559 39.6418C39.4703 39.649 39.1847 39.6308 38.9025 39.5874C38.1748 39.3257 37.4708 39.0027 36.7979 38.6218L36.9339 38.377C37.5873 38.7436 38.2696 39.0563 38.9739 39.312C39.6979 39.3719 40.4258 39.3719 41.1499 39.312L41.1703 39.5942C41.1159 39.5942 40.4019 39.6418 39.7559 39.6418Z" fill="black"/>
<path d="M40.0619 39.6995L41.4219 39.5975C41.4219 39.5975 41.3845 39.1759 40.7419 39.1929C40.0993 39.2099 40.0619 39.6995 40.0619 39.6995Z" fill="black"/>
</g>
<path d="M94.2203 107.904C94.1489 107.906 94.0776 107.895 94.0105 107.87C93.9435 107.845 93.882 107.808 93.8296 107.759C93.7771 107.71 93.7348 107.652 93.705 107.587C93.6752 107.522 93.6585 107.452 93.6559 107.38L90.2559 68.0149C90.25 67.6754 90.1173 67.3503 89.8839 67.1037C89.6504 66.8571 89.3332 66.7067 88.9945 66.6821H72.9329C72.5942 66.7067 72.277 66.8571 72.0435 67.1037C71.8101 67.3503 71.6774 67.6754 71.6715 68.0149L68.2715 107.38C68.2711 107.453 68.256 107.525 68.2272 107.592C68.1984 107.659 68.1565 107.72 68.1038 107.77C68.0512 107.82 67.9889 107.86 67.9208 107.886C67.8526 107.912 67.78 107.923 67.7071 107.921C67.5602 107.891 67.4303 107.806 67.3442 107.683C67.2582 107.56 67.2226 107.409 67.2447 107.261L70.6447 67.8925C70.7637 66.5155 71.7463 65.4785 72.9329 65.4785H88.9945C90.1811 65.4785 91.1637 66.5155 91.2827 67.8925L94.6827 107.261C94.7049 107.409 94.6692 107.56 94.5832 107.683C94.4971 107.806 94.3672 107.891 94.2203 107.921V107.904Z" fill="#212121"/>
<g opacity="0.4">
<path d="M94.2203 107.904C94.1489 107.906 94.0776 107.895 94.0105 107.87C93.9435 107.845 93.882 107.808 93.8296 107.759C93.7771 107.71 93.7348 107.652 93.705 107.587C93.6752 107.522 93.6585 107.452 93.6559 107.38L90.2559 68.0149C90.25 67.6754 90.1173 67.3503 89.8839 67.1037C89.6504 66.8571 89.3332 66.7067 88.9945 66.6821H72.9329C72.5942 66.7067 72.277 66.8571 72.0435 67.1037C71.8101 67.3503 71.6774 67.6754 71.6715 68.0149L68.2715 107.38C68.2711 107.453 68.256 107.525 68.2272 107.592C68.1984 107.659 68.1565 107.72 68.1038 107.77C68.0512 107.82 67.9889 107.86 67.9208 107.886C67.8526 107.912 67.78 107.923 67.7071 107.921C67.5602 107.891 67.4303 107.806 67.3442 107.683C67.2582 107.56 67.2226 107.409 67.2447 107.261L70.6447 67.8925C70.7637 66.5155 71.7463 65.4785 72.9329 65.4785H88.9945C90.1811 65.4785 91.1637 66.5155 91.2827 67.8925L94.6827 107.261C94.7049 107.409 94.6692 107.56 94.5832 107.683C94.4971 107.806 94.3672 107.891 94.2203 107.921V107.904Z" fill="black"/>
</g>
<path d="M93.996 63.7754H50.3366C49.9554 63.7754 49.6464 64.0844 49.6464 64.4656V66.7028C49.6464 67.084 49.9554 67.393 50.3366 67.393H93.996C94.3771 67.393 94.6862 67.084 94.6862 66.7028V64.4656C94.6862 64.0844 94.3771 63.7754 93.996 63.7754Z" fill="#263238"/>
<path opacity="0.2" d="M74.922 63.7754H93.996C94.1763 63.7754 94.3493 63.847 94.4768 63.9746C94.6044 64.1021 94.676 64.275 94.676 64.4554V66.6926C94.676 66.8729 94.6044 67.0459 94.4768 67.1734C94.3493 67.3009 94.1763 67.3726 93.996 67.3726H74.922V63.7754Z" fill="white"/>
<path d="M76.6288 107.904C76.5557 107.907 76.4826 107.896 76.4141 107.87C76.3455 107.844 76.2829 107.805 76.2299 107.755C76.1769 107.704 76.1346 107.643 76.1056 107.576C76.0765 107.509 76.0614 107.437 76.061 107.364L72.661 67.9983C72.6551 67.6588 72.5224 67.3338 72.289 67.0871C72.0555 66.8405 71.7383 66.6901 71.3996 66.6655H55.338C54.9999 66.6909 54.6835 66.8416 54.4508 67.0882C54.2181 67.3347 54.0858 67.6593 54.08 67.9983L50.68 107.381C50.6796 107.453 50.6645 107.525 50.6357 107.592C50.6069 107.659 50.5649 107.72 50.5123 107.77C50.4597 107.821 50.3974 107.86 50.3293 107.886C50.2611 107.912 50.1884 107.924 50.1156 107.921C49.9665 107.89 49.8355 107.802 49.7504 107.675C49.6653 107.549 49.6328 107.394 49.66 107.245L53.06 67.8759C53.179 66.4989 54.165 65.4619 55.3482 65.4619H71.4098C72.5964 65.4619 73.579 66.4989 73.698 67.8759L77.098 107.245C77.1203 107.392 77.0851 107.543 76.9997 107.666C76.9144 107.788 76.7853 107.874 76.639 107.904H76.6288Z" fill="#212121"/>
<g opacity="0.4">
<path d="M76.6288 107.904C76.5557 107.907 76.4826 107.896 76.4141 107.87C76.3455 107.844 76.2829 107.805 76.2299 107.755C76.1769 107.704 76.1346 107.643 76.1056 107.576C76.0765 107.509 76.0614 107.437 76.061 107.364L72.661 67.9983C72.6551 67.6588 72.5224 67.3338 72.289 67.0871C72.0555 66.8405 71.7383 66.6901 71.3996 66.6655H55.338C54.9999 66.6909 54.6835 66.8416 54.4508 67.0882C54.2181 67.3347 54.0858 67.6593 54.08 67.9983L50.68 107.381C50.6796 107.453 50.6645 107.525 50.6357 107.592C50.6069 107.659 50.5649 107.72 50.5123 107.77C50.4597 107.821 50.3974 107.86 50.3293 107.886C50.2611 107.912 50.1884 107.924 50.1156 107.921C49.9665 107.89 49.8355 107.802 49.7504 107.675C49.6653 107.549 49.6328 107.394 49.66 107.245L53.06 67.8759C53.179 66.4989 54.165 65.4619 55.3482 65.4619H71.4098C72.5964 65.4619 73.579 66.4989 73.698 67.8759L77.098 107.245C77.1203 107.392 77.0851 107.543 76.9997 107.666C76.9144 107.788 76.7853 107.874 76.639 107.904H76.6288Z" fill="black"/>
</g>
<path d="M64.0521 61.9941H76.6525V63.1807C76.6525 63.3385 76.5898 63.4899 76.4783 63.6015C76.3667 63.713 76.2153 63.7757 76.0575 63.7757H64.6471C64.4893 63.7757 64.338 63.713 64.2264 63.6015C64.1148 63.4899 64.0521 63.3385 64.0521 63.1807V62.0009V61.9941Z" fill="#263238"/>
<path opacity="0.2" d="M64.0521 61.9941H76.6525V63.1807C76.6525 63.3385 76.5898 63.4899 76.4783 63.6015C76.3667 63.713 76.2153 63.7757 76.0575 63.7757H64.6471C64.4893 63.7757 64.338 63.713 64.2264 63.6015C64.1148 63.4899 64.0521 63.3385 64.0521 63.1807V62.0009V61.9941Z" fill="white"/>
<path d="M55.1407 61.9941H67.7411V63.1807C67.7411 63.3385 67.6785 63.4899 67.5669 63.6015C67.4553 63.713 67.304 63.7757 67.1461 63.7757H55.7357C55.5779 63.7757 55.4266 63.713 55.315 63.6015C55.2034 63.4899 55.1407 63.3385 55.1407 63.1807V62.0009V61.9941Z" fill="#263238"/>
<path opacity="0.6" d="M55.1407 61.9941H67.7411V63.1807C67.7411 63.3385 67.6785 63.4899 67.5669 63.6015C67.4553 63.713 67.304 63.7757 67.1461 63.7757H55.7357C55.5779 63.7757 55.4266 63.713 55.315 63.6015C55.2034 63.4899 55.1407 63.3385 55.1407 63.1807V62.0009V61.9941Z" fill="white"/>
<path d="M66.2825 62.6699H65.1129V63.0915H66.2825V62.6699Z" fill="#263238"/>
<path d="M64.4091 62.6699H63.2395V63.0915H64.4091V62.6699Z" fill="#263238"/>
<path d="M77.54 63.7753H78.1418C78.3064 63.7718 78.4646 63.7107 78.5889 63.6026C78.7131 63.4945 78.7955 63.3463 78.8218 63.1837L80.8618 50.6411C80.8778 50.5415 80.8723 50.4397 80.8458 50.3424C80.8192 50.2451 80.7722 50.1546 80.7078 50.077C80.6434 49.9994 80.5631 49.9365 80.4724 49.8924C80.3817 49.8484 80.2826 49.8243 80.1818 49.8217L70.4 49.8047L67.7548 63.7447H68.3566L77.54 63.7753Z" fill="#263238"/>
<path opacity="0.6" d="M77.54 63.7753H78.1418C78.3064 63.7718 78.4646 63.7107 78.5889 63.6026C78.7131 63.4945 78.7955 63.3463 78.8218 63.1837L80.8618 50.6411C80.8778 50.5415 80.8723 50.4397 80.8458 50.3424C80.8192 50.2451 80.7722 50.1546 80.7078 50.077C80.6434 49.9994 80.5631 49.9365 80.4724 49.8924C80.3817 49.8484 80.2826 49.8243 80.1818 49.8217L70.4 49.8047L67.7548 63.7447H68.3566L77.54 63.7753Z" fill="white"/>
<path opacity="0.2" d="M67.9078 62.8672L67.7378 63.758H68.3396L77.5196 63.775H78.1214C78.286 63.7715 78.4443 63.7104 78.5685 63.6023C78.6928 63.4942 78.7752 63.346 78.8014 63.1834L78.849 62.8876L67.9078 62.8672Z" fill="black"/>
<path d="M67.7513 63.7685H68.3599C68.5246 63.7651 68.6828 63.704 68.8071 63.5959C68.9313 63.4878 69.0137 63.3395 69.0399 63.1769L71.0799 50.6275C71.096 50.5281 71.0906 50.4265 71.064 50.3293C71.0374 50.2322 70.9903 50.142 70.9258 50.0646C70.8614 49.9873 70.7811 49.9246 70.6904 49.881C70.5996 49.8373 70.5006 49.8136 70.3999 49.8115L67.7513 63.7685Z" fill="#263238"/>
<path opacity="0.3" d="M67.7513 63.7685H68.3599C68.5246 63.7651 68.6828 63.704 68.8071 63.5959C68.9313 63.4878 69.0137 63.3395 69.0399 63.1769L71.0799 50.6275C71.096 50.5281 71.0906 50.4265 71.064 50.3293C71.0374 50.2322 70.9903 50.142 70.9258 50.0646C70.8614 49.9873 70.7811 49.9246 70.6904 49.881C70.5996 49.8373 70.5006 49.8136 70.3999 49.8115L67.7513 63.7685Z" fill="white"/>
</g>
<defs>
<clipPath id="clip0_1106_28499">
<rect width="133" height="113" fill="white"/>
</clipPath>
</defs>
</svg>
