<svg width="441" height="495" viewBox="0 0 441 495" fill="none" xmlns="http://www.w3.org/2000/svg">
<mask id="mask0_1187_21997" style="mask-type:luminance" maskUnits="userSpaceOnUse" x="47" y="82" width="382" height="331">
<path d="M333.246 82.4538L380.844 164.892L428.442 247.33L380.835 329.778L333.222 412.225L238.01 412.233L142.797 412.238L95.1985 329.8L47.6003 247.362L95.2135 164.916L142.825 82.4656L238.036 82.4569L333.246 82.4538Z" fill="white"/>
</mask>
<g mask="url(#mask0_1187_21997)">
<path d="M-0.550675 158.968L280.765 -3.44088L475.335 333.547L194.02 495.955L-0.550675 158.968Z" fill="url(#paint0_linear_1187_21997)" stroke="url(#paint1_linear_1187_21997)" stroke-width="5"/>
</g>
<mask id="mask1_1187_21997" style="mask-type:luminance" maskUnits="userSpaceOnUse" x="101" y="119" width="311" height="269">
<path d="M334.135 119.733L179.294 119.743L101.866 253.826L179.276 387.897L334.115 387.884L411.545 253.804L334.135 119.733Z" fill="white"/>
</mask>
<g mask="url(#mask1_1187_21997)">
<path d="M295.428 52.6958L63.1553 186.791L217.975 454.932L450.248 320.837L295.428 52.6958Z" fill="url(#paint2_linear_1187_21997)" fill-opacity="0.8"/>
</g>
<path d="M149.174 312.154C148.148 312.154 147.224 311.978 146.402 311.626C145.581 311.259 144.936 310.746 144.466 310.086C143.997 309.426 143.762 308.656 143.762 307.776H146.446C146.505 308.436 146.762 308.979 147.216 309.404C147.686 309.829 148.338 310.042 149.174 310.042C150.04 310.042 150.714 309.837 151.198 309.426C151.682 309.001 151.924 308.458 151.924 307.798C151.924 307.285 151.77 306.867 151.462 306.544C151.169 306.221 150.795 305.972 150.34 305.796C149.9 305.62 149.284 305.429 148.492 305.224C147.495 304.96 146.681 304.696 146.05 304.432C145.434 304.153 144.906 303.728 144.466 303.156C144.026 302.584 143.806 301.821 143.806 300.868C143.806 299.988 144.026 299.218 144.466 298.558C144.906 297.898 145.522 297.392 146.314 297.04C147.106 296.688 148.023 296.512 149.064 296.512C150.546 296.512 151.756 296.886 152.694 297.634C153.648 298.367 154.176 299.379 154.278 300.67H151.506C151.462 300.113 151.198 299.636 150.714 299.24C150.23 298.844 149.592 298.646 148.8 298.646C148.082 298.646 147.495 298.829 147.04 299.196C146.586 299.563 146.358 300.091 146.358 300.78C146.358 301.249 146.498 301.638 146.776 301.946C147.07 302.239 147.436 302.474 147.876 302.65C148.316 302.826 148.918 303.017 149.68 303.222C150.692 303.501 151.514 303.779 152.144 304.058C152.79 304.337 153.332 304.769 153.772 305.356C154.227 305.928 154.454 306.698 154.454 307.666C154.454 308.443 154.242 309.177 153.816 309.866C153.406 310.555 152.797 311.113 151.99 311.538C151.198 311.949 150.26 312.154 149.174 312.154ZM172.088 299.68C173.041 299.68 173.892 299.878 174.64 300.274C175.402 300.67 175.996 301.257 176.422 302.034C176.862 302.811 177.082 303.75 177.082 304.85V312H174.596V305.224C174.596 304.139 174.324 303.31 173.782 302.738C173.239 302.151 172.498 301.858 171.56 301.858C170.621 301.858 169.873 302.151 169.316 302.738C168.773 303.31 168.502 304.139 168.502 305.224V312H166.016V305.224C166.016 304.139 165.744 303.31 165.202 302.738C164.659 302.151 163.918 301.858 162.98 301.858C162.041 301.858 161.293 302.151 160.736 302.738C160.193 303.31 159.922 304.139 159.922 305.224V312H157.414V299.878H159.922V301.264C160.332 300.765 160.853 300.377 161.484 300.098C162.114 299.819 162.789 299.68 163.508 299.68C164.476 299.68 165.341 299.885 166.104 300.296C166.866 300.707 167.453 301.301 167.864 302.078C168.23 301.345 168.802 300.765 169.58 300.34C170.357 299.9 171.193 299.68 172.088 299.68ZM179.437 305.884C179.437 304.667 179.686 303.589 180.185 302.65C180.698 301.711 181.388 300.985 182.253 300.472C183.133 299.944 184.101 299.68 185.157 299.68C186.11 299.68 186.939 299.871 187.643 300.252C188.362 300.619 188.934 301.081 189.359 301.638V299.878H191.889V312H189.359V310.196C188.934 310.768 188.354 311.245 187.621 311.626C186.888 312.007 186.052 312.198 185.113 312.198C184.072 312.198 183.118 311.934 182.253 311.406C181.388 310.863 180.698 310.115 180.185 309.162C179.686 308.194 179.437 307.101 179.437 305.884ZM189.359 305.928C189.359 305.092 189.183 304.366 188.831 303.75C188.494 303.134 188.046 302.665 187.489 302.342C186.932 302.019 186.33 301.858 185.685 301.858C185.04 301.858 184.438 302.019 183.881 302.342C183.324 302.65 182.869 303.112 182.517 303.728C182.18 304.329 182.011 305.048 182.011 305.884C182.011 306.72 182.18 307.453 182.517 308.084C182.869 308.715 183.324 309.199 183.881 309.536C184.453 309.859 185.054 310.02 185.685 310.02C186.33 310.02 186.932 309.859 187.489 309.536C188.046 309.213 188.494 308.744 188.831 308.128C189.183 307.497 189.359 306.764 189.359 305.928ZM197.691 301.638C198.058 301.022 198.542 300.545 199.143 300.208C199.759 299.856 200.485 299.68 201.321 299.68V302.276H200.683C199.701 302.276 198.953 302.525 198.439 303.024C197.941 303.523 197.691 304.388 197.691 305.62V312H195.183V299.878H197.691V301.638ZM206.553 301.924V308.634C206.553 309.089 206.655 309.419 206.861 309.624C207.081 309.815 207.447 309.91 207.961 309.91H209.501V312H207.521C206.391 312 205.526 311.736 204.925 311.208C204.323 310.68 204.023 309.822 204.023 308.634V301.924H202.593V299.878H204.023V296.864H206.553V299.878H209.501V301.924H206.553ZM220.035 296.71V312H217.527V296.71H220.035ZM229.444 299.68C230.397 299.68 231.248 299.878 231.996 300.274C232.758 300.67 233.352 301.257 233.778 302.034C234.203 302.811 234.416 303.75 234.416 304.85V312H231.93V305.224C231.93 304.139 231.658 303.31 231.116 302.738C230.573 302.151 229.832 301.858 228.894 301.858C227.955 301.858 227.207 302.151 226.65 302.738C226.107 303.31 225.836 304.139 225.836 305.224V312H223.328V299.878H225.836V301.264C226.246 300.765 226.767 300.377 227.398 300.098C228.043 299.819 228.725 299.68 229.444 299.68ZM240.541 301.924V308.634C240.541 309.089 240.644 309.419 240.849 309.624C241.069 309.815 241.436 309.91 241.949 309.91H243.489V312H241.509C240.38 312 239.514 311.736 238.913 311.208C238.312 310.68 238.011 309.822 238.011 308.634V301.924H236.581V299.878H238.011V296.864H240.541V299.878H243.489V301.924H240.541ZM256.91 305.642C256.91 306.097 256.881 306.507 256.822 306.874H247.56C247.634 307.842 247.993 308.619 248.638 309.206C249.284 309.793 250.076 310.086 251.014 310.086C252.364 310.086 253.317 309.521 253.874 308.392H256.58C256.214 309.507 255.546 310.423 254.578 311.142C253.625 311.846 252.437 312.198 251.014 312.198C249.856 312.198 248.814 311.941 247.89 311.428C246.981 310.9 246.262 310.167 245.734 309.228C245.221 308.275 244.964 307.175 244.964 305.928C244.964 304.681 245.214 303.589 245.712 302.65C246.226 301.697 246.937 300.963 247.846 300.45C248.77 299.937 249.826 299.68 251.014 299.68C252.158 299.68 253.178 299.929 254.072 300.428C254.967 300.927 255.664 301.631 256.162 302.54C256.661 303.435 256.91 304.469 256.91 305.642ZM254.292 304.85C254.278 303.926 253.948 303.185 253.302 302.628C252.657 302.071 251.858 301.792 250.904 301.792C250.039 301.792 249.298 302.071 248.682 302.628C248.066 303.171 247.7 303.911 247.582 304.85H254.292ZM261.887 301.638C262.253 301.022 262.737 300.545 263.339 300.208C263.955 299.856 264.681 299.68 265.517 299.68V302.276H264.879C263.896 302.276 263.148 302.525 262.635 303.024C262.136 303.523 261.887 304.388 261.887 305.62V312H259.379V299.878H261.887V301.638ZM266.986 305.884C266.986 304.667 267.235 303.589 267.734 302.65C268.247 301.711 268.937 300.985 269.802 300.472C270.682 299.944 271.65 299.68 272.706 299.68C273.659 299.68 274.488 299.871 275.192 300.252C275.911 300.619 276.483 301.081 276.908 301.638V299.878H279.438V312H276.908V310.196C276.483 310.768 275.903 311.245 275.17 311.626C274.437 312.007 273.601 312.198 272.662 312.198C271.621 312.198 270.667 311.934 269.802 311.406C268.937 310.863 268.247 310.115 267.734 309.162C267.235 308.194 266.986 307.101 266.986 305.884ZM276.908 305.928C276.908 305.092 276.732 304.366 276.38 303.75C276.043 303.134 275.595 302.665 275.038 302.342C274.481 302.019 273.879 301.858 273.234 301.858C272.589 301.858 271.987 302.019 271.43 302.342C270.873 302.65 270.418 303.112 270.066 303.728C269.729 304.329 269.56 305.048 269.56 305.884C269.56 306.72 269.729 307.453 270.066 308.084C270.418 308.715 270.873 309.199 271.43 309.536C272.002 309.859 272.603 310.02 273.234 310.02C273.879 310.02 274.481 309.859 275.038 309.536C275.595 309.213 276.043 308.744 276.38 308.128C276.732 307.497 276.908 306.764 276.908 305.928ZM281.896 305.928C281.896 304.681 282.145 303.589 282.644 302.65C283.157 301.697 283.861 300.963 284.756 300.45C285.651 299.937 286.677 299.68 287.836 299.68C289.303 299.68 290.513 300.032 291.466 300.736C292.434 301.425 293.087 302.415 293.424 303.706H290.718C290.498 303.105 290.146 302.635 289.662 302.298C289.178 301.961 288.569 301.792 287.836 301.792C286.809 301.792 285.988 302.159 285.372 302.892C284.771 303.611 284.47 304.623 284.47 305.928C284.47 307.233 284.771 308.253 285.372 308.986C285.988 309.719 286.809 310.086 287.836 310.086C289.288 310.086 290.249 309.448 290.718 308.172H293.424C293.072 309.404 292.412 310.387 291.444 311.12C290.476 311.839 289.273 312.198 287.836 312.198C286.677 312.198 285.651 311.941 284.756 311.428C283.861 310.9 283.157 310.167 282.644 309.228C282.145 308.275 281.896 307.175 281.896 305.928ZM298.849 301.924V308.634C298.849 309.089 298.952 309.419 299.157 309.624C299.377 309.815 299.744 309.91 300.257 309.91H301.797V312H299.817C298.688 312 297.823 311.736 297.221 311.208C296.62 310.68 296.319 309.822 296.319 308.634V301.924H294.889V299.878H296.319V296.864H298.849V299.878H301.797V301.924H298.849ZM305.385 298.272C304.93 298.272 304.549 298.118 304.241 297.81C303.933 297.502 303.779 297.121 303.779 296.666C303.779 296.211 303.933 295.83 304.241 295.522C304.549 295.214 304.93 295.06 305.385 295.06C305.825 295.06 306.199 295.214 306.507 295.522C306.815 295.83 306.969 296.211 306.969 296.666C306.969 297.121 306.815 297.502 306.507 297.81C306.199 298.118 305.825 298.272 305.385 298.272ZM306.617 299.878V312H304.109V299.878H306.617ZM314.596 309.756L318.028 299.878H320.69L316.07 312H313.078L308.48 299.878H311.164L314.596 309.756ZM333.696 305.642C333.696 306.097 333.666 306.507 333.608 306.874H324.346C324.419 307.842 324.778 308.619 325.424 309.206C326.069 309.793 326.861 310.086 327.8 310.086C329.149 310.086 330.102 309.521 330.66 308.392H333.366C332.999 309.507 332.332 310.423 331.364 311.142C330.41 311.846 329.222 312.198 327.8 312.198C326.641 312.198 325.6 311.941 324.676 311.428C323.766 310.9 323.048 310.167 322.52 309.228C322.006 308.275 321.75 307.175 321.75 305.928C321.75 304.681 321.999 303.589 322.498 302.65C323.011 301.697 323.722 300.963 324.632 300.45C325.556 299.937 326.612 299.68 327.8 299.68C328.944 299.68 329.963 299.929 330.858 300.428C331.752 300.927 332.449 301.631 332.948 302.54C333.446 303.435 333.696 304.469 333.696 305.642ZM331.078 304.85C331.063 303.926 330.733 303.185 330.088 302.628C329.442 302.071 328.643 301.792 327.69 301.792C326.824 301.792 326.084 302.071 325.468 302.628C324.852 303.171 324.485 303.911 324.368 304.85H331.078ZM182.717 331.734V336.222H187.997V338.268H182.717V342.954H188.657V345H180.209V329.688H188.657V331.734H182.717ZM196.938 338.862L200.854 345H198.016L195.398 340.886L192.934 345H190.316L194.232 339.038L190.316 332.878H193.154L195.772 336.992L198.236 332.878H200.854L196.938 338.862ZM205.232 334.66C205.658 334.103 206.237 333.633 206.97 333.252C207.704 332.871 208.532 332.68 209.456 332.68C210.512 332.68 211.473 332.944 212.338 333.472C213.218 333.985 213.908 334.711 214.406 335.65C214.905 336.589 215.154 337.667 215.154 338.884C215.154 340.101 214.905 341.194 214.406 342.162C213.908 343.115 213.218 343.863 212.338 344.406C211.473 344.934 210.512 345.198 209.456 345.198C208.532 345.198 207.711 345.015 206.992 344.648C206.274 344.267 205.687 343.797 205.232 343.24V350.764H202.724V332.878H205.232V334.66ZM212.602 338.884C212.602 338.048 212.426 337.329 212.074 336.728C211.737 336.112 211.282 335.65 210.71 335.342C210.153 335.019 209.552 334.858 208.906 334.858C208.276 334.858 207.674 335.019 207.102 335.342C206.545 335.665 206.09 336.134 205.738 336.75C205.401 337.366 205.232 338.092 205.232 338.928C205.232 339.764 205.401 340.497 205.738 341.128C206.09 341.744 206.545 342.213 207.102 342.536C207.674 342.859 208.276 343.02 208.906 343.02C209.552 343.02 210.153 342.859 210.71 342.536C211.282 342.199 211.737 341.715 212.074 341.084C212.426 340.453 212.602 339.72 212.602 338.884ZM228.744 338.642C228.744 339.097 228.715 339.507 228.656 339.874H219.394C219.468 340.842 219.827 341.619 220.472 342.206C221.118 342.793 221.91 343.086 222.848 343.086C224.198 343.086 225.151 342.521 225.708 341.392H228.414C228.048 342.507 227.38 343.423 226.412 344.142C225.459 344.846 224.271 345.198 222.848 345.198C221.69 345.198 220.648 344.941 219.724 344.428C218.815 343.9 218.096 343.167 217.568 342.228C217.055 341.275 216.798 340.175 216.798 338.928C216.798 337.681 217.048 336.589 217.546 335.65C218.06 334.697 218.771 333.963 219.68 333.45C220.604 332.937 221.66 332.68 222.848 332.68C223.992 332.68 225.012 332.929 225.906 333.428C226.801 333.927 227.498 334.631 227.996 335.54C228.495 336.435 228.744 337.469 228.744 338.642ZM226.126 337.85C226.112 336.926 225.782 336.185 225.136 335.628C224.491 335.071 223.692 334.792 222.738 334.792C221.873 334.792 221.132 335.071 220.516 335.628C219.9 336.171 219.534 336.911 219.416 337.85H226.126ZM233.721 334.638C234.087 334.022 234.571 333.545 235.173 333.208C235.789 332.856 236.515 332.68 237.351 332.68V335.276H236.713C235.73 335.276 234.982 335.525 234.469 336.024C233.97 336.523 233.721 337.388 233.721 338.62V345H231.213V332.878H233.721V334.638ZM240.932 331.272C240.477 331.272 240.096 331.118 239.788 330.81C239.48 330.502 239.326 330.121 239.326 329.666C239.326 329.211 239.48 328.83 239.788 328.522C240.096 328.214 240.477 328.06 240.932 328.06C241.372 328.06 241.746 328.214 242.054 328.522C242.362 328.83 242.516 329.211 242.516 329.666C242.516 330.121 242.362 330.502 242.054 330.81C241.746 331.118 241.372 331.272 240.932 331.272ZM242.164 332.878V345H239.656V332.878H242.164ZM256.567 338.642C256.567 339.097 256.537 339.507 256.479 339.874H247.217C247.29 340.842 247.649 341.619 248.295 342.206C248.94 342.793 249.732 343.086 250.671 343.086C252.02 343.086 252.973 342.521 253.531 341.392H256.237C255.87 342.507 255.203 343.423 254.235 344.142C253.281 344.846 252.093 345.198 250.671 345.198C249.512 345.198 248.471 344.941 247.547 344.428C246.637 343.9 245.919 343.167 245.391 342.228C244.877 341.275 244.621 340.175 244.621 338.928C244.621 337.681 244.87 336.589 245.369 335.65C245.882 334.697 246.593 333.963 247.503 333.45C248.427 332.937 249.483 332.68 250.671 332.68C251.815 332.68 252.834 332.929 253.729 333.428C254.623 333.927 255.32 334.631 255.819 335.54C256.317 336.435 256.567 337.469 256.567 338.642ZM253.949 337.85C253.934 336.926 253.604 336.185 252.959 335.628C252.313 335.071 251.514 334.792 250.561 334.792C249.695 334.792 248.955 335.071 248.339 335.628C247.723 336.171 247.356 336.911 247.239 337.85H253.949ZM265.151 332.68C266.104 332.68 266.955 332.878 267.703 333.274C268.465 333.67 269.059 334.257 269.485 335.034C269.91 335.811 270.123 336.75 270.123 337.85V345H267.637V338.224C267.637 337.139 267.365 336.31 266.823 335.738C266.28 335.151 265.539 334.858 264.601 334.858C263.662 334.858 262.914 335.151 262.357 335.738C261.814 336.31 261.543 337.139 261.543 338.224V345H259.035V332.878H261.543V334.264C261.953 333.765 262.474 333.377 263.105 333.098C263.75 332.819 264.432 332.68 265.151 332.68ZM272.486 338.928C272.486 337.681 272.735 336.589 273.234 335.65C273.747 334.697 274.451 333.963 275.346 333.45C276.241 332.937 277.267 332.68 278.426 332.68C279.893 332.68 281.103 333.032 282.056 333.736C283.024 334.425 283.677 335.415 284.014 336.706H281.308C281.088 336.105 280.736 335.635 280.252 335.298C279.768 334.961 279.159 334.792 278.426 334.792C277.399 334.792 276.578 335.159 275.962 335.892C275.361 336.611 275.06 337.623 275.06 338.928C275.06 340.233 275.361 341.253 275.962 341.986C276.578 342.719 277.399 343.086 278.426 343.086C279.878 343.086 280.839 342.448 281.308 341.172H284.014C283.662 342.404 283.002 343.387 282.034 344.12C281.066 344.839 279.863 345.198 278.426 345.198C277.267 345.198 276.241 344.941 275.346 344.428C274.451 343.9 273.747 343.167 273.234 342.228C272.735 341.275 272.486 340.175 272.486 338.928ZM297.623 338.642C297.623 339.097 297.594 339.507 297.535 339.874H288.273C288.347 340.842 288.706 341.619 289.351 342.206C289.997 342.793 290.789 343.086 291.727 343.086C293.077 343.086 294.03 342.521 294.587 341.392H297.293C296.927 342.507 296.259 343.423 295.291 344.142C294.338 344.846 293.15 345.198 291.727 345.198C290.569 345.198 289.527 344.941 288.603 344.428C287.694 343.9 286.975 343.167 286.447 342.228C285.934 341.275 285.677 340.175 285.677 338.928C285.677 337.681 285.927 336.589 286.425 335.65C286.939 334.697 287.65 333.963 288.559 333.45C289.483 332.937 290.539 332.68 291.727 332.68C292.871 332.68 293.891 332.929 294.785 333.428C295.68 333.927 296.377 334.631 296.875 335.54C297.374 336.435 297.623 337.469 297.623 338.642ZM295.005 337.85C294.991 336.926 294.661 336.185 294.015 335.628C293.37 335.071 292.571 334.792 291.617 334.792C290.752 334.792 290.011 335.071 289.395 335.628C288.779 336.171 288.413 336.911 288.295 337.85H295.005Z" fill="#001237"/>
<path d="M254.751 178.949C254.467 178.774 254.235 178.526 254.078 178.231C253.921 177.936 253.846 177.605 253.86 177.272C253.874 176.938 253.976 176.614 254.157 176.333C254.337 176.052 254.589 175.825 254.887 175.673L257.153 175.25C257.092 178.076 257.051 180.902 257.029 183.73C256.445 183.654 255.893 183.419 255.434 183.049C255.003 182.654 254.771 181.991 255.023 181.462C254.798 181.35 254.605 181.183 254.462 180.976C254.319 180.769 254.23 180.529 254.205 180.279C254.18 180.029 254.219 179.776 254.318 179.545C254.417 179.314 254.573 179.111 254.771 178.957L254.751 178.949Z" fill="#263238"/>
<path d="M265.546 178.736L265.597 177.728L259.609 176.395C257.76 176.143 255.693 177.94 255.517 179.799C255.323 181.866 255.166 184.398 255.363 185.951C255.761 189.07 258.135 189.542 258.135 189.542L257.943 192.609C257.868 194.4 259.365 194.841 261.156 194.919C261.999 194.956 262.823 194.664 263.455 194.105C264.086 193.545 264.474 192.762 264.538 191.921L265.546 178.736Z" fill="#D6D6D6"/>
<path d="M256.346 182.356C256.341 182.459 256.377 182.561 256.447 182.638C256.516 182.715 256.613 182.762 256.717 182.769C256.767 182.775 256.818 182.771 256.867 182.756C256.916 182.742 256.962 182.718 257.001 182.686C257.041 182.654 257.073 182.614 257.097 182.569C257.121 182.524 257.136 182.474 257.14 182.424C257.143 182.32 257.107 182.219 257.037 182.142C256.967 182.065 256.871 182.018 256.767 182.01C256.717 182.004 256.665 182.009 256.617 182.023C256.568 182.037 256.522 182.061 256.483 182.094C256.444 182.126 256.412 182.166 256.388 182.211C256.364 182.256 256.35 182.305 256.346 182.356Z" fill="#263238"/>
<path d="M256.144 181.146C256.192 181.199 256.499 180.985 256.928 181C257.356 181.015 257.663 181.252 257.714 181.186C257.764 181.121 257.689 181.07 257.555 180.965C257.374 180.831 257.156 180.756 256.93 180.75C256.707 180.744 256.488 180.807 256.303 180.932C256.156 181.03 256.109 181.121 256.144 181.146Z" fill="#263238"/>
<path d="M260.38 182.419C260.375 182.523 260.412 182.625 260.481 182.703C260.55 182.78 260.647 182.828 260.751 182.835C260.803 182.842 260.856 182.838 260.907 182.824C260.958 182.809 261.005 182.784 261.046 182.751C261.086 182.717 261.12 182.676 261.143 182.629C261.167 182.581 261.181 182.53 261.184 182.477C261.188 182.373 261.151 182.272 261.081 182.195C261.012 182.118 260.915 182.071 260.811 182.064C260.759 182.057 260.706 182.061 260.656 182.075C260.606 182.089 260.559 182.114 260.518 182.147C260.478 182.181 260.445 182.222 260.421 182.269C260.397 182.316 260.383 182.367 260.38 182.419Z" fill="#263238"/>
<path d="M260.345 181.357C260.393 181.41 260.703 181.196 261.131 181.211C261.56 181.226 261.867 181.448 261.915 181.398C261.963 181.347 261.892 181.279 261.756 181.176C261.575 181.042 261.357 180.967 261.131 180.962C260.908 180.953 260.688 181.017 260.504 181.143C260.37 181.239 260.322 181.332 260.345 181.357Z" fill="#263238"/>
<path d="M258.689 184.492C258.466 184.414 258.234 184.365 257.999 184.346C257.888 184.331 257.784 184.305 257.769 184.23C257.763 184.116 257.792 184.004 257.852 183.907C257.963 183.655 258.079 183.371 258.203 183.083C258.689 181.911 259.044 180.946 258.996 180.926C258.949 180.906 258.518 181.843 258.031 183.015L257.694 183.844C257.621 183.974 257.596 184.126 257.623 184.273C257.638 184.312 257.662 184.347 257.692 184.376C257.723 184.405 257.759 184.426 257.799 184.439C257.859 184.456 257.921 184.467 257.983 184.469C258.217 184.508 258.454 184.515 258.689 184.492Z" fill="#263238"/>
<path d="M258.13 189.556C259.631 189.628 261.123 189.287 262.444 188.57C262.444 188.57 261.298 190.76 258.09 190.377L258.13 189.556Z" fill="#815144"/>
<path d="M258.84 185.527C258.925 185.428 259.034 185.352 259.157 185.308C259.28 185.264 259.412 185.252 259.541 185.275C259.635 185.286 259.726 185.316 259.809 185.364C259.891 185.411 259.963 185.475 260.02 185.552C260.073 185.624 260.104 185.711 260.107 185.801C260.11 185.891 260.086 185.98 260.037 186.056C259.966 186.131 259.874 186.183 259.773 186.205C259.672 186.227 259.566 186.218 259.47 186.179C259.27 186.102 259.088 185.985 258.933 185.836C258.886 185.801 258.845 185.756 258.815 185.705C258.799 185.682 258.791 185.654 258.791 185.626C258.791 185.598 258.799 185.57 258.815 185.547" fill="#815144"/>
<path d="M259.942 184.822C259.873 184.822 259.858 185.283 259.45 185.601C259.042 185.918 258.548 185.853 258.54 185.916C258.533 185.979 258.649 186.009 258.858 186.022C259.13 186.035 259.398 185.951 259.614 185.785C259.822 185.626 259.961 185.392 259.999 185.132C260.022 184.938 259.974 184.822 259.942 184.822Z" fill="#263238"/>
<path d="M260.287 180.143C260.325 180.261 260.756 180.219 261.255 180.294C261.754 180.37 262.159 180.521 262.23 180.418C262.26 180.37 262.195 180.256 262.033 180.141C261.82 179.992 261.575 179.897 261.318 179.863C261.064 179.826 260.805 179.848 260.562 179.929C260.365 179.999 260.269 180.088 260.287 180.143Z" fill="#263238"/>
<path d="M256.192 179.677C256.265 179.775 256.563 179.677 256.918 179.677C257.273 179.677 257.573 179.762 257.644 179.677C257.676 179.626 257.631 179.528 257.503 179.425C257.33 179.308 257.126 179.246 256.918 179.246C256.71 179.246 256.506 179.308 256.333 179.425C256.205 179.528 256.159 179.626 256.192 179.677Z" fill="#263238"/>
<path d="M254.514 176.99C254.214 176.759 253.989 176.445 253.866 176.086C253.743 175.728 253.729 175.341 253.824 174.974C253.93 174.611 254.128 174.281 254.398 174.016C254.669 173.752 255.003 173.561 255.368 173.462C255.517 173.424 255.669 173.4 255.822 173.392C256.12 173.227 256.454 173.14 256.795 173.14C256.84 172.943 256.942 172.763 257.088 172.623C257.234 172.483 257.418 172.389 257.616 172.351C258.014 172.281 258.424 172.309 258.808 172.434C259.016 172.193 259.277 172.004 259.572 171.882C259.866 171.761 260.185 171.71 260.502 171.735C260.82 171.759 261.127 171.858 261.399 172.023C261.672 172.189 261.901 172.416 262.069 172.686C262.295 172.561 262.547 172.49 262.805 172.479C263.063 172.469 263.32 172.519 263.556 172.625C263.791 172.732 263.998 172.892 264.161 173.093C264.323 173.294 264.436 173.53 264.491 173.782C264.802 173.8 265.101 173.906 265.353 174.088C265.606 174.27 265.8 174.521 265.915 174.811C266.051 174.996 266.144 175.21 266.189 175.436C266.568 175.488 266.922 175.656 267.202 175.916C267.482 176.176 267.676 176.516 267.756 176.89C267.837 177.263 267.801 177.653 267.652 178.005C267.504 178.358 267.251 178.656 266.928 178.86C267.111 179.052 267.247 179.284 267.324 179.538C267.402 179.791 267.42 180.06 267.376 180.321C267.333 180.583 267.228 180.831 267.072 181.045C266.916 181.26 266.712 181.435 266.477 181.557C266.557 181.841 266.579 182.138 266.54 182.431C266.502 182.724 266.405 183.006 266.255 183.26C266.137 183.493 265.937 183.673 265.693 183.764C265.681 183.805 265.664 183.844 265.642 183.88C265.448 184.165 264.995 184.024 264.73 183.802C264.09 183.26 263.763 182.429 263.601 181.605C263.44 180.781 263.422 179.936 263.269 179.112C263.269 179.095 263.269 179.074 263.269 179.054C263.203 178.712 263.06 178.389 262.85 178.109C262.61 178.28 262.357 178.432 262.094 178.565C261.609 178.774 261.07 178.823 260.556 178.704C260.042 178.585 259.578 178.305 259.234 177.905C258.569 178.425 257.744 178.697 256.901 178.676C256.064 178.651 255.242 178.47 254.617 177.92C254.453 177.78 254.333 177.595 254.27 177.389C254.255 177.304 254.272 177.217 254.317 177.143C254.362 177.07 254.432 177.016 254.514 176.99Z" fill="#263238"/>
<path d="M264.919 182.827C264.959 182.807 266.605 182.24 266.632 183.946C266.66 185.652 264.939 185.327 264.936 185.276C264.934 185.226 264.919 182.827 264.919 182.827Z" fill="#D6D6D6"/>
<path d="M265.448 184.624C265.448 184.624 265.478 184.645 265.528 184.667C265.599 184.696 265.679 184.696 265.75 184.667C265.859 184.595 265.947 184.496 266.005 184.379C266.063 184.262 266.089 184.132 266.08 184.002C266.083 183.856 266.052 183.711 265.989 183.579C265.973 183.526 265.943 183.478 265.904 183.438C265.864 183.399 265.816 183.371 265.763 183.354C265.728 183.346 265.692 183.349 265.661 183.365C265.629 183.38 265.603 183.406 265.589 183.437C265.566 183.485 265.589 183.521 265.568 183.523C265.548 183.526 265.533 183.495 265.546 183.425C265.553 183.382 265.577 183.343 265.611 183.317C265.634 183.299 265.66 183.285 265.687 183.278C265.715 183.27 265.744 183.268 265.773 183.271C265.842 183.283 265.908 183.312 265.963 183.356C266.018 183.4 266.061 183.458 266.088 183.523C266.163 183.67 266.201 183.832 266.198 183.997C266.212 184.151 266.179 184.305 266.104 184.439C266.029 184.574 265.915 184.683 265.778 184.753C265.732 184.767 265.683 184.77 265.636 184.763C265.588 184.756 265.543 184.739 265.503 184.713C265.45 184.665 265.44 184.627 265.448 184.624Z" fill="#815144"/>
<path d="M253.92 174.697C253.92 174.697 253.92 174.71 253.904 174.735C253.89 174.775 253.879 174.817 253.872 174.859C253.834 175.064 253.847 175.276 253.908 175.476C253.969 175.675 254.076 175.858 254.222 176.008C254.465 176.251 254.793 176.392 255.137 176.401L255.106 176.373C255.186 176.926 255.423 177.445 255.789 177.867C255.991 178.108 256.24 178.304 256.52 178.445C256.826 178.585 257.164 178.64 257.498 178.603C257.824 178.576 258.144 178.501 258.448 178.382C258.738 178.276 259.007 178.119 259.242 177.918H259.191C259.581 178.312 260.071 178.594 260.608 178.734C261.035 178.82 261.478 178.79 261.89 178.646C262.159 178.555 262.41 178.418 262.634 178.243C262.712 178.18 262.767 178.13 262.805 178.094C262.824 178.077 262.842 178.057 262.858 178.036C262.858 178.036 262.777 178.107 262.619 178.223C262.393 178.388 262.143 178.516 261.878 178.603C261.471 178.737 261.037 178.761 260.618 178.674C260.095 178.531 259.619 178.252 259.239 177.865L259.217 177.842L259.189 177.865C258.959 178.058 258.696 178.209 258.413 178.308C258.116 178.427 257.804 178.501 257.485 178.528C257.164 178.561 256.839 178.508 256.545 178.374C256.27 178.241 256.026 178.052 255.827 177.82C255.469 177.408 255.234 176.904 255.149 176.366V176.34H255.137C254.811 176.331 254.501 176.201 254.267 175.975C254.09 175.801 253.968 175.578 253.917 175.335C253.885 175.18 253.879 175.021 253.899 174.864C253.907 174.753 253.925 174.697 253.92 174.697Z" fill="#455A64"/>
<path d="M265.95 175.334C266.014 175.526 266.062 175.722 266.096 175.921C266.167 176.443 266.067 176.973 265.811 177.433L265.796 177.458L265.819 177.476C266.027 177.664 266.182 177.904 266.267 178.172C266.359 178.467 266.359 178.783 266.267 179.079C266.146 179.462 265.884 179.784 265.534 179.981L265.504 179.996L265.519 180.029C265.682 180.359 265.748 180.728 265.71 181.095C265.683 181.384 265.597 181.664 265.458 181.919C265.329 182.144 265.165 182.348 264.972 182.521C264.972 182.521 264.987 182.521 265.015 182.491C265.057 182.462 265.098 182.43 265.136 182.395C265.279 182.264 265.402 182.111 265.498 181.941C265.649 181.685 265.743 181.398 265.773 181.102C265.816 180.723 265.751 180.339 265.584 179.996L265.569 180.046C265.938 179.842 266.214 179.504 266.34 179.101C266.44 178.792 266.44 178.459 266.34 178.149C266.248 177.873 266.083 177.627 265.864 177.436V177.481C266.119 177.005 266.208 176.456 266.116 175.924C266.091 175.775 266.051 175.629 265.997 175.488C265.98 175.44 265.96 175.405 265.95 175.379C265.939 175.354 265.952 175.334 265.95 175.334Z" fill="#455A64"/>
<path d="M265.844 185.221C265.866 185.321 265.877 185.423 265.877 185.526C265.87 185.633 265.827 185.735 265.753 185.813C265.708 185.858 265.652 185.891 265.591 185.908C265.53 185.925 265.465 185.926 265.403 185.912C265.343 185.892 265.291 185.855 265.253 185.805C265.215 185.755 265.192 185.695 265.189 185.632C265.181 185.523 265.202 185.413 265.249 185.314C265.303 185.224 265.352 185.132 265.396 185.037C265.315 185.108 265.25 185.193 265.202 185.289C265.14 185.393 265.111 185.514 265.118 185.634C265.124 185.709 265.148 185.781 265.189 185.844C265.234 185.912 265.302 185.962 265.381 185.985C265.456 186.003 265.534 186.001 265.609 185.98C265.683 185.958 265.75 185.917 265.804 185.861C265.886 185.769 265.932 185.65 265.932 185.526C265.939 185.417 265.908 185.309 265.844 185.221Z" fill="#263238"/>
<path d="M236.692 196.248C236.692 196.248 242.045 195.978 242.652 195.9C243.751 195.762 245.437 196.016 247.722 195.381C250.701 194.55 253.254 193.922 253.345 193.897C253.508 193.849 255.293 192.33 257.518 192.513L258.752 197.541L255.907 199.741C255.907 199.741 247.937 200.517 247.536 200.467C247.135 200.416 238.109 199.935 238.109 199.935L237.244 197.196L236.692 196.248Z" fill="#D6D6D6"/>
<path d="M247.133 199.841C247.095 199.841 247.156 199.085 247.204 198.132C247.251 197.18 247.269 196.424 247.307 196.424C247.377 196.992 247.386 197.567 247.335 198.137C247.327 198.711 247.26 199.282 247.133 199.841Z" fill="#815144"/>
<path d="M252.54 199.537C252.49 199.537 252.679 198.494 253.012 197.249C253.175 196.626 253.337 196.065 253.46 195.661C253.514 195.438 253.59 195.221 253.687 195.014C253.662 195.241 253.615 195.465 253.548 195.684L253.14 197.282C252.981 197.884 252.84 198.426 252.722 198.877C252.674 199.1 252.614 199.321 252.54 199.537Z" fill="#815144"/>
<path d="M237.811 196.141C237.811 196.141 237.345 196.408 237.375 196.604C237.406 196.801 238.759 198.62 238.986 198.681C239.41 198.7 239.836 198.653 240.246 198.54L240.548 198.215L238.857 196.141H237.811Z" fill="#263238"/>
<path d="M237.909 196.286C237.909 196.286 239.315 198.319 239.371 198.302L240.379 198.193L238.839 196.283L237.909 196.286Z" fill="#E0E0E0"/>
<path d="M239.331 198.584C239.315 198.854 239.228 199.115 239.079 199.34C238.824 199.626 238.53 199.874 238.204 200.076H239.416C239.602 199.887 239.771 199.681 239.92 199.461C240.09 199.166 240.189 198.836 240.21 198.496L239.331 198.584Z" fill="#263238"/>
<path d="M238.048 196.238C238.048 196.238 238.048 196.207 237.731 196.139C237.413 196.071 236.806 195.923 236.423 196.591L236.763 196.742H237.355L237.698 196.316L238.048 196.238Z" fill="#263238"/>
<path d="M236.148 196.172C236.061 196.083 235.957 196.013 235.841 195.967C235.726 195.921 235.602 195.9 235.477 195.905C235.153 195.976 234.862 196.153 234.651 196.409C234.54 196.543 233.514 198.06 233.514 198.06C233.514 198.06 233.156 199.458 233.378 199.741C233.378 199.741 232.977 200.371 233.156 200.844C233.156 200.844 232.776 201.542 232.889 201.676C233.007 201.758 233.147 201.802 233.29 201.802C233.433 201.802 233.573 201.758 233.691 201.676C233.812 201.753 233.952 201.796 234.096 201.8C234.239 201.804 234.382 201.769 234.507 201.699C234.705 201.574 234.918 201.477 235.142 201.409C235.142 201.409 235.744 202.011 236.15 202.011C236.368 202.011 236.583 201.955 236.774 201.85C236.965 201.745 237.127 201.593 237.244 201.409C237.421 201.082 237.614 200.764 237.823 200.456C238.048 200.159 238.627 199.872 238.761 199.557C238.894 199.242 238.962 198.44 238.36 198.082C238.393 197.792 238.32 197.5 238.156 197.258C237.992 197.016 237.747 196.841 237.466 196.764L237.214 196.744C237.214 196.744 237.151 196.172 236.148 196.172Z" fill="#D6D6D6"/>
<path d="M236.148 196.173H236.236C236.32 196.172 236.405 196.177 236.488 196.188C236.628 196.208 236.763 196.249 236.889 196.312C236.978 196.355 237.056 196.417 237.118 196.494C237.18 196.57 237.225 196.66 237.249 196.755L237.219 196.728L237.471 196.748C237.737 196.819 237.973 196.972 238.146 197.186C238.341 197.451 238.43 197.779 238.398 198.106L238.373 198.056C238.579 198.177 238.735 198.367 238.814 198.592C238.898 198.83 238.918 199.085 238.875 199.333C238.859 199.468 238.811 199.598 238.736 199.711C238.653 199.819 238.557 199.916 238.449 199.998C238.232 200.151 238.031 200.327 237.852 200.523C237.691 200.755 237.545 200.996 237.413 201.246C237.34 201.378 237.256 201.504 237.161 201.621C237.059 201.74 236.936 201.84 236.798 201.916C236.659 201.995 236.507 202.048 236.35 202.072C236.267 202.088 236.182 202.094 236.098 202.09C236.011 202.084 235.926 202.063 235.846 202.03C235.554 201.891 235.29 201.701 235.064 201.47L235.125 201.488H235.102C234.863 201.577 234.631 201.685 234.409 201.81C234.282 201.863 234.144 201.883 234.007 201.87C233.87 201.858 233.738 201.812 233.623 201.737H233.706C233.641 201.792 233.566 201.832 233.485 201.857C233.404 201.882 233.319 201.89 233.235 201.881C233.156 201.878 233.077 201.866 233.001 201.843C232.925 201.813 232.839 201.803 232.781 201.682C232.767 201.597 232.775 201.51 232.807 201.43C232.829 201.357 232.854 201.289 232.882 201.221C232.94 201.085 233.003 200.956 233.069 200.83V200.873C233.007 200.671 233.007 200.455 233.069 200.253C233.121 200.064 233.2 199.883 233.303 199.716V199.784C233.23 199.635 233.202 199.468 233.222 199.303C233.228 199.156 233.243 199.01 233.268 198.864C233.309 198.591 233.365 198.321 233.434 198.053C233.762 197.582 234.061 197.156 234.326 196.778C234.438 196.596 234.57 196.427 234.719 196.274C234.852 196.146 235.005 196.042 235.173 195.966C235.309 195.905 235.46 195.882 235.609 195.901C235.716 195.919 235.818 195.958 235.909 196.017C235.966 196.051 236.018 196.091 236.065 196.138C236.082 196.153 236.097 196.17 236.11 196.188C236.041 196.136 235.968 196.087 235.894 196.042C235.788 195.981 235.669 195.947 235.547 195.943C235.426 195.939 235.305 195.965 235.195 196.019C235.037 196.097 234.892 196.2 234.767 196.324C234.625 196.48 234.499 196.649 234.389 196.828L233.555 198.101V198.083C233.494 198.335 233.439 198.605 233.399 198.885C233.378 199.027 233.364 199.17 233.358 199.313C233.344 199.45 233.365 199.589 233.419 199.716L233.442 199.752L233.421 199.784C233.326 199.941 233.254 200.111 233.207 200.288C233.152 200.465 233.152 200.655 233.207 200.833V200.86L233.195 200.886C233.128 201.008 233.067 201.134 233.013 201.264C232.986 201.328 232.963 201.393 232.943 201.46C232.921 201.517 232.912 201.578 232.917 201.639C232.953 201.679 233.001 201.706 233.053 201.717C233.119 201.735 233.187 201.745 233.255 201.747C233.321 201.755 233.388 201.75 233.452 201.732C233.516 201.714 233.576 201.683 233.628 201.642L233.666 201.604L233.711 201.634C233.809 201.695 233.92 201.732 234.036 201.742C234.151 201.752 234.267 201.735 234.374 201.692C234.6 201.564 234.836 201.455 235.08 201.364H235.112H235.145L235.173 201.39C235.385 201.609 235.635 201.789 235.911 201.921C235.975 201.95 236.043 201.967 236.113 201.972C236.184 201.974 236.256 201.969 236.327 201.957C236.47 201.934 236.607 201.887 236.733 201.815C236.856 201.752 236.967 201.666 237.06 201.563C237.149 201.452 237.227 201.333 237.295 201.208C237.429 200.955 237.579 200.71 237.743 200.475C237.929 200.271 238.138 200.089 238.366 199.933C238.464 199.859 238.553 199.775 238.633 199.681C238.698 199.582 238.74 199.469 238.754 199.351C238.808 199.134 238.796 198.905 238.717 198.695C238.639 198.486 238.499 198.305 238.315 198.177L238.288 198.161V198.126C238.318 197.824 238.238 197.521 238.061 197.274C237.901 197.071 237.682 196.922 237.433 196.851L237.181 196.826H237.156V196.798C237.134 196.712 237.094 196.631 237.039 196.561C236.984 196.491 236.915 196.434 236.836 196.392C236.717 196.327 236.589 196.281 236.455 196.256C236.266 196.181 236.143 196.183 236.148 196.173Z" fill="#815144"/>
<path d="M237.33 200.066C236.997 200.348 236.636 200.595 236.254 200.805C235.893 201.051 235.509 201.261 235.107 201.432C235.44 201.149 235.802 200.902 236.186 200.694C236.545 200.447 236.929 200.237 237.33 200.066Z" fill="#815144"/>
<path d="M237.244 198.604C237.065 198.759 236.874 198.899 236.672 199.022C236.311 199.274 235.812 199.614 235.271 200.005C234.729 200.395 234.243 200.761 233.897 201.013C233.828 201.057 233.77 201.116 233.726 201.186C233.683 201.256 233.655 201.334 233.645 201.416C233.649 201.477 233.661 201.537 233.683 201.595C233.683 201.595 233.61 201.552 233.595 201.418C233.593 201.326 233.613 201.234 233.654 201.152C233.695 201.069 233.755 200.997 233.829 200.942C234.167 200.655 234.643 200.282 235.188 199.889C235.732 199.496 236.238 199.165 236.614 198.936C236.812 198.804 237.023 198.692 237.244 198.604Z" fill="#815144"/>
<path d="M236.458 197.541C236.302 197.705 236.133 197.856 235.954 197.995C235.634 198.267 235.198 198.65 234.745 199.096C234.291 199.542 233.893 199.965 233.613 200.278C233.471 200.458 233.314 200.626 233.145 200.782C233.256 200.583 233.39 200.397 233.543 200.227C233.888 199.801 234.258 199.395 234.651 199.013C235.044 198.629 235.459 198.269 235.894 197.934C236.066 197.782 236.256 197.65 236.458 197.541Z" fill="#815144"/>
<path d="M235.299 197.166C235.329 197.191 234.88 197.748 234.356 198.459C233.832 199.169 233.431 199.762 233.398 199.741C233.897 198.791 234.537 197.923 235.299 197.166Z" fill="#815144"/>
<path d="M237.408 196.682C237.408 196.682 237.377 196.664 237.362 196.617C237.361 196.604 237.361 196.591 237.362 196.579C237.36 196.568 237.36 196.557 237.362 196.546V196.516C237.379 196.481 237.399 196.447 237.42 196.415C237.476 196.335 237.539 196.259 237.607 196.188L237.672 196.128C237.694 196.112 237.719 196.103 237.745 196.102H237.791H237.972C238.272 196.072 238.575 196.089 238.869 196.153C238.577 196.219 238.277 196.247 237.977 196.233H237.798H237.748L237.692 196.281C237.614 196.352 237.546 196.42 237.493 196.475L237.428 196.554C237.428 196.569 237.428 196.569 237.428 196.579V196.614C237.413 196.652 237.415 196.677 237.408 196.682Z" fill="#455A64"/>
<path d="M239.371 198.295C239.399 198.315 239.371 198.428 239.275 198.547C239.179 198.665 239.061 198.733 239.041 198.701C239.021 198.668 239.086 198.585 239.169 198.469C239.252 198.353 239.341 198.272 239.371 198.295Z" fill="#455A64"/>
<path d="M240.457 198.322C240.472 198.334 240.407 198.43 240.291 198.574H240.271C240.124 198.609 239.93 198.647 239.716 198.682C239.512 198.73 239.302 198.745 239.094 198.727C238.925 198.7 238.854 198.591 238.874 198.581C238.949 198.611 239.027 198.63 239.106 198.637C239.304 198.625 239.5 198.597 239.693 198.554C239.908 198.518 240.107 198.491 240.255 198.478L240.228 198.493C240.354 198.38 240.444 198.309 240.457 198.322Z" fill="#455A64"/>
<path d="M268.699 193.69L265.927 191.609L264.576 190.621L258.596 191.765C258.596 191.765 256.104 192.836 255.522 193.146C254.94 193.456 252.967 193.844 253.198 196.747C253.342 198.411 253.336 200.084 253.181 201.747L251.838 212.873L251.921 215.448C251.921 215.448 251.608 217.661 251.57 219.016L264.543 217.736L263.898 211.885L264.677 203.773L268.699 193.69Z" fill="#D6D6D6"/>
<path d="M256.587 192.528C256.587 192.528 252.303 199.927 251.782 200.862C251.26 201.797 250.431 202.682 250.534 204.761C250.638 206.84 251.835 209.337 251.835 209.337V212.865L263.898 211.877L264.676 203.765C264.676 203.765 259.384 202.571 260.206 198.672C261.027 194.774 263.898 191.289 265.924 191.601L264.573 190.613C264.573 190.613 263.288 191.158 260.992 193.161C260.992 193.161 258.649 194.925 257.915 194.507C256.963 193.967 257.976 191.987 257.976 191.987L256.587 192.528Z" fill="white"/>
<path d="M258.279 206.616C258.185 206.65 258.086 206.67 257.986 206.674C257.714 206.704 257.44 206.704 257.167 206.674C256.257 206.582 255.404 206.189 254.744 205.556C254.083 204.924 253.653 204.089 253.521 203.184C253.479 202.913 253.466 202.639 253.483 202.365C253.484 202.265 253.499 202.166 253.526 202.07C253.527 202.437 253.556 202.804 253.612 203.167C253.763 204.043 254.191 204.847 254.834 205.462C255.476 206.077 256.298 206.47 257.18 206.584C257.545 206.622 257.912 206.633 258.279 206.616Z" fill="#263238"/>
<g opacity="0.3">
<path d="M254.853 205.52C253.941 204.822 253.626 203.628 253.528 202.436C253.233 203.648 253.528 205.137 254.45 205.976C254.919 206.393 255.49 206.678 256.104 206.804C256.719 206.929 257.356 206.891 257.951 206.692C256.832 206.586 255.762 206.181 254.853 205.52Z" fill="black"/>
</g>
<path d="M256.981 265.826L258.536 269.841L255.517 271.529L253.746 270.67L252.042 267.074L256.981 265.826Z" fill="#D6D6D6"/>
<path d="M253.301 270.424L253.417 270.731C253.417 270.731 249.015 274.796 249.335 275.804L259.634 271.825L258.16 268.461C257.539 269.118 256.783 269.633 255.945 269.972C255.106 270.31 254.205 270.465 253.301 270.424Z" fill="#455A64"/>
<g opacity="0.6">
<path d="M257.55 269.962C257.661 269.952 257.771 269.985 257.859 270.052C257.947 270.12 258.007 270.218 258.027 270.327C258.04 270.439 258.008 270.552 257.939 270.641C257.869 270.73 257.768 270.788 257.656 270.803C257.539 270.812 257.422 270.777 257.329 270.705C257.236 270.633 257.173 270.529 257.152 270.413C257.152 270.191 257.361 269.931 257.583 269.959" fill="white"/>
</g>
<g opacity="0.6">
<path d="M259.635 271.835L259.285 271.023L249.54 275.134C249.54 275.134 249.159 275.512 249.336 275.814L259.635 271.835Z" fill="white"/>
</g>
<path d="M253.393 270.784C253.415 270.835 253.675 270.759 253.985 270.825C254.295 270.89 254.509 271.052 254.547 271.014C254.585 270.976 254.398 270.714 254.023 270.641C253.647 270.568 253.372 270.742 253.393 270.784Z" fill="#263238"/>
<path d="M252.485 271.649C252.485 271.702 252.737 271.704 252.989 271.85C253.241 271.997 253.38 272.203 253.428 272.181C253.476 272.158 253.4 271.863 253.08 271.677C252.76 271.49 252.468 271.601 252.485 271.649Z" fill="#263238"/>
<path d="M252.364 273.178C252.415 273.178 252.387 272.894 252.15 272.674C251.913 272.455 251.646 272.422 251.633 272.48C251.621 272.538 251.83 272.621 252.022 272.81C252.213 272.999 252.319 273.196 252.364 273.178Z" fill="#263238"/>
<path d="M264.735 268.23L264.637 272.534L261.202 272.94L259.894 271.468L259.695 267.494L264.735 268.23Z" fill="#D6D6D6"/>
<path d="M259.574 271.082V271.41C259.574 271.41 253.949 273.484 253.861 274.534L264.901 274.786L264.838 271.11C263.167 271.841 261.449 271.886 259.574 271.082Z" fill="#455A64"/>
<g opacity="0.6">
<path d="M263.681 272.269C263.787 272.304 263.876 272.376 263.931 272.472C263.987 272.569 264.005 272.682 263.981 272.791C263.95 272.895 263.881 272.984 263.787 273.039C263.694 273.095 263.583 273.113 263.477 273.091C263.365 273.054 263.27 272.977 263.212 272.875C263.154 272.772 263.136 272.651 263.162 272.536C263.206 272.429 263.29 272.343 263.396 272.296C263.502 272.249 263.622 272.245 263.731 272.284" fill="white"/>
</g>
<g opacity="0.6">
<path d="M264.891 274.797L264.876 273.912L254.292 273.985C254.292 273.985 253.788 274.189 253.843 274.535L264.891 274.797Z" fill="white"/>
</g>
<path d="M259.524 271.433C259.524 271.486 259.793 271.518 260.055 271.697C260.317 271.876 260.451 272.106 260.501 272.085C260.552 272.065 260.479 271.753 260.159 271.541C259.839 271.329 259.513 271.39 259.524 271.433Z" fill="#263238"/>
<path d="M258.354 271.891C258.354 271.944 258.573 272.04 258.75 272.274C258.926 272.508 258.974 272.748 259.03 272.748C259.085 272.748 259.123 272.44 258.899 272.156C258.674 271.871 258.357 271.841 258.354 271.891Z" fill="#263238"/>
<path d="M257.657 273.262C257.707 273.274 257.788 273.01 257.657 272.707C257.525 272.405 257.276 272.286 257.251 272.332C257.226 272.377 257.379 272.536 257.483 272.783C257.586 273.03 257.611 273.254 257.657 273.262Z" fill="#263238"/>
<path d="M264.291 215.447C264.291 215.447 268.097 220.525 268.263 224.65C268.35 227.174 267.891 229.687 266.917 232.016C266.917 232.016 265.07 242.096 264.8 245.387C264.643 247.612 264.643 249.846 264.8 252.07C264.8 252.07 265.574 257.181 265.66 259.363C265.745 261.546 264.712 269.607 264.712 269.607H259.718C259.718 269.607 257.583 251.861 257.326 250.569C257.069 249.276 256.437 246.441 256.437 246.441C256.437 246.441 254.39 232.664 254.39 228.297C254.39 223.93 253.962 217.357 253.962 217.357C258.095 217.015 261.822 216.496 264.291 215.447Z" fill="#263238"/>
<path d="M251.636 217.16C251.636 217.16 241.914 244.469 242.08 245.86C242.246 247.251 252.961 268.964 252.961 268.964L257.44 266.96L253.962 252.092L250.913 245.52L255.847 237.255L258.072 225.081L255.103 217.405L251.636 217.16Z" fill="#263238"/>
<path d="M253.962 223.943C253.978 224 253.988 224.058 253.992 224.117C254.007 224.246 254.027 224.41 254.052 224.621C254.1 225.07 254.168 225.695 254.251 226.461C254.408 228.026 254.622 230.165 254.859 232.529C255.096 234.893 255.282 237.035 255.428 238.602C255.494 239.358 255.549 239.996 255.587 240.444C255.602 240.653 255.615 240.82 255.622 240.948C255.628 241.007 255.628 241.066 255.622 241.125C255.606 241.069 255.596 241.011 255.592 240.953C255.577 240.826 255.557 240.658 255.532 240.449C255.481 239.998 255.416 239.376 255.332 238.61C255.174 237.042 254.959 234.903 254.723 232.539C254.486 230.175 254.302 228.033 254.153 226.466C254.088 225.71 254.035 225.075 253.997 224.624C253.982 224.417 253.969 224.251 253.959 224.12C253.954 224.061 253.955 224.002 253.962 223.943Z" fill="#455A64"/>
<path d="M264.924 216.496C264.884 216.521 264.842 216.542 264.798 216.557L264.432 216.7C264.112 216.826 263.644 216.987 263.059 217.169C262.474 217.35 261.771 217.544 260.982 217.728C260.194 217.912 259.314 218.069 258.389 218.195C257.465 218.321 256.572 218.384 255.761 218.419C254.95 218.454 254.221 218.447 253.611 218.419C253.002 218.391 252.505 218.361 252.165 218.323L251.772 218.278C251.726 218.275 251.68 218.266 251.636 218.253C251.682 218.248 251.728 218.248 251.774 218.253L252.167 218.27C252.508 218.293 253.002 218.313 253.614 218.326C254.226 218.338 254.95 218.326 255.756 218.298C256.562 218.27 257.447 218.182 258.372 218.064C259.297 217.945 260.166 217.779 260.955 217.61C261.743 217.441 262.447 217.255 263.034 217.081C263.621 216.907 264.092 216.763 264.415 216.652L264.79 216.531C264.833 216.515 264.878 216.503 264.924 216.496Z" fill="#455A64"/>
<path d="M261.801 217.756C261.82 217.796 261.837 217.837 261.852 217.879L261.99 218.247C262.111 218.57 262.275 219.051 262.477 219.676C263.034 221.44 263.47 223.24 263.78 225.064C264.239 227.773 264.424 230.522 264.331 233.269C264.248 236.371 263.81 239.755 263.525 243.314C263.274 246.663 263.267 250.026 263.505 253.376C263.689 256.466 263.885 259.25 263.933 261.594C263.992 263.443 263.945 265.294 263.792 267.138C263.747 267.793 263.671 268.297 263.631 268.65L263.578 269.038C263.565 269.126 263.558 269.169 263.558 269.169C263.558 269.169 263.558 269.124 263.558 269.035C263.558 268.947 263.581 268.814 263.596 268.645C263.628 268.302 263.696 267.798 263.734 267.133C263.866 265.288 263.9 263.437 263.835 261.589C263.775 259.248 263.565 256.468 263.376 253.374C263.128 250.018 263.128 246.649 263.376 243.294C263.661 239.73 264.102 236.351 264.193 233.256C264.354 228.662 263.751 224.073 262.409 219.676C262.217 219.049 262.061 218.565 261.948 218.24C261.892 218.081 261.852 217.957 261.822 217.869C261.791 217.781 261.801 217.756 261.801 217.756Z" fill="white"/>
<path d="M260.867 218.24C260.867 218.24 260.885 218.281 260.918 218.364L261.054 218.732C261.175 219.054 261.341 219.536 261.54 220.16C262.1 221.925 262.536 223.727 262.843 225.553C263.305 228.263 263.49 231.013 263.397 233.761C263.312 236.861 262.876 240.245 262.591 243.803C262.339 247.152 262.332 250.515 262.571 253.865C262.752 256.955 262.951 259.74 262.999 262.083C263.058 263.932 263.011 265.783 262.858 267.627C262.813 268.282 262.737 268.786 262.697 269.139L262.644 269.527C262.631 269.615 262.621 269.658 262.621 269.658C262.621 269.658 262.621 269.613 262.621 269.525C262.621 269.437 262.644 269.303 262.659 269.134C262.692 268.791 262.76 268.287 262.798 267.622C262.93 265.777 262.962 263.927 262.896 262.078C262.835 259.737 262.629 256.958 262.44 253.863C262.19 250.508 262.19 247.138 262.44 243.783C262.724 240.22 263.165 236.84 263.256 233.746C263.36 231.01 263.191 228.271 262.752 225.568C262.452 223.745 262.031 221.943 261.492 220.176C261.301 219.548 261.142 219.064 261.028 218.739C260.976 218.58 260.935 218.457 260.905 218.369C260.875 218.281 260.867 218.24 260.867 218.24Z" fill="white"/>
<path d="M265.42 183.828C265.38 183.923 265.349 184.02 265.327 184.12C265.323 184.165 265.335 184.21 265.36 184.248C265.385 184.285 265.422 184.313 265.465 184.327C265.521 184.342 265.584 184.327 265.639 184.347C265.698 184.369 265.749 184.408 265.785 184.46C265.821 184.511 265.84 184.572 265.841 184.634C265.838 184.758 265.823 184.882 265.795 185.002C265.78 185.065 265.78 185.131 265.795 185.194C265.804 185.225 265.822 185.254 265.847 185.275C265.871 185.297 265.902 185.311 265.934 185.315C266.015 185.315 266.083 185.252 266.126 185.181C266.19 185.062 266.235 184.934 266.259 184.801C266.311 184.611 266.323 184.413 266.297 184.219C266.284 184.121 266.249 184.028 266.196 183.945C266.142 183.863 266.071 183.794 265.987 183.742C265.894 183.696 265.79 183.68 265.687 183.695C265.585 183.71 265.49 183.757 265.415 183.828" fill="#E0E0E0"/>
<path d="M259.924 203.279C259.885 203.221 259.85 203.16 259.818 203.098C259.719 202.922 259.635 202.738 259.566 202.548C259.305 201.853 259.195 201.11 259.243 200.368C259.299 199.256 259.707 198.191 260.41 197.327C261.179 196.342 262.293 195.53 263.215 194.457C263.66 193.93 264.063 193.369 264.42 192.778C264.745 192.224 265.03 191.647 265.271 191.052C265.675 190.04 265.946 188.979 266.078 187.897C266.167 187.168 266.191 186.433 266.151 185.7C266.151 185.448 266.113 185.238 266.105 185.1C266.098 185.03 266.098 184.96 266.105 184.891C266.121 184.959 266.133 185.028 266.141 185.097C266.158 185.233 266.194 185.435 266.214 185.695C266.272 186.432 266.261 187.174 266.181 187.91C266.061 189.003 265.796 190.075 265.392 191.097C265.152 191.7 264.867 192.284 264.54 192.844C264.182 193.442 263.774 194.01 263.323 194.542C262.386 195.631 261.275 196.437 260.514 197.402C259.821 198.246 259.413 199.287 259.347 200.376C259.294 201.109 259.391 201.844 259.632 202.538C259.795 203.022 259.947 203.272 259.924 203.279Z" fill="#E0E0E0"/>
<path d="M256.031 187.963C256.009 188.11 255.979 188.255 255.943 188.399C255.862 188.793 255.818 189.194 255.812 189.596C255.813 190.928 256.12 192.242 256.709 193.436C257.309 194.626 258.034 195.749 258.871 196.786C259.176 197.176 259.43 197.496 259.627 197.741C259.72 197.853 259.804 197.973 259.879 198.098C259.768 197.999 259.666 197.89 259.574 197.773C259.387 197.557 259.118 197.242 258.793 196.843C257.929 195.816 257.189 194.691 256.585 193.492C255.987 192.281 255.688 190.944 255.713 189.593C255.729 189.186 255.787 188.781 255.887 188.386C255.913 188.279 255.945 188.173 255.983 188.069C256.011 187.998 256.026 187.96 256.031 187.963Z" fill="#E0E0E0"/>
<path d="M240.808 202.35L240.999 202.68C241.016 202.718 241.046 202.749 241.082 202.768C241.108 202.772 241.135 202.769 241.16 202.76C241.184 202.751 241.206 202.735 241.223 202.715C241.289 202.65 241.34 202.571 241.374 202.484C241.408 202.397 241.424 202.304 241.42 202.211C241.414 202.026 241.361 201.844 241.266 201.685C241.25 201.646 241.226 201.61 241.195 201.58C241.165 201.55 241.129 201.527 241.09 201.511C241.003 201.493 240.912 201.51 240.838 201.559C240.734 201.612 240.634 201.667 240.538 201.728C240.49 201.758 240.44 201.796 240.435 201.849C240.435 201.892 240.448 201.934 240.472 201.97C240.558 202.108 240.724 202.209 240.797 202.348" fill="#815144"/>
<path d="M261.918 197.577L258.244 208.345L246.904 201.433L244.805 203.744C244.805 203.744 253.678 212.564 255.24 213.849C256.802 215.134 259.325 215.27 260.141 215.064C260.958 214.857 262.775 212.45 264.745 209.061C266.716 205.671 268.964 200.024 269.281 197.865C269.599 195.705 269.612 194.558 268.717 193.691" fill="#D6D6D6"/>
<path d="M268.699 193.691C268.699 193.691 268.744 193.734 268.83 193.822C268.954 193.956 269.062 194.104 269.15 194.263C269.29 194.524 269.384 194.807 269.427 195.1C269.482 195.5 269.494 195.905 269.465 196.307C269.437 196.761 269.379 197.262 269.304 197.819C269.208 198.412 269.071 198.997 268.893 199.571C268.464 200.966 267.965 202.338 267.399 203.683C266.725 205.317 265.968 206.915 265.131 208.471C264.672 209.308 264.16 210.152 263.619 211.011C263.064 211.898 262.465 212.756 261.824 213.582C261.492 214.017 261.12 214.42 260.713 214.786C260.606 214.88 260.49 214.965 260.368 215.038C260.304 215.074 260.236 215.104 260.166 215.127C260.096 215.145 260.026 215.16 259.954 215.172C259.675 215.21 259.392 215.222 259.11 215.21C258.538 215.187 257.971 215.103 257.417 214.958C256.849 214.819 256.303 214.603 255.794 214.315C255.293 213.997 254.828 213.625 254.408 213.206C253.972 212.806 253.539 212.395 253.103 211.977C252.232 211.137 251.355 210.288 250.469 209.431C248.491 207.498 246.576 205.606 244.749 203.789L244.706 203.746L244.746 203.701L246.848 201.39L246.883 201.352L246.926 201.377L258.266 208.305L258.196 208.33C259.337 205.009 260.262 202.322 260.905 200.458C261.225 199.533 261.477 198.812 261.66 198.318L261.857 197.764C261.902 197.64 261.928 197.577 261.928 197.577C261.928 197.577 261.91 197.643 261.87 197.769L261.688 198.328C261.522 198.832 261.28 199.545 260.97 200.475L258.301 208.36L258.281 208.416L258.231 208.386L246.876 201.486L246.956 201.473L244.857 203.787V203.698C246.687 205.513 248.602 207.405 250.58 209.338L253.211 211.883C253.647 212.299 254.08 212.71 254.514 213.111C254.927 213.524 255.384 213.891 255.877 214.204C256.375 214.486 256.909 214.698 257.465 214.834C258.01 214.975 258.568 215.055 259.13 215.074C259.406 215.086 259.681 215.074 259.954 215.038C260.218 214.996 260.461 214.874 260.653 214.688C261.051 214.327 261.417 213.932 261.746 213.506C262.409 212.67 262.991 211.8 263.538 210.948C264.085 210.097 264.594 209.247 265.05 208.428C265.888 206.872 266.645 205.274 267.318 203.64C267.943 202.146 268.454 200.77 268.83 199.54C269.01 198.972 269.15 198.392 269.248 197.804C269.326 197.257 269.389 196.758 269.42 196.307C269.454 195.908 269.446 195.507 269.394 195.11C269.361 194.82 269.275 194.539 269.142 194.279C269.019 194.065 268.87 193.868 268.699 193.691Z" fill="#815144"/>
<path d="M259.924 203.448L266.136 206.298C266.136 206.298 267.675 202.997 267.9 202.339L261.333 199.33L259.924 203.448Z" fill="#455A64"/>
<path d="M258.891 211.734C258.85 211.734 258.868 210.945 258.677 210C258.485 209.055 258.173 208.334 258.208 208.316C258.311 208.457 258.391 208.612 258.445 208.778C258.603 209.164 258.724 209.565 258.805 209.975C258.887 210.384 258.93 210.8 258.934 211.217C258.947 211.39 258.933 211.565 258.891 211.734Z" fill="#815144"/>
<path d="M259.385 209.826C259.35 209.844 259.163 209.466 258.848 209.07C258.533 208.674 258.216 208.39 258.241 208.359C258.527 208.507 258.771 208.723 258.952 208.989C259.164 209.227 259.313 209.515 259.385 209.826Z" fill="#815144"/>
<path d="M266.857 199.542L264.569 198.582C264.081 198.377 263.52 198.606 263.315 199.094L260.751 205.203C260.546 205.69 260.776 206.252 261.263 206.456L263.552 207.417C264.04 207.622 264.601 207.392 264.806 206.905L267.37 200.796C267.574 200.308 267.345 199.747 266.857 199.542Z" fill="#263238"/>
<path d="M265.355 208.075C265.355 208.075 265.504 208.014 265.693 208.175C265.799 208.275 265.869 208.407 265.892 208.551C265.914 208.744 265.868 208.938 265.761 209.1C265.636 209.286 265.489 209.456 265.322 209.604C265.139 209.785 264.944 209.954 264.737 210.108C264.506 210.278 264.251 210.415 263.981 210.514C263.686 210.616 263.372 210.651 263.062 210.617C262.747 210.583 262.451 210.451 262.215 210.239C262.002 210.037 261.847 209.783 261.766 209.501C261.632 209.031 261.64 208.532 261.789 208.067C261.88 207.758 261.999 207.458 262.144 207.17C262.19 207.06 262.247 206.956 262.313 206.857C262.282 206.972 262.241 207.083 262.19 207.19C262.065 207.483 261.961 207.783 261.877 208.09C261.746 208.538 261.746 209.015 261.877 209.463C261.954 209.724 262.099 209.959 262.298 210.144C262.513 210.337 262.784 210.458 263.072 210.489C263.642 210.533 264.208 210.362 264.659 210.01C264.863 209.863 265.056 209.703 265.239 209.531C265.403 209.389 265.549 209.227 265.675 209.05C265.779 208.903 265.827 208.725 265.811 208.546C265.796 208.416 265.739 208.294 265.65 208.198C265.568 208.124 265.464 208.081 265.355 208.075Z" fill="#E0E0E0"/>
<path d="M247.221 201.628C247.221 201.628 244.837 198.604 244.449 198.46C244.061 198.317 242.38 197.503 242.38 197.503L239.512 197.195C239.512 197.195 239.359 197.999 239.933 198.115C240.508 198.231 241.123 198.423 241.123 198.423L242.032 198.881C242.032 198.881 240.384 199.305 240.309 199.476C240.262 199.605 240.248 199.743 240.268 199.879C240.029 200.141 239.892 200.482 239.885 200.837L239.484 202.097L240.435 203.415C240.62 203.248 240.741 203.021 240.777 202.775C240.815 202.392 240.404 202.019 240.404 202.019L240.883 201.6H241.387C241.387 201.6 243.995 203.44 244.683 203.631L245.439 204.36" fill="#D6D6D6"/>
<path d="M245.45 204.362C245.431 204.349 245.413 204.335 245.397 204.319L245.246 204.185L244.666 203.651H244.679C244.177 203.449 243.697 203.196 243.247 202.895C242.693 202.55 242.058 202.139 241.36 201.635H241.387H240.883L240.916 201.623L240.442 202.041V201.96C240.654 202.144 240.794 202.397 240.836 202.673C240.833 202.82 240.799 202.965 240.736 203.098C240.674 203.231 240.584 203.349 240.473 203.445L240.427 203.487L240.387 203.432L239.442 202.132L239.422 202.106V202.076C239.548 201.676 239.674 201.247 239.823 200.816V200.836C239.827 200.462 239.97 200.103 240.223 199.828L240.206 199.886C240.18 199.741 240.194 199.591 240.246 199.453C240.26 199.429 240.277 199.407 240.296 199.387L240.347 199.357C240.378 199.337 240.411 199.319 240.445 199.304C240.511 199.277 240.576 199.249 240.642 199.226C240.906 199.128 241.178 199.047 241.45 198.974L242.015 198.82V198.944L241.095 198.483C240.71 198.367 240.324 198.263 239.944 198.183C239.836 198.166 239.734 198.12 239.651 198.049C239.572 197.976 239.512 197.884 239.477 197.782C239.419 197.588 239.408 197.382 239.445 197.182V197.127H239.505L242.378 197.442L243.638 198.032L244.225 198.306C244.323 198.348 244.419 198.397 244.51 198.452C244.592 198.515 244.669 198.584 244.739 198.659C245.293 199.234 245.722 199.773 246.085 200.211C246.448 200.65 246.72 201.003 246.906 201.242L247.115 201.519C247.142 201.549 247.165 201.582 247.183 201.618C247.153 201.591 247.126 201.562 247.103 201.529C247.045 201.464 246.972 201.376 246.879 201.265L246.034 200.257C245.666 199.826 245.228 199.292 244.676 198.73C244.609 198.66 244.535 198.596 244.457 198.538C244.371 198.485 244.281 198.439 244.187 198.402L243.598 198.132L242.322 197.548H242.34L239.513 197.258L239.581 197.208C239.548 197.385 239.558 197.567 239.611 197.739C239.635 197.823 239.683 197.897 239.749 197.954C239.815 198.011 239.895 198.047 239.981 198.059C240.369 198.137 240.757 198.241 241.148 198.359L242.07 198.818L242.224 198.893L242.055 198.939L241.496 199.093C241.224 199.171 240.952 199.251 240.694 199.345C240.631 199.367 240.568 199.392 240.508 199.42C240.478 199.431 240.449 199.446 240.422 199.463L240.387 199.486C240.387 199.486 240.387 199.486 240.374 199.498C240.333 199.614 240.322 199.738 240.342 199.859V199.891L240.322 199.917C240.093 200.166 239.963 200.49 239.956 200.829V200.849C239.815 201.285 239.679 201.713 239.55 202.109V202.054C239.878 202.512 240.198 202.953 240.498 203.374L240.412 203.361C240.51 203.278 240.59 203.175 240.646 203.059C240.702 202.943 240.733 202.817 240.737 202.689C240.697 202.442 240.573 202.216 240.385 202.051L240.342 202.008L240.385 201.968L240.863 201.552L240.878 201.539H241.413H241.425C242.118 202.028 242.748 202.454 243.298 202.799C243.738 203.104 244.207 203.365 244.699 203.578L245.261 204.128L245.404 204.271C245.437 204.342 245.452 204.359 245.45 204.362Z" fill="#815144"/>
<path d="M241.78 200.467C241.78 200.505 241.359 200.525 240.855 200.633C240.351 200.742 239.956 200.885 239.941 200.855C240.492 200.521 241.141 200.384 241.78 200.467Z" fill="#815144"/>
<path d="M242.347 199.568C242.015 199.648 241.678 199.708 241.339 199.747C241.007 199.83 240.671 199.893 240.331 199.936C240.959 199.638 241.654 199.511 242.347 199.568Z" fill="#815144"/>
<path d="M243.751 198.47C243.468 198.585 243.177 198.677 242.879 198.745C242.59 198.854 242.284 198.909 241.975 198.906C242.255 198.783 242.546 198.686 242.844 198.619C243.134 198.51 243.442 198.459 243.751 198.47Z" fill="#815144"/>
<path d="M247.43 160.992H225.808C225.087 160.992 224.395 161.279 223.885 161.789C223.375 162.299 223.089 162.99 223.089 163.711V188.508C223.089 189.237 223.378 189.935 223.893 190.45C224.409 190.965 225.107 191.255 225.836 191.255H235.699L238.504 194.927L241.339 191.255H247.437C247.794 191.255 248.148 191.185 248.478 191.048C248.808 190.911 249.107 190.711 249.36 190.458C249.612 190.206 249.813 189.906 249.949 189.576C250.086 189.246 250.156 188.893 250.156 188.536V163.711C250.156 163.354 250.086 162.999 249.948 162.669C249.811 162.339 249.61 162.039 249.357 161.786C249.104 161.533 248.803 161.333 248.472 161.197C248.142 161.061 247.787 160.991 247.43 160.992Z" fill="#455A64"/>
<g opacity="0.1">
<path d="M223.089 165.591V186.978C223.089 187.541 223.2 188.098 223.415 188.618C223.63 189.138 223.946 189.61 224.344 190.008C224.741 190.405 225.214 190.721 225.733 190.936C226.253 191.152 226.81 191.262 227.373 191.262H235.581C235.617 191.263 235.654 191.272 235.687 191.288C235.72 191.304 235.749 191.327 235.772 191.356L238.307 194.687C238.329 194.716 238.358 194.74 238.391 194.756C238.423 194.773 238.46 194.781 238.496 194.781C238.533 194.781 238.569 194.773 238.602 194.756C238.635 194.74 238.663 194.716 238.685 194.687L241.261 191.353C241.283 191.325 241.312 191.302 241.345 191.286C241.378 191.27 241.413 191.261 241.45 191.26H245.666C245.712 191.261 245.757 191.248 245.796 191.223C245.835 191.198 245.866 191.163 245.885 191.121C245.904 191.079 245.91 191.032 245.903 190.986C245.896 190.941 245.875 190.898 245.844 190.864L223.507 165.425C223.472 165.394 223.429 165.373 223.383 165.365C223.337 165.357 223.29 165.362 223.247 165.379C223.203 165.396 223.166 165.425 223.138 165.463C223.11 165.5 223.093 165.545 223.089 165.591Z" fill="white"/>
</g>
<path d="M233.234 169.672C233.234 170.68 232.34 171.302 230.989 171.302C229.638 171.302 228.759 170.672 228.759 169.672C228.754 169.406 228.828 169.145 228.971 168.92C229.114 168.696 229.32 168.519 229.563 168.412C229.372 168.302 229.214 168.143 229.105 167.951C228.997 167.759 228.943 167.541 228.948 167.321C228.948 166.386 229.782 165.809 230.989 165.809C232.196 165.809 233.045 166.391 233.045 167.321C233.049 167.542 232.993 167.759 232.883 167.951C232.774 168.143 232.615 168.302 232.423 168.412C232.668 168.518 232.875 168.695 233.019 168.919C233.164 169.143 233.239 169.405 233.234 169.672ZM231.99 169.624C231.99 169.153 231.604 168.868 230.982 168.868C230.359 168.868 229.994 169.155 229.994 169.624C229.994 170.093 230.374 170.38 230.982 170.38C231.589 170.38 231.99 170.105 231.99 169.624ZM230.17 167.371C230.17 167.772 230.488 168.024 230.989 168.024C231.491 168.024 231.823 167.772 231.823 167.371C231.823 166.97 231.488 166.703 230.989 166.703C230.49 166.703 230.17 166.963 230.17 167.381V167.371Z" fill="white"/>
<path d="M233.756 167.805C233.767 167.617 233.849 167.44 233.986 167.311C234.124 167.181 234.305 167.109 234.493 167.109C234.681 167.109 234.863 167.181 235 167.311C235.137 167.44 235.219 167.617 235.23 167.805C235.236 167.905 235.221 168.006 235.187 168.1C235.153 168.195 235.099 168.281 235.03 168.354C234.961 168.428 234.878 168.486 234.786 168.526C234.693 168.566 234.594 168.586 234.493 168.586C234.393 168.586 234.293 168.566 234.201 168.526C234.108 168.486 234.025 168.428 233.956 168.354C233.887 168.281 233.834 168.195 233.799 168.1C233.765 168.006 233.75 167.905 233.756 167.805ZM233.756 170.529C233.767 170.341 233.849 170.164 233.986 170.035C234.124 169.905 234.305 169.833 234.493 169.833C234.681 169.833 234.863 169.905 235 170.035C235.137 170.164 235.219 170.341 235.23 170.529C235.236 170.629 235.221 170.73 235.187 170.824C235.153 170.919 235.099 171.005 235.03 171.078C234.961 171.152 234.878 171.21 234.786 171.25C234.693 171.29 234.594 171.31 234.493 171.31C234.393 171.31 234.293 171.29 234.201 171.25C234.108 171.21 234.025 171.152 233.956 171.078C233.887 171.005 233.834 170.919 233.799 170.824C233.765 170.73 233.75 170.629 233.756 170.529Z" fill="white"/>
<path d="M239.764 170.21V171.218H235.732V170.415L237.781 168.479C238.252 168.033 238.335 167.759 238.335 167.501C238.335 167.083 238.046 166.841 237.486 166.841C237.273 166.832 237.061 166.876 236.869 166.969C236.677 167.062 236.51 167.2 236.385 167.373L235.49 166.796C235.898 166.196 236.642 165.811 237.599 165.811C238.781 165.811 239.573 166.415 239.573 167.381C239.573 167.885 239.426 168.366 238.683 169.056L237.463 170.21H239.764Z" fill="white"/>
<path d="M240.242 168.555C240.242 166.803 241.215 165.811 242.51 165.811C243.805 165.811 244.778 166.803 244.778 168.555C244.778 170.306 243.816 171.302 242.51 171.302C241.205 171.302 240.242 170.309 240.242 168.555ZM243.559 168.555C243.559 167.35 243.135 166.849 242.52 166.849C241.905 166.849 241.487 167.353 241.487 168.555C241.487 169.757 241.913 170.263 242.52 170.263C243.128 170.263 243.559 169.762 243.559 168.555Z" fill="white"/>
<path d="M234.923 180.656C234.936 180.771 234.923 180.887 234.886 180.997C234.849 181.106 234.789 181.206 234.71 181.29C234.631 181.374 234.534 181.44 234.427 181.483C234.319 181.525 234.204 181.544 234.089 181.538C233.93 181.543 233.773 181.504 233.635 181.425L233.774 181.148C233.866 181.206 233.973 181.235 234.081 181.231C234.144 181.234 234.207 181.224 234.266 181.2C234.324 181.177 234.377 181.142 234.421 181.096C234.464 181.051 234.498 180.997 234.519 180.937C234.54 180.878 234.548 180.815 234.542 180.752C234.488 180.803 234.423 180.842 234.353 180.867C234.283 180.893 234.209 180.904 234.134 180.901C234.064 180.907 233.993 180.898 233.926 180.875C233.859 180.853 233.797 180.817 233.745 180.77C233.692 180.723 233.65 180.665 233.62 180.601C233.59 180.537 233.574 180.467 233.572 180.397C233.574 180.319 233.592 180.244 233.625 180.174C233.658 180.104 233.704 180.041 233.762 179.99C233.82 179.939 233.888 179.9 233.962 179.877C234.035 179.853 234.113 179.845 234.19 179.852C234.643 179.845 234.923 180.13 234.923 180.656ZM234.5 180.371C234.5 180.23 234.394 180.119 234.215 180.119C234.177 180.109 234.138 180.108 234.1 180.115C234.062 180.123 234.026 180.139 233.996 180.162C233.965 180.186 233.94 180.216 233.923 180.251C233.906 180.286 233.897 180.324 233.897 180.363C233.897 180.401 233.906 180.44 233.923 180.474C233.94 180.509 233.965 180.539 233.996 180.563C234.026 180.586 234.062 180.603 234.1 180.61C234.138 180.617 234.177 180.616 234.215 180.606C234.249 180.61 234.284 180.608 234.317 180.598C234.351 180.589 234.382 180.573 234.408 180.551C234.435 180.529 234.457 180.501 234.473 180.471C234.488 180.44 234.498 180.406 234.5 180.371Z" fill="white"/>
<path d="M235.106 180.69C235.106 180.151 235.404 179.844 235.807 179.844C236.21 179.844 236.508 180.151 236.508 180.69C236.508 181.23 236.21 181.537 235.807 181.537C235.404 181.537 235.106 181.23 235.106 180.69ZM236.114 180.69C236.114 180.32 235.983 180.164 235.794 180.164C235.605 180.164 235.477 180.32 235.477 180.69C235.477 181.061 235.608 181.217 235.794 181.217C235.981 181.217 236.127 181.063 236.127 180.69H236.114Z" fill="white"/>
<path d="M237.931 180.996C237.931 181.286 237.717 181.538 237.251 181.538C237.03 181.542 236.812 181.481 236.626 181.362L236.775 181.072C236.912 181.168 237.076 181.218 237.243 181.215C237.432 181.215 237.551 181.135 237.551 181.001C237.551 180.868 237.465 180.79 237.168 180.79H236.739L236.825 179.867H237.833V180.172H237.15L237.125 180.482H237.258C237.747 180.487 237.931 180.711 237.931 180.996Z" fill="white"/>
<path d="M238.086 180.69C238.086 180.151 238.386 179.844 238.789 179.844C239.192 179.844 239.49 180.151 239.49 180.69C239.49 181.23 239.192 181.537 238.789 181.537C238.386 181.537 238.086 181.23 238.086 180.69ZM239.109 180.69C239.109 180.32 238.978 180.164 238.789 180.164C238.6 180.164 238.469 180.32 238.469 180.69C238.469 181.061 238.6 181.217 238.789 181.217C238.978 181.217 239.109 181.063 239.109 180.69Z" fill="white"/>
<path d="M236.644 187.461C235.348 187.461 234.081 187.077 233.004 186.357C231.926 185.637 231.087 184.614 230.591 183.417C230.095 182.22 229.965 180.902 230.218 179.631C230.471 178.36 231.095 177.193 232.011 176.276C232.927 175.36 234.095 174.736 235.366 174.483C236.637 174.231 237.954 174.36 239.151 174.856C240.348 175.352 241.372 176.192 242.092 177.269C242.812 178.347 243.196 179.614 243.196 180.909C243.191 182.645 242.499 184.309 241.271 185.537C240.043 186.764 238.38 187.456 236.644 187.461ZM236.644 176.099C235.697 176.099 234.771 176.38 233.984 176.906C233.196 177.432 232.583 178.18 232.22 179.054C231.858 179.929 231.763 180.892 231.948 181.821C232.133 182.75 232.589 183.603 233.258 184.272C233.928 184.942 234.781 185.398 235.71 185.583C236.639 185.767 237.601 185.673 238.476 185.31C239.351 184.948 240.099 184.334 240.625 183.547C241.151 182.759 241.432 181.834 241.432 180.887C241.427 179.619 240.92 178.404 240.024 177.507C239.127 176.61 237.912 176.104 236.644 176.099Z" fill="white"/>
<path d="M236.644 187.463C235.488 187.462 234.353 187.157 233.353 186.579C232.352 186.001 231.521 185.17 230.944 184.169C230.827 183.966 230.796 183.725 230.857 183.499C230.918 183.273 231.066 183.081 231.269 182.964C231.472 182.848 231.712 182.817 231.938 182.877C232.164 182.938 232.357 183.087 232.473 183.29C232.894 184.015 233.498 184.618 234.225 185.036C234.952 185.455 235.776 185.676 236.615 185.676C237.454 185.676 238.278 185.456 239.005 185.037C239.732 184.618 240.336 184.016 240.757 183.29C241.178 182.565 241.401 181.741 241.403 180.902C241.406 180.063 241.188 179.239 240.772 178.51C240.355 177.782 239.754 177.176 239.03 176.753C238.306 176.33 237.483 176.105 236.644 176.1C236.41 176.1 236.186 176.007 236.02 175.842C235.855 175.676 235.762 175.452 235.762 175.218C235.762 174.984 235.855 174.76 236.02 174.594C236.186 174.429 236.41 174.336 236.644 174.336C238.385 174.336 240.054 175.027 241.285 176.258C242.516 177.489 243.207 179.159 243.207 180.899C243.207 182.64 242.516 184.309 241.285 185.54C240.054 186.771 238.385 187.463 236.644 187.463Z" fill="white"/>
<path d="M223.976 185.94C223.938 185.94 223.91 182.85 223.91 179.042C223.91 175.235 223.938 172.143 223.976 172.143C224.013 172.143 224.041 175.23 224.041 179.037C224.041 182.845 224.011 185.94 223.976 185.94Z" fill="#263238"/>
<path d="M224.939 188.826C224.72 188.6 224.55 188.332 224.44 188.037C224.329 187.743 224.28 187.429 224.296 187.115C224.334 187.115 224.384 187.521 224.563 187.992C224.742 188.463 224.969 188.804 224.939 188.826Z" fill="#263238"/>
<path d="M249.312 170.223C249.347 170.223 249.377 173.718 249.377 178.035C249.377 182.351 249.347 185.847 249.312 185.847C249.276 185.847 249.246 182.354 249.246 178.035C249.246 173.715 249.276 170.223 249.312 170.223Z" fill="#263238"/>
<path d="M249.206 165.734C249.271 166.14 249.293 166.551 249.272 166.962C249.293 167.373 249.271 167.785 249.206 168.191C249.14 167.785 249.118 167.373 249.141 166.962C249.118 166.551 249.14 166.14 249.206 165.734Z" fill="#263238"/>
<g opacity="0.1">
<path d="M228.492 160.992L250.149 185.56V182.531L231.163 160.992H228.492Z" fill="white"/>
</g>
<path d="M239.323 182.085C238.494 182.152 237.662 182.173 236.83 182.151C236 182.173 235.169 182.152 234.341 182.085C235.169 182.02 236 181.998 236.83 182.02C237.662 181.998 238.494 182.02 239.323 182.085Z" fill="white"/>
<path d="M243.665 172.144C243.665 172.179 240.689 172.209 237.02 172.209C233.351 172.209 230.377 172.179 230.377 172.144C230.377 172.108 233.351 172.078 237.02 172.078C240.689 172.078 243.665 172.113 243.665 172.144Z" fill="white"/>
<path d="M215.36 168.064H197.683C195.678 168.064 194.054 169.689 194.054 171.693V192.324C194.054 194.329 195.678 195.953 197.683 195.953H215.36C217.364 195.953 218.989 194.329 218.989 192.324V171.693C218.989 169.689 217.364 168.064 215.36 168.064Z" fill="#455A64"/>
<path d="M215.36 195.951L215.612 195.931C215.717 195.926 215.821 195.913 215.924 195.893C216.068 195.871 216.211 195.839 216.35 195.797C216.741 195.682 217.11 195.502 217.441 195.266C217.892 194.94 218.264 194.518 218.53 194.031C218.683 193.739 218.796 193.428 218.868 193.106C218.939 192.749 218.968 192.386 218.953 192.022C218.953 191.266 218.953 190.425 218.953 189.533C218.953 187.746 218.953 185.71 218.953 183.462C218.953 181.214 218.953 178.749 218.953 176.106C218.953 174.784 218.953 173.418 218.953 172.008C218.964 171.657 218.938 171.306 218.878 170.96C218.799 170.615 218.675 170.282 218.507 169.97C218.154 169.335 217.616 168.822 216.965 168.498C216.637 168.331 216.282 168.22 215.917 168.171C215.544 168.126 215.168 168.111 214.793 168.125H197.68C196.834 168.129 196.018 168.43 195.371 168.974C194.735 169.514 194.31 170.261 194.169 171.084C194.115 171.493 194.097 171.906 194.114 172.318V176.01C194.114 179.248 194.114 182.368 194.114 185.334C194.114 186.821 194.114 188.273 194.114 189.681V191.763C194.104 192.099 194.114 192.436 194.144 192.771C194.185 193.096 194.27 193.415 194.396 193.718C194.646 194.298 195.045 194.802 195.551 195.18C196.057 195.558 196.654 195.796 197.281 195.87C197.581 195.898 197.884 195.896 198.186 195.896H200.804L211.456 195.916H214.352H215.108C215.277 195.916 215.36 195.916 215.36 195.916H215.108H214.352H211.456L200.804 195.938H198.184C197.884 195.938 197.579 195.938 197.266 195.916C196.62 195.841 196.005 195.597 195.483 195.209C194.961 194.821 194.551 194.303 194.293 193.706C194.166 193.392 194.081 193.064 194.041 192.728C194.009 192.389 193.997 192.048 194.005 191.707V189.626C194.005 188.217 194.005 186.766 194.005 185.279C194.005 182.305 194.005 179.185 194.005 175.955V172.323C193.986 171.903 194.005 171.481 194.061 171.063C194.2 170.211 194.634 169.434 195.288 168.869C195.959 168.308 196.805 168.001 197.68 167.999H214.768C215.15 167.985 215.532 168.001 215.912 168.047C216.289 168.1 216.654 168.215 216.993 168.387C217.664 168.719 218.219 169.246 218.586 169.899C218.759 170.222 218.887 170.567 218.966 170.925C219.028 171.278 219.054 171.637 219.044 171.996C219.044 173.405 219.044 174.771 219.044 176.093C219.044 178.737 219.044 181.201 219.044 183.449C219.044 185.697 219.044 187.733 219.044 189.52C219.044 190.412 219.044 191.244 219.044 192.01C219.056 192.377 219.025 192.745 218.953 193.106C218.877 193.432 218.76 193.747 218.603 194.043C218.33 194.535 217.95 194.959 217.492 195.286C217.155 195.522 216.781 195.699 216.386 195.81C216.245 195.851 216.102 195.881 215.957 195.901C215.853 195.918 215.748 195.929 215.642 195.933L215.36 195.951Z" fill="#263238"/>
<g opacity="0.1">
<path d="M215.343 195.951H197.783C196.794 195.951 195.846 195.558 195.146 194.859C194.447 194.16 194.054 193.211 194.054 192.222V171.709" fill="white"/>
</g>
<path d="M194.867 191.044C194.832 191.044 194.802 188.199 194.802 184.691C194.802 181.184 194.832 178.336 194.867 178.336C194.903 178.336 194.933 181.181 194.933 184.691C194.933 188.202 194.908 191.044 194.867 191.044Z" fill="#263238"/>
<path d="M195.754 193.712C195.534 193.519 195.373 193.268 195.291 192.987C195.167 192.721 195.123 192.425 195.165 192.135C195.203 192.135 195.25 192.51 195.417 192.941C195.583 193.372 195.787 193.69 195.754 193.712Z" fill="#263238"/>
<path d="M218.218 176.57C218.253 176.57 218.283 179.791 218.283 183.762C218.283 187.734 218.253 190.954 218.218 190.954C218.183 190.954 218.152 187.736 218.152 183.762C218.152 179.788 218.18 176.57 218.218 176.57Z" fill="#263238"/>
<path d="M218.119 172.432C218.183 172.806 218.205 173.186 218.185 173.566C218.205 173.945 218.183 174.325 218.119 174.7C218.053 174.325 218.031 173.945 218.053 173.566C218.031 173.186 218.053 172.806 218.119 172.432Z" fill="#263238"/>
<g opacity="0.1">
<path d="M199.03 168.064L218.989 190.702V187.912L201.492 168.064H199.03Z" fill="white"/>
</g>
<path d="M215.164 181.067C215.164 181.103 211.293 181.133 206.52 181.133C201.747 181.133 197.879 181.103 197.879 181.067C197.879 181.032 201.747 181.002 206.52 181.002C211.293 181.002 215.164 181.032 215.164 181.067Z" fill="white"/>
<path d="M201.235 182.74H201.502V183.889H201.235V182.74Z" fill="white"/>
<path d="M202.659 183.387V183.891H202.407V183.425C202.407 183.284 202.342 183.216 202.228 183.216C202.115 183.216 202.017 183.291 202.017 183.455V183.891H201.765V183.009H202.017V183.112C202.054 183.074 202.1 183.043 202.15 183.023C202.201 183.003 202.255 182.994 202.309 182.996C202.359 182.995 202.408 183.005 202.454 183.025C202.5 183.045 202.541 183.074 202.574 183.111C202.607 183.148 202.632 183.192 202.647 183.24C202.661 183.287 202.666 183.338 202.659 183.387Z" fill="white"/>
<path d="M202.833 183.45C202.833 183.386 202.846 183.323 202.873 183.265C202.899 183.206 202.937 183.154 202.984 183.111C203.032 183.068 203.088 183.036 203.148 183.016C203.209 182.997 203.273 182.99 203.337 182.997C203.418 182.992 203.499 183.013 203.569 183.055C203.639 183.097 203.694 183.159 203.728 183.234L203.529 183.339C203.51 183.303 203.481 183.272 203.446 183.251C203.411 183.229 203.371 183.218 203.329 183.218C203.275 183.232 203.227 183.264 203.192 183.308C203.158 183.352 203.139 183.407 203.139 183.463C203.139 183.519 203.158 183.574 203.192 183.618C203.227 183.662 203.275 183.694 203.329 183.707C203.371 183.708 203.411 183.697 203.447 183.676C203.482 183.654 203.51 183.623 203.529 183.586L203.728 183.695C203.691 183.766 203.634 183.826 203.563 183.865C203.493 183.905 203.412 183.922 203.332 183.916C203.268 183.923 203.203 183.915 203.142 183.894C203.081 183.873 203.025 183.84 202.978 183.796C202.93 183.752 202.893 183.698 202.868 183.638C202.843 183.579 202.831 183.515 202.833 183.45Z" fill="white"/>
<path d="M203.793 183.449C203.787 183.351 203.809 183.254 203.859 183.17C203.908 183.086 203.982 183.018 204.07 182.977C204.158 182.935 204.257 182.92 204.354 182.936C204.45 182.951 204.54 182.994 204.611 183.061C204.682 183.128 204.732 183.215 204.753 183.31C204.774 183.405 204.766 183.505 204.73 183.596C204.694 183.686 204.632 183.764 204.551 183.819C204.47 183.874 204.375 183.903 204.277 183.902C204.215 183.907 204.152 183.899 204.094 183.878C204.035 183.857 203.981 183.824 203.936 183.782C203.89 183.739 203.854 183.687 203.83 183.63C203.805 183.573 203.793 183.511 203.793 183.449ZM204.504 183.449C204.499 183.405 204.482 183.364 204.454 183.33C204.426 183.297 204.389 183.271 204.348 183.258C204.306 183.245 204.261 183.244 204.219 183.255C204.177 183.266 204.139 183.29 204.11 183.322C204.081 183.355 204.061 183.395 204.054 183.438C204.047 183.481 204.053 183.526 204.071 183.566C204.089 183.606 204.117 183.64 204.154 183.664C204.191 183.688 204.233 183.701 204.277 183.701C204.309 183.701 204.341 183.695 204.37 183.682C204.4 183.669 204.426 183.651 204.448 183.627C204.469 183.603 204.486 183.574 204.495 183.544C204.505 183.513 204.508 183.481 204.504 183.449Z" fill="white"/>
<path d="M206.425 183.387V183.891H206.173V183.425C206.173 183.284 206.107 183.216 206.004 183.216C205.9 183.216 205.81 183.292 205.81 183.448V183.891H205.558V183.425C205.558 183.284 205.497 183.216 205.391 183.216C205.286 183.216 205.197 183.292 205.197 183.448V183.891H204.945V183.009H205.197V183.11C205.232 183.072 205.276 183.042 205.323 183.023C205.371 183.003 205.423 182.994 205.475 182.997C205.531 182.993 205.588 183.005 205.64 183.03C205.691 183.055 205.735 183.093 205.767 183.14C205.805 183.094 205.854 183.056 205.909 183.031C205.964 183.006 206.024 182.995 206.084 182.997C206.133 182.997 206.182 183.007 206.227 183.027C206.272 183.048 206.311 183.077 206.344 183.114C206.376 183.151 206.4 183.195 206.414 183.242C206.428 183.289 206.431 183.339 206.425 183.387Z" fill="white"/>
<path d="M206.623 182.742C206.623 182.722 206.628 182.702 206.636 182.684C206.644 182.666 206.656 182.649 206.671 182.636C206.686 182.622 206.704 182.612 206.723 182.606C206.742 182.599 206.762 182.597 206.782 182.598C206.802 182.596 206.822 182.598 206.84 182.604C206.859 182.61 206.877 182.62 206.892 182.633C206.906 182.646 206.919 182.662 206.927 182.68C206.935 182.698 206.94 182.717 206.941 182.737C206.941 182.779 206.924 182.82 206.894 182.849C206.864 182.879 206.824 182.896 206.782 182.896C206.74 182.896 206.699 182.879 206.67 182.849C206.64 182.82 206.623 182.779 206.623 182.737V182.742ZM206.653 183.009H206.905V183.891H206.653V183.009Z" fill="white"/>
<path d="M208.052 183.387V183.891H207.8V183.425C207.8 183.284 207.734 183.216 207.621 183.216C207.508 183.216 207.409 183.291 207.409 183.455V183.891H207.157V183.009H207.409V183.112C207.447 183.074 207.493 183.044 207.543 183.024C207.594 183.004 207.648 182.994 207.702 182.996C207.751 182.996 207.801 183.006 207.846 183.025C207.892 183.045 207.933 183.075 207.966 183.112C207.999 183.149 208.024 183.193 208.039 183.24C208.054 183.288 208.058 183.338 208.052 183.387Z" fill="white"/>
<path d="M209.204 183.008V183.736C209.212 183.803 209.205 183.871 209.182 183.935C209.159 183.998 209.121 184.056 209.073 184.102C209.024 184.149 208.964 184.183 208.9 184.203C208.835 184.222 208.767 184.227 208.7 184.215C208.547 184.222 208.395 184.18 208.267 184.094L208.368 183.91C208.459 183.975 208.568 184.01 208.68 184.008C208.862 184.008 208.932 183.928 208.932 183.756V183.736C208.896 183.773 208.852 183.802 208.804 183.821C208.756 183.839 208.704 183.847 208.652 183.845C208.539 183.845 208.431 183.8 208.351 183.72C208.271 183.64 208.227 183.532 208.227 183.419C208.227 183.306 208.271 183.198 208.351 183.118C208.431 183.038 208.539 182.993 208.652 182.993C208.708 182.989 208.763 182.999 208.814 183.021C208.865 183.043 208.909 183.076 208.945 183.119V183.006L209.204 183.008ZM208.952 183.421C208.952 183.36 208.928 183.301 208.884 183.257C208.841 183.214 208.782 183.189 208.72 183.189C208.659 183.189 208.6 183.214 208.557 183.257C208.513 183.301 208.489 183.36 208.489 183.421C208.489 183.483 208.513 183.542 208.557 183.585C208.6 183.629 208.659 183.653 208.72 183.653C208.782 183.653 208.841 183.629 208.884 183.585C208.928 183.542 208.952 183.483 208.952 183.421Z" fill="white"/>
<path d="M209.838 183.45C209.838 183.386 209.851 183.323 209.877 183.265C209.903 183.206 209.941 183.154 209.989 183.111C210.036 183.068 210.092 183.036 210.153 183.016C210.214 182.997 210.278 182.99 210.342 182.997C210.423 182.99 210.504 183.008 210.574 183.048C210.645 183.088 210.702 183.148 210.738 183.221L210.538 183.327C210.52 183.29 210.491 183.259 210.456 183.238C210.421 183.217 210.381 183.206 210.339 183.206C210.285 183.219 210.237 183.251 210.202 183.295C210.167 183.34 210.149 183.394 210.149 183.45C210.149 183.506 210.167 183.561 210.202 183.605C210.237 183.65 210.285 183.681 210.339 183.695C210.381 183.696 210.421 183.685 210.457 183.663C210.492 183.642 210.52 183.611 210.538 183.574L210.738 183.682C210.701 183.754 210.643 183.813 210.573 183.853C210.503 183.892 210.422 183.91 210.342 183.904C210.278 183.911 210.214 183.904 210.153 183.884C210.092 183.864 210.036 183.832 209.989 183.789C209.941 183.747 209.903 183.694 209.877 183.636C209.851 183.577 209.838 183.514 209.838 183.45Z" fill="white"/>
<path d="M211.656 183.387V183.891H211.404V183.782C211.374 183.825 211.333 183.859 211.286 183.88C211.238 183.901 211.186 183.909 211.134 183.903C210.927 183.903 210.804 183.79 210.804 183.636C210.804 183.482 210.915 183.384 211.184 183.384H211.386C211.386 183.276 211.32 183.21 211.184 183.21C211.094 183.211 211.005 183.24 210.932 183.293L210.839 183.115C210.952 183.042 211.085 183.005 211.22 183.009C211.499 182.996 211.656 183.12 211.656 183.387ZM211.404 183.613V183.523H211.23C211.109 183.523 211.071 183.566 211.071 183.626C211.071 183.687 211.126 183.732 211.215 183.732C211.254 183.734 211.292 183.723 211.325 183.702C211.358 183.681 211.384 183.65 211.399 183.613H211.404Z" fill="white"/>
<path d="M211.887 182.674H212.139V183.891H211.887V182.674Z" fill="white"/>
<path d="M212.381 182.674H212.633V183.891H212.381V182.674Z" fill="white"/>
<path d="M201.338 192.561C203.142 192.561 204.604 191.099 204.604 189.295C204.604 187.491 203.142 186.029 201.338 186.029C199.534 186.029 198.072 187.491 198.072 189.295C198.072 191.099 199.534 192.561 201.338 192.561Z" fill="white"/>
<path d="M199.781 190.051L200.623 189.716V189.126H201.767V189.59L202.714 190.051L203.165 189.335C202.909 189.073 202.601 188.866 202.261 188.729C201.921 188.592 201.556 188.526 201.19 188.536C200.488 188.531 199.812 188.797 199.302 189.28C199.297 189.286 199.294 189.294 199.294 189.302C199.294 189.311 199.297 189.319 199.302 189.325L199.781 190.051Z" fill="white"/>
<path d="M215.12 190.203C215.408 188.421 214.197 186.743 212.415 186.455C210.633 186.167 208.955 187.378 208.667 189.16C208.379 190.942 209.59 192.62 211.372 192.908C213.154 193.196 214.832 191.985 215.12 190.203Z" fill="#263238"/>
<path d="M213.16 190.609L212.454 190.037L211.95 190.324L211.391 189.316L211.794 189.09L211.736 188.039L211.091 188.006C211.033 188.005 210.976 188.023 210.93 188.059C210.884 188.095 210.852 188.146 210.839 188.202C210.708 188.856 210.823 189.534 211.162 190.108C211.465 190.648 211.938 191.074 212.507 191.32C212.573 191.346 212.647 191.348 212.713 191.323C212.78 191.298 212.835 191.249 212.868 191.186L213.16 190.609Z" fill="white"/>
<path d="M207.802 171.77H205.081C203.746 171.77 202.664 172.852 202.664 174.186V176.908C202.664 178.243 203.746 179.324 205.081 179.324H207.802C209.137 179.324 210.219 178.243 210.219 176.908V174.186C210.219 172.852 209.137 171.77 207.802 171.77Z" fill="#263238"/>
<path d="M206.855 175.606C207.024 175.532 207.168 175.409 207.268 175.254C207.368 175.098 207.42 174.917 207.417 174.732C207.434 174.606 207.423 174.479 207.386 174.358C207.35 174.236 207.287 174.125 207.204 174.029C207.12 173.934 207.018 173.858 206.902 173.806C206.787 173.754 206.662 173.727 206.535 173.727C206.409 173.727 206.284 173.754 206.168 173.806C206.053 173.858 205.95 173.934 205.867 174.029C205.783 174.125 205.721 174.236 205.684 174.358C205.647 174.479 205.637 174.606 205.653 174.732C205.65 174.919 205.703 175.102 205.803 175.26C205.904 175.417 206.049 175.541 206.22 175.616C204.854 175.82 204.917 177.305 204.917 177.305L208.143 177.32C208.143 177.32 208.209 175.81 206.855 175.606Z" fill="white"/>
<path d="M227.048 197.955H211.656C209.677 197.955 208.072 199.559 208.072 201.539V219.599C208.072 221.578 209.677 223.183 211.656 223.183H227.048C229.027 223.183 230.631 221.578 230.631 219.599V201.539C230.631 199.559 229.027 197.955 227.048 197.955Z" fill="#455A64"/>
<path d="M227.045 223.182L227.275 223.164C227.369 223.162 227.464 223.151 227.557 223.132C227.687 223.116 227.815 223.089 227.94 223.051C228.297 222.961 228.638 222.814 228.948 222.615C229.368 222.346 229.729 221.993 230.009 221.579C230.354 221.057 230.556 220.453 230.593 219.828C230.616 219.145 230.593 218.394 230.593 217.59C230.593 215.985 230.593 214.155 230.593 212.132C230.593 210.108 230.593 207.893 230.593 205.517C230.593 204.327 230.593 203.098 230.593 201.83C230.604 201.514 230.583 201.199 230.53 200.887C230.472 200.574 230.371 200.27 230.228 199.985C230.158 199.84 230.078 199.701 229.989 199.567C229.896 199.435 229.796 199.309 229.689 199.189C229.468 198.944 229.214 198.732 228.933 198.559C228.366 198.203 227.71 198.015 227.04 198.017H211.668C210.914 198.019 210.18 198.262 209.574 198.711C208.968 199.16 208.522 199.791 208.302 200.512C208.08 201.22 208.168 201.976 208.148 202.717V204.917C208.148 207.828 208.148 210.635 208.148 213.311C208.148 214.647 208.148 215.952 208.148 217.22V219.092C208.14 219.395 208.148 219.697 208.17 219.999C208.187 220.146 208.214 220.292 208.251 220.435L208.307 220.649L208.382 220.856C208.584 221.386 208.911 221.86 209.336 222.237C209.76 222.613 210.269 222.882 210.819 223.021C211.346 223.125 211.883 223.163 212.419 223.132H213.972L223.548 223.152L226.153 223.164L223.548 223.177L213.972 223.197H212.419C211.875 223.228 211.329 223.191 210.794 223.086C210.226 222.946 209.7 222.67 209.262 222.283C208.823 221.896 208.484 221.409 208.274 220.864L208.196 220.649L208.138 220.43C208.102 220.281 208.075 220.131 208.057 219.979C208.027 219.672 208.029 219.364 208.029 219.059V217.187C208.029 215.927 208.029 214.614 208.029 213.278C208.029 210.602 208.029 207.795 208.029 204.884V201.603C208.029 201.222 208.081 200.843 208.186 200.477C208.417 199.73 208.88 199.076 209.508 198.611C210.136 198.145 210.897 197.892 211.678 197.889H227.05C227.742 197.887 228.42 198.082 229.006 198.451C229.294 198.629 229.554 198.849 229.777 199.103C229.889 199.228 229.994 199.359 230.089 199.496C230.182 199.635 230.266 199.779 230.341 199.927C230.488 200.222 230.593 200.536 230.654 200.86C230.706 201.179 230.727 201.502 230.717 201.825C230.717 203.093 230.717 204.322 230.717 205.512C230.717 207.888 230.717 210.103 230.717 212.127C230.717 214.15 230.717 215.98 230.717 217.585C230.717 218.391 230.717 219.135 230.699 219.828C230.656 220.459 230.447 221.067 230.094 221.592C229.809 222.01 229.44 222.364 229.011 222.633C228.701 222.83 228.36 222.976 228.003 223.063C227.875 223.097 227.746 223.122 227.615 223.137C227.522 223.153 227.427 223.162 227.333 223.162C227.123 223.184 227.045 223.182 227.045 223.182Z" fill="#263238"/>
<g opacity="0.1">
<path d="M227.333 223.181H211.812C211.321 223.181 210.834 223.085 210.38 222.897C209.926 222.709 209.514 222.434 209.167 222.086C208.819 221.739 208.544 221.327 208.356 220.873C208.168 220.419 208.072 219.933 208.072 219.441V201.252" fill="white"/>
</g>
<path d="M208.808 218.764C208.772 218.764 208.742 216.188 208.742 213.016C208.742 209.843 208.772 207.268 208.808 207.268C208.843 207.268 208.873 209.84 208.873 213.016C208.873 216.191 208.846 218.764 208.808 218.764Z" fill="#263238"/>
<path d="M209.612 221.159C209.407 220.988 209.259 220.76 209.186 220.504C209.071 220.264 209.033 219.994 209.077 219.732C209.115 219.732 209.16 220.068 209.309 220.458C209.458 220.849 209.642 221.136 209.612 221.159Z" fill="#263238"/>
<path d="M229.936 205.66C229.974 205.66 230.001 208.573 230.001 212.167C230.001 215.76 229.974 218.671 229.936 218.671C229.898 218.671 229.87 215.76 229.87 212.167C229.87 208.573 229.895 205.66 229.936 205.66Z" fill="#263238"/>
<path d="M229.843 201.908C229.907 202.245 229.929 202.589 229.908 202.931C229.929 203.275 229.907 203.619 229.843 203.957C229.778 203.619 229.756 203.275 229.777 202.931C229.756 202.589 229.778 202.245 229.843 201.908Z" fill="#263238"/>
<g opacity="0.1">
<path d="M212.575 197.955L230.628 218.435V215.91L214.8 197.955H212.575Z" fill="white"/>
</g>
<path d="M227.164 209.718C227.164 209.756 223.664 209.783 219.352 209.783C215.04 209.783 211.54 209.756 211.54 209.718C211.54 209.68 215.04 209.652 219.352 209.652C223.664 209.652 227.164 209.693 227.164 209.718Z" fill="white"/>
<path d="M220.279 201.307H218.278C216.943 201.307 215.861 202.389 215.861 203.723V205.724C215.861 207.059 216.943 208.141 218.278 208.141H220.279C221.614 208.141 222.696 207.059 222.696 205.724V203.723C222.696 202.389 221.614 201.307 220.279 201.307Z" fill="#263238"/>
<path d="M218.782 205.511C218.752 205.605 218.692 205.686 218.612 205.743C218.532 205.8 218.435 205.829 218.337 205.827C218.239 205.825 218.144 205.792 218.066 205.732C217.988 205.672 217.931 205.588 217.905 205.493C217.878 205.399 217.883 205.298 217.917 205.206C217.952 205.114 218.016 205.036 218.099 204.983C218.181 204.93 218.279 204.905 218.377 204.911C218.475 204.918 218.569 204.956 218.644 205.02C218.713 205.079 218.762 205.157 218.787 205.244C218.812 205.332 218.81 205.425 218.782 205.511Z" fill="white"/>
<path d="M218.762 205.428C218.716 205.428 218.631 204.954 218.646 204.362C218.632 204.006 218.663 203.649 218.736 203.301C218.782 203.301 218.822 203.78 218.807 204.364C218.822 204.719 218.806 205.075 218.762 205.428Z" fill="white"/>
<path d="M220.186 203.62C219.951 203.768 219.667 203.818 219.395 203.758C219.198 203.737 219.01 203.662 218.853 203.542C218.735 203.443 218.704 203.345 218.719 203.335C218.735 203.325 218.798 203.388 218.919 203.448C219.076 203.529 219.247 203.581 219.423 203.6C219.828 203.645 220.173 203.572 220.186 203.62Z" fill="white"/>
<path d="M220.231 205.829C220.201 205.923 220.142 206.005 220.062 206.062C219.981 206.119 219.885 206.149 219.787 206.148C219.688 206.146 219.593 206.113 219.515 206.053C219.437 205.993 219.38 205.909 219.353 205.814C219.326 205.719 219.331 205.619 219.366 205.527C219.401 205.434 219.464 205.356 219.547 205.303C219.63 205.25 219.728 205.225 219.826 205.232C219.924 205.238 220.018 205.277 220.093 205.341C220.162 205.399 220.212 205.477 220.236 205.564C220.261 205.651 220.259 205.743 220.231 205.829Z" fill="white"/>
<path d="M220.211 205.746C220.168 205.746 220.08 205.275 220.098 204.683C220.084 204.326 220.114 203.969 220.186 203.619C220.234 203.619 220.274 204.098 220.256 204.685C220.271 205.039 220.256 205.394 220.211 205.746Z" fill="white"/>
<path d="M220.193 203.932C220.214 203.969 219.893 204.146 219.46 204.105C219.027 204.065 218.742 203.838 218.77 203.806C218.797 203.773 219.085 203.916 219.473 203.947C219.861 203.977 220.176 203.896 220.193 203.932Z" fill="white"/>
<path d="M218.926 216.375H218.165V218.535H218.926V216.375Z" fill="white"/>
<path d="M220.256 216.375H219.495V218.535H220.256V216.375Z" fill="white"/>
<path d="M219.282 220.904C218.599 220.904 217.932 220.702 217.364 220.323C216.796 219.944 216.354 219.406 216.092 218.775C215.831 218.145 215.762 217.451 215.895 216.781C216.028 216.112 216.357 215.497 216.84 215.014C217.322 214.532 217.937 214.203 218.607 214.07C219.276 213.937 219.97 214.006 220.6 214.267C221.231 214.528 221.77 214.971 222.149 215.539C222.527 216.106 222.729 216.774 222.729 217.456C222.728 218.37 222.364 219.246 221.718 219.892C221.071 220.539 220.195 220.902 219.282 220.904ZM219.282 214.258C218.649 214.258 218.03 214.445 217.504 214.796C216.978 215.147 216.568 215.646 216.325 216.231C216.083 216.815 216.019 217.458 216.142 218.079C216.265 218.699 216.57 219.269 217.017 219.717C217.464 220.164 218.034 220.469 218.654 220.593C219.275 220.716 219.918 220.653 220.502 220.411C221.087 220.169 221.586 219.759 221.938 219.233C222.289 218.707 222.477 218.089 222.477 217.456C222.476 216.609 222.139 215.796 221.54 215.197C220.941 214.597 220.129 214.26 219.282 214.258Z" fill="white"/>
<path d="M224.626 216.529V218.326L225.939 217.429L224.626 216.529Z" fill="white"/>
<path d="M226.151 216.529H225.881V218.381H226.151V216.529Z" fill="white"/>
<path d="M213.999 216.529V218.326L212.686 217.429L213.999 216.529Z" fill="white"/>
<path d="M212.475 218.381H212.744V216.529H212.475V218.381Z" fill="white"/>
<defs>
<linearGradient id="paint0_linear_1187_21997" x1="273.379" y1="176.956" x2="141.595" y2="412.806" gradientUnits="userSpaceOnUse">
<stop stop-color="white"/>
<stop offset="1" stop-color="#BBC9D8"/>
</linearGradient>
<linearGradient id="paint1_linear_1187_21997" x1="138.857" y1="75.5984" x2="335.911" y2="416.925" gradientUnits="userSpaceOnUse">
<stop stop-color="#2560F1"/>
<stop offset="0.4875" stop-color="#7944FF"/>
<stop offset="1" stop-color="#C623FF"/>
</linearGradient>
<linearGradient id="paint2_linear_1187_21997" x1="286.532" y1="198.481" x2="183.303" y2="390.076" gradientUnits="userSpaceOnUse">
<stop stop-color="white"/>
<stop offset="1" stop-color="#BBC9D8"/>
</linearGradient>
</defs>
</svg>
