<svg width="69" height="70" viewBox="0 0 69 70" fill="none" xmlns="http://www.w3.org/2000/svg">
<path d="M43.8244 14.3243C43.6706 14.2294 43.5449 14.0953 43.4602 13.9357C43.3754 13.7761 43.3347 13.5968 43.3422 13.4163C43.3497 13.2357 43.4051 13.0605 43.5028 12.9084C43.6005 12.7564 43.7369 12.6332 43.898 12.5514L45.1241 12.3223C45.0913 13.8515 45.0691 15.3812 45.0573 16.9114C44.7411 16.8706 44.4423 16.7431 44.194 16.5432C43.9608 16.329 43.8353 15.9704 43.9717 15.684C43.8498 15.6234 43.7452 15.533 43.6678 15.421C43.5904 15.3091 43.5426 15.1793 43.529 15.0439C43.5153 14.9084 43.5363 14.7717 43.5899 14.6466C43.6435 14.5215 43.7279 14.412 43.8353 14.3284L43.8244 14.3243Z" fill="url(#paint0_linear_856_11147)"/>
<path d="M49.6665 14.2075L49.6938 13.662L46.4535 12.9406C45.4525 12.8042 44.3342 13.7766 44.2387 14.783C44.1337 15.9013 44.0491 17.2719 44.1555 18.112C44.371 19.8004 45.6557 20.0554 45.6557 20.0554L45.552 21.7151C45.5111 22.6848 46.3212 22.9234 47.2908 22.9657C47.7469 22.9858 48.1929 22.8277 48.5345 22.5248C48.8761 22.2219 49.0864 21.798 49.121 21.3428L49.6665 14.2075Z" fill="#D6D6D6"/>
<path d="M44.6877 16.1667C44.6851 16.2229 44.7047 16.2778 44.7422 16.3196C44.7797 16.3615 44.8321 16.3869 44.8882 16.3904C44.9156 16.3936 44.9433 16.3913 44.9698 16.3836C44.9963 16.3758 45.0209 16.3629 45.0423 16.3455C45.0637 16.328 45.0813 16.3065 45.0942 16.2821C45.1071 16.2578 45.115 16.231 45.1173 16.2036C45.1192 16.1474 45.0992 16.0927 45.0616 16.051C45.0239 16.0092 44.9716 15.9838 44.9155 15.9799C44.8882 15.9767 44.8605 15.979 44.8341 15.9868C44.8077 15.9945 44.7832 16.0075 44.7619 16.0249C44.7406 16.0424 44.7231 16.0639 44.7104 16.0883C44.6976 16.1126 44.6899 16.1393 44.6877 16.1667Z" fill="url(#paint1_linear_856_11147)"/>
<path d="M44.5783 15.5132C44.6042 15.5418 44.7706 15.4259 45.0024 15.4341C45.2342 15.4423 45.4006 15.5705 45.4279 15.535C45.4552 15.4995 45.4143 15.4723 45.342 15.415C45.2439 15.3424 45.1258 15.3019 45.0038 15.2991C44.8831 15.2956 44.7644 15.3299 44.6642 15.3973C44.5851 15.4505 44.5592 15.4995 44.5783 15.5132Z" fill="url(#paint2_linear_856_11147)"/>
<path d="M46.8708 16.202C46.8682 16.2582 46.8877 16.3133 46.9252 16.3554C46.9627 16.3974 47.0151 16.4231 47.0713 16.427C47.0996 16.4308 47.1284 16.4287 47.1559 16.4209C47.1833 16.413 47.2089 16.3996 47.2309 16.3814C47.2529 16.3632 47.271 16.3407 47.2839 16.3152C47.2968 16.2897 47.3043 16.2618 47.3059 16.2333C47.3078 16.1772 47.2878 16.1224 47.2501 16.0807C47.2125 16.039 47.1601 16.0135 47.104 16.0097C47.0759 16.0059 47.0473 16.0079 47.02 16.0157C46.9927 16.0235 46.9673 16.0368 46.9454 16.0549C46.9235 16.0729 46.9056 16.0953 46.8928 16.1206C46.8799 16.1459 46.8725 16.1736 46.8708 16.202Z" fill="url(#paint3_linear_856_11147)"/>
<path d="M46.852 15.6266C46.878 15.6553 47.0457 15.5394 47.2775 15.5475C47.5094 15.5557 47.6758 15.6757 47.7017 15.6485C47.7276 15.6212 47.6894 15.5844 47.6158 15.5284C47.5177 15.4559 47.3995 15.4154 47.2775 15.4125C47.1567 15.4079 47.0376 15.4423 46.938 15.5107C46.8657 15.5625 46.8398 15.613 46.852 15.6266Z" fill="url(#paint4_linear_856_11147)"/>
<path d="M45.9558 17.3225C45.8351 17.2804 45.7095 17.2538 45.5821 17.2434C45.5221 17.2352 45.4662 17.2216 45.458 17.1807C45.4547 17.1192 45.4704 17.0583 45.503 17.0061C45.563 16.8697 45.6257 16.7156 45.6926 16.5601C45.9558 15.926 46.1481 15.4037 46.1221 15.3928C46.0962 15.3818 45.863 15.8892 45.5998 16.5233L45.4171 16.972C45.3776 17.0424 45.3641 17.1245 45.3789 17.2038C45.387 17.2251 45.3998 17.2442 45.4164 17.2597C45.4329 17.2753 45.4527 17.287 45.4744 17.2939C45.5068 17.3033 45.5402 17.3088 45.5739 17.3102C45.7001 17.3311 45.8285 17.3353 45.9558 17.3225Z" fill="url(#paint5_linear_856_11147)"/>
<path d="M45.6532 20.0645C46.4655 20.1034 47.273 19.919 47.988 19.5312C47.988 19.5312 47.3674 20.7164 45.6313 20.5091L45.6532 20.0645Z" fill="#815144"/>
<path d="M46.0378 17.8825C46.0839 17.829 46.143 17.7883 46.2094 17.7644C46.2759 17.7405 46.3474 17.7342 46.4169 17.7461C46.4681 17.7521 46.5174 17.7685 46.562 17.7943C46.6066 17.8201 46.6454 17.8548 46.6761 17.8961C46.7052 17.9352 46.7217 17.9823 46.7234 18.031C46.7251 18.0797 46.7119 18.1278 46.6856 18.1689C46.647 18.2095 46.5972 18.2375 46.5425 18.2494C46.4877 18.2614 46.4307 18.2566 46.3788 18.2357C46.2706 18.1937 46.1719 18.1306 46.0883 18.0502C46.0624 18.031 46.0407 18.0069 46.0242 17.9793C46.0157 17.9666 46.0112 17.9516 46.0112 17.9363C46.0112 17.9211 46.0157 17.9061 46.0242 17.8934" fill="#815144"/>
<path d="M46.6334 17.502C46.5966 17.502 46.5884 17.7515 46.3675 17.9234C46.1466 18.0952 45.8793 18.0597 45.8752 18.0938C45.8711 18.1279 45.9338 18.1443 46.047 18.1511C46.1943 18.1582 46.3393 18.1128 46.4562 18.0229C46.569 17.9368 46.6439 17.8101 46.6648 17.6697C46.6771 17.5647 46.6512 17.502 46.6334 17.502Z" fill="url(#paint6_linear_856_11147)"/>
<path d="M46.8205 14.9695C46.8409 15.0336 47.0741 15.0104 47.3441 15.0513C47.6142 15.0922 47.8337 15.1741 47.8719 15.1182C47.8883 15.0922 47.8528 15.0309 47.7656 14.9681C47.6503 14.8879 47.5175 14.8364 47.3782 14.8181C47.241 14.7979 47.1008 14.81 46.9691 14.8536C46.8627 14.8918 46.8109 14.9395 46.8205 14.9695Z" fill="url(#paint7_linear_856_11147)"/>
<path d="M44.6042 14.7175C44.6437 14.7706 44.8047 14.7175 44.997 14.7175C45.1892 14.7175 45.3515 14.7638 45.3897 14.7175C45.4075 14.6902 45.3829 14.637 45.3134 14.5811C45.2199 14.518 45.1097 14.4844 44.997 14.4844C44.8842 14.4844 44.774 14.518 44.6806 14.5811C44.611 14.637 44.5865 14.6902 44.6042 14.7175Z" fill="url(#paint8_linear_856_11147)"/>
<path d="M43.6963 13.2637C43.5339 13.1384 43.4119 12.9683 43.3455 12.7743C43.2791 12.5803 43.2711 12.3711 43.3226 12.1726C43.3801 11.976 43.4872 11.7975 43.6336 11.6542C43.78 11.5109 43.9608 11.4076 44.1586 11.3544C44.2389 11.3335 44.3212 11.3207 44.4041 11.3162C44.5652 11.227 44.7463 11.1801 44.9305 11.1798C44.9551 11.0732 45.0103 10.976 45.0892 10.9002C45.1682 10.8244 45.2675 10.7732 45.3751 10.7529C45.5905 10.7148 45.8121 10.7302 46.0201 10.798C46.1325 10.6673 46.2741 10.5649 46.4334 10.4991C46.5927 10.4334 46.7652 10.406 46.937 10.4193C47.1089 10.4326 47.2752 10.4861 47.4225 10.5756C47.5697 10.6651 47.6939 10.788 47.7849 10.9343C47.9071 10.8665 48.0435 10.8281 48.1832 10.8224C48.3229 10.8167 48.462 10.8437 48.5893 10.9014C48.7167 10.959 48.8288 11.0457 48.9167 11.1544C49.0046 11.2632 49.0658 11.391 49.0955 11.5276C49.2637 11.537 49.4256 11.5943 49.5622 11.693C49.6988 11.7916 49.8042 11.9273 49.866 12.084C49.9396 12.1846 49.9903 12.3 50.0146 12.4222C50.2196 12.4506 50.4109 12.5414 50.5626 12.6821C50.7143 12.8229 50.819 13.0069 50.8626 13.2092C50.9062 13.4114 50.8866 13.6222 50.8064 13.813C50.7262 14.0037 50.5893 14.1652 50.4142 14.2756C50.5133 14.3795 50.5868 14.505 50.629 14.6423C50.6711 14.7795 50.6807 14.9247 50.657 15.0662C50.6333 15.2078 50.577 15.342 50.4925 15.458C50.408 15.5741 50.2976 15.6688 50.1701 15.7348C50.2135 15.8886 50.2253 16.0496 50.2046 16.2081C50.184 16.3666 50.1314 16.5192 50.0501 16.6567C49.9865 16.7826 49.878 16.88 49.746 16.9295C49.7397 16.9515 49.7305 16.9726 49.7187 16.9922C49.6137 17.1463 49.3682 17.07 49.225 16.95C48.8786 16.6567 48.7013 16.2067 48.614 15.7607C48.5268 15.3148 48.5172 14.8579 48.434 14.412C48.434 14.4024 48.434 14.3915 48.434 14.3806C48.3983 14.1952 48.3209 14.0203 48.2076 13.8692C48.0776 13.9615 47.9408 14.044 47.7985 14.116C47.5361 14.229 47.2444 14.2553 46.966 14.191C46.6876 14.1268 46.437 13.9753 46.2506 13.7587C45.8907 14.0399 45.4443 14.1874 44.9878 14.176C44.535 14.1624 44.0904 14.0642 43.7522 13.7669C43.6634 13.6908 43.5981 13.591 43.564 13.4791C43.556 13.4333 43.565 13.3861 43.5893 13.3464C43.6137 13.3067 43.6517 13.2773 43.6963 13.2637Z" fill="url(#paint9_linear_856_11147)"/>
<path d="M49.3271 16.4227C49.349 16.4118 50.2395 16.105 50.2545 17.0283C50.2695 17.9515 49.3381 17.7756 49.3367 17.7483C49.3353 17.7211 49.3271 16.4227 49.3271 16.4227Z" fill="#D6D6D6"/>
<path d="M49.6135 17.3953C49.6135 17.3953 49.6299 17.4062 49.6571 17.4185C49.6957 17.4339 49.7386 17.4339 49.7772 17.4185C49.8361 17.3796 49.8837 17.3258 49.915 17.2626C49.9464 17.1994 49.9605 17.1289 49.9558 17.0585C49.9572 16.9794 49.9404 16.901 49.9067 16.8294C49.8976 16.8007 49.8817 16.7747 49.8603 16.7535C49.8389 16.7324 49.8127 16.7168 49.784 16.708C49.7655 16.7034 49.746 16.7053 49.7288 16.7136C49.7117 16.7218 49.6979 16.7357 49.6899 16.753C49.6776 16.7789 49.6899 16.798 49.679 16.7994C49.6681 16.8007 49.6599 16.7844 49.6667 16.7462C49.6707 16.7229 49.6834 16.7019 49.7022 16.6875C49.7143 16.6779 49.7283 16.6707 49.7433 16.6665C49.7583 16.6623 49.774 16.6611 49.7894 16.663C49.8271 16.6694 49.8625 16.6853 49.8923 16.7091C49.9221 16.733 49.9454 16.764 49.9599 16.7994C50.0005 16.8787 50.0211 16.9667 50.0199 17.0558C50.027 17.1389 50.0092 17.2222 49.9686 17.2951C49.928 17.368 49.8666 17.4271 49.7922 17.4649C49.7673 17.4723 49.7411 17.4741 49.7154 17.4704C49.6898 17.4666 49.6652 17.4573 49.6435 17.4431C49.6149 17.4172 49.6094 17.3967 49.6135 17.3953Z" fill="#815144"/>
<path d="M43.3742 12.0234C43.3742 12.0234 43.3742 12.0303 43.366 12.0439C43.3582 12.0656 43.3523 12.088 43.3483 12.1107C43.3281 12.222 43.3348 12.3365 43.3678 12.4446C43.4008 12.5528 43.4591 12.6515 43.5379 12.7326C43.6696 12.8642 43.8468 12.9403 44.0329 12.9454L44.0166 12.9303C44.0595 13.2298 44.1878 13.5106 44.3861 13.7391C44.4951 13.8692 44.6298 13.9755 44.7816 14.0514C44.947 14.1273 45.1299 14.1569 45.3108 14.1373C45.4871 14.1226 45.6603 14.0821 45.8249 14.0173C45.9821 13.9602 46.1276 13.8752 46.2545 13.7663H46.2272C46.4384 13.9798 46.7031 14.1325 46.9937 14.2082C47.2252 14.2548 47.4649 14.2383 47.6878 14.1605C47.8333 14.1109 47.9693 14.0372 48.0902 13.9423C48.1324 13.9082 48.1624 13.8809 48.1829 13.8618C48.1934 13.8523 48.203 13.8418 48.2115 13.8304C48.2115 13.8304 48.1679 13.8686 48.082 13.9314C47.9601 14.0208 47.8247 14.0903 47.681 14.1373C47.461 14.2095 47.2259 14.2227 46.9991 14.1755C46.7161 14.0981 46.4587 13.9471 46.2531 13.7377L46.2409 13.7254L46.2259 13.7377C46.1015 13.8424 45.9592 13.9237 45.8058 13.9777C45.6453 14.0418 45.4762 14.0818 45.304 14.0964C45.13 14.1144 44.9544 14.0857 44.7953 14.0132C44.6464 13.9411 44.514 13.8389 44.4066 13.7132C44.2128 13.4905 44.0857 13.2178 44.0397 12.9263V12.9126H44.0329C43.8569 12.9078 43.6891 12.8372 43.5624 12.7149C43.4664 12.6206 43.4005 12.5001 43.3729 12.3685C43.3553 12.2846 43.3521 12.1984 43.3633 12.1134C43.3674 12.0534 43.3769 12.0234 43.3742 12.0234Z" fill="#455A64"/>
<path d="M49.8851 12.3672C49.9198 12.4709 49.9462 12.5771 49.9642 12.6849C50.0025 12.9672 49.9485 13.2543 49.8101 13.5032L49.8019 13.5169L49.8142 13.5264C49.9273 13.6279 50.0111 13.7579 50.0569 13.9028C50.1068 14.0627 50.1068 14.2339 50.0569 14.3938C49.9916 14.6011 49.8497 14.7757 49.6601 14.882L49.6437 14.8902L49.6519 14.9079C49.7401 15.0866 49.776 15.2866 49.7555 15.4848C49.7409 15.6412 49.6945 15.7929 49.6192 15.9307C49.5495 16.0528 49.4606 16.1629 49.356 16.2567C49.356 16.2567 49.3641 16.2567 49.3791 16.2403C49.4022 16.2246 49.4241 16.2073 49.4446 16.1885C49.5224 16.1174 49.5887 16.0345 49.641 15.943C49.7224 15.804 49.7731 15.6491 49.7896 15.4889C49.8129 15.2836 49.7774 15.076 49.6874 14.8902L49.6792 14.9175C49.8789 14.8071 50.0284 14.6239 50.0965 14.406C50.1504 14.2384 50.1504 14.0581 50.0965 13.8905C50.0465 13.7412 49.9576 13.6079 49.8387 13.5046V13.5291C49.977 13.2713 50.025 12.9746 49.9751 12.6863C49.9617 12.6057 49.9402 12.5267 49.911 12.4504C49.9015 12.4245 49.8906 12.4054 49.8851 12.3917C49.8796 12.3781 49.8865 12.3672 49.8851 12.3672Z" fill="#455A64"/>
<path d="M49.8275 17.7187C49.8393 17.7729 49.8453 17.8282 49.8452 17.8837C49.8418 17.9417 49.8181 17.9967 49.7784 18.0392C49.754 18.0635 49.7238 18.0811 49.6906 18.0905C49.6574 18.0998 49.6224 18.1004 49.5889 18.0924C49.5566 18.0817 49.5282 18.0616 49.5075 18.0346C49.4868 18.0076 49.4748 17.975 49.4729 17.941C49.4688 17.8818 49.4801 17.8227 49.5057 17.7692C49.5345 17.7205 49.5609 17.6704 49.5848 17.6191C49.5413 17.6574 49.5057 17.7037 49.4798 17.7555C49.4462 17.8118 49.4305 17.877 49.4348 17.9424C49.4377 17.9827 49.4508 18.0217 49.4729 18.0555C49.4973 18.0926 49.534 18.1197 49.5766 18.1319C49.6173 18.1419 49.6599 18.1409 49.7001 18.1292C49.7403 18.1175 49.7767 18.0954 49.8057 18.0651C49.8504 18.0152 49.8751 17.9507 49.8753 17.8837C49.879 17.8248 49.8621 17.7665 49.8275 17.7187Z" fill="url(#paint10_linear_856_11147)"/>
<path d="M34.0513 23.6857C34.0513 23.6857 36.9479 23.5398 37.2766 23.4975C37.8712 23.4225 38.7836 23.5603 40.0205 23.2166C41.6325 22.7665 43.014 22.427 43.0631 22.4133C43.1518 22.3874 44.1173 21.5651 45.3215 21.6646L45.9898 24.3853L44.4501 25.5759C44.4501 25.5759 40.1364 25.996 39.9196 25.9687C39.7028 25.9414 34.8177 25.6809 34.8177 25.6809L34.3499 24.1985L34.0513 23.6857Z" fill="#D6D6D6"/>
<path d="M39.7017 25.6305C39.6813 25.6305 39.714 25.2214 39.7399 24.7059C39.7658 24.1904 39.7754 23.7812 39.7958 23.7812C39.8338 24.089 39.8388 24.3998 39.8108 24.7086C39.8068 25.0189 39.7702 25.3279 39.7017 25.6305Z" fill="#815144"/>
<path d="M42.6284 25.4656C42.6011 25.4656 42.7034 24.901 42.8834 24.2272C42.9721 23.8904 43.0593 23.5863 43.1262 23.3681C43.1553 23.2475 43.1965 23.13 43.2489 23.0176C43.2354 23.1406 43.2102 23.262 43.1739 23.3803L42.953 24.245C42.867 24.5709 42.7907 24.8641 42.7266 25.1082C42.701 25.2292 42.6682 25.3485 42.6284 25.4656Z" fill="#815144"/>
<path d="M34.6571 23.627C34.6571 23.627 34.4048 23.7715 34.4212 23.8779C34.4375 23.9843 35.1699 24.9689 35.2926 25.0016C35.5225 25.0123 35.7527 24.9865 35.9745 24.9253L36.1382 24.7493L35.2231 23.627H34.6571Z" fill="url(#paint11_linear_856_11147)"/>
<path d="M34.71 23.7064C34.71 23.7064 35.4709 24.807 35.501 24.7975L36.0465 24.7388L35.2132 23.7051L34.71 23.7064Z" fill="#E0E0E0"/>
<path d="M35.4792 24.9501C35.4707 25.0961 35.4236 25.2372 35.3429 25.3592C35.2052 25.5141 35.0458 25.6482 34.8696 25.7574H35.5256C35.6262 25.6548 35.7175 25.5435 35.7984 25.4247C35.8903 25.265 35.9439 25.0862 35.9552 24.9023L35.4792 24.9501Z" fill="url(#paint12_linear_856_11147)"/>
<path d="M34.7854 23.6792C34.7854 23.6792 34.7854 23.6629 34.6136 23.626C34.4417 23.5892 34.1131 23.5088 33.9058 23.8702L34.0899 23.952H34.4104L34.5958 23.7215L34.7854 23.6792Z" fill="url(#paint13_linear_856_11147)"/>
<path d="M33.7567 23.645C33.71 23.5966 33.6534 23.5586 33.5909 23.5337C33.5283 23.5088 33.4612 23.4975 33.394 23.5005C33.2184 23.5385 33.0609 23.6346 32.9466 23.7732C32.8866 23.8455 32.3316 24.6665 32.3316 24.6665C32.3316 24.6665 32.1379 25.4234 32.2579 25.5761C32.2579 25.5761 32.0411 25.9171 32.1379 26.1735C32.1379 26.1735 31.932 26.5512 31.9934 26.6235C32.0569 26.6681 32.1326 26.692 32.2102 26.692C32.2878 26.692 32.3635 26.6681 32.427 26.6235C32.4928 26.6651 32.5685 26.6882 32.6463 26.6904C32.724 26.6926 32.801 26.6737 32.8689 26.6358C32.9759 26.5684 33.0915 26.5156 33.2126 26.479C33.2126 26.479 33.5385 26.8049 33.7581 26.8049C33.8762 26.8046 33.9923 26.7746 34.0957 26.7176C34.1991 26.6607 34.2866 26.5786 34.35 26.479C34.4457 26.3019 34.5504 26.1298 34.6636 25.9635C34.785 25.8025 35.0987 25.6471 35.171 25.4766C35.2432 25.3061 35.2801 24.8724 34.9541 24.6788C34.9717 24.5217 34.9326 24.3635 34.8438 24.2327C34.7551 24.1019 34.6225 24.0071 34.47 23.9655L34.3336 23.9546C34.3336 23.9546 34.2995 23.645 33.7567 23.645Z" fill="#D6D6D6"/>
<path d="M33.7569 23.6449H33.8046C33.8502 23.6444 33.8958 23.6471 33.941 23.6531C34.0164 23.6637 34.0896 23.6862 34.1578 23.7199C34.2059 23.7433 34.2482 23.7769 34.2819 23.8184C34.3156 23.8598 34.3398 23.9081 34.3529 23.9599L34.3365 23.9449L34.4729 23.9558C34.6167 23.9945 34.7446 24.0775 34.8384 24.1931C34.9434 24.3367 34.992 24.5139 34.9747 24.6909L34.9611 24.6636C35.0726 24.7291 35.1572 24.8321 35.1998 24.9541C35.2449 25.0828 35.2562 25.2208 35.2325 25.3551C35.2238 25.4282 35.1981 25.4982 35.1575 25.5596C35.1127 25.6181 35.0604 25.6703 35.002 25.7151C34.8845 25.7979 34.7762 25.893 34.6788 25.9988C34.5921 26.1245 34.5128 26.2552 34.4415 26.3902C34.4021 26.4618 34.3565 26.5298 34.3051 26.5934C34.2497 26.6578 34.1832 26.7118 34.1087 26.753C34.0335 26.7954 33.9513 26.824 33.866 26.8375C33.8211 26.846 33.7753 26.8492 33.7296 26.8471C33.6827 26.8437 33.6366 26.8327 33.5932 26.8143C33.4355 26.7393 33.2923 26.6368 33.1705 26.5116L33.2032 26.5211H33.1909C33.0615 26.5694 32.9362 26.6278 32.8159 26.6957C32.747 26.7239 32.6724 26.7351 32.5983 26.7282C32.5242 26.7213 32.4529 26.6966 32.3904 26.6561H32.4354C32.4002 26.6855 32.3596 26.7075 32.3158 26.7208C32.272 26.7342 32.2259 26.7386 32.1804 26.7339C32.1374 26.7325 32.0948 26.7256 32.0535 26.7134C32.0126 26.697 31.9663 26.6916 31.9349 26.6261C31.927 26.5803 31.9317 26.5331 31.9485 26.4897C31.9608 26.4502 31.9744 26.4134 31.9894 26.3766C32.0208 26.3029 32.0549 26.2334 32.0904 26.1652V26.1884C32.057 26.079 32.057 25.9622 32.0904 25.8529C32.1188 25.7506 32.1615 25.6528 32.2172 25.5624V25.5992C32.1779 25.5184 32.1628 25.4279 32.1735 25.3387C32.1767 25.2592 32.1849 25.1799 32.1981 25.1014C32.2207 24.9536 32.2508 24.8071 32.2881 24.6623C32.4654 24.4073 32.6277 24.1768 32.7709 23.9722C32.8317 23.8739 32.9031 23.7824 32.9836 23.6995C33.0553 23.6303 33.1384 23.5741 33.2291 23.5331C33.303 23.4997 33.3846 23.4874 33.465 23.4976C33.5229 23.5072 33.5781 23.5286 33.6273 23.5604C33.6581 23.5786 33.6865 23.6006 33.7119 23.6258C33.7211 23.6339 33.7294 23.6431 33.7364 23.6531C33.6988 23.6246 33.6596 23.5982 33.6192 23.574C33.5621 23.5409 33.4977 23.5225 33.4318 23.5204C33.3659 23.5182 33.3005 23.5324 33.2414 23.5617C33.1555 23.6035 33.0771 23.6592 33.0095 23.7267C32.9327 23.8108 32.8642 23.9022 32.805 23.9995L32.3536 24.6882V24.6786C32.3208 24.815 32.2908 24.961 32.269 25.1123C32.2576 25.1892 32.2503 25.2666 32.2472 25.3442C32.2396 25.4185 32.2509 25.4935 32.2799 25.5624L32.2922 25.5815L32.2813 25.5992C32.2297 25.6841 32.1907 25.7759 32.1654 25.872C32.1354 25.9679 32.1354 26.0706 32.1654 26.1665V26.1815L32.1585 26.1952C32.1223 26.2616 32.0895 26.3299 32.0604 26.3997C32.0458 26.4345 32.0331 26.47 32.0222 26.5061C32.0105 26.537 32.0058 26.5701 32.0085 26.6029C32.028 26.6245 32.0538 26.6393 32.0822 26.6452C32.1178 26.6549 32.1544 26.6604 32.1913 26.6616C32.227 26.6658 32.2633 26.663 32.2979 26.6531C32.3326 26.6433 32.3649 26.6267 32.3931 26.6043L32.4136 26.5838L32.4381 26.6002C32.4912 26.6333 32.5514 26.6535 32.6137 26.6589C32.676 26.6644 32.7388 26.655 32.7968 26.6316C32.9192 26.5625 33.0469 26.5032 33.1787 26.4543H33.1964H33.2141L33.2291 26.4679C33.3442 26.5868 33.4795 26.6842 33.6287 26.7557C33.6632 26.7711 33.7001 26.7804 33.7378 26.783C33.7766 26.7843 33.8155 26.7815 33.8537 26.7748C33.9309 26.7628 34.0053 26.7369 34.0733 26.6984C34.1401 26.664 34.2002 26.6178 34.2506 26.562C34.2986 26.5019 34.3411 26.4375 34.3774 26.3697C34.4504 26.2327 34.5314 26.1002 34.6202 25.9729C34.7209 25.8626 34.8339 25.7642 34.957 25.6797C35.0101 25.6397 35.0586 25.594 35.1016 25.5433C35.1371 25.4897 35.1596 25.4285 35.167 25.3646C35.1966 25.2471 35.1897 25.1234 35.1474 25.0099C35.105 24.8964 35.0291 24.7985 34.9297 24.7291L34.9147 24.7209V24.7018C34.9314 24.5384 34.8878 24.3744 34.792 24.2409C34.7058 24.1306 34.5869 24.0504 34.4524 24.0118L34.316 23.9981H34.3024V23.9831C34.2906 23.9364 34.2691 23.8927 34.2393 23.8548C34.2094 23.817 34.1719 23.7859 34.1292 23.7636C34.0648 23.7284 33.9954 23.7035 33.9233 23.6899C33.821 23.649 33.7542 23.6504 33.7569 23.6449Z" fill="#815144"/>
<path d="M34.3967 25.752C34.2165 25.9043 34.0214 26.0382 33.8144 26.1515C33.6192 26.2849 33.4114 26.3986 33.1938 26.4911C33.3739 26.3379 33.5695 26.204 33.7775 26.0915C33.9721 25.9581 34.1795 25.8443 34.3967 25.752Z" fill="#815144"/>
<path d="M34.3503 24.9609C34.2537 25.045 34.1501 25.1207 34.0407 25.1873C33.8457 25.3237 33.5757 25.5078 33.2825 25.7192C32.9893 25.9306 32.7261 26.1283 32.5392 26.2647C32.5018 26.2888 32.4702 26.3208 32.4466 26.3585C32.423 26.3963 32.4081 26.4387 32.4028 26.4829C32.4047 26.516 32.4116 26.5487 32.4233 26.5797C32.4233 26.5797 32.3838 26.5566 32.3756 26.4843C32.3744 26.4343 32.3854 26.3847 32.4074 26.3399C32.4295 26.295 32.4621 26.2561 32.5024 26.2265C32.6851 26.0711 32.9429 25.8692 33.2375 25.6565C33.5321 25.4437 33.8062 25.2651 34.0094 25.141C34.1165 25.0694 34.2308 25.0091 34.3503 24.9609Z" fill="#815144"/>
<path d="M33.9247 24.3848C33.8401 24.4733 33.7489 24.5554 33.652 24.6302C33.4788 24.7775 33.2428 24.9848 32.9973 25.2262C32.7519 25.4676 32.5364 25.6967 32.385 25.8658C32.3079 25.9634 32.223 26.0546 32.1313 26.1386C32.1918 26.0309 32.2641 25.9303 32.3468 25.8386C32.5335 25.6076 32.7339 25.3881 32.9469 25.1812C33.1593 24.9736 33.3839 24.7787 33.6192 24.5975C33.7125 24.515 33.815 24.4436 33.9247 24.3848Z" fill="#815144"/>
<path d="M33.2973 24.1816C33.3137 24.1953 33.0709 24.4967 32.7873 24.8813C32.5036 25.2658 32.2868 25.5863 32.269 25.5754C32.5387 25.0611 32.8855 24.591 33.2973 24.1816Z" fill="#815144"/>
<path d="M34.4387 23.9211C34.4387 23.9211 34.4223 23.9116 34.4141 23.8857C34.4132 23.8789 34.4132 23.872 34.4141 23.8652C34.4127 23.8594 34.4127 23.8533 34.4141 23.8475V23.8311C34.4233 23.8123 34.4338 23.794 34.4455 23.7766C34.4759 23.7331 34.5097 23.6921 34.5464 23.6538L34.5819 23.6211C34.5934 23.6128 34.6072 23.608 34.6214 23.6075H34.646H34.7442C34.9064 23.5911 35.0703 23.6003 35.2297 23.6347C35.0714 23.6708 34.909 23.6855 34.7469 23.6784H34.6501H34.6228L34.5928 23.7043C34.5505 23.7425 34.5137 23.7793 34.485 23.8093L34.4496 23.8516C34.4496 23.8598 34.4496 23.8598 34.4496 23.8652V23.8843C34.4414 23.9048 34.4428 23.9184 34.4387 23.9211Z" fill="#455A64"/>
<path d="M35.501 24.7931C35.516 24.804 35.501 24.8654 35.4491 24.9295C35.3973 24.9936 35.3332 25.0304 35.3223 25.0127C35.3114 24.9949 35.3468 24.9499 35.3919 24.8872C35.4369 24.8245 35.4846 24.7808 35.501 24.7931Z" fill="#455A64"/>
<path d="M36.0887 24.8074C36.0969 24.8142 36.0615 24.8661 35.9987 24.9438H35.9878C35.9087 24.9629 35.8037 24.9834 35.6878 25.0024C35.5775 25.0284 35.4638 25.0367 35.3509 25.027C35.2596 25.012 35.2214 24.9533 35.2323 24.9479C35.2724 24.9641 35.3147 24.9742 35.3577 24.9779C35.4647 24.9716 35.571 24.9565 35.6755 24.9329C35.7914 24.9138 35.8992 24.8988 35.9796 24.892L35.9646 24.9002C36.0328 24.8388 36.0819 24.8006 36.0887 24.8074Z" fill="#455A64"/>
<path d="M51.3726 22.3017L49.8725 21.1752L49.1415 20.6406L45.9052 21.2598C45.9052 21.2598 44.5565 21.8394 44.2414 22.0071C43.9264 22.1749 42.8586 22.3849 42.984 23.956C43.0617 24.8564 43.0585 25.7619 42.9745 26.6617L42.2476 32.6828L42.2926 34.0766C42.2926 34.0766 42.1235 35.274 42.103 36.0077L49.1238 35.3149L48.7746 32.1482L49.196 27.7582L51.3726 22.3017Z" fill="#D6D6D6"/>
<path d="M44.8187 21.6732C44.8187 21.6732 42.5002 25.6772 42.2179 26.1832C41.9356 26.6892 41.4869 27.1678 41.5429 28.293C41.5988 29.4181 42.2466 30.7696 42.2466 30.7696V32.6789L48.775 32.1443L49.1964 27.7543C49.1964 27.7543 46.3324 27.1078 46.777 24.9981C47.2216 22.8883 48.775 21.0022 49.8714 21.1713L49.1405 20.6367C49.1405 20.6367 48.4449 20.9313 47.2025 22.0155C47.2025 22.0155 45.9342 22.9701 45.5374 22.7438C45.0219 22.4519 45.5701 21.38 45.5701 21.38L44.8187 21.6732Z" fill="white"/>
<path d="M45.7335 29.2962C45.6827 29.3145 45.6294 29.3251 45.5753 29.3276C45.428 29.3434 45.2794 29.3434 45.1321 29.3276C44.6397 29.2777 44.1781 29.0648 43.8206 28.7225C43.463 28.3803 43.2301 27.9285 43.1587 27.4387C43.1359 27.2922 43.129 27.1435 43.1383 26.9955C43.1388 26.9415 43.1466 26.8878 43.1615 26.8359C43.1621 27.0346 43.1776 27.2329 43.2078 27.4292C43.2899 27.9033 43.5216 28.3387 43.8692 28.6715C44.2167 29.0043 44.6617 29.217 45.1389 29.2785C45.3364 29.2994 45.5352 29.3053 45.7335 29.2962Z" fill="url(#paint14_linear_856_11147)"/>
<g opacity="0.3">
<path d="M43.8804 28.7025C43.3867 28.3247 43.2162 27.6783 43.163 27.0332C43.0035 27.6892 43.163 28.4952 43.6622 28.9493C43.916 29.1747 44.2248 29.3291 44.5574 29.3971C44.8899 29.4651 45.2345 29.4442 45.5565 29.3366C44.951 29.2794 44.3721 29.0604 43.8804 28.7025Z" fill="url(#paint15_linear_856_11147)"/>
</g>
<path d="M45.0314 61.3398L45.8729 63.5123L44.239 64.4261L43.2803 63.961L42.3584 62.0149L45.0314 61.3398Z" fill="#D6D6D6"/>
<path d="M43.0404 63.828L43.1031 63.9944C43.1031 63.9944 40.7206 66.1942 40.8938 66.7397L46.4675 64.5863L45.6697 62.7656C45.3334 63.121 44.9244 63.3999 44.4707 63.5832C44.017 63.7665 43.5292 63.85 43.0404 63.828Z" fill="#455A64"/>
<g opacity="0.6">
<path d="M45.3395 63.5786C45.3994 63.5736 45.459 63.5911 45.5066 63.6277C45.5543 63.6642 45.5866 63.7173 45.5973 63.7764C45.6042 63.837 45.5871 63.898 45.5497 63.9462C45.5122 63.9944 45.4573 64.026 45.3968 64.0341C45.3332 64.0389 45.2702 64.0199 45.2198 63.9808C45.1694 63.9418 45.1353 63.8855 45.124 63.8228C45.124 63.7027 45.2372 63.5623 45.3572 63.5773" fill="white"/>
</g>
<g opacity="0.6">
<path d="M46.4672 64.5915L46.2776 64.1523L41.0039 66.3767C41.0039 66.3767 40.798 66.5812 40.8934 66.7449L46.4672 64.5915Z" fill="white"/>
</g>
<path d="M43.0894 64.0229C43.1017 64.0501 43.2422 64.0092 43.4099 64.0447C43.5777 64.0802 43.6936 64.1674 43.714 64.147C43.7345 64.1265 43.6336 63.9847 43.4304 63.9451C43.2272 63.9056 43.0785 63.9997 43.0894 64.0229Z" fill="url(#paint16_linear_856_11147)"/>
<path d="M42.5981 64.4907C42.5981 64.5193 42.7344 64.5207 42.8708 64.5998C43.0072 64.6789 43.0822 64.7907 43.1081 64.7784C43.134 64.7661 43.0931 64.6066 42.9199 64.5057C42.7467 64.4047 42.5885 64.4647 42.5981 64.4907Z" fill="url(#paint17_linear_856_11147)"/>
<path d="M42.533 65.3192C42.5603 65.3192 42.5453 65.1651 42.4171 65.0464C42.2889 64.9278 42.1443 64.91 42.1375 64.9414C42.1307 64.9728 42.2439 65.0178 42.3475 65.1201C42.4512 65.2223 42.5084 65.3287 42.533 65.3192Z" fill="url(#paint18_linear_856_11147)"/>
<path d="M49.2276 62.6404L49.1744 64.9697L47.3155 65.1893L46.6077 64.3929L46.5 62.2422L49.2276 62.6404Z" fill="#D6D6D6"/>
<path d="M46.4345 64.1836V64.3609C46.4345 64.3609 43.3905 65.4833 43.3428 66.052L49.3175 66.1883L49.2834 64.1986C48.3792 64.5941 47.4491 64.6186 46.4345 64.1836Z" fill="#455A64"/>
<g opacity="0.6">
<path d="M48.6573 64.8265C48.7145 64.8451 48.7628 64.8843 48.7928 64.9364C48.8228 64.9886 48.8323 65.05 48.8196 65.1088C48.8027 65.1652 48.7654 65.2131 48.7148 65.2431C48.6643 65.2732 48.6044 65.2832 48.5469 65.2711C48.4862 65.2513 48.4351 65.2096 48.4036 65.1541C48.3721 65.0986 48.3624 65.0334 48.3764 64.9711C48.4004 64.9131 48.4458 64.8666 48.5032 64.8412C48.5606 64.8158 48.6255 64.8135 48.6846 64.8347" fill="white"/>
</g>
<g opacity="0.6">
<path d="M49.3122 66.1955L49.304 65.7168L43.5761 65.7563C43.5761 65.7563 43.3034 65.8668 43.3334 66.0536L49.3122 66.1955Z" fill="white"/>
</g>
<path d="M46.4074 64.3744C46.4074 64.403 46.5533 64.4207 46.6951 64.5176C46.8369 64.6144 46.9092 64.7385 46.9365 64.7276C46.9638 64.7167 46.9242 64.5476 46.751 64.433C46.5778 64.3185 46.4019 64.3512 46.4074 64.3744Z" fill="url(#paint19_linear_856_11147)"/>
<path d="M45.7744 64.6221C45.7744 64.6508 45.8931 64.7026 45.9885 64.8294C46.084 64.9563 46.1099 65.0858 46.1399 65.0858C46.1699 65.0858 46.1904 64.9194 46.069 64.7653C45.9476 64.6112 45.7758 64.5949 45.7744 64.6221Z" fill="url(#paint20_linear_856_11147)"/>
<path d="M45.3968 65.3638C45.4241 65.3706 45.4678 65.2274 45.3968 65.0637C45.3259 64.9001 45.1909 64.836 45.1773 64.8605C45.1636 64.8851 45.2468 64.971 45.3027 65.1047C45.3586 65.2383 45.3723 65.3597 45.3968 65.3638Z" fill="url(#paint21_linear_856_11147)"/>
<path d="M48.9876 34.0762C48.9876 34.0762 51.0469 36.8242 51.1369 39.0567C51.1842 40.4224 50.9358 41.7822 50.4086 43.043C50.4086 43.043 49.409 48.4981 49.2631 50.2792C49.1778 51.4833 49.1778 52.6919 49.2631 53.896C49.2631 53.896 49.6817 56.6617 49.7281 57.8427C49.7745 59.0238 49.2153 63.3865 49.2153 63.3865H46.5123C46.5123 63.3865 45.3572 53.7828 45.2181 53.0831C45.079 52.3835 44.7367 50.8493 44.7367 50.8493C44.7367 50.8493 43.6293 43.3935 43.6293 41.0301C43.6293 38.6666 43.3975 35.1099 43.3975 35.1099C45.6341 34.9244 47.6511 34.6435 48.9876 34.0762Z" fill="url(#paint22_linear_856_11147)"/>
<path d="M42.1389 35.002C42.1389 35.002 36.8774 49.7812 36.9675 50.534C37.0575 51.2868 42.8562 63.0371 42.8562 63.0371L45.2797 61.9529L43.3977 53.9066L41.7475 50.3499L44.4178 45.8767L45.622 39.2883L44.0155 35.1342L42.1389 35.002Z" fill="url(#paint23_linear_856_11147)"/>
<path d="M43.3975 38.6738C43.4063 38.7045 43.4117 38.7361 43.4139 38.7679C43.4221 38.8375 43.433 38.9261 43.4466 39.0407C43.4725 39.2834 43.5094 39.6217 43.5544 40.0362C43.6389 40.8832 43.7548 42.041 43.883 43.3202C44.0112 44.5994 44.1121 45.7587 44.1912 46.6069C44.2267 47.0161 44.2567 47.3611 44.2772 47.6038C44.2853 47.717 44.2922 47.807 44.2962 47.8766C44.2996 47.9083 44.2996 47.9403 44.2962 47.9721C44.2874 47.9419 44.2819 47.9107 44.2799 47.8793C44.2717 47.8102 44.2608 47.7193 44.2472 47.6066C44.2199 47.3625 44.1844 47.0256 44.1394 46.611C44.0535 45.7627 43.9376 44.6049 43.8094 43.3257C43.6812 42.0465 43.5816 40.8872 43.5012 40.039C43.4657 39.6298 43.4371 39.2862 43.4166 39.042C43.4084 38.9302 43.4016 38.8402 43.3962 38.7693C43.3936 38.7375 43.3941 38.7055 43.3975 38.6738Z" fill="#455A64"/>
<path d="M49.3299 34.6426C49.3085 34.6562 49.2856 34.6672 49.2617 34.6753L49.0639 34.753C48.8907 34.8212 48.6371 34.9085 48.3207 35.0067C48.0043 35.1049 47.6238 35.2099 47.1969 35.3095C46.7701 35.409 46.2941 35.4936 45.7936 35.5618C45.2931 35.63 44.8103 35.664 44.3712 35.6831C43.932 35.7022 43.5379 35.6981 43.2079 35.6831C42.8778 35.6681 42.6092 35.6518 42.4251 35.6313L42.2123 35.6068C42.1873 35.6052 42.1626 35.6006 42.1387 35.5931C42.1636 35.5904 42.1888 35.5904 42.2137 35.5931L42.4264 35.6027C42.6105 35.615 42.8778 35.6259 43.2092 35.6327C43.5406 35.6395 43.932 35.6327 44.3684 35.6177C44.8049 35.6027 45.2835 35.5549 45.7841 35.4908C46.2846 35.4268 46.7551 35.3367 47.1819 35.2454C47.6088 35.154 47.9893 35.0531 48.307 34.959C48.6248 34.8649 48.8798 34.7871 49.0544 34.7271L49.2576 34.6617C49.2809 34.6526 49.3051 34.6462 49.3299 34.6426Z" fill="#455A64"/>
<path d="M47.64 35.3242C47.6503 35.346 47.6594 35.3683 47.6673 35.391L47.7423 35.5902C47.8078 35.7647 47.8964 36.0252 48.0055 36.3634C48.3073 37.318 48.5429 38.2922 48.7106 39.2792C48.9593 40.7455 49.0594 42.2332 49.0093 43.7196C48.9643 45.3984 48.727 47.23 48.5729 49.1557C48.437 50.9682 48.4334 52.7882 48.5619 54.6012C48.6615 56.2732 48.7679 57.7802 48.7938 59.0485C48.8256 60.0492 48.8001 61.051 48.7174 62.0488C48.6929 62.4034 48.652 62.6761 48.6301 62.8671L48.6015 63.0771C48.5947 63.1248 48.5906 63.148 48.5906 63.148C48.5906 63.148 48.5906 63.1235 48.5906 63.0757C48.5906 63.028 48.6029 62.9557 48.611 62.8643C48.6288 62.6789 48.6656 62.4061 48.686 62.0461C48.7574 61.0476 48.7756 60.0461 48.7406 59.0458C48.7079 57.7788 48.5947 56.2746 48.4924 54.5998C48.358 52.784 48.358 50.9606 48.4924 49.1447C48.6465 47.2164 48.8852 45.3875 48.9343 43.7128C49.0212 41.2265 48.6949 38.7429 47.9687 36.3634C47.8651 36.0238 47.7805 35.762 47.7191 35.5861C47.6891 35.5001 47.6673 35.4333 47.6509 35.3856C47.6346 35.3379 47.64 35.3242 47.64 35.3242Z" fill="white"/>
<path d="M47.1343 35.5879C47.1343 35.5879 47.1438 35.6097 47.1616 35.6547L47.2352 35.8538C47.3007 36.0284 47.3907 36.2889 47.4984 36.6271C47.8016 37.5822 48.0372 38.5574 48.2035 39.5456C48.4534 41.0122 48.554 42.5005 48.5035 43.9874C48.4571 45.6648 48.2212 47.4964 48.0671 49.422C47.9306 51.2345 47.9269 53.0546 48.0562 54.8676C48.1544 56.5396 48.2621 58.0466 48.288 59.3149C48.3199 60.3156 48.2944 61.3174 48.2117 62.3152C48.1871 62.6698 48.1462 62.9425 48.1244 63.1335L48.0957 63.3435C48.0889 63.3912 48.0835 63.4144 48.0835 63.4144C48.0835 63.4144 48.0835 63.3899 48.0835 63.3421C48.0835 63.2944 48.0957 63.2221 48.1039 63.1307C48.1217 62.9453 48.1585 62.6725 48.1789 62.3125C48.2504 61.314 48.2682 60.3125 48.2321 59.3122C48.1994 58.0452 48.0876 56.541 47.9853 54.8662C47.8502 53.0504 47.8502 51.227 47.9853 49.4111C48.1394 47.4828 48.378 45.6539 48.4271 43.9792C48.4834 42.4987 48.392 41.0162 48.1544 39.5538C47.992 38.5669 47.7642 37.5919 47.4725 36.6353C47.3688 36.2957 47.2829 36.0338 47.2216 35.8579C47.1929 35.772 47.1711 35.7052 47.1547 35.6574C47.1384 35.6097 47.1343 35.5879 47.1343 35.5879Z" fill="white"/>
<path d="M49.5986 16.9637C49.5772 17.0148 49.5603 17.0678 49.5482 17.1219C49.5463 17.1462 49.5527 17.1705 49.5663 17.1908C49.5799 17.211 49.5999 17.2262 49.6232 17.2337C49.6532 17.2419 49.6873 17.2337 49.7173 17.2446C49.749 17.2565 49.7765 17.2777 49.7959 17.3054C49.8154 17.3332 49.826 17.3662 49.8264 17.4001C49.8249 17.4671 49.8167 17.5338 49.8018 17.5992C49.7936 17.6333 49.7936 17.6688 49.8018 17.7029C49.8065 17.7199 49.8161 17.7353 49.8294 17.7469C49.8428 17.7586 49.8593 17.766 49.8768 17.7683C49.9205 17.7683 49.9573 17.7342 49.9805 17.696C50.0155 17.6317 50.0399 17.5622 50.0528 17.4901C50.0806 17.3875 50.0875 17.2804 50.0732 17.1751C50.0662 17.1223 50.0475 17.0718 50.0185 17.0272C49.9895 16.9826 49.9508 16.9451 49.9055 16.9173C49.8553 16.8923 49.7987 16.8834 49.7434 16.8917C49.688 16.9 49.6365 16.9251 49.5959 16.9637" fill="#E0E0E0"/>
<path d="M46.6242 27.4905C46.6031 27.459 46.584 27.4262 46.5669 27.3924C46.5135 27.2971 46.4679 27.1977 46.4305 27.095C46.2894 26.7186 46.2299 26.3165 46.256 25.9154C46.2858 25.3134 46.507 24.7368 46.8874 24.2693C47.3033 23.7361 47.9061 23.2969 48.4053 22.716C48.6464 22.431 48.8643 22.1273 49.0572 21.8077C49.2334 21.5079 49.3875 21.1957 49.5181 20.8735C49.7368 20.3256 49.8835 19.7517 49.9545 19.166C50.0029 18.7716 50.0161 18.3736 49.9941 17.9768C49.9941 17.8405 49.9736 17.7273 49.9695 17.6523C49.9656 17.6146 49.9656 17.5767 49.9695 17.5391C49.9778 17.576 49.9842 17.6133 49.9886 17.6509C49.9982 17.7245 50.0173 17.8336 50.0282 17.9741C50.0595 18.3734 50.0536 18.7747 50.0104 19.1729C49.9456 19.7644 49.802 20.3446 49.5836 20.898C49.4536 21.2241 49.2995 21.54 49.1226 21.8431C48.9284 22.1669 48.7081 22.4743 48.4639 22.7623C47.9566 23.3515 47.3552 23.7879 46.9433 24.3102C46.5688 24.7668 46.3478 25.33 46.3119 25.9195C46.2835 26.3159 46.336 26.714 46.466 27.0896C46.5546 27.3514 46.6365 27.4865 46.6242 27.4905Z" fill="#E0E0E0"/>
<path d="M44.5169 19.2012C44.505 19.2806 44.4891 19.3594 44.4692 19.4372C44.4256 19.6505 44.4018 19.8673 44.3982 20.085C44.3992 20.8058 44.5652 21.5168 44.8837 22.1634C45.2088 22.8071 45.601 23.4146 46.0539 23.9758C46.2189 24.1872 46.3566 24.3604 46.463 24.4927C46.5133 24.5537 46.5589 24.6184 46.5994 24.6863C46.5395 24.6325 46.4843 24.5736 46.4344 24.5104C46.3334 24.3931 46.1875 24.2227 46.0116 24.0072C45.5444 23.4509 45.1435 22.8422 44.8169 22.1934C44.4931 21.538 44.3312 20.8145 44.3451 20.0836C44.3534 19.8631 44.3849 19.6442 44.4392 19.4303C44.4531 19.3721 44.4704 19.3148 44.491 19.2585C44.506 19.2203 44.5142 19.1999 44.5169 19.2012Z" fill="#E0E0E0"/>
<path d="M36.2785 26.9872L36.3821 27.1659C36.3915 27.1863 36.4073 27.2031 36.4272 27.2136C36.4413 27.2157 36.4557 27.2141 36.469 27.2091C36.4824 27.2041 36.4942 27.1958 36.5035 27.185C36.5391 27.1493 36.5669 27.1067 36.5852 27.0597C36.6035 27.0128 36.6119 26.9626 36.6099 26.9122C36.6069 26.8117 36.5783 26.7136 36.5267 26.6272C36.5178 26.606 36.5047 26.5868 36.4884 26.5706C36.472 26.5545 36.4526 26.5417 36.4312 26.5331C36.3841 26.5233 36.3351 26.5326 36.2949 26.559C36.2389 26.5876 36.1844 26.6176 36.1326 26.6504C36.1067 26.6667 36.0794 26.6872 36.0767 26.7158C36.0767 26.7392 36.0839 26.762 36.0971 26.7813C36.1435 26.8563 36.2335 26.9109 36.273 26.9859" fill="#815144"/>
<path d="M47.7028 24.4057L45.7144 30.2331L39.5774 26.4923L38.4414 27.7428C38.4414 27.7428 43.2433 32.5161 44.0888 33.2116C44.9344 33.9071 46.2995 33.9808 46.7414 33.8689C47.1832 33.7571 48.1665 32.4547 49.233 30.6204C50.2995 28.7861 51.5159 25.7299 51.6878 24.5611C51.8596 23.3924 51.8664 22.7719 51.3823 22.3027" fill="#D6D6D6"/>
<path d="M51.3727 22.3027C51.3727 22.3027 51.3973 22.3259 51.4436 22.3737C51.511 22.4457 51.5692 22.5259 51.6168 22.6123C51.6926 22.7534 51.7434 22.9066 51.7668 23.0651C51.7964 23.2815 51.8032 23.5005 51.7873 23.7183C51.7723 23.9638 51.7409 24.2352 51.7 24.5366C51.6483 24.8574 51.574 25.1741 51.4777 25.4844C51.2457 26.2394 50.9758 26.9823 50.669 27.7101C50.3047 28.5944 49.895 29.4592 49.4416 30.3013C49.1934 30.7541 48.9165 31.2109 48.6233 31.676C48.3233 32.1557 47.9993 32.62 47.6523 33.067C47.4723 33.3023 47.271 33.5205 47.0509 33.7189C46.9927 33.7698 46.9302 33.8154 46.8641 33.8553C46.8294 33.8748 46.7928 33.8908 46.755 33.903C46.7172 33.9132 46.679 33.9214 46.6404 33.9276C46.489 33.948 46.3361 33.9549 46.1835 33.948C45.874 33.9358 45.5667 33.89 45.2671 33.8117C44.9597 33.7367 44.6642 33.6196 44.3888 33.4639C44.1176 33.2918 43.8661 33.0906 43.6387 32.8638C43.4028 32.647 43.1682 32.4247 42.9323 32.1983C42.4613 31.7437 41.9863 31.2846 41.5071 30.8209C40.4366 29.7749 39.4001 28.7507 38.4114 27.7674L38.3882 27.7442L38.41 27.7197L39.5474 26.4691L39.5665 26.4486L39.5897 26.4623L45.7267 30.2113L45.6885 30.2249C46.3063 28.4275 46.8068 26.9737 47.1545 25.9645C47.3277 25.464 47.4641 25.0739 47.5637 24.8066L47.6701 24.5066C47.6946 24.4398 47.7082 24.4057 47.7082 24.4057C47.7082 24.4057 47.6987 24.4411 47.6769 24.5093L47.5787 24.8121C47.4887 25.0848 47.3577 25.4708 47.19 25.974L45.7458 30.2413L45.7349 30.2713L45.7076 30.2549L39.5624 26.5209L39.606 26.5141L38.47 27.766V27.7183C39.4601 28.7002 40.4966 29.7244 41.5672 30.7704L42.9909 32.1478C43.2269 32.3729 43.4614 32.5952 43.696 32.812C43.9195 33.0357 44.167 33.2342 44.4338 33.4039C44.7032 33.5564 44.9923 33.6711 45.293 33.7448C45.5878 33.8208 45.8901 33.8643 46.1944 33.8744C46.3434 33.8811 46.4926 33.8747 46.6404 33.8553C46.7829 33.8326 46.9148 33.7664 47.0182 33.6657C47.2339 33.4703 47.432 33.2563 47.61 33.0261C47.9687 32.5733 48.2838 32.1028 48.5797 31.6419C48.8756 31.1809 49.1511 30.7213 49.398 30.2781C49.8513 29.436 50.261 28.5712 50.6254 27.6869C50.9636 26.8782 51.2404 26.1336 51.4436 25.4681C51.541 25.1605 51.6166 24.8465 51.67 24.5284C51.7123 24.2325 51.7464 23.9625 51.7627 23.7183C51.7814 23.5025 51.7769 23.2854 51.7491 23.0705C51.7308 22.9136 51.6847 22.7612 51.6127 22.6205C51.5462 22.505 51.4656 22.3983 51.3727 22.3027Z" fill="#815144"/>
<path d="M46.624 27.5819L49.9857 29.1244C49.9857 29.1244 50.819 27.3378 50.9404 26.9819L47.3864 25.3535L46.624 27.5819Z" fill="#455A64"/>
<path d="M46.0649 32.0661C46.0431 32.0661 46.0526 31.6392 45.949 31.1278C45.8453 30.6164 45.6762 30.2263 45.6953 30.2168C45.7509 30.2927 45.7942 30.3769 45.8235 30.4664C45.9094 30.6755 45.9747 30.8924 46.0186 31.1142C46.0631 31.3355 46.0864 31.5607 46.0881 31.7865C46.0955 31.8803 46.0876 31.9747 46.0649 32.0661Z" fill="#815144"/>
<path d="M46.3323 31.034C46.3132 31.0435 46.2123 30.8389 46.0418 30.6248C45.8714 30.4107 45.6995 30.2566 45.7132 30.2402C45.8679 30.3199 46.0001 30.4371 46.0977 30.5812C46.2128 30.71 46.2934 30.8657 46.3323 31.034Z" fill="#815144"/>
<path d="M50.3761 25.4685L49.1375 24.9486C48.8736 24.8378 48.5699 24.962 48.4591 25.2259L47.0714 28.5318C46.9607 28.7958 47.0848 29.0995 47.3487 29.2103L48.5873 29.7302C48.8512 29.8409 49.155 29.7168 49.2658 29.4529L50.6534 26.147C50.7642 25.883 50.6401 25.5793 50.3761 25.4685Z" fill="url(#paint24_linear_856_11147)"/>
<path d="M49.5629 30.0864C49.5629 30.0864 49.6434 30.0537 49.7456 30.141C49.8034 30.1947 49.8413 30.2663 49.8534 30.3442C49.8656 30.4486 49.8405 30.5539 49.7825 30.6415C49.7153 30.7421 49.6355 30.8338 49.5452 30.9143C49.4461 31.0123 49.3404 31.1035 49.2288 31.187C49.1033 31.2789 48.9656 31.3529 48.8196 31.4066C48.6599 31.4617 48.4899 31.4808 48.3219 31.4625C48.1515 31.444 47.9912 31.3724 47.8636 31.2579C47.7486 31.1487 47.6648 31.0108 47.6209 30.8583C47.5482 30.6041 47.5525 30.3341 47.6331 30.0823C47.6826 29.9151 47.747 29.7526 47.8254 29.5968C47.8501 29.5375 47.8807 29.4809 47.9168 29.4277C47.8999 29.4896 47.8776 29.5499 47.85 29.6078C47.7827 29.766 47.7262 29.9287 47.6809 30.0946C47.6098 30.3373 47.6098 30.5952 47.6809 30.8379C47.7224 30.9788 47.801 31.106 47.9086 31.2061C48.0252 31.3107 48.1716 31.3761 48.3273 31.3929C48.636 31.4168 48.9424 31.3243 49.1865 31.1338C49.2966 31.0545 49.4014 30.9679 49.5002 30.8747C49.589 30.7977 49.6682 30.7102 49.7361 30.6142C49.7922 30.5349 49.8184 30.4382 49.8097 30.3415C49.8014 30.271 49.7709 30.2051 49.7225 30.1533C49.6785 30.1134 49.6222 30.0898 49.5629 30.0864Z" fill="#E0E0E0"/>
<path d="M39.7493 26.5961C39.7493 26.5961 38.4592 24.9596 38.2491 24.8819C38.0391 24.8041 37.1295 24.3636 37.1295 24.3636L35.5775 24.1973C35.5775 24.1973 35.4943 24.6323 35.8053 24.695C36.1162 24.7578 36.449 24.8614 36.449 24.8614L36.9413 25.1096C36.9413 25.1096 36.0494 25.3387 36.0085 25.4315C35.983 25.5012 35.9755 25.5763 35.9866 25.6497C35.857 25.7916 35.7833 25.9758 35.7793 26.1679L35.5625 26.8498L36.0766 27.5631C36.1771 27.4729 36.2427 27.3503 36.2621 27.2167C36.2826 27.0094 36.0603 26.8075 36.0603 26.8075L36.3194 26.5811H36.5922C36.5922 26.5811 38.0037 27.5767 38.376 27.6804L38.7851 28.0745" fill="#D6D6D6"/>
<path d="M38.7905 28.0775C38.7802 28.0708 38.7706 28.063 38.7618 28.0543L38.68 27.9821L38.3663 27.6929H38.3732C38.1016 27.5834 37.8421 27.4463 37.5985 27.2838C37.2985 27.097 36.9548 26.8747 36.5771 26.6019H36.5921H36.3193L36.337 26.5951L36.0807 26.8215V26.7778C36.1952 26.8771 36.2707 27.0139 36.2934 27.1638C36.2919 27.2432 36.2736 27.3215 36.2398 27.3934C36.2059 27.4653 36.1573 27.5293 36.097 27.5811L36.0725 27.6043L36.0506 27.5743L35.5392 26.8706L35.5283 26.8569V26.8406C35.5965 26.6237 35.6647 26.3919 35.7452 26.1587V26.1696C35.7475 25.9672 35.8247 25.7728 35.962 25.6241L35.9525 25.6554C35.9387 25.5767 35.9462 25.4957 35.9743 25.4209C35.9821 25.4081 35.9912 25.3962 36.0015 25.3854L36.0288 25.3691C36.0458 25.3582 36.0636 25.3486 36.082 25.3404C36.1175 25.3254 36.1529 25.3104 36.1884 25.2981C36.3316 25.2449 36.4789 25.2013 36.6262 25.1618L36.9316 25.0786V25.1454L36.4339 24.8958C36.2252 24.8331 36.0166 24.7772 35.8106 24.7335C35.7522 24.7247 35.6974 24.6997 35.6524 24.6613C35.6093 24.6218 35.5769 24.5721 35.5583 24.5167C35.5267 24.4114 35.5206 24.3002 35.5406 24.1921V24.1621H35.5733L37.128 24.3326L37.8099 24.6517L38.1277 24.8004C38.1809 24.8229 38.2324 24.8494 38.2818 24.8795C38.3262 24.9132 38.3677 24.9506 38.4059 24.9913C38.7059 25.3022 38.9378 25.5941 39.1341 25.8314C39.3305 26.0687 39.4778 26.2596 39.5787 26.3892L39.6919 26.5392C39.7062 26.5554 39.7186 26.5733 39.7288 26.5924C39.7124 26.5782 39.6977 26.5622 39.6851 26.5446C39.6537 26.5092 39.6142 26.4614 39.5637 26.4014L39.1069 25.8559C38.9078 25.6227 38.6705 25.3336 38.3718 25.0295C38.3352 24.9916 38.2955 24.957 38.2531 24.9258C38.2068 24.8969 38.158 24.8723 38.1072 24.8522L37.7881 24.7063L37.098 24.3899H37.1076L35.5774 24.233L35.6142 24.2058C35.5964 24.3016 35.602 24.4003 35.6306 24.4935C35.6438 24.5386 35.6697 24.5789 35.7053 24.6097C35.7409 24.6404 35.7845 24.6602 35.8311 24.6667C36.0411 24.709 36.2511 24.7649 36.4625 24.829L36.9616 25.0772L37.0448 25.1181L36.9535 25.1427L36.6507 25.2259C36.5034 25.2681 36.3561 25.3118 36.217 25.3622C36.1829 25.3745 36.1488 25.3881 36.1161 25.4031C36.0999 25.4092 36.0843 25.417 36.0697 25.4263L36.0506 25.4386C36.0506 25.4386 36.0506 25.4386 36.0438 25.4454C36.0215 25.5079 36.0155 25.575 36.0261 25.6404V25.6582L36.0152 25.6718C35.8915 25.8069 35.8212 25.9824 35.8174 26.1655V26.1764C35.7411 26.4123 35.6674 26.6442 35.5979 26.8583V26.8283C35.7752 27.0765 35.9484 27.3152 36.1107 27.5429L36.0643 27.5361C36.1173 27.491 36.1604 27.4353 36.1907 27.3726C36.221 27.3099 36.2378 27.2416 36.2402 27.172C36.2185 27.0383 36.151 26.9163 36.0493 26.8269L36.0261 26.8037L36.0493 26.7819L36.3084 26.5569L36.3166 26.5501H36.6057H36.6125C36.9876 26.8147 37.3285 27.0451 37.6258 27.232C37.8642 27.3969 38.1182 27.538 38.3841 27.6534L38.6882 27.9507L38.7659 28.0284C38.7837 28.0666 38.7918 28.0762 38.7905 28.0775Z" fill="#815144"/>
<path d="M36.8051 25.9678C36.8051 25.9882 36.5774 25.9992 36.3046 26.0578C36.0319 26.1164 35.8178 26.1942 35.8096 26.1778C36.1081 25.9971 36.4591 25.9231 36.8051 25.9678Z" fill="#815144"/>
<path d="M37.1115 25.4818C36.9318 25.5251 36.7496 25.5574 36.566 25.5787C36.3864 25.6235 36.2042 25.6577 36.0205 25.6809C36.3603 25.5196 36.7367 25.4509 37.1115 25.4818Z" fill="#815144"/>
<path d="M37.8716 24.8875C37.7186 24.9497 37.5608 24.9994 37.3998 25.0361C37.2433 25.0952 37.0773 25.1248 36.9102 25.1234C37.0616 25.0566 37.2192 25.0046 37.3807 24.968C37.5374 24.909 37.7043 24.8816 37.8716 24.8875Z" fill="#815144"/>
<path d="M39.8627 4.60547H28.1615C27.7712 4.60547 27.3969 4.76051 27.1209 5.03647C26.845 5.31243 26.6899 5.68672 26.6899 6.07699V19.4966C26.6899 19.8908 26.8466 20.2689 27.1253 20.5477C27.4041 20.8265 27.7822 20.9831 28.1765 20.9831H33.5143L35.0322 22.9701L36.5664 20.9831H39.8668C40.06 20.9831 40.2514 20.945 40.4299 20.8711C40.6084 20.7971 40.7706 20.6887 40.9073 20.5521C41.0439 20.4154 41.1523 20.2532 41.2263 20.0747C41.3002 19.8962 41.3383 19.7048 41.3383 19.5116V6.07699C41.3383 5.8834 41.3001 5.69172 41.2259 5.51292C41.1517 5.33412 41.0429 5.17172 40.9058 5.03502C40.7688 4.89833 40.6061 4.79002 40.427 4.71631C40.248 4.6426 40.0563 4.60494 39.8627 4.60547Z" fill="#455A64"/>
<g opacity="0.1">
<path d="M26.6899 7.0951V18.6695C26.6899 18.9739 26.7499 19.2754 26.8664 19.5567C26.9829 19.838 27.1537 20.0936 27.369 20.3089C27.5843 20.5241 27.8399 20.6949 28.1211 20.8114C28.4024 20.9279 28.7039 20.9879 29.0084 20.9879H33.4502C33.4701 20.9882 33.4897 20.9929 33.5076 21.0016C33.5255 21.0104 33.5413 21.0229 33.5538 21.0384L34.9258 22.8413C34.9377 22.8571 34.9532 22.8699 34.9709 22.8788C34.9887 22.8876 35.0082 22.8922 35.0281 22.8922C35.0479 22.8922 35.0675 22.8876 35.0852 22.8788C35.1029 22.8699 35.1184 22.8571 35.1304 22.8413L36.5241 21.037C36.5365 21.0217 36.5521 21.0093 36.5698 21.0006C36.5874 20.9919 36.6067 20.9871 36.6264 20.9865H38.908C38.933 20.9869 38.9575 20.9799 38.9785 20.9665C38.9996 20.9531 39.0162 20.9339 39.0265 20.9112C39.0368 20.8884 39.0402 20.8632 39.0364 20.8386C39.0325 20.8139 39.0216 20.7909 39.0048 20.7724L26.9163 7.00509C26.8974 6.98832 26.8743 6.97713 26.8494 6.97276C26.8245 6.96839 26.7989 6.97102 26.7754 6.98035C26.7519 6.98969 26.7315 7.00536 26.7164 7.02562C26.7013 7.04588 26.6922 7.06993 26.6899 7.0951Z" fill="white"/>
</g>
<path d="M32.1805 9.30356C32.1805 9.84907 31.6964 10.1859 30.9654 10.1859C30.2344 10.1859 29.7584 9.84498 29.7584 9.30356C29.7558 9.1597 29.7957 9.01826 29.873 8.89696C29.9504 8.77566 30.0619 8.6799 30.1935 8.62167C30.09 8.5623 30.0045 8.4761 29.9459 8.37217C29.8873 8.26824 29.8579 8.15042 29.8607 8.03116C29.8607 7.5252 30.3121 7.21289 30.9654 7.21289C31.6186 7.21289 32.0782 7.52792 32.0782 8.03116C32.08 8.15072 32.0497 8.26858 31.9905 8.37245C31.9312 8.47632 31.8452 8.56239 31.7414 8.62167C31.8737 8.67928 31.986 8.77478 32.0642 8.89613C32.1423 9.01748 32.1828 9.15924 32.1805 9.30356ZM31.5068 9.27765C31.5068 9.02262 31.2981 8.86852 30.9613 8.86852C30.6244 8.86852 30.4267 9.02399 30.4267 9.27765C30.4267 9.53131 30.6326 9.68678 30.9613 9.68678C31.2899 9.68678 31.5068 9.53813 31.5068 9.27765ZM30.5221 8.05843C30.5221 8.27527 30.694 8.41165 30.9654 8.41165C31.2368 8.41165 31.4168 8.27527 31.4168 8.05843C31.4168 7.84159 31.2354 7.69703 30.9654 7.69703C30.6953 7.69703 30.5221 7.8375 30.5221 8.06389V8.05843Z" fill="white"/>
<path d="M32.4626 8.29227C32.4685 8.1905 32.5132 8.09486 32.5873 8.02492C32.6615 7.95497 32.7596 7.91602 32.8615 7.91602C32.9634 7.91602 33.0615 7.95497 33.1357 8.02492C33.2098 8.09486 33.2544 8.1905 33.2604 8.29227C33.2636 8.34661 33.2556 8.40104 33.237 8.4522C33.2184 8.50336 33.1895 8.55018 33.1522 8.58978C33.1148 8.62938 33.0698 8.66093 33.0198 8.6825C32.9698 8.70406 32.9159 8.71519 32.8615 8.71519C32.8071 8.71519 32.7532 8.70406 32.7032 8.6825C32.6532 8.66093 32.6082 8.62938 32.5708 8.58978C32.5335 8.55018 32.5046 8.50336 32.486 8.4522C32.4674 8.40104 32.4594 8.34661 32.4626 8.29227ZM32.4626 9.76651C32.4685 9.66475 32.5132 9.56911 32.5873 9.49916C32.6615 9.42922 32.7596 9.39026 32.8615 9.39026C32.9634 9.39026 33.0615 9.42922 33.1357 9.49916C33.2098 9.56911 33.2544 9.66475 33.2604 9.76651C33.2636 9.82086 33.2556 9.87528 33.237 9.92644C33.2184 9.9776 33.1895 10.0244 33.1522 10.064C33.1148 10.1036 33.0698 10.1352 33.0198 10.1567C32.9698 10.1783 32.9159 10.1894 32.8615 10.1894C32.8071 10.1894 32.7532 10.1783 32.7032 10.1567C32.6532 10.1352 32.6082 10.1036 32.5708 10.064C32.5335 10.0244 32.5046 9.9776 32.486 9.92644C32.4674 9.87528 32.4594 9.82086 32.4626 9.76651Z" fill="white"/>
<path d="M35.7138 9.59405V10.1396H33.5318V9.70451L34.6406 8.65713C34.8956 8.41574 34.9406 8.26709 34.9406 8.12799C34.9406 7.9016 34.7838 7.77068 34.481 7.77068C34.3656 7.76585 34.2509 7.78959 34.1469 7.83979C34.0429 7.88999 33.953 7.9651 33.885 8.05843L33.4009 7.74613C33.6218 7.42155 34.0241 7.21289 34.5424 7.21289C35.182 7.21289 35.6102 7.5402 35.6102 8.06252C35.6102 8.33528 35.5311 8.59576 35.1288 8.96944L34.4687 9.59405H35.7138Z" fill="white"/>
<path d="M35.9731 8.69804C35.9731 7.75022 36.4996 7.21289 37.2005 7.21289C37.9015 7.21289 38.4279 7.75022 38.4279 8.69804C38.4279 9.64587 37.907 10.1846 37.2005 10.1846C36.4941 10.1846 35.9731 9.64723 35.9731 8.69804ZM37.7679 8.69804C37.7679 8.04616 37.5388 7.77477 37.206 7.77477C36.8732 7.77477 36.6468 8.04752 36.6468 8.69804C36.6468 9.34857 36.8773 9.62269 37.206 9.62269C37.5347 9.62269 37.7679 9.35129 37.7679 8.69804Z" fill="white"/>
<path d="M33.0943 15.2471C33.1011 15.3092 33.0943 15.3721 33.0744 15.4313C33.0545 15.4906 33.0219 15.5448 32.979 15.5902C32.936 15.6356 32.8837 15.6711 32.8257 15.6943C32.7677 15.7175 32.7053 15.7277 32.6429 15.7244C32.5569 15.7269 32.472 15.7057 32.3974 15.663L32.4724 15.513C32.522 15.5445 32.58 15.5602 32.6388 15.558C32.6728 15.5597 32.7068 15.5541 32.7385 15.5415C32.7702 15.529 32.7988 15.5098 32.8225 15.4852C32.8461 15.4607 32.8642 15.4313 32.8756 15.3992C32.887 15.3671 32.8913 15.3329 32.8883 15.2989C32.8587 15.3263 32.8239 15.3475 32.786 15.3614C32.748 15.3752 32.7077 15.3813 32.6674 15.3794C32.6293 15.3825 32.5909 15.3779 32.5547 15.3657C32.5184 15.3535 32.485 15.3341 32.4566 15.3085C32.4281 15.283 32.4051 15.2519 32.3891 15.2172C32.373 15.1825 32.3643 15.1449 32.3633 15.1066C32.3644 15.0648 32.3741 15.0237 32.3918 14.9859C32.4095 14.948 32.4348 14.9142 32.4662 14.8865C32.4975 14.8589 32.5342 14.838 32.574 14.8252C32.6138 14.8124 32.6558 14.8079 32.6974 14.812C32.9429 14.8079 33.0943 14.9621 33.0943 15.2471ZM32.8652 15.093C32.8652 15.0166 32.8079 14.9566 32.711 14.9566C32.6908 14.9511 32.6696 14.9503 32.649 14.9544C32.6285 14.9584 32.6091 14.9671 32.5925 14.9799C32.5758 14.9926 32.5623 15.009 32.553 15.0278C32.5437 15.0466 32.5389 15.0672 32.5389 15.0882C32.5389 15.1092 32.5437 15.1298 32.553 15.1486C32.5623 15.1674 32.5758 15.1838 32.5925 15.1965C32.6091 15.2093 32.6285 15.218 32.649 15.222C32.6696 15.2261 32.6908 15.2253 32.711 15.2198C32.7296 15.2223 32.7485 15.2209 32.7665 15.2158C32.7845 15.2106 32.8012 15.2018 32.8157 15.1899C32.8302 15.178 32.842 15.1633 32.8505 15.1466C32.859 15.1299 32.864 15.1117 32.8652 15.093Z" fill="white"/>
<path d="M33.1938 15.2649C33.1938 14.973 33.3548 14.8066 33.573 14.8066C33.7912 14.8066 33.9521 14.973 33.9521 15.2649C33.9521 15.5567 33.7912 15.7231 33.573 15.7231C33.3548 15.7231 33.1938 15.5567 33.1938 15.2649ZM33.7394 15.2649C33.7394 15.0644 33.6684 14.9798 33.5662 14.9798C33.4639 14.9798 33.3943 15.0644 33.3943 15.2649C33.3943 15.4653 33.4652 15.5499 33.5662 15.5499C33.6671 15.5499 33.7462 15.4667 33.7462 15.2649H33.7394Z" fill="white"/>
<path d="M34.7225 15.4313C34.7225 15.5881 34.6066 15.7245 34.3543 15.7245C34.2347 15.7266 34.117 15.6934 34.0161 15.629L34.0966 15.4722C34.1709 15.5241 34.2596 15.5513 34.3502 15.5499C34.4525 15.5499 34.5166 15.5063 34.5166 15.434C34.5166 15.3617 34.4703 15.3195 34.3093 15.3195H34.0775L34.1239 14.8203H34.6694V14.9853H34.2998L34.2861 15.1531H34.3584C34.623 15.1558 34.7225 15.2772 34.7225 15.4313Z" fill="white"/>
<path d="M34.8057 15.2649C34.8057 14.973 34.968 14.8066 35.1862 14.8066C35.4044 14.8066 35.5653 14.973 35.5653 15.2649C35.5653 15.5567 35.4044 15.7231 35.1862 15.7231C34.968 15.7231 34.8057 15.5567 34.8057 15.2649ZM35.3594 15.2649C35.3594 15.0644 35.2884 14.9798 35.1862 14.9798C35.0839 14.9798 35.013 15.0644 35.013 15.2649C35.013 15.4653 35.0839 15.5499 35.1862 15.5499C35.2884 15.5499 35.3594 15.4667 35.3594 15.2649Z" fill="white"/>
<path d="M34.0258 18.9295C33.3245 18.9295 32.639 18.7216 32.0559 18.332C31.4727 17.9423 31.0183 17.3886 30.7499 16.7406C30.4815 16.0927 30.4113 15.3798 30.5481 14.692C30.6849 14.0041 31.0226 13.3723 31.5185 12.8764C32.0144 12.3805 32.6462 12.0428 33.334 11.906C34.0219 11.7692 34.7348 11.8394 35.3827 12.1078C36.0306 12.3762 36.5844 12.8307 36.974 13.4138C37.3637 13.9969 37.5716 14.6824 37.5716 15.3837C37.5687 16.3232 37.1942 17.2235 36.5299 17.8878C35.8656 18.5522 34.9653 18.9267 34.0258 18.9295ZM34.0258 12.7803C33.5133 12.7803 33.0123 12.9322 32.5862 13.217C32.1601 13.5017 31.828 13.9064 31.6319 14.3798C31.4357 14.8533 31.3844 15.3743 31.4844 15.877C31.5844 16.3796 31.8312 16.8413 32.1936 17.2037C32.5559 17.5661 33.0177 17.8128 33.5203 17.9128C34.0229 18.0128 34.5439 17.9615 35.0174 17.7654C35.4909 17.5693 35.8956 17.2371 36.1803 16.811C36.465 16.3849 36.617 15.8839 36.617 15.3714C36.6141 14.6851 36.3402 14.0277 35.8549 13.5424C35.3696 13.0571 34.7121 12.7831 34.0258 12.7803Z" fill="white"/>
<path d="M34.0258 18.9301C33.4005 18.9298 32.7862 18.7649 32.2447 18.4521C31.7032 18.1392 31.2536 17.6893 30.941 17.1476C30.8779 17.0379 30.8609 16.9075 30.8939 16.7853C30.9269 16.663 31.0071 16.5589 31.1169 16.4957C31.2267 16.4326 31.357 16.4157 31.4793 16.4487C31.6015 16.4817 31.7057 16.5619 31.7688 16.6717C31.9965 17.0644 32.3234 17.3904 32.7168 17.6171C33.1102 17.8438 33.5562 17.9631 34.0102 17.9631C34.4641 17.9632 34.9102 17.8439 35.3036 17.6174C35.697 17.3908 36.024 17.0648 36.2518 16.6721C36.4796 16.2794 36.6002 15.8338 36.6016 15.3798C36.603 14.9258 36.485 14.4794 36.2596 14.0854C36.0342 13.6913 35.7092 13.3633 35.3172 13.1344C34.9251 12.9054 34.4798 12.7835 34.0258 12.7808C33.8993 12.7808 33.7778 12.7305 33.6883 12.641C33.5988 12.5515 33.5485 12.4301 33.5485 12.3035C33.5485 12.1769 33.5988 12.0555 33.6883 11.966C33.7778 11.8765 33.8993 11.8262 34.0258 11.8262C34.9679 11.8262 35.8713 12.2004 36.5375 12.8665C37.2036 13.5326 37.5778 14.4361 37.5778 15.3781C37.5778 16.3202 37.2036 17.2236 36.5375 17.8897C35.8713 18.5559 34.9679 18.9301 34.0258 18.9301Z" fill="white"/>
<path d="M27.1702 18.1073C27.1498 18.1073 27.1348 16.4353 27.1348 14.3746C27.1348 12.314 27.1498 10.6406 27.1702 10.6406C27.1907 10.6406 27.2057 12.3113 27.2057 14.3719C27.2057 16.4326 27.1893 18.1073 27.1702 18.1073Z" fill="url(#paint25_linear_856_11147)"/>
<path d="M27.6911 19.6682C27.5728 19.5459 27.4809 19.4006 27.4211 19.2413C27.3613 19.082 27.3348 18.9121 27.3434 18.7422C27.3638 18.7422 27.3911 18.9618 27.4879 19.2168C27.5847 19.4718 27.7075 19.6559 27.6911 19.6682Z" fill="url(#paint26_linear_856_11147)"/>
<path d="M40.8812 9.60156C40.9003 9.60156 40.9166 11.4931 40.9166 13.8293C40.9166 16.1654 40.9003 18.057 40.8812 18.057C40.8621 18.057 40.8457 16.1668 40.8457 13.8293C40.8457 11.4918 40.8621 9.60156 40.8812 9.60156Z" fill="url(#paint27_linear_856_11147)"/>
<path d="M40.8243 7.17188C40.8593 7.39141 40.8712 7.61402 40.8598 7.83603C40.8712 8.0585 40.8594 8.28156 40.8243 8.50156C40.7885 8.28165 40.7766 8.0585 40.7889 7.83603C40.7766 7.61402 40.7885 7.39133 40.8243 7.17188Z" fill="url(#paint28_linear_856_11147)"/>
<g opacity="0.1">
<path d="M29.6138 4.60547L41.3341 17.9009V16.2617L31.0594 4.60547H29.6138Z" fill="white"/>
</g>
<path d="M35.4755 16.0202C35.0268 16.0561 34.5766 16.068 34.1267 16.0556C33.6773 16.068 33.2275 16.0561 32.7793 16.0202C33.2275 15.985 33.6773 15.9732 34.1267 15.9847C34.5766 15.9732 35.0268 15.9851 35.4755 16.0202Z" fill="white"/>
<path d="M37.825 10.6409C37.825 10.66 36.2144 10.6764 34.2287 10.6764C32.243 10.6764 30.6338 10.66 30.6338 10.6409C30.6338 10.6218 32.243 10.6055 34.2287 10.6055C36.2144 10.6055 37.825 10.6246 37.825 10.6409Z" fill="white"/>
<path d="M22.5073 8.43555H12.9404C11.8558 8.43555 10.9766 9.31479 10.9766 10.3994V21.5646C10.9766 22.6492 11.8558 23.5285 12.9404 23.5285H22.5073C23.5919 23.5285 24.4711 22.6492 24.4711 21.5646V10.3994C24.4711 9.31479 23.5919 8.43555 22.5073 8.43555Z" fill="#455A64"/>
<path d="M22.5074 23.5262L22.6438 23.5153C22.7006 23.5127 22.7571 23.5059 22.8129 23.4949C22.8909 23.4829 22.9679 23.4656 23.0434 23.443C23.2548 23.3805 23.4544 23.2833 23.6339 23.1553C23.8777 22.9793 24.079 22.7509 24.2231 22.487C24.3056 22.3289 24.367 22.1606 24.4058 21.9865C24.4445 21.7936 24.4601 21.5967 24.4522 21.4001C24.4522 20.991 24.4522 20.5355 24.4522 20.0527C24.4522 19.0858 24.4522 17.9838 24.4522 16.7673C24.4522 15.5509 24.4522 14.2171 24.4522 12.7865C24.4522 12.071 24.4522 11.3318 24.4522 10.569C24.4577 10.379 24.444 10.1889 24.4113 10.0016C24.3688 9.81482 24.3013 9.63456 24.2108 9.46568C24.0195 9.12195 23.7285 8.84426 23.3762 8.66924C23.1984 8.57863 23.0066 8.5187 22.8088 8.49195C22.607 8.4679 22.4037 8.45969 22.2006 8.4674H12.9392C12.4818 8.46958 12.0397 8.63223 11.69 8.92699C11.3457 9.21923 11.1154 9.62336 11.0394 10.0685C11.0102 10.2899 11.0002 10.5135 11.0094 10.7367V12.7347C11.0094 14.4871 11.0094 16.1755 11.0094 17.7806C11.0094 18.5853 11.0094 19.3708 11.0094 20.1332V21.2596C11.0039 21.4416 11.0093 21.6238 11.0258 21.8051C11.0482 21.9814 11.0941 22.1538 11.1622 22.3179C11.2976 22.6318 11.5132 22.9046 11.7872 23.109C12.0613 23.3134 12.3842 23.4422 12.7237 23.4826C12.886 23.4976 13.0496 23.4962 13.2133 23.4962H14.6303L20.395 23.5071H21.9619H22.3711C22.4624 23.5071 22.5074 23.5071 22.5074 23.5071H22.3711H21.9619H20.395L14.6303 23.5194H13.2119C13.0496 23.5194 12.8846 23.5194 12.7155 23.5071C12.3659 23.4666 12.0331 23.3347 11.7506 23.1248C11.4681 22.9148 11.2459 22.6342 11.1063 22.3111C11.0376 22.1415 10.9917 21.9636 10.9699 21.782C10.9526 21.5984 10.9463 21.414 10.9508 21.2296V20.1031C10.9508 19.3408 10.9508 18.5553 10.9508 17.7506C10.9508 16.1414 10.9508 14.453 10.9508 12.7047V10.7395C10.9403 10.5117 10.9504 10.2835 10.9808 10.0576C11.056 9.59597 11.2911 9.17552 11.645 8.86971C12.0081 8.56641 12.466 8.39994 12.9392 8.39921H22.187C22.3937 8.3915 22.6007 8.40016 22.8061 8.42512C23.01 8.4536 23.2077 8.51582 23.3912 8.60923C23.7543 8.78895 24.0547 9.07416 24.2531 9.4275C24.3468 9.6022 24.4161 9.78897 24.459 9.98256C24.4926 10.1738 24.5068 10.368 24.5013 10.5622C24.5013 11.325 24.5013 12.0641 24.5013 12.7797C24.5013 14.2103 24.5013 15.544 24.5013 16.7605C24.5013 17.977 24.5013 19.0789 24.5013 20.0459C24.5013 20.5286 24.5013 20.9787 24.5013 21.3933C24.5075 21.5923 24.491 21.7913 24.4522 21.9865C24.411 22.1631 24.3473 22.3336 24.2626 22.4938C24.1147 22.7599 23.9092 22.9896 23.6612 23.1662C23.4792 23.294 23.2767 23.3899 23.0625 23.4499C22.9866 23.4721 22.9091 23.4885 22.8307 23.499C22.7743 23.5085 22.7173 23.5144 22.6602 23.5167L22.5074 23.5262Z" fill="url(#paint29_linear_856_11147)"/>
<g opacity="0.1">
<path d="M22.4978 23.5258H12.995C12.4596 23.5258 11.9463 23.3131 11.5677 22.9346C11.1892 22.5561 10.9766 22.0427 10.9766 21.5074V10.4062" fill="white"/>
</g>
<path d="M11.4173 20.8717C11.3982 20.8717 11.3818 19.332 11.3818 17.4336C11.3818 15.5352 11.3982 13.9941 11.4173 13.9941C11.4364 13.9941 11.4528 15.5338 11.4528 17.4336C11.4528 19.3333 11.4391 20.8717 11.4173 20.8717Z" fill="url(#paint30_linear_856_11147)"/>
<path d="M11.8972 22.3147C11.778 22.2102 11.691 22.074 11.6462 21.9219C11.5793 21.7781 11.5556 21.618 11.578 21.4609C11.5985 21.4609 11.6244 21.6641 11.7144 21.8973C11.8044 22.1306 11.9149 22.3024 11.8972 22.3147Z" fill="url(#paint31_linear_856_11147)"/>
<path d="M24.054 13.0371C24.0731 13.0371 24.0895 14.78 24.0895 16.9293C24.0895 19.0786 24.0731 20.8215 24.054 20.8215C24.0349 20.8215 24.0186 19.08 24.0186 16.9293C24.0186 14.7787 24.0336 13.0371 24.054 13.0371Z" fill="url(#paint32_linear_856_11147)"/>
<path d="M24.001 10.7988C24.0359 11.0014 24.0478 11.2073 24.0365 11.4125C24.0478 11.6178 24.0359 11.8237 24.001 12.0262C23.9653 11.8237 23.9534 11.6178 23.9656 11.4125C23.9534 11.2073 23.9653 11.0013 24.001 10.7988Z" fill="url(#paint33_linear_856_11147)"/>
<g opacity="0.1">
<path d="M13.6704 8.43555L24.4715 20.6864V19.1767L15.0028 8.43555H13.6704Z" fill="white"/>
</g>
<path d="M22.401 15.471C22.401 15.4901 20.3063 15.5065 17.7233 15.5065C15.1403 15.5065 13.0469 15.4901 13.0469 15.471C13.0469 15.4519 15.1403 15.4355 17.7233 15.4355C20.3063 15.4355 22.401 15.4519 22.401 15.471Z" fill="white"/>
<path d="M14.8633 16.377H15.0078V16.9988H14.8633V16.377Z" fill="white"/>
<path d="M15.634 16.7272V17H15.4977V16.7477C15.4977 16.6713 15.4622 16.6345 15.4008 16.6345C15.3395 16.6345 15.2863 16.6754 15.2863 16.764V17H15.1499V16.5227H15.2863V16.5786C15.3067 16.5575 15.3314 16.541 15.3586 16.5302C15.3859 16.5194 15.4152 16.5145 15.4445 16.5158C15.4715 16.5152 15.4982 16.5204 15.523 16.5311C15.5478 16.5419 15.5699 16.5578 15.5879 16.5779C15.6059 16.598 15.6194 16.6217 15.6274 16.6475C15.6353 16.6733 15.6376 16.7005 15.634 16.7272Z" fill="white"/>
<path d="M15.7281 16.7605C15.7281 16.7259 15.7354 16.6917 15.7495 16.6601C15.7635 16.6285 15.7841 16.6002 15.8098 16.577C15.8355 16.5539 15.8658 16.5364 15.8988 16.5257C15.9317 16.515 15.9665 16.5114 16.0009 16.515C16.0449 16.5127 16.0886 16.5237 16.1263 16.5466C16.164 16.5694 16.194 16.6031 16.2123 16.6432L16.1045 16.7005C16.0944 16.6807 16.079 16.6641 16.0599 16.6525C16.0409 16.6409 16.019 16.6349 15.9968 16.635C15.9673 16.6424 15.9411 16.6595 15.9224 16.6834C15.9037 16.7074 15.8936 16.7369 15.8936 16.7673C15.8936 16.7977 15.9037 16.8273 15.9224 16.8512C15.9411 16.8752 15.9673 16.8922 15.9968 16.8996C16.0191 16.9001 16.0411 16.8942 16.0602 16.8826C16.0793 16.871 16.0947 16.8542 16.1045 16.8342L16.2123 16.8928C16.1923 16.9316 16.1613 16.9637 16.1233 16.985C16.0852 17.0064 16.0417 17.016 15.9981 17.0128C15.9634 17.0161 15.9283 17.012 15.8952 17.0007C15.8622 16.9894 15.8319 16.9713 15.8063 16.9474C15.7808 16.9236 15.7607 16.8946 15.7472 16.8624C15.7337 16.8302 15.7272 16.7954 15.7281 16.7605Z" fill="white"/>
<path d="M16.2477 16.7595C16.2441 16.7067 16.2565 16.6541 16.2832 16.6086C16.31 16.563 16.3498 16.5265 16.3976 16.5039C16.4453 16.4812 16.4988 16.4735 16.551 16.4817C16.6032 16.4899 16.6517 16.5136 16.6903 16.5497C16.7289 16.5858 16.7556 16.6328 16.7672 16.6843C16.7787 16.7359 16.7744 16.7898 16.7549 16.8389C16.7354 16.888 16.7016 16.9301 16.6578 16.9597C16.614 16.9893 16.5624 17.0051 16.5095 17.0049C16.4759 17.0074 16.4421 17.0028 16.4103 16.9916C16.3785 16.9803 16.3494 16.9626 16.3248 16.9396C16.3002 16.9165 16.2807 16.8886 16.2674 16.8576C16.2541 16.8266 16.2474 16.7932 16.2477 16.7595ZM16.6323 16.7595C16.6296 16.7359 16.6203 16.7137 16.6053 16.6954C16.5903 16.6771 16.5703 16.6635 16.5478 16.6562C16.5253 16.649 16.5011 16.6484 16.4783 16.6546C16.4554 16.6608 16.4349 16.6734 16.419 16.691C16.4032 16.7086 16.3928 16.7304 16.3891 16.7537C16.3853 16.7771 16.3884 16.801 16.398 16.8227C16.4076 16.8443 16.4232 16.8627 16.443 16.8757C16.4627 16.8887 16.4859 16.8957 16.5095 16.8958C16.5269 16.8962 16.5442 16.8927 16.5601 16.8858C16.5761 16.8789 16.5904 16.8686 16.602 16.8557C16.6137 16.8427 16.6224 16.8275 16.6276 16.8109C16.6328 16.7942 16.6344 16.7767 16.6323 16.7595Z" fill="white"/>
<path d="M17.6716 16.7273V17.0001H17.5353V16.7478C17.5353 16.6714 17.4998 16.6346 17.4439 16.6346C17.388 16.6346 17.3389 16.6755 17.3389 16.7601V17.0001H17.2025V16.7478C17.2025 16.6714 17.1698 16.6346 17.1125 16.6346C17.0552 16.6346 17.0075 16.6755 17.0075 16.7601V17.0001H16.8711V16.5228H17.0075V16.5773C17.0265 16.5568 17.0498 16.5406 17.0757 16.53C17.1016 16.5194 17.1295 16.5146 17.1575 16.5159C17.1883 16.5141 17.2191 16.5203 17.2468 16.5339C17.2746 16.5476 17.2983 16.5681 17.3157 16.5937C17.3364 16.5684 17.3627 16.5482 17.3925 16.5347C17.4223 16.5212 17.4548 16.5148 17.4875 16.5159C17.5141 16.5159 17.5404 16.5215 17.5646 16.5325C17.5888 16.5435 17.6104 16.5595 17.6278 16.5796C17.6453 16.5996 17.6582 16.6232 17.6658 16.6487C17.6734 16.6742 17.6753 16.701 17.6716 16.7273Z" fill="white"/>
<path d="M17.7793 16.377C17.7794 16.3661 17.7818 16.3554 17.7863 16.3455C17.7908 16.3356 17.7973 16.3267 17.8053 16.3194C17.8134 16.3121 17.8229 16.3066 17.8332 16.3031C17.8435 16.2996 17.8544 16.2983 17.8652 16.2993C17.8759 16.2981 17.8866 16.2992 17.8968 16.3024C17.9071 16.3057 17.9165 16.311 17.9246 16.318C17.9326 16.325 17.9391 16.3337 17.9437 16.3434C17.9483 16.353 17.9508 16.3636 17.9511 16.3743C17.9511 16.3971 17.9421 16.4189 17.926 16.435C17.9099 16.4511 17.888 16.4602 17.8652 16.4602C17.8424 16.4602 17.8206 16.4511 17.8045 16.435C17.7883 16.4189 17.7793 16.3971 17.7793 16.3743V16.377ZM17.7957 16.5216H17.932V16.9989H17.7957V16.5216Z" fill="white"/>
<path d="M18.5525 16.7272V16.9999H18.4161V16.7476C18.4161 16.6712 18.3807 16.6344 18.3193 16.6344C18.2579 16.6344 18.2047 16.6753 18.2047 16.764V16.9999H18.0684V16.5226H18.2047V16.5785C18.2253 16.5577 18.25 16.5413 18.2772 16.5305C18.3045 16.5197 18.3337 16.5147 18.3629 16.5158C18.3898 16.5154 18.4165 16.5207 18.4412 16.5315C18.4658 16.5423 18.4879 16.5583 18.5058 16.5783C18.5238 16.5983 18.5373 16.622 18.5453 16.6477C18.5534 16.6733 18.5558 16.7004 18.5525 16.7272Z" fill="white"/>
<path d="M19.1756 16.5223V16.9164C19.18 16.9527 19.1758 16.9895 19.1634 17.0238C19.151 17.0582 19.1308 17.0892 19.1043 17.1144C19.0778 17.1396 19.0458 17.1582 19.0108 17.1688C18.9759 17.1794 18.9389 17.1817 18.9029 17.1755C18.8197 17.1792 18.7375 17.1562 18.6683 17.11L18.7229 17.0105C18.7722 17.0457 18.8314 17.0643 18.892 17.0637C18.9902 17.0637 19.0283 17.02 19.0283 16.9273V16.9164C19.0087 16.9363 18.985 16.9518 18.9589 16.962C18.9329 16.9721 18.9049 16.9765 18.877 16.975C18.8158 16.975 18.7572 16.9507 18.714 16.9075C18.6708 16.8643 18.6465 16.8057 18.6465 16.7445C18.6465 16.6834 18.6708 16.6248 18.714 16.5816C18.7572 16.5384 18.8158 16.5141 18.877 16.5141C18.9068 16.5121 18.9368 16.5173 18.9643 16.5292C18.9918 16.541 19.0161 16.5592 19.0352 16.5823V16.5209L19.1756 16.5223ZM19.0393 16.7459C19.0393 16.7126 19.026 16.6807 19.0025 16.6572C18.979 16.6337 18.9471 16.6204 18.9138 16.6204C18.8805 16.6204 18.8486 16.6337 18.8251 16.6572C18.8015 16.6807 18.7883 16.7126 18.7883 16.7459C18.7883 16.7792 18.8015 16.8111 18.8251 16.8346C18.8486 16.8582 18.8805 16.8714 18.9138 16.8714C18.9471 16.8714 18.979 16.8582 19.0025 16.8346C19.026 16.8111 19.0393 16.7792 19.0393 16.7459Z" fill="white"/>
<path d="M19.5195 16.7605C19.5195 16.7259 19.5268 16.6917 19.5409 16.6601C19.555 16.6285 19.5755 16.6002 19.6012 16.577C19.627 16.5539 19.6573 16.5364 19.6902 16.5257C19.7231 16.515 19.7579 16.5114 19.7923 16.515C19.836 16.5116 19.8798 16.5213 19.9179 16.5429C19.9561 16.5645 19.9869 16.5971 20.0064 16.6364L19.8987 16.6937C19.8885 16.6739 19.8731 16.6572 19.8541 16.6457C19.8351 16.6341 19.8132 16.6281 19.7909 16.6282C19.7614 16.6356 19.7353 16.6527 19.7166 16.6766C19.6979 16.7006 19.6877 16.7301 19.6877 16.7605C19.6877 16.7909 19.6979 16.8204 19.7166 16.8444C19.7353 16.8684 19.7614 16.8854 19.7909 16.8928C19.8133 16.8933 19.8352 16.8874 19.8543 16.8758C19.8734 16.8642 19.8888 16.8474 19.8987 16.8273L20.0064 16.886C19.9864 16.9248 19.9555 16.9569 19.9174 16.9782C19.8793 16.9996 19.8358 17.0092 19.7923 17.006C19.7579 17.0096 19.7231 17.006 19.6902 16.9953C19.6573 16.9846 19.627 16.9671 19.6012 16.944C19.5755 16.9208 19.555 16.8926 19.5409 16.8609C19.5268 16.8293 19.5195 16.7951 19.5195 16.7605Z" fill="white"/>
<path d="M20.5029 16.7265V16.9993H20.3666V16.9406C20.3505 16.9637 20.3284 16.982 20.3027 16.9936C20.277 17.0051 20.2486 17.0094 20.2206 17.0061C20.1088 17.0061 20.042 16.9447 20.042 16.8615C20.042 16.7783 20.102 16.7252 20.2479 16.7252H20.357C20.357 16.6665 20.3216 16.6311 20.2479 16.6311C20.1988 16.6312 20.1511 16.647 20.1115 16.6761L20.0611 16.5792C20.1224 16.5398 20.1942 16.5198 20.267 16.522C20.4184 16.5151 20.5029 16.582 20.5029 16.7265ZM20.3666 16.8493V16.8002H20.2725C20.207 16.8002 20.1866 16.8234 20.1866 16.8561C20.1866 16.8888 20.2166 16.9134 20.2643 16.9134C20.2855 16.9143 20.3064 16.9087 20.3243 16.8972C20.3421 16.8857 20.3559 16.869 20.3638 16.8493H20.3666Z" fill="white"/>
<path d="M20.6284 16.3418H20.7648V17.0005H20.6284V16.3418Z" fill="white"/>
<path d="M20.8955 16.3418H21.0319V17.0005H20.8955V16.3418Z" fill="white"/>
<path d="M14.9193 21.6912C15.8954 21.6912 16.6868 20.8998 16.6868 19.9237C16.6868 18.9476 15.8954 18.1562 14.9193 18.1562C13.9432 18.1562 13.1519 18.9476 13.1519 19.9237C13.1519 20.8998 13.9432 21.6912 14.9193 21.6912Z" fill="white"/>
<path d="M14.0766 20.3339L14.5321 20.1525V19.8334H15.1512V20.0843L15.664 20.3339L15.9081 19.9466C15.7694 19.8046 15.6027 19.693 15.4187 19.6186C15.2347 19.5442 15.0373 19.5087 14.8389 19.5142C14.4592 19.5113 14.0931 19.6555 13.8175 19.9166C13.8146 19.92 13.813 19.9243 13.813 19.9288C13.813 19.9333 13.8146 19.9377 13.8175 19.9411L14.0766 20.3339Z" fill="white"/>
<path d="M22.3775 20.4159C22.5334 19.4515 21.878 18.5434 20.9136 18.3875C19.9492 18.2317 19.0411 18.8871 18.8852 19.8515C18.7294 20.8159 19.3848 21.724 20.3492 21.8798C21.3136 22.0357 22.2217 21.3803 22.3775 20.4159Z" fill="url(#paint34_linear_856_11147)"/>
<path d="M21.3168 20.6354L20.935 20.3258L20.6622 20.4813L20.3595 19.9358L20.5777 19.813L20.5463 19.2443L20.1972 19.2266C20.1656 19.2258 20.1348 19.236 20.11 19.2554C20.0851 19.2748 20.0677 19.3022 20.0608 19.333C19.9899 19.6864 20.0521 20.0536 20.2354 20.364C20.3996 20.6566 20.6555 20.8871 20.9636 21.02C20.9993 21.0345 21.0391 21.0351 21.0752 21.0217C21.1113 21.0083 21.141 20.9819 21.1586 20.9477L21.3168 20.6354Z" fill="white"/>
<path d="M18.4175 10.4395H16.9446C16.2223 10.4395 15.6367 11.025 15.6367 11.7473V13.2202C15.6367 13.9425 16.2223 14.5281 16.9446 14.5281H18.4175C19.1398 14.5281 19.7253 13.9425 19.7253 13.2202V11.7473C19.7253 11.025 19.1398 10.4395 18.4175 10.4395Z" fill="url(#paint35_linear_856_11147)"/>
<path d="M17.9045 12.5153C17.996 12.4749 18.0736 12.4086 18.1277 12.3244C18.1817 12.2403 18.2099 12.1421 18.2086 12.0421C18.2175 11.9742 18.2118 11.9051 18.1919 11.8396C18.172 11.774 18.1383 11.7135 18.0931 11.662C18.048 11.6105 17.9923 11.5692 17.9299 11.5409C17.8675 11.5127 17.7998 11.498 17.7313 11.498C17.6627 11.498 17.595 11.5127 17.5326 11.5409C17.4702 11.5692 17.4146 11.6105 17.3694 11.662C17.3242 11.7135 17.2905 11.774 17.2706 11.8396C17.2507 11.9051 17.245 11.9742 17.2539 12.0421C17.2523 12.1432 17.2806 12.2426 17.3352 12.3277C17.3897 12.4129 17.4682 12.48 17.5608 12.5208C16.8216 12.6312 16.8557 13.4345 16.8557 13.4345L18.6013 13.4427C18.6013 13.4427 18.6368 12.6258 17.9045 12.5153Z" fill="white"/>
<path d="M28.8322 24.6094H20.5023C19.4312 24.6094 18.563 25.4776 18.563 26.5487V36.3229C18.563 37.3939 19.4312 38.2622 20.5023 38.2622H28.8322C29.9033 38.2622 30.7715 37.3939 30.7715 36.3229V26.5487C30.7715 25.4776 29.9033 24.6094 28.8322 24.6094Z" fill="#455A64"/>
<path d="M28.8311 38.2625L28.9552 38.2529C29.0066 38.2514 29.0577 38.2455 29.108 38.2352C29.1782 38.2269 29.2476 38.2123 29.3153 38.1915C29.5087 38.143 29.6929 38.0633 29.8608 37.9556C30.0883 37.8098 30.2837 37.6191 30.4349 37.3951C30.622 37.1125 30.7312 36.7856 30.7513 36.4473C30.7636 36.0777 30.7513 35.6713 30.7513 35.2362C30.7513 34.3675 30.7513 33.3774 30.7513 32.2823C30.7513 31.1872 30.7513 29.9884 30.7513 28.7024C30.7513 28.0587 30.7513 27.3936 30.7513 26.7072C30.7571 26.5364 30.7457 26.3656 30.7172 26.1971C30.6859 26.0275 30.6308 25.8631 30.5536 25.7089C30.5157 25.6305 30.4724 25.5548 30.424 25.4825C30.3741 25.4111 30.3199 25.3427 30.2617 25.2779C30.1424 25.1452 30.0046 25.0304 29.8526 24.937C29.5458 24.7445 29.1906 24.6428 28.8284 24.6438H20.5094C20.1012 24.6445 19.7041 24.7761 19.3762 25.019C19.0483 25.262 18.8069 25.6037 18.6874 25.9939C18.5673 26.3771 18.6151 26.7863 18.6042 27.1872V28.3778C18.6042 29.953 18.6042 31.4722 18.6042 32.9205C18.6042 33.6433 18.6042 34.3498 18.6042 35.0358V36.049C18.6 36.2128 18.6041 36.3767 18.6164 36.54C18.6254 36.6196 18.64 36.6984 18.6601 36.7759L18.6901 36.8919L18.731 37.0037C18.8404 37.2906 19.0174 37.5469 19.247 37.7509C19.4766 37.9548 19.7519 38.1004 20.0498 38.1752C20.3347 38.2318 20.6257 38.2519 20.9158 38.2352H21.7559L26.9382 38.2461L28.3484 38.2529L26.9382 38.2597L21.7559 38.2706H20.9158C20.6212 38.2876 20.3257 38.2675 20.0361 38.2106C19.7288 38.1346 19.4444 37.9856 19.207 37.7762C18.9696 37.5668 18.7862 37.3032 18.6724 37.0078L18.6301 36.8919L18.5987 36.7732C18.5793 36.6928 18.5647 36.6113 18.5551 36.5291C18.5387 36.3627 18.5401 36.1963 18.5401 36.0313V35.018C18.5401 34.3361 18.5401 33.6256 18.5401 32.9028C18.5401 31.4545 18.5401 29.9352 18.5401 28.3601V26.5844C18.5396 26.3783 18.5681 26.1731 18.6246 25.9748C18.7497 25.5706 19.0004 25.2169 19.3404 24.965C19.6803 24.7131 20.0917 24.5762 20.5148 24.5742H28.8339C29.2083 24.5735 29.5752 24.679 29.8921 24.8783C30.0479 24.9748 30.1886 25.0939 30.3095 25.2316C30.3703 25.2988 30.4268 25.3699 30.4786 25.4443C30.5285 25.5193 30.5741 25.5972 30.615 25.6775C30.6944 25.8371 30.7513 26.0069 30.7841 26.1821C30.8122 26.3547 30.8237 26.5296 30.8182 26.7044C30.8182 27.3909 30.8182 28.0559 30.8182 28.6996C30.8182 29.9857 30.8182 31.1845 30.8182 32.2796C30.8182 33.3747 30.8182 34.3648 30.8182 35.2335C30.8182 35.6699 30.8182 36.0722 30.8086 36.4473C30.785 36.7886 30.6721 37.1178 30.4813 37.4019C30.3267 37.628 30.127 37.8197 29.8949 37.9652C29.7269 38.072 29.5427 38.1508 29.3494 38.1984C29.2804 38.2166 29.2102 38.2299 29.1393 38.2379C29.0889 38.2471 29.0378 38.2516 28.9866 38.2515C28.8734 38.2638 28.8311 38.2625 28.8311 38.2625Z" fill="url(#paint36_linear_856_11147)"/>
<g opacity="0.1">
<path d="M28.9863 38.2621H20.5868C20.321 38.2623 20.0578 38.2101 19.8121 38.1084C19.5665 38.0068 19.3433 37.8577 19.1554 37.6698C18.9674 37.4818 18.8183 37.2586 18.7167 37.013C18.615 36.7674 18.5628 36.5041 18.563 36.2383V26.3945" fill="white"/>
</g>
<path d="M18.9617 35.8719C18.9426 35.8719 18.9263 34.4782 18.9263 32.7612C18.9263 31.0442 18.9426 29.6504 18.9617 29.6504C18.9808 29.6504 18.9972 31.0428 18.9972 32.7612C18.9972 34.4795 18.9822 35.8719 18.9617 35.8719Z" fill="url(#paint37_linear_856_11147)"/>
<path d="M19.3964 37.1684C19.2857 37.076 19.2054 36.9524 19.1659 36.8138C19.104 36.684 19.0835 36.5383 19.1073 36.3965C19.1277 36.3965 19.1523 36.5779 19.2327 36.7893C19.3132 37.0006 19.4127 37.1561 19.3964 37.1684Z" fill="url(#paint38_linear_856_11147)"/>
<path d="M30.3953 28.7793C30.4158 28.7793 30.4308 30.3558 30.4308 32.3006C30.4308 34.2453 30.4158 35.8205 30.3953 35.8205C30.3749 35.8205 30.3599 34.2453 30.3599 32.3006C30.3599 30.3558 30.3735 28.7793 30.3953 28.7793Z" fill="url(#paint39_linear_856_11147)"/>
<path d="M30.3448 26.75C30.3797 26.9324 30.3916 27.1184 30.3803 27.3037C30.3917 27.4895 30.3798 27.6759 30.3448 27.8588C30.3099 27.6759 30.298 27.4895 30.3094 27.3037C30.298 27.1184 30.3099 26.9324 30.3448 26.75Z" fill="url(#paint40_linear_856_11147)"/>
<g opacity="0.1">
<path d="M21.0005 24.6094L30.7706 35.6928V34.3263L22.2047 24.6094H21.0005Z" fill="white"/>
</g>
<path d="M28.8954 30.9769C28.8954 30.9973 27.0011 31.0123 24.6677 31.0123C22.3342 31.0123 20.4399 30.9973 20.4399 30.9769C20.4399 30.9564 22.3342 30.9414 24.6677 30.9414C27.0011 30.9414 28.8954 30.9632 28.8954 30.9769Z" fill="white"/>
<path d="M25.1695 26.4238H24.0867C23.3644 26.4238 22.7788 27.0094 22.7788 27.7317V28.8145C22.7788 29.5368 23.3644 30.1224 24.0867 30.1224H25.1695C25.8918 30.1224 26.4774 29.5368 26.4774 28.8145V27.7317C26.4774 27.0094 25.8918 26.4238 25.1695 26.4238Z" fill="url(#paint41_linear_856_11147)"/>
<path d="M24.3592 28.7002C24.3427 28.7508 24.3103 28.7948 24.2669 28.8256C24.2235 28.8564 24.1714 28.8724 24.1182 28.8714C24.065 28.8703 24.0135 28.8521 23.9714 28.8196C23.9293 28.787 23.8988 28.7418 23.8843 28.6906C23.8699 28.6394 23.8723 28.5849 23.8912 28.5351C23.9101 28.4853 23.9444 28.443 23.9893 28.4143C24.0341 28.3855 24.0869 28.372 24.14 28.3756C24.1931 28.3792 24.2436 28.3998 24.2842 28.4343C24.3215 28.4663 24.3485 28.5086 24.3618 28.5559C24.3752 28.6032 24.3742 28.6534 24.3592 28.7002Z" fill="white"/>
<path d="M24.3486 28.6549C24.324 28.6549 24.2777 28.3985 24.2858 28.0781C24.2786 27.8854 24.2951 27.6926 24.3349 27.5039C24.3595 27.5039 24.3813 27.763 24.3731 28.0794C24.381 28.2716 24.3728 28.4641 24.3486 28.6549Z" fill="white"/>
<path d="M25.1189 27.6762C24.9915 27.7563 24.8377 27.7833 24.6907 27.7512C24.5841 27.7396 24.4826 27.6991 24.3975 27.6339C24.3334 27.5807 24.317 27.5275 24.3252 27.5221C24.3334 27.5166 24.3675 27.5507 24.4329 27.5834C24.5181 27.6272 24.6105 27.6549 24.7057 27.6653C24.9253 27.6898 25.1121 27.6503 25.1189 27.6762Z" fill="white"/>
<path d="M25.1437 28.871C25.1274 28.9217 25.0952 28.9659 25.0519 28.9969C25.0085 29.0279 24.9564 29.0442 24.9031 29.0433C24.8498 29.0423 24.7982 29.0243 24.756 28.9918C24.7138 28.9593 24.6831 28.9141 24.6686 28.8628C24.6541 28.8115 24.6564 28.7569 24.6753 28.7071C24.6942 28.6573 24.7286 28.6148 24.7735 28.5861C24.8184 28.5573 24.8713 28.5438 24.9245 28.5475C24.9776 28.5511 25.0282 28.5718 25.0687 28.6064C25.106 28.6381 25.1331 28.6802 25.1464 28.7273C25.1598 28.7744 25.1588 28.8244 25.1437 28.871Z" fill="white"/>
<path d="M25.1324 28.8268C25.1092 28.8268 25.0615 28.5718 25.071 28.2513C25.0638 28.0582 25.0798 27.865 25.1187 27.6758C25.1447 27.6758 25.1665 27.9349 25.1569 28.2527C25.165 28.4444 25.1567 28.6365 25.1324 28.8268Z" fill="white"/>
<path d="M25.1231 27.8442C25.134 27.8647 24.9608 27.9602 24.7262 27.9383C24.4917 27.9165 24.3376 27.7938 24.3526 27.776C24.3676 27.7583 24.523 27.8361 24.7331 27.8524C24.9431 27.8688 25.1136 27.8251 25.1231 27.8442Z" fill="white"/>
<path d="M24.4373 34.5781H24.0254V35.7469H24.4373V34.5781Z" fill="white"/>
<path d="M25.157 34.5781H24.7451V35.7469H25.157V34.5781Z" fill="white"/>
<path d="M24.6291 37.0289C24.2597 37.0292 23.8986 36.9199 23.5913 36.7149C23.2841 36.5098 23.0446 36.2182 22.9031 35.877C22.7616 35.5358 22.7246 35.1603 22.7966 34.798C22.8685 34.4357 23.0464 34.1029 23.3076 33.8418C23.5688 33.5806 23.9016 33.4027 24.2639 33.3307C24.6261 33.2587 25.0017 33.2958 25.3429 33.4373C25.6841 33.5788 25.9756 33.8183 26.1807 34.1255C26.3857 34.4328 26.495 34.7939 26.4948 35.1633C26.494 35.6579 26.2973 36.132 25.9475 36.4817C25.5978 36.8314 25.1237 37.0282 24.6291 37.0289ZM24.6291 33.4327C24.2868 33.4324 23.952 33.5337 23.6673 33.7237C23.3825 33.9137 23.1604 34.1839 23.0292 34.5001C22.8981 34.8163 22.8636 35.1643 22.9302 35.5001C22.9968 35.8359 23.1615 36.1444 23.4035 36.3866C23.6455 36.6287 23.9539 36.7937 24.2896 36.8606C24.6254 36.9275 24.9734 36.8933 25.2897 36.7623C25.606 36.6314 25.8764 36.4096 26.0666 36.1249C26.2569 35.8403 26.3584 35.5056 26.3584 35.1633C26.358 34.7047 26.1758 34.2649 25.8516 33.9404C25.5274 33.616 25.0878 33.4334 24.6291 33.4327Z" fill="white"/>
<path d="M27.522 34.6621V35.6345L28.2325 35.149L27.522 34.6621Z" fill="white"/>
<path d="M28.3471 34.6621H28.2012V35.6645H28.3471V34.6621Z" fill="white"/>
<path d="M21.7711 34.6621V35.6345L21.0605 35.149L21.7711 34.6621Z" fill="white"/>
<path d="M20.9459 35.6641H21.0918V34.6617H20.9459V35.6641Z" fill="white"/>
<defs>
<linearGradient id="paint0_linear_856_11147" x1="45.19" y1="13.3761" x2="43.3122" y2="13.4288" gradientUnits="userSpaceOnUse">
<stop stop-color="#001237"/>
<stop offset="0.190429" stop-color="#03045E"/>
<stop offset="0.780728" stop-color="#03045E"/>
<stop offset="1" stop-color="#001237"/>
</linearGradient>
<linearGradient id="paint1_linear_856_11147" x1="45.1333" y1="16.0734" x2="44.6827" y2="16.1073" gradientUnits="userSpaceOnUse">
<stop stop-color="#001237"/>
<stop offset="0.190429" stop-color="#03045E"/>
<stop offset="0.780728" stop-color="#03045E"/>
<stop offset="1" stop-color="#001237"/>
</linearGradient>
<linearGradient id="paint2_linear_856_11147" x1="45.4684" y1="15.3545" x2="44.6142" y2="15.5747" gradientUnits="userSpaceOnUse">
<stop stop-color="#001237"/>
<stop offset="0.190429" stop-color="#03045E"/>
<stop offset="0.780728" stop-color="#03045E"/>
<stop offset="1" stop-color="#001237"/>
</linearGradient>
<linearGradient id="paint3_linear_856_11147" x1="47.3221" y1="16.1045" x2="46.8657" y2="16.1386" gradientUnits="userSpaceOnUse">
<stop stop-color="#001237"/>
<stop offset="0.190429" stop-color="#03045E"/>
<stop offset="0.780728" stop-color="#03045E"/>
<stop offset="1" stop-color="#001237"/>
</linearGradient>
<linearGradient id="paint4_linear_856_11147" x1="47.7416" y1="15.4673" x2="46.8914" y2="15.6875" gradientUnits="userSpaceOnUse">
<stop stop-color="#001237"/>
<stop offset="0.190429" stop-color="#03045E"/>
<stop offset="0.780728" stop-color="#03045E"/>
<stop offset="1" stop-color="#001237"/>
</linearGradient>
<linearGradient id="paint5_linear_856_11147" x1="46.1523" y1="15.8374" x2="45.3608" y2="15.8596" gradientUnits="userSpaceOnUse">
<stop stop-color="#001237"/>
<stop offset="0.190429" stop-color="#03045E"/>
<stop offset="0.780728" stop-color="#03045E"/>
<stop offset="1" stop-color="#001237"/>
</linearGradient>
<linearGradient id="paint6_linear_856_11147" x1="46.6973" y1="17.6512" x2="45.8679" y2="17.7244" gradientUnits="userSpaceOnUse">
<stop stop-color="#001237"/>
<stop offset="0.190429" stop-color="#03045E"/>
<stop offset="0.780728" stop-color="#03045E"/>
<stop offset="1" stop-color="#001237"/>
</linearGradient>
<linearGradient id="paint7_linear_856_11147" x1="47.9149" y1="14.884" x2="46.8584" y2="15.1298" gradientUnits="userSpaceOnUse">
<stop stop-color="#001237"/>
<stop offset="0.190429" stop-color="#03045E"/>
<stop offset="0.780728" stop-color="#03045E"/>
<stop offset="1" stop-color="#001237"/>
</linearGradient>
<linearGradient id="paint8_linear_856_11147" x1="45.4247" y1="14.5433" x2="44.6252" y2="14.7228" gradientUnits="userSpaceOnUse">
<stop stop-color="#001237"/>
<stop offset="0.190429" stop-color="#03045E"/>
<stop offset="0.780728" stop-color="#03045E"/>
<stop offset="1" stop-color="#001237"/>
</linearGradient>
<linearGradient id="paint9_linear_856_11147" x1="51.1662" y1="11.9459" x2="43.2129" y2="12.6018" gradientUnits="userSpaceOnUse">
<stop stop-color="#001237"/>
<stop offset="0.190429" stop-color="#03045E"/>
<stop offset="0.780728" stop-color="#03045E"/>
<stop offset="1" stop-color="#001237"/>
</linearGradient>
<linearGradient id="paint10_linear_856_11147" x1="49.8921" y1="17.7385" x2="49.4283" y2="17.767" gradientUnits="userSpaceOnUse">
<stop stop-color="#001237"/>
<stop offset="0.190429" stop-color="#03045E"/>
<stop offset="0.780728" stop-color="#03045E"/>
<stop offset="1" stop-color="#001237"/>
</linearGradient>
<linearGradient id="paint11_linear_856_11147" x1="36.2017" y1="23.9432" x2="34.4056" y2="24.1052" gradientUnits="userSpaceOnUse">
<stop stop-color="#001237"/>
<stop offset="0.190429" stop-color="#03045E"/>
<stop offset="0.780728" stop-color="#03045E"/>
<stop offset="1" stop-color="#001237"/>
</linearGradient>
<linearGradient id="paint12_linear_856_11147" x1="35.9953" y1="25.0987" x2="34.8606" y2="25.2029" gradientUnits="userSpaceOnUse">
<stop stop-color="#001237"/>
<stop offset="0.190429" stop-color="#03045E"/>
<stop offset="0.780728" stop-color="#03045E"/>
<stop offset="1" stop-color="#001237"/>
</linearGradient>
<linearGradient id="paint13_linear_856_11147" x1="34.8179" y1="23.6745" x2="33.9187" y2="23.8333" gradientUnits="userSpaceOnUse">
<stop stop-color="#001237"/>
<stop offset="0.190429" stop-color="#03045E"/>
<stop offset="0.780728" stop-color="#03045E"/>
<stop offset="1" stop-color="#001237"/>
</linearGradient>
<linearGradient id="paint14_linear_856_11147" x1="45.8297" y1="27.4108" x2="43.1051" y2="27.6154" gradientUnits="userSpaceOnUse">
<stop stop-color="#001237"/>
<stop offset="0.190429" stop-color="#03045E"/>
<stop offset="0.780728" stop-color="#03045E"/>
<stop offset="1" stop-color="#001237"/>
</linearGradient>
<linearGradient id="paint15_linear_856_11147" x1="45.6472" y1="27.585" x2="43.0755" y2="27.7749" gradientUnits="userSpaceOnUse">
<stop stop-color="#001237"/>
<stop offset="0.190429" stop-color="#03045E"/>
<stop offset="0.780728" stop-color="#03045E"/>
<stop offset="1" stop-color="#001237"/>
</linearGradient>
<linearGradient id="paint16_linear_856_11147" x1="43.7399" y1="63.9848" x2="43.1065" y2="64.1189" gradientUnits="userSpaceOnUse">
<stop stop-color="#001237"/>
<stop offset="0.190429" stop-color="#03045E"/>
<stop offset="0.780728" stop-color="#03045E"/>
<stop offset="1" stop-color="#001237"/>
</linearGradient>
<linearGradient id="paint17_linear_856_11147" x1="43.1344" y1="64.525" x2="42.5957" y2="64.5861" gradientUnits="userSpaceOnUse">
<stop stop-color="#001237"/>
<stop offset="0.190429" stop-color="#03045E"/>
<stop offset="0.780728" stop-color="#03045E"/>
<stop offset="1" stop-color="#001237"/>
</linearGradient>
<linearGradient id="paint18_linear_856_11147" x1="42.5595" y1="65.0178" x2="42.1326" y2="65.0498" gradientUnits="userSpaceOnUse">
<stop stop-color="#001237"/>
<stop offset="0.190429" stop-color="#03045E"/>
<stop offset="0.780728" stop-color="#03045E"/>
<stop offset="1" stop-color="#001237"/>
</linearGradient>
<linearGradient id="paint19_linear_856_11147" x1="46.9642" y1="64.4381" x2="46.404" y2="64.4958" gradientUnits="userSpaceOnUse">
<stop stop-color="#001237"/>
<stop offset="0.190429" stop-color="#03045E"/>
<stop offset="0.780728" stop-color="#03045E"/>
<stop offset="1" stop-color="#001237"/>
</linearGradient>
<linearGradient id="paint20_linear_856_11147" x1="46.1772" y1="64.7203" x2="45.7692" y2="64.7444" gradientUnits="userSpaceOnUse">
<stop stop-color="#001237"/>
<stop offset="0.190429" stop-color="#03045E"/>
<stop offset="0.780728" stop-color="#03045E"/>
<stop offset="1" stop-color="#001237"/>
</linearGradient>
<linearGradient id="paint21_linear_856_11147" x1="45.4449" y1="64.9722" x2="45.1717" y2="64.9823" gradientUnits="userSpaceOnUse">
<stop stop-color="#001237"/>
<stop offset="0.190429" stop-color="#03045E"/>
<stop offset="0.780728" stop-color="#03045E"/>
<stop offset="1" stop-color="#001237"/>
</linearGradient>
<linearGradient id="paint22_linear_856_11147" x1="51.429" y1="40.8067" x2="43.2677" y2="40.9627" gradientUnits="userSpaceOnUse">
<stop stop-color="#001237"/>
<stop offset="0.190429" stop-color="#03045E"/>
<stop offset="0.780728" stop-color="#03045E"/>
<stop offset="1" stop-color="#001237"/>
</linearGradient>
<linearGradient id="paint23_linear_856_11147" x1="45.9421" y1="41.4397" x2="36.8225" y2="41.6433" gradientUnits="userSpaceOnUse">
<stop stop-color="#001237"/>
<stop offset="0.190429" stop-color="#03045E"/>
<stop offset="0.780728" stop-color="#03045E"/>
<stop offset="1" stop-color="#001237"/>
</linearGradient>
<linearGradient id="paint24_linear_856_11147" x1="50.5244" y1="26.6818" x2="48.1784" y2="25.7982" gradientUnits="userSpaceOnUse">
<stop stop-color="#001237"/>
<stop offset="0.190429" stop-color="#03045E"/>
<stop offset="0.780728" stop-color="#03045E"/>
<stop offset="1" stop-color="#001237"/>
</linearGradient>
<linearGradient id="paint25_linear_856_11147" x1="27.2083" y1="12.3552" x2="27.1335" y2="12.3552" gradientUnits="userSpaceOnUse">
<stop stop-color="#001237"/>
<stop offset="0.190429" stop-color="#03045E"/>
<stop offset="0.780728" stop-color="#03045E"/>
<stop offset="1" stop-color="#001237"/>
</linearGradient>
<linearGradient id="paint26_linear_856_11147" x1="27.7056" y1="18.9548" x2="27.3361" y2="18.965" gradientUnits="userSpaceOnUse">
<stop stop-color="#001237"/>
<stop offset="0.190429" stop-color="#03045E"/>
<stop offset="0.780728" stop-color="#03045E"/>
<stop offset="1" stop-color="#001237"/>
</linearGradient>
<linearGradient id="paint27_linear_856_11147" x1="40.9192" y1="11.5432" x2="40.8445" y2="11.5432" gradientUnits="userSpaceOnUse">
<stop stop-color="#001237"/>
<stop offset="0.190429" stop-color="#03045E"/>
<stop offset="0.780728" stop-color="#03045E"/>
<stop offset="1" stop-color="#001237"/>
</linearGradient>
<linearGradient id="paint28_linear_856_11147" x1="40.867" y1="7.47721" x2="40.7828" y2="7.47757" gradientUnits="userSpaceOnUse">
<stop stop-color="#001237"/>
<stop offset="0.190429" stop-color="#03045E"/>
<stop offset="0.780728" stop-color="#03045E"/>
<stop offset="1" stop-color="#001237"/>
</linearGradient>
<linearGradient id="paint29_linear_856_11147" x1="25.0038" y1="11.8707" x2="10.7741" y2="12.7928" gradientUnits="userSpaceOnUse">
<stop stop-color="#001237"/>
<stop offset="0.190429" stop-color="#03045E"/>
<stop offset="0.780728" stop-color="#03045E"/>
<stop offset="1" stop-color="#001237"/>
</linearGradient>
<linearGradient id="paint30_linear_856_11147" x1="11.4554" y1="15.5734" x2="11.3806" y2="15.5735" gradientUnits="userSpaceOnUse">
<stop stop-color="#001237"/>
<stop offset="0.190429" stop-color="#03045E"/>
<stop offset="0.780728" stop-color="#03045E"/>
<stop offset="1" stop-color="#001237"/>
</linearGradient>
<linearGradient id="paint31_linear_856_11147" x1="11.9112" y1="21.657" x2="11.5644" y2="21.6667" gradientUnits="userSpaceOnUse">
<stop stop-color="#001237"/>
<stop offset="0.190429" stop-color="#03045E"/>
<stop offset="0.780728" stop-color="#03045E"/>
<stop offset="1" stop-color="#001237"/>
</linearGradient>
<linearGradient id="paint32_linear_856_11147" x1="24.0921" y1="14.8246" x2="24.0173" y2="14.8247" gradientUnits="userSpaceOnUse">
<stop stop-color="#001237"/>
<stop offset="0.190429" stop-color="#03045E"/>
<stop offset="0.780728" stop-color="#03045E"/>
<stop offset="1" stop-color="#001237"/>
</linearGradient>
<linearGradient id="paint33_linear_856_11147" x1="24.0436" y1="11.0807" x2="23.9596" y2="11.0811" gradientUnits="userSpaceOnUse">
<stop stop-color="#001237"/>
<stop offset="0.190429" stop-color="#03045E"/>
<stop offset="0.780728" stop-color="#03045E"/>
<stop offset="1" stop-color="#001237"/>
</linearGradient>
<linearGradient id="paint34_linear_856_11147" x1="19.9902" y1="18.1058" x2="19.6633" y2="21.8108" gradientUnits="userSpaceOnUse">
<stop stop-color="#001237"/>
<stop offset="0.190429" stop-color="#03045E"/>
<stop offset="0.780728" stop-color="#03045E"/>
<stop offset="1" stop-color="#001237"/>
</linearGradient>
<linearGradient id="paint35_linear_856_11147" x1="19.8765" y1="11.3783" x2="15.5891" y2="11.6884" gradientUnits="userSpaceOnUse">
<stop stop-color="#001237"/>
<stop offset="0.190429" stop-color="#03045E"/>
<stop offset="0.780728" stop-color="#03045E"/>
<stop offset="1" stop-color="#001237"/>
</linearGradient>
<linearGradient id="paint36_linear_856_11147" x1="31.2736" y1="27.7207" x2="18.3837" y2="28.5561" gradientUnits="userSpaceOnUse">
<stop stop-color="#001237"/>
<stop offset="0.190429" stop-color="#03045E"/>
<stop offset="0.780728" stop-color="#03045E"/>
<stop offset="1" stop-color="#001237"/>
</linearGradient>
<linearGradient id="paint37_linear_856_11147" x1="18.9998" y1="31.079" x2="18.9251" y2="31.0791" gradientUnits="userSpaceOnUse">
<stop stop-color="#001237"/>
<stop offset="0.190429" stop-color="#03045E"/>
<stop offset="0.780728" stop-color="#03045E"/>
<stop offset="1" stop-color="#001237"/>
</linearGradient>
<linearGradient id="paint38_linear_856_11147" x1="19.4093" y1="36.5737" x2="19.0928" y2="36.5826" gradientUnits="userSpaceOnUse">
<stop stop-color="#001237"/>
<stop offset="0.190429" stop-color="#03045E"/>
<stop offset="0.780728" stop-color="#03045E"/>
<stop offset="1" stop-color="#001237"/>
</linearGradient>
<linearGradient id="paint39_linear_856_11147" x1="30.4334" y1="30.3962" x2="30.3586" y2="30.3962" gradientUnits="userSpaceOnUse">
<stop stop-color="#001237"/>
<stop offset="0.190429" stop-color="#03045E"/>
<stop offset="0.780728" stop-color="#03045E"/>
<stop offset="1" stop-color="#001237"/>
</linearGradient>
<linearGradient id="paint40_linear_856_11147" x1="30.3874" y1="27.0046" x2="30.3038" y2="27.005" gradientUnits="userSpaceOnUse">
<stop stop-color="#001237"/>
<stop offset="0.190429" stop-color="#03045E"/>
<stop offset="0.780728" stop-color="#03045E"/>
<stop offset="1" stop-color="#001237"/>
</linearGradient>
<linearGradient id="paint41_linear_856_11147" x1="26.6141" y1="27.2731" x2="22.7357" y2="27.5536" gradientUnits="userSpaceOnUse">
<stop stop-color="#001237"/>
<stop offset="0.190429" stop-color="#03045E"/>
<stop offset="0.780728" stop-color="#03045E"/>
<stop offset="1" stop-color="#001237"/>
</linearGradient>
</defs>
</svg>
