<svg width="441" height="495" viewBox="0 0 441 495" fill="none" xmlns="http://www.w3.org/2000/svg">
<mask id="mask0_1187_21477" style="mask-type:luminance" maskUnits="userSpaceOnUse" x="47" y="82" width="382" height="331">
<path d="M333.246 82.4538L380.844 164.892L428.443 247.33L380.835 329.778L333.222 412.225L238.01 412.233L142.797 412.238L95.1985 329.8L47.6003 247.362L95.2135 164.916L142.825 82.4656L238.036 82.4569L333.246 82.4538Z" fill="white"/>
</mask>
<g mask="url(#mask0_1187_21477)">
<path d="M285.646 0.0122845L0 164.921L190.397 494.68L476.043 329.771L285.646 0.0122845Z" fill="url(#paint0_linear_1187_21477)"/>
</g>
<mask id="mask1_1187_21477" style="mask-type:luminance" maskUnits="userSpaceOnUse" x="94" y="123" width="288" height="249">
<path d="M309.818 123.022L166.246 123.03L94.4531 247.356L166.23 371.67L309.799 371.657L381.595 247.335L309.818 123.022Z" fill="white"/>
</mask>
<g mask="url(#mask1_1187_21477)">
<path d="M273.929 60.8629L58.5601 185.199L202.113 433.827L417.482 309.49L273.929 60.8629Z" fill="url(#paint1_linear_1187_21477)" fill-opacity="0.8"/>
</g>
<path d="M149.174 308.154C148.148 308.154 147.224 307.978 146.402 307.626C145.581 307.259 144.936 306.746 144.466 306.086C143.997 305.426 143.762 304.656 143.762 303.776H146.446C146.505 304.436 146.762 304.979 147.216 305.404C147.686 305.829 148.338 306.042 149.174 306.042C150.04 306.042 150.714 305.837 151.198 305.426C151.682 305.001 151.924 304.458 151.924 303.798C151.924 303.285 151.77 302.867 151.462 302.544C151.169 302.221 150.795 301.972 150.34 301.796C149.9 301.62 149.284 301.429 148.492 301.224C147.495 300.96 146.681 300.696 146.05 300.432C145.434 300.153 144.906 299.728 144.466 299.156C144.026 298.584 143.806 297.821 143.806 296.868C143.806 295.988 144.026 295.218 144.466 294.558C144.906 293.898 145.522 293.392 146.314 293.04C147.106 292.688 148.023 292.512 149.064 292.512C150.546 292.512 151.756 292.886 152.694 293.634C153.648 294.367 154.176 295.379 154.278 296.67H151.506C151.462 296.113 151.198 295.636 150.714 295.24C150.23 294.844 149.592 294.646 148.8 294.646C148.082 294.646 147.495 294.829 147.04 295.196C146.586 295.563 146.358 296.091 146.358 296.78C146.358 297.249 146.498 297.638 146.776 297.946C147.07 298.239 147.436 298.474 147.876 298.65C148.316 298.826 148.918 299.017 149.68 299.222C150.692 299.501 151.514 299.779 152.144 300.058C152.79 300.337 153.332 300.769 153.772 301.356C154.227 301.928 154.454 302.698 154.454 303.666C154.454 304.443 154.242 305.177 153.816 305.866C153.406 306.555 152.797 307.113 151.99 307.538C151.198 307.949 150.26 308.154 149.174 308.154ZM172.088 295.68C173.041 295.68 173.892 295.878 174.64 296.274C175.402 296.67 175.996 297.257 176.422 298.034C176.862 298.811 177.082 299.75 177.082 300.85V308H174.596V301.224C174.596 300.139 174.324 299.31 173.782 298.738C173.239 298.151 172.498 297.858 171.56 297.858C170.621 297.858 169.873 298.151 169.316 298.738C168.773 299.31 168.502 300.139 168.502 301.224V308H166.016V301.224C166.016 300.139 165.744 299.31 165.202 298.738C164.659 298.151 163.918 297.858 162.98 297.858C162.041 297.858 161.293 298.151 160.736 298.738C160.193 299.31 159.922 300.139 159.922 301.224V308H157.414V295.878H159.922V297.264C160.332 296.765 160.853 296.377 161.484 296.098C162.114 295.819 162.789 295.68 163.508 295.68C164.476 295.68 165.341 295.885 166.104 296.296C166.866 296.707 167.453 297.301 167.864 298.078C168.23 297.345 168.802 296.765 169.58 296.34C170.357 295.9 171.193 295.68 172.088 295.68ZM179.437 301.884C179.437 300.667 179.686 299.589 180.185 298.65C180.698 297.711 181.388 296.985 182.253 296.472C183.133 295.944 184.101 295.68 185.157 295.68C186.11 295.68 186.939 295.871 187.643 296.252C188.362 296.619 188.934 297.081 189.359 297.638V295.878H191.889V308H189.359V306.196C188.934 306.768 188.354 307.245 187.621 307.626C186.888 308.007 186.052 308.198 185.113 308.198C184.072 308.198 183.118 307.934 182.253 307.406C181.388 306.863 180.698 306.115 180.185 305.162C179.686 304.194 179.437 303.101 179.437 301.884ZM189.359 301.928C189.359 301.092 189.183 300.366 188.831 299.75C188.494 299.134 188.046 298.665 187.489 298.342C186.932 298.019 186.33 297.858 185.685 297.858C185.04 297.858 184.438 298.019 183.881 298.342C183.324 298.65 182.869 299.112 182.517 299.728C182.18 300.329 182.011 301.048 182.011 301.884C182.011 302.72 182.18 303.453 182.517 304.084C182.869 304.715 183.324 305.199 183.881 305.536C184.453 305.859 185.054 306.02 185.685 306.02C186.33 306.02 186.932 305.859 187.489 305.536C188.046 305.213 188.494 304.744 188.831 304.128C189.183 303.497 189.359 302.764 189.359 301.928ZM197.691 297.638C198.058 297.022 198.542 296.545 199.143 296.208C199.759 295.856 200.485 295.68 201.321 295.68V298.276H200.683C199.701 298.276 198.953 298.525 198.439 299.024C197.941 299.523 197.691 300.388 197.691 301.62V308H195.183V295.878H197.691V297.638ZM206.553 297.924V304.634C206.553 305.089 206.655 305.419 206.861 305.624C207.081 305.815 207.447 305.91 207.961 305.91H209.501V308H207.521C206.391 308 205.526 307.736 204.925 307.208C204.323 306.68 204.023 305.822 204.023 304.634V297.924H202.593V295.878H204.023V292.864H206.553V295.878H209.501V297.924H206.553ZM220.035 292.71V308H217.527V292.71H220.035ZM229.444 295.68C230.397 295.68 231.248 295.878 231.996 296.274C232.758 296.67 233.352 297.257 233.778 298.034C234.203 298.811 234.416 299.75 234.416 300.85V308H231.93V301.224C231.93 300.139 231.658 299.31 231.116 298.738C230.573 298.151 229.832 297.858 228.894 297.858C227.955 297.858 227.207 298.151 226.65 298.738C226.107 299.31 225.836 300.139 225.836 301.224V308H223.328V295.878H225.836V297.264C226.246 296.765 226.767 296.377 227.398 296.098C228.043 295.819 228.725 295.68 229.444 295.68ZM240.541 297.924V304.634C240.541 305.089 240.644 305.419 240.849 305.624C241.069 305.815 241.436 305.91 241.949 305.91H243.489V308H241.509C240.38 308 239.514 307.736 238.913 307.208C238.312 306.68 238.011 305.822 238.011 304.634V297.924H236.581V295.878H238.011V292.864H240.541V295.878H243.489V297.924H240.541ZM256.91 301.642C256.91 302.097 256.881 302.507 256.822 302.874H247.56C247.634 303.842 247.993 304.619 248.638 305.206C249.284 305.793 250.076 306.086 251.014 306.086C252.364 306.086 253.317 305.521 253.874 304.392H256.58C256.214 305.507 255.546 306.423 254.578 307.142C253.625 307.846 252.437 308.198 251.014 308.198C249.856 308.198 248.814 307.941 247.89 307.428C246.981 306.9 246.262 306.167 245.734 305.228C245.221 304.275 244.964 303.175 244.964 301.928C244.964 300.681 245.214 299.589 245.712 298.65C246.226 297.697 246.937 296.963 247.846 296.45C248.77 295.937 249.826 295.68 251.014 295.68C252.158 295.68 253.178 295.929 254.072 296.428C254.967 296.927 255.664 297.631 256.162 298.54C256.661 299.435 256.91 300.469 256.91 301.642ZM254.292 300.85C254.278 299.926 253.948 299.185 253.302 298.628C252.657 298.071 251.858 297.792 250.904 297.792C250.039 297.792 249.298 298.071 248.682 298.628C248.066 299.171 247.7 299.911 247.582 300.85H254.292ZM261.887 297.638C262.253 297.022 262.737 296.545 263.339 296.208C263.955 295.856 264.681 295.68 265.517 295.68V298.276H264.879C263.896 298.276 263.148 298.525 262.635 299.024C262.136 299.523 261.887 300.388 261.887 301.62V308H259.379V295.878H261.887V297.638ZM266.986 301.884C266.986 300.667 267.235 299.589 267.734 298.65C268.247 297.711 268.937 296.985 269.802 296.472C270.682 295.944 271.65 295.68 272.706 295.68C273.659 295.68 274.488 295.871 275.192 296.252C275.911 296.619 276.483 297.081 276.908 297.638V295.878H279.438V308H276.908V306.196C276.483 306.768 275.903 307.245 275.17 307.626C274.437 308.007 273.601 308.198 272.662 308.198C271.621 308.198 270.667 307.934 269.802 307.406C268.937 306.863 268.247 306.115 267.734 305.162C267.235 304.194 266.986 303.101 266.986 301.884ZM276.908 301.928C276.908 301.092 276.732 300.366 276.38 299.75C276.043 299.134 275.595 298.665 275.038 298.342C274.481 298.019 273.879 297.858 273.234 297.858C272.589 297.858 271.987 298.019 271.43 298.342C270.873 298.65 270.418 299.112 270.066 299.728C269.729 300.329 269.56 301.048 269.56 301.884C269.56 302.72 269.729 303.453 270.066 304.084C270.418 304.715 270.873 305.199 271.43 305.536C272.002 305.859 272.603 306.02 273.234 306.02C273.879 306.02 274.481 305.859 275.038 305.536C275.595 305.213 276.043 304.744 276.38 304.128C276.732 303.497 276.908 302.764 276.908 301.928ZM281.896 301.928C281.896 300.681 282.145 299.589 282.644 298.65C283.157 297.697 283.861 296.963 284.756 296.45C285.651 295.937 286.677 295.68 287.836 295.68C289.303 295.68 290.513 296.032 291.466 296.736C292.434 297.425 293.087 298.415 293.424 299.706H290.718C290.498 299.105 290.146 298.635 289.662 298.298C289.178 297.961 288.569 297.792 287.836 297.792C286.809 297.792 285.988 298.159 285.372 298.892C284.771 299.611 284.47 300.623 284.47 301.928C284.47 303.233 284.771 304.253 285.372 304.986C285.988 305.719 286.809 306.086 287.836 306.086C289.288 306.086 290.249 305.448 290.718 304.172H293.424C293.072 305.404 292.412 306.387 291.444 307.12C290.476 307.839 289.273 308.198 287.836 308.198C286.677 308.198 285.651 307.941 284.756 307.428C283.861 306.9 283.157 306.167 282.644 305.228C282.145 304.275 281.896 303.175 281.896 301.928ZM298.849 297.924V304.634C298.849 305.089 298.952 305.419 299.157 305.624C299.377 305.815 299.744 305.91 300.257 305.91H301.797V308H299.817C298.688 308 297.823 307.736 297.221 307.208C296.62 306.68 296.319 305.822 296.319 304.634V297.924H294.889V295.878H296.319V292.864H298.849V295.878H301.797V297.924H298.849ZM305.385 294.272C304.93 294.272 304.549 294.118 304.241 293.81C303.933 293.502 303.779 293.121 303.779 292.666C303.779 292.211 303.933 291.83 304.241 291.522C304.549 291.214 304.93 291.06 305.385 291.06C305.825 291.06 306.199 291.214 306.507 291.522C306.815 291.83 306.969 292.211 306.969 292.666C306.969 293.121 306.815 293.502 306.507 293.81C306.199 294.118 305.825 294.272 305.385 294.272ZM306.617 295.878V308H304.109V295.878H306.617ZM314.596 305.756L318.028 295.878H320.69L316.07 308H313.078L308.48 295.878H311.164L314.596 305.756ZM333.696 301.642C333.696 302.097 333.666 302.507 333.608 302.874H324.346C324.419 303.842 324.778 304.619 325.424 305.206C326.069 305.793 326.861 306.086 327.8 306.086C329.149 306.086 330.102 305.521 330.66 304.392H333.366C332.999 305.507 332.332 306.423 331.364 307.142C330.41 307.846 329.222 308.198 327.8 308.198C326.641 308.198 325.6 307.941 324.676 307.428C323.766 306.9 323.048 306.167 322.52 305.228C322.006 304.275 321.75 303.175 321.75 301.928C321.75 300.681 321.999 299.589 322.498 298.65C323.011 297.697 323.722 296.963 324.632 296.45C325.556 295.937 326.612 295.68 327.8 295.68C328.944 295.68 329.963 295.929 330.858 296.428C331.752 296.927 332.449 297.631 332.948 298.54C333.446 299.435 333.696 300.469 333.696 301.642ZM331.078 300.85C331.063 299.926 330.733 299.185 330.088 298.628C329.442 298.071 328.643 297.792 327.69 297.792C326.824 297.792 326.084 298.071 325.468 298.628C324.852 299.171 324.485 299.911 324.368 300.85H331.078ZM182.717 327.734V332.222H187.997V334.268H182.717V338.954H188.657V341H180.209V325.688H188.657V327.734H182.717ZM196.938 334.862L200.854 341H198.016L195.398 336.886L192.934 341H190.316L194.232 335.038L190.316 328.878H193.154L195.772 332.992L198.236 328.878H200.854L196.938 334.862ZM205.232 330.66C205.658 330.103 206.237 329.633 206.97 329.252C207.704 328.871 208.532 328.68 209.456 328.68C210.512 328.68 211.473 328.944 212.338 329.472C213.218 329.985 213.908 330.711 214.406 331.65C214.905 332.589 215.154 333.667 215.154 334.884C215.154 336.101 214.905 337.194 214.406 338.162C213.908 339.115 213.218 339.863 212.338 340.406C211.473 340.934 210.512 341.198 209.456 341.198C208.532 341.198 207.711 341.015 206.992 340.648C206.274 340.267 205.687 339.797 205.232 339.24V346.764H202.724V328.878H205.232V330.66ZM212.602 334.884C212.602 334.048 212.426 333.329 212.074 332.728C211.737 332.112 211.282 331.65 210.71 331.342C210.153 331.019 209.552 330.858 208.906 330.858C208.276 330.858 207.674 331.019 207.102 331.342C206.545 331.665 206.09 332.134 205.738 332.75C205.401 333.366 205.232 334.092 205.232 334.928C205.232 335.764 205.401 336.497 205.738 337.128C206.09 337.744 206.545 338.213 207.102 338.536C207.674 338.859 208.276 339.02 208.906 339.02C209.552 339.02 210.153 338.859 210.71 338.536C211.282 338.199 211.737 337.715 212.074 337.084C212.426 336.453 212.602 335.72 212.602 334.884ZM228.744 334.642C228.744 335.097 228.715 335.507 228.656 335.874H219.394C219.468 336.842 219.827 337.619 220.472 338.206C221.118 338.793 221.91 339.086 222.848 339.086C224.198 339.086 225.151 338.521 225.708 337.392H228.414C228.048 338.507 227.38 339.423 226.412 340.142C225.459 340.846 224.271 341.198 222.848 341.198C221.69 341.198 220.648 340.941 219.724 340.428C218.815 339.9 218.096 339.167 217.568 338.228C217.055 337.275 216.798 336.175 216.798 334.928C216.798 333.681 217.048 332.589 217.546 331.65C218.06 330.697 218.771 329.963 219.68 329.45C220.604 328.937 221.66 328.68 222.848 328.68C223.992 328.68 225.012 328.929 225.906 329.428C226.801 329.927 227.498 330.631 227.996 331.54C228.495 332.435 228.744 333.469 228.744 334.642ZM226.126 333.85C226.112 332.926 225.782 332.185 225.136 331.628C224.491 331.071 223.692 330.792 222.738 330.792C221.873 330.792 221.132 331.071 220.516 331.628C219.9 332.171 219.534 332.911 219.416 333.85H226.126ZM233.721 330.638C234.087 330.022 234.571 329.545 235.173 329.208C235.789 328.856 236.515 328.68 237.351 328.68V331.276H236.713C235.73 331.276 234.982 331.525 234.469 332.024C233.97 332.523 233.721 333.388 233.721 334.62V341H231.213V328.878H233.721V330.638ZM240.932 327.272C240.477 327.272 240.096 327.118 239.788 326.81C239.48 326.502 239.326 326.121 239.326 325.666C239.326 325.211 239.48 324.83 239.788 324.522C240.096 324.214 240.477 324.06 240.932 324.06C241.372 324.06 241.746 324.214 242.054 324.522C242.362 324.83 242.516 325.211 242.516 325.666C242.516 326.121 242.362 326.502 242.054 326.81C241.746 327.118 241.372 327.272 240.932 327.272ZM242.164 328.878V341H239.656V328.878H242.164ZM256.567 334.642C256.567 335.097 256.537 335.507 256.479 335.874H247.217C247.29 336.842 247.649 337.619 248.295 338.206C248.94 338.793 249.732 339.086 250.671 339.086C252.02 339.086 252.973 338.521 253.531 337.392H256.237C255.87 338.507 255.203 339.423 254.235 340.142C253.281 340.846 252.093 341.198 250.671 341.198C249.512 341.198 248.471 340.941 247.547 340.428C246.637 339.9 245.919 339.167 245.391 338.228C244.877 337.275 244.621 336.175 244.621 334.928C244.621 333.681 244.87 332.589 245.369 331.65C245.882 330.697 246.593 329.963 247.503 329.45C248.427 328.937 249.483 328.68 250.671 328.68C251.815 328.68 252.834 328.929 253.729 329.428C254.623 329.927 255.32 330.631 255.819 331.54C256.317 332.435 256.567 333.469 256.567 334.642ZM253.949 333.85C253.934 332.926 253.604 332.185 252.959 331.628C252.313 331.071 251.514 330.792 250.561 330.792C249.695 330.792 248.955 331.071 248.339 331.628C247.723 332.171 247.356 332.911 247.239 333.85H253.949ZM265.151 328.68C266.104 328.68 266.955 328.878 267.703 329.274C268.465 329.67 269.059 330.257 269.485 331.034C269.91 331.811 270.123 332.75 270.123 333.85V341H267.637V334.224C267.637 333.139 267.365 332.31 266.823 331.738C266.28 331.151 265.539 330.858 264.601 330.858C263.662 330.858 262.914 331.151 262.357 331.738C261.814 332.31 261.543 333.139 261.543 334.224V341H259.035V328.878H261.543V330.264C261.953 329.765 262.474 329.377 263.105 329.098C263.75 328.819 264.432 328.68 265.151 328.68ZM272.486 334.928C272.486 333.681 272.735 332.589 273.234 331.65C273.747 330.697 274.451 329.963 275.346 329.45C276.241 328.937 277.267 328.68 278.426 328.68C279.893 328.68 281.103 329.032 282.056 329.736C283.024 330.425 283.677 331.415 284.014 332.706H281.308C281.088 332.105 280.736 331.635 280.252 331.298C279.768 330.961 279.159 330.792 278.426 330.792C277.399 330.792 276.578 331.159 275.962 331.892C275.361 332.611 275.06 333.623 275.06 334.928C275.06 336.233 275.361 337.253 275.962 337.986C276.578 338.719 277.399 339.086 278.426 339.086C279.878 339.086 280.839 338.448 281.308 337.172H284.014C283.662 338.404 283.002 339.387 282.034 340.12C281.066 340.839 279.863 341.198 278.426 341.198C277.267 341.198 276.241 340.941 275.346 340.428C274.451 339.9 273.747 339.167 273.234 338.228C272.735 337.275 272.486 336.175 272.486 334.928ZM297.623 334.642C297.623 335.097 297.594 335.507 297.535 335.874H288.273C288.347 336.842 288.706 337.619 289.351 338.206C289.997 338.793 290.789 339.086 291.727 339.086C293.077 339.086 294.03 338.521 294.587 337.392H297.293C296.927 338.507 296.259 339.423 295.291 340.142C294.338 340.846 293.15 341.198 291.727 341.198C290.569 341.198 289.527 340.941 288.603 340.428C287.694 339.9 286.975 339.167 286.447 338.228C285.934 337.275 285.677 336.175 285.677 334.928C285.677 333.681 285.927 332.589 286.425 331.65C286.939 330.697 287.65 329.963 288.559 329.45C289.483 328.937 290.539 328.68 291.727 328.68C292.871 328.68 293.891 328.929 294.785 329.428C295.68 329.927 296.377 330.631 296.875 331.54C297.374 332.435 297.623 333.469 297.623 334.642ZM295.005 333.85C294.991 332.926 294.661 332.185 294.015 331.628C293.37 331.071 292.571 330.792 291.617 330.792C290.752 330.792 290.011 331.071 289.395 331.628C288.779 332.171 288.413 332.911 288.295 333.85H295.005Z" fill="#001237"/>
<path d="M254.751 174.949C254.467 174.774 254.235 174.526 254.078 174.231C253.921 173.936 253.846 173.605 253.86 173.272C253.874 172.938 253.976 172.614 254.157 172.333C254.337 172.052 254.589 171.825 254.887 171.673L257.153 171.25C257.092 174.076 257.051 176.902 257.029 179.73C256.445 179.654 255.893 179.419 255.434 179.049C255.003 178.654 254.771 177.991 255.023 177.462C254.798 177.35 254.605 177.183 254.462 176.976C254.319 176.769 254.23 176.529 254.205 176.279C254.18 176.029 254.219 175.776 254.318 175.545C254.417 175.314 254.573 175.111 254.771 174.957L254.751 174.949Z" fill="#263238"/>
<path d="M265.546 174.736L265.597 173.728L259.609 172.395C257.76 172.143 255.693 173.94 255.517 175.799C255.323 177.866 255.166 180.398 255.363 181.951C255.761 185.07 258.135 185.542 258.135 185.542L257.943 188.609C257.868 190.4 259.365 190.841 261.156 190.919C261.999 190.956 262.823 190.664 263.455 190.105C264.086 189.545 264.474 188.762 264.538 187.921L265.546 174.736Z" fill="#D6D6D6"/>
<path d="M256.346 178.356C256.341 178.459 256.377 178.561 256.447 178.638C256.516 178.715 256.613 178.762 256.717 178.769C256.767 178.775 256.818 178.771 256.867 178.756C256.916 178.742 256.962 178.718 257.001 178.686C257.041 178.654 257.073 178.614 257.097 178.569C257.121 178.524 257.136 178.474 257.14 178.424C257.143 178.32 257.107 178.219 257.037 178.142C256.967 178.065 256.871 178.018 256.767 178.01C256.717 178.004 256.665 178.009 256.617 178.023C256.568 178.037 256.522 178.061 256.483 178.094C256.444 178.126 256.412 178.166 256.388 178.211C256.364 178.256 256.35 178.305 256.346 178.356Z" fill="#263238"/>
<path d="M256.144 177.146C256.192 177.199 256.499 176.985 256.928 177C257.356 177.015 257.663 177.252 257.714 177.186C257.764 177.121 257.689 177.07 257.555 176.965C257.374 176.831 257.156 176.756 256.93 176.75C256.707 176.744 256.488 176.807 256.303 176.932C256.156 177.03 256.109 177.121 256.144 177.146Z" fill="#263238"/>
<path d="M260.38 178.419C260.375 178.523 260.412 178.625 260.481 178.703C260.55 178.78 260.647 178.828 260.751 178.835C260.803 178.842 260.856 178.838 260.907 178.824C260.958 178.809 261.005 178.784 261.046 178.751C261.086 178.717 261.12 178.676 261.143 178.629C261.167 178.581 261.181 178.53 261.184 178.477C261.188 178.373 261.151 178.272 261.081 178.195C261.012 178.118 260.915 178.071 260.811 178.064C260.759 178.057 260.706 178.061 260.656 178.075C260.606 178.089 260.559 178.114 260.518 178.147C260.478 178.181 260.445 178.222 260.421 178.269C260.397 178.316 260.383 178.367 260.38 178.419Z" fill="#263238"/>
<path d="M260.345 177.357C260.393 177.41 260.703 177.196 261.131 177.211C261.56 177.226 261.867 177.448 261.915 177.398C261.963 177.347 261.892 177.279 261.756 177.176C261.575 177.042 261.357 176.967 261.131 176.962C260.908 176.953 260.688 177.017 260.504 177.143C260.37 177.239 260.322 177.332 260.345 177.357Z" fill="#263238"/>
<path d="M258.689 180.492C258.466 180.414 258.234 180.365 257.999 180.346C257.888 180.331 257.784 180.305 257.769 180.23C257.763 180.116 257.792 180.004 257.852 179.907C257.963 179.655 258.079 179.371 258.203 179.083C258.689 177.911 259.044 176.946 258.996 176.926C258.949 176.906 258.518 177.843 258.031 179.015L257.694 179.844C257.621 179.974 257.596 180.126 257.623 180.273C257.638 180.312 257.662 180.347 257.692 180.376C257.723 180.405 257.759 180.426 257.799 180.439C257.859 180.456 257.921 180.467 257.983 180.469C258.217 180.508 258.454 180.515 258.689 180.492Z" fill="#263238"/>
<path d="M258.13 185.556C259.631 185.628 261.123 185.287 262.444 184.57C262.444 184.57 261.298 186.76 258.09 186.377L258.13 185.556Z" fill="#815144"/>
<path d="M258.84 181.527C258.925 181.428 259.034 181.352 259.157 181.308C259.28 181.264 259.412 181.252 259.541 181.275C259.635 181.286 259.726 181.316 259.809 181.364C259.891 181.411 259.963 181.475 260.02 181.552C260.073 181.624 260.104 181.711 260.107 181.801C260.11 181.891 260.086 181.98 260.037 182.056C259.966 182.131 259.874 182.183 259.773 182.205C259.672 182.227 259.566 182.218 259.47 182.179C259.27 182.102 259.088 181.985 258.933 181.836C258.886 181.801 258.845 181.756 258.815 181.705C258.799 181.682 258.791 181.654 258.791 181.626C258.791 181.598 258.799 181.57 258.815 181.547" fill="#815144"/>
<path d="M259.942 180.822C259.873 180.822 259.858 181.283 259.45 181.601C259.042 181.918 258.548 181.853 258.54 181.916C258.533 181.979 258.649 182.009 258.858 182.022C259.13 182.035 259.398 181.951 259.614 181.785C259.822 181.626 259.961 181.392 259.999 181.132C260.022 180.938 259.974 180.822 259.942 180.822Z" fill="#263238"/>
<path d="M260.287 176.143C260.325 176.261 260.756 176.219 261.255 176.294C261.754 176.37 262.159 176.521 262.23 176.418C262.26 176.37 262.195 176.256 262.033 176.141C261.82 175.992 261.575 175.897 261.318 175.863C261.064 175.826 260.805 175.848 260.562 175.929C260.365 175.999 260.269 176.088 260.287 176.143Z" fill="#263238"/>
<path d="M256.192 175.677C256.265 175.775 256.563 175.677 256.918 175.677C257.273 175.677 257.573 175.762 257.644 175.677C257.676 175.626 257.631 175.528 257.503 175.425C257.33 175.308 257.126 175.246 256.918 175.246C256.71 175.246 256.506 175.308 256.333 175.425C256.205 175.528 256.159 175.626 256.192 175.677Z" fill="#263238"/>
<path d="M254.514 172.99C254.214 172.759 253.989 172.445 253.866 172.086C253.743 171.728 253.729 171.341 253.824 170.974C253.93 170.611 254.128 170.281 254.398 170.016C254.669 169.752 255.003 169.561 255.368 169.462C255.517 169.424 255.669 169.4 255.822 169.392C256.12 169.227 256.454 169.14 256.795 169.14C256.84 168.943 256.942 168.763 257.088 168.623C257.234 168.483 257.418 168.389 257.616 168.351C258.014 168.281 258.424 168.309 258.808 168.434C259.016 168.193 259.277 168.004 259.572 167.882C259.866 167.761 260.185 167.71 260.502 167.735C260.82 167.759 261.127 167.858 261.399 168.023C261.672 168.189 261.901 168.416 262.069 168.686C262.295 168.561 262.547 168.49 262.805 168.479C263.063 168.469 263.32 168.519 263.556 168.625C263.791 168.732 263.998 168.892 264.161 169.093C264.323 169.294 264.436 169.53 264.491 169.782C264.802 169.8 265.101 169.906 265.353 170.088C265.606 170.27 265.8 170.521 265.915 170.811C266.051 170.996 266.144 171.21 266.189 171.436C266.568 171.488 266.922 171.656 267.202 171.916C267.482 172.176 267.676 172.516 267.756 172.89C267.837 173.263 267.801 173.653 267.652 174.005C267.504 174.358 267.251 174.656 266.928 174.86C267.111 175.052 267.247 175.284 267.324 175.538C267.402 175.791 267.42 176.06 267.376 176.321C267.333 176.583 267.228 176.831 267.072 177.045C266.916 177.26 266.712 177.435 266.477 177.557C266.557 177.841 266.579 178.138 266.54 178.431C266.502 178.724 266.405 179.006 266.255 179.26C266.137 179.493 265.937 179.673 265.693 179.764C265.681 179.805 265.664 179.844 265.642 179.88C265.448 180.165 264.995 180.024 264.73 179.802C264.09 179.26 263.763 178.429 263.601 177.605C263.44 176.781 263.422 175.936 263.269 175.112C263.269 175.095 263.269 175.074 263.269 175.054C263.203 174.712 263.06 174.389 262.85 174.109C262.61 174.28 262.357 174.432 262.094 174.565C261.609 174.774 261.07 174.823 260.556 174.704C260.042 174.585 259.578 174.305 259.234 173.905C258.569 174.425 257.744 174.697 256.901 174.676C256.064 174.651 255.242 174.47 254.617 173.92C254.453 173.78 254.333 173.595 254.27 173.389C254.255 173.304 254.272 173.217 254.317 173.143C254.362 173.07 254.432 173.016 254.514 172.99Z" fill="#263238"/>
<path d="M264.919 178.827C264.959 178.807 266.605 178.24 266.632 179.946C266.66 181.652 264.939 181.327 264.936 181.276C264.934 181.226 264.919 178.827 264.919 178.827Z" fill="#D6D6D6"/>
<path d="M265.448 180.624C265.448 180.624 265.478 180.645 265.528 180.667C265.599 180.696 265.679 180.696 265.75 180.667C265.859 180.595 265.947 180.496 266.005 180.379C266.063 180.262 266.089 180.132 266.08 180.002C266.083 179.856 266.052 179.711 265.989 179.579C265.973 179.526 265.943 179.478 265.904 179.438C265.864 179.399 265.816 179.371 265.763 179.354C265.728 179.346 265.692 179.349 265.661 179.365C265.629 179.38 265.603 179.406 265.589 179.437C265.566 179.485 265.589 179.521 265.568 179.523C265.548 179.526 265.533 179.495 265.546 179.425C265.553 179.382 265.577 179.343 265.611 179.317C265.634 179.299 265.66 179.285 265.687 179.278C265.715 179.27 265.744 179.268 265.773 179.271C265.842 179.283 265.908 179.312 265.963 179.356C266.018 179.4 266.061 179.458 266.088 179.523C266.163 179.67 266.201 179.832 266.198 179.997C266.212 180.151 266.179 180.305 266.104 180.439C266.029 180.574 265.915 180.683 265.778 180.753C265.732 180.767 265.683 180.77 265.636 180.763C265.588 180.756 265.543 180.739 265.503 180.713C265.45 180.665 265.44 180.627 265.448 180.624Z" fill="#815144"/>
<path d="M253.92 170.697C253.92 170.697 253.92 170.71 253.904 170.735C253.89 170.775 253.879 170.817 253.872 170.859C253.834 171.064 253.847 171.276 253.908 171.476C253.969 171.675 254.076 171.858 254.222 172.008C254.465 172.251 254.793 172.392 255.137 172.401L255.106 172.373C255.186 172.926 255.423 173.445 255.789 173.867C255.991 174.108 256.24 174.304 256.52 174.445C256.826 174.585 257.164 174.64 257.498 174.603C257.824 174.576 258.144 174.501 258.448 174.382C258.738 174.276 259.007 174.119 259.242 173.918H259.191C259.581 174.312 260.071 174.594 260.608 174.734C261.035 174.82 261.478 174.79 261.89 174.646C262.159 174.555 262.41 174.418 262.634 174.243C262.712 174.18 262.767 174.13 262.805 174.094C262.824 174.077 262.842 174.057 262.858 174.036C262.858 174.036 262.777 174.107 262.619 174.223C262.393 174.388 262.143 174.516 261.878 174.603C261.471 174.737 261.037 174.761 260.618 174.674C260.095 174.531 259.619 174.252 259.239 173.865L259.217 173.842L259.189 173.865C258.959 174.058 258.696 174.209 258.413 174.308C258.116 174.427 257.804 174.501 257.485 174.528C257.164 174.561 256.839 174.508 256.545 174.374C256.27 174.241 256.026 174.052 255.827 173.82C255.469 173.408 255.234 172.904 255.149 172.366V172.34H255.137C254.811 172.331 254.501 172.201 254.267 171.975C254.09 171.801 253.968 171.578 253.917 171.335C253.885 171.18 253.879 171.021 253.899 170.864C253.907 170.753 253.925 170.697 253.92 170.697Z" fill="#455A64"/>
<path d="M265.95 171.334C266.014 171.526 266.062 171.722 266.096 171.921C266.167 172.443 266.067 172.973 265.811 173.433L265.796 173.458L265.819 173.476C266.027 173.664 266.182 173.904 266.267 174.172C266.359 174.467 266.359 174.783 266.267 175.079C266.146 175.462 265.884 175.784 265.534 175.981L265.504 175.996L265.519 176.029C265.682 176.359 265.748 176.728 265.71 177.095C265.683 177.384 265.597 177.664 265.458 177.919C265.329 178.144 265.165 178.348 264.972 178.521C264.972 178.521 264.987 178.521 265.015 178.491C265.057 178.462 265.098 178.43 265.136 178.395C265.279 178.264 265.402 178.111 265.498 177.941C265.649 177.685 265.743 177.398 265.773 177.102C265.816 176.723 265.751 176.339 265.584 175.996L265.569 176.046C265.938 175.842 266.214 175.504 266.34 175.101C266.44 174.792 266.44 174.459 266.34 174.149C266.248 173.873 266.083 173.627 265.864 173.436V173.481C266.119 173.005 266.208 172.456 266.116 171.924C266.091 171.775 266.051 171.629 265.997 171.488C265.98 171.44 265.96 171.405 265.95 171.379C265.939 171.354 265.952 171.334 265.95 171.334Z" fill="#455A64"/>
<path d="M265.844 181.221C265.866 181.321 265.877 181.423 265.877 181.526C265.87 181.633 265.827 181.735 265.753 181.813C265.708 181.858 265.652 181.891 265.591 181.908C265.53 181.925 265.465 181.926 265.403 181.912C265.343 181.892 265.291 181.855 265.253 181.805C265.215 181.755 265.192 181.695 265.189 181.632C265.181 181.523 265.202 181.413 265.249 181.314C265.303 181.224 265.352 181.132 265.396 181.037C265.315 181.108 265.25 181.193 265.202 181.289C265.14 181.393 265.111 181.514 265.118 181.634C265.124 181.709 265.148 181.781 265.189 181.844C265.234 181.912 265.302 181.962 265.381 181.985C265.456 182.003 265.534 182.001 265.609 181.98C265.683 181.958 265.75 181.917 265.804 181.861C265.886 181.769 265.932 181.65 265.932 181.526C265.939 181.417 265.908 181.309 265.844 181.221Z" fill="#263238"/>
<path d="M236.692 192.248C236.692 192.248 242.045 191.978 242.652 191.9C243.751 191.762 245.437 192.016 247.722 191.381C250.701 190.55 253.254 189.922 253.345 189.897C253.508 189.849 255.293 188.33 257.518 188.513L258.752 193.541L255.907 195.741C255.907 195.741 247.937 196.517 247.536 196.467C247.135 196.416 238.109 195.935 238.109 195.935L237.244 193.196L236.692 192.248Z" fill="#D6D6D6"/>
<path d="M247.133 195.841C247.095 195.841 247.156 195.085 247.204 194.132C247.251 193.18 247.269 192.424 247.307 192.424C247.377 192.992 247.386 193.567 247.335 194.137C247.327 194.711 247.26 195.282 247.133 195.841Z" fill="#815144"/>
<path d="M252.54 195.537C252.49 195.537 252.679 194.494 253.012 193.249C253.175 192.626 253.337 192.065 253.46 191.661C253.514 191.438 253.59 191.221 253.687 191.014C253.662 191.241 253.615 191.465 253.548 191.684L253.14 193.282C252.981 193.884 252.84 194.426 252.722 194.877C252.674 195.1 252.614 195.321 252.54 195.537Z" fill="#815144"/>
<path d="M237.811 192.141C237.811 192.141 237.345 192.408 237.375 192.604C237.406 192.801 238.759 194.62 238.986 194.681C239.41 194.7 239.836 194.653 240.246 194.54L240.548 194.215L238.857 192.141H237.811Z" fill="#263238"/>
<path d="M237.909 192.286C237.909 192.286 239.315 194.319 239.371 194.302L240.379 194.193L238.839 192.283L237.909 192.286Z" fill="#E0E0E0"/>
<path d="M239.331 194.584C239.315 194.854 239.228 195.115 239.079 195.34C238.824 195.626 238.53 195.874 238.204 196.076H239.416C239.602 195.887 239.771 195.681 239.92 195.461C240.09 195.166 240.189 194.836 240.21 194.496L239.331 194.584Z" fill="#263238"/>
<path d="M238.048 192.238C238.048 192.238 238.048 192.207 237.731 192.139C237.413 192.071 236.806 191.923 236.423 192.591L236.763 192.742H237.355L237.698 192.316L238.048 192.238Z" fill="#263238"/>
<path d="M236.148 192.172C236.061 192.083 235.957 192.013 235.841 191.967C235.726 191.921 235.602 191.9 235.477 191.905C235.153 191.976 234.862 192.153 234.651 192.409C234.54 192.543 233.514 194.06 233.514 194.06C233.514 194.06 233.156 195.458 233.378 195.741C233.378 195.741 232.977 196.371 233.156 196.844C233.156 196.844 232.776 197.542 232.889 197.676C233.007 197.758 233.147 197.802 233.29 197.802C233.433 197.802 233.573 197.758 233.691 197.676C233.812 197.753 233.952 197.796 234.096 197.8C234.239 197.804 234.382 197.769 234.507 197.699C234.705 197.574 234.918 197.477 235.142 197.409C235.142 197.409 235.744 198.011 236.15 198.011C236.368 198.011 236.583 197.955 236.774 197.85C236.965 197.745 237.127 197.593 237.244 197.409C237.421 197.082 237.614 196.764 237.823 196.456C238.048 196.159 238.627 195.872 238.761 195.557C238.894 195.242 238.962 194.44 238.36 194.082C238.393 193.792 238.32 193.5 238.156 193.258C237.992 193.016 237.747 192.841 237.466 192.764L237.214 192.744C237.214 192.744 237.151 192.172 236.148 192.172Z" fill="#D6D6D6"/>
<path d="M236.148 192.173H236.236C236.32 192.172 236.405 192.177 236.488 192.188C236.628 192.208 236.763 192.249 236.889 192.312C236.978 192.355 237.056 192.417 237.118 192.494C237.18 192.57 237.225 192.66 237.249 192.755L237.219 192.728L237.471 192.748C237.737 192.819 237.973 192.972 238.146 193.186C238.341 193.451 238.43 193.779 238.398 194.106L238.373 194.056C238.579 194.177 238.735 194.367 238.814 194.592C238.898 194.83 238.918 195.085 238.875 195.333C238.859 195.468 238.811 195.598 238.736 195.711C238.653 195.819 238.557 195.916 238.449 195.998C238.232 196.151 238.031 196.327 237.852 196.523C237.691 196.755 237.545 196.996 237.413 197.246C237.34 197.378 237.256 197.504 237.161 197.621C237.059 197.74 236.936 197.84 236.798 197.916C236.659 197.995 236.507 198.048 236.35 198.072C236.267 198.088 236.182 198.094 236.098 198.09C236.011 198.084 235.926 198.063 235.846 198.03C235.554 197.891 235.29 197.701 235.064 197.47L235.125 197.488H235.102C234.863 197.577 234.631 197.685 234.409 197.81C234.282 197.863 234.144 197.883 234.007 197.87C233.87 197.858 233.738 197.812 233.623 197.737H233.706C233.641 197.792 233.566 197.832 233.485 197.857C233.404 197.882 233.319 197.89 233.235 197.881C233.156 197.878 233.077 197.866 233.001 197.843C232.925 197.813 232.839 197.803 232.781 197.682C232.767 197.597 232.775 197.51 232.807 197.43C232.829 197.357 232.854 197.289 232.882 197.221C232.94 197.085 233.003 196.956 233.069 196.83V196.873C233.007 196.671 233.007 196.455 233.069 196.253C233.121 196.064 233.2 195.883 233.303 195.716V195.784C233.23 195.635 233.202 195.468 233.222 195.303C233.228 195.156 233.243 195.01 233.268 194.864C233.309 194.591 233.365 194.321 233.434 194.053C233.762 193.582 234.061 193.156 234.326 192.778C234.438 192.596 234.57 192.427 234.719 192.274C234.852 192.146 235.005 192.042 235.173 191.966C235.309 191.905 235.46 191.882 235.609 191.901C235.716 191.919 235.818 191.958 235.909 192.017C235.966 192.051 236.018 192.091 236.065 192.138C236.082 192.153 236.097 192.17 236.11 192.188C236.041 192.136 235.968 192.087 235.894 192.042C235.788 191.981 235.669 191.947 235.547 191.943C235.426 191.939 235.305 191.965 235.195 192.019C235.037 192.097 234.892 192.2 234.767 192.324C234.625 192.48 234.499 192.649 234.389 192.828L233.555 194.101V194.083C233.494 194.335 233.439 194.605 233.399 194.885C233.378 195.027 233.364 195.17 233.358 195.313C233.344 195.45 233.365 195.589 233.419 195.716L233.442 195.752L233.421 195.784C233.326 195.941 233.254 196.111 233.207 196.288C233.152 196.465 233.152 196.655 233.207 196.833V196.86L233.195 196.886C233.128 197.008 233.067 197.134 233.013 197.264C232.986 197.328 232.963 197.393 232.943 197.46C232.921 197.517 232.912 197.578 232.917 197.639C232.953 197.679 233.001 197.706 233.053 197.717C233.119 197.735 233.187 197.745 233.255 197.747C233.321 197.755 233.388 197.75 233.452 197.732C233.516 197.714 233.576 197.683 233.628 197.642L233.666 197.604L233.711 197.634C233.809 197.695 233.92 197.732 234.036 197.742C234.151 197.752 234.267 197.735 234.374 197.692C234.6 197.564 234.836 197.455 235.08 197.364H235.112H235.145L235.173 197.39C235.385 197.609 235.635 197.789 235.911 197.921C235.975 197.95 236.043 197.967 236.113 197.972C236.184 197.974 236.256 197.969 236.327 197.957C236.47 197.934 236.607 197.887 236.733 197.815C236.856 197.752 236.967 197.666 237.06 197.563C237.149 197.452 237.227 197.333 237.295 197.208C237.429 196.955 237.579 196.71 237.743 196.475C237.929 196.271 238.138 196.089 238.366 195.933C238.464 195.859 238.553 195.775 238.633 195.681C238.698 195.582 238.74 195.469 238.754 195.351C238.808 195.134 238.796 194.905 238.717 194.695C238.639 194.486 238.499 194.305 238.315 194.177L238.288 194.161V194.126C238.318 193.824 238.238 193.521 238.061 193.274C237.901 193.071 237.682 192.922 237.433 192.851L237.181 192.826H237.156V192.798C237.134 192.712 237.094 192.631 237.039 192.561C236.984 192.491 236.915 192.434 236.836 192.392C236.717 192.327 236.589 192.281 236.455 192.256C236.266 192.181 236.143 192.183 236.148 192.173Z" fill="#815144"/>
<path d="M237.33 196.066C236.997 196.348 236.636 196.595 236.254 196.805C235.893 197.051 235.509 197.261 235.107 197.432C235.44 197.149 235.802 196.902 236.186 196.694C236.545 196.447 236.929 196.237 237.33 196.066Z" fill="#815144"/>
<path d="M237.244 194.604C237.065 194.759 236.874 194.899 236.672 195.022C236.311 195.274 235.812 195.614 235.271 196.005C234.729 196.395 234.243 196.761 233.897 197.013C233.828 197.057 233.77 197.116 233.726 197.186C233.683 197.256 233.655 197.334 233.645 197.416C233.649 197.477 233.661 197.537 233.683 197.595C233.683 197.595 233.61 197.552 233.595 197.418C233.593 197.326 233.613 197.234 233.654 197.152C233.695 197.069 233.755 196.997 233.829 196.942C234.167 196.655 234.643 196.282 235.188 195.889C235.732 195.496 236.238 195.165 236.614 194.936C236.812 194.804 237.023 194.692 237.244 194.604Z" fill="#815144"/>
<path d="M236.458 193.541C236.302 193.705 236.133 193.856 235.954 193.995C235.634 194.267 235.198 194.65 234.745 195.096C234.291 195.542 233.893 195.965 233.613 196.278C233.471 196.458 233.314 196.626 233.145 196.782C233.256 196.583 233.39 196.397 233.543 196.227C233.888 195.801 234.258 195.395 234.651 195.013C235.044 194.629 235.459 194.269 235.894 193.934C236.066 193.782 236.256 193.65 236.458 193.541Z" fill="#815144"/>
<path d="M235.299 193.166C235.329 193.191 234.88 193.748 234.356 194.459C233.832 195.169 233.431 195.762 233.398 195.741C233.897 194.791 234.537 193.923 235.299 193.166Z" fill="#815144"/>
<path d="M237.408 192.682C237.408 192.682 237.377 192.664 237.362 192.617C237.361 192.604 237.361 192.591 237.362 192.579C237.36 192.568 237.36 192.557 237.362 192.546V192.516C237.379 192.481 237.399 192.447 237.42 192.415C237.476 192.335 237.539 192.259 237.607 192.188L237.672 192.128C237.694 192.112 237.719 192.103 237.745 192.102H237.791H237.972C238.272 192.072 238.575 192.089 238.869 192.153C238.577 192.219 238.277 192.247 237.977 192.233H237.798H237.748L237.692 192.281C237.614 192.352 237.546 192.42 237.493 192.475L237.428 192.554C237.428 192.569 237.428 192.569 237.428 192.579V192.614C237.413 192.652 237.415 192.677 237.408 192.682Z" fill="#455A64"/>
<path d="M239.371 194.295C239.399 194.315 239.371 194.428 239.275 194.547C239.179 194.665 239.061 194.733 239.041 194.701C239.021 194.668 239.086 194.585 239.169 194.469C239.252 194.353 239.341 194.272 239.371 194.295Z" fill="#455A64"/>
<path d="M240.457 194.322C240.472 194.334 240.407 194.43 240.291 194.574H240.271C240.124 194.609 239.93 194.647 239.716 194.682C239.512 194.73 239.302 194.745 239.094 194.727C238.925 194.7 238.854 194.591 238.874 194.581C238.949 194.611 239.027 194.63 239.106 194.637C239.304 194.625 239.5 194.597 239.693 194.554C239.908 194.518 240.107 194.491 240.255 194.478L240.228 194.493C240.354 194.38 240.444 194.309 240.457 194.322Z" fill="#455A64"/>
<path d="M268.699 189.69L265.927 187.609L264.576 186.621L258.596 187.765C258.596 187.765 256.104 188.836 255.522 189.146C254.94 189.456 252.967 189.844 253.198 192.747C253.342 194.411 253.336 196.084 253.181 197.747L251.838 208.873L251.921 211.448C251.921 211.448 251.608 213.661 251.57 215.016L264.543 213.736L263.898 207.885L264.677 199.773L268.699 189.69Z" fill="#D6D6D6"/>
<path d="M256.587 188.528C256.587 188.528 252.303 195.927 251.782 196.862C251.26 197.797 250.431 198.682 250.534 200.761C250.638 202.84 251.835 205.337 251.835 205.337V208.865L263.898 207.877L264.676 199.765C264.676 199.765 259.384 198.571 260.206 194.672C261.027 190.774 263.898 187.289 265.924 187.601L264.573 186.613C264.573 186.613 263.288 187.158 260.992 189.161C260.992 189.161 258.649 190.925 257.915 190.507C256.963 189.967 257.976 187.987 257.976 187.987L256.587 188.528Z" fill="white"/>
<path d="M258.279 202.616C258.185 202.65 258.086 202.67 257.986 202.674C257.714 202.704 257.44 202.704 257.167 202.674C256.257 202.582 255.404 202.189 254.744 201.556C254.083 200.924 253.653 200.089 253.521 199.184C253.479 198.913 253.466 198.639 253.483 198.365C253.484 198.265 253.499 198.166 253.526 198.07C253.527 198.437 253.556 198.804 253.612 199.167C253.763 200.043 254.191 200.847 254.834 201.462C255.476 202.077 256.298 202.47 257.18 202.584C257.545 202.622 257.912 202.633 258.279 202.616Z" fill="#263238"/>
<g opacity="0.3">
<path d="M254.853 201.52C253.941 200.822 253.626 199.628 253.528 198.436C253.233 199.648 253.528 201.137 254.45 201.976C254.919 202.393 255.49 202.678 256.104 202.804C256.719 202.929 257.356 202.891 257.951 202.692C256.832 202.586 255.762 202.181 254.853 201.52Z" fill="black"/>
</g>
<path d="M256.981 261.826L258.536 265.841L255.517 267.529L253.746 266.67L252.042 263.074L256.981 261.826Z" fill="#D6D6D6"/>
<path d="M253.301 266.424L253.417 266.731C253.417 266.731 249.015 270.796 249.335 271.804L259.634 267.825L258.16 264.461C257.539 265.118 256.783 265.633 255.945 265.972C255.106 266.31 254.205 266.465 253.301 266.424Z" fill="#455A64"/>
<g opacity="0.6">
<path d="M257.55 265.962C257.661 265.952 257.771 265.985 257.859 266.052C257.947 266.12 258.007 266.218 258.027 266.327C258.04 266.439 258.008 266.552 257.939 266.641C257.869 266.73 257.768 266.788 257.656 266.803C257.539 266.812 257.422 266.777 257.329 266.705C257.236 266.633 257.173 266.529 257.152 266.413C257.152 266.191 257.361 265.931 257.583 265.959" fill="white"/>
</g>
<g opacity="0.6">
<path d="M259.635 267.835L259.285 267.023L249.54 271.134C249.54 271.134 249.159 271.512 249.336 271.814L259.635 267.835Z" fill="white"/>
</g>
<path d="M253.393 266.784C253.415 266.835 253.675 266.759 253.985 266.825C254.295 266.89 254.509 267.052 254.547 267.014C254.585 266.976 254.398 266.714 254.023 266.641C253.647 266.568 253.372 266.742 253.393 266.784Z" fill="#263238"/>
<path d="M252.485 267.649C252.485 267.702 252.737 267.704 252.989 267.85C253.241 267.997 253.38 268.203 253.428 268.181C253.476 268.158 253.4 267.863 253.08 267.677C252.76 267.49 252.468 267.601 252.485 267.649Z" fill="#263238"/>
<path d="M252.364 269.178C252.415 269.178 252.387 268.894 252.15 268.674C251.913 268.455 251.646 268.422 251.633 268.48C251.621 268.538 251.83 268.621 252.022 268.81C252.213 268.999 252.319 269.196 252.364 269.178Z" fill="#263238"/>
<path d="M264.735 264.23L264.637 268.534L261.202 268.94L259.894 267.468L259.695 263.494L264.735 264.23Z" fill="#D6D6D6"/>
<path d="M259.574 267.082V267.41C259.574 267.41 253.949 269.484 253.861 270.534L264.901 270.786L264.838 267.11C263.167 267.841 261.449 267.886 259.574 267.082Z" fill="#455A64"/>
<g opacity="0.6">
<path d="M263.681 268.269C263.787 268.304 263.876 268.376 263.931 268.472C263.987 268.569 264.005 268.682 263.981 268.791C263.95 268.895 263.881 268.984 263.787 269.039C263.694 269.095 263.583 269.113 263.477 269.091C263.365 269.054 263.27 268.977 263.212 268.875C263.154 268.772 263.136 268.651 263.162 268.536C263.206 268.429 263.29 268.343 263.396 268.296C263.502 268.249 263.622 268.245 263.731 268.284" fill="white"/>
</g>
<g opacity="0.6">
<path d="M264.891 270.797L264.876 269.912L254.292 269.985C254.292 269.985 253.788 270.189 253.843 270.535L264.891 270.797Z" fill="white"/>
</g>
<path d="M259.524 267.433C259.524 267.486 259.793 267.518 260.055 267.697C260.317 267.876 260.451 268.106 260.501 268.085C260.552 268.065 260.479 267.753 260.159 267.541C259.839 267.329 259.513 267.39 259.524 267.433Z" fill="#263238"/>
<path d="M258.354 267.891C258.354 267.944 258.573 268.04 258.75 268.274C258.926 268.508 258.974 268.748 259.03 268.748C259.085 268.748 259.123 268.44 258.899 268.156C258.674 267.871 258.357 267.841 258.354 267.891Z" fill="#263238"/>
<path d="M257.657 269.262C257.707 269.274 257.788 269.01 257.657 268.707C257.525 268.405 257.276 268.286 257.251 268.332C257.226 268.377 257.379 268.536 257.483 268.783C257.586 269.03 257.611 269.254 257.657 269.262Z" fill="#263238"/>
<path d="M264.291 211.447C264.291 211.447 268.097 216.525 268.263 220.65C268.35 223.174 267.891 225.687 266.917 228.016C266.917 228.016 265.07 238.096 264.8 241.387C264.643 243.612 264.643 245.846 264.8 248.07C264.8 248.07 265.574 253.181 265.66 255.363C265.745 257.546 264.712 265.607 264.712 265.607H259.718C259.718 265.607 257.583 247.861 257.326 246.569C257.069 245.276 256.437 242.441 256.437 242.441C256.437 242.441 254.39 228.664 254.39 224.297C254.39 219.93 253.962 213.357 253.962 213.357C258.095 213.015 261.822 212.496 264.291 211.447Z" fill="#263238"/>
<path d="M251.636 213.16C251.636 213.16 241.914 240.469 242.08 241.86C242.246 243.251 252.961 264.964 252.961 264.964L257.44 262.96L253.962 248.092L250.913 241.52L255.847 233.255L258.072 221.081L255.103 213.405L251.636 213.16Z" fill="#263238"/>
<path d="M253.962 219.943C253.978 220 253.988 220.058 253.992 220.117C254.007 220.246 254.027 220.41 254.052 220.621C254.1 221.07 254.168 221.695 254.251 222.461C254.408 224.026 254.622 226.165 254.859 228.529C255.096 230.893 255.282 233.035 255.428 234.602C255.494 235.358 255.549 235.996 255.587 236.444C255.602 236.653 255.615 236.82 255.622 236.948C255.628 237.007 255.628 237.066 255.622 237.125C255.606 237.069 255.596 237.011 255.592 236.953C255.577 236.826 255.557 236.658 255.532 236.449C255.481 235.998 255.416 235.376 255.332 234.61C255.174 233.042 254.959 230.903 254.723 228.539C254.486 226.175 254.302 224.033 254.153 222.466C254.088 221.71 254.035 221.075 253.997 220.624C253.982 220.417 253.969 220.251 253.959 220.12C253.954 220.061 253.955 220.002 253.962 219.943Z" fill="#455A64"/>
<path d="M264.924 212.496C264.884 212.521 264.842 212.542 264.798 212.557L264.432 212.7C264.112 212.826 263.644 212.987 263.059 213.169C262.474 213.35 261.771 213.544 260.982 213.728C260.194 213.912 259.314 214.069 258.389 214.195C257.465 214.321 256.572 214.384 255.761 214.419C254.95 214.454 254.221 214.447 253.611 214.419C253.002 214.391 252.505 214.361 252.165 214.323L251.772 214.278C251.726 214.275 251.68 214.266 251.636 214.253C251.682 214.248 251.728 214.248 251.774 214.253L252.167 214.27C252.508 214.293 253.002 214.313 253.614 214.326C254.226 214.338 254.95 214.326 255.756 214.298C256.562 214.27 257.447 214.182 258.372 214.064C259.297 213.945 260.166 213.779 260.955 213.61C261.743 213.441 262.447 213.255 263.034 213.081C263.621 212.907 264.092 212.763 264.415 212.652L264.79 212.531C264.833 212.515 264.878 212.503 264.924 212.496Z" fill="#455A64"/>
<path d="M261.801 213.756C261.82 213.796 261.837 213.837 261.852 213.879L261.99 214.247C262.111 214.57 262.275 215.051 262.477 215.676C263.034 217.44 263.47 219.24 263.78 221.064C264.239 223.773 264.424 226.522 264.331 229.269C264.248 232.371 263.81 235.755 263.525 239.314C263.274 242.663 263.267 246.026 263.505 249.376C263.689 252.466 263.885 255.25 263.933 257.594C263.992 259.443 263.945 261.294 263.792 263.138C263.747 263.793 263.671 264.297 263.631 264.65L263.578 265.038C263.565 265.126 263.558 265.169 263.558 265.169C263.558 265.169 263.558 265.124 263.558 265.035C263.558 264.947 263.581 264.814 263.596 264.645C263.628 264.302 263.696 263.798 263.734 263.133C263.866 261.288 263.9 259.437 263.835 257.589C263.775 255.248 263.565 252.468 263.376 249.374C263.128 246.018 263.128 242.649 263.376 239.294C263.661 235.73 264.102 232.351 264.193 229.256C264.354 224.662 263.751 220.073 262.409 215.676C262.217 215.049 262.061 214.565 261.948 214.24C261.892 214.081 261.852 213.957 261.822 213.869C261.791 213.781 261.801 213.756 261.801 213.756Z" fill="white"/>
<path d="M260.867 214.24C260.867 214.24 260.885 214.281 260.918 214.364L261.054 214.732C261.175 215.054 261.341 215.536 261.54 216.16C262.1 217.925 262.536 219.727 262.843 221.553C263.305 224.263 263.49 227.013 263.397 229.761C263.312 232.861 262.876 236.245 262.591 239.803C262.339 243.152 262.332 246.515 262.571 249.865C262.752 252.955 262.951 255.74 262.999 258.083C263.058 259.932 263.011 261.783 262.858 263.627C262.813 264.282 262.737 264.786 262.697 265.139L262.644 265.527C262.631 265.615 262.621 265.658 262.621 265.658C262.621 265.658 262.621 265.613 262.621 265.525C262.621 265.437 262.644 265.303 262.659 265.134C262.692 264.791 262.76 264.287 262.798 263.622C262.93 261.777 262.962 259.927 262.896 258.078C262.835 255.737 262.629 252.958 262.44 249.863C262.19 246.508 262.19 243.138 262.44 239.783C262.724 236.22 263.165 232.84 263.256 229.746C263.36 227.01 263.191 224.271 262.752 221.568C262.452 219.745 262.031 217.943 261.492 216.176C261.301 215.548 261.142 215.064 261.028 214.739C260.976 214.58 260.935 214.457 260.905 214.369C260.875 214.281 260.867 214.24 260.867 214.24Z" fill="white"/>
<path d="M265.42 179.828C265.38 179.923 265.349 180.02 265.327 180.12C265.323 180.165 265.335 180.21 265.36 180.248C265.385 180.285 265.422 180.313 265.465 180.327C265.521 180.342 265.584 180.327 265.639 180.347C265.698 180.369 265.749 180.408 265.785 180.46C265.821 180.511 265.84 180.572 265.841 180.634C265.838 180.758 265.823 180.882 265.795 181.002C265.78 181.065 265.78 181.131 265.795 181.194C265.804 181.225 265.822 181.254 265.847 181.275C265.871 181.297 265.902 181.311 265.934 181.315C266.015 181.315 266.083 181.252 266.126 181.181C266.19 181.062 266.235 180.934 266.259 180.801C266.311 180.611 266.323 180.413 266.297 180.219C266.284 180.121 266.249 180.028 266.196 179.945C266.142 179.863 266.071 179.794 265.987 179.742C265.894 179.696 265.79 179.68 265.687 179.695C265.585 179.71 265.49 179.757 265.415 179.828" fill="#E0E0E0"/>
<path d="M259.924 199.279C259.885 199.221 259.85 199.16 259.818 199.098C259.719 198.922 259.635 198.738 259.566 198.548C259.305 197.853 259.195 197.11 259.243 196.368C259.299 195.256 259.707 194.191 260.41 193.327C261.179 192.342 262.293 191.53 263.215 190.457C263.66 189.93 264.063 189.369 264.42 188.778C264.745 188.224 265.03 187.647 265.271 187.052C265.675 186.04 265.946 184.979 266.078 183.897C266.167 183.168 266.191 182.433 266.151 181.7C266.151 181.448 266.113 181.238 266.105 181.1C266.098 181.03 266.098 180.96 266.105 180.891C266.121 180.959 266.133 181.028 266.141 181.097C266.158 181.233 266.194 181.435 266.214 181.695C266.272 182.432 266.261 183.174 266.181 183.91C266.061 185.003 265.796 186.075 265.392 187.097C265.152 187.7 264.867 188.284 264.54 188.844C264.182 189.442 263.774 190.01 263.323 190.542C262.386 191.631 261.275 192.437 260.514 193.402C259.821 194.246 259.413 195.287 259.347 196.376C259.294 197.109 259.391 197.844 259.632 198.538C259.795 199.022 259.947 199.272 259.924 199.279Z" fill="#E0E0E0"/>
<path d="M256.031 183.963C256.009 184.11 255.979 184.255 255.943 184.399C255.862 184.793 255.818 185.194 255.812 185.596C255.813 186.928 256.12 188.242 256.709 189.436C257.309 190.626 258.034 191.749 258.871 192.786C259.176 193.176 259.43 193.496 259.627 193.741C259.72 193.853 259.804 193.973 259.879 194.098C259.768 193.999 259.666 193.89 259.574 193.773C259.387 193.557 259.118 193.242 258.793 192.843C257.929 191.816 257.189 190.691 256.585 189.492C255.987 188.281 255.688 186.944 255.713 185.593C255.729 185.186 255.787 184.781 255.887 184.386C255.913 184.279 255.945 184.173 255.983 184.069C256.011 183.998 256.026 183.96 256.031 183.963Z" fill="#E0E0E0"/>
<path d="M240.808 198.35L240.999 198.68C241.016 198.718 241.046 198.749 241.082 198.768C241.108 198.772 241.135 198.769 241.16 198.76C241.184 198.751 241.206 198.735 241.223 198.715C241.289 198.65 241.34 198.571 241.374 198.484C241.408 198.397 241.424 198.304 241.42 198.211C241.414 198.026 241.361 197.844 241.266 197.685C241.25 197.646 241.226 197.61 241.195 197.58C241.165 197.55 241.129 197.527 241.09 197.511C241.003 197.493 240.912 197.51 240.838 197.559C240.734 197.612 240.634 197.667 240.538 197.728C240.49 197.758 240.44 197.796 240.435 197.849C240.435 197.892 240.448 197.934 240.472 197.97C240.558 198.108 240.724 198.209 240.797 198.348" fill="#815144"/>
<path d="M261.918 193.577L258.244 204.345L246.904 197.433L244.805 199.744C244.805 199.744 253.678 208.564 255.24 209.849C256.802 211.134 259.325 211.27 260.141 211.064C260.958 210.857 262.775 208.45 264.745 205.061C266.716 201.671 268.964 196.024 269.281 193.865C269.599 191.705 269.612 190.558 268.717 189.691" fill="#D6D6D6"/>
<path d="M268.699 189.691C268.699 189.691 268.744 189.734 268.83 189.822C268.954 189.956 269.062 190.104 269.15 190.263C269.29 190.524 269.384 190.807 269.427 191.1C269.482 191.5 269.494 191.905 269.465 192.307C269.437 192.761 269.379 193.262 269.304 193.819C269.208 194.412 269.071 194.997 268.893 195.571C268.464 196.966 267.965 198.338 267.399 199.683C266.725 201.317 265.968 202.915 265.131 204.471C264.672 205.308 264.16 206.152 263.619 207.011C263.064 207.898 262.465 208.756 261.824 209.582C261.492 210.017 261.12 210.42 260.713 210.786C260.606 210.88 260.49 210.965 260.368 211.038C260.304 211.074 260.236 211.104 260.166 211.127C260.096 211.145 260.026 211.16 259.954 211.172C259.675 211.21 259.392 211.222 259.11 211.21C258.538 211.187 257.971 211.103 257.417 210.958C256.849 210.819 256.303 210.603 255.794 210.315C255.293 209.997 254.828 209.625 254.408 209.206C253.972 208.806 253.539 208.395 253.103 207.977C252.232 207.137 251.355 206.288 250.469 205.431C248.491 203.498 246.576 201.606 244.749 199.789L244.706 199.746L244.746 199.701L246.848 197.39L246.883 197.352L246.926 197.377L258.266 204.305L258.196 204.33C259.337 201.009 260.262 198.322 260.905 196.458C261.225 195.533 261.477 194.812 261.66 194.318L261.857 193.764C261.902 193.64 261.928 193.577 261.928 193.577C261.928 193.577 261.91 193.643 261.87 193.769L261.688 194.328C261.522 194.832 261.28 195.545 260.97 196.475L258.301 204.36L258.281 204.416L258.231 204.386L246.876 197.486L246.956 197.473L244.857 199.787V199.698C246.687 201.513 248.602 203.405 250.58 205.338L253.211 207.883C253.647 208.299 254.08 208.71 254.514 209.111C254.927 209.524 255.384 209.891 255.877 210.204C256.375 210.486 256.909 210.698 257.465 210.834C258.01 210.975 258.568 211.055 259.13 211.074C259.406 211.086 259.681 211.074 259.954 211.038C260.218 210.996 260.461 210.874 260.653 210.688C261.051 210.327 261.417 209.932 261.746 209.506C262.409 208.67 262.991 207.8 263.538 206.948C264.085 206.097 264.594 205.247 265.05 204.428C265.888 202.872 266.645 201.274 267.318 199.64C267.943 198.146 268.454 196.77 268.83 195.54C269.01 194.972 269.15 194.392 269.248 193.804C269.326 193.257 269.389 192.758 269.42 192.307C269.454 191.908 269.446 191.507 269.394 191.11C269.361 190.82 269.275 190.539 269.142 190.279C269.019 190.065 268.87 189.868 268.699 189.691Z" fill="#815144"/>
<path d="M259.924 199.448L266.136 202.298C266.136 202.298 267.675 198.997 267.9 198.339L261.333 195.33L259.924 199.448Z" fill="#455A64"/>
<path d="M258.891 207.734C258.85 207.734 258.868 206.945 258.677 206C258.485 205.055 258.173 204.334 258.208 204.316C258.311 204.457 258.391 204.612 258.445 204.778C258.603 205.164 258.724 205.565 258.805 205.975C258.887 206.384 258.93 206.8 258.934 207.217C258.947 207.39 258.933 207.565 258.891 207.734Z" fill="#815144"/>
<path d="M259.385 205.826C259.35 205.844 259.163 205.466 258.848 205.07C258.533 204.674 258.216 204.39 258.241 204.359C258.527 204.507 258.771 204.723 258.952 204.989C259.164 205.227 259.313 205.515 259.385 205.826Z" fill="#815144"/>
<path d="M266.857 195.542L264.569 194.582C264.081 194.377 263.52 194.606 263.315 195.094L260.751 201.203C260.546 201.69 260.776 202.252 261.263 202.456L263.552 203.417C264.04 203.622 264.601 203.392 264.806 202.905L267.37 196.796C267.574 196.308 267.345 195.747 266.857 195.542Z" fill="#263238"/>
<path d="M265.355 204.075C265.355 204.075 265.504 204.014 265.693 204.175C265.799 204.275 265.869 204.407 265.892 204.551C265.914 204.744 265.868 204.938 265.761 205.1C265.636 205.286 265.489 205.456 265.322 205.604C265.139 205.785 264.944 205.954 264.737 206.108C264.506 206.278 264.251 206.415 263.981 206.514C263.686 206.616 263.372 206.651 263.062 206.617C262.747 206.583 262.451 206.451 262.215 206.239C262.002 206.037 261.847 205.783 261.766 205.501C261.632 205.031 261.64 204.532 261.789 204.067C261.88 203.758 261.999 203.458 262.144 203.17C262.19 203.06 262.247 202.956 262.313 202.857C262.282 202.972 262.241 203.083 262.19 203.19C262.065 203.483 261.961 203.783 261.877 204.09C261.746 204.538 261.746 205.015 261.877 205.463C261.954 205.724 262.099 205.959 262.298 206.144C262.513 206.337 262.784 206.458 263.072 206.489C263.642 206.533 264.208 206.362 264.659 206.01C264.863 205.863 265.056 205.703 265.239 205.531C265.403 205.389 265.549 205.227 265.675 205.05C265.779 204.903 265.827 204.725 265.811 204.546C265.796 204.416 265.739 204.294 265.65 204.198C265.568 204.124 265.464 204.081 265.355 204.075Z" fill="#E0E0E0"/>
<path d="M247.221 197.628C247.221 197.628 244.837 194.604 244.449 194.46C244.061 194.317 242.38 193.503 242.38 193.503L239.512 193.195C239.512 193.195 239.359 193.999 239.933 194.115C240.508 194.231 241.123 194.423 241.123 194.423L242.032 194.881C242.032 194.881 240.384 195.305 240.309 195.476C240.262 195.605 240.248 195.743 240.268 195.879C240.029 196.141 239.892 196.482 239.885 196.837L239.484 198.097L240.435 199.415C240.62 199.248 240.741 199.021 240.777 198.775C240.815 198.392 240.404 198.019 240.404 198.019L240.883 197.6H241.387C241.387 197.6 243.995 199.44 244.683 199.631L245.439 200.36" fill="#D6D6D6"/>
<path d="M245.45 200.362C245.431 200.349 245.413 200.335 245.397 200.319L245.246 200.185L244.666 199.651H244.679C244.177 199.449 243.697 199.196 243.247 198.895C242.693 198.55 242.058 198.139 241.36 197.635H241.387H240.883L240.916 197.623L240.442 198.041V197.96C240.654 198.144 240.794 198.397 240.836 198.673C240.833 198.82 240.799 198.965 240.736 199.098C240.674 199.231 240.584 199.349 240.473 199.445L240.427 199.487L240.387 199.432L239.442 198.132L239.422 198.106V198.076C239.548 197.676 239.674 197.247 239.823 196.816V196.836C239.827 196.462 239.97 196.103 240.223 195.828L240.206 195.886C240.18 195.741 240.194 195.591 240.246 195.453C240.26 195.429 240.277 195.407 240.296 195.387L240.347 195.357C240.378 195.337 240.411 195.319 240.445 195.304C240.511 195.277 240.576 195.249 240.642 195.226C240.906 195.128 241.178 195.047 241.45 194.974L242.015 194.82V194.944L241.095 194.483C240.71 194.367 240.324 194.263 239.944 194.183C239.836 194.166 239.734 194.12 239.651 194.049C239.572 193.976 239.512 193.884 239.477 193.782C239.419 193.588 239.408 193.382 239.445 193.182V193.127H239.505L242.378 193.442L243.638 194.032L244.225 194.306C244.323 194.348 244.419 194.397 244.51 194.452C244.592 194.515 244.669 194.584 244.739 194.659C245.293 195.234 245.722 195.773 246.085 196.211C246.448 196.65 246.72 197.003 246.906 197.242L247.115 197.519C247.142 197.549 247.165 197.582 247.183 197.618C247.153 197.591 247.126 197.562 247.103 197.529C247.045 197.464 246.972 197.376 246.879 197.265L246.034 196.257C245.666 195.826 245.228 195.292 244.676 194.73C244.609 194.66 244.535 194.596 244.457 194.538C244.371 194.485 244.281 194.439 244.187 194.402L243.598 194.132L242.322 193.548H242.34L239.513 193.258L239.581 193.208C239.548 193.385 239.558 193.567 239.611 193.739C239.635 193.823 239.683 193.897 239.749 193.954C239.815 194.011 239.895 194.047 239.981 194.059C240.369 194.137 240.757 194.241 241.148 194.359L242.07 194.818L242.224 194.893L242.055 194.939L241.496 195.093C241.224 195.171 240.952 195.251 240.694 195.345C240.631 195.367 240.568 195.392 240.508 195.42C240.478 195.431 240.449 195.446 240.422 195.463L240.387 195.486C240.387 195.486 240.387 195.486 240.374 195.498C240.333 195.614 240.322 195.738 240.342 195.859V195.891L240.322 195.917C240.093 196.166 239.963 196.49 239.956 196.829V196.849C239.815 197.285 239.679 197.713 239.55 198.109V198.054C239.878 198.512 240.198 198.953 240.498 199.374L240.412 199.361C240.51 199.278 240.59 199.175 240.646 199.059C240.702 198.943 240.733 198.817 240.737 198.689C240.697 198.442 240.573 198.216 240.385 198.051L240.342 198.008L240.385 197.968L240.863 197.552L240.878 197.539H241.413H241.425C242.118 198.028 242.748 198.454 243.298 198.799C243.738 199.104 244.207 199.365 244.699 199.578L245.261 200.128L245.404 200.271C245.437 200.342 245.452 200.359 245.45 200.362Z" fill="#815144"/>
<path d="M241.78 196.467C241.78 196.505 241.359 196.525 240.855 196.633C240.351 196.742 239.956 196.885 239.941 196.855C240.492 196.521 241.141 196.384 241.78 196.467Z" fill="#815144"/>
<path d="M242.347 195.568C242.015 195.648 241.678 195.708 241.339 195.747C241.007 195.83 240.671 195.893 240.331 195.936C240.959 195.638 241.654 195.511 242.347 195.568Z" fill="#815144"/>
<path d="M243.751 194.47C243.468 194.585 243.177 194.677 242.879 194.745C242.59 194.854 242.284 194.909 241.975 194.906C242.255 194.783 242.546 194.686 242.844 194.619C243.134 194.51 243.442 194.459 243.751 194.47Z" fill="#815144"/>
<path d="M247.43 156.992H225.808C225.087 156.992 224.395 157.279 223.885 157.789C223.375 158.299 223.089 158.99 223.089 159.711V184.508C223.089 185.237 223.378 185.935 223.893 186.45C224.409 186.965 225.107 187.255 225.836 187.255H235.699L238.504 190.927L241.339 187.255H247.437C247.794 187.255 248.148 187.185 248.478 187.048C248.808 186.911 249.107 186.711 249.36 186.458C249.612 186.206 249.813 185.906 249.949 185.576C250.086 185.246 250.156 184.893 250.156 184.536V159.711C250.156 159.354 250.086 158.999 249.948 158.669C249.811 158.339 249.61 158.039 249.357 157.786C249.104 157.533 248.803 157.333 248.472 157.197C248.142 157.061 247.787 156.991 247.43 156.992Z" fill="#455A64"/>
<g opacity="0.1">
<path d="M223.089 161.591V182.978C223.089 183.541 223.2 184.098 223.415 184.618C223.63 185.138 223.946 185.61 224.344 186.008C224.741 186.405 225.214 186.721 225.733 186.936C226.253 187.152 226.81 187.262 227.373 187.262H235.581C235.617 187.263 235.654 187.272 235.687 187.288C235.72 187.304 235.749 187.327 235.772 187.356L238.307 190.687C238.329 190.716 238.358 190.74 238.391 190.756C238.423 190.773 238.46 190.781 238.496 190.781C238.533 190.781 238.569 190.773 238.602 190.756C238.635 190.74 238.663 190.716 238.685 190.687L241.261 187.353C241.283 187.325 241.312 187.302 241.345 187.286C241.378 187.27 241.413 187.261 241.45 187.26H245.666C245.712 187.261 245.757 187.248 245.796 187.223C245.835 187.198 245.866 187.163 245.885 187.121C245.904 187.079 245.91 187.032 245.903 186.986C245.896 186.941 245.875 186.898 245.844 186.864L223.507 161.425C223.472 161.394 223.429 161.373 223.383 161.365C223.337 161.357 223.29 161.362 223.247 161.379C223.203 161.396 223.166 161.425 223.138 161.463C223.11 161.5 223.093 161.545 223.089 161.591Z" fill="white"/>
</g>
<path d="M233.234 165.672C233.234 166.68 232.34 167.302 230.989 167.302C229.638 167.302 228.759 166.672 228.759 165.672C228.754 165.406 228.828 165.145 228.971 164.92C229.114 164.696 229.32 164.519 229.563 164.412C229.372 164.302 229.214 164.143 229.105 163.951C228.997 163.759 228.943 163.541 228.948 163.321C228.948 162.386 229.782 161.809 230.989 161.809C232.196 161.809 233.045 162.391 233.045 163.321C233.049 163.542 232.993 163.759 232.883 163.951C232.774 164.143 232.615 164.302 232.423 164.412C232.668 164.518 232.875 164.695 233.019 164.919C233.164 165.143 233.239 165.405 233.234 165.672ZM231.99 165.624C231.99 165.153 231.604 164.868 230.982 164.868C230.359 164.868 229.994 165.155 229.994 165.624C229.994 166.093 230.374 166.38 230.982 166.38C231.589 166.38 231.99 166.105 231.99 165.624ZM230.17 163.371C230.17 163.772 230.488 164.024 230.989 164.024C231.491 164.024 231.823 163.772 231.823 163.371C231.823 162.97 231.488 162.703 230.989 162.703C230.49 162.703 230.17 162.963 230.17 163.381V163.371Z" fill="white"/>
<path d="M233.756 163.805C233.767 163.617 233.849 163.44 233.986 163.311C234.124 163.181 234.305 163.109 234.493 163.109C234.681 163.109 234.863 163.181 235 163.311C235.137 163.44 235.219 163.617 235.23 163.805C235.236 163.905 235.221 164.006 235.187 164.1C235.153 164.195 235.099 164.281 235.03 164.354C234.961 164.428 234.878 164.486 234.786 164.526C234.693 164.566 234.594 164.586 234.493 164.586C234.393 164.586 234.293 164.566 234.201 164.526C234.108 164.486 234.025 164.428 233.956 164.354C233.887 164.281 233.834 164.195 233.799 164.1C233.765 164.006 233.75 163.905 233.756 163.805ZM233.756 166.529C233.767 166.341 233.849 166.164 233.986 166.035C234.124 165.905 234.305 165.833 234.493 165.833C234.681 165.833 234.863 165.905 235 166.035C235.137 166.164 235.219 166.341 235.23 166.529C235.236 166.629 235.221 166.73 235.187 166.824C235.153 166.919 235.099 167.005 235.03 167.078C234.961 167.152 234.878 167.21 234.786 167.25C234.693 167.29 234.594 167.31 234.493 167.31C234.393 167.31 234.293 167.29 234.201 167.25C234.108 167.21 234.025 167.152 233.956 167.078C233.887 167.005 233.834 166.919 233.799 166.824C233.765 166.73 233.75 166.629 233.756 166.529Z" fill="white"/>
<path d="M239.764 166.21V167.218H235.732V166.415L237.781 164.479C238.252 164.033 238.335 163.759 238.335 163.501C238.335 163.083 238.046 162.841 237.486 162.841C237.273 162.832 237.061 162.876 236.869 162.969C236.677 163.062 236.51 163.2 236.385 163.373L235.49 162.796C235.898 162.196 236.642 161.811 237.599 161.811C238.781 161.811 239.573 162.415 239.573 163.381C239.573 163.885 239.426 164.366 238.683 165.056L237.463 166.21H239.764Z" fill="white"/>
<path d="M240.242 164.555C240.242 162.803 241.215 161.811 242.51 161.811C243.805 161.811 244.778 162.803 244.778 164.555C244.778 166.306 243.816 167.302 242.51 167.302C241.205 167.302 240.242 166.309 240.242 164.555ZM243.559 164.555C243.559 163.35 243.135 162.849 242.52 162.849C241.905 162.849 241.487 163.353 241.487 164.555C241.487 165.757 241.913 166.263 242.52 166.263C243.128 166.263 243.559 165.762 243.559 164.555Z" fill="white"/>
<path d="M234.923 176.656C234.936 176.771 234.923 176.887 234.886 176.997C234.849 177.106 234.789 177.206 234.71 177.29C234.631 177.374 234.534 177.44 234.427 177.483C234.319 177.525 234.204 177.544 234.089 177.538C233.93 177.543 233.773 177.504 233.635 177.425L233.774 177.148C233.866 177.206 233.973 177.235 234.081 177.231C234.144 177.234 234.207 177.224 234.266 177.2C234.324 177.177 234.377 177.142 234.421 177.096C234.464 177.051 234.498 176.997 234.519 176.937C234.54 176.878 234.548 176.815 234.542 176.752C234.488 176.803 234.423 176.842 234.353 176.867C234.283 176.893 234.209 176.904 234.134 176.901C234.064 176.907 233.993 176.898 233.926 176.875C233.859 176.853 233.797 176.817 233.745 176.77C233.692 176.723 233.65 176.665 233.62 176.601C233.59 176.537 233.574 176.467 233.572 176.397C233.574 176.319 233.592 176.244 233.625 176.174C233.658 176.104 233.704 176.041 233.762 175.99C233.82 175.939 233.888 175.9 233.962 175.877C234.035 175.853 234.113 175.845 234.19 175.852C234.643 175.845 234.923 176.13 234.923 176.656ZM234.5 176.371C234.5 176.23 234.394 176.119 234.215 176.119C234.177 176.109 234.138 176.108 234.1 176.115C234.062 176.123 234.026 176.139 233.996 176.162C233.965 176.186 233.94 176.216 233.923 176.251C233.906 176.286 233.897 176.324 233.897 176.363C233.897 176.401 233.906 176.44 233.923 176.474C233.94 176.509 233.965 176.539 233.996 176.563C234.026 176.586 234.062 176.603 234.1 176.61C234.138 176.617 234.177 176.616 234.215 176.606C234.249 176.61 234.284 176.608 234.317 176.598C234.351 176.589 234.382 176.573 234.408 176.551C234.435 176.529 234.457 176.501 234.473 176.471C234.488 176.44 234.498 176.406 234.5 176.371Z" fill="white"/>
<path d="M235.106 176.69C235.106 176.151 235.404 175.844 235.807 175.844C236.21 175.844 236.508 176.151 236.508 176.69C236.508 177.23 236.21 177.537 235.807 177.537C235.404 177.537 235.106 177.23 235.106 176.69ZM236.114 176.69C236.114 176.32 235.983 176.164 235.794 176.164C235.605 176.164 235.477 176.32 235.477 176.69C235.477 177.061 235.608 177.217 235.794 177.217C235.981 177.217 236.127 177.063 236.127 176.69H236.114Z" fill="white"/>
<path d="M237.931 176.996C237.931 177.286 237.717 177.538 237.251 177.538C237.03 177.542 236.812 177.481 236.626 177.362L236.775 177.072C236.912 177.168 237.076 177.218 237.243 177.215C237.432 177.215 237.551 177.135 237.551 177.001C237.551 176.868 237.465 176.79 237.168 176.79H236.739L236.825 175.867H237.833V176.172H237.15L237.125 176.482H237.258C237.747 176.487 237.931 176.711 237.931 176.996Z" fill="white"/>
<path d="M238.086 176.69C238.086 176.151 238.386 175.844 238.789 175.844C239.192 175.844 239.49 176.151 239.49 176.69C239.49 177.23 239.192 177.537 238.789 177.537C238.386 177.537 238.086 177.23 238.086 176.69ZM239.109 176.69C239.109 176.32 238.978 176.164 238.789 176.164C238.6 176.164 238.469 176.32 238.469 176.69C238.469 177.061 238.6 177.217 238.789 177.217C238.978 177.217 239.109 177.063 239.109 176.69Z" fill="white"/>
<path d="M236.644 183.461C235.348 183.461 234.081 183.077 233.004 182.357C231.926 181.637 231.087 180.614 230.591 179.417C230.095 178.22 229.965 176.902 230.218 175.631C230.471 174.36 231.095 173.193 232.011 172.276C232.927 171.36 234.095 170.736 235.366 170.483C236.637 170.231 237.954 170.36 239.151 170.856C240.348 171.352 241.372 172.192 242.092 173.269C242.812 174.347 243.196 175.614 243.196 176.909C243.191 178.645 242.499 180.309 241.271 181.537C240.043 182.764 238.38 183.456 236.644 183.461ZM236.644 172.099C235.697 172.099 234.771 172.38 233.984 172.906C233.196 173.432 232.583 174.18 232.22 175.054C231.858 175.929 231.763 176.892 231.948 177.821C232.133 178.75 232.589 179.603 233.258 180.272C233.928 180.942 234.781 181.398 235.71 181.583C236.639 181.767 237.601 181.673 238.476 181.31C239.351 180.948 240.099 180.334 240.625 179.547C241.151 178.759 241.432 177.834 241.432 176.887C241.427 175.619 240.92 174.404 240.024 173.507C239.127 172.61 237.912 172.104 236.644 172.099Z" fill="white"/>
<path d="M236.644 183.463C235.488 183.462 234.353 183.157 233.353 182.579C232.352 182.001 231.521 181.17 230.944 180.169C230.827 179.966 230.796 179.725 230.857 179.499C230.918 179.273 231.066 179.081 231.269 178.964C231.472 178.848 231.712 178.817 231.938 178.877C232.164 178.938 232.357 179.087 232.473 179.29C232.894 180.015 233.498 180.618 234.225 181.036C234.952 181.455 235.776 181.676 236.615 181.676C237.454 181.676 238.278 181.456 239.005 181.037C239.732 180.618 240.336 180.016 240.757 179.29C241.178 178.565 241.401 177.741 241.403 176.902C241.406 176.063 241.188 175.239 240.772 174.51C240.355 173.782 239.754 173.176 239.03 172.753C238.306 172.33 237.483 172.105 236.644 172.1C236.41 172.1 236.186 172.007 236.02 171.842C235.855 171.676 235.762 171.452 235.762 171.218C235.762 170.984 235.855 170.76 236.02 170.594C236.186 170.429 236.41 170.336 236.644 170.336C238.385 170.336 240.054 171.027 241.285 172.258C242.516 173.489 243.207 175.159 243.207 176.899C243.207 178.64 242.516 180.309 241.285 181.54C240.054 182.771 238.385 183.463 236.644 183.463Z" fill="white"/>
<path d="M223.976 181.94C223.938 181.94 223.91 178.85 223.91 175.042C223.91 171.235 223.938 168.143 223.976 168.143C224.013 168.143 224.041 171.23 224.041 175.037C224.041 178.845 224.011 181.94 223.976 181.94Z" fill="#263238"/>
<path d="M224.939 184.826C224.72 184.6 224.55 184.332 224.44 184.037C224.329 183.743 224.28 183.429 224.296 183.115C224.334 183.115 224.384 183.521 224.563 183.992C224.742 184.463 224.969 184.804 224.939 184.826Z" fill="#263238"/>
<path d="M249.312 166.223C249.347 166.223 249.377 169.718 249.377 174.035C249.377 178.351 249.347 181.847 249.312 181.847C249.276 181.847 249.246 178.354 249.246 174.035C249.246 169.715 249.276 166.223 249.312 166.223Z" fill="#263238"/>
<path d="M249.206 161.734C249.271 162.14 249.293 162.551 249.272 162.962C249.293 163.373 249.271 163.785 249.206 164.191C249.14 163.785 249.118 163.373 249.141 162.962C249.118 162.551 249.14 162.14 249.206 161.734Z" fill="#263238"/>
<g opacity="0.1">
<path d="M228.492 156.992L250.149 181.56V178.531L231.163 156.992H228.492Z" fill="white"/>
</g>
<path d="M239.323 178.085C238.494 178.152 237.662 178.173 236.83 178.151C236 178.173 235.169 178.152 234.341 178.085C235.169 178.02 236 177.998 236.83 178.02C237.662 177.998 238.494 178.02 239.323 178.085Z" fill="white"/>
<path d="M243.665 168.144C243.665 168.179 240.689 168.209 237.02 168.209C233.351 168.209 230.377 168.179 230.377 168.144C230.377 168.108 233.351 168.078 237.02 168.078C240.689 168.078 243.665 168.113 243.665 168.144Z" fill="white"/>
<path d="M215.36 164.064H197.683C195.678 164.064 194.054 165.689 194.054 167.693V188.324C194.054 190.329 195.678 191.953 197.683 191.953H215.36C217.364 191.953 218.989 190.329 218.989 188.324V167.693C218.989 165.689 217.364 164.064 215.36 164.064Z" fill="#455A64"/>
<path d="M215.36 191.951L215.612 191.931C215.717 191.926 215.821 191.913 215.924 191.893C216.068 191.871 216.211 191.839 216.35 191.797C216.741 191.682 217.11 191.502 217.441 191.266C217.892 190.94 218.264 190.518 218.53 190.031C218.683 189.739 218.796 189.428 218.868 189.106C218.939 188.749 218.968 188.386 218.953 188.022C218.953 187.266 218.953 186.425 218.953 185.533C218.953 183.746 218.953 181.71 218.953 179.462C218.953 177.214 218.953 174.749 218.953 172.106C218.953 170.784 218.953 169.418 218.953 168.008C218.964 167.657 218.938 167.306 218.878 166.96C218.799 166.615 218.675 166.282 218.507 165.97C218.154 165.335 217.616 164.822 216.965 164.498C216.637 164.331 216.282 164.22 215.917 164.171C215.544 164.126 215.168 164.111 214.793 164.125H197.68C196.834 164.129 196.018 164.43 195.371 164.974C194.735 165.514 194.31 166.261 194.169 167.084C194.115 167.493 194.097 167.906 194.114 168.318V172.01C194.114 175.248 194.114 178.368 194.114 181.334C194.114 182.821 194.114 184.273 194.114 185.681V187.763C194.104 188.099 194.114 188.436 194.144 188.771C194.185 189.096 194.27 189.415 194.396 189.718C194.646 190.298 195.045 190.802 195.551 191.18C196.057 191.558 196.654 191.796 197.281 191.87C197.581 191.898 197.884 191.896 198.186 191.896H200.804L211.456 191.916H214.352H215.108C215.277 191.916 215.36 191.916 215.36 191.916H215.108H214.352H211.456L200.804 191.938H198.184C197.884 191.938 197.579 191.938 197.266 191.916C196.62 191.841 196.005 191.597 195.483 191.209C194.961 190.821 194.551 190.303 194.293 189.706C194.166 189.392 194.081 189.064 194.041 188.728C194.009 188.389 193.997 188.048 194.005 187.707V185.626C194.005 184.217 194.005 182.766 194.005 181.279C194.005 178.305 194.005 175.185 194.005 171.955V168.323C193.986 167.903 194.005 167.481 194.061 167.063C194.2 166.211 194.634 165.434 195.288 164.869C195.959 164.308 196.805 164.001 197.68 163.999H214.768C215.15 163.985 215.532 164.001 215.912 164.047C216.289 164.1 216.654 164.215 216.993 164.387C217.664 164.719 218.219 165.246 218.586 165.899C218.759 166.222 218.887 166.567 218.966 166.925C219.028 167.278 219.054 167.637 219.044 167.996C219.044 169.405 219.044 170.771 219.044 172.093C219.044 174.737 219.044 177.201 219.044 179.449C219.044 181.697 219.044 183.733 219.044 185.52C219.044 186.412 219.044 187.244 219.044 188.01C219.056 188.377 219.025 188.745 218.953 189.106C218.877 189.432 218.76 189.747 218.603 190.043C218.33 190.535 217.95 190.959 217.492 191.286C217.155 191.522 216.781 191.699 216.386 191.81C216.245 191.851 216.102 191.881 215.957 191.901C215.853 191.918 215.748 191.929 215.642 191.933L215.36 191.951Z" fill="#263238"/>
<g opacity="0.1">
<path d="M215.343 191.951H197.783C196.794 191.951 195.846 191.558 195.146 190.859C194.447 190.16 194.054 189.211 194.054 188.222V167.709" fill="white"/>
</g>
<path d="M194.867 187.044C194.832 187.044 194.802 184.199 194.802 180.691C194.802 177.184 194.832 174.336 194.867 174.336C194.903 174.336 194.933 177.181 194.933 180.691C194.933 184.202 194.908 187.044 194.867 187.044Z" fill="#263238"/>
<path d="M195.754 189.712C195.534 189.519 195.373 189.268 195.291 188.987C195.167 188.721 195.123 188.425 195.165 188.135C195.203 188.135 195.25 188.51 195.417 188.941C195.583 189.372 195.787 189.69 195.754 189.712Z" fill="#263238"/>
<path d="M218.218 172.57C218.253 172.57 218.283 175.791 218.283 179.762C218.283 183.734 218.253 186.954 218.218 186.954C218.183 186.954 218.152 183.736 218.152 179.762C218.152 175.788 218.18 172.57 218.218 172.57Z" fill="#263238"/>
<path d="M218.119 168.432C218.183 168.806 218.205 169.186 218.185 169.566C218.205 169.945 218.183 170.325 218.119 170.7C218.053 170.325 218.031 169.945 218.053 169.566C218.031 169.186 218.053 168.806 218.119 168.432Z" fill="#263238"/>
<g opacity="0.1">
<path d="M199.03 164.064L218.989 186.702V183.912L201.492 164.064H199.03Z" fill="white"/>
</g>
<path d="M215.164 177.067C215.164 177.103 211.293 177.133 206.52 177.133C201.747 177.133 197.879 177.103 197.879 177.067C197.879 177.032 201.747 177.002 206.52 177.002C211.293 177.002 215.164 177.032 215.164 177.067Z" fill="white"/>
<path d="M201.235 178.74H201.502V179.889H201.235V178.74Z" fill="white"/>
<path d="M202.659 179.387V179.891H202.407V179.425C202.407 179.284 202.342 179.216 202.228 179.216C202.115 179.216 202.017 179.291 202.017 179.455V179.891H201.765V179.009H202.017V179.112C202.054 179.074 202.1 179.043 202.15 179.023C202.201 179.003 202.255 178.994 202.309 178.996C202.359 178.995 202.408 179.005 202.454 179.025C202.5 179.045 202.541 179.074 202.574 179.111C202.607 179.148 202.632 179.192 202.647 179.24C202.661 179.287 202.666 179.338 202.659 179.387Z" fill="white"/>
<path d="M202.833 179.45C202.833 179.386 202.846 179.323 202.873 179.265C202.899 179.206 202.937 179.154 202.984 179.111C203.032 179.068 203.088 179.036 203.148 179.016C203.209 178.997 203.273 178.99 203.337 178.997C203.418 178.992 203.499 179.013 203.569 179.055C203.639 179.097 203.694 179.159 203.728 179.234L203.529 179.339C203.51 179.303 203.481 179.272 203.446 179.251C203.411 179.229 203.371 179.218 203.329 179.218C203.275 179.232 203.227 179.264 203.192 179.308C203.158 179.352 203.139 179.407 203.139 179.463C203.139 179.519 203.158 179.574 203.192 179.618C203.227 179.662 203.275 179.694 203.329 179.707C203.371 179.708 203.411 179.697 203.447 179.676C203.482 179.654 203.51 179.623 203.529 179.586L203.728 179.695C203.691 179.766 203.634 179.826 203.563 179.865C203.493 179.905 203.412 179.922 203.332 179.916C203.268 179.923 203.203 179.915 203.142 179.894C203.081 179.873 203.025 179.84 202.978 179.796C202.93 179.752 202.893 179.698 202.868 179.638C202.843 179.579 202.831 179.515 202.833 179.45Z" fill="white"/>
<path d="M203.793 179.449C203.787 179.351 203.809 179.254 203.859 179.17C203.908 179.086 203.982 179.018 204.07 178.977C204.158 178.935 204.257 178.92 204.354 178.936C204.45 178.951 204.54 178.994 204.611 179.061C204.682 179.128 204.732 179.215 204.753 179.31C204.774 179.405 204.766 179.505 204.73 179.596C204.694 179.686 204.632 179.764 204.551 179.819C204.47 179.874 204.375 179.903 204.277 179.902C204.215 179.907 204.152 179.899 204.094 179.878C204.035 179.857 203.981 179.824 203.936 179.782C203.89 179.739 203.854 179.687 203.83 179.63C203.805 179.573 203.793 179.511 203.793 179.449ZM204.504 179.449C204.499 179.405 204.482 179.364 204.454 179.33C204.426 179.297 204.389 179.271 204.348 179.258C204.306 179.245 204.261 179.244 204.219 179.255C204.177 179.266 204.139 179.29 204.11 179.322C204.081 179.355 204.061 179.395 204.054 179.438C204.047 179.481 204.053 179.526 204.071 179.566C204.089 179.606 204.117 179.64 204.154 179.664C204.191 179.688 204.233 179.701 204.277 179.701C204.309 179.701 204.341 179.695 204.37 179.682C204.4 179.669 204.426 179.651 204.448 179.627C204.469 179.603 204.486 179.574 204.495 179.544C204.505 179.513 204.508 179.481 204.504 179.449Z" fill="white"/>
<path d="M206.425 179.387V179.891H206.173V179.425C206.173 179.284 206.107 179.216 206.004 179.216C205.9 179.216 205.81 179.292 205.81 179.448V179.891H205.558V179.425C205.558 179.284 205.497 179.216 205.391 179.216C205.286 179.216 205.197 179.292 205.197 179.448V179.891H204.945V179.009H205.197V179.11C205.232 179.072 205.276 179.042 205.323 179.023C205.371 179.003 205.423 178.994 205.475 178.997C205.531 178.993 205.588 179.005 205.64 179.03C205.691 179.055 205.735 179.093 205.767 179.14C205.805 179.094 205.854 179.056 205.909 179.031C205.964 179.006 206.024 178.995 206.084 178.997C206.133 178.997 206.182 179.007 206.227 179.027C206.272 179.048 206.311 179.077 206.344 179.114C206.376 179.151 206.4 179.195 206.414 179.242C206.428 179.289 206.431 179.339 206.425 179.387Z" fill="white"/>
<path d="M206.623 178.742C206.623 178.722 206.628 178.702 206.636 178.684C206.644 178.666 206.656 178.649 206.671 178.636C206.686 178.622 206.704 178.612 206.723 178.606C206.742 178.599 206.762 178.597 206.782 178.598C206.802 178.596 206.822 178.598 206.84 178.604C206.859 178.61 206.877 178.62 206.892 178.633C206.906 178.646 206.919 178.662 206.927 178.68C206.935 178.698 206.94 178.717 206.941 178.737C206.941 178.779 206.924 178.82 206.894 178.849C206.864 178.879 206.824 178.896 206.782 178.896C206.74 178.896 206.699 178.879 206.67 178.849C206.64 178.82 206.623 178.779 206.623 178.737V178.742ZM206.653 179.009H206.905V179.891H206.653V179.009Z" fill="white"/>
<path d="M208.052 179.387V179.891H207.8V179.425C207.8 179.284 207.734 179.216 207.621 179.216C207.508 179.216 207.409 179.291 207.409 179.455V179.891H207.157V179.009H207.409V179.112C207.447 179.074 207.493 179.044 207.543 179.024C207.594 179.004 207.648 178.994 207.702 178.996C207.751 178.996 207.801 179.006 207.846 179.025C207.892 179.045 207.933 179.075 207.966 179.112C207.999 179.149 208.024 179.193 208.039 179.24C208.054 179.288 208.058 179.338 208.052 179.387Z" fill="white"/>
<path d="M209.204 179.008V179.736C209.212 179.803 209.205 179.871 209.182 179.935C209.159 179.998 209.121 180.056 209.073 180.102C209.024 180.149 208.964 180.183 208.9 180.203C208.835 180.222 208.767 180.227 208.7 180.215C208.547 180.222 208.395 180.18 208.267 180.094L208.368 179.91C208.459 179.975 208.568 180.01 208.68 180.008C208.862 180.008 208.932 179.928 208.932 179.756V179.736C208.896 179.773 208.852 179.802 208.804 179.821C208.756 179.839 208.704 179.847 208.652 179.845C208.539 179.845 208.431 179.8 208.351 179.72C208.271 179.64 208.227 179.532 208.227 179.419C208.227 179.306 208.271 179.198 208.351 179.118C208.431 179.038 208.539 178.993 208.652 178.993C208.708 178.989 208.763 178.999 208.814 179.021C208.865 179.043 208.909 179.076 208.945 179.119V179.006L209.204 179.008ZM208.952 179.421C208.952 179.36 208.928 179.301 208.884 179.257C208.841 179.214 208.782 179.189 208.72 179.189C208.659 179.189 208.6 179.214 208.557 179.257C208.513 179.301 208.489 179.36 208.489 179.421C208.489 179.483 208.513 179.542 208.557 179.585C208.6 179.629 208.659 179.653 208.72 179.653C208.782 179.653 208.841 179.629 208.884 179.585C208.928 179.542 208.952 179.483 208.952 179.421Z" fill="white"/>
<path d="M209.838 179.45C209.838 179.386 209.851 179.323 209.877 179.265C209.903 179.206 209.941 179.154 209.989 179.111C210.036 179.068 210.092 179.036 210.153 179.016C210.214 178.997 210.278 178.99 210.342 178.997C210.423 178.99 210.504 179.008 210.574 179.048C210.645 179.088 210.702 179.148 210.738 179.221L210.538 179.327C210.52 179.29 210.491 179.259 210.456 179.238C210.421 179.217 210.381 179.206 210.339 179.206C210.285 179.219 210.237 179.251 210.202 179.295C210.167 179.34 210.149 179.394 210.149 179.45C210.149 179.506 210.167 179.561 210.202 179.605C210.237 179.65 210.285 179.681 210.339 179.695C210.381 179.696 210.421 179.685 210.457 179.663C210.492 179.642 210.52 179.611 210.538 179.574L210.738 179.682C210.701 179.754 210.643 179.813 210.573 179.853C210.503 179.892 210.422 179.91 210.342 179.904C210.278 179.911 210.214 179.904 210.153 179.884C210.092 179.864 210.036 179.832 209.989 179.789C209.941 179.747 209.903 179.694 209.877 179.636C209.851 179.577 209.838 179.514 209.838 179.45Z" fill="white"/>
<path d="M211.656 179.387V179.891H211.404V179.782C211.374 179.825 211.333 179.859 211.286 179.88C211.238 179.901 211.186 179.909 211.134 179.903C210.927 179.903 210.804 179.79 210.804 179.636C210.804 179.482 210.915 179.384 211.184 179.384H211.386C211.386 179.276 211.32 179.21 211.184 179.21C211.094 179.211 211.005 179.24 210.932 179.293L210.839 179.115C210.952 179.042 211.085 179.005 211.22 179.009C211.499 178.996 211.656 179.12 211.656 179.387ZM211.404 179.613V179.523H211.23C211.109 179.523 211.071 179.566 211.071 179.626C211.071 179.687 211.126 179.732 211.215 179.732C211.254 179.734 211.292 179.723 211.325 179.702C211.358 179.681 211.384 179.65 211.399 179.613H211.404Z" fill="white"/>
<path d="M211.887 178.674H212.139V179.891H211.887V178.674Z" fill="white"/>
<path d="M212.381 178.674H212.633V179.891H212.381V178.674Z" fill="white"/>
<path d="M201.338 188.561C203.142 188.561 204.604 187.099 204.604 185.295C204.604 183.491 203.142 182.029 201.338 182.029C199.534 182.029 198.072 183.491 198.072 185.295C198.072 187.099 199.534 188.561 201.338 188.561Z" fill="white"/>
<path d="M199.781 186.051L200.623 185.716V185.126H201.767V185.59L202.714 186.051L203.165 185.335C202.909 185.073 202.601 184.866 202.261 184.729C201.921 184.592 201.556 184.526 201.19 184.536C200.488 184.531 199.812 184.797 199.302 185.28C199.297 185.286 199.294 185.294 199.294 185.302C199.294 185.311 199.297 185.319 199.302 185.325L199.781 186.051Z" fill="white"/>
<path d="M215.12 186.203C215.408 184.421 214.197 182.743 212.415 182.455C210.633 182.167 208.955 183.378 208.667 185.16C208.379 186.942 209.59 188.62 211.372 188.908C213.154 189.196 214.832 187.985 215.12 186.203Z" fill="#263238"/>
<path d="M213.16 186.609L212.454 186.037L211.95 186.324L211.391 185.316L211.794 185.09L211.736 184.039L211.091 184.006C211.033 184.005 210.976 184.023 210.93 184.059C210.884 184.095 210.852 184.146 210.839 184.202C210.708 184.856 210.823 185.534 211.162 186.108C211.465 186.648 211.938 187.074 212.507 187.32C212.573 187.346 212.647 187.348 212.713 187.323C212.78 187.298 212.835 187.249 212.868 187.186L213.16 186.609Z" fill="white"/>
<path d="M207.802 167.77H205.081C203.746 167.77 202.664 168.852 202.664 170.186V172.908C202.664 174.243 203.746 175.324 205.081 175.324H207.802C209.137 175.324 210.219 174.243 210.219 172.908V170.186C210.219 168.852 209.137 167.77 207.802 167.77Z" fill="#263238"/>
<path d="M206.855 171.606C207.024 171.532 207.168 171.409 207.268 171.254C207.368 171.098 207.42 170.917 207.417 170.732C207.434 170.606 207.423 170.479 207.386 170.358C207.35 170.236 207.287 170.125 207.204 170.029C207.12 169.934 207.018 169.858 206.902 169.806C206.787 169.754 206.662 169.727 206.535 169.727C206.409 169.727 206.284 169.754 206.168 169.806C206.053 169.858 205.95 169.934 205.867 170.029C205.783 170.125 205.721 170.236 205.684 170.358C205.647 170.479 205.637 170.606 205.653 170.732C205.65 170.919 205.703 171.102 205.803 171.26C205.904 171.417 206.049 171.541 206.22 171.616C204.854 171.82 204.917 173.305 204.917 173.305L208.143 173.32C208.143 173.32 208.209 171.81 206.855 171.606Z" fill="white"/>
<path d="M227.048 193.955H211.656C209.677 193.955 208.072 195.559 208.072 197.539V215.599C208.072 217.578 209.677 219.183 211.656 219.183H227.048C229.027 219.183 230.631 217.578 230.631 215.599V197.539C230.631 195.559 229.027 193.955 227.048 193.955Z" fill="#455A64"/>
<path d="M227.045 219.182L227.275 219.164C227.369 219.162 227.464 219.151 227.557 219.132C227.687 219.116 227.815 219.089 227.94 219.051C228.297 218.961 228.638 218.814 228.948 218.615C229.368 218.346 229.729 217.993 230.009 217.579C230.354 217.057 230.556 216.453 230.593 215.828C230.616 215.145 230.593 214.394 230.593 213.59C230.593 211.985 230.593 210.155 230.593 208.132C230.593 206.108 230.593 203.893 230.593 201.517C230.593 200.327 230.593 199.098 230.593 197.83C230.604 197.514 230.583 197.199 230.53 196.887C230.472 196.574 230.371 196.27 230.228 195.985C230.158 195.84 230.078 195.701 229.989 195.567C229.896 195.435 229.796 195.309 229.689 195.189C229.468 194.944 229.214 194.732 228.933 194.559C228.366 194.203 227.71 194.015 227.04 194.017H211.668C210.914 194.019 210.18 194.262 209.574 194.711C208.968 195.16 208.522 195.791 208.302 196.512C208.08 197.22 208.168 197.976 208.148 198.717V200.917C208.148 203.828 208.148 206.635 208.148 209.311C208.148 210.647 208.148 211.952 208.148 213.22V215.092C208.14 215.395 208.148 215.697 208.17 215.999C208.187 216.146 208.214 216.292 208.251 216.435L208.307 216.649L208.382 216.856C208.584 217.386 208.911 217.86 209.336 218.237C209.76 218.613 210.269 218.882 210.819 219.021C211.346 219.125 211.883 219.163 212.419 219.132H213.972L223.548 219.152L226.153 219.164L223.548 219.177L213.972 219.197H212.419C211.875 219.228 211.329 219.191 210.794 219.086C210.226 218.946 209.7 218.67 209.262 218.283C208.823 217.896 208.484 217.409 208.274 216.864L208.196 216.649L208.138 216.43C208.102 216.281 208.075 216.131 208.057 215.979C208.027 215.672 208.029 215.364 208.029 215.059V213.187C208.029 211.927 208.029 210.614 208.029 209.278C208.029 206.602 208.029 203.795 208.029 200.884V197.603C208.029 197.222 208.081 196.843 208.186 196.477C208.417 195.73 208.88 195.076 209.508 194.611C210.136 194.145 210.897 193.892 211.678 193.889H227.05C227.742 193.887 228.42 194.082 229.006 194.451C229.294 194.629 229.554 194.849 229.777 195.103C229.889 195.228 229.994 195.359 230.089 195.496C230.182 195.635 230.266 195.779 230.341 195.927C230.488 196.222 230.593 196.536 230.654 196.86C230.706 197.179 230.727 197.502 230.717 197.825C230.717 199.093 230.717 200.322 230.717 201.512C230.717 203.888 230.717 206.103 230.717 208.127C230.717 210.15 230.717 211.98 230.717 213.585C230.717 214.391 230.717 215.135 230.699 215.828C230.656 216.459 230.447 217.067 230.094 217.592C229.809 218.01 229.44 218.364 229.011 218.633C228.701 218.83 228.36 218.976 228.003 219.063C227.875 219.097 227.746 219.122 227.615 219.137C227.522 219.153 227.427 219.162 227.333 219.162C227.123 219.184 227.045 219.182 227.045 219.182Z" fill="#263238"/>
<g opacity="0.1">
<path d="M227.333 219.181H211.812C211.321 219.181 210.834 219.085 210.38 218.897C209.926 218.709 209.514 218.434 209.167 218.086C208.819 217.739 208.544 217.327 208.356 216.873C208.168 216.419 208.072 215.933 208.072 215.441V197.252" fill="white"/>
</g>
<path d="M208.808 214.764C208.772 214.764 208.742 212.188 208.742 209.016C208.742 205.843 208.772 203.268 208.808 203.268C208.843 203.268 208.873 205.84 208.873 209.016C208.873 212.191 208.846 214.764 208.808 214.764Z" fill="#263238"/>
<path d="M209.612 217.159C209.407 216.988 209.259 216.76 209.186 216.504C209.071 216.264 209.033 215.994 209.077 215.732C209.115 215.732 209.16 216.068 209.309 216.458C209.458 216.849 209.642 217.136 209.612 217.159Z" fill="#263238"/>
<path d="M229.936 201.66C229.974 201.66 230.001 204.573 230.001 208.167C230.001 211.76 229.974 214.671 229.936 214.671C229.898 214.671 229.87 211.76 229.87 208.167C229.87 204.573 229.895 201.66 229.936 201.66Z" fill="#263238"/>
<path d="M229.843 197.908C229.907 198.245 229.929 198.589 229.908 198.931C229.929 199.275 229.907 199.619 229.843 199.957C229.778 199.619 229.756 199.275 229.777 198.931C229.756 198.589 229.778 198.245 229.843 197.908Z" fill="#263238"/>
<g opacity="0.1">
<path d="M212.575 193.955L230.628 214.435V211.91L214.8 193.955H212.575Z" fill="white"/>
</g>
<path d="M227.164 205.718C227.164 205.756 223.664 205.783 219.352 205.783C215.04 205.783 211.54 205.756 211.54 205.718C211.54 205.68 215.04 205.652 219.352 205.652C223.664 205.652 227.164 205.693 227.164 205.718Z" fill="white"/>
<path d="M220.279 197.307H218.278C216.943 197.307 215.861 198.389 215.861 199.723V201.724C215.861 203.059 216.943 204.141 218.278 204.141H220.279C221.614 204.141 222.696 203.059 222.696 201.724V199.723C222.696 198.389 221.614 197.307 220.279 197.307Z" fill="#263238"/>
<path d="M218.782 201.511C218.752 201.605 218.692 201.686 218.612 201.743C218.532 201.8 218.435 201.829 218.337 201.827C218.239 201.825 218.144 201.792 218.066 201.732C217.988 201.672 217.931 201.588 217.905 201.493C217.878 201.399 217.883 201.298 217.917 201.206C217.952 201.114 218.016 201.036 218.099 200.983C218.181 200.93 218.279 200.905 218.377 200.911C218.475 200.918 218.569 200.956 218.644 201.02C218.713 201.079 218.762 201.157 218.787 201.244C218.812 201.332 218.81 201.425 218.782 201.511Z" fill="white"/>
<path d="M218.762 201.428C218.716 201.428 218.631 200.954 218.646 200.362C218.632 200.006 218.663 199.649 218.736 199.301C218.782 199.301 218.822 199.78 218.807 200.364C218.822 200.719 218.806 201.075 218.762 201.428Z" fill="white"/>
<path d="M220.186 199.62C219.951 199.768 219.667 199.818 219.395 199.758C219.198 199.737 219.01 199.662 218.853 199.542C218.735 199.443 218.704 199.345 218.719 199.335C218.735 199.325 218.798 199.388 218.919 199.448C219.076 199.529 219.247 199.581 219.423 199.6C219.828 199.645 220.173 199.572 220.186 199.62Z" fill="white"/>
<path d="M220.231 201.829C220.201 201.923 220.142 202.005 220.062 202.062C219.981 202.119 219.885 202.149 219.787 202.148C219.688 202.146 219.593 202.113 219.515 202.053C219.437 201.993 219.38 201.909 219.353 201.814C219.326 201.719 219.331 201.619 219.366 201.527C219.401 201.434 219.464 201.356 219.547 201.303C219.63 201.25 219.728 201.225 219.826 201.232C219.924 201.238 220.018 201.277 220.093 201.341C220.162 201.399 220.212 201.477 220.236 201.564C220.261 201.651 220.259 201.743 220.231 201.829Z" fill="white"/>
<path d="M220.211 201.746C220.168 201.746 220.08 201.275 220.098 200.683C220.084 200.326 220.114 199.969 220.186 199.619C220.234 199.619 220.274 200.098 220.256 200.685C220.271 201.039 220.256 201.394 220.211 201.746Z" fill="white"/>
<path d="M220.193 199.932C220.214 199.969 219.893 200.146 219.46 200.105C219.027 200.065 218.742 199.838 218.77 199.806C218.797 199.773 219.085 199.916 219.473 199.947C219.861 199.977 220.176 199.896 220.193 199.932Z" fill="white"/>
<path d="M218.926 212.375H218.165V214.535H218.926V212.375Z" fill="white"/>
<path d="M220.256 212.375H219.495V214.535H220.256V212.375Z" fill="white"/>
<path d="M219.282 216.904C218.599 216.904 217.932 216.702 217.364 216.323C216.796 215.944 216.354 215.406 216.092 214.775C215.831 214.145 215.762 213.451 215.895 212.781C216.028 212.112 216.357 211.497 216.84 211.014C217.322 210.532 217.937 210.203 218.607 210.07C219.276 209.937 219.97 210.006 220.6 210.267C221.231 210.528 221.77 210.971 222.149 211.539C222.527 212.106 222.729 212.774 222.729 213.456C222.728 214.37 222.364 215.246 221.718 215.892C221.071 216.539 220.195 216.902 219.282 216.904ZM219.282 210.258C218.649 210.258 218.03 210.445 217.504 210.796C216.978 211.147 216.568 211.646 216.325 212.231C216.083 212.815 216.019 213.458 216.142 214.079C216.265 214.699 216.57 215.269 217.017 215.717C217.464 216.164 218.034 216.469 218.654 216.593C219.275 216.716 219.918 216.653 220.502 216.411C221.087 216.169 221.586 215.759 221.938 215.233C222.289 214.707 222.477 214.089 222.477 213.456C222.476 212.609 222.139 211.796 221.54 211.197C220.941 210.597 220.129 210.26 219.282 210.258Z" fill="white"/>
<path d="M224.626 212.529V214.326L225.939 213.429L224.626 212.529Z" fill="white"/>
<path d="M226.151 212.529H225.881V214.381H226.151V212.529Z" fill="white"/>
<path d="M213.999 212.529V214.326L212.686 213.429L213.999 212.529Z" fill="white"/>
<path d="M212.475 214.381H212.744V212.529H212.475V214.381Z" fill="white"/>
<defs>
<linearGradient id="paint0_linear_1187_21477" x1="274.719" y1="179.277" x2="147.736" y2="414.918" gradientUnits="userSpaceOnUse">
<stop stop-color="white"/>
<stop offset="1" stop-color="#BBC9D8"/>
</linearGradient>
<linearGradient id="paint1_linear_1187_21477" x1="265.68" y1="196.038" x2="169.964" y2="373.69" gradientUnits="userSpaceOnUse">
<stop stop-color="white"/>
<stop offset="1" stop-color="#BBC9D8"/>
</linearGradient>
</defs>
</svg>
