<svg width="381" height="330" viewBox="0 0 381 330" fill="none" xmlns="http://www.w3.org/2000/svg">
<mask id="mask0_1187_19597" style="mask-type:luminance" maskUnits="userSpaceOnUse" x="0" y="0" width="381" height="330">
<path d="M95.1953 5.33196e-05L190.395 4.91585e-05L285.59 4.49975e-05L333.188 82.4573L380.786 164.915L333.188 247.372L285.59 329.829L190.395 329.829L95.1953 329.829L47.5977 247.372L-7.20899e-06 164.915L47.5977 82.4573L95.1953 5.33196e-05Z" fill="white"/>
</mask>
<g mask="url(#mask0_1187_19597)">
<path d="M-1.44178e-05 0.00418091L0 329.829L380.79 329.829L380.79 0.00416426L-1.44178e-05 0.00418091Z" fill="url(#paint0_linear_1187_19597)"/>
</g>
<mask id="mask1_1187_19597" style="mask-type:luminance" maskUnits="userSpaceOnUse" x="46" y="40" width="288" height="250">
<path d="M118.618 40.5785L46.8447 164.916L118.618 289.253L262.17 289.253L333.943 164.916L262.17 40.5785L118.618 40.5785Z" fill="white"/>
</mask>
<g mask="url(#mask1_1187_19597)">
<path d="M46.8447 40.5744L46.8447 289.253L333.948 289.253L333.947 40.5744L46.8447 40.5744Z" fill="url(#paint1_linear_1187_19597)" fill-opacity="0.8"/>
</g>
<path d="M106.775 224.709V234.455C106.775 235.614 107.075 236.486 107.677 237.073C108.293 237.66 109.143 237.953 110.229 237.953C111.329 237.953 112.179 237.66 112.781 237.073C113.397 236.486 113.705 235.614 113.705 234.455V224.709H116.213V234.411C116.213 235.658 115.941 236.714 115.399 237.579C114.856 238.444 114.13 239.09 113.221 239.515C112.311 239.94 111.307 240.153 110.207 240.153C109.107 240.153 108.102 239.94 107.193 239.515C106.298 239.09 105.587 238.444 105.059 237.579C104.531 236.714 104.267 235.658 104.267 234.411V224.709H106.775ZM123.878 240.197C122.925 240.197 122.067 240.028 121.304 239.691C120.556 239.339 119.962 238.87 119.522 238.283C119.082 237.682 118.847 237.014 118.818 236.281H121.414C121.458 236.794 121.7 237.227 122.14 237.579C122.595 237.916 123.159 238.085 123.834 238.085C124.538 238.085 125.081 237.953 125.462 237.689C125.858 237.41 126.056 237.058 126.056 236.633C126.056 236.178 125.836 235.841 125.396 235.621C124.971 235.401 124.289 235.159 123.35 234.895C122.441 234.646 121.7 234.404 121.128 234.169C120.556 233.934 120.057 233.575 119.632 233.091C119.221 232.607 119.016 231.969 119.016 231.177C119.016 230.532 119.207 229.945 119.588 229.417C119.969 228.874 120.512 228.449 121.216 228.141C121.935 227.833 122.756 227.679 123.68 227.679C125.059 227.679 126.166 228.031 127.002 228.735C127.853 229.424 128.307 230.37 128.366 231.573H125.858C125.814 231.03 125.594 230.598 125.198 230.275C124.802 229.952 124.267 229.791 123.592 229.791C122.932 229.791 122.426 229.916 122.074 230.165C121.722 230.414 121.546 230.744 121.546 231.155C121.546 231.478 121.663 231.749 121.898 231.969C122.133 232.189 122.419 232.365 122.756 232.497C123.093 232.614 123.592 232.768 124.252 232.959C125.132 233.194 125.851 233.436 126.408 233.685C126.98 233.92 127.471 234.272 127.882 234.741C128.293 235.21 128.505 235.834 128.52 236.611C128.52 237.3 128.329 237.916 127.948 238.459C127.567 239.002 127.024 239.427 126.32 239.735C125.631 240.043 124.817 240.197 123.878 240.197ZM142.34 233.641C142.34 234.096 142.311 234.506 142.252 234.873H132.99C133.063 235.841 133.423 236.618 134.068 237.205C134.713 237.792 135.505 238.085 136.444 238.085C137.793 238.085 138.747 237.52 139.304 236.391H142.01C141.643 237.506 140.976 238.422 140.008 239.141C139.055 239.845 137.867 240.197 136.444 240.197C135.285 240.197 134.244 239.94 133.32 239.427C132.411 238.899 131.692 238.166 131.164 237.227C130.651 236.274 130.394 235.174 130.394 233.927C130.394 232.68 130.643 231.588 131.142 230.649C131.655 229.696 132.367 228.962 133.276 228.449C134.2 227.936 135.256 227.679 136.444 227.679C137.588 227.679 138.607 227.928 139.502 228.427C140.397 228.926 141.093 229.63 141.592 230.539C142.091 231.434 142.34 232.468 142.34 233.641ZM139.722 232.849C139.707 231.925 139.377 231.184 138.732 230.627C138.087 230.07 137.287 229.791 136.334 229.791C135.469 229.791 134.728 230.07 134.112 230.627C133.496 231.17 133.129 231.91 133.012 232.849H139.722ZM147.316 229.637C147.683 229.021 148.167 228.544 148.768 228.207C149.384 227.855 150.11 227.679 150.946 227.679V230.275H150.308C149.326 230.275 148.578 230.524 148.064 231.023C147.566 231.522 147.316 232.387 147.316 233.619V239.999H144.808V227.877H147.316V229.637ZM161.474 226.733V231.221H166.754V233.267H161.474V237.953H167.414V239.999H158.966V224.687H167.414V226.733H161.474ZM175.696 233.861L179.612 239.999H176.774L174.156 235.885L171.692 239.999H169.074L172.99 234.037L169.074 227.877H171.912L174.53 231.991L176.994 227.877H179.612L175.696 233.861ZM183.99 229.659C184.415 229.102 184.995 228.632 185.728 228.251C186.461 227.87 187.29 227.679 188.214 227.679C189.27 227.679 190.231 227.943 191.096 228.471C191.976 228.984 192.665 229.71 193.164 230.649C193.663 231.588 193.912 232.666 193.912 233.883C193.912 235.1 193.663 236.193 193.164 237.161C192.665 238.114 191.976 238.862 191.096 239.405C190.231 239.933 189.27 240.197 188.214 240.197C187.29 240.197 186.469 240.014 185.75 239.647C185.031 239.266 184.445 238.796 183.99 238.239V245.763H181.482V227.877H183.99V229.659ZM191.36 233.883C191.36 233.047 191.184 232.328 190.832 231.727C190.495 231.111 190.04 230.649 189.468 230.341C188.911 230.018 188.309 229.857 187.664 229.857C187.033 229.857 186.432 230.018 185.86 230.341C185.303 230.664 184.848 231.133 184.496 231.749C184.159 232.365 183.99 233.091 183.99 233.927C183.99 234.763 184.159 235.496 184.496 236.127C184.848 236.743 185.303 237.212 185.86 237.535C186.432 237.858 187.033 238.019 187.664 238.019C188.309 238.019 188.911 237.858 189.468 237.535C190.04 237.198 190.495 236.714 190.832 236.083C191.184 235.452 191.36 234.719 191.36 233.883ZM207.502 233.641C207.502 234.096 207.473 234.506 207.414 234.873H198.152C198.226 235.841 198.585 236.618 199.23 237.205C199.876 237.792 200.668 238.085 201.606 238.085C202.956 238.085 203.909 237.52 204.466 236.391H207.172C206.806 237.506 206.138 238.422 205.17 239.141C204.217 239.845 203.029 240.197 201.606 240.197C200.448 240.197 199.406 239.94 198.482 239.427C197.573 238.899 196.854 238.166 196.326 237.227C195.813 236.274 195.556 235.174 195.556 233.927C195.556 232.68 195.806 231.588 196.304 230.649C196.818 229.696 197.529 228.962 198.438 228.449C199.362 227.936 200.418 227.679 201.606 227.679C202.75 227.679 203.77 227.928 204.664 228.427C205.559 228.926 206.256 229.63 206.754 230.539C207.253 231.434 207.502 232.468 207.502 233.641ZM204.884 232.849C204.87 231.925 204.54 231.184 203.894 230.627C203.249 230.07 202.45 229.791 201.496 229.791C200.631 229.791 199.89 230.07 199.274 230.627C198.658 231.17 198.292 231.91 198.174 232.849H204.884ZM212.478 229.637C212.845 229.021 213.329 228.544 213.93 228.207C214.546 227.855 215.272 227.679 216.108 227.679V230.275H215.47C214.488 230.275 213.74 230.524 213.226 231.023C212.728 231.522 212.478 232.387 212.478 233.619V239.999H209.97V227.877H212.478V229.637ZM219.69 226.271C219.235 226.271 218.854 226.117 218.546 225.809C218.238 225.501 218.084 225.12 218.084 224.665C218.084 224.21 218.238 223.829 218.546 223.521C218.854 223.213 219.235 223.059 219.69 223.059C220.13 223.059 220.504 223.213 220.812 223.521C221.12 223.829 221.274 224.21 221.274 224.665C221.274 225.12 221.12 225.501 220.812 225.809C220.504 226.117 220.13 226.271 219.69 226.271ZM220.922 227.877V239.999H218.414V227.877H220.922ZM235.324 233.641C235.324 234.096 235.295 234.506 235.236 234.873H225.974C226.048 235.841 226.407 236.618 227.052 237.205C227.698 237.792 228.49 238.085 229.428 238.085C230.778 238.085 231.731 237.52 232.288 236.391H234.994C234.628 237.506 233.96 238.422 232.992 239.141C232.039 239.845 230.851 240.197 229.428 240.197C228.27 240.197 227.228 239.94 226.304 239.427C225.395 238.899 224.676 238.166 224.148 237.227C223.635 236.274 223.378 235.174 223.378 233.927C223.378 232.68 223.628 231.588 224.126 230.649C224.64 229.696 225.351 228.962 226.26 228.449C227.184 227.936 228.24 227.679 229.428 227.679C230.572 227.679 231.592 227.928 232.486 228.427C233.381 228.926 234.078 229.63 234.576 230.539C235.075 231.434 235.324 232.468 235.324 233.641ZM232.706 232.849C232.692 231.925 232.362 231.184 231.716 230.627C231.071 230.07 230.272 229.791 229.318 229.791C228.453 229.791 227.712 230.07 227.096 230.627C226.48 231.17 226.114 231.91 225.996 232.849H232.706ZM243.909 227.679C244.862 227.679 245.713 227.877 246.461 228.273C247.223 228.669 247.817 229.256 248.243 230.033C248.668 230.81 248.881 231.749 248.881 232.849V239.999H246.395V233.223C246.395 232.138 246.123 231.309 245.581 230.737C245.038 230.15 244.297 229.857 243.359 229.857C242.42 229.857 241.672 230.15 241.115 230.737C240.572 231.309 240.301 232.138 240.301 233.223V239.999H237.793V227.877H240.301V229.263C240.711 228.764 241.232 228.376 241.863 228.097C242.508 227.818 243.19 227.679 243.909 227.679ZM251.244 233.927C251.244 232.68 251.493 231.588 251.992 230.649C252.505 229.696 253.209 228.962 254.104 228.449C254.998 227.936 256.025 227.679 257.184 227.679C258.65 227.679 259.86 228.031 260.814 228.735C261.782 229.424 262.434 230.414 262.772 231.705H260.066C259.846 231.104 259.494 230.634 259.01 230.297C258.526 229.96 257.917 229.791 257.184 229.791C256.157 229.791 255.336 230.158 254.72 230.891C254.118 231.61 253.818 232.622 253.818 233.927C253.818 235.232 254.118 236.252 254.72 236.985C255.336 237.718 256.157 238.085 257.184 238.085C258.636 238.085 259.596 237.447 260.066 236.171H262.772C262.42 237.403 261.76 238.386 260.792 239.119C259.824 239.838 258.621 240.197 257.184 240.197C256.025 240.197 254.998 239.94 254.104 239.427C253.209 238.899 252.505 238.166 251.992 237.227C251.493 236.274 251.244 235.174 251.244 233.927ZM276.381 233.641C276.381 234.096 276.352 234.506 276.293 234.873H267.031C267.104 235.841 267.464 236.618 268.109 237.205C268.754 237.792 269.546 238.085 270.485 238.085C271.834 238.085 272.788 237.52 273.345 236.391H276.051C275.684 237.506 275.017 238.422 274.049 239.141C273.096 239.845 271.908 240.197 270.485 240.197C269.326 240.197 268.285 239.94 267.361 239.427C266.452 238.899 265.733 238.166 265.205 237.227C264.692 236.274 264.435 235.174 264.435 233.927C264.435 232.68 264.684 231.588 265.183 230.649C265.696 229.696 266.408 228.962 267.317 228.449C268.241 227.936 269.297 227.679 270.485 227.679C271.629 227.679 272.648 227.928 273.543 228.427C274.438 228.926 275.134 229.63 275.633 230.539C276.132 231.434 276.381 232.468 276.381 233.641ZM273.763 232.849C273.748 231.925 273.418 231.184 272.773 230.627C272.128 230.07 271.328 229.791 270.375 229.791C269.51 229.791 268.769 230.07 268.153 230.627C267.537 231.17 267.17 231.91 267.053 232.849H273.763Z" fill="#001237"/>
<g clip-path="url(#clip0_1187_19597)">
<path d="M209.126 88.4021C209.126 88.4021 188.474 81.0591 168.203 92.7513C147.933 104.443 137.698 127.649 128.914 146.239C120.13 164.828 125.178 183.741 140.654 192.362C156.13 200.983 166.651 188.274 188.359 187.655C210.068 187.036 215.914 190.139 233.941 177.876C251.967 165.613 255.209 136.649 241.001 115.22C226.793 93.7919 209.126 88.4021 209.126 88.4021Z" fill="white"/>
<path opacity="0.7" d="M209.126 88.4021C209.126 88.4021 188.474 81.0591 168.203 92.7513C147.933 104.443 137.698 127.649 128.914 146.239C120.13 164.828 125.178 183.741 140.654 192.362C156.13 200.983 166.651 188.274 188.359 187.655C210.068 187.036 215.914 190.139 233.941 177.876C251.967 165.613 255.209 136.649 241.001 115.22C226.793 93.7919 209.126 88.4021 209.126 88.4021Z" fill="white"/>
<path d="M130.929 154.765C130.929 154.765 131.425 155.707 130.985 156.59C130.544 157.473 129.989 158.359 130.32 158.802C130.651 159.245 131.654 159.797 131.537 160.736C131.42 161.675 130.099 163.556 130.929 164.608C131.758 165.659 133.141 165.603 133.197 166.764C133.253 167.924 131.862 168.864 132.255 169.915C132.647 170.966 134.923 171.188 134.923 171.905C134.923 172.623 134.037 173.4 134.758 174.173C135.478 174.947 138.952 176.967 139.438 176.137C139.923 175.307 140.937 173.013 140.278 169.755C140.166 169.208 139.387 169.085 139.278 168.311C139.168 167.537 139.499 166.155 138.947 165.376C138.394 164.597 136.623 164.325 136.513 163.717C136.404 163.108 137.175 161.617 136.401 160.677C135.627 159.738 133.802 159.301 133.802 158.687C133.802 158.073 134.357 157.305 133.583 156.475C132.81 155.645 130.929 154.765 130.929 154.765Z" fill="white"/>
<path d="M133.575 161.28C134.728 164.749 136.745 169.464 137.564 171.74C138.559 174.504 139.432 176.505 139.867 179.27C140.302 182.034 140.553 200.549 140.553 200.549" stroke="#263238" stroke-linecap="round" stroke-linejoin="round"/>
<path d="M131.214 155.097C131.214 155.097 132.153 155.87 132.983 159.243C133.036 159.459 133.098 159.689 133.164 159.932" stroke="#263238" stroke-linecap="round" stroke-linejoin="round"/>
<path d="M148.211 161.063C148.098 161.29 148.036 161.537 148.029 161.79C148.021 162.042 148.069 162.293 148.168 162.526C148.52 163.233 148.968 163.94 148.702 164.295C148.435 164.65 147.634 165.095 147.728 165.842C147.821 166.589 148.878 168.1 148.213 168.94C147.549 169.781 146.444 169.741 146.399 170.666C146.354 171.592 147.466 172.347 147.151 173.188C146.837 174.028 145.017 174.207 145.017 174.789C145.017 175.371 145.727 175.984 145.15 176.603C144.574 177.222 141.799 178.831 141.401 178.164C141.004 177.497 140.203 175.664 140.729 173.057C140.817 172.62 141.441 172.524 141.529 171.902C141.618 171.28 141.353 170.175 141.796 169.556C142.239 168.937 143.664 168.716 143.741 168.222C143.819 167.729 143.208 166.541 143.829 165.789C144.451 165.036 145.911 164.682 145.911 164.188C145.911 163.694 145.468 163.081 146.087 162.416C146.706 161.752 148.211 161.063 148.211 161.063Z" fill="white"/>
<path d="M146.092 166.276C145.171 169.059 143.557 172.827 142.89 174.647C142.09 176.861 141.401 178.462 141.049 180.674C140.697 182.886 140.502 197.703 140.502 197.703" stroke="#263238" stroke-linecap="round" stroke-linejoin="round"/>
<path d="M147.99 161.331C147.99 161.331 147.237 161.95 146.575 164.65C146.533 164.824 146.482 165.008 146.429 165.2" stroke="#263238" stroke-linecap="round" stroke-linejoin="round"/>
<path d="M132.996 173.595C133.09 173.783 133.142 173.99 133.148 174.2C133.154 174.411 133.115 174.62 133.033 174.814C132.737 175.406 132.366 175.996 132.588 176.292C132.809 176.588 133.476 176.959 133.402 177.586C133.327 178.213 132.441 179.473 132.996 180.175C133.551 180.876 134.474 180.839 134.512 181.615C134.549 182.392 133.615 183.022 133.882 183.723C134.149 184.425 135.656 184.575 135.656 185.057C135.656 185.54 135.067 186.055 135.547 186.573C136.027 187.091 138.351 188.441 138.685 187.886C139.018 187.331 139.688 185.797 139.245 183.617C139.173 183.251 138.653 183.168 138.578 182.651C138.503 182.133 138.725 181.21 138.357 180.692C137.988 180.175 136.804 179.99 136.729 179.582C136.654 179.174 137.172 178.179 136.654 177.549C136.137 176.919 134.917 176.626 134.917 176.215C134.917 175.804 135.288 175.289 134.77 174.734C134.253 174.179 132.996 173.595 132.996 173.595Z" fill="white"/>
<path d="M134.766 177.952C135.537 180.276 136.884 183.422 137.434 184.943C138.101 186.792 138.68 188.145 138.973 189.978C139.267 191.811 139.432 198.687 139.432 198.687" stroke="#263238" stroke-linecap="round" stroke-linejoin="round"/>
<path d="M133.181 173.815C133.181 173.815 133.81 174.333 134.363 176.588C134.4 176.734 134.44 176.887 134.485 177.047" stroke="#263238" stroke-linecap="round" stroke-linejoin="round"/>
<path d="M152.026 172.675C151.891 172.837 151.793 173.026 151.739 173.23C151.685 173.433 151.675 173.647 151.711 173.854C151.863 174.497 152.09 175.156 151.805 175.394C151.519 175.631 150.791 175.839 150.719 176.461C150.647 177.083 151.223 178.516 150.521 179.073C149.819 179.631 148.92 179.38 148.715 180.141C148.509 180.901 149.248 181.709 148.845 182.334C148.443 182.958 146.924 182.755 146.812 183.225C146.7 183.695 147.162 184.33 146.575 184.725C145.988 185.119 143.426 185.904 143.221 185.282C143.015 184.661 142.725 183.02 143.65 181C143.808 180.661 144.334 180.701 144.523 180.213C144.712 179.724 144.71 178.777 145.187 178.358C145.665 177.939 146.86 178.027 147.026 177.648C147.191 177.27 146.914 176.181 147.559 175.687C148.205 175.194 149.462 175.186 149.555 174.788C149.649 174.39 149.406 173.806 150.038 173.385C150.671 172.963 152.026 172.675 152.026 172.675Z" fill="white"/>
<path d="M149.319 176.507C148.038 178.593 146.005 181.35 145.124 182.705C144.057 184.351 142.768 185.405 142.472 187.254C142.176 189.104 142.016 195.964 142.016 195.964" stroke="#263238" stroke-linecap="round" stroke-linejoin="round"/>
<path d="M151.808 172.847C151.808 172.847 151.077 173.207 150.023 175.275C149.953 175.408 149.879 175.542 149.796 175.694" stroke="#263238" stroke-linecap="round" stroke-linejoin="round"/>
<path d="M138.907 202.632H143.018C145.182 201.517 146.719 198.694 146.719 195.383C146.754 193.397 146.148 191.454 144.99 189.841H136.935C135.781 191.455 135.178 193.399 135.217 195.383C135.217 198.694 136.743 201.517 138.907 202.632Z" fill="white" stroke="#263238" stroke-linecap="round" stroke-linejoin="round"/>
<path d="M143.093 202.632H138.906V203.246H143.093V202.632Z" fill="white" stroke="#263238" stroke-linecap="round" stroke-linejoin="round"/>
<path d="M200.156 99.1885H134.613V148.796H200.156V99.1885Z" stroke="#263238" stroke-linecap="round" stroke-linejoin="round"/>
<path d="M198.625 100.505H136.143V147.485H198.625V100.505Z" stroke="#263238" stroke-linecap="round" stroke-linejoin="round"/>
<path d="M155.188 107.4C155.188 107.4 144.979 106.661 144.12 108.262C143.261 109.863 143.872 139.133 144.365 139.501C144.859 139.87 158.632 140.115 159.985 139.624C161.338 139.133 159.497 109.366 159.497 108.504C159.497 107.643 156.295 107.274 156.295 107.274" stroke="#263238" stroke-width="2" stroke-linecap="round" stroke-linejoin="round"/>
<path d="M145.174 131.626C145.195 135.484 145.278 138.312 145.473 138.39C146.086 138.635 159.123 139.742 159.492 138.512C159.86 137.282 158.507 109.487 158.507 109.487" stroke="#263238" stroke-width="2" stroke-linecap="round" stroke-linejoin="round"/>
<path d="M158.017 109.365C158.017 109.365 145.596 108.874 145.476 109.487C145.396 109.88 145.169 121.404 145.172 129.782" stroke="#263238" stroke-width="2" stroke-linecap="round" stroke-linejoin="round"/>
<path d="M145.841 111.579H157.893" stroke="#263238" stroke-width="2" stroke-linecap="round" stroke-linejoin="round"/>
<path d="M156.787 111.024C156.05 111.803 156.787 111.024 157.28 109.911C157.774 108.799 156.787 110.133 155.679 111.024C154.572 111.915 155.188 111.248 155.556 110.023C155.925 108.799 155.188 110.023 154.204 110.803C153.219 111.582 153.713 111.248 154.081 109.911C154.449 108.575 154.081 109.911 152.605 110.803C151.13 111.694 151.866 111.691 152.605 110.357C153.345 109.023 152.114 110.357 150.762 110.803C149.409 111.248 150.762 110.803 151.253 109.578C151.744 108.353 150.391 109.911 149.409 110.578C148.427 111.245 149.409 110.578 149.654 109.799C149.9 109.02 149.038 110.023 148.053 111.024C147.069 112.025 148.053 111.024 148.176 110.133C148.299 109.242 147.069 111.582 147.069 111.582C147.069 111.582 147.437 109.354 147.192 109.911C147.028 110.269 146.821 110.605 146.575 110.912" stroke="white" stroke-width="2" stroke-linecap="round" stroke-linejoin="round"/>
<path d="M152.482 113.669H146.455V119.942H152.482V113.669Z" stroke="white" stroke-width="2" stroke-linecap="round" stroke-linejoin="round"/>
<path d="M147.685 113.669L146.703 114.776L148.792 114.04L146.703 116.006L150.145 113.792L146.703 117.482L151.375 114.04L146.455 118.589L152.36 114.531L146.455 119.942L152.36 116.006L148.179 119.696L152.482 117.359L149.777 119.574L152.36 118.712L151.866 119.574" stroke="white" stroke-width="2" stroke-linecap="round" stroke-linejoin="round"/>
<path d="M157.677 132.856H153.069V137.654H157.677V132.856Z" stroke="white" stroke-width="2" stroke-linecap="round" stroke-linejoin="round"/>
<path d="M154.009 132.856L153.256 133.702L154.854 133.139L153.256 134.644L155.89 132.95L153.256 135.773L156.829 133.139L153.069 136.619L157.581 133.515L153.069 137.654L157.581 134.644L154.385 137.464L157.677 135.677L155.607 137.371L157.581 136.712L157.205 137.371" stroke="white" stroke-width="2" stroke-linecap="round" stroke-linejoin="round"/>
<path d="M146.332 122.28H158.139" stroke="#263238" stroke-width="2" stroke-linecap="round" stroke-linejoin="round"/>
<path d="M146.209 123.386L157.893 123.508" stroke="#263238" stroke-width="2" stroke-linecap="round" stroke-linejoin="round"/>
<path d="M153.713 114.038H157.526" stroke="#263238" stroke-width="2" stroke-linecap="round" stroke-linejoin="round"/>
<path d="M153.713 115.515H157.526" stroke="#263238" stroke-width="2" stroke-linecap="round" stroke-linejoin="round"/>
<path d="M153.713 116.989H157.526" stroke="#263238" stroke-width="2" stroke-linecap="round" stroke-linejoin="round"/>
<path d="M153.713 118.466H157.526" stroke="#263238" stroke-width="2" stroke-linecap="round" stroke-linejoin="round"/>
<path d="M157.894 124.122H146.455V129.656H157.894V124.122Z" stroke="white" stroke-width="2" stroke-linecap="round" stroke-linejoin="round"/>
<path d="M146.332 125.229L147.931 124.245L146.087 127.073L149.161 124.245L146.455 128.306L151.253 124.122L147.071 129.042L152.237 124.245L148.302 129.042L153.958 124.122L149.409 129.533L155.066 124.245L150.762 129.288L156.541 124.122L152.114 129.533L157.894 124.122L153.713 129.411L157.648 125.968L155.066 129.165L157.648 127.444L157.141 128.266L156.664 129.042" stroke="white" stroke-width="2" stroke-linecap="round" stroke-linejoin="round"/>
<path d="M146.948 131.136H157.525" stroke="#263238" stroke-width="2" stroke-linecap="round" stroke-linejoin="round"/>
<path d="M146.703 132.487H150.145" stroke="#263238" stroke-width="2" stroke-linecap="round" stroke-linejoin="round"/>
<path d="M159.986 110.103L168.428 109.065" stroke="#263238" stroke-width="2" stroke-linecap="round" stroke-linejoin="round"/>
<path d="M158.633 116.13H167.486" stroke="#263238" stroke-width="2" stroke-linecap="round" stroke-linejoin="round"/>
<path d="M144.611 127.321L140.798 128.674" stroke="#263238" stroke-width="2" stroke-linecap="round" stroke-linejoin="round"/>
<path d="M155.433 138.515C155.433 138.515 154.697 142.328 159.737 143.317" stroke="#263238" stroke-width="2" stroke-linecap="round" stroke-linejoin="round"/>
<path d="M159.001 142.325L160.231 143.433L158.508 143.923" stroke="#263238" stroke-width="2" stroke-linecap="round" stroke-linejoin="round"/>
<path d="M166.379 115.021L168.348 116.251L166.627 116.99" stroke="#263238" stroke-width="2" stroke-linecap="round" stroke-linejoin="round"/>
<path d="M166.83 108.696L168.919 108.942L167.444 110.295" stroke="#263238" stroke-width="2" stroke-linecap="round" stroke-linejoin="round"/>
<path d="M141.289 127.446L139.2 129.167L141.783 129.29" stroke="#263238" stroke-width="2" stroke-linecap="round" stroke-linejoin="round"/>
<path d="M173.636 115.021H168.961V119.941H173.636V115.021Z" fill="white"/>
<path d="M170.068 116.13L172.774 116.253" stroke="#263238" stroke-width="2" stroke-linecap="round" stroke-linejoin="round"/>
<path d="M170.068 117.114L172.774 117.237" stroke="#263238" stroke-width="2" stroke-linecap="round" stroke-linejoin="round"/>
<path d="M170.068 118.099L172.774 118.221" stroke="#263238" stroke-width="2" stroke-linecap="round" stroke-linejoin="round"/>
<path d="M166.202 121.652L161.56 122.2L162.136 127.087L166.779 126.539L166.202 121.652Z" fill="white"/>
<path d="M162.787 123.17L165.487 122.976" stroke="#263238" stroke-width="2" stroke-linecap="round" stroke-linejoin="round"/>
<path d="M162.902 124.147L165.603 123.952" stroke="#263238" stroke-width="2" stroke-linecap="round" stroke-linejoin="round"/>
<path d="M163.017 125.123L165.72 124.929" stroke="#263238" stroke-width="2" stroke-linecap="round" stroke-linejoin="round"/>
<path d="M141.977 130.014L137.334 130.562L137.911 135.448L142.553 134.9L141.977 130.014Z" fill="white"/>
<path d="M138.557 131.534L141.26 131.339" stroke="#263238" stroke-width="2" stroke-linecap="round" stroke-linejoin="round"/>
<path d="M138.672 132.512L141.375 132.317" stroke="#263238" stroke-width="2" stroke-linecap="round" stroke-linejoin="round"/>
<path d="M138.789 133.489L141.489 133.294" stroke="#263238" stroke-width="2" stroke-linecap="round" stroke-linejoin="round"/>
<path d="M166.132 140.251L161.483 139.757L160.963 144.649L165.612 145.144L166.132 140.251Z" fill="white"/>
<path d="M162.473 140.974L165.149 141.382" stroke="#263238" stroke-width="2" stroke-linecap="round" stroke-linejoin="round"/>
<path d="M162.368 141.952L165.044 142.36" stroke="#263238" stroke-width="2" stroke-linecap="round" stroke-linejoin="round"/>
<path d="M162.264 142.931L164.94 143.339" stroke="#263238" stroke-width="2" stroke-linecap="round" stroke-linejoin="round"/>
<path d="M200.153 148.796H134.613V150.472H200.153V148.796Z" fill="#263238" stroke="#263238" stroke-linecap="round" stroke-linejoin="round"/>
<path d="M226.453 160.804V157.677H217.042V160.804C217.041 161.828 216.688 162.821 216.042 163.616L215.631 164.126H227.865L227.454 163.616C226.807 162.821 226.454 161.828 226.453 160.804Z" fill="#263238" stroke="#263238" stroke-linecap="round" stroke-linejoin="round"/>
<path d="M225.92 160.804V157.677H216.509V160.804C216.508 161.828 216.155 162.821 215.509 163.616L215.098 164.126H227.332L226.921 163.616C226.274 162.821 225.921 161.828 225.92 160.804Z" fill="white" stroke="#263238" stroke-linecap="round" stroke-linejoin="round"/>
<path d="M225.995 158.56H216.547V159.517H225.995V158.56Z" fill="#263238"/>
<path d="M237.863 130.888H204.563C203.314 130.888 202.301 131.901 202.301 133.15V156.399C202.301 157.648 203.314 158.661 204.563 158.661H237.863C239.113 158.661 240.126 157.648 240.126 156.399V133.15C240.126 131.901 239.113 130.888 237.863 130.888Z" fill="#263238" stroke="#263238" stroke-linecap="round" stroke-linejoin="round"/>
<path d="M238.88 130.888H205.58C204.33 130.888 203.317 131.901 203.317 133.15V156.399C203.317 157.648 204.33 158.661 205.58 158.661H238.88C240.129 158.661 241.142 157.648 241.142 156.399V133.15C241.142 131.901 240.129 130.888 238.88 130.888Z" fill="#263238" stroke="#263238" stroke-linecap="round" stroke-linejoin="round"/>
<path d="M202.301 154.345H240.128V156.399C240.128 156.999 239.89 157.575 239.466 157.999C239.041 158.424 238.466 158.662 237.866 158.662H204.566C203.966 158.662 203.39 158.424 202.966 157.999C202.542 157.575 202.303 156.999 202.303 156.399V154.345H202.301Z" fill="white" stroke="#263238" stroke-linecap="round" stroke-linejoin="round"/>
<path d="M238.223 132.616H204.203V152.238H238.223V132.616Z" fill="white"/>
<path d="M216.042 134.659H209.35C208.902 134.659 208.539 135.022 208.539 135.47V149.292C208.539 149.74 208.902 150.103 209.35 150.103H216.042C216.49 150.103 216.853 149.74 216.853 149.292V135.47C216.853 135.022 216.49 134.659 216.042 134.659Z" fill="#263238"/>
<path d="M216.157 135.954H209.238V148.804H216.157V135.954Z" fill="white"/>
<path d="M225.277 136.171H219.015V136.819H225.277V136.171Z" fill="#263238"/>
<path d="M222.04 137.577H219.124V140.6H222.04V137.577Z" fill="white"/>
<path d="M224.845 146.862H223.284V148.482H224.845V146.862Z" fill="white"/>
<path d="M225.136 142.759H219.196V145.782H225.136V142.759Z" fill="white"/>
<path d="M222.579 137.792H224.954" stroke="#263238" stroke-linecap="round" stroke-linejoin="round"/>
<path d="M222.579 138.548H224.954" stroke="#263238" stroke-linecap="round" stroke-linejoin="round"/>
<path d="M222.579 139.302H224.954" stroke="#263238" stroke-linecap="round" stroke-linejoin="round"/>
<path d="M222.579 140.06H224.954" stroke="#263238" stroke-linecap="round" stroke-linejoin="round"/>
<path d="M219.303 141.788H225.026" stroke="#263238" stroke-linecap="round" stroke-linejoin="round"/>
<path d="M219.303 146.54H225.026" stroke="#263238" stroke-linecap="round" stroke-linejoin="round"/>
<path d="M225.819 135.524H218.476V149.132H225.819V135.524Z" stroke="#263238" stroke-linecap="round" stroke-linejoin="round"/>
<path d="M234.781 135.524H227.87V140.599H234.781V135.524Z" fill="#BFBFBF"/>
<path d="M234.781 135.524H227.87V136.605H234.781V135.524Z" fill="#263238"/>
<path d="M230.214 137.39H228.407V139.137H230.214V137.39Z" stroke="#263238" stroke-linecap="round" stroke-linejoin="round"/>
<path d="M233.826 137.39H232.02V139.137H233.826V137.39Z" stroke="#263238" stroke-linecap="round" stroke-linejoin="round"/>
<path d="M234.117 136.139C234.117 136.192 234.101 136.243 234.072 136.287C234.042 136.331 234.001 136.365 233.952 136.385C233.903 136.406 233.85 136.411 233.798 136.401C233.746 136.39 233.698 136.365 233.661 136.328C233.624 136.29 233.598 136.243 233.588 136.191C233.578 136.139 233.583 136.086 233.603 136.037C233.624 135.988 233.658 135.946 233.702 135.917C233.745 135.888 233.797 135.872 233.85 135.872C233.921 135.872 233.988 135.9 234.038 135.95C234.089 136 234.117 136.068 234.117 136.139Z" fill="white"/>
<path d="M232.601 136.401C232.746 136.401 232.863 136.284 232.863 136.139C232.863 135.995 232.746 135.878 232.601 135.878C232.457 135.878 232.34 135.995 232.34 136.139C232.34 136.284 232.457 136.401 232.601 136.401Z" fill="white"/>
<path d="M234.229 143.353H228.938V147.24H234.229V143.353Z" fill="#BFBFBF"/>
<path d="M234.229 143.353H228.938V144.18H234.229V143.353Z" fill="#263238"/>
<path d="M233.722 143.82C233.722 143.86 233.711 143.9 233.689 143.934C233.667 143.967 233.636 143.994 233.599 144.009C233.562 144.025 233.521 144.03 233.481 144.022C233.442 144.015 233.405 143.995 233.377 143.967C233.348 143.939 233.329 143.903 233.321 143.863C233.312 143.824 233.316 143.783 233.332 143.746C233.347 143.709 233.373 143.677 233.406 143.654C233.44 143.632 233.479 143.62 233.519 143.62C233.573 143.62 233.624 143.641 233.662 143.679C233.7 143.716 233.721 143.767 233.722 143.82Z" fill="white"/>
<path d="M232.762 143.82C232.762 143.873 232.74 143.924 232.703 143.962C232.665 143.999 232.615 144.02 232.561 144.02C232.508 144.02 232.457 143.999 232.42 143.962C232.382 143.924 232.361 143.873 232.361 143.82C232.361 143.767 232.382 143.716 232.42 143.679C232.457 143.641 232.508 143.62 232.561 143.62C232.615 143.62 232.665 143.641 232.703 143.679C232.74 143.716 232.762 143.767 232.762 143.82Z" fill="white"/>
<path d="M207.547 133.647H205.324V151.079H207.547V133.647Z" fill="#BFBFBF"/>
<path d="M207.547 133.647H205.324V134.448H207.547V133.647Z" fill="#263238"/>
<path d="M206.925 134.979H205.857V136.226H206.925V134.979Z" stroke="#263238" stroke-linecap="round" stroke-linejoin="round"/>
<path d="M206.925 137.026H205.857V138.272H206.925V137.026Z" stroke="#263238" stroke-linecap="round" stroke-linejoin="round"/>
<path d="M206.925 139.071H205.857V140.317H206.925V139.071Z" stroke="#263238" stroke-linecap="round" stroke-linejoin="round"/>
<path d="M206.925 141.118H205.857V142.364H206.925V141.118Z" stroke="#263238" stroke-linecap="round" stroke-linejoin="round"/>
<path d="M206.925 143.161H205.857V144.407H206.925V143.161Z" stroke="#263238" stroke-linecap="round" stroke-linejoin="round"/>
<path d="M206.925 145.208H205.857V146.454H206.925V145.208Z" stroke="#263238" stroke-linecap="round" stroke-linejoin="round"/>
<path d="M206.925 147.255H205.857V148.501H206.925V147.255Z" stroke="#263238" stroke-linecap="round" stroke-linejoin="round"/>
<path d="M206.925 149.3H205.857V150.546H206.925V149.3Z" stroke="#263238" stroke-linecap="round" stroke-linejoin="round"/>
<path d="M237.255 133.468H208.972V134.18H237.255V133.468Z" fill="#BFBFBF"/>
<path d="M237.255 150.724H208.972V151.436H237.255V150.724Z" fill="#BFBFBF"/>
<path d="M227.334 164.126H215.098V164.684H227.334V164.126Z" fill="#263238" stroke="#263238" stroke-linecap="round" stroke-linejoin="round"/>
<path d="M235.334 163.669H206.925V164.683H235.334V163.669Z" fill="white" stroke="#263238" stroke-linecap="round" stroke-linejoin="round"/>
<path d="M181.467 203.25H180.312L179.733 167.851H182.046L181.467 203.25Z" fill="white" stroke="#263238" stroke-linecap="round" stroke-linejoin="round"/>
<path d="M181.467 203.25H180.957L181.027 167.851H182.046L181.467 203.25Z" fill="#263238" stroke="#263238" stroke-linecap="round" stroke-linejoin="round"/>
<path d="M197.939 203.25H196.783L196.204 167.851H198.518L197.939 203.25Z" fill="white" stroke="#263238" stroke-linecap="round" stroke-linejoin="round"/>
<path d="M197.939 203.25H197.429L197.498 167.851H198.518L197.939 203.25Z" fill="#263238" stroke="#263238" stroke-linecap="round" stroke-linejoin="round"/>
<path d="M192.041 203.25H190.883L190.307 167.851H192.618L192.041 203.25Z" fill="#263238" stroke="#263238" stroke-linecap="round" stroke-linejoin="round"/>
<path d="M192.041 203.25H191.531L191.598 167.851H192.617L192.041 203.25Z" fill="#263238" stroke="#263238" stroke-linecap="round" stroke-linejoin="round"/>
<path d="M203.171 203.25H202.013L201.437 167.851H203.747L203.171 203.25Z" fill="#263238" stroke="#263238" stroke-linecap="round" stroke-linejoin="round"/>
<path d="M203.171 203.25H202.658L202.728 167.851H203.747L203.171 203.25Z" fill="#263238" stroke="#263238" stroke-linecap="round" stroke-linejoin="round"/>
<path d="M204.038 168.392H185.9V190.538H204.038V168.392Z" fill="#263238" stroke="#263238" stroke-linecap="round" stroke-linejoin="round"/>
<path d="M199.03 168.392H180.891V190.538H199.03V168.392Z" fill="white" stroke="#263238" stroke-linecap="round" stroke-linejoin="round"/>
<path d="M235.664 203.25H234.509L233.93 167.851H236.243L235.664 203.25Z" fill="white" stroke="#263238" stroke-linecap="round" stroke-linejoin="round"/>
<path d="M235.664 203.25H235.155L235.224 167.851H236.243L235.664 203.25Z" fill="#263238" stroke="#263238" stroke-linecap="round" stroke-linejoin="round"/>
<path d="M246.239 203.25H245.08L244.504 167.851H246.815L246.239 203.25Z" fill="#263238" stroke="#263238" stroke-linecap="round" stroke-linejoin="round"/>
<path d="M246.238 203.25H245.729L245.795 167.851H246.815L246.238 203.25Z" fill="#263238" stroke="#263238" stroke-linecap="round" stroke-linejoin="round"/>
<path d="M247.546 166.517H178.209V168.953H247.546V166.517Z" fill="white" stroke="#263238" stroke-linecap="round" stroke-linejoin="round"/>
<path d="M247.546 166.517H178.209V167.733H247.546V166.517Z" fill="#263238" stroke="#263238" stroke-linecap="round" stroke-linejoin="round"/>
<path d="M247.546 166.517H237.311V168.953H247.546V166.517Z" fill="#263238" stroke="#263238" stroke-linecap="round" stroke-linejoin="round"/>
<path d="M249.788 164.56H176.328V166.996H249.788V164.56Z" fill="white" stroke="#263238" stroke-linecap="round" stroke-linejoin="round"/>
<path d="M249.788 164.56H239.552V166.996H249.788V164.56Z" fill="#263238" stroke="#263238" stroke-linecap="round" stroke-linejoin="round"/>
<path d="M197.919 170.519H182.043V178.256H197.919V170.519Z" fill="white" stroke="#263238" stroke-linecap="round" stroke-linejoin="round"/>
<path d="M191.716 173.587H188.247V174.788H191.716V173.587Z" fill="#263238" stroke="#263238" stroke-linecap="round" stroke-linejoin="round"/>
<path d="M197.919 180.255H182.043V187.993H197.919V180.255Z" fill="white" stroke="#263238" stroke-linecap="round" stroke-linejoin="round"/>
<path d="M191.716 183.325H188.247V184.526H191.716V183.325Z" fill="#263238" stroke="#263238" stroke-linecap="round" stroke-linejoin="round"/>
<path d="M222.358 182.562H227.102V173.02H222.358V182.562Z" fill="#263238"/>
<path d="M223.546 192.384H225.918V179.171H223.546V192.384Z" fill="#263238"/>
<path d="M225.696 191.37C225.696 191.37 227.689 193.633 232.812 194.42C235.518 194.836 238.336 195.354 240.78 196.648C242.351 197.48 245.481 199.303 245.481 201.384C245.484 201.69 245.411 201.991 245.27 202.262C245.128 202.533 244.923 202.766 244.671 202.939C244.419 203.112 244.128 203.22 243.824 203.255C243.521 203.289 243.213 203.249 242.929 203.137C242.644 203.025 242.392 202.844 242.193 202.612C241.995 202.38 241.856 202.102 241.79 201.804C241.724 201.505 241.732 201.195 241.813 200.9C241.895 200.606 242.048 200.336 242.258 200.114C240.978 198.189 238.994 196.843 236.732 196.365C232.836 195.517 229.992 195.863 224.511 192.219L225.696 191.37Z" fill="#263238"/>
<path d="M224.002 191.37C224.002 191.37 222.008 193.633 216.885 194.42C214.18 194.836 211.362 195.354 208.918 196.648C207.344 197.48 204.217 199.303 204.217 201.384C204.214 201.69 204.286 201.992 204.427 202.263C204.568 202.535 204.774 202.767 205.026 202.941C205.278 203.114 205.569 203.223 205.873 203.257C206.177 203.292 206.485 203.251 206.77 203.139C207.054 203.027 207.307 202.846 207.505 202.614C207.704 202.381 207.842 202.103 207.908 201.804C207.974 201.505 207.966 201.195 207.884 200.9C207.801 200.606 207.648 200.336 207.437 200.114C208.718 198.189 210.702 196.843 212.963 196.365C216.861 195.517 219.706 195.863 225.186 192.219L224.002 191.37Z" fill="#263238"/>
<path d="M223.922 203.247H225.712C225.81 203.247 225.888 203.168 225.888 203.071V199.922C225.888 199.825 225.81 199.746 225.712 199.746H223.922C223.825 199.746 223.746 199.825 223.746 199.922V203.071C223.746 203.168 223.825 203.247 223.922 203.247Z" fill="#263238"/>
<path d="M224.309 203.247H225.325V191.686H224.309V203.247Z" fill="#263238"/>
<path d="M236.219 145.47C235.627 148.628 235.27 151.827 235.152 155.038C235.074 157.514 235.034 159.635 234.997 161.506C234.885 167.32 234.821 170.543 233.906 171.41C233.788 171.49 233.031 171.957 231.446 172.091C231.003 172.128 229.594 172.147 227.678 172.157C221.602 172.139 215.217 172.088 215.116 172.088H214.745C214.729 172.088 214.716 172.117 214.702 172.131C211.052 172.109 210.113 172.088 210.046 172.088H209.675C208.91 172.752 209.366 173.606 210.033 173.612C210.532 173.612 219.228 173.689 225.175 173.689C226.227 173.689 227.216 173.689 228.094 173.689H232.113C235.226 173.689 237.807 173.668 238.516 173.609C240.718 173.427 241.705 172.683 241.809 172.598C243.277 171.296 243.333 168.438 243.469 161.538C243.503 159.67 243.546 157.551 243.621 155.086C243.741 151.861 244.106 148.65 244.715 145.48L236.219 145.47Z" fill="#263238"/>
<path d="M189.048 195.29L189.648 198.425C189.648 198.425 189.115 199.559 187.047 200.493C184.979 201.427 183.978 201.827 183.978 202.094C183.978 202.361 183.845 202.961 184.378 203.161C184.912 203.361 196.252 203.161 196.252 203.161C196.252 203.161 196.852 202.894 196.852 201.627C196.852 200.36 196.319 198.025 196.319 197.491C196.319 196.958 195.943 195.672 195.943 195.49C195.943 195.309 191.383 195.557 191.383 195.557C191.383 195.557 190.048 194.289 189.048 195.29Z" fill="white" stroke="#263238" stroke-linecap="round" stroke-linejoin="round"/>
<path d="M191.382 195.558C191.382 195.558 191.716 198.559 191.916 198.759C192.116 198.96 196.318 198.96 196.318 198.96" fill="white"/>
<path d="M191.382 195.558C191.382 195.558 191.716 198.559 191.916 198.759C192.116 198.96 196.318 198.96 196.318 198.96" stroke="#263238" stroke-linecap="round" stroke-linejoin="round"/>
<path d="M196.319 197.491L191.65 197.558" stroke="#263238" stroke-linecap="round" stroke-linejoin="round"/>
<path d="M183.978 202.628H196.719" stroke="#263238" stroke-linecap="round" stroke-linejoin="round"/>
<path d="M197.386 157.69C197.386 157.69 193.688 170.14 193.234 171.856C192.781 173.572 195.401 188.637 195.401 188.906C195.401 189.176 195.761 189.989 195.761 190.891C195.761 191.793 195.401 192.063 195.582 192.335C195.764 192.607 196.383 193.237 196.303 193.778C196.275 194.196 196.083 194.585 195.769 194.862C195.57 195.069 195.323 195.224 195.049 195.313H192.882C192.882 195.313 192.348 191.251 190.897 180.517C189.445 169.783 191.802 163.646 192.252 161.661C192.559 160.38 193.013 159.139 193.605 157.963L197.386 157.69Z" fill="#263238" stroke="#263238" stroke-linecap="round" stroke-linejoin="round"/>
<path d="M185.979 195.29L186.58 198.425C186.58 198.425 186.046 199.559 183.978 200.493C181.91 201.427 180.91 201.827 180.91 202.094C180.91 202.361 180.776 202.961 181.31 203.161C181.844 203.361 193.184 203.161 193.184 203.161C193.184 203.161 193.784 202.894 193.784 201.627C193.784 200.36 193.25 198.025 193.25 197.491C193.25 196.958 192.874 195.672 192.874 195.49C192.874 195.309 188.314 195.557 188.314 195.557C188.314 195.557 186.98 194.289 185.979 195.29Z" fill="white" stroke="#263238" stroke-linecap="round" stroke-linejoin="round"/>
<path d="M188.314 195.558C188.314 195.558 188.647 198.559 188.847 198.759C189.047 198.96 193.25 198.96 193.25 198.96" fill="white"/>
<path d="M188.314 195.558C188.314 195.558 188.647 198.559 188.847 198.759C189.047 198.96 193.25 198.96 193.25 198.96" stroke="#263238" stroke-linecap="round" stroke-linejoin="round"/>
<path d="M193.25 197.491L188.58 197.558" stroke="#263238" stroke-linecap="round" stroke-linejoin="round"/>
<path d="M180.909 202.628H193.65" stroke="#263238" stroke-linecap="round" stroke-linejoin="round"/>
<path d="M182.5 157.69C182.5 157.69 182.409 165.54 182.86 168.878C183.311 172.216 185.027 179.976 185.296 184.215C185.566 188.455 186.019 190.443 186.019 190.443C186.019 190.443 185.379 190.977 185.379 191.51C185.379 192.044 185.739 192.044 185.646 192.866C185.552 193.688 185.195 193.946 185.467 194.309C185.739 194.672 185.918 195.39 186.82 195.571C187.722 195.753 191.961 195.662 192.863 195.481C193.765 195.299 194.216 194.397 194.216 193.677C194.216 192.956 193.949 192.415 193.949 191.601C193.949 190.787 194.4 190.069 194.4 189.528C194.4 188.986 194.219 188.714 194.219 188.172C194.219 187.631 193.047 178.972 193.047 177.169C193.047 175.365 192.957 169.228 193.226 167.694C193.496 166.159 194.851 158.854 194.851 158.854L182.5 157.69Z" fill="white" stroke="#263238" stroke-linecap="round" stroke-linejoin="round"/>
<path d="M188.218 160.337C189.289 160.704 190.406 160.922 191.537 160.985C192.406 161.009 193.272 161.091 194.131 161.228L194.616 158.96L188.218 160.337Z" fill="#263238" stroke="#263238" stroke-linecap="round" stroke-linejoin="round"/>
<path d="M187.228 160.726C187.228 160.726 187.671 173.122 188.562 177.255C189.453 181.388 190.627 188.176 190.334 189.062C190.04 189.948 189.595 192.013 189.595 192.013C189.595 192.013 191.22 191.72 191.22 192.603C191.22 193.486 188.858 194.081 189.448 194.524C190.038 194.967 190.625 195.453 190.625 195.453" stroke="#263238" stroke-linecap="round" stroke-linejoin="round"/>
<path d="M192.471 192.409C192.471 192.409 187.572 193.209 188.962 193.476C190.353 193.743 193.002 193.409 193.136 193.078C193.269 192.748 192.869 192.342 192.471 192.409Z" fill="#263238" stroke="#263238" stroke-linecap="round" stroke-linejoin="round"/>
<path d="M170.848 106.699L170.712 112.238L175.937 112.193L175.982 106.653L170.848 106.699Z" fill="white"/>
<path d="M176.792 116.92C176.792 116.92 175.666 115.794 175.17 114.759C174.674 113.724 173.956 113.094 173.956 112.374C173.956 111.653 174.271 109.972 174.135 109.31C173.999 108.649 174.135 107.24 174.586 107.24C174.69 107.24 174.794 107.264 174.888 107.309C174.982 107.355 175.065 107.421 175.13 107.503C175.195 107.585 175.24 107.681 175.263 107.783C175.286 107.886 175.285 107.992 175.261 108.094C175.17 108.545 175.528 110.122 175.528 110.122C175.528 110.122 175.888 107.104 175.933 106.92C175.979 106.736 176.608 106.738 176.88 106.874C177.153 107.01 177.465 106.962 177.465 107.549C177.465 108.136 177.329 108.809 177.329 108.945C177.329 109.081 178.591 109.801 178.636 110.34C178.681 110.879 178.545 112.187 178.231 112.742C178.015 113.077 177.836 113.435 177.697 113.809C177.652 113.988 178.914 115.88 178.914 115.88L176.792 116.92Z" fill="white" stroke="#263238" stroke-linecap="round" stroke-linejoin="round"/>
<path d="M178.892 115.019L175.823 117.364C175.823 117.364 181.056 128.189 181.237 128.539C181.419 128.888 185.205 131.247 185.205 131.247L190.888 124.208C190.888 124.208 183.761 121.953 183.583 121.684C183.404 121.414 178.892 115.019 178.892 115.019Z" fill="#263238" stroke="#263238" stroke-linecap="round" stroke-linejoin="round"/>
<path d="M182.51 154.8L182.243 159.003C182.243 159.003 185.712 160.47 189.448 160.403C193.183 160.337 198.186 158.869 198.186 158.869L198.92 154.733C198.92 154.733 189.915 155.467 187.18 155.2C184.445 154.934 182.51 154.8 182.51 154.8Z" fill="white" stroke="#263238" stroke-linecap="round" stroke-linejoin="round"/>
<path d="M179.842 153.464L179.642 154.665C179.642 154.665 182.468 156.207 188.714 156.799C192.558 157.154 196.434 156.746 200.121 155.598L200.187 153.531C196.865 154.322 193.463 154.725 190.048 154.731C186.613 154.642 183.195 154.218 179.842 153.464Z" fill="#263238" stroke="#263238" stroke-linecap="round" stroke-linejoin="round"/>
<path d="M184.912 128.651C184.912 128.651 182.711 132.52 181.977 135.522C181.243 138.523 179.776 152.398 179.576 153.199C179.376 153.999 184.045 155.6 187.114 155.667C190.182 155.733 197.053 155.867 198.253 155.4C199.454 154.933 200.588 154.266 200.588 153.532C200.588 152.798 200.655 150.063 200.655 147.862C200.655 145.661 199.988 134.054 199.387 131.386C198.787 128.718 198.387 126.85 198.187 126.516C197.987 126.183 196.519 124.582 193.517 124.782C191.174 124.954 188.898 125.637 186.847 126.783C186.086 127.273 185.429 127.908 184.912 128.651Z" fill="#263238" stroke="#263238" stroke-linecap="round" stroke-linejoin="round"/>
<path d="M164.793 132.964C164.793 132.964 163.71 133.414 163.619 134.498C163.529 135.581 165.517 136.662 166.688 138.287C167.859 139.912 169.394 141.614 169.394 141.614L171.742 144.861L174.538 142.516L167.32 134.143C167.32 134.143 167.681 133.342 167.23 133.06C166.85 132.883 166.439 132.784 166.021 132.767C165.603 132.751 165.186 132.817 164.793 132.964Z" fill="white" stroke="#263238" stroke-linecap="round" stroke-linejoin="round"/>
<path d="M164.975 135.489L173.105 132.78C173.105 132.78 173.639 135.038 176.08 137.383C177.544 138.793 179.113 140.09 180.773 141.263L173.465 145.412L164.975 135.489Z" fill="white" stroke="#263238" stroke-linecap="round" stroke-linejoin="round"/>
<path d="M164.975 135.488C165.333 135.087 165.553 134.581 165.604 134.045C165.629 133.797 165.56 133.55 165.412 133.349C165.264 133.149 165.048 133.011 164.804 132.962L172.833 130.616C172.833 130.616 174.367 131.15 173.099 132.78L164.975 135.488Z" fill="white" stroke="#263238" stroke-linecap="round" stroke-linejoin="round"/>
<path d="M175.733 144.068C175.733 144.068 173.93 143.802 173.839 143.268C173.748 142.734 173.388 141.555 173.039 141.104C172.689 140.653 170.963 139.751 170.421 139.119C169.879 138.486 169.519 137.585 169.159 137.675C168.799 137.766 168.257 138.126 168.436 138.476C168.615 138.825 169.428 140.373 169.428 140.373L169.61 141.003C169.61 141.003 167.985 140.736 167.715 140.642C167.637 140.62 167.554 140.617 167.474 140.635C167.394 140.652 167.32 140.688 167.257 140.741C167.195 140.794 167.146 140.861 167.116 140.937C167.086 141.013 167.074 141.095 167.083 141.176C167.083 141.627 166.723 141.627 167.174 141.896C167.625 142.166 168.166 142.529 168.166 142.529C168.166 142.529 168.799 143.972 168.967 144.242C169.135 144.511 170.592 145.146 170.861 145.325C171.131 145.504 172.577 145.957 173.297 146.126C174.018 146.294 175.643 146.939 175.643 146.939L176.094 144.864L175.733 144.068Z" fill="white" stroke="#263238" stroke-linecap="round" stroke-linejoin="round"/>
<path d="M194.859 131.617C194.859 131.617 194.677 139.286 194.677 139.646C194.677 140.006 194.944 147.405 194.144 148.035C193.343 148.664 189.362 149.478 183.588 149.299C177.814 149.121 175.287 147.856 175.287 147.856L175.738 144.067L186.745 143.267C186.745 143.267 185.573 134.878 185.752 131.991C185.931 129.104 188.279 127.569 188.279 127.569" fill="#263238"/>
<path d="M194.859 131.617C194.859 131.617 194.677 139.286 194.677 139.646C194.677 140.006 194.944 147.405 194.144 148.035C193.343 148.664 189.362 149.478 183.588 149.299C177.814 149.121 175.287 147.856 175.287 147.856L175.738 144.067L186.745 143.267C186.745 143.267 185.573 134.878 185.752 131.991C185.931 129.104 188.279 127.569 188.279 127.569" stroke="#263238" stroke-linecap="round" stroke-linejoin="round"/>
<path d="M182.711 149.637C182.711 149.637 193.635 150.018 194.211 148.676C194.788 147.334 194.785 134.11 194.785 134.11" stroke="#707070" stroke-linecap="round" stroke-linejoin="round"/>
<path d="M187.514 129.126C187.514 129.126 185.211 131.618 185.595 134.876C185.98 138.134 186.748 143.254 186.748 143.254L182.53 143.502" stroke="#707070" stroke-linecap="round" stroke-linejoin="round"/>
<path d="M182.852 108.293C182.852 108.293 181.339 110.911 181.63 111.257C181.92 111.604 181.688 112.247 181.688 112.247C181.688 112.247 180.175 113.411 180.293 113.816C180.41 114.222 181.627 115.329 181.627 115.329C181.627 115.329 181.859 118.47 182.161 118.76C182.462 119.051 184.429 119.398 184.829 119.457C185.05 119.484 185.265 119.543 185.469 119.633L186.63 125.911L193.143 120.041L192.097 117.25C192.097 117.25 191.515 113.515 191.563 111.786C191.612 110.057 188.596 107.946 186.795 107.423C184.994 106.9 182.852 108.293 182.852 108.293Z" fill="white" stroke="#263238" stroke-linecap="round" stroke-linejoin="round"/>
<path d="M184.072 104.743C184.072 104.743 182.562 103.174 180.758 104.396C178.954 105.618 179.48 107.598 181.107 108.292C182.735 108.986 184.653 108.465 184.016 109.165C183.378 109.864 183.215 111.374 184.189 111.665C185.163 111.955 185.003 113.06 185.003 113.532C185.003 114.005 185.803 113.941 185.993 113.532C186.182 113.124 186.631 112.022 187.735 112.486C188.84 112.951 188.784 115.51 188.376 116.15C187.967 116.79 187.562 116.732 187.562 116.732C187.562 116.732 188.202 116.964 187.794 117.719L187.388 118.477C187.388 118.477 188.317 119.581 190.644 119.173C192.97 118.765 193.493 117.719 193.144 116.849C192.794 115.979 191.98 115.859 192.853 114.581C193.725 113.303 195.879 111.787 195.703 108.882C195.588 106.963 191.052 105.146 191.052 105.146C191.052 105.146 192.098 103.401 189.718 102.296C187.338 101.192 184.603 102.473 184.776 103.631C184.95 104.789 184.072 104.743 184.072 104.743Z" fill="#263238" stroke="#263238" stroke-linecap="round" stroke-linejoin="round"/>
<path d="M181.614 111.047C181.614 111.047 180.875 110.849 180.813 111.199C180.752 111.548 180.813 113.291 180.813 113.291C181.074 113.453 181.383 113.515 181.686 113.467C182.094 113.349 181.859 111.895 181.859 111.895" stroke="#263238" stroke-linecap="round" stroke-linejoin="round"/>
<path d="M186.225 113.002L180.869 112.116L180.875 111.78L186.225 113.002Z" fill="#263238" stroke="#263238" stroke-linecap="round" stroke-linejoin="round"/>
<path d="M193.902 118.236C193.902 118.236 190.935 120.387 188.899 122.596C186.863 124.806 184.421 127.25 184.312 128.005C184.203 128.76 184.427 129.923 185.59 128.701C186.753 127.479 188.904 125.854 190.534 125.737C192.165 125.619 194.662 126.436 195.94 126.609C197.218 126.783 198.035 127.143 198.499 126.436C198.963 125.729 197.744 124.168 197.744 123.351C197.744 122.535 197.917 121.142 197.336 120.149C196.754 119.157 194.889 117.945 193.902 118.236Z" fill="#757575" stroke="#263238" stroke-linecap="round" stroke-linejoin="round"/>
<path d="M197.701 121.114C197.535 121.679 197.31 122.225 197.028 122.742C196.689 123.246 191.921 124.201 191.921 124.201C191.921 124.201 195.849 123.977 196.577 123.977C197.306 123.977 198.149 124.65 198.149 124.65L197.757 123.582C197.757 123.582 197.919 121.621 197.701 121.114Z" fill="#263238" stroke="#263238" stroke-linecap="round" stroke-linejoin="round"/>
</g>
<defs>
<linearGradient id="paint0_linear_1187_19597" x1="149.792" y1="99.1009" x2="290.366" y2="326.901" gradientUnits="userSpaceOnUse">
<stop stop-color="white"/>
<stop offset="1" stop-color="#BBC9D8"/>
</linearGradient>
<linearGradient id="paint1_linear_1187_19597" x1="159.783" y1="115.29" x2="265.772" y2="287.045" gradientUnits="userSpaceOnUse">
<stop stop-color="white"/>
<stop offset="1" stop-color="#BBC9D8"/>
</linearGradient>
<clipPath id="clip0_1187_19597">
<rect width="126" height="113.294" fill="white" transform="translate(127.419 93.999)"/>
</clipPath>
</defs>
</svg>
