<svg width="20" height="20" viewBox="0 0 20 20" fill="none" xmlns="http://www.w3.org/2000/svg">
<path d="M7.25499 5.05899V11.098C7.25399 11.184 7.27399 11.269 7.31299 11.346C7.44899 11.617 7.77799 11.727 8.04899 11.592L9.99999 10.614L11.951 11.59C12.027 11.628 12.111 11.648 12.197 11.648C12.5 11.648 12.746 11.402 12.746 11.099V5.05999H19.334V19.335H0.666992V5.05999H7.25499V5.05899ZM8.19899 0.666992L7.37499 3.96099H1.00499L2.65199 0.666992H8.19799H8.19899ZM17.347 0.666992L18.994 3.96099H12.624L11.8 0.666992H17.347Z" fill="url(#paint0_linear_556_581)"/>
<defs>
<linearGradient id="paint0_linear_556_581" x1="20.0243" y1="4.95372" x2="0.449353" y2="6.36941" gradientUnits="userSpaceOnUse">
<stop stop-color="#001237"/>
<stop offset="0.190429" stop-color="#03045E"/>
<stop offset="0.780728" stop-color="#03045E"/>
<stop offset="1" stop-color="#001237"/>
</linearGradient>
</defs>
</svg>
