<svg width="41" height="32" viewBox="0 0 41 32" fill="none" xmlns="http://www.w3.org/2000/svg">
<g clip-path="url(#clip0_237_3279)">
<path d="M25.4581 16.4338L31.2947 10.7525L33.362 12.6581C33.6615 12.9638 34.0632 13.1203 34.4796 13.1203C34.6695 13.1203 34.8595 13.0847 35.0421 13.0136C35.6484 12.7861 36.0429 12.2314 36.0429 11.5986V6.23015C36.0429 5.39111 35.3416 4.7085 34.4796 4.7085H28.643C28.0294 4.7085 27.4669 5.06402 27.2185 5.61153C26.9702 6.15905 27.0725 6.79899 27.4888 7.24696L29.7972 9.37301L24.0044 15.0117L25.4581 16.4338ZM33.9829 6.71367V10.4751L29.8921 6.71367H33.9829Z" fill="url(#paint0_linear_237_3279)"/>
<path fill-rule="evenodd" clip-rule="evenodd" d="M15.6348 3H33.8494C36.0585 3 37.8494 4.79086 37.8494 7V18.5357C37.8494 20.7449 36.0585 22.5357 33.8494 22.5357H24.4133V25.5357H33.8494C37.7154 25.5357 40.8494 22.4017 40.8494 18.5357V7C40.8494 3.13401 37.7154 0 33.8494 0H15.6348C11.7688 0 8.63477 3.13401 8.63477 7V15.0595H11.6348V7C11.6348 4.79086 13.4256 3 15.6348 3Z" fill="url(#paint1_linear_237_3279)"/>
<path d="M15.1273 15.605C17.1616 15.605 19.1125 16.4098 20.551 17.8424C21.9894 19.2749 22.7975 21.2179 22.7975 23.2439C22.7975 25.2698 21.9894 27.2128 20.551 28.6454C19.1125 30.0779 17.1616 30.8828 15.1273 30.8828C13.0931 30.8828 11.1422 30.0779 9.70373 28.6454C8.2653 27.2128 7.4572 25.2698 7.4572 23.2439C7.4572 21.2179 8.2653 19.2749 9.70373 17.8424C11.1422 16.4098 13.0931 15.605 15.1273 15.605ZM15.1273 17.5147C13.6017 17.5147 12.1385 18.1183 11.0596 19.1927C9.98081 20.2672 9.37473 21.7244 9.37473 23.2439C9.37473 24.7633 9.98081 26.2206 11.0596 27.295C12.1385 28.3694 13.6017 28.973 15.1273 28.973C16.653 28.973 18.1162 28.3694 19.195 27.295C20.2739 26.2206 20.8799 24.7633 20.8799 23.2439C20.8799 21.7244 20.2739 20.2672 19.195 19.1927C18.1162 18.1183 16.653 17.5147 15.1273 17.5147ZM14.1686 19.4244H15.6067V23.0338L17.8407 25.2586L16.8244 26.2708L14.1686 23.6258V19.4244ZM2.66336 28.973C2.40908 28.973 2.16521 28.8724 1.98541 28.6934C1.8056 28.5143 1.70459 28.2714 1.70459 28.0182C1.70459 27.7649 1.8056 27.5221 1.98541 27.343C2.16521 27.1639 2.40908 27.0633 2.66336 27.0633H6.33544C6.63266 27.7413 7.01616 28.381 7.4572 28.973H2.66336ZM3.62213 24.1987C3.36784 24.1987 3.12398 24.0981 2.94417 23.9191C2.76437 23.74 2.66336 23.4971 2.66336 23.2439C2.66336 22.9906 2.76437 22.7478 2.94417 22.5687C3.12398 22.3896 3.36784 22.289 3.62213 22.289H5.5876L5.53966 23.2439L5.5876 24.1987H3.62213ZM4.58089 19.4244C4.32661 19.4244 4.08275 19.3238 3.90294 19.1448C3.72314 18.9657 3.62213 18.7228 3.62213 18.4696C3.62213 18.2163 3.72314 17.9734 3.90294 17.7944C4.08275 17.6153 4.32661 17.5147 4.58089 17.5147H7.4572C7.01616 18.1067 6.63266 18.7465 6.33544 19.4244H4.58089Z" fill="url(#paint2_radial_237_3279)"/>
</g>
<defs>
<linearGradient id="paint0_linear_237_3279" x1="30.0236" y1="4.7085" x2="30.0236" y2="16.4338" gradientUnits="userSpaceOnUse">
<stop stop-color="#2D5DF2"/>
<stop offset="0.482292" stop-color="#7844FE"/>
<stop offset="1" stop-color="#BF25FE"/>
</linearGradient>
<linearGradient id="paint1_linear_237_3279" x1="8.63477" y1="12.7679" x2="40.8494" y2="12.7679" gradientUnits="userSpaceOnUse">
<stop stop-color="#285EF1"/>
<stop offset="0.5" stop-color="#7C42FE"/>
<stop offset="1" stop-color="#C025FE"/>
</linearGradient>
<radialGradient id="paint2_radial_237_3279" cx="0" cy="0" r="1" gradientUnits="userSpaceOnUse" gradientTransform="translate(13.5658 15.714) rotate(94.9538) scale(15.2256 21.0196)">
<stop stop-color="#77C0FB"/>
<stop offset="1" stop-color="#7148FF"/>
</radialGradient>
<clipPath id="clip0_237_3279">
<rect width="40.1039" height="31.4286" fill="white" transform="translate(0.745605)"/>
</clipPath>
</defs>
</svg>
