<svg width="31" height="31" viewBox="0 0 31 31" fill="none" xmlns="http://www.w3.org/2000/svg">
<path d="M28.7915 13.3335C29.8973 13.3335 30.7967 12.4365 30.7967 11.3335C30.7967 10.2305 29.8973 9.3335 28.7915 9.3335C27.6856 9.3335 26.7863 10.2305 26.7863 11.3335C26.7863 11.5635 26.8334 11.781 26.9051 11.987L24.1033 13.85C23.5524 13.512 22.9042 13.319 22.2114 13.334C21.9884 12.472 21.2023 11.8335 20.2694 11.8335C20.2694 11.7395 20.2609 11.6475 20.2554 11.5545L25.2729 6.55C25.5711 6.726 25.914 6.8335 26.285 6.8335C27.3909 6.8335 28.2902 5.9365 28.2902 4.8335C28.2902 3.7305 27.3909 2.8335 26.285 2.8335C25.1791 2.8335 24.2798 3.7305 24.2798 4.8335C24.2798 5.2035 24.3876 5.5455 24.564 5.843L20.0213 10.374C19.7094 9.471 19.1194 8.6975 18.3504 8.1565L19.6328 4.3195C19.6784 4.323 19.722 4.3335 19.7681 4.3335C20.874 4.3335 21.7733 3.4365 21.7733 2.3335C21.7733 1.2305 20.874 0.333496 19.7681 0.333496C18.6622 0.333496 17.7629 1.2305 17.7629 2.3335C17.7629 3.036 18.1294 3.652 18.6798 4.009L17.4571 7.6675C16.9318 7.4535 16.3588 7.3335 15.7577 7.3335C15.1587 7.3335 14.5862 7.455 14.0593 7.67L12.8356 4.009C13.3861 3.652 13.7525 3.036 13.7525 2.3335C13.7525 1.2305 12.8532 0.333496 11.7473 0.333496C10.6415 0.333496 9.74213 1.2305 9.74213 2.3335C9.74213 3.4365 10.6415 4.3335 11.7473 4.3335C11.7934 4.3335 11.8371 4.323 11.8827 4.32L13.165 8.157C12.3995 8.6955 11.8075 9.467 11.4952 10.375L6.9514 5.843C7.12785 5.5455 7.23563 5.2035 7.23563 4.8335C7.23563 3.7305 6.3363 2.8335 5.23044 2.8335C4.12457 2.8335 3.22524 3.7305 3.22524 4.8335C3.22524 5.9365 4.12457 6.8335 5.23044 6.8335C5.6014 6.8335 5.94429 6.726 6.24256 6.55L10.7011 10.997C9.55915 11.3495 8.66133 12.2595 8.35403 13.4495C8.01515 13.5365 7.70284 13.678 7.4151 13.852L4.60983 11.9865C4.68202 11.781 4.72914 11.5635 4.72914 11.3335C4.72914 10.2305 3.82981 9.3335 2.72394 9.3335C1.61808 9.3335 0.71875 10.2305 0.71875 11.3335C0.71875 12.4365 1.61808 13.3335 2.72394 13.3335C3.23627 13.3335 3.69947 13.135 4.05389 12.819L6.61452 14.5215C6.0661 15.14 5.73174 15.946 5.73174 16.8335C5.73174 17.059 5.7553 17.2785 5.7959 17.4925L4.37372 18.2015C4.01228 17.678 3.40822 17.3335 2.72394 17.3335C1.61808 17.3335 0.71875 18.2305 0.71875 19.3335C0.71875 20.4365 1.61808 21.3335 2.72394 21.3335C3.82981 21.3335 4.72914 20.4365 4.72914 19.3335C4.72914 19.2715 4.71611 19.2125 4.71059 19.152L6.12877 18.445C6.71478 19.565 7.88832 20.3335 9.24083 20.3335H10.0359L6.24256 24.117C5.94429 23.941 5.6014 23.8335 5.23044 23.8335C4.12457 23.8335 3.22524 24.7305 3.22524 25.8335C3.22524 26.9365 4.12457 27.8335 5.23044 27.8335C6.3363 27.8335 7.23563 26.9365 7.23563 25.8335C7.23563 25.4635 7.12785 25.1215 6.9514 24.824L11.4536 20.3335H13.5891L11.8671 26.3455C11.8265 26.343 11.7884 26.3335 11.7473 26.3335C10.6415 26.3335 9.74213 27.2305 9.74213 28.3335C9.74213 29.4365 10.6415 30.3335 11.7473 30.3335C12.8532 30.3335 13.7525 29.4365 13.7525 28.3335C13.7525 27.6255 13.3795 27.0065 12.8221 26.651L14.6318 20.3335H16.8836L18.6933 26.651C18.1359 27.0065 17.7629 27.6255 17.7629 28.3335C17.7629 29.4365 18.6622 30.3335 19.7681 30.3335C20.874 30.3335 21.7733 29.4365 21.7733 28.3335C21.7733 27.2305 20.874 26.3335 19.7681 26.3335C19.727 26.3335 19.6889 26.343 19.6483 26.3455L17.9263 20.3335H20.0619L24.564 24.824C24.3876 25.1215 24.2798 25.4635 24.2798 25.8335C24.2798 26.9365 25.1791 27.8335 26.285 27.8335C27.3909 27.8335 28.2902 26.9365 28.2902 25.8335C28.2902 24.7305 27.3909 23.8335 26.285 23.8335C25.914 23.8335 25.5711 23.941 25.2729 24.117L21.4795 20.3335H22.2746C23.6271 20.3335 24.8006 19.565 25.3867 18.4445L26.8048 19.1515C26.7993 19.2125 26.7863 19.2715 26.7863 19.3335C26.7863 20.4365 27.6856 21.3335 28.7915 21.3335C29.8973 21.3335 30.7967 20.4365 30.7967 19.3335C30.7967 18.2305 29.8973 17.3335 28.7915 17.3335C28.1072 17.3335 27.5031 17.678 27.1412 18.2015L25.719 17.4925C25.7601 17.2785 25.7837 17.059 25.7837 16.8335C25.7837 15.948 25.4488 15.139 24.9019 14.5205L27.461 12.8185C27.816 13.135 28.2792 13.3335 28.7915 13.3335ZM26.285 3.8335C26.8379 3.8335 27.2876 4.282 27.2876 4.8335C27.2876 5.385 26.8379 5.8335 26.285 5.8335C25.7321 5.8335 25.2824 5.385 25.2824 4.8335C25.2824 4.282 25.7321 3.8335 26.285 3.8335ZM19.7681 1.3335C20.321 1.3335 20.7707 1.782 20.7707 2.3335C20.7707 2.885 20.321 3.3335 19.7681 3.3335C19.2152 3.3335 18.7655 2.885 18.7655 2.3335C18.7655 1.782 19.2152 1.3335 19.7681 1.3335ZM10.7447 2.3335C10.7447 1.782 11.1944 1.3335 11.7473 1.3335C12.3003 1.3335 12.7499 1.782 12.7499 2.3335C12.7499 2.885 12.3003 3.3335 11.7473 3.3335C11.1944 3.3335 10.7447 2.885 10.7447 2.3335ZM2.72394 20.3335C2.17101 20.3335 1.72135 19.885 1.72135 19.3335C1.72135 18.782 2.17101 18.3335 2.72394 18.3335C3.27688 18.3335 3.72654 18.782 3.72654 19.3335C3.72654 19.885 3.27688 20.3335 2.72394 20.3335ZM5.23044 26.8335C4.67751 26.8335 4.22784 26.385 4.22784 25.8335C4.22784 25.282 4.67751 24.8335 5.23044 24.8335C5.78337 24.8335 6.23304 25.282 6.23304 25.8335C6.23304 26.385 5.78337 26.8335 5.23044 26.8335ZM11.7473 29.3335C11.1944 29.3335 10.7447 28.885 10.7447 28.3335C10.7447 27.782 11.1944 27.3335 11.7473 27.3335C12.3003 27.3335 12.7499 27.782 12.7499 28.3335C12.7499 28.885 12.3003 29.3335 11.7473 29.3335ZM20.7707 28.3335C20.7707 28.885 20.321 29.3335 19.7681 29.3335C19.2152 29.3335 18.7655 28.885 18.7655 28.3335C18.7655 27.782 19.2152 27.3335 19.7681 27.3335C20.321 27.3335 20.7707 27.782 20.7707 28.3335ZM27.2876 25.8335C27.2876 26.385 26.8379 26.8335 26.285 26.8335C25.7321 26.8335 25.2824 26.385 25.2824 25.8335C25.2824 25.282 25.7321 24.8335 26.285 24.8335C26.8379 24.8335 27.2876 25.282 27.2876 25.8335ZM28.7915 18.3335C29.3444 18.3335 29.7941 18.782 29.7941 19.3335C29.7941 19.885 29.3444 20.3335 28.7915 20.3335C28.2385 20.3335 27.7889 19.885 27.7889 19.3335C27.7889 18.782 28.2385 18.3335 28.7915 18.3335ZM28.7915 10.3335C29.3444 10.3335 29.7941 10.782 29.7941 11.3335C29.7941 11.885 29.3444 12.3335 28.7915 12.3335C28.2385 12.3335 27.7889 11.885 27.7889 11.3335C27.7889 10.782 28.2385 10.3335 28.7915 10.3335ZM4.22784 4.8335C4.22784 4.282 4.67751 3.8335 5.23044 3.8335C5.78337 3.8335 6.23304 4.282 6.23304 4.8335C6.23304 5.385 5.78337 5.8335 5.23044 5.8335C4.67751 5.8335 4.22784 5.385 4.22784 4.8335ZM2.72394 12.3335C2.17101 12.3335 1.72135 11.885 1.72135 11.3335C1.72135 10.782 2.17101 10.3335 2.72394 10.3335C3.27688 10.3335 3.72654 10.782 3.72654 11.3335C3.72654 11.885 3.27688 12.3335 2.72394 12.3335ZM22.2746 19.3335H9.24083C7.85875 19.3335 6.73433 18.212 6.73433 16.8335C6.73433 15.594 7.62615 14.556 8.85533 14.3665C9.07139 14.3335 9.24083 14.1645 9.27391 13.9485C9.4634 12.724 10.5021 11.8345 11.7568 11.8345C11.7578 11.8345 11.7589 11.8345 11.7599 11.8345C12.0311 11.8535 12.2461 11.655 12.2787 11.397C12.4973 9.6505 13.9926 8.3335 15.7577 8.3335C17.6927 8.3335 19.2668 9.904 19.2668 11.8335C19.2668 11.993 19.2518 12.1675 19.2217 12.3655C19.1941 12.5425 19.2643 12.7205 19.4047 12.8325C19.545 12.945 19.735 12.9715 19.9019 12.906C20.5752 12.64 21.2715 13.1705 21.275 13.7855C21.2725 13.8045 21.268 13.8445 21.2675 13.8635C21.263 14.0135 21.3261 14.158 21.4394 14.2565C21.5532 14.3545 21.7051 14.397 21.8535 14.3715C22.0049 14.346 22.1428 14.3335 22.2746 14.3335C23.6567 14.3335 24.7811 15.455 24.7811 16.8335C24.7811 18.212 23.6567 19.3335 22.2746 19.3335Z" fill="url(#paint0_linear_237_3295)"/>
<defs>
<linearGradient id="paint0_linear_237_3295" x1="15.7577" y1="0.333496" x2="15.7577" y2="30.3335" gradientUnits="userSpaceOnUse">
<stop stop-color="#2A5EF1"/>
<stop offset="0.463542" stop-color="#7644FE"/>
<stop offset="1" stop-color="#BF25FE"/>
</linearGradient>
</defs>
</svg>
