<svg width="477" height="495" viewBox="0 0 477 495" fill="none" xmlns="http://www.w3.org/2000/svg">
<mask id="mask0_1187_21106" style="mask-type:luminance" maskUnits="userSpaceOnUse" x="48" y="82" width="381" height="331">
<path d="M333.712 82.4498L381.311 164.888L428.911 247.33L381.298 329.777L333.684 412.224L238.476 412.231L143.264 412.24L95.6635 329.798L48.065 247.359L95.675 164.914L143.288 82.4672L238.5 82.4585L333.712 82.4498Z" fill="white"/>
</mask>
<g mask="url(#mask0_1187_21106)">
<path d="M286.114 0.0114148L0.466553 164.921L190.865 494.682L476.512 329.772L286.114 0.0114148Z" fill="url(#paint0_linear_1187_21106)"/>
</g>
<mask id="mask1_1187_21106" style="mask-type:luminance" maskUnits="userSpaceOnUse" x="94" y="123" width="289" height="249">
<path d="M310.285 123.022L166.711 123.037L94.9151 247.359L166.692 371.674L310.263 371.662L382.062 247.337L310.285 123.022Z" fill="white"/>
</mask>
<g mask="url(#mask1_1187_21106)">
<path d="M274.398 60.8671L59.0277 185.204L202.581 433.833L417.951 309.496L274.398 60.8671Z" fill="url(#paint1_linear_1187_21106)" fill-opacity="0.8"/>
</g>
<path d="M231.29 318.107L236.474 326.435H233.402L229.634 320.387L226.106 326.435H223.058L228.242 318.107L223.034 309.755H226.106L229.898 315.851L233.45 309.755H236.498L231.29 318.107ZM248.142 326.435L244.302 319.763H242.214V326.435H239.478V309.755H245.238C246.518 309.755 247.598 309.979 248.478 310.427C249.374 310.875 250.038 311.475 250.47 312.227C250.918 312.979 251.142 313.819 251.142 314.747C251.142 315.835 250.822 316.827 250.182 317.723C249.558 318.603 248.59 319.203 247.278 319.523L251.406 326.435H248.142ZM242.214 317.579H245.238C246.262 317.579 247.03 317.323 247.542 316.811C248.07 316.299 248.334 315.611 248.334 314.747C248.334 313.883 248.078 313.211 247.566 312.731C247.054 312.235 246.278 311.987 245.238 311.987H242.214V317.579Z" fill="#001237"/>
<path fill-rule="evenodd" clip-rule="evenodd" d="M228.72 170.673C229.153 170.643 229.585 170.73 229.972 170.925C230.229 171.132 230.243 171.41 230.302 171.947C230.734 175.979 231.555 205.491 231.421 205.829C231.242 206.129 231.077 206.119 230.73 206.172C223.212 207.35 213.642 210.036 206.286 212.534C186.897 219.15 181.412 224.41 180.704 224.705C180.635 224.726 180.562 224.733 180.49 224.725C180.418 224.716 180.349 224.692 180.287 224.655C180.226 224.617 180.173 224.567 180.132 224.507C180.091 224.448 180.063 224.38 180.05 224.309C179.373 222.047 177.572 189.744 177.442 186.938C177.431 186.829 177.445 186.719 177.484 186.617C177.523 186.515 177.586 186.424 177.668 186.35C180.714 183.044 221.004 170.683 228.72 170.673ZM180.828 223.489C192.187 215.14 216.389 207.327 230.37 205.119C229.387 167.796 229.298 173.584 229.222 171.757C228.524 171.704 227.823 171.729 227.131 171.833C219.858 172.71 202.614 177.677 195.136 180.02C193.363 180.577 178.834 185.134 177.9 186.775C177.832 186.896 180.103 218.691 180.828 223.489Z" fill="black"/>
<path fill-rule="evenodd" clip-rule="evenodd" d="M183.432 189.685C183.457 190.293 185.207 213.271 185.322 213.203C187.923 211.657 198.834 207.722 200.335 206.896C200.584 206.759 199.208 185.827 198.936 184.888C198.585 183.678 183.429 189.619 183.432 189.685Z" fill="#212121"/>
<path fill-rule="evenodd" clip-rule="evenodd" d="M198.53 184.264C198.682 184.247 198.835 184.272 198.974 184.333C199.113 184.395 199.234 184.493 199.323 184.616C199.785 185.441 200.78 202.662 200.87 204.871C200.958 207.072 200.996 207.177 200.461 207.449C199.485 207.934 196.597 209.045 194.045 210.045C185.503 213.391 185.935 213.515 185.511 213.681C185.442 213.709 185.368 213.721 185.294 213.717C185.22 213.713 185.147 213.693 185.081 213.659C185.016 213.624 184.958 213.576 184.912 213.518C184.867 213.459 184.834 213.392 184.817 213.319C184.532 212.115 183.183 189.698 183.213 189.695C183.211 189.652 183.222 189.608 183.245 189.571C183.267 189.534 183.3 189.504 183.339 189.485C183.902 189.184 195.931 184.249 198.53 184.264ZM183.665 189.82C183.682 190.017 185.67 211.714 185.737 212.387C189.078 210.694 197.763 207.504 199.815 206.541C199.843 204.196 198.729 186.918 198.513 185.188C196.666 185.052 185.544 189.056 183.665 189.82Z" fill="#212121"/>
<path fill-rule="evenodd" clip-rule="evenodd" d="M204.071 183.438C204.049 183.211 204.276 183.05 204.474 182.934C206.892 181.506 221.928 177.627 223.98 177.672C224.135 177.662 224.288 177.709 224.41 177.804C224.533 177.898 224.617 178.035 224.646 178.187C224.928 179.181 225.587 185.777 225.395 186.688C225.378 186.785 225.337 186.877 225.276 186.955C225.216 187.032 225.137 187.094 225.047 187.135C224.885 187.181 224.718 187.212 224.55 187.227C221.784 187.737 206.826 191.688 204.894 191.352C204.788 191.343 204.686 191.301 204.605 191.231C204.524 191.162 204.468 191.067 204.444 190.963C204.298 190.211 204.212 186.979 204.108 184.278C204.08 183.513 204.069 183.447 204.071 183.438ZM223.662 178.769C221.562 178.999 205.658 182.426 204.517 183.447C204.614 184.268 204.974 189.411 205.159 190.59C207.19 190.528 221.124 186.756 224.335 186.151C224.359 184.769 223.75 178.76 223.662 178.769Z" fill="#212121"/>
<path fill-rule="evenodd" clip-rule="evenodd" d="M226.025 191.124L226.101 191.27V191.273L226.049 191.428C225.743 191.59 226.217 191.417 224.366 191.715C220.204 192.393 212.948 194.329 209.069 195.579C205.593 196.708 206.766 196.587 205.875 196.635L205.56 196.356V196.353L205.537 195.933C205.869 195.558 205.784 195.633 205.915 195.573C209.482 194.019 221.321 191.259 225.868 191.069L226.025 191.124Z" fill="#212121"/>
<path fill-rule="evenodd" clip-rule="evenodd" d="M226.379 196.695L226.456 196.84V196.843L226.403 196.998C226.097 197.16 226.571 196.987 224.72 197.285C220.559 197.963 213.302 199.899 209.423 201.149C205.831 202.316 207.165 202.154 206.229 202.205L205.915 201.926V201.924L205.892 201.504C206.224 201.129 206.139 201.204 206.27 201.144C209.837 199.59 221.676 196.829 226.223 196.64L226.379 196.695Z" fill="#212121"/>
<path fill-rule="evenodd" clip-rule="evenodd" d="M299.084 183.557C299.198 183.747 299.18 183.546 299.197 186.303C299.21 188.346 299.392 219.447 298.846 221.427C298.833 221.504 298.802 221.576 298.755 221.638C298.709 221.701 298.649 221.751 298.579 221.786C298.51 221.821 298.433 221.838 298.355 221.838C298.277 221.837 298.201 221.818 298.132 221.783C296.679 220.835 295.174 219.969 293.624 219.19C281.324 212.896 259.828 207.537 246.88 206.359C246.762 206.349 246.651 206.3 246.563 206.221C246.475 206.142 246.415 206.036 246.39 205.921C246.345 205.522 245.214 174.421 245.532 171.691C245.531 171.523 245.588 171.359 245.694 171.229C245.8 171.099 245.949 171.011 246.114 170.979C250.581 169.369 297.068 180.389 299.084 183.557ZM298.732 183.831C298.732 183.842 298.734 183.852 298.735 183.863H298.74C298.737 183.837 298.727 183.813 298.713 183.792L298.715 183.795C297.438 181.81 276.329 176.949 274.029 176.427C270.475 175.623 250.117 171.155 246.567 171.939C246.602 173.741 246.183 168.689 247.461 205.308C259.006 206.413 277.704 210.908 290.147 216.441C296.37 219.224 298.02 220.767 298.037 220.566C298.535 214.854 298.69 183.831 298.732 183.831ZM299.063 184.008H299.061H299.064C299.032 183.955 298.831 183.61 299.063 184.008Z" fill="black"/>
<path fill-rule="evenodd" clip-rule="evenodd" d="M293.367 187.031C293.379 187.639 293.038 210.682 292.918 210.62C290.227 209.237 279.096 205.977 277.546 205.244C277.289 205.122 277.382 184.146 277.597 183.194C277.875 181.962 293.366 186.964 293.367 187.031Z" fill="#212121"/>
<path fill-rule="evenodd" clip-rule="evenodd" d="M278.197 182.538C280.955 182.58 292.415 186.371 293.437 186.822C293.48 186.838 293.518 186.866 293.545 186.904C293.571 186.941 293.586 186.986 293.587 187.032C293.545 187.032 293.407 187.034 293.59 187.032C293.622 188.27 293.639 209.502 293.431 210.711C293.418 210.784 293.39 210.853 293.348 210.914C293.306 210.975 293.251 211.026 293.188 211.064C293.114 211.107 293.031 211.133 292.946 211.139C292.663 211.144 292.87 211.089 291.034 210.387C287.203 208.936 280.353 206.901 277.886 205.977C277.614 205.907 277.36 205.784 277.138 205.614C276.949 205.373 276.888 205.409 276.857 200.49C276.841 197.795 276.872 184.889 277.129 183.17C277.212 182.65 277.676 182.532 278.197 182.538ZM278.04 183.466C277.926 185.286 277.876 202.125 278.043 204.818C278.06 205.064 288.612 208.172 292.455 209.833C292.495 208.813 293.136 187.534 293.143 187.181C291.106 186.495 279.929 183.234 278.039 183.466H278.04Z" fill="#212121"/>
<path fill-rule="evenodd" clip-rule="evenodd" d="M252.399 177.515C255.354 177.573 270.577 180.525 272.189 181.724C272.249 181.76 272.298 181.81 272.333 181.87C272.367 181.93 272.386 181.997 272.386 182.067C272.371 182.568 272.544 187.494 272.503 189.097C272.489 189.551 272.509 189.833 272.152 189.979C270.628 190.552 256.174 187.661 252.466 187.134C251.498 187.001 251.263 187.212 251.211 185.729C251.152 183.93 251.292 180.104 251.451 178.603C251.534 177.835 251.599 177.507 252.399 177.515ZM252.324 186.007C255.479 186.404 269.733 189.332 271.735 189.264C271.838 188.186 271.896 183.103 271.936 182.166C271.982 181.321 254.481 178.671 252.542 178.596C252.344 181.061 252.271 183.534 252.324 186.007Z" fill="#212121"/>
<path fill-rule="evenodd" clip-rule="evenodd" d="M251.938 191.372C254.893 191.43 270.116 194.383 271.728 195.582C271.788 195.617 271.837 195.667 271.872 195.727C271.907 195.787 271.925 195.855 271.925 195.924C271.91 196.425 272.083 201.351 272.042 202.954C272.028 203.409 272.048 203.69 271.691 203.834C270.167 204.407 255.713 201.517 252.005 200.99C251.039 200.857 250.802 201.068 250.75 199.585C250.691 197.786 250.831 193.959 250.991 192.459C251.073 191.692 251.138 191.365 251.938 191.372ZM251.862 199.866C255.017 200.264 269.271 203.192 271.273 203.124C271.376 202.046 271.434 196.963 271.474 196.026C271.52 195.18 254.019 192.531 252.08 192.456C251.882 194.921 251.809 197.394 251.862 199.866Z" fill="#212121"/>
<path fill-rule="evenodd" clip-rule="evenodd" d="M225.22 222.988C229.445 223.006 229.63 228.375 229.63 228.375C229.63 228.375 226.46 241.181 225.396 241.075C222.904 240.829 219.794 240.186 217.043 233.958C214.946 229.212 214.612 214.48 214.327 213.788C213.987 212.961 213.07 212.257 212.611 211.444C211.846 210.092 211.811 208.047 212.933 207.08C213.37 206.815 213.857 206.642 214.363 206.572C213.931 205.629 213.569 204.656 213.281 203.66C213.09 203.124 212.841 202.622 213.087 202.103C213.143 201.986 213.226 201.883 213.329 201.803C213.431 201.724 213.552 201.669 213.679 201.645C213.807 201.62 213.939 201.626 214.064 201.662C214.189 201.698 214.303 201.763 214.399 201.851C214.897 202.313 216.231 204.869 216.371 205.452C216.41 205.618 218.193 207.28 218.498 208.481C218.568 208.759 219.932 210.857 220.183 211.247C221.752 213.694 222.596 216.614 223.697 219.291C224.067 220.187 224.752 222.447 225.219 222.987C225.921 223.819 226.567 224.696 227.155 225.613" fill="white"/>
<path fill-rule="evenodd" clip-rule="evenodd" d="M214.566 201.434C215.121 201.822 216.105 203.799 216.39 204.405C216.933 205.571 216.586 205.108 216.98 205.556C218.957 207.794 218.63 207.977 219.01 208.659C220.158 210.707 220.917 211.386 222.123 214.356C222.479 215.234 224.162 219.788 224.178 219.831C224.45 220.633 225.002 222.32 225.356 222.806C227.522 222.854 228.771 224.226 229.488 226.27C229.705 226.944 229.843 227.641 229.899 228.347C229.913 228.669 228.079 235.775 226.985 238.918C226.764 239.582 226.49 240.227 226.165 240.848C225.759 241.529 225.546 241.481 225.06 241.436C224.306 241.367 223.562 241.214 222.842 240.977C221.552 240.519 220.399 239.741 219.49 238.716C217.963 236.947 216.817 234.883 216.122 232.652C214.816 228.09 214.378 220.152 214.053 215.532C213.932 213.87 213.935 213.945 213.725 213.616C213.393 213.098 212.795 212.536 212.378 211.923C211.407 210.473 211.263 208.121 212.504 206.871C212.844 206.556 213.266 206.343 213.722 206.257C213.464 205.629 213.237 204.989 213.043 204.339C212.813 203.606 212.762 203.534 212.665 203.223C212.166 201.579 213.573 200.761 214.566 201.434ZM225.308 240.711L225.303 240.715L225.307 240.712L225.308 240.711ZM213.805 202.063C213.649 202.066 213.521 202.143 213.448 202.368C213.41 202.728 213.482 203.091 213.655 203.409C213.954 204.416 214.321 205.402 214.754 206.359C214.801 206.446 214.818 206.547 214.802 206.645C214.785 206.744 214.736 206.834 214.662 206.901C214.487 207.035 214.494 206.985 214.067 207.086C213.772 207.143 213.49 207.252 213.234 207.41C212.436 208.05 212.205 209.825 213.013 211.238C213.205 211.545 213.425 211.834 213.67 212.101C214.877 213.492 214.814 213.566 214.93 215.123C215.205 218.848 215.482 224.217 216.212 228.831C216.712 231.96 217.157 233.665 218.72 236.265C219.686 237.804 220.675 238.995 222.271 239.85C223.233 240.318 224.275 240.599 225.342 240.679C225.734 240.048 226.05 239.372 226.283 238.667C227.404 235.531 228.366 232.062 229.223 228.859C229.383 228.245 229.368 228.43 229.333 228.019C229.088 226.019 228.336 224.025 226.422 223.365C226.178 223.286 225.927 223.231 225.672 223.2C226.255 223.943 226.799 224.715 227.301 225.514L227.25 225.766L226.998 225.712C224.229 221.626 225.437 224.559 223.561 219.668C223.418 219.304 223.209 218.833 222.983 218.249C222.425 216.847 221.988 215.635 221.396 214.288C220.168 211.631 220.072 211.817 218.64 209.516C218.432 209.214 218.257 208.891 218.118 208.552C217.841 207.594 216.531 206.307 216.122 205.814C215.896 205.536 216.101 205.654 215.408 204.296C215.094 203.676 214.745 203.075 214.364 202.495C214.209 202.263 214.086 202.058 213.805 202.063Z" fill="#212121"/>
<path fill-rule="evenodd" clip-rule="evenodd" d="M212.373 207.703C212.181 207.62 211.969 207.596 211.764 207.634C211.559 207.672 211.37 207.771 211.221 207.918C210.814 208.301 210.912 208.959 211.084 209.446C211.448 210.282 211.981 211.033 212.65 211.654C212.98 211.901 213.818 211.76 213.928 211.267C214.054 210.706 213.819 210.251 213.574 209.738C213.273 209.109 212.905 208.16 212.373 207.703Z" fill="white"/>
<path fill-rule="evenodd" clip-rule="evenodd" d="M211.892 207.39C212.112 207.386 212.327 207.452 212.507 207.579C212.83 207.844 213.105 208.162 213.321 208.52C213.546 208.879 214.045 209.776 214.152 209.998C214.329 210.336 214.414 210.714 214.398 211.095C214.4 211.305 214.339 211.511 214.224 211.686C214.108 211.861 213.944 211.999 213.751 212.081C213.56 212.172 213.352 212.222 213.141 212.226C212.93 212.231 212.721 212.191 212.526 212.108C212.038 211.749 211.626 211.296 211.316 210.776C210.869 210.091 210.479 209.354 210.581 208.543C210.611 208.22 210.764 207.921 211.008 207.707C211.251 207.492 211.567 207.379 211.892 207.39ZM211.617 207.967C211.534 208.015 211.463 208.081 211.409 208.159C211.355 208.238 211.319 208.328 211.304 208.422C211.287 208.727 211.345 209.032 211.472 209.31C211.83 210.045 212.315 210.711 212.905 211.278C213.001 211.316 213.106 211.328 213.208 211.312C213.311 211.295 213.407 211.251 213.486 211.184C213.558 210.896 213.524 210.591 213.39 210.325C213.374 210.283 212.819 208.836 212.802 208.794C212.676 208.45 212.493 208.13 212.26 207.847L212.255 207.844L212.264 207.851L212.259 207.848L212.267 207.853L212.261 207.85L212.267 207.854L212.26 207.851C212.151 207.825 212.037 207.822 211.926 207.842C211.815 207.862 211.71 207.905 211.617 207.967Z" fill="#212121"/>
<path fill-rule="evenodd" clip-rule="evenodd" d="M214.16 206.641C213.969 206.557 213.756 206.533 213.551 206.571C213.346 206.61 213.157 206.709 213.008 206.856C212.601 207.238 212.7 207.896 212.871 208.384C213.235 209.219 213.768 209.971 214.436 210.591C214.767 210.838 215.605 210.697 215.715 210.204C215.841 209.644 215.606 209.188 215.361 208.676C215.06 208.047 214.693 207.098 214.16 206.641Z" fill="white"/>
<path fill-rule="evenodd" clip-rule="evenodd" d="M213.679 206.328C213.899 206.323 214.114 206.389 214.294 206.516C214.617 206.782 214.892 207.099 215.108 207.457C215.334 207.816 215.832 208.713 215.939 208.935C216.117 209.273 216.202 209.651 216.187 210.033C216.188 210.243 216.127 210.448 216.012 210.623C215.897 210.799 215.732 210.936 215.539 211.018C215.349 211.109 215.141 211.159 214.93 211.164C214.718 211.168 214.509 211.128 214.314 211.045C213.826 210.687 213.415 210.234 213.104 209.713C212.658 209.028 212.267 208.292 212.369 207.48C212.4 207.158 212.552 206.859 212.796 206.644C213.039 206.43 213.355 206.317 213.679 206.328ZM213.404 206.905C213.321 206.953 213.25 207.018 213.196 207.097C213.142 207.175 213.106 207.265 213.091 207.359C213.074 207.665 213.132 207.97 213.259 208.248C213.617 208.983 214.102 209.649 214.691 210.215C214.788 210.254 214.893 210.265 214.995 210.249C215.098 210.232 215.194 210.189 215.273 210.122C215.345 209.833 215.311 209.528 215.177 209.262C215.161 209.22 214.605 207.774 214.589 207.731C214.464 207.387 214.282 207.067 214.05 206.783L214.045 206.78L214.054 206.787L214.049 206.784L214.056 206.789L214.051 206.786L214.057 206.79L214.051 206.787C213.94 206.761 213.826 206.758 213.715 206.778C213.603 206.798 213.498 206.842 213.404 206.905Z" fill="#212121"/>
<path fill-rule="evenodd" clip-rule="evenodd" d="M218.324 208.602C218.392 208.405 218.4 208.192 218.346 207.991C218.293 207.789 218.179 207.608 218.022 207.472C217.609 207.094 216.959 207.243 216.486 207.451C215.68 207.878 214.97 208.466 214.401 209.179C214.179 209.526 214.384 210.35 214.885 210.422C215.454 210.506 215.891 210.237 216.383 209.954C216.988 209.605 217.908 209.167 218.324 208.602Z" fill="white"/>
<path fill-rule="evenodd" clip-rule="evenodd" d="M217.287 206.881C217.495 206.874 217.7 206.918 217.887 207.01C218.073 207.102 218.233 207.238 218.354 207.407C218.495 207.595 218.579 207.819 218.598 208.052C218.616 208.286 218.568 208.52 218.458 208.728C218.184 209.113 217.842 209.445 217.448 209.706C216.942 210.071 216.415 210.403 215.868 210.703C215.598 210.824 215.305 210.884 215.009 210.877C214.801 210.88 214.596 210.821 214.421 210.709C214.247 210.596 214.109 210.434 214.025 210.244C213.927 210.056 213.871 209.849 213.862 209.638C213.852 209.426 213.89 209.215 213.971 209.02C214.229 208.505 215.126 207.794 215.639 207.451C216.117 207.096 216.692 206.897 217.287 206.881ZM217.455 207.591C216.961 207.651 216.496 207.853 216.114 208.172C215.614 208.524 215.165 208.944 214.782 209.422C214.732 209.508 214.791 209.911 214.944 209.981C215.25 210.012 215.557 209.946 215.823 209.793C217.047 209.205 217.744 208.947 218.17 208.501L218.173 208.496C218.187 208.39 218.179 208.282 218.149 208.18C218.117 208.018 218.032 207.871 217.906 207.764C217.78 207.657 217.622 207.596 217.457 207.59L217.455 207.591Z" fill="#212121"/>
<path fill-rule="evenodd" clip-rule="evenodd" d="M229.14 229.351C229.14 229.351 229.661 225.327 225.36 222.938C224.345 222.374 235.116 216.614 247.28 216.188C263.725 215.612 268.121 231.152 268.028 235.117C267.986 238.351 267.191 241.531 265.707 244.404C264.222 247.277 262.089 249.765 259.476 251.671L257.451 250.345L227.906 254.562C227.906 254.562 225.443 247.152 223.382 245.871C222.825 245.524 225.613 241.302 225.613 241.302C227.415 231.297 229.14 229.351 229.14 229.351Z" fill="white"/>
<path fill-rule="evenodd" clip-rule="evenodd" d="M228.75 229.599C229.006 229.19 228.958 229.344 228.969 229.163C228.987 228.269 228.817 227.382 228.469 226.558C228.122 225.734 227.606 224.993 226.953 224.382C225.842 223.332 225.201 223.238 225.081 222.979C224.463 221.616 234.993 216.921 244.842 215.965C248.23 215.644 251.179 215.671 254.48 216.664C261.885 218.917 266.726 225.646 268.184 232.587C268.434 233.66 268.522 234.764 268.446 235.863C268.273 239.46 267.192 242.954 265.306 246.021C263.561 248.835 261.232 251.082 259.747 252.034C259.673 252.089 259.583 252.121 259.49 252.124C259.397 252.127 259.306 252.101 259.228 252.05L257.345 250.816C257.39 250.816 228.036 254.999 227.766 254.913C227.544 254.803 227.592 254.776 227.275 253.886C226.677 252.153 224.775 247.181 223.256 246.163C223.159 246.112 223.083 246.029 223.04 245.928C222.895 245.546 223.201 244.878 223.401 244.482C223.985 243.351 224.636 242.256 225.349 241.201C225.398 241.198 226.746 232.978 228.75 229.599ZM243.259 216.889C238.841 217.442 234.512 218.559 230.379 220.214C229.317 220.649 226.352 221.925 225.579 222.785C227.718 224.051 228.872 225.777 229.235 227.728C229.341 228.268 229.37 228.821 229.319 229.37C228.936 229.962 228.622 230.596 228.385 231.26C226.789 235.315 225.97 241.235 225.842 241.451C225.291 242.278 223.872 244.584 223.621 245.619C223.613 245.709 223.613 245.565 224.149 246.108C225.707 247.778 227.412 251.999 228.155 254.143C228.514 254.092 256.799 249.911 257.578 249.911C257.62 249.923 257.659 249.941 257.695 249.965C259.602 251.212 259.444 251.141 259.486 251.11C260.379 250.45 261.208 249.709 261.964 248.896C264.783 245.918 266.641 242.161 267.298 238.114C267.718 235.268 267.73 233.781 266.77 230.725C266.411 229.594 265.967 228.491 265.441 227.427C260.69 218.144 253.28 215.678 243.259 216.889Z" fill="#212121"/>
<path fill-rule="evenodd" clip-rule="evenodd" d="M257.552 250.258C257.552 250.258 242.459 240.804 242.342 240.827C224.68 244.364 218.804 248.205 217.932 248.337C216.502 248.554 214.95 248.554 213.444 248.782C212.717 248.892 208.835 249.058 208.866 249.935C208.956 252.381 213.351 250.252 213.804 252.302C213.937 252.72 214.193 253.089 214.538 253.36C214.884 253.631 215.302 253.792 215.74 253.822C217.733 253.914 218.788 252.979 219.319 252.707C219.524 252.604 223.199 253.693 227.19 254.506C251.694 259.494 257.406 250.21 257.552 250.258Z" fill="white"/>
<path fill-rule="evenodd" clip-rule="evenodd" d="M257.647 250.409C257.615 250.457 257.218 250.91 256.993 251.133C256.069 252.038 255.021 252.807 253.882 253.418C240.491 260.348 220.01 252.788 219.361 253.2C218.385 253.898 217.217 254.275 216.017 254.279C215.589 254.298 215.163 254.212 214.777 254.027C214.461 253.888 214.177 253.687 213.941 253.435C213.706 253.183 213.524 252.886 213.407 252.562C213.384 252.399 213.322 252.244 213.227 252.11C212.464 251.285 209.734 252.287 208.721 250.921C208.525 250.636 208.418 250.298 208.416 249.951C208.402 249.241 209.238 248.965 209.917 248.795C211.024 248.574 212.145 248.426 213.272 248.351C215.01 248.107 215.63 248.141 217.139 247.988C217.885 247.91 217.769 247.9 217.87 247.896C220.1 247.022 225.01 244.097 240.252 240.882C242.59 240.411 242.342 240.448 242.523 240.521C246.39 242.873 254.787 248.277 257.651 250.102C257.581 250.213 257.472 250.387 257.651 250.104L257.677 250.123C257.696 250.142 257.712 250.166 257.721 250.192C257.731 250.218 257.734 250.246 257.731 250.273C257.728 250.301 257.719 250.327 257.705 250.351C257.69 250.375 257.671 250.395 257.647 250.409ZM219.427 252.253C221.003 252.364 242.72 259.526 254.371 252.62C255.452 252.001 256.428 251.216 257.265 250.293C257.04 250.156 243.734 242.011 242.295 241.194C236.861 242.348 230.76 243.84 225.505 245.716C223.167 246.537 220.874 247.483 218.637 248.55C218.102 248.79 218.059 248.792 216.811 248.917C214.98 249.065 214.815 249.06 213.857 249.177C212.666 249.345 210.652 249.429 209.601 249.833C209.504 249.869 209.411 249.918 209.326 249.977C209.326 250.083 209.351 250.188 209.398 250.283C209.446 250.378 209.514 250.461 209.598 250.526C210.267 251.022 212.219 250.591 213.388 251.121C214.195 251.533 214.193 252.104 214.321 252.415C214.454 252.664 214.643 252.879 214.874 253.043C215.104 253.207 215.37 253.315 215.649 253.358C216.668 253.448 217.689 253.197 218.549 252.644C219.065 252.337 219.154 252.235 219.426 252.253H219.427ZM257.557 250.437H257.56H257.564H257.557Z" fill="#212121"/>
<path fill-rule="evenodd" clip-rule="evenodd" d="M251.268 227.999L251.243 228.254C249.395 230.127 247.024 233.405 245.671 235.397C245.339 235.885 242.653 239.894 242.615 240.56V240.556L242.613 240.568V240.573V240.579V240.584V240.588V240.603L242.464 240.813C242.195 240.625 242.267 240.684 242.243 240.623C242.171 238.877 246.747 230.991 251.013 227.976L251.268 227.999Z" fill="#212121"/>
<path fill-rule="evenodd" clip-rule="evenodd" d="M274.113 236.768C253.819 238.791 211.413 238.115 191.277 232.542L189.058 279.189C197.839 286.739 256.853 290.14 272.176 285.692C272.347 285.641 274.58 236.722 274.113 236.768Z" fill="white" fill-opacity="0.38"/>
<path fill-rule="evenodd" clip-rule="evenodd" d="M274.181 236.558C274.374 236.642 274.37 236.787 274.391 237.303C274.52 243.244 273.06 278.952 272.669 285.165C272.622 285.737 272.667 285.921 272.344 286.105C263.287 288.707 243.169 288.352 233.771 287.814C223.947 287.41 199.117 285.326 190.435 280.75C189.788 280.429 189.185 280.024 188.642 279.546C188.55 279.44 188.502 279.302 188.509 279.162C190.902 229.193 190.711 232.443 190.879 232.206C190.952 232.119 191.052 232.058 191.164 232.033C191.912 231.928 200.597 235.421 229.356 236.934C260.027 238.422 273.589 236.436 274.181 236.558ZM189.716 279.012C195.702 283.632 220.218 285.834 227.785 286.372C238.269 287.118 261.583 288.074 271.768 285.342C271.768 285.3 274.166 242.512 273.937 237.009C273.692 237.028 271.235 237.294 267.592 237.535C247.721 238.845 210.799 238.321 191.769 233.214C189.641 279.549 189.53 278.875 189.716 279.012Z" fill="#212121"/>
<path fill-rule="evenodd" clip-rule="evenodd" d="M225.61 247.277C220.948 247.225 212.698 246.829 205.669 245.233L203.843 269.589C207.55 271.46 217.756 272.781 224.101 271.744C224.101 271.744 225.718 247.277 225.61 247.277Z" fill="white" fill-opacity="0.38"/>
<path fill-rule="evenodd" clip-rule="evenodd" d="M210.299 245.669C214.114 246.275 217.958 246.685 221.815 246.896C225.707 247.112 225.582 247.001 225.736 247.098C225.804 247.153 225.751 247.111 225.792 247.154C225.999 247.505 224.672 270.775 224.629 271.502C224.608 271.849 224.622 272.074 224.266 272.229C221.41 272.943 212.93 272.835 206.678 271.177C205.587 270.909 204.527 270.525 203.518 270.031C203.421 269.96 203.35 269.859 203.317 269.744C203.265 269.601 204.479 253.949 205.149 245.688C205.199 245.092 205.183 245.125 205.272 244.968C205.637 244.517 205.551 244.877 210.299 245.669ZM205.872 249.274C204.528 268.138 204.387 269.241 204.432 269.261C208.193 270.955 217.709 272.146 223.617 271.295C224.247 262.607 225.323 249.1 225.389 247.498C224.895 247.519 222.171 247.459 221.647 247.444C216.711 247.302 210.945 246.821 206.149 245.82C206.093 245.809 206.137 245.429 205.872 249.274Z" fill="#212121"/>
<path fill-rule="evenodd" clip-rule="evenodd" d="M259.166 248.724C252.672 249.598 244.815 249.189 237.742 247.804L236.644 272.203C240.406 273.962 252.078 274.451 258.388 273.225C258.388 273.225 259.273 248.71 259.166 248.724Z" fill="white" fill-opacity="0.38"/>
<path fill-rule="evenodd" clip-rule="evenodd" d="M244.408 248.376C248.071 248.807 251.763 248.95 255.448 248.804C259.066 248.643 259.181 248.356 259.354 248.613C259.485 248.862 259.183 261.843 259.177 262.13C258.907 274.095 258.932 273.334 258.774 273.556C258.698 273.642 258.596 273.701 258.484 273.724C258.526 273.724 257.262 273.963 256.202 274.083C251.204 274.691 243.626 274.556 238.742 273.45C237.909 273.284 237.1 273.016 236.332 272.652C236.27 272.61 236.218 272.555 236.178 272.491C236.138 272.427 236.112 272.355 236.101 272.281C236.077 272.161 237.211 248.11 237.268 247.696C237.292 247.587 237.354 247.489 237.442 247.42C237.932 247.107 237.81 247.587 244.408 248.376ZM237.222 271.854C241.603 273.588 252.649 273.705 257.898 272.796C258.192 265.656 258.891 251.625 258.952 248.98C252.247 249.922 244.918 249.555 238.204 248.378C237.636 263.028 237.177 271.834 237.222 271.854Z" fill="#212121"/>
<path fill-rule="evenodd" clip-rule="evenodd" d="M203.282 274.151C207.408 276.183 216.473 277.107 221.556 276.755C223.579 276.616 223.041 276.525 223.424 276.622L223.512 276.761V276.764C223.453 277 223.565 277 222.328 277.177C215.531 278.143 206.503 276.892 202.882 275.181C202.81 275.184 202.705 275.04 202.513 274.817L202.542 274.397V274.394L202.86 274.12L203.282 274.151Z" fill="#212121"/>
<path fill-rule="evenodd" clip-rule="evenodd" d="M236.878 277.161C241.265 278.973 252.705 279.245 258.08 278.132L258.245 278.162L258.342 278.295V278.298C258.297 278.546 258.377 278.527 257.415 278.738C250.509 280.254 240.228 279.666 236.599 278.238C236.415 278.165 236.506 278.234 236.156 277.878V277.458V277.456L236.456 277.162L236.878 277.161Z" fill="#212121"/>
<path fill-rule="evenodd" clip-rule="evenodd" d="M198.196 253.865L198.305 253.981V253.984L198.292 254.141L198.171 254.265C198.113 254.267 196.985 254.861 196.943 254.883C195.699 255.51 194.544 256.299 193.507 257.228C193.934 257.771 197.342 261.218 197.384 261.253L197.378 261.249H197.38L197.385 261.253L197.378 261.249L197.381 261.252L197.374 261.248H197.377L197.366 261.243H197.369L197.353 261.237L197.327 261.23L197.455 261.314L197.501 261.476V261.479C197.496 261.502 197.489 261.524 197.478 261.545C197.47 261.56 197.46 261.574 197.447 261.587L197.428 261.606C197.408 261.621 197.387 261.633 197.365 261.643L197.329 261.654C197.308 261.658 197.286 261.659 197.264 261.658C197.198 261.648 197.135 261.622 197.083 261.58C196.089 260.956 195.139 260.263 194.241 259.507C193.616 258.977 193.044 258.388 192.533 257.747C191.96 256.915 192.517 256.641 193.007 256.205C194.351 255.117 195.452 254.416 198.023 253.837L198.196 253.865ZM197.205 261.246C197.131 261.29 197.156 261.267 197.093 261.346C197.059 261.446 197.051 261.438 197.168 261.27C197.333 261.228 197.336 261.236 197.278 261.228L197.205 261.246Z" fill="#212121"/>
<path fill-rule="evenodd" clip-rule="evenodd" d="M266.079 257.456C268.358 258.385 269.602 259.282 271.073 261.147C271.134 261.229 271.175 261.324 271.193 261.424C271.21 261.525 271.203 261.628 271.173 261.726C270.768 262.986 265.848 265.296 265.545 265.296C265.486 265.29 265.431 265.262 265.392 265.217C265.374 265.197 265.36 265.173 265.352 265.147C265.345 265.125 265.341 265.102 265.341 265.078V265.075L265.412 264.923L265.553 264.86L265.525 264.862L265.509 264.866H265.512L265.501 264.87H265.504L265.496 264.872H265.499L265.491 264.875L265.497 264.872H265.499L265.493 264.875C265.703 264.758 267.59 263.306 268.593 262.602C268.979 262.32 269.568 261.912 269.979 261.539C269.695 261.179 269.358 260.794 269.218 260.649C268.192 259.612 267.069 258.675 265.865 257.852L265.766 257.71L265.779 257.552V257.55L265.905 257.454L266.079 257.456ZM265.704 264.919C265.801 265.123 265.78 265.092 265.765 265.003C265.718 264.919 265.741 264.945 265.671 264.886C265.59 264.855 265.613 264.86 265.565 264.857L265.704 264.919Z" fill="#212121"/>
<path fill-rule="evenodd" clip-rule="evenodd" d="M254.41 198.628C250.996 195.263 243.211 192.165 238.711 197.442C238.711 197.442 236.416 201.382 238.087 210.138C238.275 211.124 238.642 212.066 239.172 212.918C240.146 214.253 242.504 214.604 244.077 214.539C244.684 214.514 245.279 214.387 245.864 214.363C245.957 214.359 246.324 214.233 246.403 214.307C246.806 214.677 247.084 217.139 247.201 217.247C247.65 217.661 248.197 217.954 248.791 218.098C249.385 218.242 250.006 218.232 250.596 218.069C251.417 217.896 252.944 217.387 253.257 216.688C253.397 216.377 252.893 213.328 253.019 213.184C255.205 210.699 254.576 208.426 254.937 208.035C254.982 207.985 255.903 207.856 256.142 207.748C257.07 207.331 257.711 205.76 257.474 204.786C257.415 204.496 257.278 204.228 257.078 204.01C256.878 203.793 256.623 203.633 256.34 203.549C255.945 203.435 254.711 204.225 254.711 204.225L254.41 198.628Z" fill="white"/>
<path fill-rule="evenodd" clip-rule="evenodd" d="M256.299 203.251C256.757 203.332 257.165 203.59 257.433 203.97C258.094 204.87 257.872 206.09 257.342 207.032C256.635 208.175 256.082 208.138 255.207 208.338C255.159 209.089 255.057 209.836 254.902 210.573C254.624 211.601 254.118 212.554 253.423 213.361C253.405 213.585 253.685 215.584 253.714 216.268C253.747 216.469 253.727 216.676 253.653 216.866C253.58 217.056 253.458 217.224 253.298 217.351C252.959 217.638 252.576 217.87 252.164 218.037C250.257 218.821 248.571 218.937 247.018 217.686C246.759 217.461 246.745 217.444 246.602 216.674C246.173 214.4 246.161 214.931 246.154 214.765C245.875 214.817 245.593 214.85 245.309 214.865C244.678 214.967 244.038 215.01 243.399 214.994C242.307 214.978 241.229 214.744 240.229 214.306C239.788 214.112 239.389 213.832 239.058 213.482C238.726 213.132 238.467 212.719 238.297 212.268C237.693 210.905 237.541 209.736 237.325 208.232C236.999 205.968 236.961 203.671 237.212 201.397C237.358 200.038 237.709 198.709 238.253 197.455C238.325 197.28 238.434 197.122 238.573 196.993C239.005 196.519 239.489 196.096 240.015 195.73C244.289 192.724 251.058 194.89 254.536 198.497C254.603 198.574 254.591 198.62 254.6 198.761C254.965 204.192 254.886 203.804 255.022 203.727C255.405 203.472 255.843 203.309 256.299 203.251ZM242.459 195.337C241.234 195.741 240.134 196.456 239.269 197.413C239.017 197.695 239.047 197.654 238.989 197.78C238.301 199.189 237.954 201.681 237.92 203.394C237.834 205.569 238.219 210.609 239.426 212.49C239.62 212.802 239.885 213.065 240.198 213.257C241.171 213.887 242.679 214.11 243.845 214.091C244.357 214.07 244.868 214.021 245.375 213.946C245.555 213.937 245.734 213.918 245.912 213.891C246.364 213.787 246.597 213.779 246.86 214.157C247.232 214.803 247.383 216.05 247.584 216.985C248.039 217.393 248.611 217.648 249.218 217.714C250.575 217.871 252.481 217.059 252.812 216.59C252.854 216.532 252.845 216.545 252.849 216.472C252.802 215.351 252.621 214.355 252.581 213.392C252.59 212.935 252.641 213.02 252.959 212.607C253.36 212.113 253.686 211.564 253.929 210.976C254.237 210.122 254.414 209.226 254.453 208.319C254.557 207.717 254.757 207.682 255.072 207.618C255.975 207.446 255.999 207.481 256.34 207.201C256.621 206.925 256.843 206.593 256.992 206.228C257.14 205.862 257.212 205.47 257.203 205.076C257.181 204.716 257.026 204.376 256.77 204.122C256.725 204.08 256.678 204.041 256.627 204.006C256.514 203.927 256.389 203.867 256.258 203.825C255.812 203.93 255.388 204.11 255.002 204.357C254.802 204.475 254.819 204.475 254.722 204.486C254.662 204.488 254.602 204.469 254.555 204.432C254.507 204.395 254.474 204.342 254.461 204.283C254.454 204.215 254.481 204.84 254.235 198.781C254.232 198.697 254.243 198.721 254.201 198.681C251.242 195.962 246.315 194.073 242.459 195.337Z" fill="#212121"/>
<path fill-rule="evenodd" clip-rule="evenodd" d="M238.239 199.326C238.352 199.077 237.662 199.381 237.42 199.25C236.932 198.984 236.418 198.616 236.125 197.321C235.878 196.233 236.899 195.155 236.862 195.122C235.501 193.871 235.425 192.047 236.815 190.537C237.586 189.701 238.579 190.029 239.45 189.991C239.583 189.986 239.818 189.115 239.939 188.957C240.452 188.268 241.212 187.804 242.06 187.662C242.402 187.615 242.751 187.644 243.081 187.747C243.411 187.85 243.715 188.025 243.97 188.258C244.254 188.475 244.864 188.848 244.864 188.848C245.197 188.47 245.571 188.13 245.981 187.836C246.783 187.439 247.674 187.252 248.568 187.294C250.038 187.305 251.182 189.019 251.491 189.006C251.575 189.003 253.898 187.613 255.975 188.722C257.128 189.339 258.196 190.1 258.585 191.452C258.823 192.435 258.855 193.457 258.679 194.452C258.679 194.452 261.923 194.608 261.887 198.373C261.87 200.179 260.165 201.134 260.165 201.149C260.19 201.746 261.092 202.226 260.589 203.207C259.939 204.476 258.867 204.001 258.657 204.35C258.569 204.493 259.275 205.828 257.549 206.282C257.451 206.307 258.095 203.79 256.277 203.218C254.782 202.749 252.986 201.807 252.543 200.308C252.367 199.712 252.561 198.376 251.871 198.068C251.606 197.949 251.218 198.626 250.979 198.684C248.834 199.206 248.081 198.885 246.206 197.821C245.823 197.604 245.525 196.988 245.105 196.902C244.341 196.744 243.428 198.351 242.61 198.502C241.917 198.631 240.42 197.84 240.172 197.977C239.779 198.194 239.749 198.901 239.35 199.121C238.994 199.318 237.975 198.978 237.991 198.985" fill="#212121"/>
<path fill-rule="evenodd" clip-rule="evenodd" d="M254.245 188.028C255.062 188.034 255.859 188.278 256.539 188.73C257.098 189.042 257.603 189.441 258.036 189.913C259.052 191.031 259.193 192.727 258.992 194.217C259.537 194.301 260.057 194.506 260.512 194.817C260.968 195.128 261.348 195.537 261.624 196.014C261.998 196.728 262.183 197.526 262.16 198.332C262.139 198.923 261.974 199.501 261.679 200.014C261.384 200.527 260.967 200.96 260.466 201.276C260.631 201.791 261.536 202.416 260.575 203.733C260.32 204.059 259.96 204.288 259.555 204.379C259.177 204.465 259.004 204.45 258.93 204.483C259.041 204.874 259.015 205.29 258.857 205.664C258.735 205.884 258.566 206.075 258.363 206.224C258.159 206.372 257.925 206.474 257.678 206.522C257.625 206.548 257.565 206.556 257.506 206.547C257.448 206.537 257.394 206.51 257.352 206.468C257.214 206.306 257.284 206.212 257.306 205.735C257.356 204.997 257.234 204.063 256.608 203.663C256.25 203.409 253.722 202.86 252.635 201.099C252.485 200.858 252.372 200.597 252.299 200.324C252.169 199.855 252.263 198.736 251.913 198.374C251.879 198.338 251.839 198.308 251.795 198.284C251.698 198.289 251.39 198.708 251.132 198.858C250.854 198.942 250.571 199.005 250.283 199.046C248.809 199.274 248.168 199.079 246.855 198.401C245.913 197.879 246.001 197.952 245.595 197.507C245.427 197.318 245.21 197.062 244.979 197.067C244.327 197.077 243.429 198.574 242.553 198.663C241.844 198.721 240.571 198.087 240.243 198.094C240.214 198.094 240.177 198.129 240.154 198.147C239.847 198.472 239.813 198.942 239.471 199.186C239.164 199.396 238.702 199.274 238.337 199.199C238.349 199.22 238.356 199.243 238.359 199.267C238.361 199.291 238.358 199.315 238.349 199.337C238.338 199.379 238.349 199.367 238.19 199.429C238.136 199.289 238.226 199.337 237.728 199.394C237.649 199.411 237.568 199.412 237.488 199.396C237.409 199.38 237.333 199.349 237.266 199.303C236.984 199.144 236.736 198.929 236.538 198.672C236.34 198.415 236.196 198.121 236.115 197.806C235.911 197.326 235.889 196.787 236.053 196.292C236.196 195.883 236.401 195.498 236.661 195.15C236.313 194.819 236.038 194.42 235.85 193.978C235.58 193.303 235.559 192.554 235.791 191.865C235.92 191.484 236.107 191.125 236.347 190.803C236.631 190.337 237.078 189.993 237.601 189.837C238.183 189.748 238.773 189.73 239.359 189.784C239.491 189.538 239.597 189.112 239.741 188.857C240.026 188.463 240.388 188.131 240.806 187.882C241.225 187.633 241.689 187.473 242.172 187.412C243.286 187.293 243.869 187.938 244.818 188.533C245.09 188.232 245.39 187.956 245.712 187.709C246.815 187.085 248.112 186.895 249.347 187.177C250.391 187.549 251.203 188.534 251.485 188.72C252.339 188.279 253.284 188.042 254.245 188.028ZM251.839 197.829C251.99 197.87 252.128 197.949 252.241 198.057C252.354 198.165 252.437 198.3 252.484 198.449C252.719 198.975 252.633 199.912 252.82 200.381C253.297 201.577 254.566 202.299 255.76 202.766C256.403 203.01 256.705 203.029 257.108 203.393C257.786 204.01 257.892 204.985 257.829 205.904C257.968 205.845 258.096 205.762 258.207 205.66C258.316 205.55 258.395 205.413 258.436 205.264C258.477 205.114 258.478 204.956 258.44 204.806C258.392 204.453 258.304 204.312 258.504 204.111C258.872 203.794 259.464 204.034 259.988 203.568C260.236 203.342 260.403 203.042 260.465 202.714C260.498 202.096 259.877 201.701 259.893 201.124C259.896 201.086 259.908 201.048 259.927 201.014C259.922 200.899 260.596 200.675 261.177 199.781C261.421 199.409 261.568 198.983 261.605 198.54C261.66 196.85 261.063 195.474 259.471 194.906C258.711 194.635 258.594 194.826 258.436 194.581C258.333 194.343 258.567 194.081 258.51 192.724C258.493 192.219 258.397 191.72 258.226 191.245C258.174 191.112 258.114 190.983 258.046 190.858C257.902 190.74 257.812 190.03 255.847 188.961C255.398 188.723 254.902 188.588 254.395 188.567C253.412 188.567 252.443 188.804 251.571 189.259C251.12 189.376 250.666 188.479 249.62 187.873C249.207 187.619 248.723 187.507 248.241 187.553C247.551 187.556 246.869 187.703 246.239 187.984C245.829 188.222 245.464 188.528 245.159 188.891C245.01 189.05 245.022 189.046 244.939 189.081C244.81 189.112 244.791 189.095 244.524 188.925C243.69 188.387 243.138 187.777 242.207 187.875C241.794 187.927 241.396 188.061 241.035 188.269C240.675 188.478 240.36 188.757 240.11 189.09C239.987 189.277 239.823 190.008 239.576 190.165C239.306 190.314 238.133 189.966 237.379 190.34C236.801 190.739 236.366 191.314 236.139 191.978C235.964 192.459 235.932 192.98 236.048 193.477C236.179 194.013 236.456 194.502 236.849 194.889C236.992 195.033 237.009 195.029 237.017 195.11C237.022 195.223 236.948 195.254 236.708 195.624C236.358 196.087 236.195 196.664 236.25 197.242C236.328 197.669 236.481 198.08 236.702 198.454C236.897 198.746 237.163 198.983 237.476 199.142C237.667 199.168 237.862 199.159 238.05 199.115L237.959 199.087L237.977 199.09L237.986 199.063L237.935 199.077C237.922 199.07 237.91 199.059 237.901 199.046C237.891 199.033 237.885 199.019 237.882 199.003C237.879 198.988 237.879 198.972 237.883 198.957C237.887 198.941 237.894 198.927 237.904 198.915C237.972 198.845 237.985 198.873 238.256 198.943C238.585 199.053 238.937 199.08 239.28 199.019C239.665 198.816 239.729 197.843 240.25 197.826C240.652 197.826 241.554 198.273 242.272 198.354C242.431 198.376 242.593 198.358 242.743 198.304C242.894 198.249 243.03 198.159 243.138 198.041C244.159 197.198 244.78 196.116 245.733 197.117C246.015 197.491 246.394 197.781 246.83 197.953C248.384 198.773 249.059 198.926 250.922 198.472C251.283 198.16 251.501 197.809 251.839 197.829ZM238.143 199.297L238.146 199.308V199.311L238.14 199.294L238.143 199.297Z" fill="#212121"/>
<path fill-rule="evenodd" clip-rule="evenodd" d="M242.765 211.548V211.552V211.543V211.547L242.762 211.537L242.765 211.541L242.761 211.532L242.764 211.536L242.759 211.526L242.762 211.53L242.757 211.521L242.76 211.525L242.756 211.516L242.759 211.52L242.753 211.512L242.757 211.515L242.752 211.508L242.756 211.511L242.75 211.504L242.753 211.507L242.747 211.5L242.751 211.503L242.746 211.497L242.75 211.5L242.744 211.494L242.748 211.497L242.743 211.492L242.747 211.495L242.741 211.49L242.747 211.492L242.74 211.488L242.745 211.491L242.739 211.487H242.745L242.739 211.484H242.745L242.739 211.481H242.745L242.739 211.478H242.745L242.741 211.475H242.748L242.744 211.473H242.752H242.746H242.756H242.752H242.761H242.757H242.768H242.765C242.939 211.45 243.107 211.395 243.261 211.311L243.269 211.306L243.261 211.309L243.272 211.301L243.262 211.305L243.267 211.299L243.254 211.306L243.261 211.301L243.246 211.31L243.251 211.305L243.24 211.312C243.302 211.243 243.353 211.167 243.392 211.084V211.076C243.48 210.899 243.533 210.706 243.55 210.509V210.504C243.583 210.298 243.555 210.087 243.469 209.898C243.383 209.708 243.243 209.548 243.067 209.438C242.857 209.312 242.653 209.334 242.723 209.321H242.716L242.727 209.318C242.532 209.35 242.346 209.42 242.178 209.525V209.521L242.17 209.529V209.526L242.162 209.533L242.165 209.529L242.157 209.537L242.16 209.532L242.157 209.536L242.153 209.539L242.156 209.534L242.15 209.541L242.153 209.536L242.148 209.541V209.536L242.145 209.541V209.535L242.143 209.541L242.145 209.535L242.141 209.541L242.144 209.534L242.141 209.54V209.533L242.139 209.539V209.531V209.537V209.529L242.136 209.535V209.527V209.533V209.525V209.531V209.522V209.528V209.519V209.526V209.517V209.522V209.514V209.519V209.511V209.517V209.508V209.514L242.133 209.505V209.512L242.13 209.503V209.509L242.127 209.501V209.507L242.122 209.499V209.505L242.119 209.497V209.502L242.115 209.494L242.118 209.5L242.06 209.752L241.808 209.694C241.78 209.657 241.761 209.616 241.751 209.572C241.74 209.527 241.74 209.481 241.749 209.437C241.817 209.215 241.952 209.019 242.137 208.878C242.311 208.718 242.529 208.614 242.764 208.58C242.998 208.546 243.237 208.583 243.45 208.687C244.739 209.246 244.74 211.216 243.729 211.837C243.549 211.929 243.35 211.978 243.148 211.981C242.946 211.985 242.746 211.942 242.563 211.856C242.509 211.829 242.465 211.787 242.435 211.735C242.405 211.682 242.391 211.622 242.395 211.562L242.578 211.384L242.756 211.569V211.574V211.565V211.57V211.555V211.56V211.55V211.555L242.765 211.548Z" fill="#212121"/>
<path fill-rule="evenodd" clip-rule="evenodd" d="M234.806 200.007C234.881 200.046 236.577 198.348 236.577 198.348C237.723 198.201 250.321 197.351 253.007 199.072C253.954 199.679 253.777 204.708 253.508 206.204C253.342 207.125 251.392 208.052 251.392 208.052C251.392 208.052 244.729 209.412 234.564 207.525C234.272 207.47 234.806 200.007 234.806 200.007Z" fill="white"/>
<path fill-rule="evenodd" clip-rule="evenodd" d="M252.892 198.515C253.092 198.585 253.273 198.7 253.421 198.852C253.568 199.003 253.679 199.187 253.745 199.388C254.371 200.967 254.183 205.194 253.949 206.302C253.905 206.516 253.815 206.718 253.684 206.894C253.171 207.505 252.533 208 251.814 208.346C251.617 208.469 251.392 208.542 251.16 208.556C247.437 209.167 241.549 209.202 235.215 207.987C234.375 207.827 234.2 207.901 234.171 207.208C234.131 206.255 234.286 204.146 234.359 203.209C234.638 199.615 234.605 199.936 234.745 199.838C235.245 199.41 235.715 198.948 236.153 198.457C236.518 198.082 236.371 198.136 236.96 198.073C240.156 197.733 249.985 197.1 252.892 198.515ZM243.042 198.37C242.419 198.37 236.793 198.459 236.668 198.585C236.413 198.829 235.285 199.908 234.984 200.122C234.887 202.244 234.738 205.263 234.82 207.238C239.547 208.054 246.587 208.456 251.25 207.62C251.861 207.334 252.416 206.939 252.885 206.454C252.962 206.37 253.02 206.271 253.057 206.164C253.295 205.143 253.479 200.246 252.787 199.454L252.777 199.445C252.587 199.322 252.381 199.227 252.165 199.161C249.969 198.419 245.427 198.37 243.042 198.37ZM234.842 207.379L234.839 207.371V207.374V207.376V207.369L234.842 207.379ZM234.838 207.369L234.841 207.376V207.369L234.838 207.369Z" fill="#212121"/>
<path fill-rule="evenodd" clip-rule="evenodd" d="M234.806 200.007C234.806 200.007 233.591 206.996 234.564 207.525C237.709 209.228 251.273 209.027 251.47 207.87C251.811 205.864 251.957 200.669 251.213 200.772C249.04 201.067 236.84 200.94 234.806 200.007Z" fill="white"/>
<path fill-rule="evenodd" clip-rule="evenodd" d="M234.628 199.976C234.633 199.949 234.644 199.924 234.66 199.902C234.676 199.88 234.697 199.861 234.722 199.848C234.746 199.836 234.773 199.828 234.8 199.827C234.828 199.826 234.855 199.831 234.88 199.842C236.765 200.601 245.686 200.524 247.735 200.489C248.916 200.505 250.096 200.451 251.27 200.327C251.799 200.367 251.946 200.946 252.046 201.429C252.271 203.529 252.238 205.648 251.949 207.74C251.952 207.878 251.918 208.014 251.852 208.134C251.785 208.255 251.689 208.357 251.571 208.429C250.006 209.473 239.388 209.546 235.321 208.213C234.925 208.103 234.552 207.92 234.222 207.674C233.347 206.67 234.393 201.398 234.626 199.976C234.671 199.984 234.736 199.995 234.628 199.976ZM245.52 208.317C246.559 208.294 250.118 208.169 251.041 207.692C251.179 206.675 251.261 205.652 251.287 204.626C251.337 203.571 251.291 202.513 251.147 201.467C251.131 201.386 251.11 201.307 251.084 201.229C248.716 201.465 243.442 201.255 240.786 201.073C239.54 200.985 236.128 200.714 234.954 200.262C234.744 201.748 234.389 204.798 234.515 206.277C234.511 206.601 234.581 206.922 234.718 207.215V207.218H234.721L234.724 207.221C236.774 208.275 243.057 208.368 245.52 208.317ZM234.734 207.233L234.73 207.228H234.733L234.729 207.224H234.732L234.726 207.22H234.729L234.723 207.215H234.726L234.721 207.212L234.725 207.216L234.722 207.212L234.728 207.218L234.723 207.213L234.729 207.219L234.723 207.214L234.734 207.233ZM234.726 207.225H234.73L234.726 207.223V207.225Z" fill="#212121"/>
<path fill-rule="evenodd" clip-rule="evenodd" d="M251.816 202.35C252.337 202.61 261.198 197.266 261.667 196.911C262.266 196.46 262.312 199.247 261.748 199.955C260.896 201.022 252.081 205.871 251.83 205.258C251.799 205.182 251.816 202.35 251.816 202.35Z" fill="white"/>
<path fill-rule="evenodd" clip-rule="evenodd" d="M251.887 202.18H251.891L251.881 202.177H251.885L251.877 202.175H251.881H251.873H251.877L251.87 202.173H251.874H251.868H251.871H251.866C251.995 202.14 252.121 202.095 252.241 202.038C253.498 201.492 260.701 197.009 261.093 196.759C261.463 196.522 261.372 196.573 261.449 196.522C261.531 196.469 261.625 196.436 261.722 196.425C261.819 196.414 261.917 196.426 262.009 196.459C262.101 196.492 262.184 196.546 262.252 196.617C262.319 196.688 262.369 196.773 262.399 196.866C262.723 197.514 262.648 199.409 262.182 200.123C261.384 201.325 253.648 205.453 252.053 205.6C251.933 205.617 251.81 205.594 251.705 205.534C251.48 205.382 251.531 205.24 251.569 204.042C251.571 203.977 251.627 202.507 251.638 202.347C251.637 202.317 251.645 202.287 251.659 202.26C251.674 202.234 251.695 202.211 251.721 202.195C251.746 202.179 251.776 202.169 251.806 202.167C251.836 202.165 251.866 202.171 251.894 202.184H251.898L251.887 202.18ZM252.115 205.214V205.205V205.21V205.201V205.205V205.193V205.214ZM254.772 201.321C253.882 201.797 252.955 202.201 252 202.53C252.016 202.997 252.059 204.276 252.096 204.989C252.354 204.91 252.607 204.813 252.852 204.699C253.989 204.19 261.008 200.422 261.453 199.568C261.609 199.151 261.689 198.711 261.691 198.266C261.702 197.995 261.686 197.724 261.644 197.456C259.66 198.704 256.687 200.359 254.772 201.321Z" fill="#212121"/>
<path fill-rule="evenodd" clip-rule="evenodd" d="M249.25 202.667V202.67L249.202 202.825L249.055 202.909C247.103 203.18 245.136 203.318 243.166 203.322C241.871 203.336 237.977 203.271 236.775 202.845L236.469 202.557L236.455 202.137V202.134L236.741 201.828C237.371 201.806 236.967 201.791 237.569 201.926C239.143 202.25 242.385 202.423 243.986 202.489C248.805 202.682 248.673 202.373 249.167 202.525L249.25 202.667Z" fill="#212121"/>
<path fill-rule="evenodd" clip-rule="evenodd" d="M233.785 222.665C230.143 227.555 227.575 233.159 226.25 239.11C225.805 241.09 226.034 240.694 225.714 240.948L225.557 240.745C226.026 233.909 228.832 227.442 233.505 222.43L233.762 222.407L233.785 222.665Z" fill="#212121"/>
<defs>
<linearGradient id="paint0_linear_1187_21106" x1="275.187" y1="179.277" x2="148.203" y2="414.92" gradientUnits="userSpaceOnUse">
<stop stop-color="white"/>
<stop offset="1" stop-color="#BBC9D8"/>
</linearGradient>
<linearGradient id="paint1_linear_1187_21106" x1="266.153" y1="196.026" x2="170.435" y2="373.685" gradientUnits="userSpaceOnUse">
<stop stop-color="white"/>
<stop offset="1" stop-color="#BBC9D8"/>
</linearGradient>
</defs>
</svg>
