<svg width="477" height="495" viewBox="0 0 477 495" fill="none" xmlns="http://www.w3.org/2000/svg">
<mask id="mask0_1187_21476" style="mask-type:luminance" maskUnits="userSpaceOnUse" x="48" y="82" width="381" height="331">
<path d="M333.713 82.4498L381.311 164.888L428.912 247.33L381.298 329.777L333.685 412.224L238.476 412.231L143.264 412.24L95.6637 329.798L48.0652 247.359L95.6752 164.914L143.289 82.4672L238.501 82.4585L333.713 82.4498Z" fill="white"/>
</mask>
<g mask="url(#mask0_1187_21476)">
<path d="M1.61217 161.904L282.929 -0.505244L475.961 333.817L194.644 496.226L1.61217 161.904Z" fill="url(#paint0_linear_1187_21476)" stroke="url(#paint1_linear_1187_21476)" stroke-width="5"/>
</g>
<mask id="mask1_1187_21476" style="mask-type:luminance" maskUnits="userSpaceOnUse" x="95" y="123" width="289" height="249">
<path d="M311.285 123.022L167.711 123.037L95.9155 247.359L167.692 371.674L311.263 371.662L383.062 247.337L311.285 123.022Z" fill="white"/>
</mask>
<g mask="url(#mask1_1187_21476)">
<path d="M275.398 60.8671L60.0281 185.204L203.582 433.833L418.952 309.496L275.398 60.8671Z" fill="url(#paint2_linear_1187_21476)" fill-opacity="0.8"/>
</g>
<path d="M232.291 318.107L237.475 326.435H234.403L230.635 320.387L227.107 326.435H224.059L229.243 318.107L224.035 309.755H227.107L230.899 315.851L234.451 309.755H237.499L232.291 318.107ZM249.142 326.435L245.302 319.763H243.214V326.435H240.478V309.755H246.238C247.518 309.755 248.598 309.979 249.478 310.427C250.374 310.875 251.038 311.475 251.47 312.227C251.918 312.979 252.142 313.819 252.142 314.747C252.142 315.835 251.822 316.827 251.182 317.723C250.558 318.603 249.59 319.203 248.278 319.523L252.406 326.435H249.142ZM243.214 317.579H246.238C247.262 317.579 248.03 317.323 248.542 316.811C249.07 316.299 249.334 315.611 249.334 314.747C249.334 313.883 249.078 313.211 248.566 312.731C248.054 312.235 247.278 311.987 246.238 311.987H243.214V317.579Z" fill="#001237"/>
<path fill-rule="evenodd" clip-rule="evenodd" d="M229.721 170.673C230.153 170.643 230.585 170.73 230.972 170.925C231.23 171.132 231.243 171.41 231.302 171.947C231.735 175.979 232.555 205.491 232.421 205.829C232.242 206.129 232.077 206.119 231.73 206.172C224.212 207.35 214.643 210.036 207.286 212.534C187.898 219.15 182.412 224.41 181.704 224.705C181.635 224.726 181.562 224.733 181.49 224.725C181.419 224.716 181.349 224.692 181.288 224.655C181.226 224.617 181.173 224.567 181.132 224.507C181.091 224.448 181.063 224.38 181.051 224.309C180.374 222.047 178.573 189.744 178.442 186.938C178.431 186.829 178.445 186.719 178.485 186.617C178.524 186.515 178.587 186.424 178.668 186.35C181.715 183.044 222.004 170.683 229.721 170.673ZM181.828 223.489C193.187 215.14 217.389 207.327 231.37 205.119C230.387 167.796 230.298 173.584 230.222 171.757C229.524 171.704 228.823 171.729 228.131 171.833C220.859 172.71 203.614 177.677 196.137 180.02C194.363 180.577 179.834 185.134 178.901 186.775C178.833 186.896 181.104 218.691 181.828 223.489Z" fill="black"/>
<path fill-rule="evenodd" clip-rule="evenodd" d="M184.432 189.685C184.458 190.293 186.207 213.271 186.322 213.203C188.923 211.657 199.835 207.722 201.335 206.896C201.584 206.759 200.208 185.827 199.936 184.888C199.585 183.678 184.429 189.619 184.432 189.685Z" fill="#212121"/>
<path fill-rule="evenodd" clip-rule="evenodd" d="M199.53 184.264C199.682 184.247 199.835 184.272 199.974 184.333C200.114 184.395 200.234 184.493 200.323 184.616C200.785 185.441 201.78 202.662 201.871 204.871C201.959 207.072 201.997 207.177 201.461 207.449C200.485 207.934 197.597 209.045 195.046 210.045C186.503 213.391 186.936 213.515 186.511 213.681C186.442 213.709 186.368 213.721 186.294 213.717C186.22 213.713 186.147 213.693 186.082 213.659C186.016 213.624 185.958 213.576 185.912 213.518C185.867 213.459 185.834 213.392 185.817 213.319C185.533 212.115 184.183 189.698 184.214 189.695C184.212 189.652 184.222 189.608 184.245 189.571C184.267 189.534 184.3 189.504 184.34 189.485C184.902 189.184 196.932 184.249 199.53 184.264ZM184.665 189.82C184.682 190.017 186.67 211.714 186.738 212.387C190.078 210.694 198.763 207.504 200.816 206.541C200.843 204.196 199.729 186.918 199.514 185.188C197.667 185.052 186.545 189.056 184.665 189.82Z" fill="#212121"/>
<path fill-rule="evenodd" clip-rule="evenodd" d="M205.072 183.438C205.049 183.211 205.276 183.05 205.475 182.934C207.892 181.506 222.928 177.627 224.98 177.672C225.135 177.662 225.288 177.709 225.41 177.804C225.533 177.898 225.617 178.035 225.646 178.187C225.928 179.181 226.588 185.777 226.395 186.688C226.378 186.785 226.337 186.877 226.276 186.955C226.216 187.032 226.137 187.094 226.047 187.135C225.885 187.181 225.719 187.212 225.551 187.227C222.785 187.737 207.827 191.688 205.895 191.352C205.788 191.343 205.687 191.301 205.606 191.231C205.525 191.162 205.468 191.067 205.444 190.963C205.298 190.211 205.213 186.979 205.108 184.278C205.08 183.513 205.069 183.447 205.072 183.438ZM224.662 178.769C222.562 178.999 206.658 182.426 205.517 183.447C205.614 184.268 205.974 189.411 206.16 190.59C208.19 190.528 222.124 186.756 225.335 186.151C225.36 184.769 224.75 178.76 224.662 178.769Z" fill="#212121"/>
<path fill-rule="evenodd" clip-rule="evenodd" d="M227.025 191.124L227.101 191.27V191.273L227.049 191.428C226.743 191.59 227.217 191.417 225.366 191.715C221.205 192.393 213.948 194.329 210.069 195.579C206.594 196.708 207.767 196.587 206.875 196.635L206.56 196.356V196.353L206.537 195.933C206.87 195.558 206.784 195.633 206.915 195.573C210.482 194.019 222.321 191.259 226.868 191.069L227.025 191.124Z" fill="#212121"/>
<path fill-rule="evenodd" clip-rule="evenodd" d="M227.379 196.695L227.456 196.84V196.843L227.403 196.998C227.098 197.16 227.571 196.987 225.72 197.285C221.559 197.963 214.303 199.899 210.424 201.149C206.832 202.316 208.165 202.154 207.229 202.205L206.915 201.926V201.924L206.892 201.504C207.224 201.129 207.139 201.204 207.27 201.144C210.837 199.59 222.676 196.829 227.223 196.64L227.379 196.695Z" fill="#212121"/>
<path fill-rule="evenodd" clip-rule="evenodd" d="M300.084 183.557C300.199 183.747 300.18 183.546 300.197 186.303C300.21 188.346 300.392 219.447 299.846 221.427C299.833 221.504 299.802 221.576 299.756 221.638C299.709 221.701 299.649 221.751 299.579 221.786C299.51 221.821 299.433 221.838 299.355 221.838C299.278 221.837 299.201 221.818 299.132 221.783C297.679 220.835 296.174 219.969 294.624 219.19C282.324 212.896 260.829 207.537 247.88 206.359C247.763 206.349 247.651 206.3 247.563 206.221C247.476 206.142 247.415 206.036 247.391 205.921C247.345 205.522 246.215 174.421 246.533 171.691C246.531 171.523 246.588 171.359 246.694 171.229C246.801 171.099 246.949 171.011 247.114 170.979C251.581 169.369 298.069 180.389 300.084 183.557ZM299.732 183.831C299.733 183.842 299.734 183.852 299.736 183.863H299.74C299.737 183.837 299.728 183.813 299.713 183.792L299.716 183.795C298.439 181.81 277.33 176.949 275.029 176.427C271.475 175.623 251.117 171.155 247.567 171.939C247.602 173.741 247.184 168.689 248.461 205.308C260.006 206.413 278.704 210.908 291.148 216.441C297.37 219.224 299.02 220.767 299.038 220.566C299.535 214.854 299.69 183.831 299.732 183.831ZM300.063 184.008H300.061H300.065C300.032 183.955 299.831 183.61 300.063 184.008Z" fill="black"/>
<path fill-rule="evenodd" clip-rule="evenodd" d="M294.367 187.031C294.379 187.639 294.038 210.682 293.918 210.62C291.227 209.237 280.096 205.977 278.546 205.244C278.289 205.122 278.383 184.146 278.597 183.194C278.875 181.962 294.366 186.964 294.367 187.031Z" fill="#212121"/>
<path fill-rule="evenodd" clip-rule="evenodd" d="M279.197 182.538C281.955 182.58 293.415 186.371 294.437 186.822C294.481 186.838 294.518 186.866 294.545 186.904C294.572 186.941 294.586 186.986 294.587 187.032C294.545 187.032 294.407 187.034 294.59 187.032C294.623 188.27 294.639 209.502 294.431 210.711C294.418 210.784 294.39 210.853 294.348 210.914C294.306 210.975 294.252 211.026 294.188 211.064C294.114 211.107 294.032 211.133 293.946 211.139C293.664 211.144 293.87 211.089 292.034 210.387C288.204 208.936 281.353 206.901 278.886 205.977C278.615 205.907 278.36 205.784 278.138 205.614C277.949 205.373 277.888 205.409 277.857 200.49C277.841 197.795 277.872 184.889 278.13 183.17C278.213 182.65 278.676 182.532 279.197 182.538ZM279.041 183.466C278.926 185.286 278.876 202.125 279.043 204.818C279.06 205.064 289.612 208.172 293.455 209.833C293.495 208.813 294.136 187.534 294.144 187.181C292.106 186.495 280.929 183.234 279.04 183.466H279.041Z" fill="#212121"/>
<path fill-rule="evenodd" clip-rule="evenodd" d="M253.399 177.515C256.354 177.573 271.577 180.525 273.189 181.724C273.249 181.76 273.299 181.81 273.333 181.87C273.368 181.93 273.386 181.997 273.387 182.067C273.371 182.568 273.544 187.494 273.503 189.097C273.489 189.551 273.509 189.833 273.152 189.979C271.629 190.552 257.174 187.661 253.466 187.134C252.498 187.001 252.264 187.212 252.211 185.729C252.152 183.93 252.293 180.104 252.452 178.603C252.534 177.835 252.6 177.507 253.399 177.515ZM253.324 186.007C256.48 186.404 270.733 189.332 272.735 189.264C272.838 188.186 272.896 183.103 272.936 182.166C272.982 181.321 255.481 178.671 253.542 178.596C253.344 181.061 253.271 183.534 253.324 186.007Z" fill="#212121"/>
<path fill-rule="evenodd" clip-rule="evenodd" d="M252.938 191.372C255.893 191.43 271.117 194.383 272.728 195.582C272.788 195.617 272.838 195.667 272.872 195.727C272.907 195.787 272.925 195.855 272.926 195.924C272.91 196.425 273.083 201.351 273.042 202.954C273.028 203.409 273.048 203.69 272.691 203.834C271.168 204.407 256.713 201.517 253.005 200.99C252.039 200.857 251.803 201.068 251.75 199.585C251.691 197.786 251.832 193.959 251.991 192.459C252.074 191.692 252.139 191.365 252.938 191.372ZM252.862 199.866C256.017 200.264 270.271 203.192 272.273 203.124C272.376 202.046 272.434 196.963 272.474 196.026C272.52 195.18 255.019 192.531 253.08 192.456C252.882 194.921 252.809 197.394 252.862 199.866Z" fill="#212121"/>
<path fill-rule="evenodd" clip-rule="evenodd" d="M226.22 222.988C230.445 223.006 230.63 228.375 230.63 228.375C230.63 228.375 227.461 241.181 226.396 241.075C223.904 240.829 220.795 240.186 218.043 233.958C215.946 229.212 215.612 214.48 215.327 213.788C214.987 212.961 214.071 212.257 213.611 211.444C212.846 210.092 212.811 208.047 213.933 207.08C214.371 206.815 214.857 206.642 215.364 206.572C214.931 205.629 214.569 204.656 214.281 203.66C214.09 203.124 213.841 202.622 214.088 202.103C214.143 201.986 214.226 201.883 214.329 201.803C214.432 201.724 214.552 201.669 214.679 201.645C214.807 201.62 214.939 201.626 215.064 201.662C215.189 201.698 215.304 201.763 215.399 201.851C215.897 202.313 217.231 204.869 217.371 205.452C217.41 205.618 219.193 207.28 219.498 208.481C219.568 208.759 220.932 210.857 221.183 211.247C222.752 213.694 223.596 216.614 224.697 219.291C225.067 220.187 225.752 222.447 226.219 222.987C226.921 223.819 227.567 224.696 228.155 225.613" fill="white"/>
<path fill-rule="evenodd" clip-rule="evenodd" d="M215.566 201.434C216.121 201.822 217.105 203.799 217.39 204.405C217.933 205.571 217.586 205.108 217.98 205.556C219.958 207.794 219.63 207.977 220.01 208.659C221.158 210.707 221.917 211.386 223.123 214.356C223.479 215.234 225.163 219.788 225.178 219.831C225.45 220.633 226.002 222.32 226.356 222.806C228.522 222.854 229.771 224.226 230.488 226.27C230.706 226.944 230.844 227.641 230.899 228.347C230.913 228.669 229.08 235.775 227.985 238.918C227.764 239.582 227.49 240.227 227.165 240.848C226.759 241.529 226.547 241.481 226.06 241.436C225.306 241.367 224.562 241.214 223.843 240.977C222.552 240.519 221.399 239.741 220.491 238.716C218.963 236.947 217.817 234.883 217.122 232.652C215.816 228.09 215.378 220.152 215.053 215.532C214.933 213.87 214.935 213.945 214.726 213.616C214.393 213.098 213.795 212.536 213.378 211.923C212.407 210.473 212.263 208.121 213.504 206.871C213.845 206.556 214.267 206.343 214.722 206.257C214.464 205.629 214.237 204.989 214.044 204.339C213.813 203.606 213.763 203.534 213.666 203.223C213.166 201.579 214.573 200.761 215.566 201.434ZM226.308 240.711L226.303 240.715L226.307 240.712L226.308 240.711ZM214.805 202.063C214.65 202.066 214.522 202.143 214.448 202.368C214.41 202.728 214.482 203.091 214.656 203.409C214.954 204.416 215.321 205.402 215.754 206.359C215.802 206.446 215.819 206.547 215.802 206.645C215.785 206.744 215.736 206.834 215.663 206.901C215.487 207.035 215.495 206.985 215.068 207.086C214.773 207.143 214.49 207.252 214.235 207.41C213.437 208.05 213.205 209.825 214.013 211.238C214.206 211.545 214.426 211.834 214.67 212.101C215.877 213.492 215.815 213.566 215.93 215.123C216.206 218.848 216.482 224.217 217.212 228.831C217.713 231.96 218.157 233.665 219.72 236.265C220.686 237.804 221.675 238.995 223.271 239.85C224.233 240.318 225.275 240.599 226.342 240.679C226.734 240.048 227.05 239.372 227.283 238.667C228.404 235.531 229.366 232.062 230.223 228.859C230.383 228.245 230.368 228.43 230.333 228.019C230.088 226.019 229.337 224.025 227.423 223.365C227.178 223.286 226.927 223.231 226.672 223.2C227.255 223.943 227.799 224.715 228.302 225.514L228.25 225.766L227.998 225.712C225.229 221.626 226.437 224.559 224.562 219.668C224.418 219.304 224.209 218.833 223.983 218.249C223.426 216.847 222.988 215.635 222.397 214.288C221.168 211.631 221.072 211.817 219.64 209.516C219.433 209.214 219.258 208.891 219.118 208.552C218.841 207.594 217.531 206.307 217.122 205.814C216.896 205.536 217.101 205.654 216.408 204.296C216.094 203.676 215.746 203.075 215.364 202.495C215.209 202.263 215.086 202.058 214.805 202.063Z" fill="#212121"/>
<path fill-rule="evenodd" clip-rule="evenodd" d="M213.373 207.703C213.182 207.62 212.97 207.596 212.764 207.634C212.559 207.672 212.37 207.771 212.221 207.918C211.814 208.301 211.913 208.959 212.084 209.446C212.449 210.282 212.981 211.033 213.65 211.654C213.98 211.901 214.818 211.76 214.928 211.267C215.054 210.706 214.819 210.251 214.574 209.738C214.273 209.109 213.905 208.16 213.373 207.703Z" fill="white"/>
<path fill-rule="evenodd" clip-rule="evenodd" d="M212.892 207.39C213.112 207.386 213.328 207.452 213.507 207.579C213.83 207.844 214.105 208.162 214.321 208.52C214.547 208.879 215.046 209.776 215.152 209.998C215.33 210.336 215.415 210.714 215.398 211.095C215.4 211.305 215.339 211.511 215.224 211.686C215.109 211.861 214.944 211.999 214.751 212.081C214.56 212.172 214.353 212.222 214.142 212.226C213.93 212.231 213.721 212.191 213.527 212.108C213.038 211.749 212.626 211.296 212.316 210.776C211.87 210.091 211.479 209.354 211.581 208.543C211.612 208.22 211.764 207.921 212.008 207.707C212.251 207.492 212.568 207.379 212.892 207.39ZM212.617 207.967C212.534 208.015 212.463 208.081 212.409 208.159C212.355 208.238 212.319 208.328 212.304 208.422C212.287 208.727 212.345 209.032 212.472 209.31C212.83 210.045 213.315 210.711 213.905 211.278C214.001 211.316 214.106 211.328 214.209 211.312C214.311 211.295 214.407 211.251 214.486 211.184C214.558 210.896 214.524 210.591 214.39 210.325C214.374 210.283 213.819 208.836 213.802 208.794C213.676 208.45 213.493 208.13 213.26 207.847L213.255 207.844L213.264 207.851L213.259 207.848L213.267 207.853L213.261 207.85L213.267 207.854L213.261 207.851C213.151 207.825 213.037 207.822 212.927 207.842C212.816 207.862 212.71 207.905 212.617 207.967Z" fill="#212121"/>
<path fill-rule="evenodd" clip-rule="evenodd" d="M215.16 206.641C214.969 206.557 214.757 206.533 214.551 206.571C214.346 206.61 214.157 206.709 214.009 206.856C213.602 207.238 213.7 207.896 213.871 208.384C214.236 209.219 214.768 209.971 215.437 210.591C215.767 210.838 216.605 210.697 216.715 210.204C216.841 209.644 216.606 209.188 216.361 208.676C216.06 208.047 215.693 207.098 215.16 206.641Z" fill="white"/>
<path fill-rule="evenodd" clip-rule="evenodd" d="M214.679 206.328C214.899 206.323 215.115 206.389 215.294 206.516C215.617 206.782 215.892 207.099 216.108 207.457C216.334 207.816 216.832 208.713 216.94 208.935C217.117 209.273 217.203 209.651 217.187 210.033C217.188 210.243 217.128 210.448 217.012 210.623C216.897 210.799 216.732 210.936 216.539 211.018C216.349 211.109 216.141 211.159 215.93 211.164C215.719 211.168 215.509 211.128 215.315 211.045C214.826 210.687 214.415 210.234 214.105 209.713C213.658 209.028 213.267 208.292 213.37 207.48C213.4 207.158 213.552 206.859 213.796 206.644C214.039 206.43 214.355 206.317 214.679 206.328ZM214.404 206.905C214.321 206.953 214.25 207.018 214.196 207.097C214.142 207.175 214.107 207.265 214.092 207.359C214.074 207.665 214.132 207.97 214.26 208.248C214.617 208.983 215.102 209.649 215.692 210.215C215.788 210.254 215.893 210.265 215.996 210.249C216.098 210.232 216.194 210.189 216.273 210.122C216.345 209.833 216.311 209.528 216.177 209.262C216.161 209.22 215.605 207.774 215.589 207.731C215.464 207.387 215.282 207.067 215.05 206.783L215.045 206.78L215.055 206.787L215.049 206.784L215.057 206.789L215.051 206.786L215.058 206.79L215.051 206.787C214.941 206.761 214.826 206.758 214.715 206.778C214.604 206.798 214.498 206.842 214.404 206.905Z" fill="#212121"/>
<path fill-rule="evenodd" clip-rule="evenodd" d="M219.324 208.602C219.393 208.405 219.401 208.192 219.347 207.991C219.293 207.789 219.18 207.608 219.022 207.472C218.609 207.094 217.96 207.243 217.486 207.451C216.68 207.878 215.97 208.466 215.401 209.179C215.18 209.526 215.384 210.35 215.885 210.422C216.454 210.506 216.891 210.237 217.383 209.954C217.989 209.605 218.908 209.167 219.324 208.602Z" fill="white"/>
<path fill-rule="evenodd" clip-rule="evenodd" d="M218.287 206.881C218.495 206.874 218.701 206.918 218.887 207.01C219.073 207.102 219.233 207.238 219.354 207.407C219.495 207.595 219.58 207.819 219.598 208.052C219.616 208.286 219.568 208.52 219.458 208.728C219.184 209.113 218.842 209.445 218.448 209.706C217.943 210.071 217.415 210.403 216.869 210.703C216.599 210.824 216.305 210.884 216.009 210.877C215.801 210.88 215.597 210.821 215.422 210.709C215.247 210.596 215.109 210.434 215.026 210.244C214.927 210.056 214.872 209.849 214.862 209.638C214.853 209.426 214.89 209.215 214.971 209.02C215.229 208.505 216.126 207.794 216.64 207.451C217.117 207.096 217.692 206.897 218.287 206.881ZM218.455 207.591C217.962 207.651 217.496 207.853 217.115 208.172C216.614 208.524 216.165 208.944 215.782 209.422C215.732 209.508 215.791 209.911 215.944 209.981C216.25 210.012 216.557 209.946 216.824 209.793C218.047 209.205 218.744 208.947 219.171 208.501L219.173 208.496C219.187 208.39 219.179 208.282 219.149 208.18C219.118 208.018 219.032 207.871 218.906 207.764C218.78 207.657 218.622 207.596 218.457 207.59L218.455 207.591Z" fill="#212121"/>
<path fill-rule="evenodd" clip-rule="evenodd" d="M230.14 229.351C230.14 229.351 230.661 225.327 226.36 222.938C225.345 222.374 236.117 216.614 248.28 216.188C264.725 215.612 269.121 231.152 269.028 235.117C268.986 238.351 268.191 241.531 266.707 244.404C265.223 247.277 263.089 249.765 260.476 251.671L258.451 250.345L228.906 254.562C228.906 254.562 226.444 247.152 224.382 245.871C223.825 245.524 226.613 241.302 226.613 241.302C228.415 231.297 230.14 229.351 230.14 229.351Z" fill="white"/>
<path fill-rule="evenodd" clip-rule="evenodd" d="M229.75 229.599C230.006 229.19 229.958 229.344 229.97 229.163C229.987 228.269 229.817 227.382 229.47 226.558C229.122 225.734 228.606 224.993 227.954 224.382C226.842 223.332 226.201 223.238 226.082 222.979C225.463 221.616 235.994 216.921 245.842 215.965C249.23 215.644 252.18 215.671 255.48 216.664C262.885 218.917 267.727 225.646 269.184 232.587C269.434 233.66 269.523 234.764 269.447 235.863C269.273 239.46 268.193 242.954 266.306 246.021C264.561 248.835 262.232 251.082 260.748 252.034C260.673 252.089 260.583 252.121 260.49 252.124C260.397 252.127 260.306 252.101 260.228 252.05L258.345 250.816C258.39 250.816 229.036 254.999 228.766 254.913C228.544 254.803 228.592 254.776 228.276 253.886C227.677 252.153 225.775 247.181 224.256 246.163C224.159 246.112 224.083 246.029 224.04 245.928C223.895 245.546 224.202 244.878 224.401 244.482C224.986 243.351 225.636 242.256 226.35 241.201C226.398 241.198 227.746 232.978 229.75 229.599ZM244.259 216.889C239.841 217.442 235.513 218.559 231.379 220.214C230.318 220.649 227.352 221.925 226.579 222.785C228.718 224.051 229.872 225.777 230.235 227.728C230.342 228.268 230.37 228.821 230.319 229.37C229.936 229.962 229.623 230.596 229.385 231.26C227.789 235.315 226.971 241.235 226.842 241.451C226.292 242.278 224.872 244.584 224.622 245.619C224.613 245.709 224.614 245.565 225.149 246.108C226.707 247.778 228.412 251.999 229.155 254.143C229.514 254.092 257.799 249.911 258.579 249.911C258.62 249.923 258.659 249.941 258.695 249.965C260.603 251.212 260.444 251.141 260.486 251.11C261.379 250.45 262.208 249.709 262.964 248.896C265.783 245.918 267.641 242.161 268.298 238.114C268.718 235.268 268.73 233.781 267.77 230.725C267.411 229.594 266.967 228.491 266.441 227.427C261.69 218.144 254.28 215.678 244.259 216.889Z" fill="#212121"/>
<path fill-rule="evenodd" clip-rule="evenodd" d="M258.553 250.258C258.553 250.258 243.459 240.804 243.343 240.827C225.68 244.364 219.804 248.205 218.932 248.337C217.502 248.554 215.95 248.554 214.445 248.782C213.718 248.892 209.836 249.058 209.867 249.935C209.956 252.381 214.351 250.252 214.805 252.302C214.938 252.72 215.193 253.089 215.539 253.36C215.884 253.631 216.303 253.792 216.74 253.822C218.734 253.914 219.789 252.979 220.319 252.707C220.524 252.604 224.2 253.693 228.19 254.506C252.694 259.494 258.406 250.21 258.553 250.258Z" fill="white"/>
<path fill-rule="evenodd" clip-rule="evenodd" d="M258.647 250.409C258.615 250.457 258.218 250.91 257.993 251.133C257.069 252.038 256.022 252.807 254.882 253.418C241.492 260.348 221.01 252.788 220.361 253.2C219.385 253.898 218.217 254.275 217.017 254.279C216.59 254.298 216.164 254.212 215.777 254.027C215.461 253.888 215.177 253.687 214.942 253.435C214.706 253.183 214.525 252.886 214.408 252.562C214.385 252.399 214.323 252.244 214.227 252.11C213.464 251.285 210.734 252.287 209.721 250.921C209.525 250.636 209.419 250.298 209.416 249.951C209.402 249.241 210.238 248.965 210.917 248.795C212.024 248.574 213.145 248.426 214.272 248.351C216.01 248.107 216.63 248.141 218.139 247.988C218.885 247.91 218.769 247.9 218.871 247.896C221.1 247.022 226.011 244.097 241.252 240.882C243.59 240.411 243.342 240.448 243.524 240.521C247.391 242.873 255.788 248.277 258.651 250.102C258.582 250.213 258.473 250.387 258.651 250.104L258.677 250.123C258.697 250.142 258.712 250.166 258.721 250.192C258.731 250.218 258.734 250.246 258.731 250.273C258.729 250.301 258.72 250.327 258.705 250.351C258.691 250.375 258.671 250.395 258.647 250.409ZM220.427 252.253C222.003 252.364 243.721 259.526 255.371 252.62C256.452 252.001 257.428 251.216 258.265 250.293C258.04 250.156 244.735 242.011 243.296 241.194C237.862 242.348 231.76 243.84 226.506 245.716C224.167 246.537 221.874 247.483 219.637 248.55C219.102 248.79 219.059 248.792 217.811 248.917C215.98 249.065 215.815 249.06 214.857 249.177C213.666 249.345 211.652 249.429 210.602 249.833C210.504 249.869 210.411 249.918 210.326 249.977C210.327 250.083 210.351 250.188 210.399 250.283C210.446 250.378 210.514 250.461 210.599 250.526C211.268 251.022 213.219 250.591 214.389 251.121C215.196 251.533 215.193 252.104 215.321 252.415C215.454 252.664 215.644 252.879 215.874 253.043C216.105 253.207 216.37 253.315 216.65 253.358C217.669 253.448 218.689 253.197 219.55 252.644C220.065 252.337 220.154 252.235 220.426 252.253H220.427ZM258.558 250.437H258.56H258.564H258.558Z" fill="#212121"/>
<path fill-rule="evenodd" clip-rule="evenodd" d="M252.268 227.999L252.243 228.254C250.395 230.127 248.025 233.405 246.672 235.397C246.339 235.885 243.654 239.894 243.615 240.56V240.556L243.613 240.568V240.573V240.579V240.584V240.588V240.603L243.464 240.813C243.195 240.625 243.267 240.684 243.244 240.623C243.171 238.877 247.748 230.991 252.014 227.976L252.268 227.999Z" fill="#212121"/>
<path fill-rule="evenodd" clip-rule="evenodd" d="M275.113 236.768C254.819 238.791 212.413 238.115 192.278 232.542L190.058 279.189C198.84 286.739 257.853 290.14 273.176 285.692C273.347 285.641 275.58 236.722 275.113 236.768Z" fill="white" fill-opacity="0.38"/>
<path fill-rule="evenodd" clip-rule="evenodd" d="M275.182 236.558C275.374 236.642 275.371 236.787 275.392 237.303C275.521 243.244 274.061 278.952 273.67 285.165C273.622 285.737 273.667 285.921 273.345 286.105C264.287 288.707 244.169 288.352 234.772 287.814C224.947 287.41 200.117 285.326 191.436 280.75C190.788 280.429 190.185 280.024 189.642 279.546C189.55 279.44 189.503 279.302 189.51 279.162C191.902 229.193 191.711 232.443 191.879 232.206C191.953 232.119 192.053 232.058 192.164 232.033C192.912 231.928 201.597 235.421 230.356 236.934C261.027 238.422 274.589 236.436 275.182 236.558ZM190.717 279.012C196.702 283.632 221.218 285.834 228.785 286.372C239.27 287.118 262.583 288.074 272.769 285.342C272.769 285.3 275.166 242.512 274.937 237.009C274.693 237.028 272.235 237.294 268.592 237.535C248.722 238.845 211.799 238.321 192.769 233.214C190.641 279.549 190.53 278.875 190.717 279.012Z" fill="#212121"/>
<path fill-rule="evenodd" clip-rule="evenodd" d="M226.61 247.277C221.948 247.225 213.698 246.829 206.669 245.233L204.843 269.589C208.55 271.46 218.756 272.781 225.101 271.744C225.101 271.744 226.718 247.277 226.61 247.277Z" fill="white" fill-opacity="0.38"/>
<path fill-rule="evenodd" clip-rule="evenodd" d="M211.3 245.669C215.114 246.275 218.958 246.685 222.815 246.896C226.707 247.112 226.582 247.001 226.736 247.098C226.804 247.153 226.751 247.111 226.792 247.154C226.999 247.505 225.673 270.775 225.63 271.502C225.609 271.849 225.622 272.074 225.266 272.229C222.41 272.943 213.93 272.835 207.678 271.177C206.587 270.909 205.528 270.525 204.518 270.031C204.421 269.96 204.35 269.859 204.317 269.744C204.265 269.601 205.479 253.949 206.15 245.688C206.2 245.092 206.184 245.125 206.272 244.968C206.637 244.517 206.551 244.877 211.3 245.669ZM206.872 249.274C205.528 268.138 205.387 269.241 205.433 269.261C209.193 270.955 218.709 272.146 224.617 271.295C225.247 262.607 226.323 249.1 226.389 247.498C225.896 247.519 223.171 247.459 222.648 247.444C217.711 247.302 211.946 246.821 207.15 245.82C207.093 245.809 207.137 245.429 206.872 249.274Z" fill="#212121"/>
<path fill-rule="evenodd" clip-rule="evenodd" d="M260.166 248.724C253.672 249.598 245.815 249.189 238.743 247.804L237.645 272.203C241.406 273.962 253.078 274.451 259.388 273.225C259.388 273.225 260.273 248.71 260.166 248.724Z" fill="white" fill-opacity="0.38"/>
<path fill-rule="evenodd" clip-rule="evenodd" d="M245.408 248.376C249.071 248.807 252.763 248.95 256.448 248.804C260.066 248.643 260.181 248.356 260.354 248.613C260.486 248.862 260.184 261.843 260.177 262.13C259.908 274.095 259.932 273.334 259.774 273.556C259.699 273.642 259.597 273.701 259.484 273.724C259.526 273.724 258.262 273.963 257.202 274.083C252.204 274.691 244.626 274.556 239.743 273.45C238.91 273.284 238.1 273.016 237.333 272.652C237.27 272.61 237.218 272.555 237.178 272.491C237.138 272.427 237.112 272.355 237.102 272.281C237.077 272.161 238.212 248.11 238.268 247.696C238.293 247.587 238.354 247.489 238.442 247.42C238.932 247.107 238.811 247.587 245.408 248.376ZM238.222 271.854C242.604 273.588 253.65 273.705 258.898 272.796C259.192 265.656 259.892 251.625 259.953 248.98C253.248 249.922 245.918 249.555 239.205 248.378C238.636 263.028 238.177 271.834 238.222 271.854Z" fill="#212121"/>
<path fill-rule="evenodd" clip-rule="evenodd" d="M204.283 274.151C208.408 276.183 217.473 277.107 222.557 276.755C224.579 276.616 224.041 276.525 224.425 276.622L224.512 276.761V276.764C224.453 277 224.565 277 223.328 277.177C216.531 278.143 207.503 276.892 203.882 275.181C203.811 275.184 203.705 275.04 203.513 274.817L203.542 274.397V274.394L203.861 274.12L204.283 274.151Z" fill="#212121"/>
<path fill-rule="evenodd" clip-rule="evenodd" d="M237.878 277.161C242.265 278.973 253.706 279.245 259.08 278.132L259.245 278.162L259.342 278.295V278.298C259.297 278.546 259.378 278.527 258.416 278.738C251.509 280.254 241.228 279.666 237.599 278.238C237.415 278.165 237.506 278.234 237.156 277.878V277.458V277.456L237.456 277.162L237.878 277.161Z" fill="#212121"/>
<path fill-rule="evenodd" clip-rule="evenodd" d="M199.196 253.865L199.306 253.981V253.984L199.292 254.141L199.171 254.265C199.113 254.267 197.985 254.861 197.943 254.883C196.7 255.51 195.544 256.299 194.507 257.228C194.934 257.771 198.342 261.218 198.385 261.253L198.378 261.249H198.38L198.385 261.253L198.378 261.249L198.381 261.252L198.374 261.248H198.377L198.367 261.243H198.369L198.353 261.237L198.327 261.23L198.456 261.314L198.501 261.476V261.479C198.497 261.502 198.489 261.524 198.478 261.545C198.47 261.56 198.46 261.574 198.448 261.587L198.428 261.606C198.409 261.621 198.388 261.633 198.365 261.643L198.33 261.654C198.308 261.658 198.286 261.659 198.264 261.658C198.198 261.648 198.136 261.622 198.083 261.58C197.089 260.956 196.139 260.263 195.241 259.507C194.616 258.977 194.044 258.388 193.534 257.747C192.96 256.915 193.517 256.641 194.007 256.205C195.351 255.117 196.453 254.416 199.023 253.837L199.196 253.865ZM198.206 261.246C198.131 261.29 198.157 261.267 198.093 261.346C198.059 261.446 198.051 261.438 198.168 261.27C198.334 261.228 198.336 261.236 198.278 261.228L198.206 261.246Z" fill="#212121"/>
<path fill-rule="evenodd" clip-rule="evenodd" d="M267.08 257.456C269.358 258.385 270.603 259.282 272.073 261.147C272.134 261.229 272.176 261.324 272.193 261.424C272.21 261.525 272.203 261.628 272.173 261.726C271.769 262.986 266.849 265.296 266.545 265.296C266.486 265.29 266.431 265.262 266.392 265.217C266.374 265.197 266.361 265.173 266.353 265.147C266.345 265.125 266.341 265.102 266.341 265.078V265.075L266.412 264.923L266.553 264.86L266.526 264.862L266.509 264.866H266.512L266.501 264.87H266.504L266.496 264.872H266.5L266.492 264.875L266.497 264.872H266.5L266.493 264.875C266.703 264.758 268.59 263.306 269.593 262.602C269.979 262.32 270.569 261.912 270.979 261.539C270.695 261.179 270.359 260.794 270.218 260.649C269.192 259.612 268.07 258.675 266.866 257.852L266.766 257.71L266.779 257.552V257.55L266.905 257.454L267.08 257.456ZM266.704 264.919C266.801 265.123 266.78 265.092 266.766 265.003C266.719 264.919 266.741 264.945 266.671 264.886C266.59 264.855 266.614 264.86 266.565 264.857L266.704 264.919Z" fill="#212121"/>
<path fill-rule="evenodd" clip-rule="evenodd" d="M255.41 198.628C251.996 195.263 244.211 192.165 239.711 197.442C239.711 197.442 237.417 201.382 239.088 210.138C239.275 211.124 239.643 212.066 240.173 212.918C241.146 214.253 243.504 214.604 245.077 214.539C245.684 214.514 246.279 214.387 246.864 214.363C246.957 214.359 247.324 214.233 247.403 214.307C247.807 214.677 248.085 217.139 248.201 217.247C248.65 217.661 249.198 217.954 249.792 218.098C250.386 218.242 251.007 218.232 251.596 218.069C252.417 217.896 253.944 217.387 254.257 216.688C254.397 216.377 253.893 213.328 254.02 213.184C256.206 210.699 255.577 208.426 255.937 208.035C255.982 207.985 256.903 207.856 257.142 207.748C258.07 207.331 258.711 205.76 258.475 204.786C258.415 204.496 258.278 204.228 258.078 204.01C257.879 203.793 257.624 203.633 257.341 203.549C256.945 203.435 255.711 204.225 255.711 204.225L255.41 198.628Z" fill="white"/>
<path fill-rule="evenodd" clip-rule="evenodd" d="M257.299 203.251C257.757 203.332 258.165 203.59 258.433 203.97C259.094 204.87 258.872 206.09 258.342 207.032C257.635 208.175 257.082 208.138 256.207 208.338C256.159 209.089 256.057 209.836 255.902 210.573C255.624 211.601 255.119 212.554 254.423 213.361C254.406 213.585 254.685 215.584 254.714 216.268C254.748 216.469 254.727 216.676 254.654 216.866C254.581 217.056 254.458 217.224 254.298 217.351C253.959 217.638 253.576 217.87 253.164 218.037C251.258 218.821 249.571 218.937 248.019 217.686C247.759 217.461 247.745 217.444 247.602 216.674C247.173 214.4 247.161 214.931 247.154 214.765C246.875 214.817 246.593 214.85 246.31 214.865C245.678 214.967 245.039 215.01 244.399 214.994C243.307 214.978 242.23 214.744 241.229 214.306C240.788 214.112 240.39 213.832 240.058 213.482C239.726 213.132 239.468 212.719 239.297 212.268C238.693 210.905 238.541 209.736 238.325 208.232C237.999 205.968 237.961 203.671 238.212 201.397C238.358 200.038 238.709 198.709 239.253 197.455C239.325 197.28 239.434 197.122 239.573 196.993C240.005 196.519 240.489 196.096 241.015 195.73C245.289 192.724 252.059 194.89 255.537 198.497C255.603 198.574 255.591 198.62 255.6 198.761C255.965 204.192 255.886 203.804 256.023 203.727C256.406 203.472 256.843 203.309 257.299 203.251ZM243.459 195.337C242.234 195.741 241.135 196.456 240.269 197.413C240.017 197.695 240.047 197.654 239.989 197.78C239.302 199.189 238.955 201.681 238.921 203.394C238.834 205.569 239.219 210.609 240.427 212.49C240.621 212.802 240.885 213.065 241.198 213.257C242.171 213.887 243.68 214.11 244.845 214.091C245.357 214.07 245.868 214.021 246.375 213.946C246.555 213.937 246.734 213.918 246.912 213.891C247.365 213.787 247.597 213.779 247.861 214.157C248.232 214.803 248.383 216.05 248.584 216.985C249.039 217.393 249.611 217.648 250.219 217.714C251.575 217.871 253.481 217.059 253.813 216.59C253.855 216.532 253.846 216.545 253.849 216.472C253.802 215.351 253.621 214.355 253.581 213.392C253.59 212.935 253.641 213.02 253.959 212.607C254.36 212.113 254.687 211.564 254.929 210.976C255.238 210.122 255.414 209.226 255.453 208.319C255.557 207.717 255.758 207.682 256.073 207.618C256.975 207.446 256.999 207.481 257.34 207.201C257.622 206.925 257.843 206.593 257.992 206.228C258.14 205.862 258.212 205.47 258.204 205.076C258.181 204.716 258.027 204.376 257.77 204.122C257.726 204.08 257.678 204.041 257.627 204.006C257.514 203.927 257.39 203.867 257.258 203.825C256.812 203.93 256.388 204.11 256.002 204.357C255.802 204.475 255.819 204.475 255.722 204.486C255.662 204.488 255.603 204.469 255.555 204.432C255.507 204.395 255.474 204.342 255.461 204.283C255.454 204.215 255.481 204.84 255.235 198.781C255.232 198.697 255.243 198.721 255.201 198.681C252.242 195.962 247.316 194.073 243.459 195.337Z" fill="#212121"/>
<path fill-rule="evenodd" clip-rule="evenodd" d="M239.239 199.326C239.352 199.077 238.662 199.381 238.42 199.25C237.932 198.984 237.418 198.616 237.126 197.321C236.879 196.233 237.899 195.155 237.862 195.122C236.501 193.871 236.425 192.047 237.815 190.537C238.586 189.701 239.579 190.029 240.451 189.991C240.583 189.986 240.819 189.115 240.939 188.957C241.452 188.268 242.212 187.804 243.06 187.662C243.402 187.615 243.751 187.644 244.081 187.747C244.411 187.85 244.715 188.025 244.97 188.258C245.254 188.475 245.864 188.848 245.864 188.848C246.197 188.47 246.572 188.13 246.981 187.836C247.784 187.439 248.674 187.252 249.569 187.294C251.039 187.305 252.183 189.019 252.491 189.006C252.575 189.003 254.898 187.613 256.975 188.722C258.128 189.339 259.196 190.1 259.585 191.452C259.823 192.435 259.855 193.457 259.679 194.452C259.679 194.452 262.923 194.608 262.887 198.373C262.87 200.179 261.165 201.134 261.165 201.149C261.19 201.746 262.092 202.226 261.589 203.207C260.94 204.476 259.867 204.001 259.657 204.35C259.57 204.493 260.275 205.828 258.549 206.282C258.451 206.307 259.095 203.79 257.278 203.218C255.782 202.749 253.986 201.807 253.543 200.308C253.367 199.712 253.561 198.376 252.871 198.068C252.606 197.949 252.218 198.626 251.979 198.684C249.834 199.206 249.081 198.885 247.206 197.821C246.823 197.604 246.526 196.988 246.105 196.902C245.341 196.744 244.428 198.351 243.61 198.502C242.917 198.631 241.42 197.84 241.172 197.977C240.779 198.194 240.749 198.901 240.35 199.121C239.994 199.318 238.975 198.978 238.992 198.985" fill="#212121"/>
<path fill-rule="evenodd" clip-rule="evenodd" d="M255.245 188.028C256.062 188.034 256.859 188.278 257.539 188.73C258.098 189.042 258.604 189.441 259.037 189.913C260.052 191.031 260.193 192.727 259.992 194.217C260.537 194.301 261.057 194.506 261.512 194.817C261.968 195.128 262.348 195.537 262.624 196.014C262.998 196.728 263.183 197.526 263.16 198.332C263.139 198.923 262.974 199.501 262.679 200.014C262.384 200.527 261.968 200.96 261.467 201.276C261.632 201.791 262.536 202.416 261.575 203.733C261.32 204.059 260.96 204.288 260.556 204.379C260.178 204.465 260.005 204.45 259.931 204.483C260.041 204.874 260.015 205.29 259.857 205.664C259.735 205.884 259.566 206.075 259.363 206.224C259.159 206.372 258.925 206.474 258.678 206.522C258.625 206.548 258.565 206.556 258.507 206.547C258.448 206.537 258.394 206.51 258.352 206.468C258.215 206.306 258.285 206.212 258.306 205.735C258.357 204.997 258.234 204.063 257.608 203.663C257.251 203.409 254.722 202.86 253.635 201.099C253.486 200.858 253.373 200.597 253.299 200.324C253.169 199.855 253.264 198.736 252.913 198.374C252.879 198.338 252.84 198.308 252.796 198.284C252.699 198.289 252.39 198.708 252.133 198.858C251.855 198.942 251.571 199.005 251.283 199.046C249.81 199.274 249.168 199.079 247.856 198.401C246.913 197.879 247.001 197.952 246.596 197.507C246.428 197.318 246.211 197.062 245.98 197.067C245.328 197.077 244.429 198.574 243.554 198.663C242.844 198.721 241.571 198.087 241.244 198.094C241.215 198.094 241.177 198.129 241.155 198.147C240.848 198.472 240.814 198.942 240.471 199.186C240.164 199.396 239.702 199.274 239.337 199.199C239.349 199.22 239.357 199.243 239.359 199.267C239.361 199.291 239.358 199.315 239.349 199.337C239.339 199.379 239.349 199.367 239.191 199.429C239.136 199.289 239.226 199.337 238.729 199.394C238.65 199.411 238.568 199.412 238.488 199.396C238.409 199.38 238.333 199.349 238.267 199.303C237.984 199.144 237.736 198.929 237.538 198.672C237.34 198.415 237.196 198.121 237.115 197.806C236.911 197.326 236.889 196.787 237.053 196.292C237.197 195.883 237.402 195.498 237.661 195.15C237.314 194.819 237.038 194.42 236.85 193.978C236.58 193.303 236.559 192.554 236.791 191.865C236.92 191.484 237.107 191.125 237.347 190.803C237.631 190.337 238.078 189.993 238.601 189.837C239.183 189.748 239.773 189.73 240.359 189.784C240.491 189.538 240.597 189.112 240.741 188.857C241.026 188.463 241.388 188.131 241.807 187.882C242.225 187.633 242.69 187.473 243.172 187.412C244.287 187.293 244.87 187.938 245.818 188.533C246.091 188.232 246.39 187.956 246.712 187.709C247.815 187.085 249.112 186.895 250.348 187.177C251.391 187.549 252.203 188.534 252.485 188.72C253.339 188.279 254.284 188.042 255.245 188.028ZM252.839 197.829C252.99 197.87 253.128 197.949 253.241 198.057C253.354 198.165 253.438 198.3 253.485 198.449C253.719 198.975 253.633 199.912 253.821 200.381C254.298 201.577 255.566 202.299 256.761 202.766C257.404 203.01 257.706 203.029 258.109 203.393C258.787 204.01 258.892 204.985 258.829 205.904C258.968 205.845 259.096 205.762 259.207 205.66C259.316 205.55 259.395 205.413 259.436 205.264C259.477 205.114 259.479 204.956 259.441 204.806C259.392 204.453 259.304 204.312 259.504 204.111C259.872 203.794 260.464 204.034 260.989 203.568C261.236 203.342 261.403 203.042 261.465 202.714C261.499 202.096 260.877 201.701 260.893 201.124C260.896 201.086 260.908 201.048 260.927 201.014C260.923 200.899 261.596 200.675 262.178 199.781C262.421 199.409 262.568 198.983 262.605 198.54C262.66 196.85 262.063 195.474 260.471 194.906C259.711 194.635 259.594 194.826 259.436 194.581C259.333 194.343 259.567 194.081 259.51 192.724C259.493 192.219 259.397 191.72 259.226 191.245C259.174 191.112 259.114 190.983 259.046 190.858C258.903 190.74 258.813 190.03 256.847 188.961C256.398 188.723 255.902 188.588 255.395 188.567C254.412 188.567 253.443 188.804 252.571 189.259C252.12 189.376 251.666 188.479 250.62 187.873C250.207 187.619 249.724 187.507 249.242 187.553C248.551 187.556 247.869 187.703 247.239 187.984C246.829 188.222 246.464 188.528 246.159 188.891C246.01 189.05 246.022 189.046 245.939 189.081C245.81 189.112 245.791 189.095 245.524 188.925C244.69 188.387 244.138 187.777 243.208 187.875C242.794 187.927 242.396 188.061 242.035 188.269C241.675 188.478 241.361 188.757 241.111 189.09C240.987 189.277 240.823 190.008 240.576 190.165C240.306 190.314 239.134 189.966 238.379 190.34C237.801 190.739 237.366 191.314 237.139 191.978C236.964 192.459 236.933 192.98 237.048 193.477C237.179 194.013 237.457 194.502 237.85 194.889C237.992 195.033 238.009 195.029 238.018 195.11C238.023 195.223 237.949 195.254 237.708 195.624C237.359 196.087 237.195 196.664 237.25 197.242C237.328 197.669 237.481 198.08 237.702 198.454C237.897 198.746 238.164 198.983 238.476 199.142C238.667 199.168 238.862 199.159 239.05 199.115L238.959 199.087L238.977 199.09L238.986 199.063L238.936 199.077C238.922 199.07 238.91 199.059 238.901 199.046C238.892 199.033 238.885 199.019 238.882 199.003C238.879 198.988 238.88 198.972 238.883 198.957C238.887 198.941 238.894 198.927 238.904 198.915C238.972 198.845 238.985 198.873 239.256 198.943C239.586 199.053 239.938 199.08 240.28 199.019C240.666 198.816 240.73 197.843 241.25 197.826C241.652 197.826 242.554 198.273 243.272 198.354C243.431 198.376 243.593 198.358 243.744 198.304C243.895 198.249 244.03 198.159 244.138 198.041C245.16 197.198 245.78 196.116 246.733 197.117C247.015 197.491 247.395 197.781 247.831 197.953C249.385 198.773 250.059 198.926 251.922 198.472C252.283 198.16 252.501 197.809 252.839 197.829ZM239.143 199.297L239.146 199.308V199.311L239.14 199.294L239.143 199.297Z" fill="#212121"/>
<path fill-rule="evenodd" clip-rule="evenodd" d="M243.766 211.548V211.552V211.543V211.547L243.763 211.537L243.766 211.541L243.761 211.532L243.764 211.536L243.759 211.526L243.762 211.53L243.758 211.521L243.761 211.525L243.756 211.516L243.759 211.52L243.753 211.512L243.758 211.515L243.752 211.508L243.756 211.511L243.75 211.504L243.753 211.507L243.747 211.5L243.751 211.503L243.746 211.497L243.75 211.5L243.744 211.494L243.748 211.497L243.743 211.492L243.747 211.495L243.741 211.49L243.747 211.492L243.74 211.488L243.746 211.491L243.74 211.487H243.746L243.74 211.484H243.746L243.74 211.481H243.746L243.74 211.478H243.745L243.741 211.475H243.748L243.744 211.473H243.752H243.746H243.756H243.752H243.761H243.757H243.769H243.766C243.939 211.45 244.107 211.395 244.261 211.311L244.269 211.306L244.261 211.309L244.272 211.301L244.263 211.305L244.268 211.299L244.254 211.306L244.261 211.301L244.246 211.31L244.251 211.305L244.241 211.312C244.302 211.243 244.353 211.167 244.393 211.084V211.076C244.48 210.899 244.533 210.706 244.55 210.509V210.504C244.583 210.298 244.555 210.087 244.469 209.898C244.384 209.708 244.243 209.548 244.067 209.438C243.857 209.312 243.653 209.334 243.724 209.321H243.717L243.727 209.318C243.533 209.35 243.346 209.42 243.179 209.525V209.521L243.171 209.529V209.526L243.163 209.533L243.165 209.529L243.157 209.537L243.16 209.532L243.157 209.536L243.153 209.539L243.156 209.534L243.15 209.541L243.153 209.536L243.148 209.541V209.536L243.145 209.541V209.535L243.143 209.541L243.145 209.535L243.142 209.541L243.144 209.534L243.142 209.54V209.533L243.139 209.539V209.531V209.537V209.529L243.137 209.535V209.527V209.533V209.525V209.531V209.522V209.528V209.519V209.526V209.517V209.522V209.514V209.519V209.511V209.517V209.508V209.514L243.134 209.505V209.512L243.13 209.503V209.509L243.127 209.501V209.507L243.123 209.499V209.505L243.12 209.497V209.502L243.116 209.494L243.118 209.5L243.06 209.752L242.808 209.694C242.78 209.657 242.761 209.616 242.751 209.572C242.741 209.527 242.74 209.481 242.749 209.437C242.817 209.215 242.952 209.019 243.137 208.878C243.311 208.718 243.53 208.614 243.764 208.58C243.998 208.546 244.237 208.583 244.45 208.687C245.739 209.246 245.74 211.216 244.729 211.837C244.549 211.929 244.351 211.978 244.149 211.981C243.947 211.985 243.747 211.942 243.564 211.856C243.51 211.829 243.465 211.787 243.435 211.735C243.405 211.682 243.391 211.622 243.396 211.562L243.578 211.384L243.756 211.569V211.574V211.565V211.57V211.555V211.56V211.55V211.555L243.766 211.548Z" fill="#212121"/>
<path fill-rule="evenodd" clip-rule="evenodd" d="M235.806 200.007C235.881 200.046 237.577 198.348 237.577 198.348C238.723 198.201 251.321 197.351 254.007 199.072C254.954 199.679 254.777 204.708 254.508 206.204C254.342 207.125 252.392 208.052 252.392 208.052C252.392 208.052 245.729 209.412 235.564 207.525C235.272 207.47 235.806 200.007 235.806 200.007Z" fill="white"/>
<path fill-rule="evenodd" clip-rule="evenodd" d="M253.893 198.515C254.092 198.585 254.273 198.7 254.421 198.852C254.569 199.003 254.68 199.187 254.745 199.388C255.371 200.967 255.183 205.194 254.949 206.302C254.905 206.516 254.815 206.718 254.684 206.894C254.171 207.505 253.533 208 252.814 208.346C252.617 208.469 252.392 208.542 252.16 208.556C248.437 209.167 242.549 209.202 236.215 207.987C235.375 207.827 235.2 207.901 235.171 207.208C235.131 206.255 235.287 204.146 235.359 203.209C235.638 199.615 235.605 199.936 235.745 199.838C236.245 199.41 236.715 198.948 237.153 198.457C237.518 198.082 237.371 198.136 237.96 198.073C241.157 197.733 250.986 197.1 253.893 198.515ZM244.042 198.37C243.42 198.37 237.793 198.459 237.669 198.585C237.413 198.829 236.286 199.908 235.984 200.122C235.887 202.244 235.738 205.263 235.82 207.238C240.548 208.054 247.587 208.456 252.25 207.62C252.862 207.334 253.416 206.939 253.886 206.454C253.962 206.37 254.021 206.271 254.057 206.164C254.296 205.143 254.479 200.246 253.788 199.454L253.778 199.445C253.587 199.322 253.381 199.227 253.165 199.161C250.97 198.419 246.427 198.37 244.042 198.37ZM235.842 207.379L235.839 207.371V207.374V207.376V207.369L235.842 207.379ZM235.838 207.369L235.841 207.376V207.369L235.838 207.369Z" fill="#212121"/>
<path fill-rule="evenodd" clip-rule="evenodd" d="M235.807 200.007C235.807 200.007 234.591 206.996 235.564 207.525C238.709 209.228 252.273 209.027 252.47 207.87C252.811 205.864 252.957 200.669 252.214 200.772C250.04 201.067 237.84 200.94 235.807 200.007Z" fill="white"/>
<path fill-rule="evenodd" clip-rule="evenodd" d="M235.628 199.976C235.633 199.949 235.644 199.924 235.66 199.902C235.677 199.88 235.698 199.861 235.722 199.848C235.746 199.836 235.773 199.828 235.8 199.827C235.828 199.826 235.855 199.831 235.88 199.842C237.765 200.601 246.687 200.524 248.736 200.489C249.916 200.505 251.096 200.451 252.27 200.327C252.799 200.367 252.947 200.946 253.047 201.429C253.271 203.529 253.238 205.648 252.95 207.74C252.952 207.878 252.918 208.014 252.852 208.134C252.786 208.255 252.689 208.357 252.572 208.429C251.007 209.473 240.388 209.546 236.321 208.213C235.925 208.103 235.552 207.92 235.222 207.674C234.347 206.67 235.394 201.398 235.627 199.976C235.671 199.984 235.736 199.995 235.628 199.976ZM246.52 208.317C247.559 208.294 251.118 208.169 252.041 207.692C252.179 206.675 252.261 205.652 252.287 204.626C252.338 203.571 252.291 202.513 252.147 201.467C252.131 201.386 252.11 201.307 252.084 201.229C249.716 201.465 244.442 201.255 241.786 201.073C240.54 200.985 237.128 200.714 235.954 200.262C235.744 201.748 235.389 204.798 235.515 206.277C235.511 206.601 235.581 206.922 235.719 207.215V207.218H235.722L235.725 207.221C237.774 208.275 244.057 208.368 246.52 208.317ZM235.735 207.233L235.73 207.228H235.733L235.729 207.224H235.732L235.727 207.22H235.729L235.723 207.215H235.726L235.721 207.212L235.725 207.216L235.722 207.212L235.728 207.218L235.724 207.213L235.729 207.219L235.724 207.214L235.735 207.233ZM235.726 207.225H235.73L235.726 207.223V207.225Z" fill="#212121"/>
<path fill-rule="evenodd" clip-rule="evenodd" d="M252.816 202.35C253.337 202.61 262.199 197.266 262.668 196.911C263.266 196.46 263.312 199.247 262.748 199.955C261.897 201.022 253.081 205.871 252.83 205.258C252.799 205.182 252.816 202.35 252.816 202.35Z" fill="white"/>
<path fill-rule="evenodd" clip-rule="evenodd" d="M252.887 202.18H252.891L252.881 202.177H252.886L252.878 202.175H252.881H252.873H252.878L252.87 202.173H252.875H252.868H252.872H252.866C252.995 202.14 253.121 202.095 253.241 202.038C254.498 201.492 261.701 197.009 262.093 196.759C262.463 196.522 262.372 196.573 262.449 196.522C262.532 196.469 262.625 196.436 262.722 196.425C262.819 196.414 262.917 196.426 263.009 196.459C263.101 196.492 263.184 196.546 263.252 196.617C263.319 196.688 263.37 196.773 263.399 196.866C263.723 197.514 263.648 199.409 263.183 200.123C262.385 201.325 254.648 205.453 253.053 205.6C252.933 205.617 252.811 205.594 252.705 205.534C252.48 205.382 252.532 205.24 252.569 204.042C252.571 203.977 252.627 202.507 252.638 202.347C252.638 202.317 252.645 202.287 252.66 202.26C252.674 202.234 252.695 202.211 252.721 202.195C252.746 202.179 252.776 202.169 252.806 202.167C252.836 202.165 252.867 202.171 252.894 202.184H252.898L252.887 202.18ZM253.115 205.214V205.205V205.21V205.201V205.205V205.193V205.214ZM255.773 201.321C254.882 201.797 253.955 202.201 253.001 202.53C253.016 202.997 253.059 204.276 253.096 204.989C253.355 204.91 253.607 204.813 253.852 204.699C254.989 204.19 262.008 200.422 262.453 199.568C262.609 199.151 262.69 198.711 262.692 198.266C262.702 197.995 262.686 197.724 262.644 197.456C260.661 198.704 257.687 200.359 255.773 201.321Z" fill="#212121"/>
<path fill-rule="evenodd" clip-rule="evenodd" d="M250.25 202.667V202.67L250.202 202.825L250.055 202.909C248.104 203.18 246.136 203.318 244.166 203.322C242.871 203.336 238.977 203.271 237.776 202.845L237.47 202.557L237.455 202.137V202.134L237.742 201.828C238.372 201.806 237.968 201.791 238.57 201.926C240.144 202.25 243.385 202.423 244.986 202.489C249.805 202.682 249.673 202.373 250.167 202.525L250.25 202.667Z" fill="#212121"/>
<path fill-rule="evenodd" clip-rule="evenodd" d="M234.785 222.665C231.144 227.555 228.576 233.159 227.25 239.11C226.805 241.09 227.034 240.694 226.714 240.948L226.557 240.745C227.026 233.909 229.833 227.442 234.505 222.43L234.762 222.407L234.785 222.665Z" fill="#212121"/>
<defs>
<linearGradient id="paint0_linear_1187_21476" x1="274.937" y1="178.843" x2="144.24" y2="414.66" gradientUnits="userSpaceOnUse">
<stop stop-color="white"/>
<stop offset="1" stop-color="#BBC9D8"/>
</linearGradient>
<linearGradient id="paint1_linear_1187_21476" x1="141.021" y1="78.5345" x2="336.536" y2="417.196" gradientUnits="userSpaceOnUse">
<stop stop-color="#2560F1"/>
<stop offset="0.4875" stop-color="#7944FF"/>
<stop offset="1" stop-color="#C623FF"/>
</linearGradient>
<linearGradient id="paint2_linear_1187_21476" x1="267.154" y1="196.026" x2="171.435" y2="373.685" gradientUnits="userSpaceOnUse">
<stop stop-color="white"/>
<stop offset="1" stop-color="#BBC9D8"/>
</linearGradient>
</defs>
</svg>
