<svg width="69" height="70" viewBox="0 0 69 70" fill="none" xmlns="http://www.w3.org/2000/svg">
<path fill-rule="evenodd" clip-rule="evenodd" d="M28.9121 3.12995C29.146 3.11412 29.3799 3.16121 29.5894 3.26633C29.7288 3.37884 29.736 3.52908 29.7679 3.81957C30.002 6.00161 30.4459 21.973 30.3734 22.1558C30.2766 22.3183 30.1872 22.3128 29.9995 22.3417C25.9309 22.9793 20.7522 24.4328 16.7708 25.7846C6.27816 29.3649 3.30945 32.2116 2.92623 32.3712C2.88893 32.3829 2.84955 32.3866 2.81072 32.3819C2.77189 32.3772 2.7345 32.3643 2.70105 32.3441C2.6676 32.3238 2.63886 32.2966 2.61674 32.2644C2.59462 32.2321 2.57964 32.1955 2.57278 32.157C2.20638 30.9326 1.23173 13.4512 1.16127 11.9327C1.15502 11.8738 1.16282 11.8142 1.18404 11.7589C1.20526 11.7036 1.23928 11.6541 1.28333 11.6145C2.93214 9.82542 24.7362 3.13563 28.9121 3.12995ZM2.99351 31.7134C9.14073 27.1952 22.2385 22.9665 29.8049 21.7717C29.2728 1.57343 29.2246 4.70534 29.1833 3.71706C28.8058 3.68816 28.4263 3.70196 28.052 3.7582C24.1161 4.23234 14.7836 6.92057 10.737 8.18866C9.77716 8.48982 1.9143 10.9564 1.40925 11.8445C1.37243 11.9099 2.60142 29.1167 2.99351 31.7134Z" fill="url(#paint0_linear_856_11085)"/>
<path fill-rule="evenodd" clip-rule="evenodd" d="M4.40283 13.4183C4.4167 13.7475 5.36339 26.1828 5.42567 26.1456C6.83331 25.3091 12.7385 23.1798 13.5504 22.7327C13.6852 22.6584 12.9408 11.3306 12.7935 10.8224C12.6035 10.1673 4.40147 13.3827 4.40283 13.4183Z" fill="url(#paint1_linear_856_11085)"/>
<path fill-rule="evenodd" clip-rule="evenodd" d="M12.5742 10.4851C12.6562 10.4763 12.739 10.4893 12.8144 10.5228C12.8897 10.5563 12.9549 10.6091 13.0033 10.6758C13.2534 11.1222 13.7918 20.442 13.8407 21.6376C13.8882 22.8286 13.9089 22.8852 13.6189 23.0327C13.0908 23.2953 11.5277 23.8965 10.1471 24.4372C5.52393 26.2483 5.75805 26.3154 5.52848 26.4054C5.4911 26.4201 5.45099 26.4266 5.41086 26.4245C5.37074 26.4224 5.33154 26.4117 5.29591 26.3931C5.26028 26.3745 5.22907 26.3485 5.20437 26.3168C5.17967 26.2851 5.16207 26.2485 5.15276 26.2094C4.99888 25.5575 4.26857 13.4258 4.28494 13.4245C4.28386 13.4009 4.28975 13.3776 4.30188 13.3574C4.31401 13.3371 4.33184 13.321 4.35313 13.3108C4.6577 13.1479 11.1677 10.4769 12.5742 10.4851ZM4.52951 13.492C4.53837 13.5986 5.61439 25.3409 5.65099 25.7051C7.45868 24.7888 12.1589 23.0621 13.2697 22.5413C13.2845 21.2721 12.6817 11.9214 12.5651 10.9851C11.5655 10.9117 5.54643 13.0788 4.52951 13.492Z" fill="url(#paint2_linear_856_11085)"/>
<path fill-rule="evenodd" clip-rule="evenodd" d="M15.5726 10.0368C15.5604 9.9143 15.6835 9.82702 15.7908 9.76406C17.0991 8.99125 25.2364 6.89217 26.3469 6.91672C26.4306 6.91137 26.5133 6.93669 26.5797 6.98794C26.646 7.03919 26.6914 7.11285 26.7074 7.19516C26.8599 7.73339 27.2168 11.3031 27.1127 11.7961C27.1032 11.8486 27.0812 11.8981 27.0483 11.9402C27.0155 11.9823 26.9729 12.0157 26.9243 12.0377C26.8364 12.0626 26.7465 12.0793 26.6556 12.0875C25.1586 12.3639 17.0637 14.5018 16.0181 14.3198C15.9604 14.3154 15.9055 14.2926 15.8617 14.2547C15.8178 14.2169 15.7873 14.166 15.7745 14.1095C15.6954 13.7024 15.649 11.9531 15.5926 10.4916C15.5774 10.0777 15.5713 10.042 15.5726 10.0368ZM26.1746 7.51019C25.0382 7.63497 16.4311 9.48948 15.8138 10.0418C15.8663 10.4864 16.0611 13.2694 16.1615 13.9074C17.2603 13.8743 24.8011 11.8329 26.5388 11.5051C26.5522 10.7573 26.2221 7.50542 26.1746 7.51019Z" fill="url(#paint3_linear_856_11085)"/>
<path fill-rule="evenodd" clip-rule="evenodd" d="M27.4537 14.1977L27.4951 14.2764V14.278L27.4667 14.3623C27.3012 14.4496 27.5576 14.3559 26.5559 14.5176C24.3039 14.8842 20.3769 15.932 18.2775 16.6087C16.3967 17.2196 17.0315 17.1542 16.549 17.1801L16.3787 17.0292V17.0276L16.3662 16.8003C16.546 16.5973 16.4999 16.6378 16.5708 16.6055C18.501 15.7645 24.908 14.2707 27.3689 14.168L27.4537 14.1977Z" fill="url(#paint4_linear_856_11085)"/>
<path fill-rule="evenodd" clip-rule="evenodd" d="M27.6454 17.2114L27.6868 17.2898V17.2914L27.6583 17.3758C27.4929 17.463 27.7493 17.3694 26.7476 17.531C24.4955 17.8979 20.5685 18.9457 18.4692 19.6221C16.5254 20.2538 17.2468 20.166 16.7406 20.1935L16.5704 20.0426V20.0413L16.5581 19.814C16.7379 19.6112 16.6918 19.6517 16.7627 19.6192C18.6929 18.7782 25.0999 17.2844 27.5608 17.1816L27.6454 17.2114Z" fill="url(#paint5_linear_856_11085)"/>
<path fill-rule="evenodd" clip-rule="evenodd" d="M66.9921 10.1023C67.0539 10.205 67.0439 10.0966 67.0533 11.5883C67.0601 12.6941 67.1587 29.5256 66.8632 30.5969C66.8561 30.6383 66.8394 30.6775 66.8143 30.7113C66.7892 30.745 66.7565 30.7724 66.7189 30.7911C66.6812 30.8099 66.6397 30.8195 66.5976 30.8192C66.5556 30.8189 66.5142 30.8087 66.4768 30.7894C65.6905 30.2764 64.876 29.8079 64.0373 29.3861C57.3804 25.9798 45.7476 23.0798 38.7403 22.4426C38.6766 22.4369 38.6164 22.4106 38.5687 22.3679C38.5213 22.3248 38.4886 22.2678 38.4753 22.2051C38.4505 21.9896 37.8389 5.1579 38.0109 3.68047C38.01 3.58957 38.0409 3.50121 38.0985 3.43084C38.156 3.36046 38.2365 3.31253 38.3257 3.29543C40.7433 2.42398 65.9013 8.38778 66.9921 10.1023ZM66.8014 10.2509C66.8018 10.2566 66.8024 10.2622 66.8035 10.2677H66.8057C66.8041 10.2539 66.7991 10.2408 66.7912 10.2293L66.7926 10.2314C66.1016 9.15672 54.6777 6.52645 53.4325 6.24392C51.5094 5.80887 40.4921 3.3909 38.5708 3.81481C38.5899 4.79036 38.3633 2.05621 39.0545 21.8737C45.3024 22.4715 55.4216 24.9043 62.1557 27.8987C65.5233 29.4047 66.4161 30.2398 66.4257 30.1307C66.695 27.0395 66.7787 10.2509 66.8014 10.2509ZM66.9808 10.3466H66.9796H66.9814C66.9639 10.318 66.8551 10.1309 66.9808 10.3466Z" fill="url(#paint6_linear_856_11085)"/>
<path fill-rule="evenodd" clip-rule="evenodd" d="M63.8981 11.9827C63.9045 12.3121 63.7199 24.7822 63.6552 24.7488C62.1989 24.0001 56.1748 22.2361 55.3361 21.8394C55.197 21.7735 55.2475 10.4214 55.3634 9.90637C55.5141 9.23971 63.8975 11.9464 63.8981 11.9827Z" fill="url(#paint7_linear_856_11085)"/>
<path fill-rule="evenodd" clip-rule="evenodd" d="M55.6878 9.55089C57.1807 9.57362 63.3827 11.625 63.9357 11.8693C63.9592 11.8777 63.9795 11.8932 63.994 11.9135C64.0084 11.9338 64.0163 11.958 64.0166 11.983C63.9939 11.983 63.9196 11.9841 64.0182 11.983C64.0359 12.6528 64.045 24.1433 63.9323 24.7972C63.9254 24.8367 63.9101 24.8742 63.8875 24.9072C63.8648 24.9403 63.8353 24.968 63.8009 24.9886C63.7609 25.0119 63.7162 25.0257 63.67 25.0291C63.517 25.032 63.6289 25.0018 62.6354 24.622C60.5622 23.8367 56.8548 22.7354 55.5196 22.2354C55.3728 22.1978 55.2351 22.131 55.1148 22.039C55.0127 21.9085 54.9798 21.9283 54.9627 19.266C54.9543 17.8074 54.9709 10.8233 55.1102 9.89275C55.1553 9.61135 55.406 9.54771 55.6878 9.55089ZM55.6033 10.0528C55.5412 11.0379 55.5144 20.1511 55.6046 21.608C55.6139 21.7412 61.3243 23.4232 63.4041 24.3222C63.4257 23.7705 63.7727 12.2546 63.7768 12.0634C62.674 11.692 56.6254 9.92729 55.6028 10.0528H55.6033Z" fill="url(#paint8_linear_856_11085)"/>
<path fill-rule="evenodd" clip-rule="evenodd" d="M41.7266 6.8321C43.3258 6.86347 51.5642 8.46136 52.4366 9.11029C52.4689 9.12929 52.4957 9.15634 52.5144 9.18881C52.5332 9.22128 52.5431 9.25806 52.5434 9.29554C52.535 9.5667 52.6286 12.2327 52.6064 13.1C52.5989 13.346 52.6098 13.4982 52.4166 13.5773C51.5919 13.8876 43.7695 12.3231 41.7627 12.0381C41.2388 11.966 41.112 12.0801 41.0836 11.2776C41.0518 10.304 41.1277 8.23338 41.2138 7.42102C41.2586 7.0053 41.2938 6.82801 41.7266 6.8321ZM41.6861 11.4278C43.3936 11.6428 51.1073 13.2275 52.1909 13.1907C52.2465 12.6072 52.2781 9.8565 52.2995 9.34941C52.3245 8.89186 42.8533 7.45807 41.8041 7.41739C41.6968 8.75133 41.6574 10.0899 41.6861 11.4278Z" fill="url(#paint9_linear_856_11085)"/>
<path fill-rule="evenodd" clip-rule="evenodd" d="M41.4776 14.3321C43.0768 14.3635 51.3154 15.9614 52.1875 16.6103C52.2199 16.6293 52.2467 16.6563 52.2654 16.6888C52.2841 16.7213 52.2941 16.7581 52.2944 16.7955C52.286 17.0667 52.3796 19.7324 52.3573 20.6C52.3498 20.846 52.3607 20.9982 52.1675 21.0762C51.3429 21.3865 43.5205 19.8222 41.5137 19.537C40.9909 19.4651 40.863 19.5792 40.8345 18.7767C40.8027 17.8031 40.8786 15.7322 40.9648 14.9201C41.0096 14.5053 41.0448 14.328 41.4776 14.3321ZM41.4364 18.9289C43.1439 19.144 50.8576 20.7287 51.9411 20.6918C51.9968 20.1084 52.0284 17.3576 52.0498 16.8505C52.0748 16.393 42.6036 14.9592 41.5544 14.9185C41.4471 16.2525 41.4077 17.591 41.4364 18.9289Z" fill="url(#paint10_linear_856_11085)"/>
<path fill-rule="evenodd" clip-rule="evenodd" d="M27.018 31.4414C29.3046 31.4512 29.4046 34.3567 29.4046 34.3567C29.4046 34.3567 27.6892 41.2872 27.1132 41.2299C25.7647 41.0967 24.0818 40.7485 22.5928 37.3784C21.4579 34.8099 21.2769 26.8368 21.1228 26.4627C20.9387 26.0149 20.4428 25.6338 20.1941 25.1942C19.78 24.4625 19.7611 23.3558 20.3684 22.8323C20.6051 22.689 20.8686 22.5954 21.1426 22.5573C20.9085 22.0472 20.7127 21.5204 20.5569 20.9812C20.4535 20.6917 20.3184 20.4196 20.4521 20.1389C20.4822 20.0753 20.5269 20.0197 20.5826 19.9766C20.6382 19.9335 20.7032 19.9041 20.7723 19.8909C20.8414 19.8776 20.9127 19.8808 20.9804 19.9002C21.048 19.9196 21.1101 19.9546 21.1617 20.0025C21.4313 20.2525 22.1534 21.6358 22.2289 21.9511C22.2502 22.0409 23.2149 22.9403 23.3799 23.5906C23.4179 23.7408 24.1561 24.8764 24.2918 25.0876C25.1412 26.4116 25.5979 27.9922 26.1938 29.4407C26.3941 29.9253 26.7648 31.1486 27.0175 31.441C27.3971 31.8913 27.747 32.3659 28.0649 32.8618" fill="white"/>
<path fill-rule="evenodd" clip-rule="evenodd" d="M21.2525 19.7762C21.5527 19.9862 22.0853 21.0561 22.2394 21.3836C22.5333 22.0151 22.3453 21.7644 22.5587 22.0067C23.6289 23.2177 23.4516 23.3168 23.6573 23.6859C24.2787 24.7942 24.6894 25.1617 25.342 26.7692C25.5347 27.2442 26.4457 29.7088 26.4539 29.7322C26.6014 30.1664 26.8999 31.079 27.0917 31.3422C28.2639 31.3681 28.9399 32.1107 29.3279 33.2169C29.4455 33.5816 29.5202 33.9588 29.5504 34.3409C29.5576 34.5152 28.5655 38.3608 27.9734 40.0615C27.8536 40.421 27.7051 40.7703 27.5293 41.1059C27.3097 41.4748 27.1947 41.4489 26.9315 41.4241C26.5233 41.3873 26.1206 41.304 25.7313 41.1759C25.033 40.9281 24.4088 40.5072 23.9173 39.9526C23.0908 38.9953 22.4703 37.878 22.0944 36.6704C21.3875 34.2018 21.1504 29.9059 20.9745 27.4056C20.9095 26.506 20.9106 26.5467 20.7974 26.3687C20.6174 26.0882 20.2937 25.7841 20.0683 25.4522C19.5425 24.6676 19.4648 23.3947 20.1364 22.7183C20.3206 22.5479 20.5491 22.4327 20.7956 22.386C20.6558 22.0465 20.5332 21.7001 20.4283 21.3482C20.3035 20.9513 20.2762 20.9124 20.2237 20.7442C19.9532 19.8546 20.7147 19.4121 21.2525 19.7762ZM27.0658 41.0318L27.0631 41.0343L27.0651 41.0327L27.0658 41.0318ZM20.8406 20.1162C20.7563 20.1178 20.687 20.1596 20.6472 20.2817C20.6265 20.4764 20.6657 20.6728 20.7595 20.8447C20.9211 21.3898 21.1197 21.9232 21.3538 22.4412C21.3797 22.4886 21.3889 22.5432 21.3799 22.5964C21.371 22.6496 21.3444 22.6982 21.3045 22.7345C21.2095 22.8072 21.2136 22.7799 20.9824 22.8349C20.8228 22.8655 20.6701 22.9248 20.5317 23.0099C20.0999 23.3563 19.9746 24.3171 20.4119 25.082C20.516 25.248 20.635 25.4042 20.7674 25.5486C21.4207 26.3016 21.3868 26.3416 21.4493 27.184C21.5984 29.2001 21.748 32.1059 22.1432 34.603C22.414 36.2963 22.6547 37.2187 23.5002 38.6261C24.023 39.4589 24.5583 40.1035 25.422 40.5663C25.9427 40.8193 26.5067 40.9715 27.084 41.0148C27.2961 40.6731 27.4671 40.3076 27.5934 39.9258C28.1998 38.2286 28.7205 36.3515 29.1844 34.6177C29.271 34.2859 29.2628 34.3859 29.244 34.1631C29.1115 33.0808 28.7046 32.002 27.6688 31.6449C27.5367 31.6019 27.4006 31.572 27.2626 31.5556C27.5782 31.9574 27.8726 32.3753 28.1445 32.8078L28.1166 32.9441L27.9802 32.9146C26.4819 30.7037 27.1354 32.2907 26.1205 29.644C26.0427 29.447 25.9298 29.1919 25.8075 28.8758C25.5056 28.1171 25.269 27.4611 24.9488 26.7326C24.2839 25.2947 24.2321 25.3952 23.4572 24.1498C23.3448 23.9866 23.2501 23.8118 23.1747 23.6284C23.0247 23.1097 22.3155 22.4131 22.0941 22.1464C21.9721 21.9962 22.083 22.0598 21.7077 21.3248C21.538 20.9895 21.3495 20.6641 21.1429 20.3501C21.0593 20.2249 20.9927 20.1135 20.8406 20.1162Z" fill="url(#paint11_linear_856_11085)"/>
<path fill-rule="evenodd" clip-rule="evenodd" d="M20.065 23.1703C19.9614 23.125 19.8466 23.1119 19.7355 23.1326C19.6244 23.1533 19.5221 23.2069 19.4417 23.2864C19.2215 23.4935 19.2747 23.8497 19.3676 24.1133C19.5647 24.5657 19.8531 24.9724 20.2148 25.308C20.3937 25.4421 20.8469 25.3655 20.9064 25.0986C20.9746 24.7952 20.8476 24.5488 20.7148 24.2715C20.5521 23.931 20.353 23.4173 20.065 23.1703Z" fill="white"/>
<path fill-rule="evenodd" clip-rule="evenodd" d="M19.8052 23.0004C19.9242 22.9979 20.0409 23.0337 20.1382 23.1025C20.3128 23.2459 20.4618 23.4181 20.5787 23.6116C20.7007 23.8059 20.9707 24.2912 21.0285 24.4115C21.1244 24.5942 21.1704 24.7991 21.1617 25.0054C21.1625 25.119 21.1296 25.2302 21.0673 25.3251C21.0049 25.42 20.9158 25.4943 20.8112 25.5386C20.7081 25.5881 20.5957 25.6149 20.4815 25.6175C20.3672 25.62 20.2538 25.5982 20.1486 25.5534C19.8842 25.3594 19.6615 25.1143 19.4935 24.8326C19.2519 24.4619 19.0405 24.0632 19.0958 23.6241C19.1122 23.4493 19.1948 23.2874 19.3267 23.1715C19.4586 23.0556 19.6297 22.9944 19.8052 23.0004ZM19.6563 23.3127C19.6116 23.3385 19.5732 23.374 19.544 23.4166C19.5147 23.4591 19.4953 23.5077 19.4872 23.5586C19.4779 23.7239 19.5091 23.8889 19.5781 24.0394C19.7718 24.4372 20.0343 24.7977 20.3534 25.1043C20.4055 25.1251 20.4623 25.1314 20.5177 25.1225C20.5731 25.1136 20.6251 25.0897 20.668 25.0536C20.707 24.8974 20.6886 24.7323 20.6162 24.5885C20.6075 24.5658 20.3068 23.783 20.2979 23.7603C20.2297 23.574 20.1304 23.4006 20.0043 23.2475L20.0018 23.2459L20.0068 23.2495L20.0041 23.2479L20.0081 23.2507L20.005 23.2491L20.0084 23.2513L20.0047 23.2498C19.9455 23.2356 19.8839 23.2339 19.8239 23.2447C19.7639 23.2555 19.7069 23.2787 19.6563 23.3127Z" fill="url(#paint12_linear_856_11085)"/>
<path fill-rule="evenodd" clip-rule="evenodd" d="M21.0323 22.5939C20.9287 22.5488 20.8139 22.5357 20.7028 22.5565C20.5917 22.5772 20.4894 22.6308 20.4091 22.7103C20.1888 22.9173 20.242 23.2735 20.3347 23.5372C20.5319 23.9894 20.8203 24.3961 21.1819 24.7318C21.3608 24.8657 21.8142 24.7893 21.8738 24.5223C21.9419 24.2191 21.8149 23.9727 21.6821 23.6954C21.5194 23.3549 21.3205 22.8412 21.0323 22.5939Z" fill="white"/>
<path fill-rule="evenodd" clip-rule="evenodd" d="M20.7723 22.4262C20.8913 22.4237 21.008 22.4595 21.1053 22.5282C21.2799 22.6717 21.4288 22.8438 21.5458 23.0371C21.6678 23.2317 21.9376 23.717 21.9956 23.8372C22.0917 24.0199 22.1379 24.2248 22.1294 24.4311C22.1302 24.5447 22.0974 24.656 22.035 24.7509C21.9726 24.8458 21.8835 24.9201 21.779 24.9644C21.6759 25.0138 21.5634 25.0407 21.4492 25.0432C21.3349 25.0458 21.2213 25.0239 21.1162 24.9792C20.8519 24.7851 20.6292 24.54 20.4613 24.2584C20.2197 23.8877 20.0083 23.489 20.0636 23.0499C20.08 22.8752 20.1625 22.7134 20.2942 22.5975C20.4259 22.4816 20.5969 22.4203 20.7723 22.4262ZM20.6234 22.7385C20.5787 22.7643 20.5403 22.7998 20.511 22.8423C20.4818 22.8849 20.4624 22.9334 20.4543 22.9844C20.445 23.1497 20.4762 23.3147 20.5452 23.4651C20.7389 23.8629 21.0013 24.2234 21.3203 24.53C21.3724 24.5508 21.4292 24.5571 21.4847 24.5482C21.5401 24.5393 21.5921 24.5155 21.6351 24.4793C21.674 24.3231 21.6555 24.158 21.5828 24.0143C21.5744 23.9916 21.2735 23.2087 21.2646 23.1858C21.197 22.9995 21.0984 22.826 20.973 22.6726L20.9705 22.671L20.9755 22.6746L20.9725 22.673L20.9766 22.6757L20.9734 22.6741L20.9771 22.6764L20.9734 22.6746C20.9138 22.6605 20.852 22.6589 20.7917 22.6698C20.7315 22.6808 20.6741 22.7042 20.6234 22.7385Z" fill="url(#paint13_linear_856_11085)"/>
<path fill-rule="evenodd" clip-rule="evenodd" d="M23.2856 23.6557C23.3228 23.5491 23.3271 23.4338 23.298 23.3247C23.2689 23.2155 23.2076 23.1177 23.1222 23.0438C22.8987 22.8393 22.5473 22.9202 22.2912 23.0327C21.8548 23.2634 21.4707 23.5817 21.1629 23.9676C21.0429 24.1558 21.1536 24.6015 21.4245 24.6406C21.7325 24.6861 21.9689 24.5401 22.2355 24.3869C22.563 24.1985 23.0606 23.961 23.2856 23.6557Z" fill="white"/>
<path fill-rule="evenodd" clip-rule="evenodd" d="M22.725 22.725C22.8373 22.7213 22.9487 22.7453 23.0494 22.7951C23.1502 22.8448 23.237 22.9186 23.3023 23.01C23.3786 23.1115 23.4244 23.2326 23.4343 23.3591C23.4443 23.4857 23.4181 23.6124 23.3587 23.7246C23.2105 23.9332 23.0252 24.1127 22.8121 24.2542C22.5385 24.4514 22.253 24.6315 21.9572 24.7934C21.8111 24.8591 21.6521 24.8914 21.4919 24.8879C21.3794 24.8894 21.2688 24.8576 21.1742 24.7966C21.0796 24.7356 21.005 24.6481 20.9598 24.5449C20.9067 24.4434 20.8765 24.3315 20.8714 24.2171C20.8663 24.1026 20.8864 23.9884 20.9303 23.8826C21.0701 23.6042 21.5556 23.2191 21.8333 23.0339C22.0917 22.8416 22.4031 22.7338 22.725 22.725ZM22.8159 23.1096C22.5488 23.142 22.2968 23.2512 22.0904 23.4239C21.8194 23.6142 21.5767 23.8418 21.3694 24.1001C21.3421 24.1469 21.374 24.3649 21.4569 24.4031C21.6223 24.4197 21.7888 24.3841 21.9329 24.3013C22.595 23.9831 22.9723 23.8431 23.203 23.6017L23.2044 23.5992C23.2121 23.5419 23.2077 23.4837 23.1914 23.4282C23.1743 23.3405 23.1279 23.2612 23.0599 23.2032C22.9919 23.1453 22.9062 23.1121 22.8168 23.1091L22.8159 23.1096Z" fill="url(#paint14_linear_856_11085)"/>
<path fill-rule="evenodd" clip-rule="evenodd" d="M29.1394 34.8856C29.1394 34.8856 29.4213 32.7079 27.0938 31.4152C26.5442 31.11 32.3736 27.9928 38.9561 27.7624C47.8559 27.4505 50.235 35.8605 50.1846 38.0061C50.1619 39.7562 49.7319 41.477 48.9286 43.032C48.1253 44.587 46.9708 45.9335 45.5566 46.9648L44.4608 46.2472L28.4714 48.5293C28.4714 48.5293 27.1388 44.5193 26.0232 43.8258C25.7218 43.6383 27.2306 41.3535 27.2306 41.3535C28.2057 35.9389 29.1394 34.8856 29.1394 34.8856Z" fill="white"/>
<path fill-rule="evenodd" clip-rule="evenodd" d="M28.9284 35.0187C29.0671 34.7968 29.0407 34.8805 29.0471 34.7823C29.0567 34.2986 28.9645 33.8184 28.7765 33.3727C28.5886 32.927 28.309 32.5257 27.9561 32.195C27.3546 31.6267 27.0078 31.576 26.943 31.4358C26.6084 30.6982 32.3072 28.1573 37.6371 27.6399C39.4704 27.4661 41.0667 27.4808 42.8528 28.0182C46.8605 29.2376 49.4806 32.8794 50.2693 36.6354C50.4045 37.216 50.4524 37.8136 50.4113 38.4083C50.3174 40.3548 49.7327 42.2459 48.7116 43.9057C47.7674 45.4286 46.5068 46.6449 45.7036 47.1597C45.6632 47.1898 45.6146 47.2068 45.5643 47.2083C45.514 47.2099 45.4645 47.1959 45.4224 47.1683L44.4034 46.5005C44.4278 46.5005 28.5418 48.7642 28.3956 48.7178C28.2756 48.6585 28.3018 48.6439 28.1304 48.1618C27.8065 47.224 26.7771 44.5335 25.9549 43.9828C25.9025 43.9551 25.8613 43.9101 25.8383 43.8555C25.7597 43.6489 25.9256 43.2872 26.0336 43.0729C26.3499 42.4608 26.702 41.8679 27.088 41.2973C27.1144 41.2957 27.844 36.847 28.9284 35.0187ZM36.7804 28.1402C34.3895 28.4393 32.0469 29.0439 29.8099 29.9393C29.2355 30.1748 27.6306 30.8653 27.2121 31.331C28.37 32.0159 28.9946 32.95 29.191 34.0056C29.2485 34.2982 29.2638 34.5976 29.2364 34.8946C29.029 35.2148 28.8594 35.5581 28.7309 35.9174C27.8672 38.1119 27.4242 41.3157 27.3546 41.4325C27.0566 41.8798 26.2884 43.1281 26.1529 43.6882C26.1481 43.7368 26.1486 43.6591 26.4382 43.953C27.2817 44.8567 28.2043 47.1411 28.6063 48.3012C28.8005 48.2734 44.1079 46.0107 44.5298 46.0107C44.5522 46.0172 44.5735 46.0271 44.593 46.04C45.6252 46.7149 45.5395 46.6765 45.5622 46.6599C46.0453 46.3027 46.4942 45.9016 46.9032 45.4616C48.4286 43.8499 49.4343 41.817 49.7899 39.6266C50.0172 38.0865 50.0236 37.2814 49.5042 35.6276C49.3099 35.0154 49.0695 34.4189 48.785 33.8431C46.2136 28.8194 42.2034 27.4847 36.7804 28.1402Z" fill="url(#paint15_linear_856_11085)"/>
<path fill-rule="evenodd" clip-rule="evenodd" d="M44.5155 46.1994C44.5155 46.1994 36.3472 41.0832 36.2842 41.0957C26.7255 43.01 23.5456 45.0886 23.0738 45.1598C22.2996 45.2771 21.46 45.2771 20.6451 45.4007C20.2517 45.4605 18.1508 45.5503 18.1676 46.0249C18.216 47.3486 20.5944 46.196 20.8399 47.3057C20.9119 47.532 21.0503 47.7315 21.2371 47.8781C21.4239 48.0248 21.6506 48.1119 21.8875 48.128C22.9663 48.1778 23.5372 47.6721 23.8241 47.525C23.9352 47.4689 25.9243 48.0587 28.0841 48.4983C41.3452 51.1977 44.4364 46.1735 44.5155 46.1994Z" fill="white"/>
<path fill-rule="evenodd" clip-rule="evenodd" d="M44.5669 46.2812C44.5494 46.3067 44.3346 46.5519 44.2128 46.6729C43.7127 47.1623 43.1459 47.5786 42.5292 47.9094C35.2825 51.6597 24.1982 47.5684 23.847 47.7916C23.319 48.1691 22.6866 48.3731 22.0375 48.3753C21.806 48.3858 21.5754 48.339 21.3663 48.2389C21.1954 48.164 21.0416 48.0551 20.9142 47.9188C20.7867 47.7825 20.6884 47.6217 20.6251 47.4461C20.6126 47.358 20.5791 47.2742 20.5274 47.2018C20.1146 46.7552 18.637 47.2975 18.0887 46.5583C17.9826 46.4036 17.9252 46.2206 17.9239 46.033C17.9164 45.6491 18.3685 45.4996 18.7361 45.4075C19.3354 45.2881 19.9419 45.2079 20.5517 45.1675C21.4925 45.0352 21.8277 45.0538 22.6446 44.9706C23.0481 44.9288 22.9856 44.9234 23.0404 44.9211C24.2471 44.4479 26.9044 42.865 35.1527 41.1253C36.4181 40.8702 36.284 40.8902 36.3822 40.93C38.4749 42.2029 43.0192 45.127 44.569 46.1146C44.5312 46.1749 44.4724 46.2692 44.569 46.116L44.5828 46.126C44.5936 46.1365 44.6018 46.1492 44.6069 46.1633C44.6121 46.1774 44.6139 46.1925 44.6124 46.2075C44.6109 46.2224 44.606 46.2368 44.5981 46.2496C44.5902 46.2623 44.5796 46.2732 44.5669 46.2812ZM23.8829 47.2791C24.7358 47.3391 36.4888 51.2149 42.794 47.4775C43.3788 47.1425 43.9072 46.7176 44.3598 46.2183C44.2382 46.1442 37.0375 41.7362 36.2588 41.2941C33.318 41.9185 30.0161 42.7261 27.1724 43.741C25.9068 44.1855 24.6659 44.6976 23.4552 45.275C23.1656 45.405 23.1424 45.4059 22.4669 45.4737C21.4761 45.5539 21.3868 45.5512 20.8683 45.6144C20.2237 45.7053 19.134 45.7507 18.5654 45.9694C18.5125 45.9888 18.4625 46.015 18.4165 46.0474C18.4166 46.1048 18.43 46.1615 18.4555 46.2129C18.4811 46.2644 18.5181 46.3093 18.5638 46.3442C18.9258 46.6126 19.9821 46.3797 20.6149 46.6665C21.0515 46.8895 21.0502 47.1982 21.1195 47.3664C21.1916 47.5013 21.294 47.6177 21.4188 47.7064C21.5436 47.795 21.6872 47.8534 21.8384 47.8771C22.3899 47.9258 22.942 47.7899 23.4079 47.4907C23.687 47.3243 23.735 47.2691 23.8823 47.2791H23.8829ZM44.5183 46.296H44.5196H44.5219H44.5183Z" fill="url(#paint16_linear_856_11085)"/>
<path fill-rule="evenodd" clip-rule="evenodd" d="M41.1148 34.1534L41.1012 34.2913C40.1011 35.3051 38.8182 37.0787 38.0861 38.1567C37.9063 38.4211 36.4528 40.5906 36.4319 40.9513V40.9491L36.4307 40.9556V40.9579V40.9611V40.9641V40.9663V40.9745L36.3503 41.0882C36.2048 40.9863 36.2434 41.0182 36.2309 40.985C36.1916 40.0401 38.6685 35.7726 40.9771 34.1406L41.1148 34.1534Z" fill="url(#paint17_linear_856_11085)"/>
<path fill-rule="evenodd" clip-rule="evenodd" d="M53.478 38.8984C42.4955 39.9933 19.5461 39.6271 8.64901 36.6113L7.44775 61.8558C12.2003 65.9416 44.1375 67.7821 52.4297 65.3752C52.5222 65.3475 53.7309 38.8736 53.478 38.8984Z" fill="white" fill-opacity="0.38"/>
<path fill-rule="evenodd" clip-rule="evenodd" d="M53.5149 38.7863C53.619 38.8318 53.6172 38.91 53.6285 39.1895C53.6983 42.4049 52.9082 61.7294 52.6966 65.0915C52.6709 65.4009 52.6952 65.5007 52.5207 65.6002C47.6188 67.0083 36.7313 66.816 31.6458 66.5249C26.3289 66.3062 12.8914 65.1788 8.19314 62.702C7.84256 62.5282 7.51626 62.3093 7.22258 62.0508C7.1727 61.9932 7.14697 61.9186 7.15076 61.8426C8.44566 34.8004 8.34202 36.5593 8.43293 36.4308C8.47286 36.3837 8.52703 36.3508 8.58727 36.3372C8.99208 36.2804 13.6923 38.1708 29.2562 38.99C45.8545 39.7948 53.1944 38.7202 53.5149 38.7863ZM7.80401 61.7616C11.0432 64.2619 24.3107 65.4534 28.4059 65.7445C34.0799 66.1482 46.6969 66.6656 52.2091 65.1872C52.2091 65.1645 53.5067 42.0082 53.3824 39.0304C53.2503 39.0404 51.9202 39.1843 49.9488 39.315C39.1952 40.0242 19.2134 39.7403 8.91457 36.9763C7.76332 62.0521 7.70286 61.6873 7.80401 61.7616Z" fill="url(#paint18_linear_856_11085)"/>
<path fill-rule="evenodd" clip-rule="evenodd" d="M27.2288 44.5863C24.7058 44.5583 20.2408 44.3442 16.437 43.4805L15.4487 56.6614C17.4551 57.6738 22.9784 58.3888 26.4119 57.8274C26.4119 57.8274 27.2872 44.5865 27.2288 44.5863Z" fill="white" fill-opacity="0.38"/>
<path fill-rule="evenodd" clip-rule="evenodd" d="M18.9435 43.7166C21.008 44.0447 23.088 44.2665 25.1752 44.3809C27.2816 44.4978 27.2141 44.4373 27.2975 44.4898C27.3343 44.5198 27.3055 44.4973 27.3275 44.5205C27.4396 44.7101 26.7218 57.3036 26.6986 57.6971C26.6872 57.8848 26.6945 58.0067 26.5017 58.0905C24.9561 58.4769 20.3668 58.4185 16.9837 57.5209C16.3931 57.376 15.8197 57.1682 15.2733 56.9011C15.2207 56.8627 15.1824 56.808 15.1644 56.7454C15.1365 56.6684 15.7934 48.1977 16.1564 43.7272C16.1834 43.4047 16.1748 43.4222 16.2225 43.3372C16.42 43.0931 16.3737 43.2879 18.9435 43.7166ZM16.5475 45.6677C15.8202 55.8767 15.7436 56.4736 15.7684 56.4845C17.8036 57.4012 22.9532 58.0458 26.1508 57.5848C26.4917 52.8834 27.0739 45.5733 27.1098 44.7067C26.8425 44.7178 25.3682 44.6855 25.0848 44.6773C22.4134 44.6005 19.293 44.3403 16.6976 43.7984C16.6671 43.7923 16.6907 43.587 16.5475 45.6677Z" fill="url(#paint19_linear_856_11085)"/>
<path fill-rule="evenodd" clip-rule="evenodd" d="M45.389 45.3693C41.8743 45.8423 37.6225 45.6209 33.7948 44.8711L33.2007 58.0754C35.2363 59.0276 41.5529 59.2924 44.968 58.6289C44.968 58.6289 45.447 45.3618 45.389 45.3693Z" fill="white" fill-opacity="0.38"/>
<path fill-rule="evenodd" clip-rule="evenodd" d="M37.4022 45.181C39.3847 45.4144 41.3825 45.4919 43.3771 45.4128C45.3351 45.3253 45.3973 45.1703 45.491 45.3092C45.5619 45.4442 45.3985 52.469 45.3951 52.6243C45.2491 59.0995 45.2626 58.6876 45.1769 58.8079C45.136 58.8547 45.0808 58.8867 45.0198 58.8988C45.0425 58.8988 44.3588 59.0281 43.7851 59.0931C41.0803 59.4222 36.9792 59.349 34.3362 58.7508C33.8855 58.6605 33.4475 58.5155 33.032 58.3189C32.9983 58.2959 32.9698 58.2661 32.9483 58.2315C32.9268 58.1969 32.9127 58.1581 32.907 58.1178C32.8935 58.0532 33.5077 45.0371 33.5382 44.8132C33.5516 44.754 33.5848 44.7012 33.6325 44.6637C33.8975 44.4943 33.8318 44.7541 37.4022 45.181ZM33.5134 57.8868C35.8845 58.8254 41.8624 58.8885 44.7029 58.3969C44.8621 54.5329 45.2405 46.9391 45.2735 45.5078C41.6449 46.0179 37.6784 45.8192 34.045 45.1824C33.7373 53.1104 33.4891 57.8762 33.5134 57.8868Z" fill="url(#paint20_linear_856_11085)"/>
<path fill-rule="evenodd" clip-rule="evenodd" d="M15.1459 59.1301C17.3784 60.2295 22.2844 60.7298 25.0353 60.5393C26.13 60.4641 25.8388 60.415 26.0463 60.4673L26.0938 60.5423V60.5439C26.0618 60.6721 26.1225 60.6721 25.4529 60.7678C21.7743 61.2905 16.8888 60.6132 14.9291 59.6874C14.8904 59.6892 14.8334 59.6111 14.7295 59.4904L14.7452 59.2631V59.2615L14.9175 59.1133L15.1459 59.1301Z" fill="url(#paint21_linear_856_11085)"/>
<path fill-rule="evenodd" clip-rule="evenodd" d="M33.327 60.7598C35.7011 61.7405 41.8927 61.8874 44.8014 61.2853L44.8905 61.3016L44.943 61.3732V61.3748C44.9187 61.5092 44.9623 61.4987 44.4416 61.6133C40.7039 62.4333 35.1402 62.1151 33.1763 61.3423C33.0765 61.3032 33.1259 61.3405 32.9365 61.148V60.9207V60.9191L33.0986 60.76L33.327 60.7598Z" fill="url(#paint22_linear_856_11085)"/>
<path fill-rule="evenodd" clip-rule="evenodd" d="M12.3929 48.1522L12.4522 48.2147V48.2163L12.445 48.3015L12.3795 48.3683C12.3479 48.3697 11.7376 48.6911 11.7149 48.7029C11.0419 49.0423 10.4167 49.4689 9.85538 49.9719C10.0865 50.266 11.9308 52.1312 11.9538 52.1503L11.9504 52.1483H11.9515L11.9542 52.1503L11.9504 52.1483L11.952 52.1496L11.9483 52.1476H11.9497L11.944 52.1449H11.9454L11.9367 52.1415L11.9226 52.1376L11.9922 52.183L12.0167 52.271V52.2724C12.0144 52.2848 12.0102 52.2968 12.0045 52.3081C12.0001 52.3165 11.9945 52.3241 11.9879 52.3308L11.9772 52.341C11.9668 52.3492 11.9554 52.356 11.9433 52.3612L11.924 52.3672C11.9124 52.3693 11.9006 52.3701 11.8888 52.3694C11.8529 52.3642 11.8191 52.3497 11.7906 52.3274C11.2525 51.9895 10.7386 51.6145 10.2527 51.2052C9.91443 50.9185 9.6049 50.5996 9.3285 50.2528C9.01802 49.8026 9.31941 49.6544 9.58489 49.4184C10.3122 48.8297 10.9082 48.4502 12.2993 48.1367L12.3929 48.1522ZM11.8569 52.1462C11.8167 52.1703 11.8304 52.1576 11.796 52.2003C11.7778 52.2544 11.7733 52.2501 11.8367 52.1596C11.9263 52.1369 11.9276 52.1412 11.896 52.1369L11.8569 52.1462Z" fill="url(#paint23_linear_856_11085)"/>
<path fill-rule="evenodd" clip-rule="evenodd" d="M49.1308 50.0947C50.3639 50.5974 51.0373 51.0827 51.8331 52.0924C51.8663 52.1365 51.8885 52.1879 51.8979 52.2423C51.9073 52.2968 51.9037 52.3526 51.8872 52.4054C51.6683 53.0872 49.0058 54.3374 48.8414 54.3374C48.8094 54.3343 48.7798 54.3191 48.7587 54.2949C48.7489 54.2839 48.7416 54.271 48.7373 54.2569C48.7334 54.2449 48.7312 54.2325 48.731 54.2199V54.2183L48.7696 54.1358L48.8457 54.1014L48.831 54.103L48.8221 54.1051H48.8235L48.8176 54.1069H48.8191L48.8151 54.1083H48.8169L48.8126 54.1096L48.8155 54.108H48.8169L48.8132 54.1096C48.9269 54.0464 49.9484 53.2609 50.4911 52.8799C50.7 52.7272 51.0189 52.5063 51.2412 52.3042C51.0873 52.1096 50.9053 51.9014 50.8291 51.8226C50.274 51.2615 49.6664 50.7547 49.0148 50.3092L48.961 50.2324L48.968 50.1469V50.1456L49.0362 50.0938L49.1308 50.0947ZM48.9273 54.1337C48.9798 54.244 48.9685 54.2271 48.9608 54.1792C48.9353 54.1337 48.9473 54.1478 48.9096 54.116C48.8657 54.0987 48.8785 54.1017 48.8521 54.1001L48.9273 54.1337Z" fill="url(#paint24_linear_856_11085)"/>
<path fill-rule="evenodd" clip-rule="evenodd" d="M42.8152 18.2593C40.9675 16.4382 36.7545 14.7616 34.3193 17.6176C34.3193 17.6176 33.0773 19.7497 33.9817 24.4881C34.083 25.0217 34.282 25.5319 34.5689 25.993C35.0957 26.7151 36.3718 26.9054 37.2232 26.8699C37.5514 26.8563 37.8735 26.7879 38.1904 26.7747C38.2404 26.7727 38.439 26.7047 38.4818 26.7442C38.7002 26.9445 38.8507 28.2769 38.9136 28.3353C39.1567 28.5596 39.453 28.7182 39.7745 28.7961C40.096 28.874 40.4321 28.8686 40.7509 28.7804C41.1952 28.6869 42.0217 28.4115 42.191 28.0332C42.2669 27.8646 41.9942 26.2149 42.0626 26.1369C43.2457 24.7918 42.9052 23.5616 43.1002 23.35C43.1245 23.3232 43.623 23.2534 43.7525 23.1948C44.2549 22.9693 44.6017 22.1192 44.4735 21.5917C44.4413 21.435 44.3672 21.2901 44.2591 21.1722C44.1511 21.0543 44.0131 20.968 43.8598 20.9223C43.6459 20.8609 42.9781 21.2882 42.9781 21.2882L42.8152 18.2593Z" fill="white"/>
<path fill-rule="evenodd" clip-rule="evenodd" d="M43.8377 20.7609C44.0855 20.8046 44.3061 20.9444 44.4514 21.1498C44.8089 21.6372 44.6889 22.2975 44.4018 22.8073C44.0193 23.4258 43.7199 23.4058 43.2467 23.5137C43.2207 23.9203 43.1654 24.3245 43.0815 24.7232C42.9311 25.2799 42.6575 25.7957 42.2809 26.2324C42.2716 26.3536 42.423 27.435 42.4387 27.8055C42.4568 27.9144 42.4454 28.026 42.4059 28.129C42.3663 28.232 42.2999 28.3226 42.2136 28.3913C42.03 28.5467 41.8228 28.6722 41.5999 28.7629C40.568 29.1868 39.6554 29.2495 38.8151 28.5727C38.6749 28.4508 38.6671 28.4417 38.5899 28.0251C38.3573 26.7943 38.351 27.0818 38.3473 26.992C38.1963 27.0199 38.0436 27.038 37.8902 27.0461C37.5485 27.1012 37.2023 27.1245 36.8563 27.1157C36.2654 27.1071 35.6821 26.9806 35.1409 26.7434C34.902 26.6384 34.6864 26.4869 34.5069 26.2975C34.3273 26.1082 34.1874 25.8849 34.0953 25.6408C33.7684 24.903 33.6862 24.2702 33.5693 23.4567C33.3926 22.2312 33.3721 20.9883 33.5082 19.7577C33.5872 19.0222 33.777 18.3029 34.0712 17.6242C34.1103 17.5294 34.1695 17.4441 34.2446 17.3742C34.4783 17.1178 34.7401 16.8885 35.0249 16.6905C37.3381 15.0638 41.0015 16.2359 42.8837 18.1879C42.9199 18.2298 42.9133 18.2548 42.918 18.3307C43.1158 21.2699 43.0728 21.0603 43.1467 21.0185C43.3541 20.8804 43.5906 20.7923 43.8377 20.7609ZM36.3476 16.478C35.6845 16.6965 35.0896 17.0836 34.6213 17.6013C34.4849 17.7538 34.501 17.7318 34.4697 17.8C34.0976 18.5623 33.9098 19.9111 33.8914 20.8384C33.8446 22.0154 34.053 24.7427 34.7065 25.7605C34.8114 25.9297 34.9544 26.0719 35.124 26.176C35.6507 26.517 36.4669 26.6375 37.0977 26.6275C37.3749 26.6157 37.6513 26.5894 37.9257 26.5486C38.023 26.5437 38.1201 26.5338 38.2164 26.519C38.4612 26.4627 38.5869 26.4581 38.7296 26.6629C38.9308 27.0127 39.0122 27.6876 39.1213 28.1933C39.3675 28.4141 39.6768 28.5522 40.0057 28.5879C40.7399 28.6731 41.7713 28.2335 41.9507 27.9796C41.9734 27.948 41.9686 27.9553 41.9704 27.9158C41.9452 27.3091 41.8472 26.7702 41.8254 26.2488C41.8304 26.0017 41.8579 26.0478 42.03 25.8242C42.2469 25.557 42.4237 25.2596 42.5548 24.9414C42.7219 24.4793 42.8176 23.9944 42.8385 23.5035C42.8946 23.1776 43.0033 23.1589 43.1737 23.1244C43.6622 23.0312 43.6754 23.0498 43.8597 22.8987C44.012 22.749 44.1321 22.5697 44.2125 22.3719C44.2928 22.174 44.3318 21.9618 44.327 21.7483C44.3147 21.5534 44.2312 21.3698 44.0925 21.2324C44.0684 21.2094 44.0425 21.1884 44.0152 21.1694C43.9539 21.1269 43.8865 21.094 43.8154 21.0717C43.5742 21.1283 43.3444 21.2256 43.1358 21.3594C43.0276 21.4233 43.0365 21.4231 42.9842 21.4292C42.9515 21.4303 42.9195 21.4199 42.8937 21.3998C42.8678 21.3798 42.8498 21.3513 42.8428 21.3194C42.8389 21.2824 42.8535 21.6208 42.7207 18.3418C42.7189 18.2964 42.7248 18.3091 42.7021 18.2875C41.1008 16.8162 38.4346 15.7938 36.3476 16.478Z" fill="url(#paint25_linear_856_11085)"/>
<path fill-rule="evenodd" clip-rule="evenodd" d="M34.0638 18.636C34.1247 18.5012 33.7513 18.6653 33.6206 18.5946C33.3562 18.4508 33.0782 18.2514 32.9198 17.5509C32.7862 16.962 33.3385 16.3785 33.3183 16.3606C32.5818 15.6839 32.5407 14.6967 33.293 13.8796C33.7103 13.4268 34.2477 13.6046 34.7193 13.5841C34.7909 13.5812 34.9184 13.11 34.9834 13.0245C35.2613 12.6515 35.6726 12.4003 36.1313 12.3233C36.3167 12.2979 36.5055 12.3137 36.6841 12.3695C36.8628 12.4253 37.027 12.5197 37.165 12.6461C37.3187 12.7634 37.6489 12.9654 37.6489 12.9654C37.829 12.7605 38.0319 12.5767 38.2535 12.4176C38.6878 12.2026 39.1696 12.1016 39.6537 12.1242C40.4492 12.1301 41.0684 13.0579 41.2354 13.0509C41.2809 13.0491 42.5381 12.2972 43.6618 12.8972C44.286 13.2311 44.864 13.643 45.0745 14.3747C45.2033 14.9065 45.2206 15.4594 45.1252 15.9982C45.1252 15.9982 46.881 16.0826 46.8615 18.1203C46.8522 19.0977 45.9296 19.6141 45.9296 19.6223C45.943 19.9455 46.4312 20.2053 46.1591 20.736C45.8075 21.4227 45.2272 21.1658 45.1136 21.3545C45.0661 21.4322 45.4479 22.1546 44.514 22.4C44.4608 22.4139 44.8095 21.0517 43.8257 20.7421C43.0165 20.488 42.0446 19.9782 41.8046 19.1674C41.7096 18.8444 41.8146 18.1219 41.4409 17.9548C41.2977 17.8905 41.0875 18.2569 40.9581 18.2885C39.7976 18.571 39.3898 18.3969 38.3751 17.8214C38.1679 17.7036 38.0069 17.3707 37.7794 17.3238C37.3657 17.2386 36.8718 18.108 36.4293 18.1901C36.0542 18.2596 35.2439 17.8314 35.1096 17.9055C34.8971 18.0232 34.8809 18.4055 34.6648 18.5251C34.472 18.6317 33.9206 18.4476 33.9297 18.4512" fill="url(#paint26_linear_856_11085)"/>
<path fill-rule="evenodd" clip-rule="evenodd" d="M42.7257 12.5213C43.1677 12.525 43.599 12.6571 43.9672 12.9016C44.2697 13.0704 44.5433 13.2864 44.7775 13.5416C45.3271 14.1469 45.4033 15.0645 45.2946 15.8712C45.5897 15.9163 45.8709 16.0271 46.1174 16.1954C46.364 16.3637 46.5696 16.5852 46.7191 16.8436C46.9216 17.2299 47.0215 17.6618 47.0091 18.0978C46.9979 18.4179 46.9085 18.7305 46.7488 19.0082C46.589 19.2858 46.3638 19.5202 46.0927 19.6909C46.182 19.9698 46.6714 20.3082 46.1513 21.0206C46.0134 21.1974 45.8185 21.321 45.5997 21.3702C45.3951 21.417 45.3015 21.4086 45.2615 21.4268C45.321 21.6382 45.307 21.8635 45.2217 22.0659C45.1557 22.1852 45.0643 22.2885 44.9541 22.3687C44.8439 22.4489 44.7174 22.504 44.5837 22.5301C44.5548 22.5441 44.5224 22.5488 44.4908 22.5436C44.4592 22.5385 44.4299 22.5237 44.4071 22.5012C44.3327 22.4135 44.3707 22.3623 44.3823 22.1043C44.4096 21.7048 44.3432 21.1995 44.0045 20.9831C43.8111 20.8456 42.4425 20.5483 41.8545 19.5952C41.7736 19.4652 41.7123 19.3238 41.6727 19.1759C41.6022 18.9222 41.6534 18.3165 41.4636 18.1207C41.4453 18.1011 41.4238 18.0847 41.4002 18.0721C41.3476 18.0744 41.1806 18.3012 41.0413 18.3824C40.8909 18.428 40.7372 18.4621 40.5817 18.4842C39.7841 18.6076 39.437 18.5022 38.7267 18.1353C38.2164 17.8528 38.2641 17.8923 38.0448 17.6514C37.9539 17.5491 37.8364 17.4104 37.7114 17.4134C37.3586 17.4189 36.8722 18.2289 36.3985 18.2771C36.0146 18.3085 35.3254 17.9651 35.1484 17.9691C35.1327 17.9691 35.1125 17.9882 35.1002 17.998C34.934 18.1739 34.9156 18.4283 34.7301 18.5601C34.564 18.6738 34.314 18.6076 34.1164 18.5672C34.1231 18.5783 34.1271 18.5908 34.1283 18.6038C34.1295 18.6167 34.1278 18.6298 34.1233 18.6419C34.1174 18.6647 34.1233 18.6581 34.0373 18.6915C34.0078 18.616 34.0564 18.6417 33.7873 18.6724C33.7445 18.6817 33.7002 18.6822 33.6572 18.6737C33.6142 18.6653 33.5734 18.6481 33.5373 18.6233C33.3842 18.5373 33.2501 18.4212 33.143 18.282C33.0359 18.1428 32.958 17.9835 32.914 17.8134C32.8038 17.5533 32.7919 17.262 32.8806 16.9938C32.9582 16.7724 33.0692 16.5641 33.2095 16.376C33.0216 16.1966 32.8723 15.9806 32.7708 15.7414C32.6247 15.3761 32.6134 14.9708 32.7388 14.5979C32.8084 14.3918 32.9099 14.1978 33.0397 14.0233C33.1935 13.771 33.4353 13.5847 33.7184 13.5005C34.0332 13.4523 34.3526 13.4428 34.6697 13.4721C34.7411 13.3387 34.7983 13.1084 34.8765 12.9704C35.0305 12.7569 35.2268 12.5772 35.4531 12.4426C35.6794 12.3081 35.9309 12.2214 36.1921 12.1881C36.7951 12.124 37.1106 12.4731 37.6241 12.795C37.7714 12.6318 37.9334 12.4826 38.108 12.349C38.7049 12.0111 39.4066 11.9085 40.0752 12.0613C40.6401 12.2622 41.0794 12.7952 41.232 12.8961C41.6943 12.6577 42.2056 12.5294 42.7257 12.5213ZM41.4236 17.8259C41.5053 17.8481 41.5801 17.8904 41.6411 17.949C41.7022 18.0077 41.7475 18.0807 41.7729 18.1614C41.9 18.446 41.8534 18.9531 41.9548 19.207C42.213 19.8539 42.8996 20.2446 43.5458 20.4974C43.8938 20.6294 44.0572 20.6401 44.2754 20.8369C44.6423 21.1706 44.6996 21.6984 44.6653 22.1955C44.7406 22.1637 44.8098 22.1191 44.8698 22.0637C44.9289 22.0041 44.9716 21.9302 44.9938 21.8492C45.0159 21.7683 45.0168 21.6829 44.9962 21.6016C44.9698 21.4104 44.9223 21.334 45.0305 21.2252C45.2299 21.0538 45.5501 21.1838 45.834 20.9313C45.9678 20.8093 46.0583 20.6471 46.0918 20.4692C46.11 20.135 45.7736 19.9212 45.7824 19.6091C45.7841 19.5881 45.7904 19.5678 45.8008 19.5495C45.7983 19.487 46.1629 19.3659 46.4775 18.8822C46.6093 18.681 46.6888 18.45 46.7087 18.2103C46.7387 17.2957 46.4154 16.551 45.554 16.244C45.1428 16.0974 45.0794 16.2008 44.9939 16.068C44.9382 15.9394 45.0646 15.7973 45.0339 15.0627C45.0245 14.7896 44.9727 14.5196 44.8803 14.2624C44.8522 14.1906 44.8196 14.1207 44.7828 14.0531C44.705 13.9892 44.6564 13.6051 43.5927 13.0264C43.3499 12.8977 43.0814 12.8248 42.8069 12.8132C42.2748 12.8133 41.7507 12.9417 41.2788 13.1875C41.0344 13.2509 40.7887 12.7656 40.2228 12.4374C39.9994 12.3004 39.7376 12.2398 39.4768 12.2647C39.1032 12.2661 38.7341 12.3455 38.393 12.4979C38.1713 12.6264 37.9734 12.7923 37.8084 12.9884C37.7277 13.0748 37.7345 13.0725 37.6895 13.0916C37.6198 13.108 37.6095 13.0989 37.465 13.0073C37.0136 12.7159 36.7149 12.3856 36.2112 12.439C35.9876 12.4667 35.7719 12.5392 35.5769 12.6521C35.3819 12.765 35.2117 12.916 35.0763 13.0961C35.0097 13.1977 34.9206 13.5932 34.787 13.6782C34.641 13.7589 34.0064 13.5703 33.5982 13.773C33.2852 13.9889 33.0499 14.2997 32.927 14.6595C32.8324 14.9194 32.8153 15.2013 32.8779 15.4707C32.9487 15.7608 33.0989 16.0254 33.3116 16.2349C33.3889 16.3126 33.3977 16.3106 33.4025 16.354C33.4052 16.4156 33.3652 16.4322 33.235 16.6322C33.0458 16.8829 32.9573 17.1953 32.987 17.508C33.0294 17.7393 33.1122 17.9615 33.2316 18.1642C33.3373 18.3219 33.4815 18.45 33.6505 18.5365C33.7542 18.5504 33.8595 18.5454 33.9614 18.5217L33.9121 18.5065L33.9219 18.5083L33.9266 18.4937L33.8994 18.5012C33.8919 18.4971 33.8855 18.4913 33.8805 18.4844C33.8755 18.4775 33.8721 18.4696 33.8704 18.4613C33.8688 18.4529 33.869 18.4443 33.871 18.436C33.873 18.4277 33.8768 18.42 33.8821 18.4133C33.9191 18.3753 33.9262 18.3906 34.0726 18.4285C34.251 18.4883 34.4416 18.5025 34.627 18.4696C34.8356 18.3596 34.8702 17.8332 35.152 17.8239C35.3693 17.8239 35.8578 18.0657 36.2462 18.1101C36.3322 18.1216 36.4198 18.1122 36.5014 18.0826C36.583 18.0531 36.6562 18.0042 36.7149 17.9403C37.2677 17.4841 37.6036 16.8986 38.1191 17.4402C38.2717 17.6429 38.4772 17.7995 38.7131 17.8928C39.554 18.3367 39.9193 18.4192 40.9274 18.1737C41.1226 18.0046 41.2406 17.8148 41.4236 17.8259ZM34.0114 18.6201L34.0133 18.626V18.6276L34.0101 18.6188L34.0114 18.6201Z" fill="url(#paint27_linear_856_11085)"/>
<path fill-rule="evenodd" clip-rule="evenodd" d="M36.5135 25.2497V25.2522V25.2469V25.2492L36.5119 25.244L36.5135 25.246L36.511 25.241L36.5126 25.2431L36.5101 25.2381L36.5117 25.2401L36.5092 25.2354L36.5108 25.2374L36.5085 25.2326L36.5099 25.2347L36.5067 25.2301L36.5092 25.2322L36.506 25.2279L36.5083 25.2297L36.5051 25.2258L36.5067 25.2276L36.5035 25.224L36.5058 25.2256L36.5028 25.2224L36.5051 25.224L36.5019 25.2208L36.5042 25.2224L36.5012 25.2197L36.5035 25.221L36.5003 25.2183L36.5033 25.2197L36.4997 25.2174L36.5026 25.2188L36.4994 25.2167H36.5026L36.4994 25.2149H36.5026L36.4994 25.2133H36.5026L36.4994 25.2119H36.5024L36.5001 25.2104H36.504L36.5017 25.2092H36.506H36.5031H36.5083H36.506H36.5112H36.509H36.5151H36.5135C36.6075 25.1965 36.6984 25.1668 36.7817 25.1215L36.786 25.119L36.7817 25.1206L36.7874 25.116L36.7824 25.1183L36.7851 25.1151L36.7779 25.119L36.7815 25.116L36.7735 25.121L36.7763 25.1181L36.7706 25.1219C36.8038 25.085 36.8315 25.0434 36.8529 24.9985V24.9944C36.9 24.8983 36.9289 24.7943 36.9379 24.6876V24.6846C36.956 24.5734 36.9409 24.4594 36.8944 24.3568C36.8479 24.2542 36.7721 24.1676 36.6765 24.108C36.5628 24.0398 36.4526 24.0514 36.4908 24.0446H36.4869L36.4928 24.043C36.3873 24.0601 36.2863 24.0981 36.1958 24.1548V24.153L36.1914 24.1573V24.1555L36.1871 24.1596L36.1885 24.1573L36.1842 24.1614L36.1858 24.1589L36.1842 24.1607L36.1821 24.1627L36.1835 24.16L36.1805 24.1634L36.1819 24.1607L36.1792 24.1639V24.1607L36.1778 24.1639V24.1605L36.1764 24.1637L36.1778 24.1602L36.1758 24.1634L36.1771 24.1598L36.1758 24.163V24.1591L36.1744 24.1623V24.1582V24.1614V24.1573L36.173 24.1605V24.1562V24.1593V24.1548V24.158V24.1534V24.1566V24.1518V24.1552V24.1505V24.1534V24.1489V24.1518V24.1473V24.1505V24.1459V24.1489L36.1714 24.1443V24.1477L36.1696 24.1432V24.1464L36.168 24.1421V24.145L36.1655 24.1409V24.1441L36.1639 24.14V24.1423L36.1617 24.1382L36.1633 24.1416L36.1317 24.278L35.9953 24.2462C35.9804 24.2266 35.9698 24.2041 35.9643 24.1802C35.9588 24.1562 35.9585 24.1314 35.9635 24.1073C36 23.987 36.0734 23.8813 36.1733 23.805C36.2675 23.7182 36.3857 23.6619 36.5125 23.6434C36.6393 23.6249 36.7687 23.6451 36.8838 23.7013C37.5816 24.0041 37.582 25.0703 37.0349 25.4061C36.9375 25.4557 36.8301 25.4825 36.7208 25.4843C36.6115 25.4861 36.5032 25.4629 36.4042 25.4165C36.375 25.4019 36.3508 25.3791 36.3346 25.3507C36.3184 25.3224 36.311 25.2899 36.3133 25.2574L36.4121 25.161L36.5083 25.261V25.264V25.259V25.2615V25.2538V25.2565V25.251V25.2538L36.5135 25.2497Z" fill="url(#paint28_linear_856_11085)"/>
<path fill-rule="evenodd" clip-rule="evenodd" d="M32.2057 19.0051C32.2462 19.0263 33.164 18.1075 33.164 18.1075C33.7843 18.0278 40.6023 17.5679 42.0558 18.4994C42.5684 18.8278 42.4722 21.5493 42.3267 22.3591C42.237 22.8573 41.1816 23.3592 41.1816 23.3592C41.1816 23.3592 37.5756 24.095 32.0746 23.0737C31.9166 23.044 32.2057 19.0051 32.2057 19.0051Z" fill="white"/>
<path fill-rule="evenodd" clip-rule="evenodd" d="M41.9941 18.1974C42.1021 18.2354 42.1999 18.2978 42.2799 18.3798C42.3599 18.4617 42.4199 18.561 42.4553 18.67C42.7942 19.5248 42.6924 21.8121 42.566 22.4119C42.5421 22.5278 42.4931 22.637 42.4226 22.732C42.1446 23.0626 41.7996 23.3305 41.4104 23.5177C41.3038 23.5847 41.1821 23.6238 41.0565 23.6314C39.0415 23.9621 35.8553 23.9812 32.4274 23.3236C31.9728 23.237 31.8781 23.277 31.8624 22.9022C31.8408 22.3865 31.9249 21.245 31.964 20.7381C32.1149 18.7927 32.0972 18.9666 32.1731 18.9138C32.4435 18.6819 32.698 18.432 32.935 18.166C33.1325 17.9635 33.0527 17.9926 33.3716 17.9583C35.1016 17.7742 40.4208 17.4319 41.9941 18.1974ZM36.6633 18.1192C36.3262 18.1192 33.2814 18.1674 33.2139 18.2356C33.0755 18.3674 32.4654 18.9516 32.3024 19.0673C32.2497 20.2158 32.169 21.8494 32.2135 22.9181C34.772 23.3598 38.5815 23.5773 41.1052 23.1252C41.4361 22.9704 41.736 22.7566 41.9902 22.4942C42.0318 22.4488 42.0633 22.3952 42.083 22.3369C42.2121 21.7844 42.3116 19.1343 41.9373 18.7059L41.9318 18.7006C41.8289 18.6346 41.7174 18.5829 41.6004 18.547C40.4121 18.1458 37.9537 18.1192 36.6633 18.1192ZM32.2256 22.9947L32.224 22.9902V22.9918V22.9931V22.9895L32.2256 22.9947ZM32.2231 22.9893L32.2249 22.9929V22.9895L32.2231 22.9893Z" fill="url(#paint29_linear_856_11085)"/>
<path fill-rule="evenodd" clip-rule="evenodd" d="M32.2061 19.0039C32.2061 19.0039 31.5484 22.7866 32.0748 23.0725C33.7768 23.9944 41.1173 23.8853 41.2241 23.2596C41.4087 22.1738 41.4878 19.3621 41.0853 19.4183C39.909 19.5778 33.3065 19.509 32.2061 19.0039Z" fill="white"/>
<path fill-rule="evenodd" clip-rule="evenodd" d="M32.1096 18.989C32.1123 18.9744 32.1182 18.9606 32.127 18.9486C32.1358 18.9366 32.1471 18.9267 32.1603 18.9197C32.1734 18.9127 32.1879 18.9088 32.2028 18.9083C32.2176 18.9077 32.2324 18.9105 32.246 18.9165C33.2659 19.3272 38.0941 19.2852 39.2031 19.2665C39.8419 19.2753 40.4807 19.246 41.116 19.1788C41.4022 19.2002 41.482 19.5136 41.5361 19.775C41.6574 20.9113 41.6398 22.0583 41.4835 23.1903C41.4848 23.2649 41.4666 23.3386 41.4307 23.404C41.3949 23.4694 41.3426 23.5243 41.279 23.5633C40.4321 24.1284 34.6853 24.1677 32.4847 23.4463C32.2701 23.3868 32.0684 23.288 31.8898 23.1549C31.4164 22.6117 31.9826 19.7582 32.1087 18.9888C32.1326 18.9931 32.1678 18.999 32.1096 18.989ZM38.0041 23.5027C38.5664 23.4904 40.4925 23.4224 40.9919 23.1644C41.0667 22.6142 41.1111 22.0603 41.1249 21.5052C41.1524 20.9342 41.1271 20.3618 41.0492 19.7955C41.0406 19.7519 41.0293 19.7089 41.0153 19.6668C39.7338 19.7948 36.8797 19.6811 35.4422 19.5822C34.7679 19.5347 32.9213 19.3879 32.286 19.1438C32.1724 19.9477 31.9801 21.5986 32.0485 22.3987C32.0463 22.574 32.0839 22.7475 32.1585 22.9062V22.908H32.1601L32.1617 22.9099C33.2709 23.4802 36.6712 23.5304 38.0041 23.5027ZM32.1671 22.916L32.1649 22.9135H32.1664L32.1642 22.9112H32.1658L32.1628 22.909H32.1642L32.161 22.9065H32.1626L32.1596 22.9046L32.1619 22.9071L32.1603 22.9046L32.1635 22.908L32.1612 22.9055L32.1642 22.9083L32.1612 22.906L32.1671 22.916ZM32.1626 22.9119H32.1649L32.1626 22.9105V22.9119Z" fill="url(#paint30_linear_856_11085)"/>
<path fill-rule="evenodd" clip-rule="evenodd" d="M41.4111 20.2728C41.6932 20.4133 46.4887 17.5211 46.7426 17.3293C47.0663 17.0852 47.0913 18.5935 46.7862 18.9763C46.3253 19.5541 41.5546 22.178 41.4189 21.8464C41.4021 21.805 41.4111 20.2728 41.4111 20.2728Z" fill="white"/>
<path fill-rule="evenodd" clip-rule="evenodd" d="M41.4499 20.1813H41.4522L41.4467 20.1797H41.449L41.4447 20.1784H41.4467H41.4424H41.4447L41.4408 20.1772H41.4431H41.4395H41.4415H41.4385C41.5085 20.1597 41.5764 20.1353 41.6415 20.1043C42.3218 19.8088 46.2197 17.3826 46.432 17.2472C46.632 17.119 46.5829 17.1469 46.6248 17.119C46.6693 17.0904 46.7198 17.0725 46.7723 17.0666C46.8249 17.0607 46.8781 17.067 46.9278 17.0851C46.9775 17.1031 47.0224 17.1323 47.059 17.1706C47.0956 17.2088 47.1228 17.2549 47.1387 17.3054C47.3139 17.6561 47.2735 18.6814 47.0216 19.0678C46.5898 19.7186 42.403 21.9527 41.5397 22.032C41.4747 22.0412 41.4084 22.0287 41.3513 21.9963C41.2297 21.9142 41.2574 21.8372 41.2776 21.1887C41.279 21.1539 41.309 20.3584 41.3149 20.2716C41.3148 20.2551 41.3189 20.239 41.3267 20.2246C41.3346 20.2101 41.346 20.198 41.3599 20.1892C41.3737 20.1804 41.3896 20.1752 41.406 20.1743C41.4224 20.1733 41.4387 20.1765 41.4535 20.1836H41.4558L41.4499 20.1813ZM41.5733 21.8229V21.8183V21.821V21.816V21.8183V21.812V21.8229ZM43.0114 19.7161C42.5295 19.9737 42.0279 20.1925 41.5113 20.3704C41.5195 20.6232 41.5429 21.3153 41.5629 21.7013C41.7028 21.6587 41.8395 21.6063 41.972 21.5444C42.5875 21.2692 46.3861 19.2296 46.6268 18.7675C46.7111 18.5421 46.7548 18.3036 46.7559 18.0629C46.7615 17.9164 46.7529 17.7696 46.7302 17.6247C45.6567 18.2998 44.0475 19.1958 43.0114 19.7161Z" fill="url(#paint31_linear_856_11085)"/>
<path fill-rule="evenodd" clip-rule="evenodd" d="M40.0227 20.4441V20.4459L39.9966 20.53L39.917 20.5755C38.8611 20.722 37.7964 20.7966 36.7303 20.7987C36.0294 20.8062 33.9219 20.7712 33.2718 20.5407L33.1061 20.3848L33.0981 20.1575V20.1559L33.2534 19.9904C33.5943 19.9782 33.3757 19.9702 33.7014 20.0434C34.5533 20.2189 36.3073 20.3121 37.1738 20.348C39.782 20.4523 39.7106 20.285 39.9777 20.3673L40.0227 20.4441Z" fill="url(#paint32_linear_856_11085)"/>
<path fill-rule="evenodd" clip-rule="evenodd" d="M31.6534 31.2663C29.6825 33.9126 28.2928 36.9454 27.5755 40.1661C27.3345 41.2378 27.4586 41.0237 27.2854 41.1607L27.2002 41.0509C27.4543 37.3514 28.9731 33.8518 31.5015 31.1392L31.6409 31.127L31.6534 31.2663Z" fill="url(#paint33_linear_856_11085)"/>
<defs>
<linearGradient id="paint0_linear_856_11085" x1="31.4619" y1="9.84521" x2="0.818116" y2="12.0589" gradientUnits="userSpaceOnUse">
<stop stop-color="#001237"/>
<stop offset="0.190429" stop-color="#03045E"/>
<stop offset="0.780728" stop-color="#03045E"/>
<stop offset="1" stop-color="#001237"/>
</linearGradient>
<linearGradient id="paint1_linear_856_11085" x1="13.9055" y1="14.2733" x2="4.26356" y2="14.6879" gradientUnits="userSpaceOnUse">
<stop stop-color="#001237"/>
<stop offset="0.190429" stop-color="#03045E"/>
<stop offset="0.780728" stop-color="#03045E"/>
<stop offset="1" stop-color="#001237"/>
</linearGradient>
<linearGradient id="paint2_linear_856_11085" x1="14.2232" y1="14.1433" x2="4.13942" y2="14.5817" gradientUnits="userSpaceOnUse">
<stop stop-color="#001237"/>
<stop offset="0.190429" stop-color="#03045E"/>
<stop offset="0.780728" stop-color="#03045E"/>
<stop offset="1" stop-color="#001237"/>
</linearGradient>
<linearGradient id="paint3_linear_856_11085" x1="27.5589" y1="8.61866" x2="15.5266" y2="9.97537" gradientUnits="userSpaceOnUse">
<stop stop-color="#001237"/>
<stop offset="0.190429" stop-color="#03045E"/>
<stop offset="0.780728" stop-color="#03045E"/>
<stop offset="1" stop-color="#001237"/>
</linearGradient>
<linearGradient id="paint4_linear_856_11085" x1="27.9066" y1="14.8596" x2="16.9573" y2="17.7855" gradientUnits="userSpaceOnUse">
<stop stop-color="#001237"/>
<stop offset="0.190429" stop-color="#03045E"/>
<stop offset="0.780728" stop-color="#03045E"/>
<stop offset="1" stop-color="#001237"/>
</linearGradient>
<linearGradient id="paint5_linear_856_11085" x1="28.0983" y1="17.8733" x2="17.1492" y2="20.7992" gradientUnits="userSpaceOnUse">
<stop stop-color="#001237"/>
<stop offset="0.190429" stop-color="#03045E"/>
<stop offset="0.780728" stop-color="#03045E"/>
<stop offset="1" stop-color="#001237"/>
</linearGradient>
<linearGradient id="paint6_linear_856_11085" x1="68.1503" y1="9.54911" x2="37.6588" y2="11.8729" gradientUnits="userSpaceOnUse">
<stop stop-color="#001237"/>
<stop offset="0.190429" stop-color="#03045E"/>
<stop offset="0.780728" stop-color="#03045E"/>
<stop offset="1" stop-color="#001237"/>
</linearGradient>
<linearGradient id="paint7_linear_856_11085" x1="64.218" y1="13.2333" x2="55.1196" y2="13.6139" gradientUnits="userSpaceOnUse">
<stop stop-color="#001237"/>
<stop offset="0.190429" stop-color="#03045E"/>
<stop offset="0.780728" stop-color="#03045E"/>
<stop offset="1" stop-color="#001237"/>
</linearGradient>
<linearGradient id="paint8_linear_856_11085" x1="64.3642" y1="13.1051" x2="54.8226" y2="13.5094" gradientUnits="userSpaceOnUse">
<stop stop-color="#001237"/>
<stop offset="0.190429" stop-color="#03045E"/>
<stop offset="0.780728" stop-color="#03045E"/>
<stop offset="1" stop-color="#001237"/>
</linearGradient>
<linearGradient id="paint9_linear_856_11085" x1="53.0363" y1="8.39026" x2="41.0594" y2="9.86256" gradientUnits="userSpaceOnUse">
<stop stop-color="#001237"/>
<stop offset="0.190429" stop-color="#03045E"/>
<stop offset="0.780728" stop-color="#03045E"/>
<stop offset="1" stop-color="#001237"/>
</linearGradient>
<linearGradient id="paint10_linear_856_11085" x1="52.7873" y1="15.89" x2="40.8105" y2="17.3625" gradientUnits="userSpaceOnUse">
<stop stop-color="#001237"/>
<stop offset="0.190429" stop-color="#03045E"/>
<stop offset="0.780728" stop-color="#03045E"/>
<stop offset="1" stop-color="#001237"/>
</linearGradient>
<linearGradient id="paint11_linear_856_11085" x1="29.9164" y1="24.6517" x2="19.4949" y2="24.9941" gradientUnits="userSpaceOnUse">
<stop stop-color="#001237"/>
<stop offset="0.190429" stop-color="#03045E"/>
<stop offset="0.780728" stop-color="#03045E"/>
<stop offset="1" stop-color="#001237"/>
</linearGradient>
<linearGradient id="paint12_linear_856_11085" x1="21.2395" y1="23.6011" x2="19.0585" y2="23.7262" gradientUnits="userSpaceOnUse">
<stop stop-color="#001237"/>
<stop offset="0.190429" stop-color="#03045E"/>
<stop offset="0.780728" stop-color="#03045E"/>
<stop offset="1" stop-color="#001237"/>
</linearGradient>
<linearGradient id="paint13_linear_856_11085" x1="22.2072" y1="23.0269" x2="20.0263" y2="23.152" gradientUnits="userSpaceOnUse">
<stop stop-color="#001237"/>
<stop offset="0.190429" stop-color="#03045E"/>
<stop offset="0.780728" stop-color="#03045E"/>
<stop offset="1" stop-color="#001237"/>
</linearGradient>
<linearGradient id="paint14_linear_856_11085" x1="23.5313" y1="23.2214" x2="20.8464" y2="23.4517" gradientUnits="userSpaceOnUse">
<stop stop-color="#001237"/>
<stop offset="0.190429" stop-color="#03045E"/>
<stop offset="0.780728" stop-color="#03045E"/>
<stop offset="1" stop-color="#001237"/>
</linearGradient>
<linearGradient id="paint15_linear_856_11085" x1="51.3356" y1="32.404" x2="25.5779" y2="34.5687" gradientUnits="userSpaceOnUse">
<stop stop-color="#001237"/>
<stop offset="0.190429" stop-color="#03045E"/>
<stop offset="0.780728" stop-color="#03045E"/>
<stop offset="1" stop-color="#001237"/>
</linearGradient>
<linearGradient id="paint16_linear_856_11085" x1="45.5998" y1="42.8794" x2="18.8178" y2="48.8957" gradientUnits="userSpaceOnUse">
<stop stop-color="#001237"/>
<stop offset="0.190429" stop-color="#03045E"/>
<stop offset="0.780728" stop-color="#03045E"/>
<stop offset="1" stop-color="#001237"/>
</linearGradient>
<linearGradient id="paint17_linear_856_11085" x1="41.2955" y1="35.736" x2="36.16" y2="35.9971" gradientUnits="userSpaceOnUse">
<stop stop-color="#001237"/>
<stop offset="0.190429" stop-color="#03045E"/>
<stop offset="0.780728" stop-color="#03045E"/>
<stop offset="1" stop-color="#001237"/>
</linearGradient>
<linearGradient id="paint18_linear_856_11085" x1="55.3518" y1="43.3157" x2="6.94566" y2="48.6696" gradientUnits="userSpaceOnUse">
<stop stop-color="#001237"/>
<stop offset="0.190429" stop-color="#03045E"/>
<stop offset="0.780728" stop-color="#03045E"/>
<stop offset="1" stop-color="#001237"/>
</linearGradient>
<linearGradient id="paint19_linear_856_11085" x1="27.7896" y1="46.6947" x2="14.9984" y2="47.4414" gradientUnits="userSpaceOnUse">
<stop stop-color="#001237"/>
<stop offset="0.190429" stop-color="#03045E"/>
<stop offset="0.780728" stop-color="#03045E"/>
<stop offset="1" stop-color="#001237"/>
</linearGradient>
<linearGradient id="paint20_linear_856_11085" x1="45.9748" y1="47.9814" x2="32.7417" y2="48.8032" gradientUnits="userSpaceOnUse">
<stop stop-color="#001237"/>
<stop offset="0.190429" stop-color="#03045E"/>
<stop offset="0.780728" stop-color="#03045E"/>
<stop offset="1" stop-color="#001237"/>
</linearGradient>
<linearGradient id="paint21_linear_856_11085" x1="26.5141" y1="59.535" x2="16.5335" y2="64.0015" gradientUnits="userSpaceOnUse">
<stop stop-color="#001237"/>
<stop offset="0.190429" stop-color="#03045E"/>
<stop offset="0.780728" stop-color="#03045E"/>
<stop offset="1" stop-color="#001237"/>
</linearGradient>
<linearGradient id="paint22_linear_856_11085" x1="45.387" y1="61.0664" x2="36.4924" y2="66.8508" gradientUnits="userSpaceOnUse">
<stop stop-color="#001237"/>
<stop offset="0.190429" stop-color="#03045E"/>
<stop offset="0.780728" stop-color="#03045E"/>
<stop offset="1" stop-color="#001237"/>
</linearGradient>
<linearGradient id="paint23_linear_856_11085" x1="12.5726" y1="49.1087" x2="9.15155" y2="49.299" gradientUnits="userSpaceOnUse">
<stop stop-color="#001237"/>
<stop offset="0.190429" stop-color="#03045E"/>
<stop offset="0.780728" stop-color="#03045E"/>
<stop offset="1" stop-color="#001237"/>
</linearGradient>
<linearGradient id="paint24_linear_856_11085" x1="52.0203" y1="51.0682" x2="48.6863" y2="51.2485" gradientUnits="userSpaceOnUse">
<stop stop-color="#001237"/>
<stop offset="0.190429" stop-color="#03045E"/>
<stop offset="0.780728" stop-color="#03045E"/>
<stop offset="1" stop-color="#001237"/>
</linearGradient>
<linearGradient id="paint25_linear_856_11085" x1="45.0886" y1="18.9438" x2="33.2717" y2="19.6746" gradientUnits="userSpaceOnUse">
<stop stop-color="#001237"/>
<stop offset="0.190429" stop-color="#03045E"/>
<stop offset="0.780728" stop-color="#03045E"/>
<stop offset="1" stop-color="#001237"/>
</linearGradient>
<linearGradient id="paint26_linear_856_11085" x1="47.3836" y1="14.4815" x2="32.6504" y2="15.9447" gradientUnits="userSpaceOnUse">
<stop stop-color="#001237"/>
<stop offset="0.190429" stop-color="#03045E"/>
<stop offset="0.780728" stop-color="#03045E"/>
<stop offset="1" stop-color="#001237"/>
</linearGradient>
<linearGradient id="paint27_linear_856_11085" x1="47.5411" y1="14.4156" x2="32.5513" y2="15.8905" gradientUnits="userSpaceOnUse">
<stop stop-color="#001237"/>
<stop offset="0.190429" stop-color="#03045E"/>
<stop offset="0.780728" stop-color="#03045E"/>
<stop offset="1" stop-color="#001237"/>
</linearGradient>
<linearGradient id="paint28_linear_856_11085" x1="37.4822" y1="24.061" x2="35.9399" y2="24.1496" gradientUnits="userSpaceOnUse">
<stop stop-color="#001237"/>
<stop offset="0.190429" stop-color="#03045E"/>
<stop offset="0.780728" stop-color="#03045E"/>
<stop offset="1" stop-color="#001237"/>
</linearGradient>
<linearGradient id="paint29_linear_856_11085" x1="43.0855" y1="19.1296" x2="31.8562" y2="20.5627" gradientUnits="userSpaceOnUse">
<stop stop-color="#001237"/>
<stop offset="0.190429" stop-color="#03045E"/>
<stop offset="0.780728" stop-color="#03045E"/>
<stop offset="1" stop-color="#001237"/>
</linearGradient>
<linearGradient id="paint30_linear_856_11085" x1="41.9821" y1="20.0746" x2="31.7382" y2="21.5203" gradientUnits="userSpaceOnUse">
<stop stop-color="#001237"/>
<stop offset="0.190429" stop-color="#03045E"/>
<stop offset="0.780728" stop-color="#03045E"/>
<stop offset="1" stop-color="#001237"/>
</linearGradient>
<linearGradient id="paint31_linear_856_11085" x1="47.4671" y1="18.2058" x2="41.2047" y2="18.7513" gradientUnits="userSpaceOnUse">
<stop stop-color="#001237"/>
<stop offset="0.190429" stop-color="#03045E"/>
<stop offset="0.780728" stop-color="#03045E"/>
<stop offset="1" stop-color="#001237"/>
</linearGradient>
<linearGradient id="paint32_linear_856_11085" x1="40.2788" y1="20.1701" x2="34.9725" y2="23.4221" gradientUnits="userSpaceOnUse">
<stop stop-color="#001237"/>
<stop offset="0.190429" stop-color="#03045E"/>
<stop offset="0.780728" stop-color="#03045E"/>
<stop offset="1" stop-color="#001237"/>
</linearGradient>
<linearGradient id="paint33_linear_856_11085" x1="31.8181" y1="33.431" x2="27.1287" y2="33.5815" gradientUnits="userSpaceOnUse">
<stop stop-color="#001237"/>
<stop offset="0.190429" stop-color="#03045E"/>
<stop offset="0.780728" stop-color="#03045E"/>
<stop offset="1" stop-color="#001237"/>
</linearGradient>
</defs>
</svg>
